M48
;DRILL file {kicad (2014-jan-25)-product} date Tue 12 Aug 2014 10:30:59 PM PDT
;FORMAT={2:4/ absolute / inch / suppress leading zeros}
FMAT,2
INCH,TZ
T1C0.025
T2C0.032
T3C0.032
T4C0.039
T5C0.040
T6C0.047
T7C0.050
T8C0.125
T9C0.150
%
G90
G05
M72
T1
X46500Y-53000
X48500Y-53500
X49000Y-52500
X51750Y-44250
X52000Y-53000
X52500Y-45500
X52750Y-53500
X53650Y-55850
X54000Y-47500
X55250Y-50000
X55500Y-46250
X55500Y-48000
X55500Y-56250
X55750Y-54000
X56000Y-51500
X56250Y-47000
X56250Y-55000
X56750Y-45500
X60250Y-49850
X60550Y-44800
X60550Y-52400
X60850Y-46350
X60850Y-51100
X61150Y-46900
X61250Y-52400
X67750Y-42500
X71000Y-50750
X71250Y-58500
X72000Y-46500
X72500Y-48000
X74500Y-46500
X76500Y-45750
X77250Y-46000
T2
X43000Y-43000
X43000Y-44000
X43250Y-40750
X43250Y-41750
X44250Y-44000
X45250Y-44000
X46000Y-50750
X47000Y-50750
X48750Y-47500
X49539Y-50000
X49750Y-47500
X50750Y-55750
X51000Y-48250
X51461Y-50000
X51750Y-55750
X52000Y-48250
X53500Y-48000
X53500Y-49000
X53500Y-50250
X53500Y-51250
X58750Y-49250
X59750Y-49250
X67000Y-54000
X67000Y-55000
X68500Y-52000
X68500Y-53000
X68500Y-54000
X68500Y-55000
X68750Y-48250
X68750Y-49250
T3
X44000Y-45750
X44000Y-46750
X44000Y-47750
X44000Y-48750
X46000Y-51750
X46000Y-54750
X47000Y-45750
X47000Y-46750
X47000Y-47750
X47000Y-48750
X47000Y-51750
X47000Y-54750
X48000Y-51750
X48000Y-54750
X49000Y-51750
X49000Y-54750
X50000Y-51750
X50000Y-54750
X51000Y-51750
X51000Y-54750
X52000Y-51750
X52000Y-54750
X54500Y-42000
X54500Y-43000
X54500Y-44000
X54500Y-45000
X54500Y-46000
X54500Y-47000
X54500Y-48000
X54500Y-49000
X54500Y-50000
X54500Y-51000
X54500Y-52000
X54500Y-53000
X54500Y-54000
X54500Y-55000
X57500Y-42000
X57500Y-43000
X57500Y-44000
X57500Y-45000
X57500Y-46000
X57500Y-47000
X57500Y-48000
X57500Y-49000
X57500Y-50000
X57500Y-51000
X57500Y-52000
X57500Y-53000
X57500Y-54000
X57500Y-55000
X64250Y-40000
X64250Y-41000
X64250Y-42000
X64250Y-43000
X64250Y-44750
X64250Y-45750
X64250Y-46750
X64250Y-47750
X64250Y-49250
X64250Y-50250
X64250Y-51250
X64250Y-52250
X67250Y-40000
X67250Y-41000
X67250Y-42000
X67250Y-43000
X67250Y-44750
X67250Y-45750
X67250Y-46750
X67250Y-47750
X67250Y-49250
X67250Y-50250
X67250Y-51250
X67250Y-52250
X70500Y-47250
X70500Y-50250
X71500Y-47250
X71500Y-50250
X72500Y-47250
X72500Y-50250
X73500Y-47250
X73500Y-50250
X74500Y-47250
X74500Y-50250
X75500Y-47250
X75500Y-50250
X76500Y-47250
X76500Y-50250
X77500Y-47250
X77500Y-50250
T4
X44250Y-50000
X44250Y-54000
X44500Y-40750
X44500Y-41750
X44500Y-42750
X46500Y-44500
X48000Y-46250
X50500Y-44500
X53250Y-42250
X53250Y-46250
X58750Y-41750
X58750Y-43000
X58750Y-44250
X58750Y-45500
X58750Y-46750
X58750Y-48000
X58750Y-50500
X58750Y-51750
X58750Y-53000
X58750Y-54250
X58750Y-55500
X62750Y-41750
X62750Y-43000
X62750Y-44250
X62750Y-45500
X62750Y-46750
X62750Y-48000
X62750Y-50500
X62750Y-51750
X62750Y-53000
X62750Y-54250
X62750Y-55500
X64750Y-53500
X64750Y-57500
X68500Y-40250
X68500Y-44250
X68750Y-56500
X69750Y-45500
X70000Y-40250
X70000Y-44250
X70000Y-52000
X70000Y-53000
X70000Y-54000
X71500Y-40250
X71500Y-44250
X72750Y-56500
X73000Y-40250
X73000Y-44250
X73750Y-45500
X74500Y-40250
X74500Y-44250
T5
X41000Y-47250
X41000Y-48250
X41000Y-49250
X41000Y-50250
X41000Y-51250
X41000Y-54000
X42000Y-47250
X42000Y-48250
X42000Y-49250
X42000Y-50250
X42000Y-51250
X42000Y-54000
X43000Y-54000
X44000Y-57000
X45000Y-57000
X46000Y-57000
X47000Y-57000
X48500Y-57000
X49500Y-57000
X50500Y-57000
X51500Y-57000
X53000Y-57000
X53250Y-40250
X54000Y-57000
X54250Y-40250
X55000Y-57000
X55250Y-40250
X56000Y-57000
X56250Y-40250
X57250Y-40250
X57500Y-57000
X58250Y-40250
X58500Y-57000
X59500Y-57000
X60500Y-57000
X74250Y-56250
X74250Y-57250
X74250Y-58250
X78000Y-43000
X78000Y-44000
X78000Y-45250
X78000Y-46250
T6
X60220Y-40250
X62780Y-40250
T7
X52000Y-46250
T8
X41339Y-41339
X41339Y-57087
X76772Y-41339
X76772Y-57087
T9
X51100Y-41750
X76600Y-53000
T0
M30
