%FSLAX34Y34*%
G04 Gerber Fmt 3.4, Leading zero omitted, Abs format*
G04 (created by PCBNEW (2014-jan-25)-product) date Sun 17 Aug 2014 09:35:05 PM PDT*
%MOIN*%
G01*
G70*
G90*
G04 APERTURE LIST*
%ADD10C,0.003937*%
%ADD11C,0.059100*%
%ADD12C,0.078700*%
%ADD13R,0.078700X0.078700*%
%ADD14C,0.236220*%
%ADD15R,0.068000X0.068000*%
%ADD16C,0.068000*%
%ADD17O,0.068000X0.068000*%
%ADD18R,0.080000X0.080000*%
%ADD19O,0.080000X0.080000*%
%ADD20O,0.137800X0.066900*%
%ADD21R,0.620000X0.380000*%
%ADD22R,0.055000X0.055000*%
%ADD23C,0.055000*%
%ADD24R,0.060000X0.060000*%
%ADD25C,0.060000*%
G04 APERTURE END LIST*
G54D10*
G54D11*
X68500Y-52000D03*
X68500Y-53000D03*
X67000Y-54000D03*
X67000Y-55000D03*
X68500Y-54000D03*
X68500Y-55000D03*
X68750Y-48250D03*
X68750Y-49250D03*
X53500Y-50250D03*
X53500Y-51250D03*
X43250Y-40750D03*
X43250Y-41750D03*
X51000Y-48250D03*
X52000Y-48250D03*
X44250Y-44000D03*
X45250Y-44000D03*
X43000Y-44000D03*
X43000Y-43000D03*
X49750Y-47500D03*
X48750Y-47500D03*
X53500Y-48000D03*
X53500Y-49000D03*
X58750Y-49250D03*
X59750Y-49250D03*
X46000Y-50750D03*
X47000Y-50750D03*
X50750Y-55750D03*
X51750Y-55750D03*
G54D12*
X52000Y-46250D03*
G54D13*
X48000Y-46250D03*
G54D14*
X41338Y-41338D03*
X76771Y-41338D03*
X41338Y-57086D03*
X76771Y-57086D03*
G54D15*
X74250Y-58250D03*
G54D16*
X74250Y-57250D03*
X74250Y-56250D03*
G54D15*
X43000Y-54000D03*
G54D16*
X42000Y-54000D03*
X41000Y-54000D03*
G54D15*
X53000Y-57000D03*
G54D17*
X54000Y-57000D03*
X55000Y-57000D03*
X56000Y-57000D03*
G54D15*
X57500Y-57000D03*
G54D17*
X58500Y-57000D03*
X59500Y-57000D03*
X60500Y-57000D03*
G54D18*
X78000Y-45250D03*
G54D19*
X78000Y-46250D03*
G54D18*
X78000Y-44000D03*
G54D19*
X78000Y-43000D03*
G54D15*
X48500Y-57000D03*
G54D17*
X49500Y-57000D03*
X50500Y-57000D03*
X51500Y-57000D03*
G54D15*
X44000Y-57000D03*
G54D17*
X45000Y-57000D03*
X46000Y-57000D03*
X47000Y-57000D03*
G54D12*
X72750Y-56500D03*
X68750Y-56500D03*
X58750Y-41750D03*
X62750Y-41750D03*
X58750Y-43000D03*
X62750Y-43000D03*
X58750Y-44250D03*
X62750Y-44250D03*
X58750Y-45500D03*
X62750Y-45500D03*
X58750Y-46750D03*
X62750Y-46750D03*
X58750Y-48000D03*
X62750Y-48000D03*
X68500Y-40250D03*
X68500Y-44250D03*
X70000Y-40250D03*
X70000Y-44250D03*
X71500Y-40250D03*
X71500Y-44250D03*
X73000Y-40250D03*
X73000Y-44250D03*
X74500Y-40250D03*
X74500Y-44250D03*
X69750Y-45500D03*
X73750Y-45500D03*
X50500Y-44500D03*
X46500Y-44500D03*
X62750Y-50500D03*
X58750Y-50500D03*
X58750Y-51750D03*
X62750Y-51750D03*
X62750Y-53000D03*
X58750Y-53000D03*
X58750Y-54250D03*
X62750Y-54250D03*
X44250Y-50000D03*
X44250Y-54000D03*
X62750Y-55500D03*
X58750Y-55500D03*
X64750Y-57500D03*
X64750Y-53500D03*
X53250Y-46250D03*
X53250Y-42250D03*
G54D13*
X62780Y-40250D03*
G54D12*
X60220Y-40250D03*
G54D20*
X70000Y-53000D03*
X70000Y-52000D03*
X70000Y-54000D03*
G54D21*
X74700Y-53000D03*
G54D22*
X64250Y-40000D03*
G54D23*
X64250Y-41000D03*
X64250Y-42000D03*
X64250Y-43000D03*
X67250Y-43000D03*
X67250Y-42000D03*
X67250Y-41000D03*
X67250Y-40000D03*
G54D22*
X64250Y-44750D03*
G54D23*
X64250Y-45750D03*
X64250Y-46750D03*
X64250Y-47750D03*
X67250Y-47750D03*
X67250Y-46750D03*
X67250Y-45750D03*
X67250Y-44750D03*
G54D22*
X64250Y-49250D03*
G54D23*
X64250Y-50250D03*
X64250Y-51250D03*
X64250Y-52250D03*
X67250Y-52250D03*
X67250Y-51250D03*
X67250Y-50250D03*
X67250Y-49250D03*
G54D20*
X44500Y-41750D03*
X44500Y-40750D03*
X44500Y-42750D03*
G54D21*
X49200Y-41750D03*
G54D22*
X44000Y-45750D03*
G54D23*
X44000Y-46750D03*
X44000Y-47750D03*
X44000Y-48750D03*
X47000Y-48750D03*
X47000Y-47750D03*
X47000Y-46750D03*
X47000Y-45750D03*
G54D11*
X51461Y-50000D03*
X49539Y-50000D03*
G54D24*
X41000Y-47250D03*
G54D25*
X42000Y-47250D03*
X41000Y-48250D03*
X42000Y-48250D03*
X41000Y-49250D03*
X42000Y-49250D03*
X41000Y-50250D03*
X42000Y-50250D03*
X41000Y-51250D03*
X42000Y-51250D03*
G54D15*
X53250Y-40250D03*
G54D16*
X54250Y-40250D03*
X55250Y-40250D03*
X56250Y-40250D03*
X57250Y-40250D03*
X58250Y-40250D03*
G54D22*
X70500Y-50250D03*
G54D23*
X71500Y-50250D03*
X72500Y-50250D03*
X73500Y-50250D03*
X74500Y-50250D03*
X75500Y-50250D03*
X76500Y-50250D03*
X77500Y-50250D03*
X77500Y-47250D03*
X76500Y-47250D03*
X75500Y-47250D03*
X74500Y-47250D03*
X73500Y-47250D03*
X72500Y-47250D03*
X71500Y-47250D03*
X70500Y-47250D03*
X54500Y-43000D03*
X54500Y-44000D03*
X54500Y-45000D03*
X54500Y-46000D03*
X54500Y-47000D03*
X54500Y-48000D03*
X54500Y-49000D03*
X54500Y-50000D03*
X54500Y-51000D03*
X54500Y-52000D03*
X54500Y-53000D03*
X54500Y-54000D03*
X54500Y-55000D03*
G54D22*
X54500Y-42000D03*
G54D23*
X57500Y-55000D03*
X57500Y-54000D03*
X57500Y-53000D03*
X57500Y-52000D03*
X57500Y-51000D03*
X57500Y-50000D03*
X57500Y-49000D03*
X57500Y-48000D03*
X57500Y-47000D03*
X57500Y-46000D03*
X57500Y-45000D03*
X57500Y-44000D03*
X57500Y-43000D03*
X57500Y-42000D03*
G54D22*
X46000Y-54750D03*
G54D23*
X47000Y-54750D03*
X48000Y-54750D03*
X49000Y-54750D03*
X50000Y-54750D03*
X51000Y-54750D03*
X52000Y-54750D03*
X52000Y-51750D03*
X51000Y-51750D03*
X50000Y-51750D03*
X49000Y-51750D03*
X48000Y-51750D03*
X47000Y-51750D03*
X46000Y-51750D03*
M02*
