%FSLAX34Y34*%
G04 Gerber Fmt 3.4, Leading zero omitted, Abs format*
G04 (created by PCBNEW (2014-jan-25)-product) date Sun 17 Aug 2014 09:35:05 PM PDT*
%MOIN*%
G01*
G70*
G90*
G04 APERTURE LIST*
%ADD10C,0.003937*%
%ADD11C,0.008000*%
%ADD12C,0.015000*%
%ADD13C,0.012000*%
%ADD14C,0.010000*%
%ADD15C,0.005906*%
G04 APERTURE END LIST*
G54D10*
G54D11*
X39370Y-59055D02*
X39370Y-39370D01*
X78740Y-59055D02*
X39370Y-59055D01*
X78740Y-39370D02*
X78740Y-59055D01*
X39370Y-39370D02*
X78740Y-39370D01*
X50669Y-58521D02*
X50726Y-58540D01*
X50745Y-58559D01*
X50764Y-58597D01*
X50764Y-58654D01*
X50745Y-58692D01*
X50726Y-58711D01*
X50688Y-58730D01*
X50535Y-58730D01*
X50535Y-58330D01*
X50669Y-58330D01*
X50707Y-58350D01*
X50726Y-58369D01*
X50745Y-58407D01*
X50745Y-58445D01*
X50726Y-58483D01*
X50707Y-58502D01*
X50669Y-58521D01*
X50535Y-58521D01*
X50935Y-58330D02*
X50935Y-58654D01*
X50954Y-58692D01*
X50973Y-58711D01*
X51011Y-58730D01*
X51088Y-58730D01*
X51126Y-58711D01*
X51145Y-58692D01*
X51164Y-58654D01*
X51164Y-58330D01*
X51335Y-58711D02*
X51392Y-58730D01*
X51488Y-58730D01*
X51526Y-58711D01*
X51545Y-58692D01*
X51564Y-58654D01*
X51564Y-58616D01*
X51545Y-58578D01*
X51526Y-58559D01*
X51488Y-58540D01*
X51411Y-58521D01*
X51373Y-58502D01*
X51354Y-58483D01*
X51335Y-58445D01*
X51335Y-58407D01*
X51354Y-58369D01*
X51373Y-58350D01*
X51411Y-58330D01*
X51507Y-58330D01*
X51564Y-58350D01*
X51640Y-58769D02*
X51945Y-58769D01*
X52173Y-58521D02*
X52230Y-58540D01*
X52250Y-58559D01*
X52269Y-58597D01*
X52269Y-58654D01*
X52250Y-58692D01*
X52230Y-58711D01*
X52192Y-58730D01*
X52040Y-58730D01*
X52040Y-58330D01*
X52173Y-58330D01*
X52211Y-58350D01*
X52230Y-58369D01*
X52250Y-58407D01*
X52250Y-58445D01*
X52230Y-58483D01*
X52211Y-58502D01*
X52173Y-58521D01*
X52040Y-58521D01*
X52669Y-58730D02*
X52535Y-58540D01*
X52440Y-58730D02*
X52440Y-58330D01*
X52592Y-58330D01*
X52630Y-58350D01*
X52650Y-58369D01*
X52669Y-58407D01*
X52669Y-58464D01*
X52650Y-58502D01*
X52630Y-58521D01*
X52592Y-58540D01*
X52440Y-58540D01*
X52840Y-58730D02*
X52840Y-58330D01*
X53030Y-58730D02*
X53030Y-58330D01*
X53126Y-58330D01*
X53183Y-58350D01*
X53221Y-58388D01*
X53240Y-58426D01*
X53259Y-58502D01*
X53259Y-58559D01*
X53240Y-58635D01*
X53221Y-58673D01*
X53183Y-58711D01*
X53126Y-58730D01*
X53030Y-58730D01*
X53640Y-58350D02*
X53602Y-58330D01*
X53545Y-58330D01*
X53488Y-58350D01*
X53450Y-58388D01*
X53430Y-58426D01*
X53411Y-58502D01*
X53411Y-58559D01*
X53430Y-58635D01*
X53450Y-58673D01*
X53488Y-58711D01*
X53545Y-58730D01*
X53583Y-58730D01*
X53640Y-58711D01*
X53659Y-58692D01*
X53659Y-58559D01*
X53583Y-58559D01*
X53830Y-58521D02*
X53964Y-58521D01*
X54021Y-58730D02*
X53830Y-58730D01*
X53830Y-58330D01*
X54021Y-58330D01*
X54097Y-58769D02*
X54402Y-58769D01*
X54497Y-58521D02*
X54630Y-58521D01*
X54688Y-58730D02*
X54497Y-58730D01*
X54497Y-58330D01*
X54688Y-58330D01*
X54859Y-58730D02*
X54859Y-58330D01*
X55088Y-58730D01*
X55088Y-58330D01*
X55507Y-58692D02*
X55488Y-58711D01*
X55430Y-58730D01*
X55392Y-58730D01*
X55335Y-58711D01*
X55297Y-58673D01*
X55278Y-58635D01*
X55259Y-58559D01*
X55259Y-58502D01*
X55278Y-58426D01*
X55297Y-58388D01*
X55335Y-58350D01*
X55392Y-58330D01*
X55430Y-58330D01*
X55488Y-58350D01*
X55507Y-58369D01*
X55754Y-58330D02*
X55830Y-58330D01*
X55869Y-58350D01*
X55907Y-58388D01*
X55926Y-58464D01*
X55926Y-58597D01*
X55907Y-58673D01*
X55869Y-58711D01*
X55830Y-58730D01*
X55754Y-58730D01*
X55716Y-58711D01*
X55678Y-58673D01*
X55659Y-58597D01*
X55659Y-58464D01*
X55678Y-58388D01*
X55716Y-58350D01*
X55754Y-58330D01*
X56097Y-58730D02*
X56097Y-58330D01*
X56192Y-58330D01*
X56250Y-58350D01*
X56288Y-58388D01*
X56307Y-58426D01*
X56326Y-58502D01*
X56326Y-58559D01*
X56307Y-58635D01*
X56288Y-58673D01*
X56250Y-58711D01*
X56192Y-58730D01*
X56097Y-58730D01*
X56497Y-58521D02*
X56630Y-58521D01*
X56688Y-58730D02*
X56497Y-58730D01*
X56497Y-58330D01*
X56688Y-58330D01*
X57088Y-58730D02*
X56954Y-58540D01*
X56859Y-58730D02*
X56859Y-58330D01*
X57011Y-58330D01*
X57050Y-58350D01*
X57069Y-58369D01*
X57088Y-58407D01*
X57088Y-58464D01*
X57069Y-58502D01*
X57050Y-58521D01*
X57011Y-58540D01*
X56859Y-58540D01*
X57240Y-58711D02*
X57297Y-58730D01*
X57392Y-58730D01*
X57430Y-58711D01*
X57450Y-58692D01*
X57469Y-58654D01*
X57469Y-58616D01*
X57450Y-58578D01*
X57430Y-58559D01*
X57392Y-58540D01*
X57316Y-58521D01*
X57278Y-58502D01*
X57259Y-58483D01*
X57240Y-58445D01*
X57240Y-58407D01*
X57259Y-58369D01*
X57278Y-58350D01*
X57316Y-58330D01*
X57411Y-58330D01*
X57469Y-58350D01*
X57545Y-58769D02*
X57850Y-58769D01*
X57926Y-58711D02*
X57983Y-58730D01*
X58078Y-58730D01*
X58116Y-58711D01*
X58135Y-58692D01*
X58154Y-58654D01*
X58154Y-58616D01*
X58135Y-58578D01*
X58116Y-58559D01*
X58078Y-58540D01*
X58002Y-58521D01*
X57964Y-58502D01*
X57945Y-58483D01*
X57926Y-58445D01*
X57926Y-58407D01*
X57945Y-58369D01*
X57964Y-58350D01*
X58002Y-58330D01*
X58097Y-58330D01*
X58154Y-58350D01*
X58326Y-58730D02*
X58326Y-58330D01*
X58326Y-58521D02*
X58554Y-58521D01*
X58554Y-58730D02*
X58554Y-58330D01*
X58726Y-58616D02*
X58916Y-58616D01*
X58688Y-58730D02*
X58821Y-58330D01*
X58954Y-58730D01*
X59221Y-58521D02*
X59088Y-58521D01*
X59088Y-58730D02*
X59088Y-58330D01*
X59278Y-58330D01*
X59373Y-58330D02*
X59602Y-58330D01*
X59488Y-58730D02*
X59488Y-58330D01*
X60269Y-58730D02*
X60135Y-58540D01*
X60040Y-58730D02*
X60040Y-58330D01*
X60192Y-58330D01*
X60230Y-58350D01*
X60250Y-58369D01*
X60269Y-58407D01*
X60269Y-58464D01*
X60250Y-58502D01*
X60230Y-58521D01*
X60192Y-58540D01*
X60040Y-58540D01*
X60440Y-58521D02*
X60573Y-58521D01*
X60630Y-58730D02*
X60440Y-58730D01*
X60440Y-58330D01*
X60630Y-58330D01*
X60745Y-58330D02*
X60878Y-58730D01*
X61011Y-58330D01*
X61145Y-58692D02*
X61164Y-58711D01*
X61145Y-58730D01*
X61126Y-58711D01*
X61145Y-58692D01*
X61145Y-58730D01*
X61621Y-58616D02*
X61811Y-58616D01*
X61583Y-58730D02*
X61716Y-58330D01*
X61850Y-58730D01*
X62497Y-58730D02*
X62269Y-58730D01*
X62383Y-58730D02*
X62383Y-58330D01*
X62345Y-58388D01*
X62307Y-58426D01*
X62269Y-58445D01*
X62650Y-58369D02*
X62669Y-58350D01*
X62707Y-58330D01*
X62802Y-58330D01*
X62840Y-58350D01*
X62859Y-58369D01*
X62878Y-58407D01*
X62878Y-58445D01*
X62859Y-58502D01*
X62630Y-58730D01*
X62878Y-58730D01*
X63030Y-58616D02*
X63221Y-58616D01*
X62992Y-58730D02*
X63126Y-58330D01*
X63259Y-58730D01*
X63392Y-58330D02*
X63392Y-58654D01*
X63411Y-58692D01*
X63430Y-58711D01*
X63469Y-58730D01*
X63545Y-58730D01*
X63583Y-58711D01*
X63602Y-58692D01*
X63621Y-58654D01*
X63621Y-58330D01*
X64021Y-58350D02*
X63983Y-58330D01*
X63926Y-58330D01*
X63869Y-58350D01*
X63830Y-58388D01*
X63811Y-58426D01*
X63792Y-58502D01*
X63792Y-58559D01*
X63811Y-58635D01*
X63830Y-58673D01*
X63869Y-58711D01*
X63926Y-58730D01*
X63964Y-58730D01*
X64021Y-58711D01*
X64040Y-58692D01*
X64040Y-58559D01*
X63964Y-58559D01*
X64192Y-58369D02*
X64211Y-58350D01*
X64250Y-58330D01*
X64345Y-58330D01*
X64383Y-58350D01*
X64402Y-58369D01*
X64421Y-58407D01*
X64421Y-58445D01*
X64402Y-58502D01*
X64173Y-58730D01*
X64421Y-58730D01*
X64669Y-58330D02*
X64707Y-58330D01*
X64745Y-58350D01*
X64764Y-58369D01*
X64783Y-58407D01*
X64802Y-58483D01*
X64802Y-58578D01*
X64783Y-58654D01*
X64764Y-58692D01*
X64745Y-58711D01*
X64707Y-58730D01*
X64669Y-58730D01*
X64630Y-58711D01*
X64611Y-58692D01*
X64592Y-58654D01*
X64573Y-58578D01*
X64573Y-58483D01*
X64592Y-58407D01*
X64611Y-58369D01*
X64630Y-58350D01*
X64669Y-58330D01*
X65183Y-58730D02*
X64954Y-58730D01*
X65069Y-58730D02*
X65069Y-58330D01*
X65030Y-58388D01*
X64992Y-58426D01*
X64954Y-58445D01*
X65526Y-58464D02*
X65526Y-58730D01*
X65430Y-58311D02*
X65335Y-58597D01*
X65583Y-58597D01*
X66154Y-58883D02*
X66135Y-58864D01*
X66097Y-58807D01*
X66078Y-58769D01*
X66059Y-58711D01*
X66040Y-58616D01*
X66040Y-58540D01*
X66059Y-58445D01*
X66078Y-58388D01*
X66097Y-58350D01*
X66135Y-58292D01*
X66154Y-58273D01*
X66478Y-58711D02*
X66440Y-58730D01*
X66364Y-58730D01*
X66326Y-58711D01*
X66307Y-58692D01*
X66288Y-58654D01*
X66288Y-58540D01*
X66307Y-58502D01*
X66326Y-58483D01*
X66364Y-58464D01*
X66440Y-58464D01*
X66478Y-58483D01*
X66611Y-58883D02*
X66630Y-58864D01*
X66669Y-58807D01*
X66688Y-58769D01*
X66707Y-58711D01*
X66726Y-58616D01*
X66726Y-58540D01*
X66707Y-58445D01*
X66688Y-58388D01*
X66669Y-58350D01*
X66630Y-58292D01*
X66611Y-58273D01*
X67430Y-58350D02*
X67392Y-58330D01*
X67335Y-58330D01*
X67278Y-58350D01*
X67240Y-58388D01*
X67221Y-58426D01*
X67202Y-58502D01*
X67202Y-58559D01*
X67221Y-58635D01*
X67240Y-58673D01*
X67278Y-58711D01*
X67335Y-58730D01*
X67373Y-58730D01*
X67430Y-58711D01*
X67449Y-58692D01*
X67449Y-58559D01*
X67373Y-58559D01*
X67849Y-58730D02*
X67716Y-58540D01*
X67621Y-58730D02*
X67621Y-58330D01*
X67773Y-58330D01*
X67811Y-58350D01*
X67830Y-58369D01*
X67849Y-58407D01*
X67849Y-58464D01*
X67830Y-58502D01*
X67811Y-58521D01*
X67773Y-58540D01*
X67621Y-58540D01*
X68002Y-58616D02*
X68192Y-58616D01*
X67964Y-58730D02*
X68097Y-58330D01*
X68230Y-58730D01*
X68364Y-58730D02*
X68364Y-58330D01*
X68497Y-58616D01*
X68630Y-58330D01*
X68630Y-58730D01*
X69011Y-58730D02*
X68821Y-58730D01*
X68821Y-58330D01*
X69145Y-58730D02*
X69145Y-58330D01*
X69564Y-58692D02*
X69545Y-58711D01*
X69488Y-58730D01*
X69449Y-58730D01*
X69392Y-58711D01*
X69354Y-58673D01*
X69335Y-58635D01*
X69316Y-58559D01*
X69316Y-58502D01*
X69335Y-58426D01*
X69354Y-58388D01*
X69392Y-58350D01*
X69449Y-58330D01*
X69488Y-58330D01*
X69545Y-58350D01*
X69564Y-58369D01*
X69735Y-58730D02*
X69735Y-58330D01*
X69735Y-58521D02*
X69964Y-58521D01*
X69964Y-58730D02*
X69964Y-58330D01*
X77264Y-45480D02*
X77035Y-45480D01*
X77150Y-45480D02*
X77150Y-45080D01*
X77111Y-45138D01*
X77073Y-45176D01*
X77035Y-45195D01*
X77364Y-44230D02*
X77135Y-44230D01*
X77250Y-44230D02*
X77250Y-43830D01*
X77211Y-43888D01*
X77173Y-43926D01*
X77135Y-43945D01*
X41064Y-45030D02*
X40835Y-45030D01*
X40950Y-45030D02*
X40950Y-44630D01*
X40911Y-44688D01*
X40873Y-44726D01*
X40835Y-44745D01*
X53164Y-41330D02*
X52935Y-41330D01*
X53050Y-41330D02*
X53050Y-40930D01*
X53011Y-40988D01*
X52973Y-41026D01*
X52935Y-41045D01*
X40840Y-54630D02*
X40916Y-54630D01*
X40954Y-54650D01*
X40992Y-54688D01*
X41011Y-54764D01*
X41011Y-54897D01*
X40992Y-54973D01*
X40954Y-55011D01*
X40916Y-55030D01*
X40840Y-55030D01*
X40802Y-55011D01*
X40764Y-54973D01*
X40745Y-54897D01*
X40745Y-54764D01*
X40764Y-54688D01*
X40802Y-54650D01*
X40840Y-54630D01*
X41316Y-54821D02*
X41183Y-54821D01*
X41183Y-55030D02*
X41183Y-54630D01*
X41373Y-54630D01*
X41659Y-54821D02*
X41526Y-54821D01*
X41526Y-55030D02*
X41526Y-54630D01*
X41716Y-54630D01*
X42154Y-54611D02*
X41811Y-55126D01*
X42364Y-54630D02*
X42440Y-54630D01*
X42478Y-54650D01*
X42516Y-54688D01*
X42535Y-54764D01*
X42535Y-54897D01*
X42516Y-54973D01*
X42478Y-55011D01*
X42440Y-55030D01*
X42364Y-55030D01*
X42326Y-55011D01*
X42288Y-54973D01*
X42269Y-54897D01*
X42269Y-54764D01*
X42288Y-54688D01*
X42326Y-54650D01*
X42364Y-54630D01*
X42707Y-55030D02*
X42707Y-54630D01*
X42935Y-55030D01*
X42935Y-54630D01*
X57614Y-57880D02*
X57385Y-57880D01*
X57500Y-57880D02*
X57500Y-57480D01*
X57461Y-57538D01*
X57423Y-57576D01*
X57385Y-57595D01*
X53114Y-57980D02*
X52885Y-57980D01*
X53000Y-57980D02*
X53000Y-57580D01*
X52961Y-57638D01*
X52923Y-57676D01*
X52885Y-57695D01*
X48514Y-57980D02*
X48285Y-57980D01*
X48400Y-57980D02*
X48400Y-57580D01*
X48361Y-57638D01*
X48323Y-57676D01*
X48285Y-57695D01*
X44014Y-58130D02*
X43785Y-58130D01*
X43900Y-58130D02*
X43900Y-57730D01*
X43861Y-57788D01*
X43823Y-57826D01*
X43785Y-57845D01*
X63500Y-51050D02*
X63150Y-51400D01*
X63500Y-50100D02*
X63500Y-51050D01*
X75054Y-58421D02*
X75111Y-58440D01*
X75130Y-58459D01*
X75150Y-58497D01*
X75150Y-58554D01*
X75130Y-58592D01*
X75111Y-58611D01*
X75073Y-58630D01*
X74921Y-58630D01*
X74921Y-58230D01*
X75054Y-58230D01*
X75092Y-58250D01*
X75111Y-58269D01*
X75130Y-58307D01*
X75130Y-58345D01*
X75111Y-58383D01*
X75092Y-58402D01*
X75054Y-58421D01*
X74921Y-58421D01*
X75302Y-58516D02*
X75492Y-58516D01*
X75264Y-58630D02*
X75397Y-58230D01*
X75530Y-58630D01*
X75607Y-58230D02*
X75835Y-58230D01*
X75721Y-58630D02*
X75721Y-58230D01*
X74857Y-56228D02*
X75161Y-56228D01*
X75009Y-56380D02*
X75009Y-56076D01*
X75542Y-55980D02*
X75352Y-55980D01*
X75333Y-56171D01*
X75352Y-56152D01*
X75390Y-56133D01*
X75485Y-56133D01*
X75523Y-56152D01*
X75542Y-56171D01*
X75561Y-56209D01*
X75561Y-56304D01*
X75542Y-56342D01*
X75523Y-56361D01*
X75485Y-56380D01*
X75390Y-56380D01*
X75352Y-56361D01*
X75333Y-56342D01*
X68652Y-51328D02*
X68347Y-51328D01*
X68500Y-51480D02*
X68500Y-51176D01*
X68702Y-55678D02*
X68397Y-55678D01*
X43402Y-40028D02*
X43097Y-40028D01*
X43250Y-40180D02*
X43250Y-39876D01*
X43152Y-44778D02*
X42847Y-44778D01*
X43000Y-44930D02*
X43000Y-44626D01*
G54D12*
X69000Y-53300D02*
X69000Y-51700D01*
X68000Y-51700D02*
X68000Y-53300D01*
G54D13*
X67500Y-53520D02*
X67500Y-55500D01*
X67500Y-55500D02*
X66500Y-55500D01*
X66500Y-55500D02*
X66500Y-53500D01*
X66500Y-53500D02*
X67500Y-53500D01*
X67250Y-53500D02*
X67500Y-53750D01*
G54D12*
X69000Y-55300D02*
X69000Y-53700D01*
X68000Y-53700D02*
X68000Y-55300D01*
G54D13*
X69250Y-47770D02*
X69250Y-49750D01*
X69250Y-49750D02*
X68250Y-49750D01*
X68250Y-49750D02*
X68250Y-47750D01*
X68250Y-47750D02*
X69250Y-47750D01*
X69000Y-47750D02*
X69250Y-48000D01*
X54000Y-49770D02*
X54000Y-51750D01*
X54000Y-51750D02*
X53000Y-51750D01*
X53000Y-51750D02*
X53000Y-49750D01*
X53000Y-49750D02*
X54000Y-49750D01*
X53750Y-49750D02*
X54000Y-50000D01*
G54D12*
X43750Y-42050D02*
X43750Y-40450D01*
X42750Y-40450D02*
X42750Y-42050D01*
G54D13*
X50520Y-47750D02*
X52500Y-47750D01*
X52500Y-47750D02*
X52500Y-48750D01*
X52500Y-48750D02*
X50500Y-48750D01*
X50500Y-48750D02*
X50500Y-47750D01*
X50500Y-48000D02*
X50750Y-47750D01*
X43770Y-43500D02*
X45750Y-43500D01*
X45750Y-43500D02*
X45750Y-44500D01*
X45750Y-44500D02*
X43750Y-44500D01*
X43750Y-44500D02*
X43750Y-43500D01*
X43750Y-43750D02*
X44000Y-43500D01*
G54D12*
X42500Y-42700D02*
X42500Y-44300D01*
X43500Y-44300D02*
X43500Y-42700D01*
G54D13*
X50230Y-48000D02*
X48250Y-48000D01*
X48250Y-48000D02*
X48250Y-47000D01*
X48250Y-47000D02*
X50250Y-47000D01*
X50250Y-47000D02*
X50250Y-48000D01*
X50250Y-47750D02*
X50000Y-48000D01*
X54000Y-47520D02*
X54000Y-49500D01*
X54000Y-49500D02*
X53000Y-49500D01*
X53000Y-49500D02*
X53000Y-47500D01*
X53000Y-47500D02*
X54000Y-47500D01*
X53750Y-47500D02*
X54000Y-47750D01*
X58270Y-48750D02*
X60250Y-48750D01*
X60250Y-48750D02*
X60250Y-49750D01*
X60250Y-49750D02*
X58250Y-49750D01*
X58250Y-49750D02*
X58250Y-48750D01*
X58250Y-49000D02*
X58500Y-48750D01*
X45520Y-50250D02*
X47500Y-50250D01*
X47500Y-50250D02*
X47500Y-51250D01*
X47500Y-51250D02*
X45500Y-51250D01*
X45500Y-51250D02*
X45500Y-50250D01*
X45500Y-50500D02*
X45750Y-50250D01*
X50270Y-55250D02*
X52250Y-55250D01*
X52250Y-55250D02*
X52250Y-56250D01*
X52250Y-56250D02*
X50250Y-56250D01*
X50250Y-56250D02*
X50250Y-55250D01*
X50250Y-55500D02*
X50500Y-55250D01*
G54D12*
X51000Y-46250D02*
X51400Y-46250D01*
X49100Y-46250D02*
X48600Y-46250D01*
G54D14*
X49200Y-46750D02*
X49200Y-45750D01*
X49300Y-46750D02*
X49300Y-45750D01*
X49400Y-46750D02*
X49400Y-45750D01*
X49100Y-46750D02*
X49100Y-45750D01*
X49500Y-46750D02*
X49000Y-45750D01*
X49000Y-46750D02*
X49500Y-45750D01*
X49500Y-46750D02*
X49500Y-45750D01*
X49250Y-46750D02*
X49250Y-45750D01*
X49000Y-45750D02*
X49000Y-46750D01*
X49000Y-46750D02*
X51000Y-46750D01*
X51000Y-46750D02*
X51000Y-45750D01*
X51000Y-45750D02*
X49000Y-45750D01*
X74750Y-57750D02*
X74750Y-55750D01*
X74750Y-55750D02*
X73750Y-55750D01*
X73750Y-55750D02*
X73750Y-57750D01*
X73750Y-58750D02*
X73750Y-57750D01*
X73750Y-57750D02*
X74750Y-57750D01*
X73750Y-58750D02*
X74750Y-58750D01*
X74750Y-58750D02*
X74750Y-57750D01*
X42500Y-53500D02*
X40500Y-53500D01*
X40500Y-53500D02*
X40500Y-54500D01*
X40500Y-54500D02*
X42500Y-54500D01*
X43500Y-54500D02*
X42500Y-54500D01*
X42500Y-54500D02*
X42500Y-53500D01*
X43500Y-54500D02*
X43500Y-53500D01*
X43500Y-53500D02*
X42500Y-53500D01*
X53500Y-57500D02*
X56500Y-57500D01*
X53500Y-56500D02*
X56500Y-56500D01*
X52500Y-56500D02*
X53500Y-56500D01*
X56500Y-57500D02*
X56500Y-56500D01*
X53500Y-56500D02*
X53500Y-57500D01*
X52500Y-56500D02*
X52500Y-57500D01*
X52500Y-57500D02*
X53500Y-57500D01*
X58000Y-57500D02*
X61000Y-57500D01*
X58000Y-56500D02*
X61000Y-56500D01*
X57000Y-56500D02*
X58000Y-56500D01*
X61000Y-57500D02*
X61000Y-56500D01*
X58000Y-56500D02*
X58000Y-57500D01*
X57000Y-56500D02*
X57000Y-57500D01*
X57000Y-57500D02*
X58000Y-57500D01*
X78500Y-45750D02*
X77500Y-45750D01*
X78500Y-44750D02*
X77500Y-44750D01*
X77500Y-44750D02*
X77500Y-45750D01*
X77500Y-45750D02*
X77500Y-46750D01*
X77500Y-46750D02*
X78500Y-46750D01*
X78500Y-46750D02*
X78500Y-44750D01*
X77500Y-43500D02*
X78500Y-43500D01*
X77500Y-44500D02*
X78500Y-44500D01*
X78500Y-44500D02*
X78500Y-43500D01*
X78500Y-43500D02*
X78500Y-42500D01*
X78500Y-42500D02*
X77500Y-42500D01*
X77500Y-42500D02*
X77500Y-44500D01*
X49000Y-57500D02*
X52000Y-57500D01*
X49000Y-56500D02*
X52000Y-56500D01*
X48000Y-56500D02*
X49000Y-56500D01*
X52000Y-57500D02*
X52000Y-56500D01*
X49000Y-56500D02*
X49000Y-57500D01*
X48000Y-56500D02*
X48000Y-57500D01*
X48000Y-57500D02*
X49000Y-57500D01*
X44500Y-57500D02*
X47500Y-57500D01*
X44500Y-56500D02*
X47500Y-56500D01*
X43500Y-56500D02*
X44500Y-56500D01*
X47500Y-57500D02*
X47500Y-56500D01*
X44500Y-56500D02*
X44500Y-57500D01*
X43500Y-56500D02*
X43500Y-57500D01*
X43500Y-57500D02*
X44500Y-57500D01*
G54D15*
X69750Y-56500D02*
X69250Y-56500D01*
X71750Y-56500D02*
X72250Y-56500D01*
X71750Y-57000D02*
X71750Y-56000D01*
X71750Y-56000D02*
X69750Y-56000D01*
X69750Y-56000D02*
X69750Y-57000D01*
X69750Y-57000D02*
X71750Y-57000D01*
X61750Y-41750D02*
X62250Y-41750D01*
X59750Y-41750D02*
X59250Y-41750D01*
X59750Y-41250D02*
X59750Y-42250D01*
X59750Y-42250D02*
X61750Y-42250D01*
X61750Y-42250D02*
X61750Y-41250D01*
X61750Y-41250D02*
X59750Y-41250D01*
X61750Y-43000D02*
X62250Y-43000D01*
X59750Y-43000D02*
X59250Y-43000D01*
X59750Y-42500D02*
X59750Y-43500D01*
X59750Y-43500D02*
X61750Y-43500D01*
X61750Y-43500D02*
X61750Y-42500D01*
X61750Y-42500D02*
X59750Y-42500D01*
X61750Y-44250D02*
X62250Y-44250D01*
X59750Y-44250D02*
X59250Y-44250D01*
X59750Y-43750D02*
X59750Y-44750D01*
X59750Y-44750D02*
X61750Y-44750D01*
X61750Y-44750D02*
X61750Y-43750D01*
X61750Y-43750D02*
X59750Y-43750D01*
X61750Y-45500D02*
X62250Y-45500D01*
X59750Y-45500D02*
X59250Y-45500D01*
X59750Y-45000D02*
X59750Y-46000D01*
X59750Y-46000D02*
X61750Y-46000D01*
X61750Y-46000D02*
X61750Y-45000D01*
X61750Y-45000D02*
X59750Y-45000D01*
X61750Y-46750D02*
X62250Y-46750D01*
X59750Y-46750D02*
X59250Y-46750D01*
X59750Y-46250D02*
X59750Y-47250D01*
X59750Y-47250D02*
X61750Y-47250D01*
X61750Y-47250D02*
X61750Y-46250D01*
X61750Y-46250D02*
X59750Y-46250D01*
X61750Y-48000D02*
X62250Y-48000D01*
X59750Y-48000D02*
X59250Y-48000D01*
X59750Y-47500D02*
X59750Y-48500D01*
X59750Y-48500D02*
X61750Y-48500D01*
X61750Y-48500D02*
X61750Y-47500D01*
X61750Y-47500D02*
X59750Y-47500D01*
X68500Y-43250D02*
X68500Y-43750D01*
X68500Y-41250D02*
X68500Y-40750D01*
X69000Y-41250D02*
X68000Y-41250D01*
X68000Y-41250D02*
X68000Y-43250D01*
X68000Y-43250D02*
X69000Y-43250D01*
X69000Y-43250D02*
X69000Y-41250D01*
X70000Y-43250D02*
X70000Y-43750D01*
X70000Y-41250D02*
X70000Y-40750D01*
X70500Y-41250D02*
X69500Y-41250D01*
X69500Y-41250D02*
X69500Y-43250D01*
X69500Y-43250D02*
X70500Y-43250D01*
X70500Y-43250D02*
X70500Y-41250D01*
X71500Y-43250D02*
X71500Y-43750D01*
X71500Y-41250D02*
X71500Y-40750D01*
X72000Y-41250D02*
X71000Y-41250D01*
X71000Y-41250D02*
X71000Y-43250D01*
X71000Y-43250D02*
X72000Y-43250D01*
X72000Y-43250D02*
X72000Y-41250D01*
X73000Y-43250D02*
X73000Y-43750D01*
X73000Y-41250D02*
X73000Y-40750D01*
X73500Y-41250D02*
X72500Y-41250D01*
X72500Y-41250D02*
X72500Y-43250D01*
X72500Y-43250D02*
X73500Y-43250D01*
X73500Y-43250D02*
X73500Y-41250D01*
X74500Y-43250D02*
X74500Y-43750D01*
X74500Y-41250D02*
X74500Y-40750D01*
X75000Y-41250D02*
X74000Y-41250D01*
X74000Y-41250D02*
X74000Y-43250D01*
X74000Y-43250D02*
X75000Y-43250D01*
X75000Y-43250D02*
X75000Y-41250D01*
X72750Y-45500D02*
X73250Y-45500D01*
X70750Y-45500D02*
X70250Y-45500D01*
X70750Y-45000D02*
X70750Y-46000D01*
X70750Y-46000D02*
X72750Y-46000D01*
X72750Y-46000D02*
X72750Y-45000D01*
X72750Y-45000D02*
X70750Y-45000D01*
X47500Y-44500D02*
X47000Y-44500D01*
X49500Y-44500D02*
X50000Y-44500D01*
X49500Y-45000D02*
X49500Y-44000D01*
X49500Y-44000D02*
X47500Y-44000D01*
X47500Y-44000D02*
X47500Y-45000D01*
X47500Y-45000D02*
X49500Y-45000D01*
X59750Y-50500D02*
X59250Y-50500D01*
X61750Y-50500D02*
X62250Y-50500D01*
X61750Y-51000D02*
X61750Y-50000D01*
X61750Y-50000D02*
X59750Y-50000D01*
X59750Y-50000D02*
X59750Y-51000D01*
X59750Y-51000D02*
X61750Y-51000D01*
X61750Y-51750D02*
X62250Y-51750D01*
X59750Y-51750D02*
X59250Y-51750D01*
X59750Y-51250D02*
X59750Y-52250D01*
X59750Y-52250D02*
X61750Y-52250D01*
X61750Y-52250D02*
X61750Y-51250D01*
X61750Y-51250D02*
X59750Y-51250D01*
X59750Y-53000D02*
X59250Y-53000D01*
X61750Y-53000D02*
X62250Y-53000D01*
X61750Y-53500D02*
X61750Y-52500D01*
X61750Y-52500D02*
X59750Y-52500D01*
X59750Y-52500D02*
X59750Y-53500D01*
X59750Y-53500D02*
X61750Y-53500D01*
X61750Y-54250D02*
X62250Y-54250D01*
X59750Y-54250D02*
X59250Y-54250D01*
X59750Y-53750D02*
X59750Y-54750D01*
X59750Y-54750D02*
X61750Y-54750D01*
X61750Y-54750D02*
X61750Y-53750D01*
X61750Y-53750D02*
X59750Y-53750D01*
X44250Y-53000D02*
X44250Y-53500D01*
X44250Y-51000D02*
X44250Y-50500D01*
X44750Y-51000D02*
X43750Y-51000D01*
X43750Y-51000D02*
X43750Y-53000D01*
X43750Y-53000D02*
X44750Y-53000D01*
X44750Y-53000D02*
X44750Y-51000D01*
X59750Y-55500D02*
X59250Y-55500D01*
X61750Y-55500D02*
X62250Y-55500D01*
X61750Y-56000D02*
X61750Y-55000D01*
X61750Y-55000D02*
X59750Y-55000D01*
X59750Y-55000D02*
X59750Y-56000D01*
X59750Y-56000D02*
X61750Y-56000D01*
X64750Y-54500D02*
X64750Y-54000D01*
X64750Y-56500D02*
X64750Y-57000D01*
X64250Y-56500D02*
X65250Y-56500D01*
X65250Y-56500D02*
X65250Y-54500D01*
X65250Y-54500D02*
X64250Y-54500D01*
X64250Y-54500D02*
X64250Y-56500D01*
X53250Y-43250D02*
X53250Y-42750D01*
X53250Y-45250D02*
X53250Y-45750D01*
X52750Y-45250D02*
X53750Y-45250D01*
X53750Y-45250D02*
X53750Y-43250D01*
X53750Y-43250D02*
X52750Y-43250D01*
X52750Y-43250D02*
X52750Y-45250D01*
G54D12*
X60319Y-39561D02*
X60319Y-39659D01*
X62681Y-39561D02*
X62681Y-39659D01*
X60319Y-40939D02*
X60319Y-40841D01*
X62681Y-40939D02*
X62681Y-40841D01*
X62681Y-39561D02*
X60319Y-39561D01*
X62681Y-40939D02*
X60319Y-40939D01*
X71450Y-52000D02*
X70900Y-52000D01*
X71450Y-53000D02*
X70900Y-53000D01*
X71450Y-54000D02*
X70900Y-54000D01*
X77589Y-53000D02*
G75*
G03X77589Y-53000I-989J0D01*
G74*
G01*
X74800Y-55100D02*
X77950Y-55100D01*
X77950Y-55100D02*
X77950Y-50900D01*
X77950Y-50900D02*
X74800Y-50900D01*
X71450Y-55100D02*
X74800Y-55100D01*
X74800Y-55100D02*
X74800Y-50900D01*
X74800Y-50900D02*
X71450Y-50900D01*
X71450Y-53000D02*
X71450Y-50900D01*
X71450Y-53000D02*
X71450Y-55100D01*
G54D14*
X66250Y-39500D02*
X66250Y-40000D01*
X66250Y-40000D02*
X65250Y-40000D01*
X65250Y-40000D02*
X65250Y-39500D01*
X66750Y-39500D02*
X66750Y-43500D01*
X66750Y-43500D02*
X64750Y-43500D01*
X64750Y-43500D02*
X64750Y-39500D01*
X64750Y-39500D02*
X66750Y-39500D01*
X66250Y-44250D02*
X66250Y-44750D01*
X66250Y-44750D02*
X65250Y-44750D01*
X65250Y-44750D02*
X65250Y-44250D01*
X66750Y-44250D02*
X66750Y-48250D01*
X66750Y-48250D02*
X64750Y-48250D01*
X64750Y-48250D02*
X64750Y-44250D01*
X64750Y-44250D02*
X66750Y-44250D01*
X66250Y-48750D02*
X66250Y-49250D01*
X66250Y-49250D02*
X65250Y-49250D01*
X65250Y-49250D02*
X65250Y-48750D01*
X66750Y-48750D02*
X66750Y-52750D01*
X66750Y-52750D02*
X64750Y-52750D01*
X64750Y-52750D02*
X64750Y-48750D01*
X64750Y-48750D02*
X66750Y-48750D01*
G54D12*
X45950Y-40750D02*
X45400Y-40750D01*
X45950Y-41750D02*
X45400Y-41750D01*
X45950Y-42750D02*
X45400Y-42750D01*
X52089Y-41750D02*
G75*
G03X52089Y-41750I-989J0D01*
G74*
G01*
X49300Y-43850D02*
X52450Y-43850D01*
X52450Y-43850D02*
X52450Y-39650D01*
X52450Y-39650D02*
X49300Y-39650D01*
X45950Y-43850D02*
X49300Y-43850D01*
X49300Y-43850D02*
X49300Y-39650D01*
X49300Y-39650D02*
X45950Y-39650D01*
X45950Y-41750D02*
X45950Y-39650D01*
X45950Y-41750D02*
X45950Y-43850D01*
G54D14*
X46000Y-45250D02*
X46000Y-45750D01*
X46000Y-45750D02*
X45000Y-45750D01*
X45000Y-45750D02*
X45000Y-45250D01*
X46500Y-45250D02*
X46500Y-49250D01*
X46500Y-49250D02*
X44500Y-49250D01*
X44500Y-49250D02*
X44500Y-45250D01*
X44500Y-45250D02*
X46500Y-45250D01*
G54D12*
X48650Y-50394D02*
X48571Y-50236D01*
X48571Y-50236D02*
X48531Y-50000D01*
X48531Y-50000D02*
X48571Y-49803D01*
X48571Y-49803D02*
X48728Y-49528D01*
X48728Y-49528D02*
X48965Y-49370D01*
X48965Y-49370D02*
X49201Y-49291D01*
X49201Y-49291D02*
X51799Y-49291D01*
X51799Y-49291D02*
X52075Y-49370D01*
X52075Y-49370D02*
X52232Y-49488D01*
X52232Y-49488D02*
X52390Y-49685D01*
X52390Y-49685D02*
X52469Y-49921D01*
X52469Y-49921D02*
X52469Y-50118D01*
X52469Y-50118D02*
X52390Y-50315D01*
X52390Y-50315D02*
X52193Y-50551D01*
X52193Y-50551D02*
X51996Y-50669D01*
X51996Y-50669D02*
X51799Y-50709D01*
X51760Y-50709D02*
X49161Y-50709D01*
X49161Y-50709D02*
X49004Y-50669D01*
X49004Y-50669D02*
X48807Y-50551D01*
X48807Y-50551D02*
X48610Y-50354D01*
X51756Y-50917D02*
X51937Y-50898D01*
X51937Y-50898D02*
X52094Y-50854D01*
X52094Y-50854D02*
X52264Y-50768D01*
X52264Y-50768D02*
X52378Y-50677D01*
X52378Y-50677D02*
X52508Y-50539D01*
X52508Y-50539D02*
X52622Y-50327D01*
X52622Y-50327D02*
X52673Y-50091D01*
X52673Y-50091D02*
X52673Y-49890D01*
X52673Y-49890D02*
X52606Y-49614D01*
X52606Y-49614D02*
X52449Y-49382D01*
X52449Y-49382D02*
X52268Y-49236D01*
X52268Y-49236D02*
X52102Y-49154D01*
X52102Y-49154D02*
X51925Y-49091D01*
X51925Y-49091D02*
X51752Y-49079D01*
X48862Y-49165D02*
X48713Y-49252D01*
X48713Y-49252D02*
X48587Y-49362D01*
X48587Y-49362D02*
X48488Y-49492D01*
X48488Y-49492D02*
X48370Y-49709D01*
X48370Y-49709D02*
X48327Y-49894D01*
X48327Y-49894D02*
X48319Y-50075D01*
X48319Y-50075D02*
X48354Y-50256D01*
X48354Y-50256D02*
X48429Y-50433D01*
X48429Y-50433D02*
X48571Y-50618D01*
X48571Y-50618D02*
X48709Y-50744D01*
X48709Y-50744D02*
X48862Y-50835D01*
X48862Y-50835D02*
X49031Y-50890D01*
X49031Y-50890D02*
X49205Y-50917D01*
X51760Y-49083D02*
X49220Y-49083D01*
X49220Y-49083D02*
X49055Y-49098D01*
X49055Y-49098D02*
X48862Y-49165D01*
X51760Y-50917D02*
X49220Y-50917D01*
G54D15*
X39300Y-47250D02*
X39600Y-47050D01*
X39300Y-47250D02*
X39600Y-47450D01*
G54D14*
X39600Y-50150D02*
X39800Y-50150D01*
X39800Y-50150D02*
X39800Y-48350D01*
X39800Y-48350D02*
X39600Y-48350D01*
X43400Y-45250D02*
X43400Y-53250D01*
X43400Y-53250D02*
X39600Y-53250D01*
X39600Y-53250D02*
X39600Y-45250D01*
X39600Y-45250D02*
X43400Y-45250D01*
X53750Y-39750D02*
X58750Y-39750D01*
X58750Y-39750D02*
X58750Y-40750D01*
X58750Y-40750D02*
X53750Y-40750D01*
X52750Y-39750D02*
X53750Y-39750D01*
X53750Y-39750D02*
X53750Y-40750D01*
X52750Y-39750D02*
X52750Y-40750D01*
X52750Y-40750D02*
X53750Y-40750D01*
G54D12*
X69500Y-48250D02*
X69500Y-48250D01*
X69500Y-48250D02*
X70000Y-48250D01*
X70000Y-48250D02*
X70000Y-49250D01*
X70000Y-49250D02*
X69500Y-49250D01*
X69500Y-47750D02*
X78500Y-47750D01*
X78500Y-47750D02*
X78500Y-49750D01*
X78500Y-49750D02*
X69500Y-49750D01*
X69500Y-49750D02*
X69500Y-47750D01*
X57000Y-41000D02*
X57000Y-56000D01*
X57000Y-56000D02*
X55000Y-56000D01*
X55000Y-56000D02*
X55000Y-41000D01*
X55000Y-41000D02*
X57000Y-41000D01*
X56500Y-41000D02*
X56500Y-41500D01*
X56500Y-41500D02*
X55500Y-41500D01*
X55500Y-41500D02*
X55500Y-41000D01*
X45000Y-52250D02*
X53000Y-52250D01*
X53000Y-54250D02*
X45000Y-54250D01*
X45000Y-54250D02*
X45000Y-52250D01*
X45000Y-52750D02*
X45500Y-52750D01*
X45500Y-52750D02*
X45500Y-53750D01*
X45500Y-53750D02*
X45000Y-53750D01*
X53000Y-52250D02*
X53000Y-54250D01*
G54D11*
X69033Y-51292D02*
X69014Y-51311D01*
X68957Y-51330D01*
X68919Y-51330D01*
X68861Y-51311D01*
X68823Y-51273D01*
X68804Y-51235D01*
X68785Y-51159D01*
X68785Y-51102D01*
X68804Y-51026D01*
X68823Y-50988D01*
X68861Y-50950D01*
X68919Y-50930D01*
X68957Y-50930D01*
X69014Y-50950D01*
X69033Y-50969D01*
X69414Y-51330D02*
X69185Y-51330D01*
X69300Y-51330D02*
X69300Y-50930D01*
X69261Y-50988D01*
X69223Y-51026D01*
X69185Y-51045D01*
X66883Y-55992D02*
X66864Y-56011D01*
X66807Y-56030D01*
X66769Y-56030D01*
X66711Y-56011D01*
X66673Y-55973D01*
X66654Y-55935D01*
X66635Y-55859D01*
X66635Y-55802D01*
X66654Y-55726D01*
X66673Y-55688D01*
X66711Y-55650D01*
X66769Y-55630D01*
X66807Y-55630D01*
X66864Y-55650D01*
X66883Y-55669D01*
X67035Y-55669D02*
X67054Y-55650D01*
X67092Y-55630D01*
X67188Y-55630D01*
X67226Y-55650D01*
X67245Y-55669D01*
X67264Y-55707D01*
X67264Y-55745D01*
X67245Y-55802D01*
X67016Y-56030D01*
X67264Y-56030D01*
X69433Y-55542D02*
X69414Y-55561D01*
X69357Y-55580D01*
X69319Y-55580D01*
X69261Y-55561D01*
X69223Y-55523D01*
X69204Y-55485D01*
X69185Y-55409D01*
X69185Y-55352D01*
X69204Y-55276D01*
X69223Y-55238D01*
X69261Y-55200D01*
X69319Y-55180D01*
X69357Y-55180D01*
X69414Y-55200D01*
X69433Y-55219D01*
X69566Y-55180D02*
X69814Y-55180D01*
X69680Y-55333D01*
X69738Y-55333D01*
X69776Y-55352D01*
X69795Y-55371D01*
X69814Y-55409D01*
X69814Y-55504D01*
X69795Y-55542D01*
X69776Y-55561D01*
X69738Y-55580D01*
X69623Y-55580D01*
X69585Y-55561D01*
X69566Y-55542D01*
X68433Y-47542D02*
X68414Y-47561D01*
X68357Y-47580D01*
X68319Y-47580D01*
X68261Y-47561D01*
X68223Y-47523D01*
X68204Y-47485D01*
X68185Y-47409D01*
X68185Y-47352D01*
X68204Y-47276D01*
X68223Y-47238D01*
X68261Y-47200D01*
X68319Y-47180D01*
X68357Y-47180D01*
X68414Y-47200D01*
X68433Y-47219D01*
X68776Y-47314D02*
X68776Y-47580D01*
X68680Y-47161D02*
X68585Y-47447D01*
X68833Y-47447D01*
X53483Y-52292D02*
X53464Y-52311D01*
X53407Y-52330D01*
X53369Y-52330D01*
X53311Y-52311D01*
X53273Y-52273D01*
X53254Y-52235D01*
X53235Y-52159D01*
X53235Y-52102D01*
X53254Y-52026D01*
X53273Y-51988D01*
X53311Y-51950D01*
X53369Y-51930D01*
X53407Y-51930D01*
X53464Y-51950D01*
X53483Y-51969D01*
X53845Y-51930D02*
X53654Y-51930D01*
X53635Y-52121D01*
X53654Y-52102D01*
X53692Y-52083D01*
X53788Y-52083D01*
X53826Y-52102D01*
X53845Y-52121D01*
X53864Y-52159D01*
X53864Y-52254D01*
X53845Y-52292D01*
X53826Y-52311D01*
X53788Y-52330D01*
X53692Y-52330D01*
X53654Y-52311D01*
X53635Y-52292D01*
X43783Y-40092D02*
X43764Y-40111D01*
X43707Y-40130D01*
X43669Y-40130D01*
X43611Y-40111D01*
X43573Y-40073D01*
X43554Y-40035D01*
X43535Y-39959D01*
X43535Y-39902D01*
X43554Y-39826D01*
X43573Y-39788D01*
X43611Y-39750D01*
X43669Y-39730D01*
X43707Y-39730D01*
X43764Y-39750D01*
X43783Y-39769D01*
X44126Y-39730D02*
X44050Y-39730D01*
X44011Y-39750D01*
X43992Y-39769D01*
X43954Y-39826D01*
X43935Y-39902D01*
X43935Y-40054D01*
X43954Y-40092D01*
X43973Y-40111D01*
X44011Y-40130D01*
X44088Y-40130D01*
X44126Y-40111D01*
X44145Y-40092D01*
X44164Y-40054D01*
X44164Y-39959D01*
X44145Y-39921D01*
X44126Y-39902D01*
X44088Y-39883D01*
X44011Y-39883D01*
X43973Y-39902D01*
X43954Y-39921D01*
X43935Y-39959D01*
X51417Y-47538D02*
X51398Y-47557D01*
X51341Y-47576D01*
X51303Y-47576D01*
X51246Y-47557D01*
X51208Y-47519D01*
X51189Y-47481D01*
X51169Y-47405D01*
X51169Y-47348D01*
X51189Y-47271D01*
X51208Y-47233D01*
X51246Y-47195D01*
X51303Y-47176D01*
X51341Y-47176D01*
X51398Y-47195D01*
X51417Y-47214D01*
X51550Y-47176D02*
X51817Y-47176D01*
X51646Y-47576D01*
X44183Y-45042D02*
X44164Y-45061D01*
X44107Y-45080D01*
X44069Y-45080D01*
X44011Y-45061D01*
X43973Y-45023D01*
X43954Y-44985D01*
X43935Y-44909D01*
X43935Y-44852D01*
X43954Y-44776D01*
X43973Y-44738D01*
X44011Y-44700D01*
X44069Y-44680D01*
X44107Y-44680D01*
X44164Y-44700D01*
X44183Y-44719D01*
X44411Y-44852D02*
X44373Y-44833D01*
X44354Y-44814D01*
X44335Y-44776D01*
X44335Y-44757D01*
X44354Y-44719D01*
X44373Y-44700D01*
X44411Y-44680D01*
X44488Y-44680D01*
X44526Y-44700D01*
X44545Y-44719D01*
X44564Y-44757D01*
X44564Y-44776D01*
X44545Y-44814D01*
X44526Y-44833D01*
X44488Y-44852D01*
X44411Y-44852D01*
X44373Y-44871D01*
X44354Y-44890D01*
X44335Y-44928D01*
X44335Y-45004D01*
X44354Y-45042D01*
X44373Y-45061D01*
X44411Y-45080D01*
X44488Y-45080D01*
X44526Y-45061D01*
X44545Y-45042D01*
X44564Y-45004D01*
X44564Y-44928D01*
X44545Y-44890D01*
X44526Y-44871D01*
X44488Y-44852D01*
X41933Y-43642D02*
X41914Y-43661D01*
X41857Y-43680D01*
X41819Y-43680D01*
X41761Y-43661D01*
X41723Y-43623D01*
X41704Y-43585D01*
X41685Y-43509D01*
X41685Y-43452D01*
X41704Y-43376D01*
X41723Y-43338D01*
X41761Y-43300D01*
X41819Y-43280D01*
X41857Y-43280D01*
X41914Y-43300D01*
X41933Y-43319D01*
X42123Y-43680D02*
X42200Y-43680D01*
X42238Y-43661D01*
X42257Y-43642D01*
X42295Y-43585D01*
X42314Y-43509D01*
X42314Y-43357D01*
X42295Y-43319D01*
X42276Y-43300D01*
X42238Y-43280D01*
X42161Y-43280D01*
X42123Y-43300D01*
X42104Y-43319D01*
X42085Y-43357D01*
X42085Y-43452D01*
X42104Y-43490D01*
X42123Y-43509D01*
X42161Y-43528D01*
X42238Y-43528D01*
X42276Y-43509D01*
X42295Y-43490D01*
X42314Y-43452D01*
X49008Y-48497D02*
X48989Y-48516D01*
X48932Y-48535D01*
X48894Y-48535D01*
X48837Y-48516D01*
X48799Y-48478D01*
X48780Y-48440D01*
X48760Y-48363D01*
X48760Y-48306D01*
X48780Y-48230D01*
X48799Y-48192D01*
X48837Y-48154D01*
X48894Y-48135D01*
X48932Y-48135D01*
X48989Y-48154D01*
X49008Y-48173D01*
X49389Y-48535D02*
X49160Y-48535D01*
X49275Y-48535D02*
X49275Y-48135D01*
X49237Y-48192D01*
X49199Y-48230D01*
X49160Y-48249D01*
X49637Y-48135D02*
X49675Y-48135D01*
X49713Y-48154D01*
X49732Y-48173D01*
X49751Y-48211D01*
X49770Y-48287D01*
X49770Y-48382D01*
X49751Y-48459D01*
X49732Y-48497D01*
X49713Y-48516D01*
X49675Y-48535D01*
X49637Y-48535D01*
X49599Y-48516D01*
X49580Y-48497D01*
X49560Y-48459D01*
X49541Y-48382D01*
X49541Y-48287D01*
X49560Y-48211D01*
X49580Y-48173D01*
X49599Y-48154D01*
X49637Y-48135D01*
X53042Y-47192D02*
X53023Y-47211D01*
X52966Y-47230D01*
X52928Y-47230D01*
X52871Y-47211D01*
X52833Y-47173D01*
X52814Y-47135D01*
X52795Y-47059D01*
X52795Y-47002D01*
X52814Y-46926D01*
X52833Y-46888D01*
X52871Y-46850D01*
X52928Y-46830D01*
X52966Y-46830D01*
X53023Y-46850D01*
X53042Y-46869D01*
X53423Y-47230D02*
X53195Y-47230D01*
X53309Y-47230D02*
X53309Y-46830D01*
X53271Y-46888D01*
X53233Y-46926D01*
X53195Y-46945D01*
X53804Y-47230D02*
X53576Y-47230D01*
X53690Y-47230D02*
X53690Y-46830D01*
X53652Y-46888D01*
X53614Y-46926D01*
X53576Y-46945D01*
X60692Y-49192D02*
X60673Y-49211D01*
X60616Y-49230D01*
X60578Y-49230D01*
X60521Y-49211D01*
X60483Y-49173D01*
X60464Y-49135D01*
X60445Y-49059D01*
X60445Y-49002D01*
X60464Y-48926D01*
X60483Y-48888D01*
X60521Y-48850D01*
X60578Y-48830D01*
X60616Y-48830D01*
X60673Y-48850D01*
X60692Y-48869D01*
X61073Y-49230D02*
X60845Y-49230D01*
X60959Y-49230D02*
X60959Y-48830D01*
X60921Y-48888D01*
X60883Y-48926D01*
X60845Y-48945D01*
X61226Y-48869D02*
X61245Y-48850D01*
X61283Y-48830D01*
X61378Y-48830D01*
X61416Y-48850D01*
X61435Y-48869D01*
X61454Y-48907D01*
X61454Y-48945D01*
X61435Y-49002D01*
X61207Y-49230D01*
X61454Y-49230D01*
X47092Y-49942D02*
X47073Y-49961D01*
X47016Y-49980D01*
X46978Y-49980D01*
X46921Y-49961D01*
X46883Y-49923D01*
X46864Y-49885D01*
X46845Y-49809D01*
X46845Y-49752D01*
X46864Y-49676D01*
X46883Y-49638D01*
X46921Y-49600D01*
X46978Y-49580D01*
X47016Y-49580D01*
X47073Y-49600D01*
X47092Y-49619D01*
X47473Y-49980D02*
X47245Y-49980D01*
X47359Y-49980D02*
X47359Y-49580D01*
X47321Y-49638D01*
X47283Y-49676D01*
X47245Y-49695D01*
X47607Y-49580D02*
X47854Y-49580D01*
X47721Y-49733D01*
X47778Y-49733D01*
X47816Y-49752D01*
X47835Y-49771D01*
X47854Y-49809D01*
X47854Y-49904D01*
X47835Y-49942D01*
X47816Y-49961D01*
X47778Y-49980D01*
X47664Y-49980D01*
X47626Y-49961D01*
X47607Y-49942D01*
X52592Y-55392D02*
X52573Y-55411D01*
X52516Y-55430D01*
X52478Y-55430D01*
X52421Y-55411D01*
X52383Y-55373D01*
X52364Y-55335D01*
X52345Y-55259D01*
X52345Y-55202D01*
X52364Y-55126D01*
X52383Y-55088D01*
X52421Y-55050D01*
X52478Y-55030D01*
X52516Y-55030D01*
X52573Y-55050D01*
X52592Y-55069D01*
X52973Y-55430D02*
X52745Y-55430D01*
X52859Y-55430D02*
X52859Y-55030D01*
X52821Y-55088D01*
X52783Y-55126D01*
X52745Y-55145D01*
X53316Y-55164D02*
X53316Y-55430D01*
X53221Y-55011D02*
X53126Y-55297D01*
X53373Y-55297D01*
X50354Y-45630D02*
X50354Y-45230D01*
X50450Y-45230D01*
X50507Y-45250D01*
X50545Y-45288D01*
X50564Y-45326D01*
X50583Y-45402D01*
X50583Y-45459D01*
X50564Y-45535D01*
X50545Y-45573D01*
X50507Y-45611D01*
X50450Y-45630D01*
X50354Y-45630D01*
X50964Y-45630D02*
X50735Y-45630D01*
X50850Y-45630D02*
X50850Y-45230D01*
X50811Y-45288D01*
X50773Y-45326D01*
X50735Y-45345D01*
X48611Y-45605D02*
X48916Y-45605D01*
X51194Y-45664D02*
X51498Y-45664D01*
X51346Y-45816D02*
X51346Y-45512D01*
X41033Y-41519D02*
X41033Y-41119D01*
X41033Y-41310D02*
X41262Y-41310D01*
X41262Y-41519D02*
X41262Y-41119D01*
X41662Y-41519D02*
X41433Y-41519D01*
X41548Y-41519D02*
X41548Y-41119D01*
X41510Y-41176D01*
X41471Y-41214D01*
X41433Y-41233D01*
X76466Y-41519D02*
X76466Y-41119D01*
X76466Y-41310D02*
X76695Y-41310D01*
X76695Y-41519D02*
X76695Y-41119D01*
X76866Y-41157D02*
X76885Y-41138D01*
X76924Y-41119D01*
X77019Y-41119D01*
X77057Y-41138D01*
X77076Y-41157D01*
X77095Y-41195D01*
X77095Y-41233D01*
X77076Y-41290D01*
X76847Y-41519D01*
X77095Y-41519D01*
X41033Y-57267D02*
X41033Y-56867D01*
X41033Y-57058D02*
X41262Y-57058D01*
X41262Y-57267D02*
X41262Y-56867D01*
X41414Y-56867D02*
X41662Y-56867D01*
X41529Y-57019D01*
X41586Y-57019D01*
X41624Y-57038D01*
X41643Y-57058D01*
X41662Y-57096D01*
X41662Y-57191D01*
X41643Y-57229D01*
X41624Y-57248D01*
X41586Y-57267D01*
X41471Y-57267D01*
X41433Y-57248D01*
X41414Y-57229D01*
X76466Y-57267D02*
X76466Y-56867D01*
X76466Y-57058D02*
X76695Y-57058D01*
X76695Y-57267D02*
X76695Y-56867D01*
X77057Y-57000D02*
X77057Y-57267D01*
X76962Y-56848D02*
X76866Y-57134D01*
X77114Y-57134D01*
X73216Y-57030D02*
X73216Y-57316D01*
X73197Y-57373D01*
X73159Y-57411D01*
X73102Y-57430D01*
X73064Y-57430D01*
X73616Y-57430D02*
X73388Y-57430D01*
X73502Y-57430D02*
X73502Y-57030D01*
X73464Y-57088D01*
X73426Y-57126D01*
X73388Y-57145D01*
X39916Y-53830D02*
X39916Y-54116D01*
X39897Y-54173D01*
X39859Y-54211D01*
X39802Y-54230D01*
X39764Y-54230D01*
X40088Y-53869D02*
X40107Y-53850D01*
X40145Y-53830D01*
X40240Y-53830D01*
X40278Y-53850D01*
X40297Y-53869D01*
X40316Y-53907D01*
X40316Y-53945D01*
X40297Y-54002D01*
X40069Y-54230D01*
X40316Y-54230D01*
X54245Y-58080D02*
X54245Y-57680D01*
X54473Y-58080D01*
X54473Y-57680D01*
X54626Y-57680D02*
X54873Y-57680D01*
X54740Y-57833D01*
X54797Y-57833D01*
X54835Y-57852D01*
X54854Y-57871D01*
X54873Y-57909D01*
X54873Y-58004D01*
X54854Y-58042D01*
X54835Y-58061D01*
X54797Y-58080D01*
X54683Y-58080D01*
X54645Y-58061D01*
X54626Y-58042D01*
X58695Y-58030D02*
X58695Y-57630D01*
X58923Y-58030D01*
X58923Y-57630D01*
X59285Y-57764D02*
X59285Y-58030D01*
X59190Y-57611D02*
X59095Y-57897D01*
X59342Y-57897D01*
X76695Y-46680D02*
X76695Y-46280D01*
X76923Y-46680D01*
X76923Y-46280D01*
X77304Y-46280D02*
X77114Y-46280D01*
X77095Y-46471D01*
X77114Y-46452D01*
X77152Y-46433D01*
X77247Y-46433D01*
X77285Y-46452D01*
X77304Y-46471D01*
X77323Y-46509D01*
X77323Y-46604D01*
X77304Y-46642D01*
X77285Y-46661D01*
X77247Y-46680D01*
X77152Y-46680D01*
X77114Y-46661D01*
X77095Y-46642D01*
X76695Y-43680D02*
X76695Y-43280D01*
X76923Y-43680D01*
X76923Y-43280D01*
X77285Y-43280D02*
X77209Y-43280D01*
X77171Y-43300D01*
X77152Y-43319D01*
X77114Y-43376D01*
X77095Y-43452D01*
X77095Y-43604D01*
X77114Y-43642D01*
X77133Y-43661D01*
X77171Y-43680D01*
X77247Y-43680D01*
X77285Y-43661D01*
X77304Y-43642D01*
X77323Y-43604D01*
X77323Y-43509D01*
X77304Y-43471D01*
X77285Y-43452D01*
X77247Y-43433D01*
X77171Y-43433D01*
X77133Y-43452D01*
X77114Y-43471D01*
X77095Y-43509D01*
X49745Y-58030D02*
X49745Y-57630D01*
X49973Y-58030D01*
X49973Y-57630D01*
X50126Y-57630D02*
X50392Y-57630D01*
X50221Y-58030D01*
X45195Y-58130D02*
X45195Y-57730D01*
X45423Y-58130D01*
X45423Y-57730D01*
X45671Y-57902D02*
X45633Y-57883D01*
X45614Y-57864D01*
X45595Y-57826D01*
X45595Y-57807D01*
X45614Y-57769D01*
X45633Y-57750D01*
X45671Y-57730D01*
X45747Y-57730D01*
X45785Y-57750D01*
X45804Y-57769D01*
X45823Y-57807D01*
X45823Y-57826D01*
X45804Y-57864D01*
X45785Y-57883D01*
X45747Y-57902D01*
X45671Y-57902D01*
X45633Y-57921D01*
X45614Y-57940D01*
X45595Y-57978D01*
X45595Y-58054D01*
X45614Y-58092D01*
X45633Y-58111D01*
X45671Y-58130D01*
X45747Y-58130D01*
X45785Y-58111D01*
X45804Y-58092D01*
X45823Y-58054D01*
X45823Y-57978D01*
X45804Y-57940D01*
X45785Y-57921D01*
X45747Y-57902D01*
X70695Y-57598D02*
X70561Y-57407D01*
X70466Y-57598D02*
X70466Y-57198D01*
X70618Y-57198D01*
X70657Y-57217D01*
X70676Y-57236D01*
X70695Y-57274D01*
X70695Y-57331D01*
X70676Y-57369D01*
X70657Y-57388D01*
X70618Y-57407D01*
X70466Y-57407D01*
X71076Y-57598D02*
X70847Y-57598D01*
X70961Y-57598D02*
X70961Y-57198D01*
X70923Y-57255D01*
X70885Y-57293D01*
X70847Y-57312D01*
X63433Y-41430D02*
X63300Y-41240D01*
X63204Y-41430D02*
X63204Y-41030D01*
X63357Y-41030D01*
X63395Y-41050D01*
X63414Y-41069D01*
X63433Y-41107D01*
X63433Y-41164D01*
X63414Y-41202D01*
X63395Y-41221D01*
X63357Y-41240D01*
X63204Y-41240D01*
X63585Y-41069D02*
X63604Y-41050D01*
X63642Y-41030D01*
X63738Y-41030D01*
X63776Y-41050D01*
X63795Y-41069D01*
X63814Y-41107D01*
X63814Y-41145D01*
X63795Y-41202D01*
X63566Y-41430D01*
X63814Y-41430D01*
X63433Y-42680D02*
X63300Y-42490D01*
X63204Y-42680D02*
X63204Y-42280D01*
X63357Y-42280D01*
X63395Y-42300D01*
X63414Y-42319D01*
X63433Y-42357D01*
X63433Y-42414D01*
X63414Y-42452D01*
X63395Y-42471D01*
X63357Y-42490D01*
X63204Y-42490D01*
X63566Y-42280D02*
X63814Y-42280D01*
X63680Y-42433D01*
X63738Y-42433D01*
X63776Y-42452D01*
X63795Y-42471D01*
X63814Y-42509D01*
X63814Y-42604D01*
X63795Y-42642D01*
X63776Y-42661D01*
X63738Y-42680D01*
X63623Y-42680D01*
X63585Y-42661D01*
X63566Y-42642D01*
X63433Y-43930D02*
X63300Y-43740D01*
X63204Y-43930D02*
X63204Y-43530D01*
X63357Y-43530D01*
X63395Y-43550D01*
X63414Y-43569D01*
X63433Y-43607D01*
X63433Y-43664D01*
X63414Y-43702D01*
X63395Y-43721D01*
X63357Y-43740D01*
X63204Y-43740D01*
X63776Y-43664D02*
X63776Y-43930D01*
X63680Y-43511D02*
X63585Y-43797D01*
X63833Y-43797D01*
X63433Y-45180D02*
X63300Y-44990D01*
X63204Y-45180D02*
X63204Y-44780D01*
X63357Y-44780D01*
X63395Y-44800D01*
X63414Y-44819D01*
X63433Y-44857D01*
X63433Y-44914D01*
X63414Y-44952D01*
X63395Y-44971D01*
X63357Y-44990D01*
X63204Y-44990D01*
X63795Y-44780D02*
X63604Y-44780D01*
X63585Y-44971D01*
X63604Y-44952D01*
X63642Y-44933D01*
X63738Y-44933D01*
X63776Y-44952D01*
X63795Y-44971D01*
X63814Y-45009D01*
X63814Y-45104D01*
X63795Y-45142D01*
X63776Y-45161D01*
X63738Y-45180D01*
X63642Y-45180D01*
X63604Y-45161D01*
X63585Y-45142D01*
X63433Y-46430D02*
X63300Y-46240D01*
X63204Y-46430D02*
X63204Y-46030D01*
X63357Y-46030D01*
X63395Y-46050D01*
X63414Y-46069D01*
X63433Y-46107D01*
X63433Y-46164D01*
X63414Y-46202D01*
X63395Y-46221D01*
X63357Y-46240D01*
X63204Y-46240D01*
X63776Y-46030D02*
X63700Y-46030D01*
X63661Y-46050D01*
X63642Y-46069D01*
X63604Y-46126D01*
X63585Y-46202D01*
X63585Y-46354D01*
X63604Y-46392D01*
X63623Y-46411D01*
X63661Y-46430D01*
X63738Y-46430D01*
X63776Y-46411D01*
X63795Y-46392D01*
X63814Y-46354D01*
X63814Y-46259D01*
X63795Y-46221D01*
X63776Y-46202D01*
X63738Y-46183D01*
X63661Y-46183D01*
X63623Y-46202D01*
X63604Y-46221D01*
X63585Y-46259D01*
X63433Y-47680D02*
X63300Y-47490D01*
X63204Y-47680D02*
X63204Y-47280D01*
X63357Y-47280D01*
X63395Y-47300D01*
X63414Y-47319D01*
X63433Y-47357D01*
X63433Y-47414D01*
X63414Y-47452D01*
X63395Y-47471D01*
X63357Y-47490D01*
X63204Y-47490D01*
X63566Y-47280D02*
X63833Y-47280D01*
X63661Y-47680D01*
X69183Y-41080D02*
X69050Y-40890D01*
X68954Y-41080D02*
X68954Y-40680D01*
X69107Y-40680D01*
X69145Y-40700D01*
X69164Y-40719D01*
X69183Y-40757D01*
X69183Y-40814D01*
X69164Y-40852D01*
X69145Y-40871D01*
X69107Y-40890D01*
X68954Y-40890D01*
X69411Y-40852D02*
X69373Y-40833D01*
X69354Y-40814D01*
X69335Y-40776D01*
X69335Y-40757D01*
X69354Y-40719D01*
X69373Y-40700D01*
X69411Y-40680D01*
X69488Y-40680D01*
X69526Y-40700D01*
X69545Y-40719D01*
X69564Y-40757D01*
X69564Y-40776D01*
X69545Y-40814D01*
X69526Y-40833D01*
X69488Y-40852D01*
X69411Y-40852D01*
X69373Y-40871D01*
X69354Y-40890D01*
X69335Y-40928D01*
X69335Y-41004D01*
X69354Y-41042D01*
X69373Y-41061D01*
X69411Y-41080D01*
X69488Y-41080D01*
X69526Y-41061D01*
X69545Y-41042D01*
X69564Y-41004D01*
X69564Y-40928D01*
X69545Y-40890D01*
X69526Y-40871D01*
X69488Y-40852D01*
X70583Y-41080D02*
X70450Y-40890D01*
X70354Y-41080D02*
X70354Y-40680D01*
X70507Y-40680D01*
X70545Y-40700D01*
X70564Y-40719D01*
X70583Y-40757D01*
X70583Y-40814D01*
X70564Y-40852D01*
X70545Y-40871D01*
X70507Y-40890D01*
X70354Y-40890D01*
X70773Y-41080D02*
X70850Y-41080D01*
X70888Y-41061D01*
X70907Y-41042D01*
X70945Y-40985D01*
X70964Y-40909D01*
X70964Y-40757D01*
X70945Y-40719D01*
X70926Y-40700D01*
X70888Y-40680D01*
X70811Y-40680D01*
X70773Y-40700D01*
X70754Y-40719D01*
X70735Y-40757D01*
X70735Y-40852D01*
X70754Y-40890D01*
X70773Y-40909D01*
X70811Y-40928D01*
X70888Y-40928D01*
X70926Y-40909D01*
X70945Y-40890D01*
X70964Y-40852D01*
X71992Y-41080D02*
X71859Y-40890D01*
X71764Y-41080D02*
X71764Y-40680D01*
X71916Y-40680D01*
X71954Y-40700D01*
X71973Y-40719D01*
X71992Y-40757D01*
X71992Y-40814D01*
X71973Y-40852D01*
X71954Y-40871D01*
X71916Y-40890D01*
X71764Y-40890D01*
X72373Y-41080D02*
X72145Y-41080D01*
X72259Y-41080D02*
X72259Y-40680D01*
X72221Y-40738D01*
X72183Y-40776D01*
X72145Y-40795D01*
X72621Y-40680D02*
X72659Y-40680D01*
X72697Y-40700D01*
X72716Y-40719D01*
X72735Y-40757D01*
X72754Y-40833D01*
X72754Y-40928D01*
X72735Y-41004D01*
X72716Y-41042D01*
X72697Y-41061D01*
X72659Y-41080D01*
X72621Y-41080D01*
X72583Y-41061D01*
X72564Y-41042D01*
X72545Y-41004D01*
X72526Y-40928D01*
X72526Y-40833D01*
X72545Y-40757D01*
X72564Y-40719D01*
X72583Y-40700D01*
X72621Y-40680D01*
X73492Y-41130D02*
X73359Y-40940D01*
X73264Y-41130D02*
X73264Y-40730D01*
X73416Y-40730D01*
X73454Y-40750D01*
X73473Y-40769D01*
X73492Y-40807D01*
X73492Y-40864D01*
X73473Y-40902D01*
X73454Y-40921D01*
X73416Y-40940D01*
X73264Y-40940D01*
X73873Y-41130D02*
X73645Y-41130D01*
X73759Y-41130D02*
X73759Y-40730D01*
X73721Y-40788D01*
X73683Y-40826D01*
X73645Y-40845D01*
X74254Y-41130D02*
X74026Y-41130D01*
X74140Y-41130D02*
X74140Y-40730D01*
X74102Y-40788D01*
X74064Y-40826D01*
X74026Y-40845D01*
X75042Y-43780D02*
X74909Y-43590D01*
X74814Y-43780D02*
X74814Y-43380D01*
X74966Y-43380D01*
X75004Y-43400D01*
X75023Y-43419D01*
X75042Y-43457D01*
X75042Y-43514D01*
X75023Y-43552D01*
X75004Y-43571D01*
X74966Y-43590D01*
X74814Y-43590D01*
X75423Y-43780D02*
X75195Y-43780D01*
X75309Y-43780D02*
X75309Y-43380D01*
X75271Y-43438D01*
X75233Y-43476D01*
X75195Y-43495D01*
X75576Y-43419D02*
X75595Y-43400D01*
X75633Y-43380D01*
X75728Y-43380D01*
X75766Y-43400D01*
X75785Y-43419D01*
X75804Y-43457D01*
X75804Y-43495D01*
X75785Y-43552D01*
X75557Y-43780D01*
X75804Y-43780D01*
X68392Y-45680D02*
X68259Y-45490D01*
X68164Y-45680D02*
X68164Y-45280D01*
X68316Y-45280D01*
X68354Y-45300D01*
X68373Y-45319D01*
X68392Y-45357D01*
X68392Y-45414D01*
X68373Y-45452D01*
X68354Y-45471D01*
X68316Y-45490D01*
X68164Y-45490D01*
X68773Y-45680D02*
X68545Y-45680D01*
X68659Y-45680D02*
X68659Y-45280D01*
X68621Y-45338D01*
X68583Y-45376D01*
X68545Y-45395D01*
X68907Y-45280D02*
X69154Y-45280D01*
X69021Y-45433D01*
X69078Y-45433D01*
X69116Y-45452D01*
X69135Y-45471D01*
X69154Y-45509D01*
X69154Y-45604D01*
X69135Y-45642D01*
X69116Y-45661D01*
X69078Y-45680D01*
X68964Y-45680D01*
X68926Y-45661D01*
X68907Y-45642D01*
X47742Y-45530D02*
X47609Y-45340D01*
X47514Y-45530D02*
X47514Y-45130D01*
X47666Y-45130D01*
X47704Y-45150D01*
X47723Y-45169D01*
X47742Y-45207D01*
X47742Y-45264D01*
X47723Y-45302D01*
X47704Y-45321D01*
X47666Y-45340D01*
X47514Y-45340D01*
X48123Y-45530D02*
X47895Y-45530D01*
X48009Y-45530D02*
X48009Y-45130D01*
X47971Y-45188D01*
X47933Y-45226D01*
X47895Y-45245D01*
X48466Y-45264D02*
X48466Y-45530D01*
X48371Y-45111D02*
X48276Y-45397D01*
X48523Y-45397D01*
X62892Y-49880D02*
X62759Y-49690D01*
X62664Y-49880D02*
X62664Y-49480D01*
X62816Y-49480D01*
X62854Y-49500D01*
X62873Y-49519D01*
X62892Y-49557D01*
X62892Y-49614D01*
X62873Y-49652D01*
X62854Y-49671D01*
X62816Y-49690D01*
X62664Y-49690D01*
X63273Y-49880D02*
X63045Y-49880D01*
X63159Y-49880D02*
X63159Y-49480D01*
X63121Y-49538D01*
X63083Y-49576D01*
X63045Y-49595D01*
X63635Y-49480D02*
X63445Y-49480D01*
X63426Y-49671D01*
X63445Y-49652D01*
X63483Y-49633D01*
X63578Y-49633D01*
X63616Y-49652D01*
X63635Y-49671D01*
X63654Y-49709D01*
X63654Y-49804D01*
X63635Y-49842D01*
X63616Y-49861D01*
X63578Y-49880D01*
X63483Y-49880D01*
X63445Y-49861D01*
X63426Y-49842D01*
X61142Y-49880D02*
X61009Y-49690D01*
X60914Y-49880D02*
X60914Y-49480D01*
X61066Y-49480D01*
X61104Y-49500D01*
X61123Y-49519D01*
X61142Y-49557D01*
X61142Y-49614D01*
X61123Y-49652D01*
X61104Y-49671D01*
X61066Y-49690D01*
X60914Y-49690D01*
X61523Y-49880D02*
X61295Y-49880D01*
X61409Y-49880D02*
X61409Y-49480D01*
X61371Y-49538D01*
X61333Y-49576D01*
X61295Y-49595D01*
X61866Y-49480D02*
X61790Y-49480D01*
X61752Y-49500D01*
X61733Y-49519D01*
X61695Y-49576D01*
X61676Y-49652D01*
X61676Y-49804D01*
X61695Y-49842D01*
X61714Y-49861D01*
X61752Y-49880D01*
X61828Y-49880D01*
X61866Y-49861D01*
X61885Y-49842D01*
X61904Y-49804D01*
X61904Y-49709D01*
X61885Y-49671D01*
X61866Y-49652D01*
X61828Y-49633D01*
X61752Y-49633D01*
X61714Y-49652D01*
X61695Y-49671D01*
X61676Y-49709D01*
X63542Y-54380D02*
X63409Y-54190D01*
X63314Y-54380D02*
X63314Y-53980D01*
X63466Y-53980D01*
X63504Y-54000D01*
X63523Y-54019D01*
X63542Y-54057D01*
X63542Y-54114D01*
X63523Y-54152D01*
X63504Y-54171D01*
X63466Y-54190D01*
X63314Y-54190D01*
X63923Y-54380D02*
X63695Y-54380D01*
X63809Y-54380D02*
X63809Y-53980D01*
X63771Y-54038D01*
X63733Y-54076D01*
X63695Y-54095D01*
X64057Y-53980D02*
X64323Y-53980D01*
X64152Y-54380D01*
X63642Y-53130D02*
X63509Y-52940D01*
X63414Y-53130D02*
X63414Y-52730D01*
X63566Y-52730D01*
X63604Y-52750D01*
X63623Y-52769D01*
X63642Y-52807D01*
X63642Y-52864D01*
X63623Y-52902D01*
X63604Y-52921D01*
X63566Y-52940D01*
X63414Y-52940D01*
X64023Y-53130D02*
X63795Y-53130D01*
X63909Y-53130D02*
X63909Y-52730D01*
X63871Y-52788D01*
X63833Y-52826D01*
X63795Y-52845D01*
X64252Y-52902D02*
X64214Y-52883D01*
X64195Y-52864D01*
X64176Y-52826D01*
X64176Y-52807D01*
X64195Y-52769D01*
X64214Y-52750D01*
X64252Y-52730D01*
X64328Y-52730D01*
X64366Y-52750D01*
X64385Y-52769D01*
X64404Y-52807D01*
X64404Y-52826D01*
X64385Y-52864D01*
X64366Y-52883D01*
X64328Y-52902D01*
X64252Y-52902D01*
X64214Y-52921D01*
X64195Y-52940D01*
X64176Y-52978D01*
X64176Y-53054D01*
X64195Y-53092D01*
X64214Y-53111D01*
X64252Y-53130D01*
X64328Y-53130D01*
X64366Y-53111D01*
X64385Y-53092D01*
X64404Y-53054D01*
X64404Y-52978D01*
X64385Y-52940D01*
X64366Y-52921D01*
X64328Y-52902D01*
X44092Y-55130D02*
X43959Y-54940D01*
X43864Y-55130D02*
X43864Y-54730D01*
X44016Y-54730D01*
X44054Y-54750D01*
X44073Y-54769D01*
X44092Y-54807D01*
X44092Y-54864D01*
X44073Y-54902D01*
X44054Y-54921D01*
X44016Y-54940D01*
X43864Y-54940D01*
X44473Y-55130D02*
X44245Y-55130D01*
X44359Y-55130D02*
X44359Y-54730D01*
X44321Y-54788D01*
X44283Y-54826D01*
X44245Y-54845D01*
X44664Y-55130D02*
X44740Y-55130D01*
X44778Y-55111D01*
X44797Y-55092D01*
X44835Y-55035D01*
X44854Y-54959D01*
X44854Y-54807D01*
X44835Y-54769D01*
X44816Y-54750D01*
X44778Y-54730D01*
X44702Y-54730D01*
X44664Y-54750D01*
X44645Y-54769D01*
X44626Y-54807D01*
X44626Y-54902D01*
X44645Y-54940D01*
X44664Y-54959D01*
X44702Y-54978D01*
X44778Y-54978D01*
X44816Y-54959D01*
X44835Y-54940D01*
X44854Y-54902D01*
X61392Y-56630D02*
X61259Y-56440D01*
X61164Y-56630D02*
X61164Y-56230D01*
X61316Y-56230D01*
X61354Y-56250D01*
X61373Y-56269D01*
X61392Y-56307D01*
X61392Y-56364D01*
X61373Y-56402D01*
X61354Y-56421D01*
X61316Y-56440D01*
X61164Y-56440D01*
X61545Y-56269D02*
X61564Y-56250D01*
X61602Y-56230D01*
X61697Y-56230D01*
X61735Y-56250D01*
X61754Y-56269D01*
X61773Y-56307D01*
X61773Y-56345D01*
X61754Y-56402D01*
X61526Y-56630D01*
X61773Y-56630D01*
X62021Y-56230D02*
X62059Y-56230D01*
X62097Y-56250D01*
X62116Y-56269D01*
X62135Y-56307D01*
X62154Y-56383D01*
X62154Y-56478D01*
X62135Y-56554D01*
X62116Y-56592D01*
X62097Y-56611D01*
X62059Y-56630D01*
X62021Y-56630D01*
X61983Y-56611D01*
X61964Y-56592D01*
X61945Y-56554D01*
X61926Y-56478D01*
X61926Y-56383D01*
X61945Y-56307D01*
X61964Y-56269D01*
X61983Y-56250D01*
X62021Y-56230D01*
X63492Y-56980D02*
X63359Y-56790D01*
X63264Y-56980D02*
X63264Y-56580D01*
X63416Y-56580D01*
X63454Y-56600D01*
X63473Y-56619D01*
X63492Y-56657D01*
X63492Y-56714D01*
X63473Y-56752D01*
X63454Y-56771D01*
X63416Y-56790D01*
X63264Y-56790D01*
X63645Y-56619D02*
X63664Y-56600D01*
X63702Y-56580D01*
X63797Y-56580D01*
X63835Y-56600D01*
X63854Y-56619D01*
X63873Y-56657D01*
X63873Y-56695D01*
X63854Y-56752D01*
X63626Y-56980D01*
X63873Y-56980D01*
X64254Y-56980D02*
X64026Y-56980D01*
X64140Y-56980D02*
X64140Y-56580D01*
X64102Y-56638D01*
X64064Y-56676D01*
X64026Y-56695D01*
X51892Y-45230D02*
X51759Y-45040D01*
X51664Y-45230D02*
X51664Y-44830D01*
X51816Y-44830D01*
X51854Y-44850D01*
X51873Y-44869D01*
X51892Y-44907D01*
X51892Y-44964D01*
X51873Y-45002D01*
X51854Y-45021D01*
X51816Y-45040D01*
X51664Y-45040D01*
X52045Y-44869D02*
X52064Y-44850D01*
X52102Y-44830D01*
X52197Y-44830D01*
X52235Y-44850D01*
X52254Y-44869D01*
X52273Y-44907D01*
X52273Y-44945D01*
X52254Y-45002D01*
X52026Y-45230D01*
X52273Y-45230D01*
X52426Y-44869D02*
X52445Y-44850D01*
X52483Y-44830D01*
X52578Y-44830D01*
X52616Y-44850D01*
X52635Y-44869D01*
X52654Y-44907D01*
X52654Y-44945D01*
X52635Y-45002D01*
X52407Y-45230D01*
X52654Y-45230D01*
X58916Y-41061D02*
X58973Y-41080D01*
X59069Y-41080D01*
X59107Y-41061D01*
X59126Y-41042D01*
X59145Y-41004D01*
X59145Y-40966D01*
X59126Y-40928D01*
X59107Y-40909D01*
X59069Y-40890D01*
X58992Y-40871D01*
X58954Y-40852D01*
X58935Y-40833D01*
X58916Y-40795D01*
X58916Y-40757D01*
X58935Y-40719D01*
X58954Y-40700D01*
X58992Y-40680D01*
X59088Y-40680D01*
X59145Y-40700D01*
X59278Y-40680D02*
X59373Y-41080D01*
X59450Y-40795D01*
X59526Y-41080D01*
X59621Y-40680D01*
X59983Y-41080D02*
X59754Y-41080D01*
X59869Y-41080D02*
X59869Y-40680D01*
X59830Y-40738D01*
X59792Y-40776D01*
X59754Y-40795D01*
X77445Y-55330D02*
X77445Y-55654D01*
X77464Y-55692D01*
X77483Y-55711D01*
X77521Y-55730D01*
X77597Y-55730D01*
X77635Y-55711D01*
X77654Y-55692D01*
X77673Y-55654D01*
X77673Y-55330D01*
X78073Y-55730D02*
X77845Y-55730D01*
X77959Y-55730D02*
X77959Y-55330D01*
X77921Y-55388D01*
X77883Y-55426D01*
X77845Y-55445D01*
X67595Y-43430D02*
X67595Y-43754D01*
X67614Y-43792D01*
X67633Y-43811D01*
X67671Y-43830D01*
X67747Y-43830D01*
X67785Y-43811D01*
X67804Y-43792D01*
X67823Y-43754D01*
X67823Y-43430D01*
X67995Y-43469D02*
X68014Y-43450D01*
X68052Y-43430D01*
X68147Y-43430D01*
X68185Y-43450D01*
X68204Y-43469D01*
X68223Y-43507D01*
X68223Y-43545D01*
X68204Y-43602D01*
X67976Y-43830D01*
X68223Y-43830D01*
X63495Y-48330D02*
X63495Y-48654D01*
X63514Y-48692D01*
X63533Y-48711D01*
X63571Y-48730D01*
X63647Y-48730D01*
X63685Y-48711D01*
X63704Y-48692D01*
X63723Y-48654D01*
X63723Y-48330D01*
X63876Y-48330D02*
X64123Y-48330D01*
X63990Y-48483D01*
X64047Y-48483D01*
X64085Y-48502D01*
X64104Y-48521D01*
X64123Y-48559D01*
X64123Y-48654D01*
X64104Y-48692D01*
X64085Y-48711D01*
X64047Y-48730D01*
X63933Y-48730D01*
X63895Y-48711D01*
X63876Y-48692D01*
X65445Y-52930D02*
X65445Y-53254D01*
X65464Y-53292D01*
X65483Y-53311D01*
X65521Y-53330D01*
X65597Y-53330D01*
X65635Y-53311D01*
X65654Y-53292D01*
X65673Y-53254D01*
X65673Y-52930D01*
X66035Y-53064D02*
X66035Y-53330D01*
X65940Y-52911D02*
X65845Y-53197D01*
X66092Y-53197D01*
X51295Y-44130D02*
X51295Y-44454D01*
X51314Y-44492D01*
X51333Y-44511D01*
X51371Y-44530D01*
X51447Y-44530D01*
X51485Y-44511D01*
X51504Y-44492D01*
X51523Y-44454D01*
X51523Y-44130D01*
X51885Y-44130D02*
X51809Y-44130D01*
X51771Y-44150D01*
X51752Y-44169D01*
X51714Y-44226D01*
X51695Y-44302D01*
X51695Y-44454D01*
X51714Y-44492D01*
X51733Y-44511D01*
X51771Y-44530D01*
X51847Y-44530D01*
X51885Y-44511D01*
X51904Y-44492D01*
X51923Y-44454D01*
X51923Y-44359D01*
X51904Y-44321D01*
X51885Y-44302D01*
X51847Y-44283D01*
X51771Y-44283D01*
X51733Y-44302D01*
X51714Y-44321D01*
X51695Y-44359D01*
X45245Y-49530D02*
X45245Y-49854D01*
X45264Y-49892D01*
X45283Y-49911D01*
X45321Y-49930D01*
X45397Y-49930D01*
X45435Y-49911D01*
X45454Y-49892D01*
X45473Y-49854D01*
X45473Y-49530D01*
X45721Y-49702D02*
X45683Y-49683D01*
X45664Y-49664D01*
X45645Y-49626D01*
X45645Y-49607D01*
X45664Y-49569D01*
X45683Y-49550D01*
X45721Y-49530D01*
X45797Y-49530D01*
X45835Y-49550D01*
X45854Y-49569D01*
X45873Y-49607D01*
X45873Y-49626D01*
X45854Y-49664D01*
X45835Y-49683D01*
X45797Y-49702D01*
X45721Y-49702D01*
X45683Y-49721D01*
X45664Y-49740D01*
X45645Y-49778D01*
X45645Y-49854D01*
X45664Y-49892D01*
X45683Y-49911D01*
X45721Y-49930D01*
X45797Y-49930D01*
X45835Y-49911D01*
X45854Y-49892D01*
X45873Y-49854D01*
X45873Y-49778D01*
X45854Y-49740D01*
X45835Y-49721D01*
X45797Y-49702D01*
X47876Y-50780D02*
X48142Y-51180D01*
X48142Y-50780D02*
X47876Y-51180D01*
X48504Y-51180D02*
X48276Y-51180D01*
X48390Y-51180D02*
X48390Y-50780D01*
X48352Y-50838D01*
X48314Y-50876D01*
X48276Y-50895D01*
X39645Y-45080D02*
X39645Y-44680D01*
X39873Y-45080D01*
X39873Y-44680D01*
X40273Y-45080D02*
X40045Y-45080D01*
X40159Y-45080D02*
X40159Y-44680D01*
X40121Y-44738D01*
X40083Y-44776D01*
X40045Y-44795D01*
X58895Y-40130D02*
X58895Y-39730D01*
X59123Y-40130D01*
X59123Y-39730D01*
X59295Y-39769D02*
X59314Y-39750D01*
X59352Y-39730D01*
X59447Y-39730D01*
X59485Y-39750D01*
X59504Y-39769D01*
X59523Y-39807D01*
X59523Y-39845D01*
X59504Y-39902D01*
X59276Y-40130D01*
X59523Y-40130D01*
X69345Y-46380D02*
X69345Y-46704D01*
X69364Y-46742D01*
X69383Y-46761D01*
X69421Y-46780D01*
X69497Y-46780D01*
X69535Y-46761D01*
X69554Y-46742D01*
X69573Y-46704D01*
X69573Y-46380D01*
X69954Y-46380D02*
X69764Y-46380D01*
X69745Y-46571D01*
X69764Y-46552D01*
X69802Y-46533D01*
X69897Y-46533D01*
X69935Y-46552D01*
X69954Y-46571D01*
X69973Y-46609D01*
X69973Y-46704D01*
X69954Y-46742D01*
X69935Y-46761D01*
X69897Y-46780D01*
X69802Y-46780D01*
X69764Y-46761D01*
X69745Y-46742D01*
X53345Y-41280D02*
X53345Y-41604D01*
X53364Y-41642D01*
X53383Y-41661D01*
X53421Y-41680D01*
X53497Y-41680D01*
X53535Y-41661D01*
X53554Y-41642D01*
X53573Y-41604D01*
X53573Y-41280D01*
X53783Y-41680D02*
X53859Y-41680D01*
X53897Y-41661D01*
X53916Y-41642D01*
X53954Y-41585D01*
X53973Y-41509D01*
X53973Y-41357D01*
X53954Y-41319D01*
X53935Y-41300D01*
X53897Y-41280D01*
X53821Y-41280D01*
X53783Y-41300D01*
X53764Y-41319D01*
X53745Y-41357D01*
X53745Y-41452D01*
X53764Y-41490D01*
X53783Y-41509D01*
X53821Y-41528D01*
X53897Y-41528D01*
X53935Y-41509D01*
X53954Y-41490D01*
X53973Y-41452D01*
X53195Y-53080D02*
X53195Y-53404D01*
X53214Y-53442D01*
X53233Y-53461D01*
X53271Y-53480D01*
X53347Y-53480D01*
X53385Y-53461D01*
X53404Y-53442D01*
X53423Y-53404D01*
X53423Y-53080D01*
X53576Y-53080D02*
X53842Y-53080D01*
X53671Y-53480D01*
M02*
