%FSLAX34Y34*%
G04 Gerber Fmt 3.4, Leading zero omitted, Abs format*
G04 (created by PCBNEW (2014-jan-25)-product) date Tue 12 Aug 2014 10:31:01 PM PDT*
%MOIN*%
G01*
G70*
G90*
G04 APERTURE LIST*
%ADD10C,0.003937*%
%ADD11C,0.059100*%
%ADD12C,0.078700*%
%ADD13R,0.078700X0.078700*%
%ADD14C,0.236220*%
%ADD15R,0.068000X0.068000*%
%ADD16C,0.068000*%
%ADD17O,0.068000X0.068000*%
%ADD18R,0.080000X0.080000*%
%ADD19O,0.080000X0.080000*%
%ADD20O,0.137800X0.066900*%
%ADD21R,0.620000X0.380000*%
%ADD22R,0.055000X0.055000*%
%ADD23C,0.055000*%
%ADD24R,0.060000X0.060000*%
%ADD25C,0.060000*%
%ADD26C,0.035000*%
%ADD27C,0.008000*%
%ADD28C,0.040000*%
%ADD29C,0.010000*%
G04 APERTURE END LIST*
G54D10*
G54D11*
X68500Y-52000D03*
X68500Y-53000D03*
X67000Y-54000D03*
X67000Y-55000D03*
X68500Y-54000D03*
X68500Y-55000D03*
X68750Y-48250D03*
X68750Y-49250D03*
X53500Y-50250D03*
X53500Y-51250D03*
X43250Y-40750D03*
X43250Y-41750D03*
X51000Y-48250D03*
X52000Y-48250D03*
X44250Y-44000D03*
X45250Y-44000D03*
X43000Y-44000D03*
X43000Y-43000D03*
X49750Y-47500D03*
X48750Y-47500D03*
X53500Y-48000D03*
X53500Y-49000D03*
X58750Y-49250D03*
X59750Y-49250D03*
X46000Y-50750D03*
X47000Y-50750D03*
X50750Y-55750D03*
X51750Y-55750D03*
G54D12*
X52000Y-46250D03*
G54D13*
X48000Y-46250D03*
G54D14*
X41338Y-41338D03*
X76771Y-41338D03*
X41338Y-57086D03*
X76771Y-57086D03*
G54D15*
X74250Y-58250D03*
G54D16*
X74250Y-57250D03*
X74250Y-56250D03*
G54D15*
X43000Y-54000D03*
G54D16*
X42000Y-54000D03*
X41000Y-54000D03*
G54D15*
X53000Y-57000D03*
G54D17*
X54000Y-57000D03*
X55000Y-57000D03*
X56000Y-57000D03*
G54D15*
X57500Y-57000D03*
G54D17*
X58500Y-57000D03*
X59500Y-57000D03*
X60500Y-57000D03*
G54D18*
X78000Y-45250D03*
G54D19*
X78000Y-46250D03*
G54D18*
X78000Y-44000D03*
G54D19*
X78000Y-43000D03*
G54D15*
X48500Y-57000D03*
G54D17*
X49500Y-57000D03*
X50500Y-57000D03*
X51500Y-57000D03*
G54D15*
X44000Y-57000D03*
G54D17*
X45000Y-57000D03*
X46000Y-57000D03*
X47000Y-57000D03*
G54D12*
X72750Y-56500D03*
X68750Y-56500D03*
X58750Y-41750D03*
X62750Y-41750D03*
X58750Y-43000D03*
X62750Y-43000D03*
X58750Y-44250D03*
X62750Y-44250D03*
X58750Y-45500D03*
X62750Y-45500D03*
X58750Y-46750D03*
X62750Y-46750D03*
X58750Y-48000D03*
X62750Y-48000D03*
X68500Y-40250D03*
X68500Y-44250D03*
X70000Y-40250D03*
X70000Y-44250D03*
X71500Y-40250D03*
X71500Y-44250D03*
X73000Y-40250D03*
X73000Y-44250D03*
X74500Y-40250D03*
X74500Y-44250D03*
X69750Y-45500D03*
X73750Y-45500D03*
X50500Y-44500D03*
X46500Y-44500D03*
X62750Y-50500D03*
X58750Y-50500D03*
X58750Y-51750D03*
X62750Y-51750D03*
X62750Y-53000D03*
X58750Y-53000D03*
X58750Y-54250D03*
X62750Y-54250D03*
X44250Y-50000D03*
X44250Y-54000D03*
X62750Y-55500D03*
X58750Y-55500D03*
X64750Y-57500D03*
X64750Y-53500D03*
X53250Y-46250D03*
X53250Y-42250D03*
G54D13*
X62780Y-40250D03*
G54D12*
X60220Y-40250D03*
G54D20*
X70000Y-53000D03*
X70000Y-52000D03*
X70000Y-54000D03*
G54D21*
X74700Y-53000D03*
G54D22*
X64250Y-40000D03*
G54D23*
X64250Y-41000D03*
X64250Y-42000D03*
X64250Y-43000D03*
X67250Y-43000D03*
X67250Y-42000D03*
X67250Y-41000D03*
X67250Y-40000D03*
G54D22*
X64250Y-44750D03*
G54D23*
X64250Y-45750D03*
X64250Y-46750D03*
X64250Y-47750D03*
X67250Y-47750D03*
X67250Y-46750D03*
X67250Y-45750D03*
X67250Y-44750D03*
G54D22*
X64250Y-49250D03*
G54D23*
X64250Y-50250D03*
X64250Y-51250D03*
X64250Y-52250D03*
X67250Y-52250D03*
X67250Y-51250D03*
X67250Y-50250D03*
X67250Y-49250D03*
G54D20*
X44500Y-41750D03*
X44500Y-40750D03*
X44500Y-42750D03*
G54D21*
X49200Y-41750D03*
G54D22*
X44000Y-45750D03*
G54D23*
X44000Y-46750D03*
X44000Y-47750D03*
X44000Y-48750D03*
X47000Y-48750D03*
X47000Y-47750D03*
X47000Y-46750D03*
X47000Y-45750D03*
G54D11*
X51461Y-50000D03*
X49539Y-50000D03*
G54D24*
X41000Y-47250D03*
G54D25*
X42000Y-47250D03*
X41000Y-48250D03*
X42000Y-48250D03*
X41000Y-49250D03*
X42000Y-49250D03*
X41000Y-50250D03*
X42000Y-50250D03*
X41000Y-51250D03*
X42000Y-51250D03*
G54D15*
X53250Y-40250D03*
G54D16*
X54250Y-40250D03*
X55250Y-40250D03*
X56250Y-40250D03*
X57250Y-40250D03*
X58250Y-40250D03*
G54D22*
X70500Y-50250D03*
G54D23*
X71500Y-50250D03*
X72500Y-50250D03*
X73500Y-50250D03*
X74500Y-50250D03*
X75500Y-50250D03*
X76500Y-50250D03*
X77500Y-50250D03*
X77500Y-47250D03*
X76500Y-47250D03*
X75500Y-47250D03*
X74500Y-47250D03*
X73500Y-47250D03*
X72500Y-47250D03*
X71500Y-47250D03*
X70500Y-47250D03*
X54500Y-43000D03*
X54500Y-44000D03*
X54500Y-45000D03*
X54500Y-46000D03*
X54500Y-47000D03*
X54500Y-48000D03*
X54500Y-49000D03*
X54500Y-50000D03*
X54500Y-51000D03*
X54500Y-52000D03*
X54500Y-53000D03*
X54500Y-54000D03*
X54500Y-55000D03*
G54D22*
X54500Y-42000D03*
G54D23*
X57500Y-55000D03*
X57500Y-54000D03*
X57500Y-53000D03*
X57500Y-52000D03*
X57500Y-51000D03*
X57500Y-50000D03*
X57500Y-49000D03*
X57500Y-48000D03*
X57500Y-47000D03*
X57500Y-46000D03*
X57500Y-45000D03*
X57500Y-44000D03*
X57500Y-43000D03*
X57500Y-42000D03*
G54D22*
X46000Y-54750D03*
G54D23*
X47000Y-54750D03*
X48000Y-54750D03*
X49000Y-54750D03*
X50000Y-54750D03*
X51000Y-54750D03*
X52000Y-54750D03*
X52000Y-51750D03*
X51000Y-51750D03*
X50000Y-51750D03*
X49000Y-51750D03*
X48000Y-51750D03*
X47000Y-51750D03*
X46000Y-51750D03*
G54D26*
X55500Y-56250D03*
X46500Y-53000D03*
X52000Y-53000D03*
X56250Y-47000D03*
X55750Y-54000D03*
X55500Y-48000D03*
X56750Y-45500D03*
X56250Y-55000D03*
X61150Y-46900D03*
X61250Y-52400D03*
X60550Y-52400D03*
X60550Y-44800D03*
X60850Y-46350D03*
X60850Y-51100D03*
X60250Y-49850D03*
X52750Y-53500D03*
X54000Y-47500D03*
X48500Y-53500D03*
X56000Y-51500D03*
X55500Y-46250D03*
X67750Y-42500D03*
X76500Y-45750D03*
X71000Y-50750D03*
X74500Y-46500D03*
X72500Y-48000D03*
X72000Y-46500D03*
X77250Y-46000D03*
X55250Y-50000D03*
X49000Y-52500D03*
X52500Y-45500D03*
X53650Y-55850D03*
X51750Y-44250D03*
X71250Y-58500D03*
G54D27*
X55500Y-56250D02*
X55250Y-56000D01*
X55250Y-50750D02*
X55750Y-50250D01*
X55250Y-56000D02*
X55250Y-50750D01*
X54500Y-45000D02*
X55000Y-45500D01*
X55750Y-50250D02*
X55750Y-48750D01*
X55000Y-45500D02*
X55000Y-48000D01*
X55000Y-48000D02*
X55750Y-48750D01*
X54500Y-46000D02*
X52750Y-47750D01*
X46500Y-56500D02*
X46000Y-57000D01*
X46500Y-53000D02*
X46500Y-56500D01*
X52750Y-52250D02*
X52000Y-53000D01*
X52750Y-47750D02*
X52750Y-52250D01*
X58750Y-56250D02*
X59500Y-57000D01*
X57750Y-56250D02*
X58750Y-56250D01*
X56750Y-55250D02*
X57750Y-56250D01*
X56750Y-47500D02*
X56750Y-55250D01*
X56250Y-47000D02*
X56750Y-47500D01*
X54000Y-57000D02*
X54000Y-52500D01*
X54000Y-52500D02*
X54500Y-52000D01*
X55000Y-57000D02*
X55000Y-53500D01*
X55000Y-53500D02*
X54500Y-53000D01*
X55500Y-51000D02*
X56000Y-50500D01*
X55500Y-53750D02*
X55500Y-51000D01*
X55750Y-54000D02*
X55500Y-53750D01*
X55500Y-48000D02*
X56000Y-48500D01*
X56000Y-48500D02*
X56000Y-50500D01*
X55750Y-47000D02*
X55750Y-46500D01*
X55750Y-46500D02*
X56750Y-45500D01*
X56500Y-47750D02*
X55750Y-47000D01*
X56500Y-54750D02*
X56500Y-47750D01*
X56250Y-55000D02*
X56500Y-54750D01*
X61250Y-47000D02*
X61150Y-46900D01*
X61250Y-52400D02*
X61250Y-47000D01*
X60550Y-44800D02*
X60550Y-52400D01*
X60850Y-51100D02*
X60850Y-46350D01*
X60250Y-43250D02*
X58750Y-41750D01*
X60250Y-49850D02*
X60250Y-43250D01*
X54000Y-47500D02*
X54000Y-52000D01*
X54000Y-52000D02*
X53500Y-52500D01*
X53500Y-52750D02*
X52750Y-53500D01*
X53500Y-52500D02*
X53500Y-52750D01*
X49500Y-56250D02*
X49500Y-57000D01*
X48500Y-55250D02*
X49500Y-56250D01*
X48500Y-53500D02*
X48500Y-55250D01*
X56000Y-51250D02*
X56000Y-51500D01*
X56250Y-51000D02*
X56000Y-51250D01*
X56250Y-48000D02*
X56250Y-51000D01*
X55500Y-47250D02*
X56250Y-48000D01*
X55500Y-46250D02*
X55500Y-47250D01*
G54D28*
X68750Y-48250D02*
X69500Y-48250D01*
X69500Y-48250D02*
X70500Y-47250D01*
X66500Y-40750D02*
X67250Y-40000D01*
X67250Y-44750D02*
X66500Y-44000D01*
X66500Y-44000D02*
X66500Y-42750D01*
X67250Y-46750D02*
X66500Y-46000D01*
X66500Y-45500D02*
X67250Y-44750D01*
X66500Y-46000D02*
X66500Y-45500D01*
X67250Y-49250D02*
X66500Y-48500D01*
X66500Y-47500D02*
X67250Y-46750D01*
X66500Y-48500D02*
X66500Y-47500D01*
X67250Y-51250D02*
X66500Y-50500D01*
X66500Y-50000D02*
X67250Y-49250D01*
X66500Y-50500D02*
X66500Y-50000D01*
X67000Y-54000D02*
X66500Y-53500D01*
X66500Y-52000D02*
X67250Y-51250D01*
X66500Y-53500D02*
X66500Y-52000D01*
X67250Y-42000D02*
X66500Y-41250D01*
X66500Y-41250D02*
X66500Y-40750D01*
X66500Y-42750D02*
X67250Y-42000D01*
X50500Y-44500D02*
X50500Y-42350D01*
X50500Y-42350D02*
X51100Y-41750D01*
X47000Y-45750D02*
X48250Y-44500D01*
X48250Y-44500D02*
X50500Y-44500D01*
X43000Y-43000D02*
X43000Y-42500D01*
X43250Y-42250D02*
X43250Y-41750D01*
X43000Y-42500D02*
X43250Y-42250D01*
X42000Y-48250D02*
X42750Y-47500D01*
X42000Y-44000D02*
X43000Y-43000D01*
X42000Y-44750D02*
X42000Y-44000D01*
X42750Y-45500D02*
X42000Y-44750D01*
X42750Y-47500D02*
X42750Y-45500D01*
X74250Y-57250D02*
X74750Y-57250D01*
X78000Y-50250D02*
X77500Y-50250D01*
X78250Y-50500D02*
X78000Y-50250D01*
X78250Y-55250D02*
X78250Y-50500D01*
X78000Y-55500D02*
X78250Y-55250D01*
X76000Y-55500D02*
X78000Y-55500D01*
X75250Y-56250D02*
X76000Y-55500D01*
X75250Y-56750D02*
X75250Y-56250D01*
X74750Y-57250D02*
X75250Y-56750D01*
G54D27*
X62750Y-41750D02*
X62750Y-41500D01*
X62750Y-41500D02*
X64250Y-40000D01*
X62750Y-43000D02*
X63250Y-43000D01*
X63250Y-43000D02*
X64250Y-42000D01*
X64250Y-44750D02*
X63250Y-44750D01*
X63250Y-44750D02*
X62750Y-44250D01*
X62750Y-45500D02*
X64000Y-46750D01*
X64000Y-46750D02*
X64250Y-46750D01*
X62750Y-46750D02*
X63500Y-47500D01*
X64250Y-48750D02*
X64250Y-49250D01*
X63500Y-48000D02*
X64250Y-48750D01*
X63500Y-47500D02*
X63500Y-48000D01*
X64250Y-51250D02*
X63750Y-50750D01*
X63750Y-49000D02*
X62750Y-48000D01*
X63750Y-50750D02*
X63750Y-49000D01*
X70500Y-50250D02*
X70500Y-48750D01*
X71000Y-45250D02*
X70000Y-44250D01*
X71000Y-48250D02*
X71000Y-45250D01*
X70500Y-48750D02*
X71000Y-48250D01*
X67250Y-45750D02*
X67750Y-45250D01*
X67750Y-45250D02*
X67750Y-42500D01*
X76500Y-45750D02*
X75250Y-44500D01*
X75250Y-44500D02*
X75250Y-44000D01*
X75250Y-44000D02*
X74750Y-43500D01*
X74750Y-43500D02*
X72250Y-43500D01*
X72250Y-43500D02*
X71500Y-44250D01*
X76500Y-47250D02*
X73500Y-44250D01*
X73500Y-44250D02*
X73000Y-44250D01*
X73750Y-44500D02*
X73500Y-44250D01*
X73750Y-44500D02*
X73750Y-44500D01*
X77500Y-47250D02*
X74500Y-44250D01*
X71000Y-50750D02*
X71000Y-49500D01*
X71500Y-49000D02*
X71000Y-49500D01*
X71500Y-47250D02*
X71500Y-49000D01*
G54D28*
X72500Y-50250D02*
X72500Y-48000D01*
X74500Y-46500D02*
X72000Y-46500D01*
X75500Y-50250D02*
X77250Y-48500D01*
X78250Y-48000D02*
X78250Y-46500D01*
X77750Y-48500D02*
X78250Y-48000D01*
X77250Y-48500D02*
X77750Y-48500D01*
X78250Y-46500D02*
X78000Y-46250D01*
X77250Y-44500D02*
X77750Y-44000D01*
X77250Y-46000D02*
X77250Y-44500D01*
X77750Y-44000D02*
X78000Y-44000D01*
G54D27*
X49539Y-50000D02*
X51000Y-48539D01*
X51000Y-48539D02*
X51000Y-48250D01*
G54D28*
X50750Y-55750D02*
X50000Y-55750D01*
X50000Y-55750D02*
X49000Y-54750D01*
X54500Y-48000D02*
X55250Y-48750D01*
X55250Y-48750D02*
X55250Y-50000D01*
X51500Y-57000D02*
X51500Y-56500D01*
X51500Y-56500D02*
X50750Y-55750D01*
X49000Y-54750D02*
X49000Y-52500D01*
X53250Y-42250D02*
X53250Y-44750D01*
X53250Y-44750D02*
X52500Y-45500D01*
X47000Y-48750D02*
X47250Y-48750D01*
X47250Y-48750D02*
X48000Y-48000D01*
X48000Y-48000D02*
X48000Y-46250D01*
X47000Y-48750D02*
X46000Y-48750D01*
X45000Y-47750D02*
X44000Y-47750D01*
X46000Y-48750D02*
X45000Y-47750D01*
X44000Y-47750D02*
X44750Y-47000D01*
X44750Y-47000D02*
X44750Y-44500D01*
X44750Y-44500D02*
X44250Y-44000D01*
X58750Y-55500D02*
X59500Y-56250D01*
X59750Y-56250D02*
X60500Y-57000D01*
X59500Y-56250D02*
X59750Y-56250D01*
X46000Y-51750D02*
X46000Y-50750D01*
X46000Y-50750D02*
X47000Y-49750D01*
X47000Y-49750D02*
X47000Y-48750D01*
X46750Y-48750D02*
X47000Y-48750D01*
X44500Y-42750D02*
X44500Y-43250D01*
X44250Y-43500D02*
X44250Y-44000D01*
X44500Y-43250D02*
X44250Y-43500D01*
X58750Y-55500D02*
X59500Y-54750D01*
X59500Y-53750D02*
X58750Y-53000D01*
X59500Y-54750D02*
X59500Y-53750D01*
X58750Y-49250D02*
X59500Y-50000D01*
X59500Y-52250D02*
X58750Y-53000D01*
X59500Y-50000D02*
X59500Y-52250D01*
G54D27*
X49500Y-51500D02*
X49250Y-51250D01*
X48000Y-50500D02*
X48000Y-49750D01*
X48750Y-51250D02*
X48000Y-50500D01*
X49250Y-51250D02*
X48750Y-51250D01*
X49750Y-47500D02*
X49750Y-48000D01*
X49750Y-48000D02*
X48000Y-49750D01*
X51000Y-54750D02*
X49500Y-53250D01*
X49500Y-53250D02*
X49500Y-51500D01*
X53250Y-46250D02*
X53750Y-45750D01*
X53750Y-42750D02*
X54500Y-42000D01*
X53750Y-45750D02*
X53750Y-42750D01*
X43000Y-54000D02*
X43000Y-50250D01*
X43000Y-50250D02*
X42000Y-49250D01*
X56250Y-40250D02*
X57000Y-41000D01*
X61500Y-51750D02*
X62750Y-53000D01*
X61500Y-43500D02*
X61500Y-51750D01*
X59000Y-41000D02*
X61500Y-43500D01*
X57000Y-41000D02*
X59000Y-41000D01*
X62750Y-53000D02*
X62750Y-54250D01*
X57250Y-40250D02*
X57750Y-40750D01*
X61750Y-49500D02*
X62750Y-50500D01*
X61750Y-43250D02*
X61750Y-49500D01*
X59250Y-40750D02*
X61750Y-43250D01*
X57750Y-40750D02*
X59250Y-40750D01*
X62750Y-50500D02*
X62750Y-51750D01*
X50550Y-55300D02*
X50000Y-54750D01*
X53100Y-55300D02*
X50550Y-55300D01*
X53650Y-55850D02*
X53100Y-55300D01*
X58250Y-40250D02*
X59000Y-40250D01*
X63500Y-52250D02*
X64750Y-53500D01*
X63500Y-49750D02*
X63500Y-52250D01*
X62000Y-48250D02*
X63500Y-49750D01*
X62000Y-43250D02*
X62000Y-48250D01*
X59000Y-40250D02*
X62000Y-43250D01*
X62750Y-55500D02*
X64750Y-53500D01*
X58750Y-50500D02*
X58000Y-49750D01*
X56000Y-44000D02*
X54500Y-44000D01*
X56500Y-44500D02*
X56000Y-44000D01*
X57750Y-44500D02*
X56500Y-44500D01*
X58000Y-44750D02*
X57750Y-44500D01*
X58000Y-49750D02*
X58000Y-44750D01*
X44000Y-45750D02*
X43500Y-46250D01*
X43500Y-46250D02*
X43500Y-49000D01*
X45250Y-49750D02*
X45250Y-54000D01*
X44750Y-49250D02*
X45250Y-49750D01*
X43750Y-49250D02*
X44750Y-49250D01*
X43500Y-49000D02*
X43750Y-49250D01*
X45250Y-54000D02*
X46000Y-54750D01*
X49250Y-46750D02*
X49250Y-47750D01*
X47500Y-52500D02*
X48000Y-53000D01*
X47500Y-51500D02*
X47500Y-52500D01*
X47750Y-51250D02*
X47500Y-51500D01*
X47750Y-49250D02*
X47750Y-51250D01*
X49250Y-47750D02*
X47750Y-49250D01*
X48000Y-54750D02*
X48000Y-53000D01*
X49250Y-46750D02*
X51750Y-44250D01*
G54D28*
X70000Y-52000D02*
X70500Y-52000D01*
X70500Y-52000D02*
X71250Y-52750D01*
X71250Y-52750D02*
X71250Y-58500D01*
X40250Y-51000D02*
X40250Y-55250D01*
X40500Y-55500D02*
X42250Y-55500D01*
X40250Y-55250D02*
X40500Y-55500D01*
X41000Y-50250D02*
X40250Y-51000D01*
X68500Y-55000D02*
X67750Y-55750D01*
X66750Y-58500D02*
X44000Y-58500D01*
X67750Y-57500D02*
X66750Y-58500D01*
X67750Y-55750D02*
X67750Y-57500D01*
X72750Y-56500D02*
X72750Y-56000D01*
X72750Y-56000D02*
X75750Y-53000D01*
X75750Y-53000D02*
X76600Y-53000D01*
X68750Y-49250D02*
X69500Y-50000D01*
X70250Y-51250D02*
X74850Y-51250D01*
X69500Y-50500D02*
X70250Y-51250D01*
X69500Y-50000D02*
X69500Y-50500D01*
X74850Y-51250D02*
X76600Y-53000D01*
X68750Y-49250D02*
X68000Y-48500D01*
X68000Y-47250D02*
X69750Y-45500D01*
X68000Y-48500D02*
X68000Y-47250D01*
X69750Y-45500D02*
X69250Y-45000D01*
X69250Y-45000D02*
X69250Y-41000D01*
X69250Y-41000D02*
X70000Y-40250D01*
X74500Y-50250D02*
X74500Y-47250D01*
X73500Y-50250D02*
X73500Y-47250D01*
X42250Y-55500D02*
X43000Y-56250D01*
X43000Y-56250D02*
X43000Y-57500D01*
X43000Y-57500D02*
X44000Y-58500D01*
X43250Y-40750D02*
X42250Y-39750D01*
X41000Y-44250D02*
X41000Y-47250D01*
X39750Y-43000D02*
X41000Y-44250D01*
X39750Y-40500D02*
X39750Y-43000D01*
X40500Y-39750D02*
X39750Y-40500D01*
X42250Y-39750D02*
X40500Y-39750D01*
G54D29*
G36*
X70017Y-53010D02*
X70010Y-53010D01*
X70010Y-53017D01*
X69990Y-53017D01*
X69990Y-53010D01*
X69982Y-53010D01*
X69982Y-52990D01*
X69990Y-52990D01*
X69990Y-52982D01*
X70010Y-52982D01*
X70010Y-52990D01*
X70017Y-52990D01*
X70017Y-53010D01*
X70017Y-53010D01*
G37*
X70017Y-53010D02*
X70010Y-53010D01*
X70010Y-53017D01*
X69990Y-53017D01*
X69990Y-53010D01*
X69982Y-53010D01*
X69982Y-52990D01*
X69990Y-52990D01*
X69990Y-52982D01*
X70010Y-52982D01*
X70010Y-52990D01*
X70017Y-52990D01*
X70017Y-53010D01*
G36*
X75613Y-55250D02*
X74931Y-55931D01*
X74834Y-56077D01*
X74828Y-56105D01*
X74750Y-55916D01*
X74584Y-55750D01*
X74367Y-55660D01*
X74133Y-55659D01*
X73916Y-55749D01*
X73750Y-55915D01*
X73660Y-56132D01*
X73659Y-56366D01*
X73749Y-56583D01*
X73915Y-56749D01*
X73915Y-56750D01*
X73750Y-56915D01*
X73660Y-57132D01*
X73659Y-57366D01*
X73749Y-57583D01*
X73835Y-57670D01*
X73768Y-57698D01*
X73698Y-57768D01*
X73660Y-57860D01*
X73660Y-57959D01*
X73660Y-58639D01*
X73684Y-58700D01*
X73497Y-58700D01*
X73497Y-56371D01*
X73391Y-56095D01*
X73369Y-56062D01*
X73231Y-56032D01*
X73217Y-56047D01*
X73217Y-56018D01*
X73187Y-55880D01*
X72917Y-55760D01*
X72621Y-55752D01*
X72345Y-55858D01*
X72312Y-55880D01*
X72282Y-56018D01*
X72750Y-56485D01*
X73217Y-56018D01*
X73217Y-56047D01*
X72764Y-56500D01*
X73231Y-56967D01*
X73369Y-56937D01*
X73489Y-56667D01*
X73497Y-56371D01*
X73497Y-58700D01*
X73217Y-58700D01*
X73217Y-56981D01*
X72750Y-56514D01*
X72735Y-56528D01*
X72735Y-56500D01*
X72268Y-56032D01*
X72130Y-56062D01*
X72010Y-56332D01*
X72002Y-56628D01*
X72108Y-56904D01*
X72130Y-56937D01*
X72268Y-56967D01*
X72735Y-56500D01*
X72735Y-56528D01*
X72282Y-56981D01*
X72312Y-57119D01*
X72582Y-57239D01*
X72878Y-57247D01*
X73154Y-57141D01*
X73187Y-57119D01*
X73217Y-56981D01*
X73217Y-58700D01*
X71647Y-58700D01*
X71665Y-58672D01*
X71700Y-58500D01*
X71700Y-55250D01*
X74602Y-55250D01*
X74690Y-55162D01*
X74690Y-53010D01*
X74682Y-53010D01*
X74682Y-52990D01*
X74690Y-52990D01*
X74690Y-52982D01*
X74710Y-52982D01*
X74710Y-52990D01*
X74717Y-52990D01*
X74717Y-53010D01*
X74710Y-53010D01*
X74710Y-55162D01*
X74797Y-55250D01*
X75613Y-55250D01*
X75613Y-55250D01*
G37*
X75613Y-55250D02*
X74931Y-55931D01*
X74834Y-56077D01*
X74828Y-56105D01*
X74750Y-55916D01*
X74584Y-55750D01*
X74367Y-55660D01*
X74133Y-55659D01*
X73916Y-55749D01*
X73750Y-55915D01*
X73660Y-56132D01*
X73659Y-56366D01*
X73749Y-56583D01*
X73915Y-56749D01*
X73915Y-56750D01*
X73750Y-56915D01*
X73660Y-57132D01*
X73659Y-57366D01*
X73749Y-57583D01*
X73835Y-57670D01*
X73768Y-57698D01*
X73698Y-57768D01*
X73660Y-57860D01*
X73660Y-57959D01*
X73660Y-58639D01*
X73684Y-58700D01*
X73497Y-58700D01*
X73497Y-56371D01*
X73391Y-56095D01*
X73369Y-56062D01*
X73231Y-56032D01*
X73217Y-56047D01*
X73217Y-56018D01*
X73187Y-55880D01*
X72917Y-55760D01*
X72621Y-55752D01*
X72345Y-55858D01*
X72312Y-55880D01*
X72282Y-56018D01*
X72750Y-56485D01*
X73217Y-56018D01*
X73217Y-56047D01*
X72764Y-56500D01*
X73231Y-56967D01*
X73369Y-56937D01*
X73489Y-56667D01*
X73497Y-56371D01*
X73497Y-58700D01*
X73217Y-58700D01*
X73217Y-56981D01*
X72750Y-56514D01*
X72735Y-56528D01*
X72735Y-56500D01*
X72268Y-56032D01*
X72130Y-56062D01*
X72010Y-56332D01*
X72002Y-56628D01*
X72108Y-56904D01*
X72130Y-56937D01*
X72268Y-56967D01*
X72735Y-56500D01*
X72735Y-56528D01*
X72282Y-56981D01*
X72312Y-57119D01*
X72582Y-57239D01*
X72878Y-57247D01*
X73154Y-57141D01*
X73187Y-57119D01*
X73217Y-56981D01*
X73217Y-58700D01*
X71647Y-58700D01*
X71665Y-58672D01*
X71700Y-58500D01*
X71700Y-55250D01*
X74602Y-55250D01*
X74690Y-55162D01*
X74690Y-53010D01*
X74682Y-53010D01*
X74682Y-52990D01*
X74690Y-52990D01*
X74690Y-52982D01*
X74710Y-52982D01*
X74710Y-52990D01*
X74717Y-52990D01*
X74717Y-53010D01*
X74710Y-53010D01*
X74710Y-55162D01*
X74797Y-55250D01*
X75613Y-55250D01*
G36*
X77800Y-47813D02*
X77563Y-48050D01*
X77250Y-48050D01*
X77077Y-48084D01*
X76931Y-48181D01*
X75383Y-49730D01*
X75203Y-49804D01*
X75055Y-49952D01*
X75055Y-49952D01*
X75038Y-49908D01*
X75021Y-49883D01*
X74895Y-49868D01*
X74881Y-49882D01*
X74881Y-49854D01*
X74881Y-47645D01*
X74500Y-47264D01*
X74118Y-47645D01*
X74133Y-47771D01*
X74360Y-47871D01*
X74609Y-47877D01*
X74841Y-47788D01*
X74866Y-47771D01*
X74881Y-47645D01*
X74881Y-49854D01*
X74866Y-49728D01*
X74639Y-49628D01*
X74390Y-49622D01*
X74158Y-49711D01*
X74133Y-49728D01*
X74118Y-49854D01*
X74500Y-50235D01*
X74881Y-49854D01*
X74881Y-49882D01*
X74514Y-50250D01*
X74895Y-50631D01*
X75021Y-50616D01*
X75053Y-50543D01*
X75054Y-50547D01*
X75202Y-50694D01*
X75335Y-50750D01*
X74869Y-50750D01*
X74881Y-50645D01*
X74500Y-50264D01*
X74485Y-50278D01*
X74485Y-50250D01*
X74104Y-49868D01*
X74000Y-49880D01*
X73895Y-49868D01*
X73881Y-49882D01*
X73881Y-49854D01*
X73881Y-47645D01*
X73500Y-47264D01*
X73118Y-47645D01*
X73133Y-47771D01*
X73360Y-47871D01*
X73609Y-47877D01*
X73841Y-47788D01*
X73866Y-47771D01*
X73881Y-47645D01*
X73881Y-49854D01*
X73866Y-49728D01*
X73639Y-49628D01*
X73390Y-49622D01*
X73158Y-49711D01*
X73133Y-49728D01*
X73118Y-49854D01*
X73500Y-50235D01*
X73881Y-49854D01*
X73881Y-49882D01*
X73514Y-50250D01*
X73895Y-50631D01*
X74000Y-50619D01*
X74104Y-50631D01*
X74485Y-50250D01*
X74485Y-50278D01*
X74118Y-50645D01*
X74130Y-50750D01*
X73869Y-50750D01*
X73881Y-50645D01*
X73500Y-50264D01*
X73118Y-50645D01*
X73130Y-50750D01*
X72664Y-50750D01*
X72797Y-50695D01*
X72944Y-50547D01*
X72944Y-50547D01*
X72961Y-50591D01*
X72978Y-50616D01*
X73104Y-50631D01*
X73485Y-50250D01*
X73104Y-49868D01*
X72978Y-49883D01*
X72950Y-49948D01*
X72950Y-48000D01*
X72915Y-47827D01*
X72818Y-47681D01*
X72813Y-47678D01*
X72944Y-47547D01*
X72944Y-47547D01*
X72961Y-47591D01*
X72978Y-47616D01*
X73104Y-47631D01*
X73485Y-47250D01*
X73480Y-47244D01*
X73494Y-47230D01*
X73500Y-47235D01*
X73505Y-47230D01*
X73519Y-47244D01*
X73514Y-47250D01*
X73895Y-47631D01*
X74000Y-47619D01*
X74104Y-47631D01*
X74485Y-47250D01*
X74480Y-47244D01*
X74494Y-47230D01*
X74500Y-47235D01*
X74881Y-46854D01*
X74868Y-46743D01*
X74915Y-46672D01*
X74950Y-46500D01*
X74915Y-46327D01*
X74818Y-46181D01*
X74672Y-46084D01*
X74500Y-46050D01*
X74103Y-46050D01*
X74114Y-46045D01*
X74295Y-45864D01*
X74393Y-45628D01*
X74393Y-45553D01*
X75564Y-46725D01*
X75396Y-46724D01*
X75203Y-46804D01*
X75055Y-46952D01*
X75055Y-46952D01*
X75038Y-46908D01*
X75021Y-46883D01*
X74895Y-46868D01*
X74514Y-47250D01*
X74895Y-47631D01*
X75021Y-47616D01*
X75053Y-47543D01*
X75054Y-47547D01*
X75202Y-47694D01*
X75395Y-47774D01*
X75603Y-47775D01*
X75797Y-47695D01*
X75944Y-47547D01*
X76000Y-47414D01*
X76054Y-47547D01*
X76202Y-47694D01*
X76395Y-47774D01*
X76603Y-47775D01*
X76797Y-47695D01*
X76944Y-47547D01*
X77000Y-47414D01*
X77054Y-47547D01*
X77202Y-47694D01*
X77395Y-47774D01*
X77603Y-47775D01*
X77797Y-47695D01*
X77800Y-47692D01*
X77800Y-47813D01*
X77800Y-47813D01*
G37*
X77800Y-47813D02*
X77563Y-48050D01*
X77250Y-48050D01*
X77077Y-48084D01*
X76931Y-48181D01*
X75383Y-49730D01*
X75203Y-49804D01*
X75055Y-49952D01*
X75055Y-49952D01*
X75038Y-49908D01*
X75021Y-49883D01*
X74895Y-49868D01*
X74881Y-49882D01*
X74881Y-49854D01*
X74881Y-47645D01*
X74500Y-47264D01*
X74118Y-47645D01*
X74133Y-47771D01*
X74360Y-47871D01*
X74609Y-47877D01*
X74841Y-47788D01*
X74866Y-47771D01*
X74881Y-47645D01*
X74881Y-49854D01*
X74866Y-49728D01*
X74639Y-49628D01*
X74390Y-49622D01*
X74158Y-49711D01*
X74133Y-49728D01*
X74118Y-49854D01*
X74500Y-50235D01*
X74881Y-49854D01*
X74881Y-49882D01*
X74514Y-50250D01*
X74895Y-50631D01*
X75021Y-50616D01*
X75053Y-50543D01*
X75054Y-50547D01*
X75202Y-50694D01*
X75335Y-50750D01*
X74869Y-50750D01*
X74881Y-50645D01*
X74500Y-50264D01*
X74485Y-50278D01*
X74485Y-50250D01*
X74104Y-49868D01*
X74000Y-49880D01*
X73895Y-49868D01*
X73881Y-49882D01*
X73881Y-49854D01*
X73881Y-47645D01*
X73500Y-47264D01*
X73118Y-47645D01*
X73133Y-47771D01*
X73360Y-47871D01*
X73609Y-47877D01*
X73841Y-47788D01*
X73866Y-47771D01*
X73881Y-47645D01*
X73881Y-49854D01*
X73866Y-49728D01*
X73639Y-49628D01*
X73390Y-49622D01*
X73158Y-49711D01*
X73133Y-49728D01*
X73118Y-49854D01*
X73500Y-50235D01*
X73881Y-49854D01*
X73881Y-49882D01*
X73514Y-50250D01*
X73895Y-50631D01*
X74000Y-50619D01*
X74104Y-50631D01*
X74485Y-50250D01*
X74485Y-50278D01*
X74118Y-50645D01*
X74130Y-50750D01*
X73869Y-50750D01*
X73881Y-50645D01*
X73500Y-50264D01*
X73118Y-50645D01*
X73130Y-50750D01*
X72664Y-50750D01*
X72797Y-50695D01*
X72944Y-50547D01*
X72944Y-50547D01*
X72961Y-50591D01*
X72978Y-50616D01*
X73104Y-50631D01*
X73485Y-50250D01*
X73104Y-49868D01*
X72978Y-49883D01*
X72950Y-49948D01*
X72950Y-48000D01*
X72915Y-47827D01*
X72818Y-47681D01*
X72813Y-47678D01*
X72944Y-47547D01*
X72944Y-47547D01*
X72961Y-47591D01*
X72978Y-47616D01*
X73104Y-47631D01*
X73485Y-47250D01*
X73480Y-47244D01*
X73494Y-47230D01*
X73500Y-47235D01*
X73505Y-47230D01*
X73519Y-47244D01*
X73514Y-47250D01*
X73895Y-47631D01*
X74000Y-47619D01*
X74104Y-47631D01*
X74485Y-47250D01*
X74480Y-47244D01*
X74494Y-47230D01*
X74500Y-47235D01*
X74881Y-46854D01*
X74868Y-46743D01*
X74915Y-46672D01*
X74950Y-46500D01*
X74915Y-46327D01*
X74818Y-46181D01*
X74672Y-46084D01*
X74500Y-46050D01*
X74103Y-46050D01*
X74114Y-46045D01*
X74295Y-45864D01*
X74393Y-45628D01*
X74393Y-45553D01*
X75564Y-46725D01*
X75396Y-46724D01*
X75203Y-46804D01*
X75055Y-46952D01*
X75055Y-46952D01*
X75038Y-46908D01*
X75021Y-46883D01*
X74895Y-46868D01*
X74514Y-47250D01*
X74895Y-47631D01*
X75021Y-47616D01*
X75053Y-47543D01*
X75054Y-47547D01*
X75202Y-47694D01*
X75395Y-47774D01*
X75603Y-47775D01*
X75797Y-47695D01*
X75944Y-47547D01*
X76000Y-47414D01*
X76054Y-47547D01*
X76202Y-47694D01*
X76395Y-47774D01*
X76603Y-47775D01*
X76797Y-47695D01*
X76944Y-47547D01*
X77000Y-47414D01*
X77054Y-47547D01*
X77202Y-47694D01*
X77395Y-47774D01*
X77603Y-47775D01*
X77797Y-47695D01*
X77800Y-47692D01*
X77800Y-47813D01*
G36*
X78450Y-42521D02*
X78248Y-42386D01*
X78000Y-42337D01*
X77751Y-42386D01*
X77739Y-42394D01*
X77984Y-42150D01*
X78202Y-41624D01*
X78203Y-41055D01*
X77985Y-40528D01*
X77583Y-40126D01*
X77057Y-39907D01*
X76488Y-39907D01*
X75962Y-40124D01*
X75559Y-40526D01*
X75340Y-41052D01*
X75340Y-41621D01*
X75557Y-42148D01*
X75959Y-42551D01*
X76485Y-42769D01*
X77055Y-42769D01*
X77501Y-42585D01*
X77399Y-42738D01*
X77350Y-42987D01*
X77350Y-43012D01*
X77399Y-43261D01*
X77478Y-43379D01*
X77458Y-43388D01*
X77388Y-43458D01*
X77350Y-43550D01*
X77350Y-43649D01*
X77350Y-43763D01*
X76931Y-44181D01*
X76834Y-44327D01*
X76800Y-44500D01*
X76800Y-45448D01*
X76741Y-45389D01*
X76584Y-45325D01*
X76485Y-45324D01*
X75540Y-44379D01*
X75540Y-44000D01*
X75517Y-43889D01*
X75455Y-43794D01*
X75247Y-43586D01*
X75247Y-40121D01*
X75141Y-39845D01*
X75119Y-39812D01*
X74981Y-39782D01*
X74514Y-40250D01*
X74981Y-40717D01*
X75119Y-40687D01*
X75239Y-40417D01*
X75247Y-40121D01*
X75247Y-43586D01*
X74967Y-43306D01*
X74967Y-40731D01*
X74500Y-40264D01*
X74485Y-40278D01*
X74485Y-40250D01*
X74018Y-39782D01*
X73880Y-39812D01*
X73760Y-40082D01*
X73752Y-40378D01*
X73858Y-40654D01*
X73880Y-40687D01*
X74018Y-40717D01*
X74485Y-40250D01*
X74485Y-40278D01*
X74032Y-40731D01*
X74062Y-40869D01*
X74332Y-40989D01*
X74628Y-40997D01*
X74904Y-40891D01*
X74937Y-40869D01*
X74967Y-40731D01*
X74967Y-43306D01*
X74955Y-43294D01*
X74860Y-43232D01*
X74750Y-43210D01*
X73747Y-43210D01*
X73747Y-40121D01*
X73641Y-39845D01*
X73619Y-39812D01*
X73481Y-39782D01*
X73014Y-40250D01*
X73481Y-40717D01*
X73619Y-40687D01*
X73739Y-40417D01*
X73747Y-40121D01*
X73747Y-43210D01*
X73467Y-43210D01*
X73467Y-40731D01*
X73000Y-40264D01*
X72985Y-40278D01*
X72985Y-40250D01*
X72518Y-39782D01*
X72380Y-39812D01*
X72260Y-40082D01*
X72252Y-40378D01*
X72358Y-40654D01*
X72380Y-40687D01*
X72518Y-40717D01*
X72985Y-40250D01*
X72985Y-40278D01*
X72532Y-40731D01*
X72562Y-40869D01*
X72832Y-40989D01*
X73128Y-40997D01*
X73404Y-40891D01*
X73437Y-40869D01*
X73467Y-40731D01*
X73467Y-43210D01*
X72250Y-43210D01*
X72247Y-43210D01*
X72247Y-40121D01*
X72141Y-39845D01*
X72119Y-39812D01*
X71981Y-39782D01*
X71514Y-40250D01*
X71981Y-40717D01*
X72119Y-40687D01*
X72239Y-40417D01*
X72247Y-40121D01*
X72247Y-43210D01*
X72139Y-43232D01*
X72044Y-43294D01*
X71967Y-43372D01*
X71967Y-40731D01*
X71500Y-40264D01*
X71485Y-40278D01*
X71485Y-40250D01*
X71018Y-39782D01*
X70880Y-39812D01*
X70760Y-40082D01*
X70752Y-40378D01*
X70858Y-40654D01*
X70880Y-40687D01*
X71018Y-40717D01*
X71485Y-40250D01*
X71485Y-40278D01*
X71032Y-40731D01*
X71062Y-40869D01*
X71332Y-40989D01*
X71628Y-40997D01*
X71904Y-40891D01*
X71937Y-40869D01*
X71967Y-40731D01*
X71967Y-43372D01*
X71702Y-43637D01*
X71628Y-43606D01*
X71372Y-43606D01*
X71135Y-43704D01*
X70954Y-43885D01*
X70856Y-44121D01*
X70856Y-44377D01*
X70954Y-44614D01*
X71135Y-44795D01*
X71371Y-44893D01*
X71627Y-44893D01*
X71864Y-44795D01*
X72045Y-44614D01*
X72143Y-44378D01*
X72143Y-44122D01*
X72112Y-44047D01*
X72370Y-43790D01*
X72549Y-43790D01*
X72454Y-43885D01*
X72356Y-44121D01*
X72356Y-44377D01*
X72454Y-44614D01*
X72635Y-44795D01*
X72871Y-44893D01*
X73127Y-44893D01*
X73364Y-44795D01*
X73500Y-44660D01*
X73544Y-44705D01*
X73696Y-44856D01*
X73622Y-44856D01*
X73385Y-44954D01*
X73204Y-45135D01*
X73106Y-45371D01*
X73106Y-45627D01*
X73204Y-45864D01*
X73385Y-46045D01*
X73396Y-46050D01*
X72000Y-46050D01*
X71827Y-46084D01*
X71681Y-46181D01*
X71584Y-46327D01*
X71550Y-46500D01*
X71584Y-46672D01*
X71625Y-46733D01*
X71604Y-46725D01*
X71396Y-46724D01*
X71290Y-46768D01*
X71290Y-45250D01*
X71267Y-45139D01*
X71205Y-45044D01*
X70747Y-44586D01*
X70747Y-40121D01*
X70641Y-39845D01*
X70619Y-39812D01*
X70481Y-39782D01*
X70014Y-40250D01*
X70481Y-40717D01*
X70619Y-40687D01*
X70739Y-40417D01*
X70747Y-40121D01*
X70747Y-44586D01*
X70612Y-44452D01*
X70643Y-44378D01*
X70643Y-44122D01*
X70545Y-43885D01*
X70467Y-43807D01*
X70467Y-40731D01*
X70000Y-40264D01*
X69985Y-40278D01*
X69985Y-40250D01*
X69518Y-39782D01*
X69380Y-39812D01*
X69260Y-40082D01*
X69252Y-40378D01*
X69358Y-40654D01*
X69380Y-40687D01*
X69518Y-40717D01*
X69985Y-40250D01*
X69985Y-40278D01*
X69532Y-40731D01*
X69562Y-40869D01*
X69832Y-40989D01*
X70128Y-40997D01*
X70404Y-40891D01*
X70437Y-40869D01*
X70467Y-40731D01*
X70467Y-43807D01*
X70364Y-43704D01*
X70128Y-43606D01*
X69872Y-43606D01*
X69635Y-43704D01*
X69454Y-43885D01*
X69356Y-44121D01*
X69356Y-44377D01*
X69454Y-44614D01*
X69600Y-44760D01*
X69345Y-44858D01*
X69312Y-44880D01*
X69282Y-45018D01*
X69750Y-45485D01*
X70217Y-45018D01*
X70187Y-44880D01*
X70173Y-44874D01*
X70202Y-44862D01*
X70710Y-45370D01*
X70710Y-46768D01*
X70604Y-46725D01*
X70497Y-46724D01*
X70497Y-45371D01*
X70391Y-45095D01*
X70369Y-45062D01*
X70231Y-45032D01*
X69764Y-45500D01*
X70231Y-45967D01*
X70369Y-45937D01*
X70489Y-45667D01*
X70497Y-45371D01*
X70497Y-46724D01*
X70396Y-46724D01*
X70217Y-46798D01*
X70217Y-45981D01*
X69750Y-45514D01*
X69735Y-45528D01*
X69735Y-45500D01*
X69268Y-45032D01*
X69247Y-45037D01*
X69247Y-40121D01*
X69141Y-39845D01*
X69119Y-39812D01*
X68981Y-39782D01*
X68514Y-40250D01*
X68981Y-40717D01*
X69119Y-40687D01*
X69239Y-40417D01*
X69247Y-40121D01*
X69247Y-45037D01*
X69130Y-45062D01*
X69010Y-45332D01*
X69002Y-45628D01*
X69108Y-45904D01*
X69130Y-45937D01*
X69268Y-45967D01*
X69735Y-45500D01*
X69735Y-45528D01*
X69282Y-45981D01*
X69312Y-46119D01*
X69582Y-46239D01*
X69878Y-46247D01*
X70154Y-46141D01*
X70187Y-46119D01*
X70217Y-45981D01*
X70217Y-46798D01*
X70203Y-46804D01*
X70055Y-46952D01*
X69979Y-47133D01*
X69313Y-47800D01*
X69071Y-47800D01*
X69059Y-47787D01*
X68858Y-47704D01*
X68641Y-47704D01*
X68441Y-47787D01*
X68287Y-47940D01*
X68204Y-48141D01*
X68204Y-48358D01*
X68287Y-48558D01*
X68415Y-48687D01*
X68397Y-48694D01*
X68371Y-48711D01*
X68353Y-48839D01*
X68750Y-49235D01*
X69146Y-48839D01*
X69128Y-48711D01*
X69102Y-48700D01*
X69500Y-48700D01*
X69672Y-48665D01*
X69818Y-48568D01*
X70616Y-47769D01*
X70710Y-47731D01*
X70710Y-48129D01*
X70294Y-48544D01*
X70232Y-48639D01*
X70210Y-48750D01*
X70210Y-49725D01*
X70175Y-49725D01*
X70083Y-49763D01*
X70013Y-49833D01*
X69975Y-49925D01*
X69975Y-50024D01*
X69975Y-50574D01*
X70013Y-50666D01*
X70083Y-50736D01*
X70175Y-50775D01*
X70274Y-50775D01*
X70574Y-50775D01*
X70574Y-50834D01*
X70639Y-50990D01*
X70758Y-51110D01*
X70915Y-51174D01*
X71084Y-51175D01*
X71240Y-51110D01*
X71250Y-51100D01*
X71250Y-51169D01*
X71250Y-52113D01*
X70912Y-51776D01*
X70912Y-51776D01*
X70786Y-51586D01*
X70596Y-51459D01*
X70372Y-51415D01*
X69627Y-51415D01*
X69403Y-51459D01*
X69398Y-51463D01*
X69398Y-49137D01*
X69305Y-48897D01*
X69288Y-48871D01*
X69160Y-48853D01*
X68764Y-49250D01*
X69160Y-49646D01*
X69288Y-49628D01*
X69392Y-49393D01*
X69398Y-49137D01*
X69398Y-51463D01*
X69213Y-51586D01*
X69146Y-51687D01*
X69146Y-49660D01*
X68750Y-49264D01*
X68735Y-49278D01*
X68735Y-49250D01*
X68339Y-48853D01*
X68211Y-48871D01*
X68107Y-49106D01*
X68101Y-49362D01*
X68194Y-49602D01*
X68211Y-49628D01*
X68339Y-49646D01*
X68735Y-49250D01*
X68735Y-49278D01*
X68353Y-49660D01*
X68371Y-49788D01*
X68606Y-49892D01*
X68862Y-49898D01*
X69102Y-49805D01*
X69128Y-49788D01*
X69146Y-49660D01*
X69146Y-51687D01*
X69087Y-51776D01*
X69045Y-51985D01*
X69045Y-51891D01*
X68962Y-51691D01*
X68809Y-51537D01*
X68608Y-51454D01*
X68391Y-51454D01*
X68191Y-51537D01*
X68037Y-51690D01*
X67954Y-51891D01*
X67954Y-52108D01*
X68037Y-52308D01*
X68165Y-52437D01*
X68147Y-52444D01*
X68121Y-52461D01*
X68103Y-52589D01*
X68500Y-52985D01*
X68896Y-52589D01*
X68878Y-52461D01*
X68830Y-52440D01*
X68962Y-52309D01*
X69045Y-52108D01*
X69045Y-52014D01*
X69087Y-52223D01*
X69213Y-52413D01*
X69264Y-52447D01*
X69154Y-52523D01*
X69062Y-52664D01*
X69055Y-52647D01*
X69038Y-52621D01*
X68910Y-52603D01*
X68514Y-53000D01*
X68910Y-53396D01*
X69038Y-53378D01*
X69059Y-53330D01*
X69154Y-53476D01*
X69264Y-53552D01*
X69213Y-53586D01*
X69087Y-53776D01*
X69045Y-53985D01*
X69045Y-53891D01*
X68962Y-53691D01*
X68834Y-53562D01*
X68852Y-53555D01*
X68878Y-53538D01*
X68896Y-53410D01*
X68500Y-53014D01*
X68485Y-53028D01*
X68485Y-53000D01*
X68089Y-52603D01*
X67961Y-52621D01*
X67857Y-52856D01*
X67851Y-53112D01*
X67944Y-53352D01*
X67961Y-53378D01*
X68089Y-53396D01*
X68485Y-53000D01*
X68485Y-53028D01*
X68103Y-53410D01*
X68121Y-53538D01*
X68169Y-53559D01*
X68037Y-53690D01*
X67954Y-53891D01*
X67954Y-54108D01*
X68037Y-54308D01*
X68165Y-54437D01*
X68147Y-54444D01*
X68121Y-54461D01*
X68103Y-54589D01*
X68500Y-54985D01*
X68896Y-54589D01*
X68878Y-54461D01*
X68830Y-54440D01*
X68962Y-54309D01*
X69045Y-54108D01*
X69045Y-54014D01*
X69087Y-54223D01*
X69213Y-54413D01*
X69403Y-54540D01*
X69627Y-54584D01*
X70372Y-54584D01*
X70596Y-54540D01*
X70786Y-54413D01*
X70800Y-54392D01*
X70800Y-58500D01*
X70834Y-58672D01*
X70852Y-58700D01*
X69393Y-58700D01*
X69393Y-56372D01*
X69295Y-56135D01*
X69148Y-55988D01*
X69148Y-54887D01*
X69055Y-54647D01*
X69038Y-54621D01*
X68910Y-54603D01*
X68514Y-55000D01*
X68910Y-55396D01*
X69038Y-55378D01*
X69142Y-55143D01*
X69148Y-54887D01*
X69148Y-55988D01*
X69114Y-55954D01*
X68896Y-55864D01*
X68896Y-55410D01*
X68500Y-55014D01*
X68485Y-55028D01*
X68485Y-55000D01*
X68089Y-54603D01*
X67961Y-54621D01*
X67857Y-54856D01*
X67851Y-55112D01*
X67944Y-55352D01*
X67961Y-55378D01*
X68089Y-55396D01*
X68485Y-55000D01*
X68485Y-55028D01*
X68103Y-55410D01*
X68121Y-55538D01*
X68356Y-55642D01*
X68612Y-55648D01*
X68852Y-55555D01*
X68878Y-55538D01*
X68896Y-55410D01*
X68896Y-55864D01*
X68878Y-55856D01*
X68622Y-55856D01*
X68385Y-55954D01*
X68204Y-56135D01*
X68106Y-56371D01*
X68106Y-56627D01*
X68204Y-56864D01*
X68385Y-57045D01*
X68621Y-57143D01*
X68877Y-57143D01*
X69114Y-57045D01*
X69295Y-56864D01*
X69393Y-56628D01*
X69393Y-56372D01*
X69393Y-58700D01*
X66300Y-58700D01*
X66300Y-53936D01*
X66454Y-54090D01*
X66454Y-54108D01*
X66537Y-54308D01*
X66690Y-54462D01*
X66781Y-54499D01*
X66691Y-54537D01*
X66537Y-54690D01*
X66454Y-54891D01*
X66454Y-55108D01*
X66537Y-55308D01*
X66690Y-55462D01*
X66891Y-55545D01*
X67108Y-55545D01*
X67308Y-55462D01*
X67462Y-55309D01*
X67545Y-55108D01*
X67545Y-54891D01*
X67462Y-54691D01*
X67309Y-54537D01*
X67218Y-54500D01*
X67308Y-54462D01*
X67462Y-54309D01*
X67545Y-54108D01*
X67545Y-53891D01*
X67462Y-53691D01*
X67309Y-53537D01*
X67108Y-53454D01*
X67090Y-53454D01*
X66950Y-53313D01*
X66950Y-52692D01*
X66952Y-52694D01*
X67145Y-52774D01*
X67353Y-52775D01*
X67547Y-52695D01*
X67694Y-52547D01*
X67774Y-52354D01*
X67775Y-52146D01*
X67695Y-51953D01*
X67547Y-51805D01*
X67414Y-51749D01*
X67547Y-51695D01*
X67694Y-51547D01*
X67774Y-51354D01*
X67775Y-51146D01*
X67695Y-50953D01*
X67547Y-50805D01*
X67414Y-50749D01*
X67547Y-50695D01*
X67694Y-50547D01*
X67774Y-50354D01*
X67775Y-50146D01*
X67695Y-49953D01*
X67547Y-49805D01*
X67414Y-49749D01*
X67547Y-49695D01*
X67694Y-49547D01*
X67774Y-49354D01*
X67775Y-49146D01*
X67695Y-48953D01*
X67547Y-48805D01*
X67366Y-48729D01*
X66950Y-48313D01*
X66950Y-48192D01*
X66952Y-48194D01*
X67145Y-48274D01*
X67353Y-48275D01*
X67547Y-48195D01*
X67694Y-48047D01*
X67774Y-47854D01*
X67775Y-47646D01*
X67695Y-47453D01*
X67547Y-47305D01*
X67414Y-47249D01*
X67547Y-47195D01*
X67694Y-47047D01*
X67774Y-46854D01*
X67775Y-46646D01*
X67695Y-46453D01*
X67547Y-46305D01*
X67414Y-46249D01*
X67547Y-46195D01*
X67694Y-46047D01*
X67774Y-45854D01*
X67775Y-45646D01*
X67771Y-45638D01*
X67955Y-45455D01*
X68017Y-45360D01*
X68040Y-45250D01*
X68040Y-44700D01*
X68135Y-44795D01*
X68371Y-44893D01*
X68627Y-44893D01*
X68864Y-44795D01*
X69045Y-44614D01*
X69143Y-44378D01*
X69143Y-44122D01*
X69045Y-43885D01*
X68967Y-43807D01*
X68967Y-40731D01*
X68500Y-40264D01*
X68032Y-40731D01*
X68062Y-40869D01*
X68332Y-40989D01*
X68628Y-40997D01*
X68904Y-40891D01*
X68937Y-40869D01*
X68967Y-40731D01*
X68967Y-43807D01*
X68864Y-43704D01*
X68628Y-43606D01*
X68372Y-43606D01*
X68135Y-43704D01*
X68040Y-43799D01*
X68040Y-42811D01*
X68110Y-42741D01*
X68174Y-42584D01*
X68175Y-42415D01*
X68110Y-42259D01*
X67991Y-42139D01*
X67834Y-42075D01*
X67774Y-42075D01*
X67775Y-41896D01*
X67695Y-41703D01*
X67547Y-41555D01*
X67414Y-41499D01*
X67547Y-41445D01*
X67694Y-41297D01*
X67774Y-41104D01*
X67775Y-40896D01*
X67695Y-40703D01*
X67547Y-40555D01*
X67414Y-40499D01*
X67547Y-40445D01*
X67694Y-40297D01*
X67759Y-40143D01*
X67752Y-40378D01*
X67858Y-40654D01*
X67880Y-40687D01*
X68018Y-40717D01*
X68485Y-40250D01*
X68018Y-39782D01*
X67880Y-39812D01*
X67774Y-40050D01*
X67775Y-39896D01*
X67695Y-39703D01*
X67632Y-39639D01*
X68060Y-39639D01*
X68032Y-39768D01*
X68500Y-40235D01*
X68967Y-39768D01*
X68939Y-39639D01*
X69560Y-39639D01*
X69532Y-39768D01*
X70000Y-40235D01*
X70467Y-39768D01*
X70439Y-39639D01*
X71060Y-39639D01*
X71032Y-39768D01*
X71500Y-40235D01*
X71967Y-39768D01*
X71939Y-39639D01*
X72560Y-39639D01*
X72532Y-39768D01*
X73000Y-40235D01*
X73467Y-39768D01*
X73439Y-39639D01*
X74060Y-39639D01*
X74032Y-39768D01*
X74500Y-40235D01*
X74967Y-39768D01*
X74939Y-39639D01*
X78450Y-39639D01*
X78450Y-42521D01*
X78450Y-42521D01*
G37*
X78450Y-42521D02*
X78248Y-42386D01*
X78000Y-42337D01*
X77751Y-42386D01*
X77739Y-42394D01*
X77984Y-42150D01*
X78202Y-41624D01*
X78203Y-41055D01*
X77985Y-40528D01*
X77583Y-40126D01*
X77057Y-39907D01*
X76488Y-39907D01*
X75962Y-40124D01*
X75559Y-40526D01*
X75340Y-41052D01*
X75340Y-41621D01*
X75557Y-42148D01*
X75959Y-42551D01*
X76485Y-42769D01*
X77055Y-42769D01*
X77501Y-42585D01*
X77399Y-42738D01*
X77350Y-42987D01*
X77350Y-43012D01*
X77399Y-43261D01*
X77478Y-43379D01*
X77458Y-43388D01*
X77388Y-43458D01*
X77350Y-43550D01*
X77350Y-43649D01*
X77350Y-43763D01*
X76931Y-44181D01*
X76834Y-44327D01*
X76800Y-44500D01*
X76800Y-45448D01*
X76741Y-45389D01*
X76584Y-45325D01*
X76485Y-45324D01*
X75540Y-44379D01*
X75540Y-44000D01*
X75517Y-43889D01*
X75455Y-43794D01*
X75247Y-43586D01*
X75247Y-40121D01*
X75141Y-39845D01*
X75119Y-39812D01*
X74981Y-39782D01*
X74514Y-40250D01*
X74981Y-40717D01*
X75119Y-40687D01*
X75239Y-40417D01*
X75247Y-40121D01*
X75247Y-43586D01*
X74967Y-43306D01*
X74967Y-40731D01*
X74500Y-40264D01*
X74485Y-40278D01*
X74485Y-40250D01*
X74018Y-39782D01*
X73880Y-39812D01*
X73760Y-40082D01*
X73752Y-40378D01*
X73858Y-40654D01*
X73880Y-40687D01*
X74018Y-40717D01*
X74485Y-40250D01*
X74485Y-40278D01*
X74032Y-40731D01*
X74062Y-40869D01*
X74332Y-40989D01*
X74628Y-40997D01*
X74904Y-40891D01*
X74937Y-40869D01*
X74967Y-40731D01*
X74967Y-43306D01*
X74955Y-43294D01*
X74860Y-43232D01*
X74750Y-43210D01*
X73747Y-43210D01*
X73747Y-40121D01*
X73641Y-39845D01*
X73619Y-39812D01*
X73481Y-39782D01*
X73014Y-40250D01*
X73481Y-40717D01*
X73619Y-40687D01*
X73739Y-40417D01*
X73747Y-40121D01*
X73747Y-43210D01*
X73467Y-43210D01*
X73467Y-40731D01*
X73000Y-40264D01*
X72985Y-40278D01*
X72985Y-40250D01*
X72518Y-39782D01*
X72380Y-39812D01*
X72260Y-40082D01*
X72252Y-40378D01*
X72358Y-40654D01*
X72380Y-40687D01*
X72518Y-40717D01*
X72985Y-40250D01*
X72985Y-40278D01*
X72532Y-40731D01*
X72562Y-40869D01*
X72832Y-40989D01*
X73128Y-40997D01*
X73404Y-40891D01*
X73437Y-40869D01*
X73467Y-40731D01*
X73467Y-43210D01*
X72250Y-43210D01*
X72247Y-43210D01*
X72247Y-40121D01*
X72141Y-39845D01*
X72119Y-39812D01*
X71981Y-39782D01*
X71514Y-40250D01*
X71981Y-40717D01*
X72119Y-40687D01*
X72239Y-40417D01*
X72247Y-40121D01*
X72247Y-43210D01*
X72139Y-43232D01*
X72044Y-43294D01*
X71967Y-43372D01*
X71967Y-40731D01*
X71500Y-40264D01*
X71485Y-40278D01*
X71485Y-40250D01*
X71018Y-39782D01*
X70880Y-39812D01*
X70760Y-40082D01*
X70752Y-40378D01*
X70858Y-40654D01*
X70880Y-40687D01*
X71018Y-40717D01*
X71485Y-40250D01*
X71485Y-40278D01*
X71032Y-40731D01*
X71062Y-40869D01*
X71332Y-40989D01*
X71628Y-40997D01*
X71904Y-40891D01*
X71937Y-40869D01*
X71967Y-40731D01*
X71967Y-43372D01*
X71702Y-43637D01*
X71628Y-43606D01*
X71372Y-43606D01*
X71135Y-43704D01*
X70954Y-43885D01*
X70856Y-44121D01*
X70856Y-44377D01*
X70954Y-44614D01*
X71135Y-44795D01*
X71371Y-44893D01*
X71627Y-44893D01*
X71864Y-44795D01*
X72045Y-44614D01*
X72143Y-44378D01*
X72143Y-44122D01*
X72112Y-44047D01*
X72370Y-43790D01*
X72549Y-43790D01*
X72454Y-43885D01*
X72356Y-44121D01*
X72356Y-44377D01*
X72454Y-44614D01*
X72635Y-44795D01*
X72871Y-44893D01*
X73127Y-44893D01*
X73364Y-44795D01*
X73500Y-44660D01*
X73544Y-44705D01*
X73696Y-44856D01*
X73622Y-44856D01*
X73385Y-44954D01*
X73204Y-45135D01*
X73106Y-45371D01*
X73106Y-45627D01*
X73204Y-45864D01*
X73385Y-46045D01*
X73396Y-46050D01*
X72000Y-46050D01*
X71827Y-46084D01*
X71681Y-46181D01*
X71584Y-46327D01*
X71550Y-46500D01*
X71584Y-46672D01*
X71625Y-46733D01*
X71604Y-46725D01*
X71396Y-46724D01*
X71290Y-46768D01*
X71290Y-45250D01*
X71267Y-45139D01*
X71205Y-45044D01*
X70747Y-44586D01*
X70747Y-40121D01*
X70641Y-39845D01*
X70619Y-39812D01*
X70481Y-39782D01*
X70014Y-40250D01*
X70481Y-40717D01*
X70619Y-40687D01*
X70739Y-40417D01*
X70747Y-40121D01*
X70747Y-44586D01*
X70612Y-44452D01*
X70643Y-44378D01*
X70643Y-44122D01*
X70545Y-43885D01*
X70467Y-43807D01*
X70467Y-40731D01*
X70000Y-40264D01*
X69985Y-40278D01*
X69985Y-40250D01*
X69518Y-39782D01*
X69380Y-39812D01*
X69260Y-40082D01*
X69252Y-40378D01*
X69358Y-40654D01*
X69380Y-40687D01*
X69518Y-40717D01*
X69985Y-40250D01*
X69985Y-40278D01*
X69532Y-40731D01*
X69562Y-40869D01*
X69832Y-40989D01*
X70128Y-40997D01*
X70404Y-40891D01*
X70437Y-40869D01*
X70467Y-40731D01*
X70467Y-43807D01*
X70364Y-43704D01*
X70128Y-43606D01*
X69872Y-43606D01*
X69635Y-43704D01*
X69454Y-43885D01*
X69356Y-44121D01*
X69356Y-44377D01*
X69454Y-44614D01*
X69600Y-44760D01*
X69345Y-44858D01*
X69312Y-44880D01*
X69282Y-45018D01*
X69750Y-45485D01*
X70217Y-45018D01*
X70187Y-44880D01*
X70173Y-44874D01*
X70202Y-44862D01*
X70710Y-45370D01*
X70710Y-46768D01*
X70604Y-46725D01*
X70497Y-46724D01*
X70497Y-45371D01*
X70391Y-45095D01*
X70369Y-45062D01*
X70231Y-45032D01*
X69764Y-45500D01*
X70231Y-45967D01*
X70369Y-45937D01*
X70489Y-45667D01*
X70497Y-45371D01*
X70497Y-46724D01*
X70396Y-46724D01*
X70217Y-46798D01*
X70217Y-45981D01*
X69750Y-45514D01*
X69735Y-45528D01*
X69735Y-45500D01*
X69268Y-45032D01*
X69247Y-45037D01*
X69247Y-40121D01*
X69141Y-39845D01*
X69119Y-39812D01*
X68981Y-39782D01*
X68514Y-40250D01*
X68981Y-40717D01*
X69119Y-40687D01*
X69239Y-40417D01*
X69247Y-40121D01*
X69247Y-45037D01*
X69130Y-45062D01*
X69010Y-45332D01*
X69002Y-45628D01*
X69108Y-45904D01*
X69130Y-45937D01*
X69268Y-45967D01*
X69735Y-45500D01*
X69735Y-45528D01*
X69282Y-45981D01*
X69312Y-46119D01*
X69582Y-46239D01*
X69878Y-46247D01*
X70154Y-46141D01*
X70187Y-46119D01*
X70217Y-45981D01*
X70217Y-46798D01*
X70203Y-46804D01*
X70055Y-46952D01*
X69979Y-47133D01*
X69313Y-47800D01*
X69071Y-47800D01*
X69059Y-47787D01*
X68858Y-47704D01*
X68641Y-47704D01*
X68441Y-47787D01*
X68287Y-47940D01*
X68204Y-48141D01*
X68204Y-48358D01*
X68287Y-48558D01*
X68415Y-48687D01*
X68397Y-48694D01*
X68371Y-48711D01*
X68353Y-48839D01*
X68750Y-49235D01*
X69146Y-48839D01*
X69128Y-48711D01*
X69102Y-48700D01*
X69500Y-48700D01*
X69672Y-48665D01*
X69818Y-48568D01*
X70616Y-47769D01*
X70710Y-47731D01*
X70710Y-48129D01*
X70294Y-48544D01*
X70232Y-48639D01*
X70210Y-48750D01*
X70210Y-49725D01*
X70175Y-49725D01*
X70083Y-49763D01*
X70013Y-49833D01*
X69975Y-49925D01*
X69975Y-50024D01*
X69975Y-50574D01*
X70013Y-50666D01*
X70083Y-50736D01*
X70175Y-50775D01*
X70274Y-50775D01*
X70574Y-50775D01*
X70574Y-50834D01*
X70639Y-50990D01*
X70758Y-51110D01*
X70915Y-51174D01*
X71084Y-51175D01*
X71240Y-51110D01*
X71250Y-51100D01*
X71250Y-51169D01*
X71250Y-52113D01*
X70912Y-51776D01*
X70912Y-51776D01*
X70786Y-51586D01*
X70596Y-51459D01*
X70372Y-51415D01*
X69627Y-51415D01*
X69403Y-51459D01*
X69398Y-51463D01*
X69398Y-49137D01*
X69305Y-48897D01*
X69288Y-48871D01*
X69160Y-48853D01*
X68764Y-49250D01*
X69160Y-49646D01*
X69288Y-49628D01*
X69392Y-49393D01*
X69398Y-49137D01*
X69398Y-51463D01*
X69213Y-51586D01*
X69146Y-51687D01*
X69146Y-49660D01*
X68750Y-49264D01*
X68735Y-49278D01*
X68735Y-49250D01*
X68339Y-48853D01*
X68211Y-48871D01*
X68107Y-49106D01*
X68101Y-49362D01*
X68194Y-49602D01*
X68211Y-49628D01*
X68339Y-49646D01*
X68735Y-49250D01*
X68735Y-49278D01*
X68353Y-49660D01*
X68371Y-49788D01*
X68606Y-49892D01*
X68862Y-49898D01*
X69102Y-49805D01*
X69128Y-49788D01*
X69146Y-49660D01*
X69146Y-51687D01*
X69087Y-51776D01*
X69045Y-51985D01*
X69045Y-51891D01*
X68962Y-51691D01*
X68809Y-51537D01*
X68608Y-51454D01*
X68391Y-51454D01*
X68191Y-51537D01*
X68037Y-51690D01*
X67954Y-51891D01*
X67954Y-52108D01*
X68037Y-52308D01*
X68165Y-52437D01*
X68147Y-52444D01*
X68121Y-52461D01*
X68103Y-52589D01*
X68500Y-52985D01*
X68896Y-52589D01*
X68878Y-52461D01*
X68830Y-52440D01*
X68962Y-52309D01*
X69045Y-52108D01*
X69045Y-52014D01*
X69087Y-52223D01*
X69213Y-52413D01*
X69264Y-52447D01*
X69154Y-52523D01*
X69062Y-52664D01*
X69055Y-52647D01*
X69038Y-52621D01*
X68910Y-52603D01*
X68514Y-53000D01*
X68910Y-53396D01*
X69038Y-53378D01*
X69059Y-53330D01*
X69154Y-53476D01*
X69264Y-53552D01*
X69213Y-53586D01*
X69087Y-53776D01*
X69045Y-53985D01*
X69045Y-53891D01*
X68962Y-53691D01*
X68834Y-53562D01*
X68852Y-53555D01*
X68878Y-53538D01*
X68896Y-53410D01*
X68500Y-53014D01*
X68485Y-53028D01*
X68485Y-53000D01*
X68089Y-52603D01*
X67961Y-52621D01*
X67857Y-52856D01*
X67851Y-53112D01*
X67944Y-53352D01*
X67961Y-53378D01*
X68089Y-53396D01*
X68485Y-53000D01*
X68485Y-53028D01*
X68103Y-53410D01*
X68121Y-53538D01*
X68169Y-53559D01*
X68037Y-53690D01*
X67954Y-53891D01*
X67954Y-54108D01*
X68037Y-54308D01*
X68165Y-54437D01*
X68147Y-54444D01*
X68121Y-54461D01*
X68103Y-54589D01*
X68500Y-54985D01*
X68896Y-54589D01*
X68878Y-54461D01*
X68830Y-54440D01*
X68962Y-54309D01*
X69045Y-54108D01*
X69045Y-54014D01*
X69087Y-54223D01*
X69213Y-54413D01*
X69403Y-54540D01*
X69627Y-54584D01*
X70372Y-54584D01*
X70596Y-54540D01*
X70786Y-54413D01*
X70800Y-54392D01*
X70800Y-58500D01*
X70834Y-58672D01*
X70852Y-58700D01*
X69393Y-58700D01*
X69393Y-56372D01*
X69295Y-56135D01*
X69148Y-55988D01*
X69148Y-54887D01*
X69055Y-54647D01*
X69038Y-54621D01*
X68910Y-54603D01*
X68514Y-55000D01*
X68910Y-55396D01*
X69038Y-55378D01*
X69142Y-55143D01*
X69148Y-54887D01*
X69148Y-55988D01*
X69114Y-55954D01*
X68896Y-55864D01*
X68896Y-55410D01*
X68500Y-55014D01*
X68485Y-55028D01*
X68485Y-55000D01*
X68089Y-54603D01*
X67961Y-54621D01*
X67857Y-54856D01*
X67851Y-55112D01*
X67944Y-55352D01*
X67961Y-55378D01*
X68089Y-55396D01*
X68485Y-55000D01*
X68485Y-55028D01*
X68103Y-55410D01*
X68121Y-55538D01*
X68356Y-55642D01*
X68612Y-55648D01*
X68852Y-55555D01*
X68878Y-55538D01*
X68896Y-55410D01*
X68896Y-55864D01*
X68878Y-55856D01*
X68622Y-55856D01*
X68385Y-55954D01*
X68204Y-56135D01*
X68106Y-56371D01*
X68106Y-56627D01*
X68204Y-56864D01*
X68385Y-57045D01*
X68621Y-57143D01*
X68877Y-57143D01*
X69114Y-57045D01*
X69295Y-56864D01*
X69393Y-56628D01*
X69393Y-56372D01*
X69393Y-58700D01*
X66300Y-58700D01*
X66300Y-53936D01*
X66454Y-54090D01*
X66454Y-54108D01*
X66537Y-54308D01*
X66690Y-54462D01*
X66781Y-54499D01*
X66691Y-54537D01*
X66537Y-54690D01*
X66454Y-54891D01*
X66454Y-55108D01*
X66537Y-55308D01*
X66690Y-55462D01*
X66891Y-55545D01*
X67108Y-55545D01*
X67308Y-55462D01*
X67462Y-55309D01*
X67545Y-55108D01*
X67545Y-54891D01*
X67462Y-54691D01*
X67309Y-54537D01*
X67218Y-54500D01*
X67308Y-54462D01*
X67462Y-54309D01*
X67545Y-54108D01*
X67545Y-53891D01*
X67462Y-53691D01*
X67309Y-53537D01*
X67108Y-53454D01*
X67090Y-53454D01*
X66950Y-53313D01*
X66950Y-52692D01*
X66952Y-52694D01*
X67145Y-52774D01*
X67353Y-52775D01*
X67547Y-52695D01*
X67694Y-52547D01*
X67774Y-52354D01*
X67775Y-52146D01*
X67695Y-51953D01*
X67547Y-51805D01*
X67414Y-51749D01*
X67547Y-51695D01*
X67694Y-51547D01*
X67774Y-51354D01*
X67775Y-51146D01*
X67695Y-50953D01*
X67547Y-50805D01*
X67414Y-50749D01*
X67547Y-50695D01*
X67694Y-50547D01*
X67774Y-50354D01*
X67775Y-50146D01*
X67695Y-49953D01*
X67547Y-49805D01*
X67414Y-49749D01*
X67547Y-49695D01*
X67694Y-49547D01*
X67774Y-49354D01*
X67775Y-49146D01*
X67695Y-48953D01*
X67547Y-48805D01*
X67366Y-48729D01*
X66950Y-48313D01*
X66950Y-48192D01*
X66952Y-48194D01*
X67145Y-48274D01*
X67353Y-48275D01*
X67547Y-48195D01*
X67694Y-48047D01*
X67774Y-47854D01*
X67775Y-47646D01*
X67695Y-47453D01*
X67547Y-47305D01*
X67414Y-47249D01*
X67547Y-47195D01*
X67694Y-47047D01*
X67774Y-46854D01*
X67775Y-46646D01*
X67695Y-46453D01*
X67547Y-46305D01*
X67414Y-46249D01*
X67547Y-46195D01*
X67694Y-46047D01*
X67774Y-45854D01*
X67775Y-45646D01*
X67771Y-45638D01*
X67955Y-45455D01*
X68017Y-45360D01*
X68040Y-45250D01*
X68040Y-44700D01*
X68135Y-44795D01*
X68371Y-44893D01*
X68627Y-44893D01*
X68864Y-44795D01*
X69045Y-44614D01*
X69143Y-44378D01*
X69143Y-44122D01*
X69045Y-43885D01*
X68967Y-43807D01*
X68967Y-40731D01*
X68500Y-40264D01*
X68032Y-40731D01*
X68062Y-40869D01*
X68332Y-40989D01*
X68628Y-40997D01*
X68904Y-40891D01*
X68937Y-40869D01*
X68967Y-40731D01*
X68967Y-43807D01*
X68864Y-43704D01*
X68628Y-43606D01*
X68372Y-43606D01*
X68135Y-43704D01*
X68040Y-43799D01*
X68040Y-42811D01*
X68110Y-42741D01*
X68174Y-42584D01*
X68175Y-42415D01*
X68110Y-42259D01*
X67991Y-42139D01*
X67834Y-42075D01*
X67774Y-42075D01*
X67775Y-41896D01*
X67695Y-41703D01*
X67547Y-41555D01*
X67414Y-41499D01*
X67547Y-41445D01*
X67694Y-41297D01*
X67774Y-41104D01*
X67775Y-40896D01*
X67695Y-40703D01*
X67547Y-40555D01*
X67414Y-40499D01*
X67547Y-40445D01*
X67694Y-40297D01*
X67759Y-40143D01*
X67752Y-40378D01*
X67858Y-40654D01*
X67880Y-40687D01*
X68018Y-40717D01*
X68485Y-40250D01*
X68018Y-39782D01*
X67880Y-39812D01*
X67774Y-40050D01*
X67775Y-39896D01*
X67695Y-39703D01*
X67632Y-39639D01*
X68060Y-39639D01*
X68032Y-39768D01*
X68500Y-40235D01*
X68967Y-39768D01*
X68939Y-39639D01*
X69560Y-39639D01*
X69532Y-39768D01*
X70000Y-40235D01*
X70467Y-39768D01*
X70439Y-39639D01*
X71060Y-39639D01*
X71032Y-39768D01*
X71500Y-40235D01*
X71967Y-39768D01*
X71939Y-39639D01*
X72560Y-39639D01*
X72532Y-39768D01*
X73000Y-40235D01*
X73467Y-39768D01*
X73439Y-39639D01*
X74060Y-39639D01*
X74032Y-39768D01*
X74500Y-40235D01*
X74967Y-39768D01*
X74939Y-39639D01*
X78450Y-39639D01*
X78450Y-42521D01*
G36*
X44019Y-46755D02*
X44005Y-46769D01*
X44000Y-46764D01*
X43994Y-46769D01*
X43980Y-46755D01*
X43985Y-46750D01*
X43980Y-46744D01*
X43994Y-46730D01*
X44000Y-46735D01*
X44005Y-46730D01*
X44019Y-46744D01*
X44014Y-46750D01*
X44019Y-46755D01*
X44019Y-46755D01*
G37*
X44019Y-46755D02*
X44005Y-46769D01*
X44000Y-46764D01*
X43994Y-46769D01*
X43980Y-46755D01*
X43985Y-46750D01*
X43980Y-46744D01*
X43994Y-46730D01*
X44000Y-46735D01*
X44005Y-46730D01*
X44019Y-46744D01*
X44014Y-46750D01*
X44019Y-46755D01*
G36*
X47019Y-50755D02*
X47005Y-50769D01*
X47000Y-50764D01*
X46603Y-51160D01*
X46621Y-51288D01*
X46689Y-51318D01*
X46555Y-51452D01*
X46499Y-51585D01*
X46450Y-51464D01*
X46450Y-51111D01*
X46461Y-51128D01*
X46589Y-51146D01*
X46985Y-50750D01*
X46980Y-50744D01*
X46994Y-50730D01*
X47000Y-50735D01*
X47005Y-50730D01*
X47019Y-50744D01*
X47014Y-50750D01*
X47019Y-50755D01*
X47019Y-50755D01*
G37*
X47019Y-50755D02*
X47005Y-50769D01*
X47000Y-50764D01*
X46603Y-51160D01*
X46621Y-51288D01*
X46689Y-51318D01*
X46555Y-51452D01*
X46499Y-51585D01*
X46450Y-51464D01*
X46450Y-51111D01*
X46461Y-51128D01*
X46589Y-51146D01*
X46985Y-50750D01*
X46980Y-50744D01*
X46994Y-50730D01*
X47000Y-50735D01*
X47005Y-50730D01*
X47019Y-50744D01*
X47014Y-50750D01*
X47019Y-50755D01*
G36*
X53196Y-46893D02*
X52544Y-47544D01*
X52482Y-47639D01*
X52460Y-47750D01*
X52460Y-47780D01*
X52457Y-47778D01*
X52396Y-47839D01*
X52378Y-47711D01*
X52143Y-47607D01*
X51887Y-47601D01*
X51647Y-47694D01*
X51621Y-47711D01*
X51603Y-47839D01*
X52000Y-48235D01*
X52005Y-48230D01*
X52019Y-48244D01*
X52014Y-48250D01*
X52019Y-48255D01*
X52005Y-48269D01*
X52000Y-48264D01*
X51985Y-48278D01*
X51985Y-48250D01*
X51589Y-47853D01*
X51461Y-47871D01*
X51440Y-47919D01*
X51309Y-47787D01*
X51108Y-47704D01*
X50891Y-47704D01*
X50691Y-47787D01*
X50537Y-47940D01*
X50454Y-48141D01*
X50454Y-48358D01*
X50537Y-48558D01*
X50553Y-48575D01*
X49666Y-49462D01*
X49647Y-49454D01*
X49430Y-49454D01*
X49230Y-49537D01*
X49076Y-49690D01*
X48993Y-49891D01*
X48993Y-50108D01*
X49076Y-50308D01*
X49229Y-50462D01*
X49430Y-50545D01*
X49647Y-50545D01*
X49847Y-50462D01*
X50001Y-50309D01*
X50084Y-50108D01*
X50084Y-49891D01*
X50076Y-49872D01*
X51185Y-48763D01*
X51308Y-48712D01*
X51437Y-48584D01*
X51444Y-48602D01*
X51461Y-48628D01*
X51589Y-48646D01*
X51985Y-48250D01*
X51985Y-48278D01*
X51603Y-48660D01*
X51621Y-48788D01*
X51856Y-48892D01*
X52112Y-48898D01*
X52352Y-48805D01*
X52378Y-48788D01*
X52396Y-48660D01*
X52396Y-48660D01*
X52457Y-48721D01*
X52460Y-48719D01*
X52460Y-51488D01*
X52445Y-51453D01*
X52396Y-51403D01*
X52297Y-51305D01*
X52104Y-51225D01*
X52006Y-51225D01*
X52006Y-49891D01*
X51923Y-49691D01*
X51770Y-49537D01*
X51569Y-49454D01*
X51352Y-49454D01*
X51152Y-49537D01*
X50998Y-49690D01*
X50915Y-49891D01*
X50915Y-50108D01*
X50998Y-50308D01*
X51151Y-50462D01*
X51352Y-50545D01*
X51569Y-50545D01*
X51769Y-50462D01*
X51923Y-50309D01*
X52006Y-50108D01*
X52006Y-49891D01*
X52006Y-51225D01*
X51896Y-51224D01*
X51703Y-51304D01*
X51555Y-51452D01*
X51499Y-51585D01*
X51445Y-51453D01*
X51297Y-51305D01*
X51104Y-51225D01*
X50896Y-51224D01*
X50703Y-51304D01*
X50555Y-51452D01*
X50499Y-51585D01*
X50445Y-51453D01*
X50297Y-51305D01*
X50104Y-51225D01*
X49896Y-51224D01*
X49709Y-51301D01*
X49705Y-51294D01*
X49455Y-51044D01*
X49360Y-50982D01*
X49250Y-50960D01*
X48870Y-50960D01*
X48290Y-50379D01*
X48290Y-49870D01*
X49955Y-48205D01*
X50017Y-48110D01*
X50040Y-48000D01*
X50040Y-47970D01*
X50058Y-47962D01*
X50212Y-47809D01*
X50295Y-47608D01*
X50295Y-47391D01*
X50212Y-47191D01*
X50059Y-47037D01*
X49858Y-46954D01*
X49641Y-46954D01*
X49540Y-46996D01*
X49540Y-46870D01*
X51735Y-44674D01*
X51834Y-44675D01*
X51990Y-44610D01*
X52110Y-44491D01*
X52174Y-44334D01*
X52175Y-44165D01*
X52110Y-44009D01*
X52100Y-44000D01*
X52369Y-44000D01*
X52498Y-43946D01*
X52596Y-43848D01*
X52650Y-43719D01*
X52650Y-43580D01*
X52650Y-42482D01*
X52704Y-42614D01*
X52800Y-42710D01*
X52800Y-44563D01*
X52181Y-45181D01*
X52084Y-45327D01*
X52050Y-45500D01*
X52071Y-45606D01*
X51872Y-45606D01*
X51635Y-45704D01*
X51454Y-45885D01*
X51356Y-46121D01*
X51356Y-46377D01*
X51454Y-46614D01*
X51635Y-46795D01*
X51871Y-46893D01*
X52127Y-46893D01*
X52364Y-46795D01*
X52545Y-46614D01*
X52625Y-46422D01*
X52704Y-46614D01*
X52885Y-46795D01*
X53121Y-46893D01*
X53196Y-46893D01*
X53196Y-46893D01*
G37*
X53196Y-46893D02*
X52544Y-47544D01*
X52482Y-47639D01*
X52460Y-47750D01*
X52460Y-47780D01*
X52457Y-47778D01*
X52396Y-47839D01*
X52378Y-47711D01*
X52143Y-47607D01*
X51887Y-47601D01*
X51647Y-47694D01*
X51621Y-47711D01*
X51603Y-47839D01*
X52000Y-48235D01*
X52005Y-48230D01*
X52019Y-48244D01*
X52014Y-48250D01*
X52019Y-48255D01*
X52005Y-48269D01*
X52000Y-48264D01*
X51985Y-48278D01*
X51985Y-48250D01*
X51589Y-47853D01*
X51461Y-47871D01*
X51440Y-47919D01*
X51309Y-47787D01*
X51108Y-47704D01*
X50891Y-47704D01*
X50691Y-47787D01*
X50537Y-47940D01*
X50454Y-48141D01*
X50454Y-48358D01*
X50537Y-48558D01*
X50553Y-48575D01*
X49666Y-49462D01*
X49647Y-49454D01*
X49430Y-49454D01*
X49230Y-49537D01*
X49076Y-49690D01*
X48993Y-49891D01*
X48993Y-50108D01*
X49076Y-50308D01*
X49229Y-50462D01*
X49430Y-50545D01*
X49647Y-50545D01*
X49847Y-50462D01*
X50001Y-50309D01*
X50084Y-50108D01*
X50084Y-49891D01*
X50076Y-49872D01*
X51185Y-48763D01*
X51308Y-48712D01*
X51437Y-48584D01*
X51444Y-48602D01*
X51461Y-48628D01*
X51589Y-48646D01*
X51985Y-48250D01*
X51985Y-48278D01*
X51603Y-48660D01*
X51621Y-48788D01*
X51856Y-48892D01*
X52112Y-48898D01*
X52352Y-48805D01*
X52378Y-48788D01*
X52396Y-48660D01*
X52396Y-48660D01*
X52457Y-48721D01*
X52460Y-48719D01*
X52460Y-51488D01*
X52445Y-51453D01*
X52396Y-51403D01*
X52297Y-51305D01*
X52104Y-51225D01*
X52006Y-51225D01*
X52006Y-49891D01*
X51923Y-49691D01*
X51770Y-49537D01*
X51569Y-49454D01*
X51352Y-49454D01*
X51152Y-49537D01*
X50998Y-49690D01*
X50915Y-49891D01*
X50915Y-50108D01*
X50998Y-50308D01*
X51151Y-50462D01*
X51352Y-50545D01*
X51569Y-50545D01*
X51769Y-50462D01*
X51923Y-50309D01*
X52006Y-50108D01*
X52006Y-49891D01*
X52006Y-51225D01*
X51896Y-51224D01*
X51703Y-51304D01*
X51555Y-51452D01*
X51499Y-51585D01*
X51445Y-51453D01*
X51297Y-51305D01*
X51104Y-51225D01*
X50896Y-51224D01*
X50703Y-51304D01*
X50555Y-51452D01*
X50499Y-51585D01*
X50445Y-51453D01*
X50297Y-51305D01*
X50104Y-51225D01*
X49896Y-51224D01*
X49709Y-51301D01*
X49705Y-51294D01*
X49455Y-51044D01*
X49360Y-50982D01*
X49250Y-50960D01*
X48870Y-50960D01*
X48290Y-50379D01*
X48290Y-49870D01*
X49955Y-48205D01*
X50017Y-48110D01*
X50040Y-48000D01*
X50040Y-47970D01*
X50058Y-47962D01*
X50212Y-47809D01*
X50295Y-47608D01*
X50295Y-47391D01*
X50212Y-47191D01*
X50059Y-47037D01*
X49858Y-46954D01*
X49641Y-46954D01*
X49540Y-46996D01*
X49540Y-46870D01*
X51735Y-44674D01*
X51834Y-44675D01*
X51990Y-44610D01*
X52110Y-44491D01*
X52174Y-44334D01*
X52175Y-44165D01*
X52110Y-44009D01*
X52100Y-44000D01*
X52369Y-44000D01*
X52498Y-43946D01*
X52596Y-43848D01*
X52650Y-43719D01*
X52650Y-43580D01*
X52650Y-42482D01*
X52704Y-42614D01*
X52800Y-42710D01*
X52800Y-44563D01*
X52181Y-45181D01*
X52084Y-45327D01*
X52050Y-45500D01*
X52071Y-45606D01*
X51872Y-45606D01*
X51635Y-45704D01*
X51454Y-45885D01*
X51356Y-46121D01*
X51356Y-46377D01*
X51454Y-46614D01*
X51635Y-46795D01*
X51871Y-46893D01*
X52127Y-46893D01*
X52364Y-46795D01*
X52545Y-46614D01*
X52625Y-46422D01*
X52704Y-46614D01*
X52885Y-46795D01*
X53121Y-46893D01*
X53196Y-46893D01*
G36*
X53519Y-49005D02*
X53505Y-49019D01*
X53500Y-49014D01*
X53494Y-49019D01*
X53480Y-49005D01*
X53485Y-49000D01*
X53480Y-48994D01*
X53494Y-48980D01*
X53500Y-48985D01*
X53505Y-48980D01*
X53519Y-48994D01*
X53514Y-49000D01*
X53519Y-49005D01*
X53519Y-49005D01*
G37*
X53519Y-49005D02*
X53505Y-49019D01*
X53500Y-49014D01*
X53494Y-49019D01*
X53480Y-49005D01*
X53485Y-49000D01*
X53480Y-48994D01*
X53494Y-48980D01*
X53500Y-48985D01*
X53505Y-48980D01*
X53519Y-48994D01*
X53514Y-49000D01*
X53519Y-49005D01*
G36*
X53519Y-51255D02*
X53505Y-51269D01*
X53500Y-51264D01*
X53494Y-51269D01*
X53480Y-51255D01*
X53485Y-51250D01*
X53480Y-51244D01*
X53494Y-51230D01*
X53500Y-51235D01*
X53505Y-51230D01*
X53519Y-51244D01*
X53514Y-51250D01*
X53519Y-51255D01*
X53519Y-51255D01*
G37*
X53519Y-51255D02*
X53505Y-51269D01*
X53500Y-51264D01*
X53494Y-51269D01*
X53480Y-51255D01*
X53485Y-51250D01*
X53480Y-51244D01*
X53494Y-51230D01*
X53500Y-51235D01*
X53505Y-51230D01*
X53519Y-51244D01*
X53514Y-51250D01*
X53519Y-51255D01*
G36*
X53710Y-55425D02*
X53635Y-55424D01*
X53305Y-55094D01*
X53210Y-55032D01*
X53100Y-55010D01*
X52568Y-55010D01*
X52621Y-54889D01*
X52627Y-54640D01*
X52538Y-54408D01*
X52521Y-54383D01*
X52395Y-54368D01*
X52381Y-54382D01*
X52381Y-54354D01*
X52366Y-54228D01*
X52139Y-54128D01*
X51890Y-54122D01*
X51658Y-54211D01*
X51633Y-54228D01*
X51618Y-54354D01*
X52000Y-54735D01*
X52381Y-54354D01*
X52381Y-54382D01*
X52014Y-54750D01*
X52019Y-54755D01*
X52005Y-54769D01*
X52000Y-54764D01*
X51994Y-54769D01*
X51980Y-54755D01*
X51985Y-54750D01*
X51604Y-54368D01*
X51478Y-54383D01*
X51446Y-54456D01*
X51445Y-54453D01*
X51297Y-54305D01*
X51104Y-54225D01*
X50896Y-54224D01*
X50888Y-54228D01*
X49790Y-53129D01*
X49790Y-52231D01*
X49895Y-52274D01*
X50103Y-52275D01*
X50297Y-52195D01*
X50444Y-52047D01*
X50500Y-51914D01*
X50554Y-52047D01*
X50702Y-52194D01*
X50895Y-52274D01*
X51103Y-52275D01*
X51297Y-52195D01*
X51444Y-52047D01*
X51500Y-51914D01*
X51554Y-52047D01*
X51702Y-52194D01*
X51895Y-52274D01*
X52103Y-52275D01*
X52297Y-52195D01*
X52444Y-52047D01*
X52460Y-52011D01*
X52460Y-52129D01*
X52014Y-52575D01*
X51915Y-52574D01*
X51759Y-52639D01*
X51639Y-52758D01*
X51575Y-52915D01*
X51574Y-53084D01*
X51639Y-53240D01*
X51758Y-53360D01*
X51915Y-53424D01*
X52084Y-53425D01*
X52240Y-53360D01*
X52360Y-53241D01*
X52424Y-53084D01*
X52425Y-52985D01*
X52955Y-52455D01*
X53017Y-52360D01*
X53017Y-52360D01*
X53040Y-52250D01*
X53040Y-51719D01*
X53042Y-51721D01*
X53103Y-51660D01*
X53121Y-51788D01*
X53356Y-51892D01*
X53612Y-51898D01*
X53710Y-51860D01*
X53710Y-51879D01*
X53294Y-52294D01*
X53232Y-52389D01*
X53210Y-52500D01*
X53210Y-52629D01*
X52764Y-53075D01*
X52665Y-53074D01*
X52509Y-53139D01*
X52389Y-53258D01*
X52325Y-53415D01*
X52324Y-53584D01*
X52389Y-53740D01*
X52508Y-53860D01*
X52665Y-53924D01*
X52834Y-53925D01*
X52990Y-53860D01*
X53110Y-53741D01*
X53174Y-53584D01*
X53175Y-53485D01*
X53705Y-52955D01*
X53710Y-52947D01*
X53710Y-55425D01*
X53710Y-55425D01*
G37*
X53710Y-55425D02*
X53635Y-55424D01*
X53305Y-55094D01*
X53210Y-55032D01*
X53100Y-55010D01*
X52568Y-55010D01*
X52621Y-54889D01*
X52627Y-54640D01*
X52538Y-54408D01*
X52521Y-54383D01*
X52395Y-54368D01*
X52381Y-54382D01*
X52381Y-54354D01*
X52366Y-54228D01*
X52139Y-54128D01*
X51890Y-54122D01*
X51658Y-54211D01*
X51633Y-54228D01*
X51618Y-54354D01*
X52000Y-54735D01*
X52381Y-54354D01*
X52381Y-54382D01*
X52014Y-54750D01*
X52019Y-54755D01*
X52005Y-54769D01*
X52000Y-54764D01*
X51994Y-54769D01*
X51980Y-54755D01*
X51985Y-54750D01*
X51604Y-54368D01*
X51478Y-54383D01*
X51446Y-54456D01*
X51445Y-54453D01*
X51297Y-54305D01*
X51104Y-54225D01*
X50896Y-54224D01*
X50888Y-54228D01*
X49790Y-53129D01*
X49790Y-52231D01*
X49895Y-52274D01*
X50103Y-52275D01*
X50297Y-52195D01*
X50444Y-52047D01*
X50500Y-51914D01*
X50554Y-52047D01*
X50702Y-52194D01*
X50895Y-52274D01*
X51103Y-52275D01*
X51297Y-52195D01*
X51444Y-52047D01*
X51500Y-51914D01*
X51554Y-52047D01*
X51702Y-52194D01*
X51895Y-52274D01*
X52103Y-52275D01*
X52297Y-52195D01*
X52444Y-52047D01*
X52460Y-52011D01*
X52460Y-52129D01*
X52014Y-52575D01*
X51915Y-52574D01*
X51759Y-52639D01*
X51639Y-52758D01*
X51575Y-52915D01*
X51574Y-53084D01*
X51639Y-53240D01*
X51758Y-53360D01*
X51915Y-53424D01*
X52084Y-53425D01*
X52240Y-53360D01*
X52360Y-53241D01*
X52424Y-53084D01*
X52425Y-52985D01*
X52955Y-52455D01*
X53017Y-52360D01*
X53017Y-52360D01*
X53040Y-52250D01*
X53040Y-51719D01*
X53042Y-51721D01*
X53103Y-51660D01*
X53121Y-51788D01*
X53356Y-51892D01*
X53612Y-51898D01*
X53710Y-51860D01*
X53710Y-51879D01*
X53294Y-52294D01*
X53232Y-52389D01*
X53210Y-52500D01*
X53210Y-52629D01*
X52764Y-53075D01*
X52665Y-53074D01*
X52509Y-53139D01*
X52389Y-53258D01*
X52325Y-53415D01*
X52324Y-53584D01*
X52389Y-53740D01*
X52508Y-53860D01*
X52665Y-53924D01*
X52834Y-53925D01*
X52990Y-53860D01*
X53110Y-53741D01*
X53174Y-53584D01*
X53175Y-53485D01*
X53705Y-52955D01*
X53710Y-52947D01*
X53710Y-55425D01*
G36*
X54519Y-49005D02*
X54505Y-49019D01*
X54500Y-49014D01*
X54494Y-49019D01*
X54480Y-49005D01*
X54485Y-49000D01*
X54480Y-48994D01*
X54494Y-48980D01*
X54500Y-48985D01*
X54505Y-48980D01*
X54519Y-48994D01*
X54514Y-49000D01*
X54519Y-49005D01*
X54519Y-49005D01*
G37*
X54519Y-49005D02*
X54505Y-49019D01*
X54500Y-49014D01*
X54494Y-49019D01*
X54480Y-49005D01*
X54485Y-49000D01*
X54480Y-48994D01*
X54494Y-48980D01*
X54500Y-48985D01*
X54505Y-48980D01*
X54519Y-48994D01*
X54514Y-49000D01*
X54519Y-49005D01*
G36*
X57519Y-48005D02*
X57505Y-48019D01*
X57500Y-48014D01*
X57118Y-48395D01*
X57133Y-48521D01*
X57206Y-48553D01*
X57203Y-48554D01*
X57055Y-48702D01*
X57040Y-48738D01*
X57040Y-48373D01*
X57104Y-48381D01*
X57485Y-48000D01*
X57104Y-47618D01*
X57040Y-47626D01*
X57040Y-47500D01*
X57017Y-47389D01*
X56955Y-47294D01*
X56674Y-47014D01*
X56675Y-46915D01*
X56610Y-46759D01*
X56491Y-46639D01*
X56334Y-46575D01*
X56165Y-46574D01*
X56040Y-46626D01*
X56040Y-46620D01*
X56735Y-45924D01*
X56834Y-45925D01*
X56989Y-45860D01*
X56975Y-45895D01*
X56974Y-46103D01*
X57054Y-46297D01*
X57202Y-46444D01*
X57335Y-46500D01*
X57203Y-46554D01*
X57055Y-46702D01*
X56975Y-46895D01*
X56974Y-47103D01*
X57054Y-47297D01*
X57202Y-47444D01*
X57202Y-47444D01*
X57158Y-47461D01*
X57133Y-47478D01*
X57118Y-47604D01*
X57500Y-47985D01*
X57505Y-47980D01*
X57519Y-47994D01*
X57514Y-48000D01*
X57519Y-48005D01*
X57519Y-48005D01*
G37*
X57519Y-48005D02*
X57505Y-48019D01*
X57500Y-48014D01*
X57118Y-48395D01*
X57133Y-48521D01*
X57206Y-48553D01*
X57203Y-48554D01*
X57055Y-48702D01*
X57040Y-48738D01*
X57040Y-48373D01*
X57104Y-48381D01*
X57485Y-48000D01*
X57104Y-47618D01*
X57040Y-47626D01*
X57040Y-47500D01*
X57017Y-47389D01*
X56955Y-47294D01*
X56674Y-47014D01*
X56675Y-46915D01*
X56610Y-46759D01*
X56491Y-46639D01*
X56334Y-46575D01*
X56165Y-46574D01*
X56040Y-46626D01*
X56040Y-46620D01*
X56735Y-45924D01*
X56834Y-45925D01*
X56989Y-45860D01*
X56975Y-45895D01*
X56974Y-46103D01*
X57054Y-46297D01*
X57202Y-46444D01*
X57335Y-46500D01*
X57203Y-46554D01*
X57055Y-46702D01*
X56975Y-46895D01*
X56974Y-47103D01*
X57054Y-47297D01*
X57202Y-47444D01*
X57202Y-47444D01*
X57158Y-47461D01*
X57133Y-47478D01*
X57118Y-47604D01*
X57500Y-47985D01*
X57505Y-47980D01*
X57519Y-47994D01*
X57514Y-48000D01*
X57519Y-48005D01*
G36*
X58577Y-43625D02*
X58385Y-43704D01*
X58204Y-43885D01*
X58106Y-44121D01*
X58106Y-44377D01*
X58154Y-44494D01*
X57955Y-44294D01*
X57947Y-44290D01*
X58024Y-44104D01*
X58025Y-43896D01*
X57945Y-43703D01*
X57797Y-43555D01*
X57664Y-43499D01*
X57797Y-43445D01*
X57944Y-43297D01*
X58024Y-43104D01*
X58025Y-42896D01*
X57945Y-42703D01*
X57797Y-42555D01*
X57664Y-42499D01*
X57797Y-42445D01*
X57944Y-42297D01*
X58024Y-42104D01*
X58025Y-41896D01*
X57945Y-41703D01*
X57797Y-41555D01*
X57604Y-41475D01*
X57396Y-41474D01*
X57203Y-41554D01*
X57055Y-41702D01*
X56975Y-41895D01*
X56974Y-42103D01*
X57054Y-42297D01*
X57202Y-42444D01*
X57335Y-42500D01*
X57203Y-42554D01*
X57055Y-42702D01*
X56975Y-42895D01*
X56974Y-43103D01*
X57054Y-43297D01*
X57202Y-43444D01*
X57335Y-43500D01*
X57203Y-43554D01*
X57055Y-43702D01*
X56975Y-43895D01*
X56974Y-44103D01*
X57018Y-44210D01*
X56620Y-44210D01*
X56205Y-43794D01*
X56110Y-43732D01*
X56000Y-43710D01*
X54948Y-43710D01*
X54945Y-43703D01*
X54797Y-43555D01*
X54664Y-43499D01*
X54797Y-43445D01*
X54944Y-43297D01*
X55024Y-43104D01*
X55025Y-42896D01*
X54945Y-42703D01*
X54797Y-42555D01*
X54725Y-42525D01*
X54824Y-42525D01*
X54916Y-42486D01*
X54986Y-42416D01*
X55025Y-42324D01*
X55025Y-42225D01*
X55025Y-41675D01*
X54986Y-41583D01*
X54916Y-41513D01*
X54824Y-41475D01*
X54725Y-41475D01*
X54175Y-41475D01*
X54083Y-41513D01*
X54013Y-41583D01*
X53975Y-41675D01*
X53975Y-41774D01*
X53975Y-42114D01*
X53893Y-42196D01*
X53893Y-42122D01*
X53795Y-41885D01*
X53614Y-41704D01*
X53378Y-41606D01*
X53122Y-41606D01*
X52885Y-41704D01*
X52704Y-41885D01*
X52650Y-42016D01*
X52650Y-41847D01*
X52562Y-41760D01*
X49210Y-41760D01*
X49210Y-43912D01*
X49297Y-44000D01*
X49985Y-44000D01*
X50018Y-44032D01*
X49880Y-44062D01*
X49760Y-44332D01*
X49752Y-44628D01*
X49858Y-44904D01*
X49880Y-44937D01*
X50018Y-44967D01*
X50485Y-44500D01*
X50480Y-44494D01*
X50494Y-44480D01*
X50500Y-44485D01*
X50505Y-44480D01*
X50519Y-44494D01*
X50514Y-44500D01*
X50519Y-44505D01*
X50505Y-44519D01*
X50500Y-44514D01*
X50485Y-44528D01*
X50032Y-44981D01*
X50062Y-45119D01*
X50332Y-45239D01*
X50350Y-45239D01*
X49190Y-46399D01*
X49190Y-43912D01*
X49190Y-41760D01*
X45837Y-41760D01*
X45750Y-41847D01*
X45750Y-43580D01*
X45750Y-43719D01*
X45803Y-43848D01*
X45901Y-43946D01*
X46030Y-44000D01*
X46090Y-44000D01*
X45954Y-44135D01*
X45856Y-44371D01*
X45856Y-44627D01*
X45954Y-44864D01*
X46135Y-45045D01*
X46371Y-45143D01*
X46627Y-45143D01*
X46864Y-45045D01*
X47045Y-44864D01*
X47143Y-44628D01*
X47143Y-44372D01*
X47045Y-44135D01*
X46910Y-44000D01*
X49102Y-44000D01*
X49190Y-43912D01*
X49190Y-46399D01*
X49044Y-46544D01*
X48982Y-46639D01*
X48960Y-46750D01*
X48960Y-46996D01*
X48858Y-46954D01*
X48641Y-46954D01*
X48450Y-47033D01*
X48450Y-46890D01*
X48535Y-46855D01*
X48605Y-46785D01*
X48643Y-46693D01*
X48643Y-46593D01*
X48643Y-45806D01*
X48605Y-45714D01*
X48535Y-45644D01*
X48443Y-45606D01*
X48343Y-45606D01*
X47614Y-45606D01*
X47538Y-45408D01*
X47521Y-45383D01*
X47395Y-45368D01*
X47381Y-45382D01*
X47381Y-45354D01*
X47366Y-45228D01*
X47139Y-45128D01*
X46890Y-45122D01*
X46658Y-45211D01*
X46633Y-45228D01*
X46618Y-45354D01*
X47000Y-45735D01*
X47381Y-45354D01*
X47381Y-45382D01*
X47014Y-45750D01*
X47019Y-45755D01*
X47005Y-45769D01*
X47000Y-45764D01*
X46985Y-45778D01*
X46985Y-45750D01*
X46604Y-45368D01*
X46478Y-45383D01*
X46378Y-45610D01*
X46372Y-45859D01*
X46461Y-46091D01*
X46478Y-46116D01*
X46604Y-46131D01*
X46985Y-45750D01*
X46985Y-45778D01*
X46618Y-46145D01*
X46633Y-46271D01*
X46706Y-46303D01*
X46703Y-46304D01*
X46555Y-46452D01*
X46475Y-46645D01*
X46474Y-46853D01*
X46554Y-47047D01*
X46702Y-47194D01*
X46835Y-47250D01*
X46703Y-47304D01*
X46555Y-47452D01*
X46475Y-47645D01*
X46474Y-47853D01*
X46554Y-48047D01*
X46702Y-48194D01*
X46835Y-48250D01*
X46714Y-48300D01*
X46186Y-48300D01*
X45318Y-47431D01*
X45172Y-47334D01*
X45070Y-47314D01*
X45165Y-47172D01*
X45200Y-47000D01*
X45200Y-44545D01*
X45358Y-44545D01*
X45558Y-44462D01*
X45712Y-44309D01*
X45795Y-44108D01*
X45795Y-43891D01*
X45712Y-43691D01*
X45559Y-43537D01*
X45358Y-43454D01*
X45141Y-43454D01*
X44941Y-43537D01*
X44787Y-43690D01*
X44750Y-43781D01*
X44712Y-43691D01*
X44703Y-43682D01*
X44818Y-43568D01*
X44915Y-43422D01*
X44935Y-43322D01*
X45096Y-43290D01*
X45286Y-43163D01*
X45412Y-42973D01*
X45457Y-42750D01*
X45412Y-42526D01*
X45286Y-42336D01*
X45235Y-42302D01*
X45345Y-42226D01*
X45490Y-42002D01*
X45528Y-41866D01*
X45451Y-41760D01*
X44510Y-41760D01*
X44510Y-41767D01*
X44490Y-41767D01*
X44490Y-41760D01*
X44482Y-41760D01*
X44482Y-41740D01*
X44490Y-41740D01*
X44490Y-41732D01*
X44510Y-41732D01*
X44510Y-41740D01*
X45451Y-41740D01*
X45528Y-41633D01*
X45490Y-41497D01*
X45345Y-41273D01*
X45235Y-41197D01*
X45286Y-41163D01*
X45412Y-40973D01*
X45457Y-40750D01*
X45412Y-40526D01*
X45286Y-40336D01*
X45096Y-40209D01*
X44872Y-40165D01*
X44127Y-40165D01*
X43903Y-40209D01*
X43713Y-40336D01*
X43671Y-40400D01*
X43559Y-40287D01*
X43358Y-40204D01*
X43340Y-40204D01*
X42776Y-39639D01*
X45815Y-39639D01*
X45803Y-39651D01*
X45750Y-39780D01*
X45750Y-39919D01*
X45750Y-41652D01*
X45837Y-41740D01*
X49190Y-41740D01*
X49190Y-41732D01*
X49210Y-41732D01*
X49210Y-41740D01*
X52562Y-41740D01*
X52650Y-41652D01*
X52650Y-40824D01*
X52711Y-40886D01*
X52840Y-40940D01*
X53152Y-40940D01*
X53240Y-40852D01*
X53240Y-40260D01*
X53232Y-40260D01*
X53232Y-40240D01*
X53240Y-40240D01*
X53240Y-40232D01*
X53260Y-40232D01*
X53260Y-40240D01*
X53267Y-40240D01*
X53267Y-40260D01*
X53260Y-40260D01*
X53260Y-40852D01*
X53347Y-40940D01*
X53659Y-40940D01*
X53788Y-40886D01*
X53886Y-40788D01*
X53906Y-40740D01*
X53915Y-40749D01*
X54132Y-40839D01*
X54366Y-40840D01*
X54583Y-40750D01*
X54749Y-40584D01*
X54750Y-40584D01*
X54915Y-40749D01*
X55132Y-40839D01*
X55366Y-40840D01*
X55583Y-40750D01*
X55749Y-40584D01*
X55750Y-40584D01*
X55915Y-40749D01*
X56132Y-40839D01*
X56366Y-40840D01*
X56411Y-40821D01*
X56794Y-41205D01*
X56889Y-41267D01*
X56889Y-41267D01*
X57000Y-41290D01*
X58299Y-41290D01*
X58204Y-41385D01*
X58106Y-41621D01*
X58106Y-41877D01*
X58204Y-42114D01*
X58385Y-42295D01*
X58577Y-42375D01*
X58385Y-42454D01*
X58204Y-42635D01*
X58106Y-42871D01*
X58106Y-43127D01*
X58204Y-43364D01*
X58385Y-43545D01*
X58577Y-43625D01*
X58577Y-43625D01*
G37*
X58577Y-43625D02*
X58385Y-43704D01*
X58204Y-43885D01*
X58106Y-44121D01*
X58106Y-44377D01*
X58154Y-44494D01*
X57955Y-44294D01*
X57947Y-44290D01*
X58024Y-44104D01*
X58025Y-43896D01*
X57945Y-43703D01*
X57797Y-43555D01*
X57664Y-43499D01*
X57797Y-43445D01*
X57944Y-43297D01*
X58024Y-43104D01*
X58025Y-42896D01*
X57945Y-42703D01*
X57797Y-42555D01*
X57664Y-42499D01*
X57797Y-42445D01*
X57944Y-42297D01*
X58024Y-42104D01*
X58025Y-41896D01*
X57945Y-41703D01*
X57797Y-41555D01*
X57604Y-41475D01*
X57396Y-41474D01*
X57203Y-41554D01*
X57055Y-41702D01*
X56975Y-41895D01*
X56974Y-42103D01*
X57054Y-42297D01*
X57202Y-42444D01*
X57335Y-42500D01*
X57203Y-42554D01*
X57055Y-42702D01*
X56975Y-42895D01*
X56974Y-43103D01*
X57054Y-43297D01*
X57202Y-43444D01*
X57335Y-43500D01*
X57203Y-43554D01*
X57055Y-43702D01*
X56975Y-43895D01*
X56974Y-44103D01*
X57018Y-44210D01*
X56620Y-44210D01*
X56205Y-43794D01*
X56110Y-43732D01*
X56000Y-43710D01*
X54948Y-43710D01*
X54945Y-43703D01*
X54797Y-43555D01*
X54664Y-43499D01*
X54797Y-43445D01*
X54944Y-43297D01*
X55024Y-43104D01*
X55025Y-42896D01*
X54945Y-42703D01*
X54797Y-42555D01*
X54725Y-42525D01*
X54824Y-42525D01*
X54916Y-42486D01*
X54986Y-42416D01*
X55025Y-42324D01*
X55025Y-42225D01*
X55025Y-41675D01*
X54986Y-41583D01*
X54916Y-41513D01*
X54824Y-41475D01*
X54725Y-41475D01*
X54175Y-41475D01*
X54083Y-41513D01*
X54013Y-41583D01*
X53975Y-41675D01*
X53975Y-41774D01*
X53975Y-42114D01*
X53893Y-42196D01*
X53893Y-42122D01*
X53795Y-41885D01*
X53614Y-41704D01*
X53378Y-41606D01*
X53122Y-41606D01*
X52885Y-41704D01*
X52704Y-41885D01*
X52650Y-42016D01*
X52650Y-41847D01*
X52562Y-41760D01*
X49210Y-41760D01*
X49210Y-43912D01*
X49297Y-44000D01*
X49985Y-44000D01*
X50018Y-44032D01*
X49880Y-44062D01*
X49760Y-44332D01*
X49752Y-44628D01*
X49858Y-44904D01*
X49880Y-44937D01*
X50018Y-44967D01*
X50485Y-44500D01*
X50480Y-44494D01*
X50494Y-44480D01*
X50500Y-44485D01*
X50505Y-44480D01*
X50519Y-44494D01*
X50514Y-44500D01*
X50519Y-44505D01*
X50505Y-44519D01*
X50500Y-44514D01*
X50485Y-44528D01*
X50032Y-44981D01*
X50062Y-45119D01*
X50332Y-45239D01*
X50350Y-45239D01*
X49190Y-46399D01*
X49190Y-43912D01*
X49190Y-41760D01*
X45837Y-41760D01*
X45750Y-41847D01*
X45750Y-43580D01*
X45750Y-43719D01*
X45803Y-43848D01*
X45901Y-43946D01*
X46030Y-44000D01*
X46090Y-44000D01*
X45954Y-44135D01*
X45856Y-44371D01*
X45856Y-44627D01*
X45954Y-44864D01*
X46135Y-45045D01*
X46371Y-45143D01*
X46627Y-45143D01*
X46864Y-45045D01*
X47045Y-44864D01*
X47143Y-44628D01*
X47143Y-44372D01*
X47045Y-44135D01*
X46910Y-44000D01*
X49102Y-44000D01*
X49190Y-43912D01*
X49190Y-46399D01*
X49044Y-46544D01*
X48982Y-46639D01*
X48960Y-46750D01*
X48960Y-46996D01*
X48858Y-46954D01*
X48641Y-46954D01*
X48450Y-47033D01*
X48450Y-46890D01*
X48535Y-46855D01*
X48605Y-46785D01*
X48643Y-46693D01*
X48643Y-46593D01*
X48643Y-45806D01*
X48605Y-45714D01*
X48535Y-45644D01*
X48443Y-45606D01*
X48343Y-45606D01*
X47614Y-45606D01*
X47538Y-45408D01*
X47521Y-45383D01*
X47395Y-45368D01*
X47381Y-45382D01*
X47381Y-45354D01*
X47366Y-45228D01*
X47139Y-45128D01*
X46890Y-45122D01*
X46658Y-45211D01*
X46633Y-45228D01*
X46618Y-45354D01*
X47000Y-45735D01*
X47381Y-45354D01*
X47381Y-45382D01*
X47014Y-45750D01*
X47019Y-45755D01*
X47005Y-45769D01*
X47000Y-45764D01*
X46985Y-45778D01*
X46985Y-45750D01*
X46604Y-45368D01*
X46478Y-45383D01*
X46378Y-45610D01*
X46372Y-45859D01*
X46461Y-46091D01*
X46478Y-46116D01*
X46604Y-46131D01*
X46985Y-45750D01*
X46985Y-45778D01*
X46618Y-46145D01*
X46633Y-46271D01*
X46706Y-46303D01*
X46703Y-46304D01*
X46555Y-46452D01*
X46475Y-46645D01*
X46474Y-46853D01*
X46554Y-47047D01*
X46702Y-47194D01*
X46835Y-47250D01*
X46703Y-47304D01*
X46555Y-47452D01*
X46475Y-47645D01*
X46474Y-47853D01*
X46554Y-48047D01*
X46702Y-48194D01*
X46835Y-48250D01*
X46714Y-48300D01*
X46186Y-48300D01*
X45318Y-47431D01*
X45172Y-47334D01*
X45070Y-47314D01*
X45165Y-47172D01*
X45200Y-47000D01*
X45200Y-44545D01*
X45358Y-44545D01*
X45558Y-44462D01*
X45712Y-44309D01*
X45795Y-44108D01*
X45795Y-43891D01*
X45712Y-43691D01*
X45559Y-43537D01*
X45358Y-43454D01*
X45141Y-43454D01*
X44941Y-43537D01*
X44787Y-43690D01*
X44750Y-43781D01*
X44712Y-43691D01*
X44703Y-43682D01*
X44818Y-43568D01*
X44915Y-43422D01*
X44935Y-43322D01*
X45096Y-43290D01*
X45286Y-43163D01*
X45412Y-42973D01*
X45457Y-42750D01*
X45412Y-42526D01*
X45286Y-42336D01*
X45235Y-42302D01*
X45345Y-42226D01*
X45490Y-42002D01*
X45528Y-41866D01*
X45451Y-41760D01*
X44510Y-41760D01*
X44510Y-41767D01*
X44490Y-41767D01*
X44490Y-41760D01*
X44482Y-41760D01*
X44482Y-41740D01*
X44490Y-41740D01*
X44490Y-41732D01*
X44510Y-41732D01*
X44510Y-41740D01*
X45451Y-41740D01*
X45528Y-41633D01*
X45490Y-41497D01*
X45345Y-41273D01*
X45235Y-41197D01*
X45286Y-41163D01*
X45412Y-40973D01*
X45457Y-40750D01*
X45412Y-40526D01*
X45286Y-40336D01*
X45096Y-40209D01*
X44872Y-40165D01*
X44127Y-40165D01*
X43903Y-40209D01*
X43713Y-40336D01*
X43671Y-40400D01*
X43559Y-40287D01*
X43358Y-40204D01*
X43340Y-40204D01*
X42776Y-39639D01*
X45815Y-39639D01*
X45803Y-39651D01*
X45750Y-39780D01*
X45750Y-39919D01*
X45750Y-41652D01*
X45837Y-41740D01*
X49190Y-41740D01*
X49190Y-41732D01*
X49210Y-41732D01*
X49210Y-41740D01*
X52562Y-41740D01*
X52650Y-41652D01*
X52650Y-40824D01*
X52711Y-40886D01*
X52840Y-40940D01*
X53152Y-40940D01*
X53240Y-40852D01*
X53240Y-40260D01*
X53232Y-40260D01*
X53232Y-40240D01*
X53240Y-40240D01*
X53240Y-40232D01*
X53260Y-40232D01*
X53260Y-40240D01*
X53267Y-40240D01*
X53267Y-40260D01*
X53260Y-40260D01*
X53260Y-40852D01*
X53347Y-40940D01*
X53659Y-40940D01*
X53788Y-40886D01*
X53886Y-40788D01*
X53906Y-40740D01*
X53915Y-40749D01*
X54132Y-40839D01*
X54366Y-40840D01*
X54583Y-40750D01*
X54749Y-40584D01*
X54750Y-40584D01*
X54915Y-40749D01*
X55132Y-40839D01*
X55366Y-40840D01*
X55583Y-40750D01*
X55749Y-40584D01*
X55750Y-40584D01*
X55915Y-40749D01*
X56132Y-40839D01*
X56366Y-40840D01*
X56411Y-40821D01*
X56794Y-41205D01*
X56889Y-41267D01*
X56889Y-41267D01*
X57000Y-41290D01*
X58299Y-41290D01*
X58204Y-41385D01*
X58106Y-41621D01*
X58106Y-41877D01*
X58204Y-42114D01*
X58385Y-42295D01*
X58577Y-42375D01*
X58385Y-42454D01*
X58204Y-42635D01*
X58106Y-42871D01*
X58106Y-43127D01*
X58204Y-43364D01*
X58385Y-43545D01*
X58577Y-43625D01*
G36*
X58769Y-54255D02*
X58755Y-54269D01*
X58750Y-54264D01*
X58282Y-54731D01*
X58312Y-54869D01*
X58446Y-54928D01*
X58385Y-54954D01*
X58204Y-55135D01*
X58106Y-55371D01*
X58106Y-55627D01*
X58204Y-55864D01*
X58299Y-55960D01*
X57870Y-55960D01*
X57435Y-55524D01*
X57603Y-55525D01*
X57797Y-55445D01*
X57944Y-55297D01*
X58024Y-55104D01*
X58025Y-54896D01*
X57945Y-54703D01*
X57797Y-54555D01*
X57664Y-54499D01*
X57797Y-54445D01*
X57944Y-54297D01*
X58009Y-54143D01*
X58002Y-54378D01*
X58108Y-54654D01*
X58130Y-54687D01*
X58268Y-54717D01*
X58735Y-54250D01*
X58268Y-53782D01*
X58130Y-53812D01*
X58024Y-54050D01*
X58025Y-53896D01*
X57945Y-53703D01*
X57797Y-53555D01*
X57664Y-53499D01*
X57797Y-53445D01*
X57944Y-53297D01*
X58024Y-53104D01*
X58025Y-52896D01*
X57945Y-52703D01*
X57797Y-52555D01*
X57664Y-52499D01*
X57797Y-52445D01*
X57944Y-52297D01*
X58024Y-52104D01*
X58025Y-51936D01*
X58108Y-52154D01*
X58130Y-52187D01*
X58268Y-52217D01*
X58735Y-51750D01*
X58268Y-51282D01*
X58130Y-51312D01*
X58010Y-51582D01*
X58003Y-51844D01*
X57945Y-51703D01*
X57797Y-51555D01*
X57664Y-51499D01*
X57797Y-51445D01*
X57944Y-51297D01*
X58024Y-51104D01*
X58025Y-50896D01*
X57945Y-50703D01*
X57797Y-50555D01*
X57664Y-50499D01*
X57797Y-50445D01*
X57944Y-50297D01*
X58001Y-50161D01*
X58137Y-50297D01*
X58106Y-50371D01*
X58106Y-50627D01*
X58204Y-50864D01*
X58385Y-51045D01*
X58445Y-51070D01*
X58345Y-51108D01*
X58312Y-51130D01*
X58282Y-51268D01*
X58750Y-51735D01*
X58755Y-51730D01*
X58769Y-51744D01*
X58764Y-51750D01*
X58769Y-51755D01*
X58755Y-51769D01*
X58750Y-51764D01*
X58282Y-52231D01*
X58312Y-52369D01*
X58446Y-52428D01*
X58385Y-52454D01*
X58204Y-52635D01*
X58106Y-52871D01*
X58106Y-53127D01*
X58204Y-53364D01*
X58385Y-53545D01*
X58445Y-53570D01*
X58345Y-53608D01*
X58312Y-53630D01*
X58282Y-53768D01*
X58750Y-54235D01*
X58755Y-54230D01*
X58769Y-54244D01*
X58764Y-54250D01*
X58769Y-54255D01*
X58769Y-54255D01*
G37*
X58769Y-54255D02*
X58755Y-54269D01*
X58750Y-54264D01*
X58282Y-54731D01*
X58312Y-54869D01*
X58446Y-54928D01*
X58385Y-54954D01*
X58204Y-55135D01*
X58106Y-55371D01*
X58106Y-55627D01*
X58204Y-55864D01*
X58299Y-55960D01*
X57870Y-55960D01*
X57435Y-55524D01*
X57603Y-55525D01*
X57797Y-55445D01*
X57944Y-55297D01*
X58024Y-55104D01*
X58025Y-54896D01*
X57945Y-54703D01*
X57797Y-54555D01*
X57664Y-54499D01*
X57797Y-54445D01*
X57944Y-54297D01*
X58009Y-54143D01*
X58002Y-54378D01*
X58108Y-54654D01*
X58130Y-54687D01*
X58268Y-54717D01*
X58735Y-54250D01*
X58268Y-53782D01*
X58130Y-53812D01*
X58024Y-54050D01*
X58025Y-53896D01*
X57945Y-53703D01*
X57797Y-53555D01*
X57664Y-53499D01*
X57797Y-53445D01*
X57944Y-53297D01*
X58024Y-53104D01*
X58025Y-52896D01*
X57945Y-52703D01*
X57797Y-52555D01*
X57664Y-52499D01*
X57797Y-52445D01*
X57944Y-52297D01*
X58024Y-52104D01*
X58025Y-51936D01*
X58108Y-52154D01*
X58130Y-52187D01*
X58268Y-52217D01*
X58735Y-51750D01*
X58268Y-51282D01*
X58130Y-51312D01*
X58010Y-51582D01*
X58003Y-51844D01*
X57945Y-51703D01*
X57797Y-51555D01*
X57664Y-51499D01*
X57797Y-51445D01*
X57944Y-51297D01*
X58024Y-51104D01*
X58025Y-50896D01*
X57945Y-50703D01*
X57797Y-50555D01*
X57664Y-50499D01*
X57797Y-50445D01*
X57944Y-50297D01*
X58001Y-50161D01*
X58137Y-50297D01*
X58106Y-50371D01*
X58106Y-50627D01*
X58204Y-50864D01*
X58385Y-51045D01*
X58445Y-51070D01*
X58345Y-51108D01*
X58312Y-51130D01*
X58282Y-51268D01*
X58750Y-51735D01*
X58755Y-51730D01*
X58769Y-51744D01*
X58764Y-51750D01*
X58769Y-51755D01*
X58755Y-51769D01*
X58750Y-51764D01*
X58282Y-52231D01*
X58312Y-52369D01*
X58446Y-52428D01*
X58385Y-52454D01*
X58204Y-52635D01*
X58106Y-52871D01*
X58106Y-53127D01*
X58204Y-53364D01*
X58385Y-53545D01*
X58445Y-53570D01*
X58345Y-53608D01*
X58312Y-53630D01*
X58282Y-53768D01*
X58750Y-54235D01*
X58755Y-54230D01*
X58769Y-54244D01*
X58764Y-54250D01*
X58769Y-54255D01*
G36*
X59960Y-48637D02*
X59893Y-48607D01*
X59637Y-48601D01*
X59397Y-48694D01*
X59371Y-48711D01*
X59353Y-48839D01*
X59750Y-49235D01*
X59755Y-49230D01*
X59769Y-49244D01*
X59764Y-49250D01*
X59769Y-49255D01*
X59755Y-49269D01*
X59750Y-49264D01*
X59744Y-49269D01*
X59730Y-49255D01*
X59735Y-49250D01*
X59339Y-48853D01*
X59211Y-48871D01*
X59190Y-48919D01*
X59059Y-48787D01*
X58858Y-48704D01*
X58641Y-48704D01*
X58441Y-48787D01*
X58290Y-48938D01*
X58290Y-48450D01*
X58385Y-48545D01*
X58621Y-48643D01*
X58877Y-48643D01*
X59114Y-48545D01*
X59295Y-48364D01*
X59393Y-48128D01*
X59393Y-47872D01*
X59295Y-47635D01*
X59114Y-47454D01*
X58922Y-47374D01*
X59114Y-47295D01*
X59295Y-47114D01*
X59393Y-46878D01*
X59393Y-46622D01*
X59295Y-46385D01*
X59114Y-46204D01*
X58922Y-46124D01*
X59114Y-46045D01*
X59295Y-45864D01*
X59393Y-45628D01*
X59393Y-45372D01*
X59295Y-45135D01*
X59114Y-44954D01*
X58922Y-44874D01*
X59114Y-44795D01*
X59295Y-44614D01*
X59393Y-44378D01*
X59393Y-44122D01*
X59295Y-43885D01*
X59114Y-43704D01*
X58922Y-43624D01*
X59114Y-43545D01*
X59295Y-43364D01*
X59393Y-43128D01*
X59393Y-42872D01*
X59345Y-42755D01*
X59960Y-43370D01*
X59960Y-48637D01*
X59960Y-48637D01*
G37*
X59960Y-48637D02*
X59893Y-48607D01*
X59637Y-48601D01*
X59397Y-48694D01*
X59371Y-48711D01*
X59353Y-48839D01*
X59750Y-49235D01*
X59755Y-49230D01*
X59769Y-49244D01*
X59764Y-49250D01*
X59769Y-49255D01*
X59755Y-49269D01*
X59750Y-49264D01*
X59744Y-49269D01*
X59730Y-49255D01*
X59735Y-49250D01*
X59339Y-48853D01*
X59211Y-48871D01*
X59190Y-48919D01*
X59059Y-48787D01*
X58858Y-48704D01*
X58641Y-48704D01*
X58441Y-48787D01*
X58290Y-48938D01*
X58290Y-48450D01*
X58385Y-48545D01*
X58621Y-48643D01*
X58877Y-48643D01*
X59114Y-48545D01*
X59295Y-48364D01*
X59393Y-48128D01*
X59393Y-47872D01*
X59295Y-47635D01*
X59114Y-47454D01*
X58922Y-47374D01*
X59114Y-47295D01*
X59295Y-47114D01*
X59393Y-46878D01*
X59393Y-46622D01*
X59295Y-46385D01*
X59114Y-46204D01*
X58922Y-46124D01*
X59114Y-46045D01*
X59295Y-45864D01*
X59393Y-45628D01*
X59393Y-45372D01*
X59295Y-45135D01*
X59114Y-44954D01*
X58922Y-44874D01*
X59114Y-44795D01*
X59295Y-44614D01*
X59393Y-44378D01*
X59393Y-44122D01*
X59295Y-43885D01*
X59114Y-43704D01*
X58922Y-43624D01*
X59114Y-43545D01*
X59295Y-43364D01*
X59393Y-43128D01*
X59393Y-42872D01*
X59345Y-42755D01*
X59960Y-43370D01*
X59960Y-48637D01*
G36*
X63739Y-39639D02*
X63725Y-39675D01*
X63725Y-39774D01*
X63725Y-40114D01*
X63507Y-40331D01*
X63436Y-40260D01*
X62790Y-40260D01*
X62790Y-40906D01*
X62861Y-40977D01*
X62770Y-41069D01*
X62770Y-40906D01*
X62770Y-40260D01*
X62124Y-40260D01*
X62036Y-40347D01*
X62036Y-40573D01*
X62036Y-40713D01*
X62089Y-40841D01*
X62188Y-40940D01*
X62316Y-40993D01*
X62682Y-40993D01*
X62770Y-40906D01*
X62770Y-41069D01*
X62733Y-41106D01*
X62622Y-41106D01*
X62385Y-41204D01*
X62204Y-41385D01*
X62106Y-41621D01*
X62106Y-41877D01*
X62204Y-42114D01*
X62385Y-42295D01*
X62577Y-42375D01*
X62385Y-42454D01*
X62204Y-42635D01*
X62106Y-42871D01*
X62106Y-42946D01*
X60026Y-40866D01*
X60091Y-40893D01*
X60347Y-40893D01*
X60584Y-40795D01*
X60765Y-40614D01*
X60863Y-40378D01*
X60863Y-40122D01*
X60765Y-39885D01*
X60584Y-39704D01*
X60428Y-39639D01*
X62108Y-39639D01*
X62089Y-39658D01*
X62036Y-39786D01*
X62036Y-39926D01*
X62036Y-40152D01*
X62124Y-40240D01*
X62770Y-40240D01*
X62770Y-40232D01*
X62790Y-40232D01*
X62790Y-40240D01*
X63436Y-40240D01*
X63523Y-40152D01*
X63523Y-39926D01*
X63523Y-39786D01*
X63470Y-39658D01*
X63451Y-39639D01*
X63739Y-39639D01*
X63739Y-39639D01*
G37*
X63739Y-39639D02*
X63725Y-39675D01*
X63725Y-39774D01*
X63725Y-40114D01*
X63507Y-40331D01*
X63436Y-40260D01*
X62790Y-40260D01*
X62790Y-40906D01*
X62861Y-40977D01*
X62770Y-41069D01*
X62770Y-40906D01*
X62770Y-40260D01*
X62124Y-40260D01*
X62036Y-40347D01*
X62036Y-40573D01*
X62036Y-40713D01*
X62089Y-40841D01*
X62188Y-40940D01*
X62316Y-40993D01*
X62682Y-40993D01*
X62770Y-40906D01*
X62770Y-41069D01*
X62733Y-41106D01*
X62622Y-41106D01*
X62385Y-41204D01*
X62204Y-41385D01*
X62106Y-41621D01*
X62106Y-41877D01*
X62204Y-42114D01*
X62385Y-42295D01*
X62577Y-42375D01*
X62385Y-42454D01*
X62204Y-42635D01*
X62106Y-42871D01*
X62106Y-42946D01*
X60026Y-40866D01*
X60091Y-40893D01*
X60347Y-40893D01*
X60584Y-40795D01*
X60765Y-40614D01*
X60863Y-40378D01*
X60863Y-40122D01*
X60765Y-39885D01*
X60584Y-39704D01*
X60428Y-39639D01*
X62108Y-39639D01*
X62089Y-39658D01*
X62036Y-39786D01*
X62036Y-39926D01*
X62036Y-40152D01*
X62124Y-40240D01*
X62770Y-40240D01*
X62770Y-40232D01*
X62790Y-40232D01*
X62790Y-40240D01*
X63436Y-40240D01*
X63523Y-40152D01*
X63523Y-39926D01*
X63523Y-39786D01*
X63470Y-39658D01*
X63451Y-39639D01*
X63739Y-39639D01*
G36*
X65200Y-53039D02*
X65114Y-52954D01*
X64878Y-52856D01*
X64877Y-52856D01*
X64877Y-52140D01*
X64877Y-50140D01*
X64877Y-47640D01*
X64877Y-45640D01*
X64877Y-42890D01*
X64877Y-40890D01*
X64788Y-40658D01*
X64771Y-40633D01*
X64645Y-40618D01*
X64264Y-41000D01*
X64645Y-41381D01*
X64771Y-41366D01*
X64871Y-41139D01*
X64877Y-40890D01*
X64877Y-42890D01*
X64788Y-42658D01*
X64771Y-42633D01*
X64645Y-42618D01*
X64264Y-43000D01*
X64645Y-43381D01*
X64771Y-43366D01*
X64871Y-43139D01*
X64877Y-42890D01*
X64877Y-45640D01*
X64788Y-45408D01*
X64771Y-45383D01*
X64645Y-45368D01*
X64264Y-45750D01*
X64645Y-46131D01*
X64771Y-46116D01*
X64871Y-45889D01*
X64877Y-45640D01*
X64877Y-47640D01*
X64788Y-47408D01*
X64771Y-47383D01*
X64645Y-47368D01*
X64264Y-47750D01*
X64645Y-48131D01*
X64771Y-48116D01*
X64871Y-47889D01*
X64877Y-47640D01*
X64877Y-50140D01*
X64788Y-49908D01*
X64771Y-49883D01*
X64645Y-49868D01*
X64264Y-50250D01*
X64645Y-50631D01*
X64771Y-50616D01*
X64871Y-50389D01*
X64877Y-50140D01*
X64877Y-52140D01*
X64788Y-51908D01*
X64771Y-51883D01*
X64645Y-51868D01*
X64264Y-52250D01*
X64645Y-52631D01*
X64771Y-52616D01*
X64871Y-52389D01*
X64877Y-52140D01*
X64877Y-52856D01*
X64622Y-52856D01*
X64547Y-52887D01*
X64488Y-52828D01*
X64591Y-52788D01*
X64616Y-52771D01*
X64631Y-52645D01*
X64250Y-52264D01*
X64244Y-52269D01*
X64230Y-52255D01*
X64235Y-52250D01*
X63854Y-51868D01*
X63790Y-51876D01*
X63790Y-51511D01*
X63804Y-51547D01*
X63952Y-51694D01*
X63952Y-51694D01*
X63908Y-51711D01*
X63883Y-51728D01*
X63868Y-51854D01*
X64250Y-52235D01*
X64631Y-51854D01*
X64616Y-51728D01*
X64543Y-51696D01*
X64547Y-51695D01*
X64694Y-51547D01*
X64774Y-51354D01*
X64775Y-51146D01*
X64695Y-50953D01*
X64547Y-50805D01*
X64547Y-50805D01*
X64591Y-50788D01*
X64616Y-50771D01*
X64631Y-50645D01*
X64250Y-50264D01*
X64244Y-50269D01*
X64230Y-50255D01*
X64235Y-50250D01*
X64230Y-50244D01*
X64244Y-50230D01*
X64250Y-50235D01*
X64631Y-49854D01*
X64619Y-49756D01*
X64666Y-49736D01*
X64736Y-49666D01*
X64775Y-49574D01*
X64775Y-49475D01*
X64775Y-48925D01*
X64736Y-48833D01*
X64666Y-48763D01*
X64574Y-48725D01*
X64535Y-48725D01*
X64517Y-48639D01*
X64517Y-48639D01*
X64455Y-48544D01*
X64286Y-48376D01*
X64359Y-48377D01*
X64591Y-48288D01*
X64616Y-48271D01*
X64631Y-48145D01*
X64250Y-47764D01*
X64244Y-47769D01*
X64230Y-47755D01*
X64235Y-47750D01*
X63854Y-47368D01*
X63761Y-47379D01*
X63705Y-47294D01*
X63362Y-46952D01*
X63393Y-46878D01*
X63393Y-46622D01*
X63345Y-46505D01*
X63746Y-46906D01*
X63804Y-47047D01*
X63952Y-47194D01*
X63952Y-47194D01*
X63908Y-47211D01*
X63883Y-47228D01*
X63868Y-47354D01*
X64250Y-47735D01*
X64631Y-47354D01*
X64616Y-47228D01*
X64543Y-47196D01*
X64547Y-47195D01*
X64694Y-47047D01*
X64774Y-46854D01*
X64775Y-46646D01*
X64695Y-46453D01*
X64547Y-46305D01*
X64547Y-46305D01*
X64591Y-46288D01*
X64616Y-46271D01*
X64631Y-46145D01*
X64250Y-45764D01*
X64244Y-45769D01*
X64230Y-45755D01*
X64235Y-45750D01*
X63854Y-45368D01*
X63728Y-45383D01*
X63628Y-45610D01*
X63622Y-45859D01*
X63686Y-46026D01*
X63362Y-45702D01*
X63393Y-45628D01*
X63393Y-45372D01*
X63295Y-45135D01*
X63187Y-45027D01*
X63250Y-45040D01*
X63725Y-45040D01*
X63725Y-45074D01*
X63763Y-45166D01*
X63833Y-45236D01*
X63880Y-45256D01*
X63868Y-45354D01*
X64250Y-45735D01*
X64631Y-45354D01*
X64619Y-45256D01*
X64666Y-45236D01*
X64736Y-45166D01*
X64775Y-45074D01*
X64775Y-44975D01*
X64775Y-44425D01*
X64736Y-44333D01*
X64666Y-44263D01*
X64631Y-44248D01*
X64631Y-43395D01*
X64250Y-43014D01*
X63868Y-43395D01*
X63883Y-43521D01*
X64110Y-43621D01*
X64359Y-43627D01*
X64591Y-43538D01*
X64616Y-43521D01*
X64631Y-43395D01*
X64631Y-44248D01*
X64574Y-44225D01*
X64475Y-44225D01*
X63925Y-44225D01*
X63833Y-44263D01*
X63763Y-44333D01*
X63725Y-44425D01*
X63725Y-44460D01*
X63370Y-44460D01*
X63362Y-44452D01*
X63393Y-44378D01*
X63393Y-44122D01*
X63295Y-43885D01*
X63114Y-43704D01*
X62922Y-43624D01*
X63114Y-43545D01*
X63295Y-43364D01*
X63333Y-43273D01*
X63360Y-43267D01*
X63455Y-43205D01*
X63623Y-43036D01*
X63622Y-43109D01*
X63711Y-43341D01*
X63728Y-43366D01*
X63854Y-43381D01*
X64235Y-43000D01*
X64230Y-42994D01*
X64244Y-42980D01*
X64250Y-42985D01*
X64631Y-42604D01*
X64616Y-42478D01*
X64543Y-42446D01*
X64547Y-42445D01*
X64694Y-42297D01*
X64774Y-42104D01*
X64775Y-41896D01*
X64695Y-41703D01*
X64547Y-41555D01*
X64547Y-41555D01*
X64591Y-41538D01*
X64616Y-41521D01*
X64631Y-41395D01*
X64250Y-41014D01*
X63868Y-41395D01*
X63883Y-41521D01*
X63956Y-41553D01*
X63953Y-41554D01*
X63805Y-41702D01*
X63725Y-41895D01*
X63724Y-42103D01*
X63728Y-42111D01*
X63249Y-42589D01*
X63114Y-42454D01*
X62922Y-42374D01*
X63114Y-42295D01*
X63295Y-42114D01*
X63393Y-41878D01*
X63393Y-41622D01*
X63295Y-41385D01*
X63285Y-41375D01*
X63623Y-41036D01*
X63622Y-41109D01*
X63711Y-41341D01*
X63728Y-41366D01*
X63854Y-41381D01*
X64235Y-41000D01*
X64230Y-40994D01*
X64244Y-40980D01*
X64250Y-40985D01*
X64631Y-40604D01*
X64619Y-40506D01*
X64666Y-40486D01*
X64736Y-40416D01*
X64775Y-40324D01*
X64775Y-40225D01*
X64775Y-39675D01*
X64760Y-39639D01*
X65200Y-39639D01*
X65200Y-53039D01*
X65200Y-53039D01*
G37*
X65200Y-53039D02*
X65114Y-52954D01*
X64878Y-52856D01*
X64877Y-52856D01*
X64877Y-52140D01*
X64877Y-50140D01*
X64877Y-47640D01*
X64877Y-45640D01*
X64877Y-42890D01*
X64877Y-40890D01*
X64788Y-40658D01*
X64771Y-40633D01*
X64645Y-40618D01*
X64264Y-41000D01*
X64645Y-41381D01*
X64771Y-41366D01*
X64871Y-41139D01*
X64877Y-40890D01*
X64877Y-42890D01*
X64788Y-42658D01*
X64771Y-42633D01*
X64645Y-42618D01*
X64264Y-43000D01*
X64645Y-43381D01*
X64771Y-43366D01*
X64871Y-43139D01*
X64877Y-42890D01*
X64877Y-45640D01*
X64788Y-45408D01*
X64771Y-45383D01*
X64645Y-45368D01*
X64264Y-45750D01*
X64645Y-46131D01*
X64771Y-46116D01*
X64871Y-45889D01*
X64877Y-45640D01*
X64877Y-47640D01*
X64788Y-47408D01*
X64771Y-47383D01*
X64645Y-47368D01*
X64264Y-47750D01*
X64645Y-48131D01*
X64771Y-48116D01*
X64871Y-47889D01*
X64877Y-47640D01*
X64877Y-50140D01*
X64788Y-49908D01*
X64771Y-49883D01*
X64645Y-49868D01*
X64264Y-50250D01*
X64645Y-50631D01*
X64771Y-50616D01*
X64871Y-50389D01*
X64877Y-50140D01*
X64877Y-52140D01*
X64788Y-51908D01*
X64771Y-51883D01*
X64645Y-51868D01*
X64264Y-52250D01*
X64645Y-52631D01*
X64771Y-52616D01*
X64871Y-52389D01*
X64877Y-52140D01*
X64877Y-52856D01*
X64622Y-52856D01*
X64547Y-52887D01*
X64488Y-52828D01*
X64591Y-52788D01*
X64616Y-52771D01*
X64631Y-52645D01*
X64250Y-52264D01*
X64244Y-52269D01*
X64230Y-52255D01*
X64235Y-52250D01*
X63854Y-51868D01*
X63790Y-51876D01*
X63790Y-51511D01*
X63804Y-51547D01*
X63952Y-51694D01*
X63952Y-51694D01*
X63908Y-51711D01*
X63883Y-51728D01*
X63868Y-51854D01*
X64250Y-52235D01*
X64631Y-51854D01*
X64616Y-51728D01*
X64543Y-51696D01*
X64547Y-51695D01*
X64694Y-51547D01*
X64774Y-51354D01*
X64775Y-51146D01*
X64695Y-50953D01*
X64547Y-50805D01*
X64547Y-50805D01*
X64591Y-50788D01*
X64616Y-50771D01*
X64631Y-50645D01*
X64250Y-50264D01*
X64244Y-50269D01*
X64230Y-50255D01*
X64235Y-50250D01*
X64230Y-50244D01*
X64244Y-50230D01*
X64250Y-50235D01*
X64631Y-49854D01*
X64619Y-49756D01*
X64666Y-49736D01*
X64736Y-49666D01*
X64775Y-49574D01*
X64775Y-49475D01*
X64775Y-48925D01*
X64736Y-48833D01*
X64666Y-48763D01*
X64574Y-48725D01*
X64535Y-48725D01*
X64517Y-48639D01*
X64517Y-48639D01*
X64455Y-48544D01*
X64286Y-48376D01*
X64359Y-48377D01*
X64591Y-48288D01*
X64616Y-48271D01*
X64631Y-48145D01*
X64250Y-47764D01*
X64244Y-47769D01*
X64230Y-47755D01*
X64235Y-47750D01*
X63854Y-47368D01*
X63761Y-47379D01*
X63705Y-47294D01*
X63362Y-46952D01*
X63393Y-46878D01*
X63393Y-46622D01*
X63345Y-46505D01*
X63746Y-46906D01*
X63804Y-47047D01*
X63952Y-47194D01*
X63952Y-47194D01*
X63908Y-47211D01*
X63883Y-47228D01*
X63868Y-47354D01*
X64250Y-47735D01*
X64631Y-47354D01*
X64616Y-47228D01*
X64543Y-47196D01*
X64547Y-47195D01*
X64694Y-47047D01*
X64774Y-46854D01*
X64775Y-46646D01*
X64695Y-46453D01*
X64547Y-46305D01*
X64547Y-46305D01*
X64591Y-46288D01*
X64616Y-46271D01*
X64631Y-46145D01*
X64250Y-45764D01*
X64244Y-45769D01*
X64230Y-45755D01*
X64235Y-45750D01*
X63854Y-45368D01*
X63728Y-45383D01*
X63628Y-45610D01*
X63622Y-45859D01*
X63686Y-46026D01*
X63362Y-45702D01*
X63393Y-45628D01*
X63393Y-45372D01*
X63295Y-45135D01*
X63187Y-45027D01*
X63250Y-45040D01*
X63725Y-45040D01*
X63725Y-45074D01*
X63763Y-45166D01*
X63833Y-45236D01*
X63880Y-45256D01*
X63868Y-45354D01*
X64250Y-45735D01*
X64631Y-45354D01*
X64619Y-45256D01*
X64666Y-45236D01*
X64736Y-45166D01*
X64775Y-45074D01*
X64775Y-44975D01*
X64775Y-44425D01*
X64736Y-44333D01*
X64666Y-44263D01*
X64631Y-44248D01*
X64631Y-43395D01*
X64250Y-43014D01*
X63868Y-43395D01*
X63883Y-43521D01*
X64110Y-43621D01*
X64359Y-43627D01*
X64591Y-43538D01*
X64616Y-43521D01*
X64631Y-43395D01*
X64631Y-44248D01*
X64574Y-44225D01*
X64475Y-44225D01*
X63925Y-44225D01*
X63833Y-44263D01*
X63763Y-44333D01*
X63725Y-44425D01*
X63725Y-44460D01*
X63370Y-44460D01*
X63362Y-44452D01*
X63393Y-44378D01*
X63393Y-44122D01*
X63295Y-43885D01*
X63114Y-43704D01*
X62922Y-43624D01*
X63114Y-43545D01*
X63295Y-43364D01*
X63333Y-43273D01*
X63360Y-43267D01*
X63455Y-43205D01*
X63623Y-43036D01*
X63622Y-43109D01*
X63711Y-43341D01*
X63728Y-43366D01*
X63854Y-43381D01*
X64235Y-43000D01*
X64230Y-42994D01*
X64244Y-42980D01*
X64250Y-42985D01*
X64631Y-42604D01*
X64616Y-42478D01*
X64543Y-42446D01*
X64547Y-42445D01*
X64694Y-42297D01*
X64774Y-42104D01*
X64775Y-41896D01*
X64695Y-41703D01*
X64547Y-41555D01*
X64547Y-41555D01*
X64591Y-41538D01*
X64616Y-41521D01*
X64631Y-41395D01*
X64250Y-41014D01*
X63868Y-41395D01*
X63883Y-41521D01*
X63956Y-41553D01*
X63953Y-41554D01*
X63805Y-41702D01*
X63725Y-41895D01*
X63724Y-42103D01*
X63728Y-42111D01*
X63249Y-42589D01*
X63114Y-42454D01*
X62922Y-42374D01*
X63114Y-42295D01*
X63295Y-42114D01*
X63393Y-41878D01*
X63393Y-41622D01*
X63295Y-41385D01*
X63285Y-41375D01*
X63623Y-41036D01*
X63622Y-41109D01*
X63711Y-41341D01*
X63728Y-41366D01*
X63854Y-41381D01*
X64235Y-41000D01*
X64230Y-40994D01*
X64244Y-40980D01*
X64250Y-40985D01*
X64631Y-40604D01*
X64619Y-40506D01*
X64666Y-40486D01*
X64736Y-40416D01*
X64775Y-40324D01*
X64775Y-40225D01*
X64775Y-39675D01*
X64760Y-39639D01*
X65200Y-39639D01*
X65200Y-53039D01*
G36*
X65200Y-56939D02*
X65187Y-56880D01*
X64917Y-56760D01*
X64621Y-56752D01*
X64345Y-56858D01*
X64312Y-56880D01*
X64282Y-57018D01*
X64750Y-57485D01*
X64755Y-57480D01*
X64769Y-57494D01*
X64764Y-57500D01*
X64769Y-57505D01*
X64755Y-57519D01*
X64750Y-57514D01*
X64735Y-57528D01*
X64735Y-57500D01*
X64268Y-57032D01*
X64130Y-57062D01*
X64010Y-57332D01*
X64002Y-57628D01*
X64108Y-57904D01*
X64130Y-57937D01*
X64268Y-57967D01*
X64735Y-57500D01*
X64735Y-57528D01*
X64282Y-57981D01*
X64297Y-58050D01*
X57490Y-58050D01*
X57490Y-57602D01*
X57490Y-57010D01*
X56897Y-57010D01*
X56810Y-57097D01*
X56810Y-57270D01*
X56810Y-57409D01*
X56863Y-57538D01*
X56961Y-57636D01*
X57090Y-57690D01*
X57402Y-57690D01*
X57490Y-57602D01*
X57490Y-58050D01*
X52990Y-58050D01*
X52990Y-57602D01*
X52990Y-57010D01*
X52990Y-56990D01*
X52990Y-56397D01*
X52902Y-56310D01*
X52590Y-56310D01*
X52461Y-56363D01*
X52363Y-56461D01*
X52310Y-56590D01*
X52310Y-56729D01*
X52310Y-56902D01*
X52397Y-56990D01*
X52990Y-56990D01*
X52990Y-57010D01*
X52397Y-57010D01*
X52310Y-57097D01*
X52310Y-57270D01*
X52310Y-57409D01*
X52363Y-57538D01*
X52461Y-57636D01*
X52590Y-57690D01*
X52902Y-57690D01*
X52990Y-57602D01*
X52990Y-58050D01*
X48490Y-58050D01*
X48490Y-57602D01*
X48490Y-57010D01*
X48490Y-56990D01*
X48490Y-56397D01*
X48402Y-56310D01*
X48090Y-56310D01*
X47961Y-56363D01*
X47863Y-56461D01*
X47810Y-56590D01*
X47810Y-56729D01*
X47810Y-56902D01*
X47897Y-56990D01*
X48490Y-56990D01*
X48490Y-57010D01*
X47897Y-57010D01*
X47810Y-57097D01*
X47810Y-57270D01*
X47810Y-57409D01*
X47863Y-57538D01*
X47961Y-57636D01*
X48090Y-57690D01*
X48402Y-57690D01*
X48490Y-57602D01*
X48490Y-58050D01*
X44186Y-58050D01*
X43826Y-57690D01*
X43902Y-57690D01*
X43990Y-57602D01*
X43990Y-57010D01*
X43982Y-57010D01*
X43982Y-56990D01*
X43990Y-56990D01*
X43990Y-56397D01*
X43902Y-56310D01*
X43590Y-56310D01*
X43461Y-56363D01*
X43450Y-56375D01*
X43450Y-56250D01*
X43415Y-56077D01*
X43318Y-55931D01*
X42568Y-55181D01*
X42422Y-55084D01*
X42250Y-55050D01*
X40700Y-55050D01*
X40700Y-54514D01*
X40882Y-54589D01*
X41116Y-54590D01*
X41333Y-54500D01*
X41499Y-54334D01*
X41500Y-54334D01*
X41665Y-54499D01*
X41882Y-54589D01*
X42116Y-54590D01*
X42333Y-54500D01*
X42420Y-54414D01*
X42448Y-54481D01*
X42518Y-54551D01*
X42610Y-54590D01*
X42709Y-54590D01*
X43389Y-54590D01*
X43481Y-54551D01*
X43551Y-54481D01*
X43590Y-54389D01*
X43590Y-54290D01*
X43590Y-53610D01*
X43551Y-53518D01*
X43481Y-53448D01*
X43389Y-53410D01*
X43290Y-53410D01*
X43290Y-53410D01*
X43290Y-50250D01*
X43267Y-50139D01*
X43205Y-50044D01*
X42652Y-49492D01*
X42652Y-48136D01*
X42559Y-47895D01*
X42541Y-47868D01*
X42413Y-47850D01*
X42014Y-48250D01*
X42413Y-48649D01*
X42541Y-48631D01*
X42646Y-48394D01*
X42652Y-48136D01*
X42652Y-49492D01*
X42541Y-49381D01*
X42549Y-49359D01*
X42550Y-49141D01*
X42466Y-48938D01*
X42342Y-48814D01*
X42354Y-48809D01*
X42381Y-48791D01*
X42399Y-48663D01*
X42000Y-48264D01*
X41985Y-48278D01*
X41985Y-48250D01*
X41586Y-47850D01*
X41500Y-47862D01*
X41413Y-47850D01*
X41014Y-48250D01*
X41413Y-48649D01*
X41500Y-48637D01*
X41586Y-48649D01*
X41985Y-48250D01*
X41985Y-48278D01*
X41600Y-48663D01*
X41618Y-48791D01*
X41661Y-48810D01*
X41534Y-48938D01*
X41500Y-49019D01*
X41466Y-48938D01*
X41342Y-48814D01*
X41354Y-48809D01*
X41381Y-48791D01*
X41399Y-48663D01*
X41000Y-48264D01*
X40985Y-48278D01*
X40985Y-48250D01*
X40586Y-47850D01*
X40458Y-47868D01*
X40353Y-48105D01*
X40347Y-48363D01*
X40440Y-48604D01*
X40458Y-48631D01*
X40586Y-48649D01*
X40985Y-48250D01*
X40985Y-48278D01*
X40600Y-48663D01*
X40618Y-48791D01*
X40661Y-48810D01*
X40534Y-48938D01*
X40450Y-49140D01*
X40449Y-49358D01*
X40533Y-49561D01*
X40688Y-49715D01*
X40769Y-49749D01*
X40688Y-49783D01*
X40534Y-49938D01*
X40450Y-50140D01*
X40450Y-50163D01*
X39931Y-50681D01*
X39834Y-50827D01*
X39800Y-51000D01*
X39800Y-55250D01*
X39834Y-55422D01*
X39931Y-55568D01*
X40181Y-55818D01*
X40327Y-55915D01*
X40368Y-55923D01*
X40303Y-56037D01*
X41338Y-57072D01*
X41344Y-57066D01*
X41358Y-57081D01*
X41352Y-57086D01*
X42387Y-58121D01*
X42607Y-57996D01*
X42686Y-57822D01*
X43563Y-58700D01*
X42373Y-58700D01*
X42373Y-58135D01*
X41338Y-57100D01*
X41324Y-57114D01*
X41324Y-57086D01*
X40289Y-56051D01*
X40069Y-56177D01*
X39818Y-56731D01*
X39798Y-57340D01*
X40012Y-57910D01*
X40069Y-57996D01*
X40289Y-58121D01*
X41324Y-57086D01*
X41324Y-57114D01*
X40303Y-58135D01*
X40429Y-58355D01*
X40983Y-58606D01*
X41592Y-58626D01*
X42162Y-58412D01*
X42248Y-58355D01*
X42373Y-58135D01*
X42373Y-58700D01*
X39639Y-58700D01*
X39639Y-43526D01*
X40550Y-44436D01*
X40550Y-46746D01*
X40488Y-46808D01*
X40450Y-46900D01*
X40450Y-46999D01*
X40450Y-47599D01*
X40488Y-47691D01*
X40558Y-47761D01*
X40608Y-47782D01*
X40600Y-47836D01*
X41000Y-48235D01*
X41399Y-47836D01*
X41391Y-47782D01*
X41441Y-47761D01*
X41511Y-47691D01*
X41550Y-47599D01*
X41550Y-47577D01*
X41657Y-47685D01*
X41645Y-47690D01*
X41618Y-47708D01*
X41600Y-47836D01*
X42000Y-48235D01*
X42399Y-47836D01*
X42381Y-47708D01*
X42338Y-47689D01*
X42465Y-47561D01*
X42549Y-47359D01*
X42550Y-47141D01*
X42466Y-46938D01*
X42311Y-46784D01*
X42109Y-46700D01*
X41891Y-46699D01*
X41688Y-46783D01*
X41550Y-46922D01*
X41550Y-46900D01*
X41511Y-46808D01*
X41450Y-46746D01*
X41450Y-44250D01*
X41415Y-44077D01*
X41318Y-43931D01*
X40200Y-42813D01*
X40200Y-42322D01*
X40289Y-42373D01*
X41324Y-41338D01*
X41318Y-41333D01*
X41333Y-41318D01*
X41338Y-41324D01*
X41344Y-41318D01*
X41358Y-41333D01*
X41352Y-41338D01*
X42387Y-42373D01*
X42607Y-42248D01*
X42684Y-42077D01*
X42694Y-42102D01*
X42711Y-42128D01*
X42839Y-42146D01*
X43235Y-41750D01*
X43230Y-41744D01*
X43244Y-41730D01*
X43250Y-41735D01*
X43255Y-41730D01*
X43269Y-41744D01*
X43264Y-41750D01*
X43269Y-41755D01*
X43255Y-41769D01*
X43250Y-41764D01*
X42853Y-42160D01*
X42871Y-42288D01*
X43021Y-42354D01*
X42887Y-42351D01*
X42647Y-42444D01*
X42621Y-42461D01*
X42603Y-42589D01*
X43000Y-42985D01*
X43396Y-42589D01*
X43378Y-42461D01*
X43228Y-42395D01*
X43362Y-42398D01*
X43602Y-42305D01*
X43628Y-42288D01*
X43640Y-42205D01*
X43654Y-42226D01*
X43764Y-42302D01*
X43713Y-42336D01*
X43587Y-42526D01*
X43560Y-42659D01*
X43555Y-42647D01*
X43538Y-42621D01*
X43410Y-42603D01*
X43014Y-43000D01*
X43410Y-43396D01*
X43538Y-43378D01*
X43642Y-43143D01*
X43644Y-43059D01*
X43713Y-43163D01*
X43873Y-43269D01*
X43834Y-43327D01*
X43800Y-43500D01*
X43800Y-43678D01*
X43787Y-43690D01*
X43704Y-43891D01*
X43704Y-44108D01*
X43787Y-44308D01*
X43940Y-44462D01*
X44141Y-44545D01*
X44159Y-44545D01*
X44300Y-44686D01*
X44300Y-45225D01*
X44225Y-45225D01*
X43675Y-45225D01*
X43583Y-45263D01*
X43545Y-45300D01*
X43545Y-43891D01*
X43462Y-43691D01*
X43334Y-43562D01*
X43352Y-43555D01*
X43378Y-43538D01*
X43396Y-43410D01*
X43000Y-43014D01*
X42985Y-43028D01*
X42985Y-43000D01*
X42589Y-42603D01*
X42461Y-42621D01*
X42373Y-42820D01*
X42373Y-42387D01*
X41338Y-41352D01*
X40303Y-42387D01*
X40429Y-42607D01*
X40983Y-42858D01*
X41592Y-42878D01*
X42162Y-42664D01*
X42248Y-42607D01*
X42373Y-42387D01*
X42373Y-42820D01*
X42357Y-42856D01*
X42351Y-43112D01*
X42444Y-43352D01*
X42461Y-43378D01*
X42589Y-43396D01*
X42985Y-43000D01*
X42985Y-43028D01*
X42603Y-43410D01*
X42621Y-43538D01*
X42669Y-43559D01*
X42537Y-43690D01*
X42454Y-43891D01*
X42454Y-44108D01*
X42537Y-44308D01*
X42690Y-44462D01*
X42891Y-44545D01*
X43108Y-44545D01*
X43308Y-44462D01*
X43462Y-44309D01*
X43545Y-44108D01*
X43545Y-43891D01*
X43545Y-45300D01*
X43513Y-45333D01*
X43475Y-45425D01*
X43475Y-45524D01*
X43475Y-45864D01*
X43294Y-46044D01*
X43232Y-46139D01*
X43210Y-46250D01*
X43210Y-49000D01*
X43232Y-49110D01*
X43294Y-49205D01*
X43544Y-49455D01*
X43639Y-49517D01*
X43639Y-49517D01*
X43750Y-49540D01*
X43799Y-49540D01*
X43704Y-49635D01*
X43606Y-49871D01*
X43606Y-50127D01*
X43704Y-50364D01*
X43885Y-50545D01*
X44121Y-50643D01*
X44377Y-50643D01*
X44614Y-50545D01*
X44795Y-50364D01*
X44893Y-50128D01*
X44893Y-49872D01*
X44845Y-49755D01*
X44960Y-49870D01*
X44960Y-54000D01*
X44982Y-54110D01*
X45044Y-54205D01*
X45475Y-54635D01*
X45475Y-55074D01*
X45513Y-55166D01*
X45583Y-55236D01*
X45675Y-55275D01*
X45774Y-55275D01*
X46210Y-55275D01*
X46210Y-56379D01*
X46151Y-56437D01*
X46011Y-56410D01*
X45988Y-56410D01*
X45762Y-56454D01*
X45571Y-56582D01*
X45500Y-56689D01*
X45428Y-56582D01*
X45237Y-56454D01*
X45011Y-56410D01*
X44988Y-56410D01*
X44893Y-56428D01*
X44893Y-53872D01*
X44795Y-53635D01*
X44614Y-53454D01*
X44378Y-53356D01*
X44122Y-53356D01*
X43885Y-53454D01*
X43704Y-53635D01*
X43606Y-53871D01*
X43606Y-54127D01*
X43704Y-54364D01*
X43885Y-54545D01*
X44121Y-54643D01*
X44377Y-54643D01*
X44614Y-54545D01*
X44795Y-54364D01*
X44893Y-54128D01*
X44893Y-53872D01*
X44893Y-56428D01*
X44762Y-56454D01*
X44661Y-56522D01*
X44636Y-56461D01*
X44538Y-56363D01*
X44409Y-56310D01*
X44097Y-56310D01*
X44010Y-56397D01*
X44010Y-56990D01*
X44017Y-56990D01*
X44017Y-57010D01*
X44010Y-57010D01*
X44010Y-57602D01*
X44097Y-57690D01*
X44409Y-57690D01*
X44538Y-57636D01*
X44636Y-57538D01*
X44661Y-57477D01*
X44762Y-57545D01*
X44988Y-57590D01*
X45011Y-57590D01*
X45237Y-57545D01*
X45428Y-57417D01*
X45500Y-57310D01*
X45571Y-57417D01*
X45762Y-57545D01*
X45988Y-57590D01*
X46011Y-57590D01*
X46237Y-57545D01*
X46428Y-57417D01*
X46500Y-57310D01*
X46571Y-57417D01*
X46762Y-57545D01*
X46988Y-57590D01*
X47011Y-57590D01*
X47237Y-57545D01*
X47428Y-57417D01*
X47556Y-57225D01*
X47601Y-57000D01*
X47556Y-56774D01*
X47428Y-56582D01*
X47237Y-56454D01*
X47011Y-56410D01*
X46988Y-56410D01*
X46790Y-56449D01*
X46790Y-55231D01*
X46895Y-55274D01*
X47103Y-55275D01*
X47297Y-55195D01*
X47444Y-55047D01*
X47500Y-54914D01*
X47554Y-55047D01*
X47702Y-55194D01*
X47895Y-55274D01*
X48103Y-55275D01*
X48210Y-55231D01*
X48210Y-55250D01*
X48232Y-55360D01*
X48294Y-55455D01*
X49210Y-56370D01*
X49210Y-56490D01*
X49161Y-56522D01*
X49136Y-56461D01*
X49038Y-56363D01*
X48909Y-56310D01*
X48597Y-56310D01*
X48510Y-56397D01*
X48510Y-56990D01*
X48517Y-56990D01*
X48517Y-57010D01*
X48510Y-57010D01*
X48510Y-57602D01*
X48597Y-57690D01*
X48909Y-57690D01*
X49038Y-57636D01*
X49136Y-57538D01*
X49161Y-57477D01*
X49262Y-57545D01*
X49488Y-57590D01*
X49511Y-57590D01*
X49737Y-57545D01*
X49928Y-57417D01*
X50000Y-57310D01*
X50071Y-57417D01*
X50262Y-57545D01*
X50488Y-57590D01*
X50511Y-57590D01*
X50737Y-57545D01*
X50928Y-57417D01*
X51000Y-57310D01*
X51071Y-57417D01*
X51262Y-57545D01*
X51488Y-57590D01*
X51511Y-57590D01*
X51737Y-57545D01*
X51928Y-57417D01*
X52056Y-57225D01*
X52101Y-57000D01*
X52056Y-56774D01*
X51950Y-56614D01*
X51950Y-56500D01*
X51925Y-56374D01*
X52102Y-56305D01*
X52128Y-56288D01*
X52146Y-56160D01*
X51750Y-55764D01*
X51744Y-55769D01*
X51730Y-55755D01*
X51735Y-55750D01*
X51730Y-55744D01*
X51744Y-55730D01*
X51750Y-55735D01*
X51755Y-55730D01*
X51769Y-55744D01*
X51764Y-55750D01*
X52160Y-56146D01*
X52288Y-56128D01*
X52392Y-55893D01*
X52398Y-55637D01*
X52380Y-55590D01*
X52979Y-55590D01*
X53225Y-55835D01*
X53224Y-55934D01*
X53289Y-56090D01*
X53408Y-56210D01*
X53565Y-56274D01*
X53710Y-56275D01*
X53710Y-56490D01*
X53661Y-56522D01*
X53636Y-56461D01*
X53538Y-56363D01*
X53409Y-56310D01*
X53097Y-56310D01*
X53010Y-56397D01*
X53010Y-56990D01*
X53017Y-56990D01*
X53017Y-57010D01*
X53010Y-57010D01*
X53010Y-57602D01*
X53097Y-57690D01*
X53409Y-57690D01*
X53538Y-57636D01*
X53636Y-57538D01*
X53661Y-57477D01*
X53762Y-57545D01*
X53988Y-57590D01*
X54011Y-57590D01*
X54237Y-57545D01*
X54428Y-57417D01*
X54500Y-57310D01*
X54571Y-57417D01*
X54762Y-57545D01*
X54988Y-57590D01*
X55011Y-57590D01*
X55237Y-57545D01*
X55428Y-57417D01*
X55500Y-57310D01*
X55571Y-57417D01*
X55762Y-57545D01*
X55988Y-57590D01*
X56011Y-57590D01*
X56237Y-57545D01*
X56428Y-57417D01*
X56556Y-57225D01*
X56601Y-57000D01*
X56556Y-56774D01*
X56428Y-56582D01*
X56237Y-56454D01*
X56011Y-56410D01*
X55988Y-56410D01*
X55885Y-56430D01*
X55924Y-56334D01*
X55925Y-56165D01*
X55860Y-56009D01*
X55741Y-55889D01*
X55584Y-55825D01*
X55540Y-55825D01*
X55540Y-54372D01*
X55665Y-54424D01*
X55834Y-54425D01*
X55990Y-54360D01*
X56110Y-54241D01*
X56174Y-54084D01*
X56175Y-53915D01*
X56110Y-53759D01*
X55991Y-53639D01*
X55834Y-53575D01*
X55790Y-53575D01*
X55790Y-51872D01*
X55915Y-51924D01*
X56084Y-51925D01*
X56210Y-51873D01*
X56210Y-54574D01*
X56165Y-54574D01*
X56009Y-54639D01*
X55889Y-54758D01*
X55825Y-54915D01*
X55824Y-55084D01*
X55889Y-55240D01*
X56008Y-55360D01*
X56165Y-55424D01*
X56334Y-55425D01*
X56483Y-55363D01*
X56544Y-55455D01*
X57399Y-56310D01*
X57090Y-56310D01*
X56961Y-56363D01*
X56863Y-56461D01*
X56810Y-56590D01*
X56810Y-56729D01*
X56810Y-56902D01*
X56897Y-56990D01*
X57490Y-56990D01*
X57490Y-56982D01*
X57510Y-56982D01*
X57510Y-56990D01*
X57517Y-56990D01*
X57517Y-57010D01*
X57510Y-57010D01*
X57510Y-57602D01*
X57597Y-57690D01*
X57909Y-57690D01*
X58038Y-57636D01*
X58136Y-57538D01*
X58161Y-57477D01*
X58262Y-57545D01*
X58488Y-57590D01*
X58511Y-57590D01*
X58737Y-57545D01*
X58928Y-57417D01*
X59000Y-57310D01*
X59071Y-57417D01*
X59262Y-57545D01*
X59488Y-57590D01*
X59511Y-57590D01*
X59737Y-57545D01*
X59928Y-57417D01*
X60000Y-57310D01*
X60071Y-57417D01*
X60262Y-57545D01*
X60488Y-57590D01*
X60511Y-57590D01*
X60737Y-57545D01*
X60928Y-57417D01*
X61056Y-57225D01*
X61101Y-57000D01*
X61056Y-56774D01*
X60928Y-56582D01*
X60737Y-56454D01*
X60555Y-56418D01*
X60068Y-55931D01*
X59922Y-55834D01*
X59750Y-55800D01*
X59686Y-55800D01*
X59393Y-55507D01*
X59393Y-55492D01*
X59818Y-55068D01*
X59915Y-54922D01*
X59950Y-54750D01*
X59950Y-53750D01*
X59915Y-53577D01*
X59818Y-53431D01*
X59393Y-53007D01*
X59393Y-52992D01*
X59818Y-52568D01*
X59915Y-52422D01*
X59950Y-52250D01*
X59950Y-50151D01*
X60008Y-50210D01*
X60165Y-50274D01*
X60260Y-50275D01*
X60260Y-52088D01*
X60189Y-52158D01*
X60125Y-52315D01*
X60124Y-52484D01*
X60189Y-52640D01*
X60308Y-52760D01*
X60465Y-52824D01*
X60634Y-52825D01*
X60790Y-52760D01*
X60900Y-52651D01*
X61008Y-52760D01*
X61165Y-52824D01*
X61334Y-52825D01*
X61490Y-52760D01*
X61610Y-52641D01*
X61674Y-52484D01*
X61675Y-52335D01*
X62137Y-52797D01*
X62106Y-52871D01*
X62106Y-53127D01*
X62204Y-53364D01*
X62385Y-53545D01*
X62460Y-53576D01*
X62460Y-53673D01*
X62385Y-53704D01*
X62204Y-53885D01*
X62106Y-54121D01*
X62106Y-54377D01*
X62204Y-54614D01*
X62385Y-54795D01*
X62577Y-54875D01*
X62385Y-54954D01*
X62204Y-55135D01*
X62106Y-55371D01*
X62106Y-55627D01*
X62204Y-55864D01*
X62385Y-56045D01*
X62621Y-56143D01*
X62877Y-56143D01*
X63114Y-56045D01*
X63295Y-55864D01*
X63393Y-55628D01*
X63393Y-55372D01*
X63362Y-55297D01*
X64547Y-54112D01*
X64621Y-54143D01*
X64877Y-54143D01*
X65114Y-54045D01*
X65200Y-53960D01*
X65200Y-56939D01*
X65200Y-56939D01*
G37*
X65200Y-56939D02*
X65187Y-56880D01*
X64917Y-56760D01*
X64621Y-56752D01*
X64345Y-56858D01*
X64312Y-56880D01*
X64282Y-57018D01*
X64750Y-57485D01*
X64755Y-57480D01*
X64769Y-57494D01*
X64764Y-57500D01*
X64769Y-57505D01*
X64755Y-57519D01*
X64750Y-57514D01*
X64735Y-57528D01*
X64735Y-57500D01*
X64268Y-57032D01*
X64130Y-57062D01*
X64010Y-57332D01*
X64002Y-57628D01*
X64108Y-57904D01*
X64130Y-57937D01*
X64268Y-57967D01*
X64735Y-57500D01*
X64735Y-57528D01*
X64282Y-57981D01*
X64297Y-58050D01*
X57490Y-58050D01*
X57490Y-57602D01*
X57490Y-57010D01*
X56897Y-57010D01*
X56810Y-57097D01*
X56810Y-57270D01*
X56810Y-57409D01*
X56863Y-57538D01*
X56961Y-57636D01*
X57090Y-57690D01*
X57402Y-57690D01*
X57490Y-57602D01*
X57490Y-58050D01*
X52990Y-58050D01*
X52990Y-57602D01*
X52990Y-57010D01*
X52990Y-56990D01*
X52990Y-56397D01*
X52902Y-56310D01*
X52590Y-56310D01*
X52461Y-56363D01*
X52363Y-56461D01*
X52310Y-56590D01*
X52310Y-56729D01*
X52310Y-56902D01*
X52397Y-56990D01*
X52990Y-56990D01*
X52990Y-57010D01*
X52397Y-57010D01*
X52310Y-57097D01*
X52310Y-57270D01*
X52310Y-57409D01*
X52363Y-57538D01*
X52461Y-57636D01*
X52590Y-57690D01*
X52902Y-57690D01*
X52990Y-57602D01*
X52990Y-58050D01*
X48490Y-58050D01*
X48490Y-57602D01*
X48490Y-57010D01*
X48490Y-56990D01*
X48490Y-56397D01*
X48402Y-56310D01*
X48090Y-56310D01*
X47961Y-56363D01*
X47863Y-56461D01*
X47810Y-56590D01*
X47810Y-56729D01*
X47810Y-56902D01*
X47897Y-56990D01*
X48490Y-56990D01*
X48490Y-57010D01*
X47897Y-57010D01*
X47810Y-57097D01*
X47810Y-57270D01*
X47810Y-57409D01*
X47863Y-57538D01*
X47961Y-57636D01*
X48090Y-57690D01*
X48402Y-57690D01*
X48490Y-57602D01*
X48490Y-58050D01*
X44186Y-58050D01*
X43826Y-57690D01*
X43902Y-57690D01*
X43990Y-57602D01*
X43990Y-57010D01*
X43982Y-57010D01*
X43982Y-56990D01*
X43990Y-56990D01*
X43990Y-56397D01*
X43902Y-56310D01*
X43590Y-56310D01*
X43461Y-56363D01*
X43450Y-56375D01*
X43450Y-56250D01*
X43415Y-56077D01*
X43318Y-55931D01*
X42568Y-55181D01*
X42422Y-55084D01*
X42250Y-55050D01*
X40700Y-55050D01*
X40700Y-54514D01*
X40882Y-54589D01*
X41116Y-54590D01*
X41333Y-54500D01*
X41499Y-54334D01*
X41500Y-54334D01*
X41665Y-54499D01*
X41882Y-54589D01*
X42116Y-54590D01*
X42333Y-54500D01*
X42420Y-54414D01*
X42448Y-54481D01*
X42518Y-54551D01*
X42610Y-54590D01*
X42709Y-54590D01*
X43389Y-54590D01*
X43481Y-54551D01*
X43551Y-54481D01*
X43590Y-54389D01*
X43590Y-54290D01*
X43590Y-53610D01*
X43551Y-53518D01*
X43481Y-53448D01*
X43389Y-53410D01*
X43290Y-53410D01*
X43290Y-53410D01*
X43290Y-50250D01*
X43267Y-50139D01*
X43205Y-50044D01*
X42652Y-49492D01*
X42652Y-48136D01*
X42559Y-47895D01*
X42541Y-47868D01*
X42413Y-47850D01*
X42014Y-48250D01*
X42413Y-48649D01*
X42541Y-48631D01*
X42646Y-48394D01*
X42652Y-48136D01*
X42652Y-49492D01*
X42541Y-49381D01*
X42549Y-49359D01*
X42550Y-49141D01*
X42466Y-48938D01*
X42342Y-48814D01*
X42354Y-48809D01*
X42381Y-48791D01*
X42399Y-48663D01*
X42000Y-48264D01*
X41985Y-48278D01*
X41985Y-48250D01*
X41586Y-47850D01*
X41500Y-47862D01*
X41413Y-47850D01*
X41014Y-48250D01*
X41413Y-48649D01*
X41500Y-48637D01*
X41586Y-48649D01*
X41985Y-48250D01*
X41985Y-48278D01*
X41600Y-48663D01*
X41618Y-48791D01*
X41661Y-48810D01*
X41534Y-48938D01*
X41500Y-49019D01*
X41466Y-48938D01*
X41342Y-48814D01*
X41354Y-48809D01*
X41381Y-48791D01*
X41399Y-48663D01*
X41000Y-48264D01*
X40985Y-48278D01*
X40985Y-48250D01*
X40586Y-47850D01*
X40458Y-47868D01*
X40353Y-48105D01*
X40347Y-48363D01*
X40440Y-48604D01*
X40458Y-48631D01*
X40586Y-48649D01*
X40985Y-48250D01*
X40985Y-48278D01*
X40600Y-48663D01*
X40618Y-48791D01*
X40661Y-48810D01*
X40534Y-48938D01*
X40450Y-49140D01*
X40449Y-49358D01*
X40533Y-49561D01*
X40688Y-49715D01*
X40769Y-49749D01*
X40688Y-49783D01*
X40534Y-49938D01*
X40450Y-50140D01*
X40450Y-50163D01*
X39931Y-50681D01*
X39834Y-50827D01*
X39800Y-51000D01*
X39800Y-55250D01*
X39834Y-55422D01*
X39931Y-55568D01*
X40181Y-55818D01*
X40327Y-55915D01*
X40368Y-55923D01*
X40303Y-56037D01*
X41338Y-57072D01*
X41344Y-57066D01*
X41358Y-57081D01*
X41352Y-57086D01*
X42387Y-58121D01*
X42607Y-57996D01*
X42686Y-57822D01*
X43563Y-58700D01*
X42373Y-58700D01*
X42373Y-58135D01*
X41338Y-57100D01*
X41324Y-57114D01*
X41324Y-57086D01*
X40289Y-56051D01*
X40069Y-56177D01*
X39818Y-56731D01*
X39798Y-57340D01*
X40012Y-57910D01*
X40069Y-57996D01*
X40289Y-58121D01*
X41324Y-57086D01*
X41324Y-57114D01*
X40303Y-58135D01*
X40429Y-58355D01*
X40983Y-58606D01*
X41592Y-58626D01*
X42162Y-58412D01*
X42248Y-58355D01*
X42373Y-58135D01*
X42373Y-58700D01*
X39639Y-58700D01*
X39639Y-43526D01*
X40550Y-44436D01*
X40550Y-46746D01*
X40488Y-46808D01*
X40450Y-46900D01*
X40450Y-46999D01*
X40450Y-47599D01*
X40488Y-47691D01*
X40558Y-47761D01*
X40608Y-47782D01*
X40600Y-47836D01*
X41000Y-48235D01*
X41399Y-47836D01*
X41391Y-47782D01*
X41441Y-47761D01*
X41511Y-47691D01*
X41550Y-47599D01*
X41550Y-47577D01*
X41657Y-47685D01*
X41645Y-47690D01*
X41618Y-47708D01*
X41600Y-47836D01*
X42000Y-48235D01*
X42399Y-47836D01*
X42381Y-47708D01*
X42338Y-47689D01*
X42465Y-47561D01*
X42549Y-47359D01*
X42550Y-47141D01*
X42466Y-46938D01*
X42311Y-46784D01*
X42109Y-46700D01*
X41891Y-46699D01*
X41688Y-46783D01*
X41550Y-46922D01*
X41550Y-46900D01*
X41511Y-46808D01*
X41450Y-46746D01*
X41450Y-44250D01*
X41415Y-44077D01*
X41318Y-43931D01*
X40200Y-42813D01*
X40200Y-42322D01*
X40289Y-42373D01*
X41324Y-41338D01*
X41318Y-41333D01*
X41333Y-41318D01*
X41338Y-41324D01*
X41344Y-41318D01*
X41358Y-41333D01*
X41352Y-41338D01*
X42387Y-42373D01*
X42607Y-42248D01*
X42684Y-42077D01*
X42694Y-42102D01*
X42711Y-42128D01*
X42839Y-42146D01*
X43235Y-41750D01*
X43230Y-41744D01*
X43244Y-41730D01*
X43250Y-41735D01*
X43255Y-41730D01*
X43269Y-41744D01*
X43264Y-41750D01*
X43269Y-41755D01*
X43255Y-41769D01*
X43250Y-41764D01*
X42853Y-42160D01*
X42871Y-42288D01*
X43021Y-42354D01*
X42887Y-42351D01*
X42647Y-42444D01*
X42621Y-42461D01*
X42603Y-42589D01*
X43000Y-42985D01*
X43396Y-42589D01*
X43378Y-42461D01*
X43228Y-42395D01*
X43362Y-42398D01*
X43602Y-42305D01*
X43628Y-42288D01*
X43640Y-42205D01*
X43654Y-42226D01*
X43764Y-42302D01*
X43713Y-42336D01*
X43587Y-42526D01*
X43560Y-42659D01*
X43555Y-42647D01*
X43538Y-42621D01*
X43410Y-42603D01*
X43014Y-43000D01*
X43410Y-43396D01*
X43538Y-43378D01*
X43642Y-43143D01*
X43644Y-43059D01*
X43713Y-43163D01*
X43873Y-43269D01*
X43834Y-43327D01*
X43800Y-43500D01*
X43800Y-43678D01*
X43787Y-43690D01*
X43704Y-43891D01*
X43704Y-44108D01*
X43787Y-44308D01*
X43940Y-44462D01*
X44141Y-44545D01*
X44159Y-44545D01*
X44300Y-44686D01*
X44300Y-45225D01*
X44225Y-45225D01*
X43675Y-45225D01*
X43583Y-45263D01*
X43545Y-45300D01*
X43545Y-43891D01*
X43462Y-43691D01*
X43334Y-43562D01*
X43352Y-43555D01*
X43378Y-43538D01*
X43396Y-43410D01*
X43000Y-43014D01*
X42985Y-43028D01*
X42985Y-43000D01*
X42589Y-42603D01*
X42461Y-42621D01*
X42373Y-42820D01*
X42373Y-42387D01*
X41338Y-41352D01*
X40303Y-42387D01*
X40429Y-42607D01*
X40983Y-42858D01*
X41592Y-42878D01*
X42162Y-42664D01*
X42248Y-42607D01*
X42373Y-42387D01*
X42373Y-42820D01*
X42357Y-42856D01*
X42351Y-43112D01*
X42444Y-43352D01*
X42461Y-43378D01*
X42589Y-43396D01*
X42985Y-43000D01*
X42985Y-43028D01*
X42603Y-43410D01*
X42621Y-43538D01*
X42669Y-43559D01*
X42537Y-43690D01*
X42454Y-43891D01*
X42454Y-44108D01*
X42537Y-44308D01*
X42690Y-44462D01*
X42891Y-44545D01*
X43108Y-44545D01*
X43308Y-44462D01*
X43462Y-44309D01*
X43545Y-44108D01*
X43545Y-43891D01*
X43545Y-45300D01*
X43513Y-45333D01*
X43475Y-45425D01*
X43475Y-45524D01*
X43475Y-45864D01*
X43294Y-46044D01*
X43232Y-46139D01*
X43210Y-46250D01*
X43210Y-49000D01*
X43232Y-49110D01*
X43294Y-49205D01*
X43544Y-49455D01*
X43639Y-49517D01*
X43639Y-49517D01*
X43750Y-49540D01*
X43799Y-49540D01*
X43704Y-49635D01*
X43606Y-49871D01*
X43606Y-50127D01*
X43704Y-50364D01*
X43885Y-50545D01*
X44121Y-50643D01*
X44377Y-50643D01*
X44614Y-50545D01*
X44795Y-50364D01*
X44893Y-50128D01*
X44893Y-49872D01*
X44845Y-49755D01*
X44960Y-49870D01*
X44960Y-54000D01*
X44982Y-54110D01*
X45044Y-54205D01*
X45475Y-54635D01*
X45475Y-55074D01*
X45513Y-55166D01*
X45583Y-55236D01*
X45675Y-55275D01*
X45774Y-55275D01*
X46210Y-55275D01*
X46210Y-56379D01*
X46151Y-56437D01*
X46011Y-56410D01*
X45988Y-56410D01*
X45762Y-56454D01*
X45571Y-56582D01*
X45500Y-56689D01*
X45428Y-56582D01*
X45237Y-56454D01*
X45011Y-56410D01*
X44988Y-56410D01*
X44893Y-56428D01*
X44893Y-53872D01*
X44795Y-53635D01*
X44614Y-53454D01*
X44378Y-53356D01*
X44122Y-53356D01*
X43885Y-53454D01*
X43704Y-53635D01*
X43606Y-53871D01*
X43606Y-54127D01*
X43704Y-54364D01*
X43885Y-54545D01*
X44121Y-54643D01*
X44377Y-54643D01*
X44614Y-54545D01*
X44795Y-54364D01*
X44893Y-54128D01*
X44893Y-53872D01*
X44893Y-56428D01*
X44762Y-56454D01*
X44661Y-56522D01*
X44636Y-56461D01*
X44538Y-56363D01*
X44409Y-56310D01*
X44097Y-56310D01*
X44010Y-56397D01*
X44010Y-56990D01*
X44017Y-56990D01*
X44017Y-57010D01*
X44010Y-57010D01*
X44010Y-57602D01*
X44097Y-57690D01*
X44409Y-57690D01*
X44538Y-57636D01*
X44636Y-57538D01*
X44661Y-57477D01*
X44762Y-57545D01*
X44988Y-57590D01*
X45011Y-57590D01*
X45237Y-57545D01*
X45428Y-57417D01*
X45500Y-57310D01*
X45571Y-57417D01*
X45762Y-57545D01*
X45988Y-57590D01*
X46011Y-57590D01*
X46237Y-57545D01*
X46428Y-57417D01*
X46500Y-57310D01*
X46571Y-57417D01*
X46762Y-57545D01*
X46988Y-57590D01*
X47011Y-57590D01*
X47237Y-57545D01*
X47428Y-57417D01*
X47556Y-57225D01*
X47601Y-57000D01*
X47556Y-56774D01*
X47428Y-56582D01*
X47237Y-56454D01*
X47011Y-56410D01*
X46988Y-56410D01*
X46790Y-56449D01*
X46790Y-55231D01*
X46895Y-55274D01*
X47103Y-55275D01*
X47297Y-55195D01*
X47444Y-55047D01*
X47500Y-54914D01*
X47554Y-55047D01*
X47702Y-55194D01*
X47895Y-55274D01*
X48103Y-55275D01*
X48210Y-55231D01*
X48210Y-55250D01*
X48232Y-55360D01*
X48294Y-55455D01*
X49210Y-56370D01*
X49210Y-56490D01*
X49161Y-56522D01*
X49136Y-56461D01*
X49038Y-56363D01*
X48909Y-56310D01*
X48597Y-56310D01*
X48510Y-56397D01*
X48510Y-56990D01*
X48517Y-56990D01*
X48517Y-57010D01*
X48510Y-57010D01*
X48510Y-57602D01*
X48597Y-57690D01*
X48909Y-57690D01*
X49038Y-57636D01*
X49136Y-57538D01*
X49161Y-57477D01*
X49262Y-57545D01*
X49488Y-57590D01*
X49511Y-57590D01*
X49737Y-57545D01*
X49928Y-57417D01*
X50000Y-57310D01*
X50071Y-57417D01*
X50262Y-57545D01*
X50488Y-57590D01*
X50511Y-57590D01*
X50737Y-57545D01*
X50928Y-57417D01*
X51000Y-57310D01*
X51071Y-57417D01*
X51262Y-57545D01*
X51488Y-57590D01*
X51511Y-57590D01*
X51737Y-57545D01*
X51928Y-57417D01*
X52056Y-57225D01*
X52101Y-57000D01*
X52056Y-56774D01*
X51950Y-56614D01*
X51950Y-56500D01*
X51925Y-56374D01*
X52102Y-56305D01*
X52128Y-56288D01*
X52146Y-56160D01*
X51750Y-55764D01*
X51744Y-55769D01*
X51730Y-55755D01*
X51735Y-55750D01*
X51730Y-55744D01*
X51744Y-55730D01*
X51750Y-55735D01*
X51755Y-55730D01*
X51769Y-55744D01*
X51764Y-55750D01*
X52160Y-56146D01*
X52288Y-56128D01*
X52392Y-55893D01*
X52398Y-55637D01*
X52380Y-55590D01*
X52979Y-55590D01*
X53225Y-55835D01*
X53224Y-55934D01*
X53289Y-56090D01*
X53408Y-56210D01*
X53565Y-56274D01*
X53710Y-56275D01*
X53710Y-56490D01*
X53661Y-56522D01*
X53636Y-56461D01*
X53538Y-56363D01*
X53409Y-56310D01*
X53097Y-56310D01*
X53010Y-56397D01*
X53010Y-56990D01*
X53017Y-56990D01*
X53017Y-57010D01*
X53010Y-57010D01*
X53010Y-57602D01*
X53097Y-57690D01*
X53409Y-57690D01*
X53538Y-57636D01*
X53636Y-57538D01*
X53661Y-57477D01*
X53762Y-57545D01*
X53988Y-57590D01*
X54011Y-57590D01*
X54237Y-57545D01*
X54428Y-57417D01*
X54500Y-57310D01*
X54571Y-57417D01*
X54762Y-57545D01*
X54988Y-57590D01*
X55011Y-57590D01*
X55237Y-57545D01*
X55428Y-57417D01*
X55500Y-57310D01*
X55571Y-57417D01*
X55762Y-57545D01*
X55988Y-57590D01*
X56011Y-57590D01*
X56237Y-57545D01*
X56428Y-57417D01*
X56556Y-57225D01*
X56601Y-57000D01*
X56556Y-56774D01*
X56428Y-56582D01*
X56237Y-56454D01*
X56011Y-56410D01*
X55988Y-56410D01*
X55885Y-56430D01*
X55924Y-56334D01*
X55925Y-56165D01*
X55860Y-56009D01*
X55741Y-55889D01*
X55584Y-55825D01*
X55540Y-55825D01*
X55540Y-54372D01*
X55665Y-54424D01*
X55834Y-54425D01*
X55990Y-54360D01*
X56110Y-54241D01*
X56174Y-54084D01*
X56175Y-53915D01*
X56110Y-53759D01*
X55991Y-53639D01*
X55834Y-53575D01*
X55790Y-53575D01*
X55790Y-51872D01*
X55915Y-51924D01*
X56084Y-51925D01*
X56210Y-51873D01*
X56210Y-54574D01*
X56165Y-54574D01*
X56009Y-54639D01*
X55889Y-54758D01*
X55825Y-54915D01*
X55824Y-55084D01*
X55889Y-55240D01*
X56008Y-55360D01*
X56165Y-55424D01*
X56334Y-55425D01*
X56483Y-55363D01*
X56544Y-55455D01*
X57399Y-56310D01*
X57090Y-56310D01*
X56961Y-56363D01*
X56863Y-56461D01*
X56810Y-56590D01*
X56810Y-56729D01*
X56810Y-56902D01*
X56897Y-56990D01*
X57490Y-56990D01*
X57490Y-56982D01*
X57510Y-56982D01*
X57510Y-56990D01*
X57517Y-56990D01*
X57517Y-57010D01*
X57510Y-57010D01*
X57510Y-57602D01*
X57597Y-57690D01*
X57909Y-57690D01*
X58038Y-57636D01*
X58136Y-57538D01*
X58161Y-57477D01*
X58262Y-57545D01*
X58488Y-57590D01*
X58511Y-57590D01*
X58737Y-57545D01*
X58928Y-57417D01*
X59000Y-57310D01*
X59071Y-57417D01*
X59262Y-57545D01*
X59488Y-57590D01*
X59511Y-57590D01*
X59737Y-57545D01*
X59928Y-57417D01*
X60000Y-57310D01*
X60071Y-57417D01*
X60262Y-57545D01*
X60488Y-57590D01*
X60511Y-57590D01*
X60737Y-57545D01*
X60928Y-57417D01*
X61056Y-57225D01*
X61101Y-57000D01*
X61056Y-56774D01*
X60928Y-56582D01*
X60737Y-56454D01*
X60555Y-56418D01*
X60068Y-55931D01*
X59922Y-55834D01*
X59750Y-55800D01*
X59686Y-55800D01*
X59393Y-55507D01*
X59393Y-55492D01*
X59818Y-55068D01*
X59915Y-54922D01*
X59950Y-54750D01*
X59950Y-53750D01*
X59915Y-53577D01*
X59818Y-53431D01*
X59393Y-53007D01*
X59393Y-52992D01*
X59818Y-52568D01*
X59915Y-52422D01*
X59950Y-52250D01*
X59950Y-50151D01*
X60008Y-50210D01*
X60165Y-50274D01*
X60260Y-50275D01*
X60260Y-52088D01*
X60189Y-52158D01*
X60125Y-52315D01*
X60124Y-52484D01*
X60189Y-52640D01*
X60308Y-52760D01*
X60465Y-52824D01*
X60634Y-52825D01*
X60790Y-52760D01*
X60900Y-52651D01*
X61008Y-52760D01*
X61165Y-52824D01*
X61334Y-52825D01*
X61490Y-52760D01*
X61610Y-52641D01*
X61674Y-52484D01*
X61675Y-52335D01*
X62137Y-52797D01*
X62106Y-52871D01*
X62106Y-53127D01*
X62204Y-53364D01*
X62385Y-53545D01*
X62460Y-53576D01*
X62460Y-53673D01*
X62385Y-53704D01*
X62204Y-53885D01*
X62106Y-54121D01*
X62106Y-54377D01*
X62204Y-54614D01*
X62385Y-54795D01*
X62577Y-54875D01*
X62385Y-54954D01*
X62204Y-55135D01*
X62106Y-55371D01*
X62106Y-55627D01*
X62204Y-55864D01*
X62385Y-56045D01*
X62621Y-56143D01*
X62877Y-56143D01*
X63114Y-56045D01*
X63295Y-55864D01*
X63393Y-55628D01*
X63393Y-55372D01*
X63362Y-55297D01*
X64547Y-54112D01*
X64621Y-54143D01*
X64877Y-54143D01*
X65114Y-54045D01*
X65200Y-53960D01*
X65200Y-56939D01*
M02*
