%FSLAX46Y46*%
G04 Gerber Fmt 4.6, Leading zero omitted, Abs format (unit mm)*
G04 Created by KiCad (PCBNEW (2014-jul-16 BZR unknown)-product) date Fri 03 Oct 2014 04:25:25 PM PDT*
%MOMM*%
G01*
G04 APERTURE LIST*
%ADD10C,0.100000*%
%ADD11C,0.203200*%
%ADD12C,0.002540*%
G04 APERTURE END LIST*
D10*
D11*
X190248902Y-137700899D02*
X190248902Y-136684899D01*
X189813474Y-137700899D02*
X189813474Y-137168709D01*
X189861855Y-137071947D01*
X189958617Y-137023566D01*
X190103759Y-137023566D01*
X190200521Y-137071947D01*
X190248902Y-137120328D01*
X188894236Y-137700899D02*
X188894236Y-137168709D01*
X188942617Y-137071947D01*
X189039379Y-137023566D01*
X189232902Y-137023566D01*
X189329664Y-137071947D01*
X188894236Y-137652518D02*
X188990998Y-137700899D01*
X189232902Y-137700899D01*
X189329664Y-137652518D01*
X189378045Y-137555756D01*
X189378045Y-137458994D01*
X189329664Y-137362232D01*
X189232902Y-137313851D01*
X188990998Y-137313851D01*
X188894236Y-137265470D01*
X188410426Y-137700899D02*
X188410426Y-137023566D01*
X188410426Y-137217090D02*
X188362045Y-137120328D01*
X188313664Y-137071947D01*
X188216902Y-137023566D01*
X188120141Y-137023566D01*
X187346046Y-137700899D02*
X187346046Y-136684899D01*
X187346046Y-137652518D02*
X187442808Y-137700899D01*
X187636331Y-137700899D01*
X187733093Y-137652518D01*
X187781474Y-137604137D01*
X187829855Y-137507375D01*
X187829855Y-137217090D01*
X187781474Y-137120328D01*
X187733093Y-137071947D01*
X187636331Y-137023566D01*
X187442808Y-137023566D01*
X187346046Y-137071947D01*
X186958998Y-137023566D02*
X186765474Y-137700899D01*
X186571951Y-137217090D01*
X186378427Y-137700899D01*
X186184903Y-137023566D01*
X185362427Y-137700899D02*
X185362427Y-137168709D01*
X185410808Y-137071947D01*
X185507570Y-137023566D01*
X185701093Y-137023566D01*
X185797855Y-137071947D01*
X185362427Y-137652518D02*
X185459189Y-137700899D01*
X185701093Y-137700899D01*
X185797855Y-137652518D01*
X185846236Y-137555756D01*
X185846236Y-137458994D01*
X185797855Y-137362232D01*
X185701093Y-137313851D01*
X185459189Y-137313851D01*
X185362427Y-137265470D01*
X184878617Y-137700899D02*
X184878617Y-137023566D01*
X184878617Y-137217090D02*
X184830236Y-137120328D01*
X184781855Y-137071947D01*
X184685093Y-137023566D01*
X184588332Y-137023566D01*
X183862618Y-137652518D02*
X183959380Y-137700899D01*
X184152903Y-137700899D01*
X184249665Y-137652518D01*
X184298046Y-137555756D01*
X184298046Y-137168709D01*
X184249665Y-137071947D01*
X184152903Y-137023566D01*
X183959380Y-137023566D01*
X183862618Y-137071947D01*
X183814237Y-137168709D01*
X183814237Y-137265470D01*
X184298046Y-137362232D01*
X191020094Y-136349619D02*
X191116856Y-136301238D01*
X191165237Y-136252857D01*
X191213618Y-136156095D01*
X191213618Y-135865810D01*
X191165237Y-135769048D01*
X191116856Y-135720667D01*
X191020094Y-135672286D01*
X190874952Y-135672286D01*
X190778190Y-135720667D01*
X190729809Y-135769048D01*
X190681428Y-135865810D01*
X190681428Y-136156095D01*
X190729809Y-136252857D01*
X190778190Y-136301238D01*
X190874952Y-136349619D01*
X191020094Y-136349619D01*
X190245999Y-135672286D02*
X190245999Y-136688286D01*
X190245999Y-135720667D02*
X190149237Y-135672286D01*
X189955714Y-135672286D01*
X189858952Y-135720667D01*
X189810571Y-135769048D01*
X189762190Y-135865810D01*
X189762190Y-136156095D01*
X189810571Y-136252857D01*
X189858952Y-136301238D01*
X189955714Y-136349619D01*
X190149237Y-136349619D01*
X190245999Y-136301238D01*
X188939714Y-136301238D02*
X189036476Y-136349619D01*
X189229999Y-136349619D01*
X189326761Y-136301238D01*
X189375142Y-136204476D01*
X189375142Y-135817429D01*
X189326761Y-135720667D01*
X189229999Y-135672286D01*
X189036476Y-135672286D01*
X188939714Y-135720667D01*
X188891333Y-135817429D01*
X188891333Y-135914190D01*
X189375142Y-136010952D01*
X188455904Y-135672286D02*
X188455904Y-136349619D01*
X188455904Y-135769048D02*
X188407523Y-135720667D01*
X188310761Y-135672286D01*
X188165619Y-135672286D01*
X188068857Y-135720667D01*
X188020476Y-135817429D01*
X188020476Y-136349619D01*
X186810952Y-136301238D02*
X186714190Y-136349619D01*
X186520666Y-136349619D01*
X186423905Y-136301238D01*
X186375524Y-136204476D01*
X186375524Y-136156095D01*
X186423905Y-136059333D01*
X186520666Y-136010952D01*
X186665809Y-136010952D01*
X186762571Y-135962571D01*
X186810952Y-135865810D01*
X186810952Y-135817429D01*
X186762571Y-135720667D01*
X186665809Y-135672286D01*
X186520666Y-135672286D01*
X186423905Y-135720667D01*
X185794952Y-136349619D02*
X185891714Y-136301238D01*
X185940095Y-136252857D01*
X185988476Y-136156095D01*
X185988476Y-135865810D01*
X185940095Y-135769048D01*
X185891714Y-135720667D01*
X185794952Y-135672286D01*
X185649810Y-135672286D01*
X185553048Y-135720667D01*
X185504667Y-135769048D01*
X185456286Y-135865810D01*
X185456286Y-136156095D01*
X185504667Y-136252857D01*
X185553048Y-136301238D01*
X185649810Y-136349619D01*
X185794952Y-136349619D01*
X184585429Y-135672286D02*
X184585429Y-136349619D01*
X185020857Y-135672286D02*
X185020857Y-136204476D01*
X184972476Y-136301238D01*
X184875714Y-136349619D01*
X184730572Y-136349619D01*
X184633810Y-136301238D01*
X184585429Y-136252857D01*
X184101619Y-136349619D02*
X184101619Y-135672286D01*
X184101619Y-135865810D02*
X184053238Y-135769048D01*
X184004857Y-135720667D01*
X183908095Y-135672286D01*
X183811334Y-135672286D01*
X183037239Y-136301238D02*
X183134001Y-136349619D01*
X183327524Y-136349619D01*
X183424286Y-136301238D01*
X183472667Y-136252857D01*
X183521048Y-136156095D01*
X183521048Y-135865810D01*
X183472667Y-135769048D01*
X183424286Y-135720667D01*
X183327524Y-135672286D01*
X183134001Y-135672286D01*
X183037239Y-135720667D01*
X182214763Y-136301238D02*
X182311525Y-136349619D01*
X182505048Y-136349619D01*
X182601810Y-136301238D01*
X182650191Y-136204476D01*
X182650191Y-135817429D01*
X182601810Y-135720667D01*
X182505048Y-135672286D01*
X182311525Y-135672286D01*
X182214763Y-135720667D01*
X182166382Y-135817429D01*
X182166382Y-135914190D01*
X182650191Y-136010952D01*
D12*
G36*
X184381140Y-135501380D02*
X184421780Y-135481060D01*
X184510680Y-135425180D01*
X184637680Y-135341360D01*
X184787540Y-135239760D01*
X184937400Y-135138160D01*
X185061860Y-135056880D01*
X185150760Y-135001000D01*
X185186320Y-134980680D01*
X185204100Y-134985760D01*
X185277760Y-135021320D01*
X185381900Y-135074660D01*
X185440320Y-135107680D01*
X185536840Y-135148320D01*
X185585100Y-135155940D01*
X185592720Y-135143240D01*
X185628280Y-135069580D01*
X185681620Y-134945120D01*
X185755280Y-134780020D01*
X185836560Y-134586980D01*
X185925460Y-134378700D01*
X186014360Y-134165340D01*
X186098180Y-133962140D01*
X186171840Y-133779260D01*
X186232800Y-133631940D01*
X186270900Y-133530340D01*
X186286140Y-133484620D01*
X186281060Y-133474460D01*
X186232800Y-133428740D01*
X186148980Y-133365240D01*
X185971180Y-133220460D01*
X185790840Y-132996940D01*
X185684160Y-132745480D01*
X185648600Y-132466080D01*
X185679080Y-132204460D01*
X185780680Y-131955540D01*
X185953400Y-131732020D01*
X186166760Y-131564380D01*
X186413140Y-131457700D01*
X186690000Y-131424680D01*
X186954160Y-131455160D01*
X187210700Y-131554220D01*
X187434220Y-131726940D01*
X187528200Y-131836160D01*
X187660280Y-132062220D01*
X187733940Y-132306060D01*
X187744100Y-132369560D01*
X187731400Y-132636260D01*
X187652660Y-132892800D01*
X187510420Y-133121400D01*
X187314840Y-133309360D01*
X187291980Y-133327140D01*
X187200540Y-133395720D01*
X187139580Y-133441440D01*
X187091320Y-133482080D01*
X187431680Y-134302500D01*
X187487560Y-134432040D01*
X187579000Y-134655560D01*
X187662820Y-134848600D01*
X187728860Y-135003540D01*
X187772040Y-135105140D01*
X187792360Y-135145780D01*
X187794900Y-135148320D01*
X187825380Y-135153400D01*
X187888880Y-135133080D01*
X188003180Y-135077200D01*
X188079380Y-135036560D01*
X188165740Y-134995920D01*
X188203840Y-134980680D01*
X188236860Y-134998460D01*
X188320680Y-135051800D01*
X188442600Y-135133080D01*
X188589920Y-135232140D01*
X188729620Y-135328660D01*
X188859160Y-135412480D01*
X188953140Y-135473440D01*
X188996320Y-135496300D01*
X189003940Y-135496300D01*
X189044580Y-135475980D01*
X189118240Y-135412480D01*
X189230000Y-135308340D01*
X189387480Y-135150860D01*
X189412880Y-135128000D01*
X189542420Y-134995920D01*
X189649100Y-134884160D01*
X189717680Y-134805420D01*
X189743080Y-134769860D01*
X189743080Y-134769860D01*
X189720220Y-134724140D01*
X189661800Y-134632700D01*
X189575440Y-134500620D01*
X189473840Y-134348220D01*
X189202060Y-133954520D01*
X189349380Y-133581140D01*
X189395100Y-133469380D01*
X189453520Y-133329680D01*
X189496700Y-133230620D01*
X189519560Y-133187440D01*
X189560200Y-133174740D01*
X189661800Y-133149340D01*
X189809120Y-133118860D01*
X189986920Y-133085840D01*
X190154560Y-133055360D01*
X190306960Y-133027420D01*
X190416180Y-133004560D01*
X190464440Y-132994400D01*
X190477140Y-132986780D01*
X190487300Y-132963920D01*
X190492380Y-132913120D01*
X190497460Y-132819140D01*
X190497460Y-132674360D01*
X190497460Y-132466080D01*
X190497460Y-132443220D01*
X190497460Y-132242560D01*
X190492380Y-132082540D01*
X190487300Y-131978400D01*
X190479680Y-131937760D01*
X190479680Y-131937760D01*
X190433960Y-131925060D01*
X190324740Y-131902200D01*
X190174880Y-131871720D01*
X189992000Y-131838700D01*
X189981840Y-131836160D01*
X189801500Y-131800600D01*
X189651640Y-131770120D01*
X189544960Y-131744720D01*
X189499240Y-131732020D01*
X189491620Y-131719320D01*
X189453520Y-131648200D01*
X189402720Y-131536440D01*
X189344300Y-131401820D01*
X189285880Y-131259580D01*
X189232540Y-131132580D01*
X189199520Y-131036060D01*
X189189360Y-130992880D01*
X189189360Y-130992880D01*
X189217300Y-130949700D01*
X189278260Y-130855720D01*
X189367160Y-130726180D01*
X189471300Y-130573780D01*
X189478920Y-130561080D01*
X189583060Y-130408680D01*
X189666880Y-130281680D01*
X189722760Y-130187700D01*
X189743080Y-130147060D01*
X189743080Y-130144520D01*
X189710060Y-130098800D01*
X189631320Y-130012440D01*
X189519560Y-129895600D01*
X189387480Y-129760980D01*
X189344300Y-129720340D01*
X189196980Y-129575560D01*
X189092840Y-129481580D01*
X189029340Y-129430780D01*
X188998860Y-129420620D01*
X188998860Y-129420620D01*
X188953140Y-129448560D01*
X188856620Y-129512060D01*
X188724540Y-129598420D01*
X188572140Y-129705100D01*
X188559440Y-129712720D01*
X188407040Y-129814320D01*
X188280040Y-129900680D01*
X188191140Y-129961640D01*
X188150500Y-129984500D01*
X188145420Y-129984500D01*
X188081920Y-129966720D01*
X187975240Y-129928620D01*
X187840620Y-129875280D01*
X187700920Y-129819400D01*
X187571380Y-129766060D01*
X187474860Y-129722880D01*
X187431680Y-129697480D01*
X187429140Y-129694940D01*
X187413900Y-129639060D01*
X187388500Y-129524760D01*
X187355480Y-129369820D01*
X187319920Y-129181860D01*
X187314840Y-129151380D01*
X187279280Y-128971040D01*
X187251340Y-128821180D01*
X187228480Y-128717040D01*
X187218320Y-128673860D01*
X187192920Y-128668780D01*
X187104020Y-128661160D01*
X186969400Y-128658620D01*
X186804300Y-128656080D01*
X186631580Y-128658620D01*
X186463940Y-128661160D01*
X186321700Y-128666240D01*
X186217560Y-128673860D01*
X186174380Y-128681480D01*
X186174380Y-128684020D01*
X186156600Y-128739900D01*
X186133740Y-128854200D01*
X186100720Y-129014220D01*
X186065160Y-129199640D01*
X186057540Y-129232660D01*
X186024520Y-129413000D01*
X185994040Y-129562860D01*
X185971180Y-129664460D01*
X185961020Y-129705100D01*
X185943240Y-129712720D01*
X185869580Y-129745740D01*
X185747660Y-129796540D01*
X185597800Y-129857500D01*
X185247280Y-129997200D01*
X184820560Y-129705100D01*
X184782460Y-129679700D01*
X184627520Y-129573020D01*
X184500520Y-129489200D01*
X184414160Y-129433320D01*
X184378600Y-129413000D01*
X184373520Y-129413000D01*
X184330340Y-129451100D01*
X184246520Y-129529840D01*
X184132220Y-129644140D01*
X183995060Y-129776220D01*
X183896000Y-129877820D01*
X183779160Y-129997200D01*
X183705500Y-130078480D01*
X183664860Y-130129280D01*
X183649620Y-130159760D01*
X183652160Y-130182620D01*
X183680100Y-130225800D01*
X183743600Y-130319780D01*
X183832500Y-130449320D01*
X183934100Y-130601720D01*
X184020460Y-130726180D01*
X184114440Y-130870960D01*
X184175400Y-130972560D01*
X184195720Y-131023360D01*
X184190640Y-131043680D01*
X184160160Y-131127500D01*
X184109360Y-131254500D01*
X184045860Y-131404360D01*
X183896000Y-131742180D01*
X183675020Y-131785360D01*
X183540400Y-131810760D01*
X183352440Y-131846320D01*
X183172100Y-131881880D01*
X182890160Y-131937760D01*
X182880000Y-132969000D01*
X182925720Y-132986780D01*
X182966360Y-132999480D01*
X183070500Y-133022340D01*
X183217820Y-133050280D01*
X183393080Y-133083300D01*
X183542940Y-133111240D01*
X183692800Y-133141720D01*
X183802020Y-133162040D01*
X183850280Y-133172200D01*
X183862980Y-133187440D01*
X183901080Y-133261100D01*
X183951880Y-133377940D01*
X184012840Y-133515100D01*
X184073800Y-133659880D01*
X184127140Y-133794500D01*
X184162700Y-133896100D01*
X184177940Y-133949440D01*
X184155080Y-133987540D01*
X184099200Y-134076440D01*
X184015380Y-134203440D01*
X183913780Y-134350760D01*
X183812180Y-134500620D01*
X183725820Y-134630160D01*
X183664860Y-134721600D01*
X183639460Y-134762240D01*
X183652160Y-134792720D01*
X183713120Y-134863840D01*
X183824880Y-134980680D01*
X183992520Y-135148320D01*
X184020460Y-135173720D01*
X184155080Y-135303260D01*
X184266840Y-135407400D01*
X184345580Y-135475980D01*
X184381140Y-135501380D01*
X184381140Y-135501380D01*
G37*
X184381140Y-135501380D02*
X184421780Y-135481060D01*
X184510680Y-135425180D01*
X184637680Y-135341360D01*
X184787540Y-135239760D01*
X184937400Y-135138160D01*
X185061860Y-135056880D01*
X185150760Y-135001000D01*
X185186320Y-134980680D01*
X185204100Y-134985760D01*
X185277760Y-135021320D01*
X185381900Y-135074660D01*
X185440320Y-135107680D01*
X185536840Y-135148320D01*
X185585100Y-135155940D01*
X185592720Y-135143240D01*
X185628280Y-135069580D01*
X185681620Y-134945120D01*
X185755280Y-134780020D01*
X185836560Y-134586980D01*
X185925460Y-134378700D01*
X186014360Y-134165340D01*
X186098180Y-133962140D01*
X186171840Y-133779260D01*
X186232800Y-133631940D01*
X186270900Y-133530340D01*
X186286140Y-133484620D01*
X186281060Y-133474460D01*
X186232800Y-133428740D01*
X186148980Y-133365240D01*
X185971180Y-133220460D01*
X185790840Y-132996940D01*
X185684160Y-132745480D01*
X185648600Y-132466080D01*
X185679080Y-132204460D01*
X185780680Y-131955540D01*
X185953400Y-131732020D01*
X186166760Y-131564380D01*
X186413140Y-131457700D01*
X186690000Y-131424680D01*
X186954160Y-131455160D01*
X187210700Y-131554220D01*
X187434220Y-131726940D01*
X187528200Y-131836160D01*
X187660280Y-132062220D01*
X187733940Y-132306060D01*
X187744100Y-132369560D01*
X187731400Y-132636260D01*
X187652660Y-132892800D01*
X187510420Y-133121400D01*
X187314840Y-133309360D01*
X187291980Y-133327140D01*
X187200540Y-133395720D01*
X187139580Y-133441440D01*
X187091320Y-133482080D01*
X187431680Y-134302500D01*
X187487560Y-134432040D01*
X187579000Y-134655560D01*
X187662820Y-134848600D01*
X187728860Y-135003540D01*
X187772040Y-135105140D01*
X187792360Y-135145780D01*
X187794900Y-135148320D01*
X187825380Y-135153400D01*
X187888880Y-135133080D01*
X188003180Y-135077200D01*
X188079380Y-135036560D01*
X188165740Y-134995920D01*
X188203840Y-134980680D01*
X188236860Y-134998460D01*
X188320680Y-135051800D01*
X188442600Y-135133080D01*
X188589920Y-135232140D01*
X188729620Y-135328660D01*
X188859160Y-135412480D01*
X188953140Y-135473440D01*
X188996320Y-135496300D01*
X189003940Y-135496300D01*
X189044580Y-135475980D01*
X189118240Y-135412480D01*
X189230000Y-135308340D01*
X189387480Y-135150860D01*
X189412880Y-135128000D01*
X189542420Y-134995920D01*
X189649100Y-134884160D01*
X189717680Y-134805420D01*
X189743080Y-134769860D01*
X189743080Y-134769860D01*
X189720220Y-134724140D01*
X189661800Y-134632700D01*
X189575440Y-134500620D01*
X189473840Y-134348220D01*
X189202060Y-133954520D01*
X189349380Y-133581140D01*
X189395100Y-133469380D01*
X189453520Y-133329680D01*
X189496700Y-133230620D01*
X189519560Y-133187440D01*
X189560200Y-133174740D01*
X189661800Y-133149340D01*
X189809120Y-133118860D01*
X189986920Y-133085840D01*
X190154560Y-133055360D01*
X190306960Y-133027420D01*
X190416180Y-133004560D01*
X190464440Y-132994400D01*
X190477140Y-132986780D01*
X190487300Y-132963920D01*
X190492380Y-132913120D01*
X190497460Y-132819140D01*
X190497460Y-132674360D01*
X190497460Y-132466080D01*
X190497460Y-132443220D01*
X190497460Y-132242560D01*
X190492380Y-132082540D01*
X190487300Y-131978400D01*
X190479680Y-131937760D01*
X190479680Y-131937760D01*
X190433960Y-131925060D01*
X190324740Y-131902200D01*
X190174880Y-131871720D01*
X189992000Y-131838700D01*
X189981840Y-131836160D01*
X189801500Y-131800600D01*
X189651640Y-131770120D01*
X189544960Y-131744720D01*
X189499240Y-131732020D01*
X189491620Y-131719320D01*
X189453520Y-131648200D01*
X189402720Y-131536440D01*
X189344300Y-131401820D01*
X189285880Y-131259580D01*
X189232540Y-131132580D01*
X189199520Y-131036060D01*
X189189360Y-130992880D01*
X189189360Y-130992880D01*
X189217300Y-130949700D01*
X189278260Y-130855720D01*
X189367160Y-130726180D01*
X189471300Y-130573780D01*
X189478920Y-130561080D01*
X189583060Y-130408680D01*
X189666880Y-130281680D01*
X189722760Y-130187700D01*
X189743080Y-130147060D01*
X189743080Y-130144520D01*
X189710060Y-130098800D01*
X189631320Y-130012440D01*
X189519560Y-129895600D01*
X189387480Y-129760980D01*
X189344300Y-129720340D01*
X189196980Y-129575560D01*
X189092840Y-129481580D01*
X189029340Y-129430780D01*
X188998860Y-129420620D01*
X188998860Y-129420620D01*
X188953140Y-129448560D01*
X188856620Y-129512060D01*
X188724540Y-129598420D01*
X188572140Y-129705100D01*
X188559440Y-129712720D01*
X188407040Y-129814320D01*
X188280040Y-129900680D01*
X188191140Y-129961640D01*
X188150500Y-129984500D01*
X188145420Y-129984500D01*
X188081920Y-129966720D01*
X187975240Y-129928620D01*
X187840620Y-129875280D01*
X187700920Y-129819400D01*
X187571380Y-129766060D01*
X187474860Y-129722880D01*
X187431680Y-129697480D01*
X187429140Y-129694940D01*
X187413900Y-129639060D01*
X187388500Y-129524760D01*
X187355480Y-129369820D01*
X187319920Y-129181860D01*
X187314840Y-129151380D01*
X187279280Y-128971040D01*
X187251340Y-128821180D01*
X187228480Y-128717040D01*
X187218320Y-128673860D01*
X187192920Y-128668780D01*
X187104020Y-128661160D01*
X186969400Y-128658620D01*
X186804300Y-128656080D01*
X186631580Y-128658620D01*
X186463940Y-128661160D01*
X186321700Y-128666240D01*
X186217560Y-128673860D01*
X186174380Y-128681480D01*
X186174380Y-128684020D01*
X186156600Y-128739900D01*
X186133740Y-128854200D01*
X186100720Y-129014220D01*
X186065160Y-129199640D01*
X186057540Y-129232660D01*
X186024520Y-129413000D01*
X185994040Y-129562860D01*
X185971180Y-129664460D01*
X185961020Y-129705100D01*
X185943240Y-129712720D01*
X185869580Y-129745740D01*
X185747660Y-129796540D01*
X185597800Y-129857500D01*
X185247280Y-129997200D01*
X184820560Y-129705100D01*
X184782460Y-129679700D01*
X184627520Y-129573020D01*
X184500520Y-129489200D01*
X184414160Y-129433320D01*
X184378600Y-129413000D01*
X184373520Y-129413000D01*
X184330340Y-129451100D01*
X184246520Y-129529840D01*
X184132220Y-129644140D01*
X183995060Y-129776220D01*
X183896000Y-129877820D01*
X183779160Y-129997200D01*
X183705500Y-130078480D01*
X183664860Y-130129280D01*
X183649620Y-130159760D01*
X183652160Y-130182620D01*
X183680100Y-130225800D01*
X183743600Y-130319780D01*
X183832500Y-130449320D01*
X183934100Y-130601720D01*
X184020460Y-130726180D01*
X184114440Y-130870960D01*
X184175400Y-130972560D01*
X184195720Y-131023360D01*
X184190640Y-131043680D01*
X184160160Y-131127500D01*
X184109360Y-131254500D01*
X184045860Y-131404360D01*
X183896000Y-131742180D01*
X183675020Y-131785360D01*
X183540400Y-131810760D01*
X183352440Y-131846320D01*
X183172100Y-131881880D01*
X182890160Y-131937760D01*
X182880000Y-132969000D01*
X182925720Y-132986780D01*
X182966360Y-132999480D01*
X183070500Y-133022340D01*
X183217820Y-133050280D01*
X183393080Y-133083300D01*
X183542940Y-133111240D01*
X183692800Y-133141720D01*
X183802020Y-133162040D01*
X183850280Y-133172200D01*
X183862980Y-133187440D01*
X183901080Y-133261100D01*
X183951880Y-133377940D01*
X184012840Y-133515100D01*
X184073800Y-133659880D01*
X184127140Y-133794500D01*
X184162700Y-133896100D01*
X184177940Y-133949440D01*
X184155080Y-133987540D01*
X184099200Y-134076440D01*
X184015380Y-134203440D01*
X183913780Y-134350760D01*
X183812180Y-134500620D01*
X183725820Y-134630160D01*
X183664860Y-134721600D01*
X183639460Y-134762240D01*
X183652160Y-134792720D01*
X183713120Y-134863840D01*
X183824880Y-134980680D01*
X183992520Y-135148320D01*
X184020460Y-135173720D01*
X184155080Y-135303260D01*
X184266840Y-135407400D01*
X184345580Y-135475980D01*
X184381140Y-135501380D01*
M02*
