%FSLAX46Y46*%
G04 Gerber Fmt 4.6, Leading zero omitted, Abs format (unit mm)*
G04 Created by KiCad (PCBNEW (2014-jul-16 BZR unknown)-product) date Fri 03 Oct 2014 04:25:25 PM PDT*
%MOMM*%
G01*
G04 APERTURE LIST*
%ADD10C,0.100000*%
%ADD11C,0.203200*%
%ADD12C,0.381000*%
%ADD13C,0.304800*%
%ADD14C,0.254000*%
%ADD15C,0.150000*%
G04 APERTURE END LIST*
D10*
D11*
X181997047Y-148662571D02*
X181222952Y-148662571D01*
X181610000Y-149049619D02*
X181610000Y-148275524D01*
X190658447Y-148825131D02*
X189884352Y-148825131D01*
X190271400Y-149212179D02*
X190271400Y-148438084D01*
X169545000Y-115570000D02*
X171450000Y-115570000D01*
X180340000Y-139700000D02*
X179070000Y-138430000D01*
X161719381Y-102694619D02*
X161380715Y-102210810D01*
X161138810Y-102694619D02*
X161138810Y-101678619D01*
X161525857Y-101678619D01*
X161622619Y-101727000D01*
X161671000Y-101775381D01*
X161719381Y-101872143D01*
X161719381Y-102017286D01*
X161671000Y-102114048D01*
X161622619Y-102162429D01*
X161525857Y-102210810D01*
X161138810Y-102210810D01*
X162154810Y-102162429D02*
X162493476Y-102162429D01*
X162638619Y-102694619D02*
X162154810Y-102694619D01*
X162154810Y-101678619D01*
X162638619Y-101678619D01*
X163025667Y-102646238D02*
X163170810Y-102694619D01*
X163412714Y-102694619D01*
X163509476Y-102646238D01*
X163557857Y-102597857D01*
X163606238Y-102501095D01*
X163606238Y-102404333D01*
X163557857Y-102307571D01*
X163509476Y-102259190D01*
X163412714Y-102210810D01*
X163219191Y-102162429D01*
X163122429Y-102114048D01*
X163074048Y-102065667D01*
X163025667Y-101968905D01*
X163025667Y-101872143D01*
X163074048Y-101775381D01*
X163122429Y-101727000D01*
X163219191Y-101678619D01*
X163461095Y-101678619D01*
X163606238Y-101727000D01*
X164041667Y-102162429D02*
X164380333Y-102162429D01*
X164525476Y-102694619D02*
X164041667Y-102694619D01*
X164041667Y-101678619D01*
X164525476Y-101678619D01*
X164815762Y-101678619D02*
X165396333Y-101678619D01*
X165106048Y-102694619D02*
X165106048Y-101678619D01*
X161925000Y-133985000D02*
X161290000Y-133350000D01*
X161925000Y-134620000D02*
X161925000Y-133985000D01*
X161290000Y-135255000D02*
X161925000Y-134620000D01*
X161925000Y-137795000D02*
X161290000Y-137160000D01*
X161925000Y-138430000D02*
X161925000Y-137795000D01*
X161290000Y-139065000D02*
X161925000Y-138430000D01*
X100000000Y-150000000D02*
X100000000Y-100000000D01*
X200000000Y-150000000D02*
X100000000Y-150000000D01*
X200000000Y-100000000D02*
X200000000Y-150000000D01*
X100000000Y-100000000D02*
X200000000Y-100000000D01*
X107610730Y-149012729D02*
X107755873Y-149061110D01*
X107804254Y-149109490D01*
X107852635Y-149206252D01*
X107852635Y-149351395D01*
X107804254Y-149448157D01*
X107755873Y-149496538D01*
X107659111Y-149544919D01*
X107272064Y-149544919D01*
X107272064Y-148528919D01*
X107610730Y-148528919D01*
X107707492Y-148577300D01*
X107755873Y-148625681D01*
X107804254Y-148722443D01*
X107804254Y-148819205D01*
X107755873Y-148915967D01*
X107707492Y-148964348D01*
X107610730Y-149012729D01*
X107272064Y-149012729D01*
X108288064Y-148528919D02*
X108288064Y-149351395D01*
X108336445Y-149448157D01*
X108384826Y-149496538D01*
X108481588Y-149544919D01*
X108675111Y-149544919D01*
X108771873Y-149496538D01*
X108820254Y-149448157D01*
X108868635Y-149351395D01*
X108868635Y-148528919D01*
X109304064Y-149496538D02*
X109449207Y-149544919D01*
X109691111Y-149544919D01*
X109787873Y-149496538D01*
X109836254Y-149448157D01*
X109884635Y-149351395D01*
X109884635Y-149254633D01*
X109836254Y-149157871D01*
X109787873Y-149109490D01*
X109691111Y-149061110D01*
X109497588Y-149012729D01*
X109400826Y-148964348D01*
X109352445Y-148915967D01*
X109304064Y-148819205D01*
X109304064Y-148722443D01*
X109352445Y-148625681D01*
X109400826Y-148577300D01*
X109497588Y-148528919D01*
X109739492Y-148528919D01*
X109884635Y-148577300D01*
X110078159Y-149641681D02*
X110852254Y-149641681D01*
X111432825Y-149012729D02*
X111577968Y-149061110D01*
X111626349Y-149109490D01*
X111674730Y-149206252D01*
X111674730Y-149351395D01*
X111626349Y-149448157D01*
X111577968Y-149496538D01*
X111481206Y-149544919D01*
X111094159Y-149544919D01*
X111094159Y-148528919D01*
X111432825Y-148528919D01*
X111529587Y-148577300D01*
X111577968Y-148625681D01*
X111626349Y-148722443D01*
X111626349Y-148819205D01*
X111577968Y-148915967D01*
X111529587Y-148964348D01*
X111432825Y-149012729D01*
X111094159Y-149012729D01*
X112690730Y-149544919D02*
X112352064Y-149061110D01*
X112110159Y-149544919D02*
X112110159Y-148528919D01*
X112497206Y-148528919D01*
X112593968Y-148577300D01*
X112642349Y-148625681D01*
X112690730Y-148722443D01*
X112690730Y-148867586D01*
X112642349Y-148964348D01*
X112593968Y-149012729D01*
X112497206Y-149061110D01*
X112110159Y-149061110D01*
X113126159Y-149544919D02*
X113126159Y-148528919D01*
X113609969Y-149544919D02*
X113609969Y-148528919D01*
X113851874Y-148528919D01*
X113997016Y-148577300D01*
X114093778Y-148674062D01*
X114142159Y-148770824D01*
X114190540Y-148964348D01*
X114190540Y-149109490D01*
X114142159Y-149303014D01*
X114093778Y-149399776D01*
X113997016Y-149496538D01*
X113851874Y-149544919D01*
X113609969Y-149544919D01*
X115158159Y-148577300D02*
X115061397Y-148528919D01*
X114916254Y-148528919D01*
X114771112Y-148577300D01*
X114674350Y-148674062D01*
X114625969Y-148770824D01*
X114577588Y-148964348D01*
X114577588Y-149109490D01*
X114625969Y-149303014D01*
X114674350Y-149399776D01*
X114771112Y-149496538D01*
X114916254Y-149544919D01*
X115013016Y-149544919D01*
X115158159Y-149496538D01*
X115206540Y-149448157D01*
X115206540Y-149109490D01*
X115013016Y-149109490D01*
X115641969Y-149012729D02*
X115980635Y-149012729D01*
X116125778Y-149544919D02*
X115641969Y-149544919D01*
X115641969Y-148528919D01*
X116125778Y-148528919D01*
X116319302Y-149641681D02*
X117093397Y-149641681D01*
X117335302Y-149012729D02*
X117673968Y-149012729D01*
X117819111Y-149544919D02*
X117335302Y-149544919D01*
X117335302Y-148528919D01*
X117819111Y-148528919D01*
X118254540Y-149544919D02*
X118254540Y-148528919D01*
X118835111Y-149544919D01*
X118835111Y-148528919D01*
X119899492Y-149448157D02*
X119851111Y-149496538D01*
X119705968Y-149544919D01*
X119609206Y-149544919D01*
X119464064Y-149496538D01*
X119367302Y-149399776D01*
X119318921Y-149303014D01*
X119270540Y-149109490D01*
X119270540Y-148964348D01*
X119318921Y-148770824D01*
X119367302Y-148674062D01*
X119464064Y-148577300D01*
X119609206Y-148528919D01*
X119705968Y-148528919D01*
X119851111Y-148577300D01*
X119899492Y-148625681D01*
X120528445Y-148528919D02*
X120721968Y-148528919D01*
X120818730Y-148577300D01*
X120915492Y-148674062D01*
X120963873Y-148867586D01*
X120963873Y-149206252D01*
X120915492Y-149399776D01*
X120818730Y-149496538D01*
X120721968Y-149544919D01*
X120528445Y-149544919D01*
X120431683Y-149496538D01*
X120334921Y-149399776D01*
X120286540Y-149206252D01*
X120286540Y-148867586D01*
X120334921Y-148674062D01*
X120431683Y-148577300D01*
X120528445Y-148528919D01*
X121399302Y-149544919D02*
X121399302Y-148528919D01*
X121641207Y-148528919D01*
X121786349Y-148577300D01*
X121883111Y-148674062D01*
X121931492Y-148770824D01*
X121979873Y-148964348D01*
X121979873Y-149109490D01*
X121931492Y-149303014D01*
X121883111Y-149399776D01*
X121786349Y-149496538D01*
X121641207Y-149544919D01*
X121399302Y-149544919D01*
X122415302Y-149012729D02*
X122753968Y-149012729D01*
X122899111Y-149544919D02*
X122415302Y-149544919D01*
X122415302Y-148528919D01*
X122899111Y-148528919D01*
X123915111Y-149544919D02*
X123576445Y-149061110D01*
X123334540Y-149544919D02*
X123334540Y-148528919D01*
X123721587Y-148528919D01*
X123818349Y-148577300D01*
X123866730Y-148625681D01*
X123915111Y-148722443D01*
X123915111Y-148867586D01*
X123866730Y-148964348D01*
X123818349Y-149012729D01*
X123721587Y-149061110D01*
X123334540Y-149061110D01*
X124302159Y-149496538D02*
X124447302Y-149544919D01*
X124689206Y-149544919D01*
X124785968Y-149496538D01*
X124834349Y-149448157D01*
X124882730Y-149351395D01*
X124882730Y-149254633D01*
X124834349Y-149157871D01*
X124785968Y-149109490D01*
X124689206Y-149061110D01*
X124495683Y-149012729D01*
X124398921Y-148964348D01*
X124350540Y-148915967D01*
X124302159Y-148819205D01*
X124302159Y-148722443D01*
X124350540Y-148625681D01*
X124398921Y-148577300D01*
X124495683Y-148528919D01*
X124737587Y-148528919D01*
X124882730Y-148577300D01*
X125076254Y-149641681D02*
X125850349Y-149641681D01*
X126043873Y-149496538D02*
X126189016Y-149544919D01*
X126430920Y-149544919D01*
X126527682Y-149496538D01*
X126576063Y-149448157D01*
X126624444Y-149351395D01*
X126624444Y-149254633D01*
X126576063Y-149157871D01*
X126527682Y-149109490D01*
X126430920Y-149061110D01*
X126237397Y-149012729D01*
X126140635Y-148964348D01*
X126092254Y-148915967D01*
X126043873Y-148819205D01*
X126043873Y-148722443D01*
X126092254Y-148625681D01*
X126140635Y-148577300D01*
X126237397Y-148528919D01*
X126479301Y-148528919D01*
X126624444Y-148577300D01*
X127059873Y-149544919D02*
X127059873Y-148528919D01*
X127059873Y-149012729D02*
X127640444Y-149012729D01*
X127640444Y-149544919D02*
X127640444Y-148528919D01*
X128075873Y-149254633D02*
X128559682Y-149254633D01*
X127979111Y-149544919D02*
X128317778Y-148528919D01*
X128656444Y-149544919D01*
X129333777Y-149012729D02*
X128995111Y-149012729D01*
X128995111Y-149544919D02*
X128995111Y-148528919D01*
X129478920Y-148528919D01*
X129720825Y-148528919D02*
X130301396Y-148528919D01*
X130011111Y-149544919D02*
X130011111Y-148528919D01*
X131994729Y-149544919D02*
X131656063Y-149061110D01*
X131414158Y-149544919D02*
X131414158Y-148528919D01*
X131801205Y-148528919D01*
X131897967Y-148577300D01*
X131946348Y-148625681D01*
X131994729Y-148722443D01*
X131994729Y-148867586D01*
X131946348Y-148964348D01*
X131897967Y-149012729D01*
X131801205Y-149061110D01*
X131414158Y-149061110D01*
X132430158Y-149012729D02*
X132768824Y-149012729D01*
X132913967Y-149544919D02*
X132430158Y-149544919D01*
X132430158Y-148528919D01*
X132913967Y-148528919D01*
X133204253Y-148528919D02*
X133542920Y-149544919D01*
X133881586Y-148528919D01*
X134220253Y-149448157D02*
X134268634Y-149496538D01*
X134220253Y-149544919D01*
X134171872Y-149496538D01*
X134220253Y-149448157D01*
X134220253Y-149544919D01*
X135816824Y-149012729D02*
X135961967Y-149061110D01*
X136010348Y-149109490D01*
X136058729Y-149206252D01*
X136058729Y-149351395D01*
X136010348Y-149448157D01*
X135961967Y-149496538D01*
X135865205Y-149544919D01*
X135478158Y-149544919D01*
X135478158Y-148528919D01*
X135816824Y-148528919D01*
X135913586Y-148577300D01*
X135961967Y-148625681D01*
X136010348Y-148722443D01*
X136010348Y-148819205D01*
X135961967Y-148915967D01*
X135913586Y-148964348D01*
X135816824Y-149012729D01*
X135478158Y-149012729D01*
X137171491Y-148528919D02*
X137800443Y-148528919D01*
X137461777Y-148915967D01*
X137606919Y-148915967D01*
X137703681Y-148964348D01*
X137752062Y-149012729D01*
X137800443Y-149109490D01*
X137800443Y-149351395D01*
X137752062Y-149448157D01*
X137703681Y-149496538D01*
X137606919Y-149544919D01*
X137316634Y-149544919D01*
X137219872Y-149496538D01*
X137171491Y-149448157D01*
X138429396Y-148528919D02*
X138622919Y-148528919D01*
X138719681Y-148577300D01*
X138816443Y-148674062D01*
X138864824Y-148867586D01*
X138864824Y-149206252D01*
X138816443Y-149399776D01*
X138719681Y-149496538D01*
X138622919Y-149544919D01*
X138429396Y-149544919D01*
X138332634Y-149496538D01*
X138235872Y-149399776D01*
X138187491Y-149206252D01*
X138187491Y-148867586D01*
X138235872Y-148674062D01*
X138332634Y-148577300D01*
X138429396Y-148528919D01*
X139880824Y-149448157D02*
X139832443Y-149496538D01*
X139687300Y-149544919D01*
X139590538Y-149544919D01*
X139445396Y-149496538D01*
X139348634Y-149399776D01*
X139300253Y-149303014D01*
X139251872Y-149109490D01*
X139251872Y-148964348D01*
X139300253Y-148770824D01*
X139348634Y-148674062D01*
X139445396Y-148577300D01*
X139590538Y-148528919D01*
X139687300Y-148528919D01*
X139832443Y-148577300D01*
X139880824Y-148625681D01*
X140171110Y-148528919D02*
X140751681Y-148528919D01*
X140461396Y-149544919D02*
X140461396Y-148528919D01*
X141041967Y-148625681D02*
X141090348Y-148577300D01*
X141187110Y-148528919D01*
X141429014Y-148528919D01*
X141525776Y-148577300D01*
X141574157Y-148625681D01*
X141622538Y-148722443D01*
X141622538Y-148819205D01*
X141574157Y-148964348D01*
X140993586Y-149544919D01*
X141622538Y-149544919D01*
X142251491Y-148528919D02*
X142348252Y-148528919D01*
X142445014Y-148577300D01*
X142493395Y-148625681D01*
X142541776Y-148722443D01*
X142590157Y-148915967D01*
X142590157Y-149157871D01*
X142541776Y-149351395D01*
X142493395Y-149448157D01*
X142445014Y-149496538D01*
X142348252Y-149544919D01*
X142251491Y-149544919D01*
X142154729Y-149496538D01*
X142106348Y-149448157D01*
X142057967Y-149351395D01*
X142009586Y-149157871D01*
X142009586Y-148915967D01*
X142057967Y-148722443D01*
X142106348Y-148625681D01*
X142154729Y-148577300D01*
X142251491Y-148528919D01*
X143557776Y-149544919D02*
X142977205Y-149544919D01*
X143267491Y-149544919D02*
X143267491Y-148528919D01*
X143170729Y-148674062D01*
X143073967Y-148770824D01*
X142977205Y-148819205D01*
X144428633Y-148867586D02*
X144428633Y-149544919D01*
X144186729Y-148480538D02*
X143944824Y-149206252D01*
X144573776Y-149206252D01*
X146025204Y-149931967D02*
X145976824Y-149883586D01*
X145880062Y-149738443D01*
X145831681Y-149641681D01*
X145783300Y-149496538D01*
X145734919Y-149254633D01*
X145734919Y-149061110D01*
X145783300Y-148819205D01*
X145831681Y-148674062D01*
X145880062Y-148577300D01*
X145976824Y-148432157D01*
X146025204Y-148383776D01*
X146992823Y-149448157D02*
X146944442Y-149496538D01*
X146799299Y-149544919D01*
X146702537Y-149544919D01*
X146557395Y-149496538D01*
X146460633Y-149399776D01*
X146412252Y-149303014D01*
X146363871Y-149109490D01*
X146363871Y-148964348D01*
X146412252Y-148770824D01*
X146460633Y-148674062D01*
X146557395Y-148577300D01*
X146702537Y-148528919D01*
X146799299Y-148528919D01*
X146944442Y-148577300D01*
X146992823Y-148625681D01*
X147331490Y-149931967D02*
X147379871Y-149883586D01*
X147476633Y-149738443D01*
X147525014Y-149641681D01*
X147573395Y-149496538D01*
X147621776Y-149254633D01*
X147621776Y-149061110D01*
X147573395Y-148819205D01*
X147525014Y-148674062D01*
X147476633Y-148577300D01*
X147379871Y-148432157D01*
X147331490Y-148383776D01*
X149411870Y-148577300D02*
X149315108Y-148528919D01*
X149169965Y-148528919D01*
X149024823Y-148577300D01*
X148928061Y-148674062D01*
X148879680Y-148770824D01*
X148831299Y-148964348D01*
X148831299Y-149109490D01*
X148879680Y-149303014D01*
X148928061Y-149399776D01*
X149024823Y-149496538D01*
X149169965Y-149544919D01*
X149266727Y-149544919D01*
X149411870Y-149496538D01*
X149460251Y-149448157D01*
X149460251Y-149109490D01*
X149266727Y-149109490D01*
X150476251Y-149544919D02*
X150137585Y-149061110D01*
X149895680Y-149544919D02*
X149895680Y-148528919D01*
X150282727Y-148528919D01*
X150379489Y-148577300D01*
X150427870Y-148625681D01*
X150476251Y-148722443D01*
X150476251Y-148867586D01*
X150427870Y-148964348D01*
X150379489Y-149012729D01*
X150282727Y-149061110D01*
X149895680Y-149061110D01*
X150863299Y-149254633D02*
X151347108Y-149254633D01*
X150766537Y-149544919D02*
X151105204Y-148528919D01*
X151443870Y-149544919D01*
X151782537Y-149544919D02*
X151782537Y-148528919D01*
X152121203Y-149254633D01*
X152459870Y-148528919D01*
X152459870Y-149544919D01*
X153427489Y-149544919D02*
X152943680Y-149544919D01*
X152943680Y-148528919D01*
X153766156Y-149544919D02*
X153766156Y-148528919D01*
X154830537Y-149448157D02*
X154782156Y-149496538D01*
X154637013Y-149544919D01*
X154540251Y-149544919D01*
X154395109Y-149496538D01*
X154298347Y-149399776D01*
X154249966Y-149303014D01*
X154201585Y-149109490D01*
X154201585Y-148964348D01*
X154249966Y-148770824D01*
X154298347Y-148674062D01*
X154395109Y-148577300D01*
X154540251Y-148528919D01*
X154637013Y-148528919D01*
X154782156Y-148577300D01*
X154830537Y-148625681D01*
X155265966Y-149544919D02*
X155265966Y-148528919D01*
X155265966Y-149012729D02*
X155846537Y-149012729D01*
X155846537Y-149544919D02*
X155846537Y-148528919D01*
X101890286Y-114124619D02*
X101309715Y-114124619D01*
X101600001Y-114124619D02*
X101600001Y-113108619D01*
X101503239Y-113253762D01*
X101406477Y-113350524D01*
X101309715Y-113398905D01*
X135037286Y-104980619D02*
X134456715Y-104980619D01*
X134747001Y-104980619D02*
X134747001Y-103964619D01*
X134650239Y-104109762D01*
X134553477Y-104206524D01*
X134456715Y-104254905D01*
X103887210Y-139031859D02*
X104080733Y-139031859D01*
X104177495Y-139080240D01*
X104274257Y-139177002D01*
X104322638Y-139370526D01*
X104322638Y-139709192D01*
X104274257Y-139902716D01*
X104177495Y-139999478D01*
X104080733Y-140047859D01*
X103887210Y-140047859D01*
X103790448Y-139999478D01*
X103693686Y-139902716D01*
X103645305Y-139709192D01*
X103645305Y-139370526D01*
X103693686Y-139177002D01*
X103790448Y-139080240D01*
X103887210Y-139031859D01*
X105096733Y-139515669D02*
X104758067Y-139515669D01*
X104758067Y-140047859D02*
X104758067Y-139031859D01*
X105241876Y-139031859D01*
X105967590Y-139515669D02*
X105628924Y-139515669D01*
X105628924Y-140047859D02*
X105628924Y-139031859D01*
X106112733Y-139031859D01*
X107225495Y-138983478D02*
X106354638Y-140289764D01*
X107757686Y-139031859D02*
X107951209Y-139031859D01*
X108047971Y-139080240D01*
X108144733Y-139177002D01*
X108193114Y-139370526D01*
X108193114Y-139709192D01*
X108144733Y-139902716D01*
X108047971Y-139999478D01*
X107951209Y-140047859D01*
X107757686Y-140047859D01*
X107660924Y-139999478D01*
X107564162Y-139902716D01*
X107515781Y-139709192D01*
X107515781Y-139370526D01*
X107564162Y-139177002D01*
X107660924Y-139080240D01*
X107757686Y-139031859D01*
X108628543Y-140047859D02*
X108628543Y-139031859D01*
X109209114Y-140047859D01*
X109209114Y-139031859D01*
X143165286Y-147144619D02*
X142584715Y-147144619D01*
X142875001Y-147144619D02*
X142875001Y-146128619D01*
X142778239Y-146273762D01*
X142681477Y-146370524D01*
X142584715Y-146418905D01*
X123226286Y-147271619D02*
X122645715Y-147271619D01*
X122936001Y-147271619D02*
X122936001Y-146255619D01*
X122839239Y-146400762D01*
X122742477Y-146497524D01*
X122645715Y-146545905D01*
X111796286Y-147652619D02*
X111215715Y-147652619D01*
X111506001Y-147652619D02*
X111506001Y-146636619D01*
X111409239Y-146781762D01*
X111312477Y-146878524D01*
X111215715Y-146926905D01*
X197370095Y-133912429D02*
X197515238Y-133960810D01*
X197563619Y-134009190D01*
X197612000Y-134105952D01*
X197612000Y-134251095D01*
X197563619Y-134347857D01*
X197515238Y-134396238D01*
X197418476Y-134444619D01*
X197031429Y-134444619D01*
X197031429Y-133428619D01*
X197370095Y-133428619D01*
X197466857Y-133477000D01*
X197515238Y-133525381D01*
X197563619Y-133622143D01*
X197563619Y-133718905D01*
X197515238Y-133815667D01*
X197466857Y-133864048D01*
X197370095Y-133912429D01*
X197031429Y-133912429D01*
X197999048Y-134154333D02*
X198482857Y-134154333D01*
X197902286Y-134444619D02*
X198240953Y-133428619D01*
X198579619Y-134444619D01*
X198773143Y-133428619D02*
X199353714Y-133428619D01*
X199063429Y-134444619D02*
X199063429Y-133428619D01*
X196614143Y-128977571D02*
X197388238Y-128977571D01*
X197001190Y-129364619D02*
X197001190Y-128590524D01*
X198355857Y-128348619D02*
X197872048Y-128348619D01*
X197823667Y-128832429D01*
X197872048Y-128784048D01*
X197968810Y-128735667D01*
X198210714Y-128735667D01*
X198307476Y-128784048D01*
X198355857Y-128832429D01*
X198404238Y-128929190D01*
X198404238Y-129171095D01*
X198355857Y-129267857D01*
X198307476Y-129316238D01*
X198210714Y-129364619D01*
X197968810Y-129364619D01*
X197872048Y-129316238D01*
X197823667Y-129267857D01*
X174377047Y-130374571D02*
X173602952Y-130374571D01*
X173990000Y-130761619D02*
X173990000Y-129987524D01*
X174504047Y-141423571D02*
X173729952Y-141423571D01*
X110242047Y-101672571D02*
X109467952Y-101672571D01*
X109855000Y-102059619D02*
X109855000Y-101285524D01*
X109607047Y-113737571D02*
X108832952Y-113737571D01*
X109220000Y-114124619D02*
X109220000Y-113350524D01*
D12*
X185547000Y-145415000D02*
X181483000Y-145415000D01*
X181483000Y-147955000D02*
X185547000Y-147955000D01*
D13*
X180340000Y-144729200D02*
X180340000Y-139700000D01*
X180340000Y-139700000D02*
X182880000Y-139700000D01*
X182880000Y-139700000D02*
X182880000Y-144780000D01*
X182880000Y-144780000D02*
X180340000Y-144780000D01*
X180975000Y-144780000D02*
X180340000Y-144145000D01*
D12*
X186563000Y-147955000D02*
X190627000Y-147955000D01*
X190627000Y-145415000D02*
X186563000Y-145415000D01*
D13*
X196215000Y-121335800D02*
X196215000Y-126365000D01*
X196215000Y-126365000D02*
X193675000Y-126365000D01*
X193675000Y-126365000D02*
X193675000Y-121285000D01*
X193675000Y-121285000D02*
X196215000Y-121285000D01*
X195580000Y-121285000D02*
X196215000Y-121920000D01*
X137160000Y-126415800D02*
X137160000Y-131445000D01*
X137160000Y-131445000D02*
X134620000Y-131445000D01*
X134620000Y-131445000D02*
X134620000Y-126365000D01*
X134620000Y-126365000D02*
X137160000Y-126365000D01*
X136525000Y-126365000D02*
X137160000Y-127000000D01*
D12*
X111125000Y-106807000D02*
X111125000Y-102743000D01*
X108585000Y-102743000D02*
X108585000Y-106807000D01*
D13*
X128320800Y-121285000D02*
X133350000Y-121285000D01*
X133350000Y-121285000D02*
X133350000Y-123825000D01*
X133350000Y-123825000D02*
X128270000Y-123825000D01*
X128270000Y-123825000D02*
X128270000Y-121285000D01*
X128270000Y-121920000D02*
X128905000Y-121285000D01*
X111175800Y-110490000D02*
X116205000Y-110490000D01*
X116205000Y-110490000D02*
X116205000Y-113030000D01*
X116205000Y-113030000D02*
X111125000Y-113030000D01*
X111125000Y-113030000D02*
X111125000Y-110490000D01*
X111125000Y-111125000D02*
X111760000Y-110490000D01*
D12*
X107950000Y-108458000D02*
X107950000Y-112522000D01*
X110490000Y-112522000D02*
X110490000Y-108458000D01*
D13*
X127584200Y-121920000D02*
X122555000Y-121920000D01*
X122555000Y-121920000D02*
X122555000Y-119380000D01*
X122555000Y-119380000D02*
X127635000Y-119380000D01*
X127635000Y-119380000D02*
X127635000Y-121920000D01*
X127635000Y-121285000D02*
X127000000Y-121920000D01*
X137160000Y-120700800D02*
X137160000Y-125730000D01*
X137160000Y-125730000D02*
X134620000Y-125730000D01*
X134620000Y-125730000D02*
X134620000Y-120650000D01*
X134620000Y-120650000D02*
X137160000Y-120650000D01*
X136525000Y-120650000D02*
X137160000Y-121285000D01*
X147955000Y-126949200D02*
X147955000Y-121920000D01*
X147955000Y-121920000D02*
X150495000Y-121920000D01*
X150495000Y-121920000D02*
X150495000Y-127000000D01*
X150495000Y-127000000D02*
X147955000Y-127000000D01*
X148590000Y-127000000D02*
X147955000Y-126365000D01*
X115620800Y-127635000D02*
X120650000Y-127635000D01*
X120650000Y-127635000D02*
X120650000Y-130175000D01*
X120650000Y-130175000D02*
X115570000Y-130175000D01*
X115570000Y-130175000D02*
X115570000Y-127635000D01*
X115570000Y-128270000D02*
X116205000Y-127635000D01*
X127685800Y-140335000D02*
X132715000Y-140335000D01*
X132715000Y-140335000D02*
X132715000Y-142875000D01*
X132715000Y-142875000D02*
X127635000Y-142875000D01*
X127635000Y-142875000D02*
X127635000Y-140335000D01*
X127635000Y-140970000D02*
X128270000Y-140335000D01*
D12*
X129540000Y-117475000D02*
X130556000Y-117475000D01*
X124714000Y-117475000D02*
X123444000Y-117475000D01*
D14*
X124968000Y-118745000D02*
X124968000Y-116205000D01*
X125222000Y-118745000D02*
X125222000Y-116205000D01*
X125476000Y-118745000D02*
X125476000Y-116205000D01*
X124714000Y-118745000D02*
X124714000Y-116205000D01*
X125730000Y-118745000D02*
X124460000Y-116205000D01*
X124460000Y-118745000D02*
X125730000Y-116205000D01*
X125730000Y-118745000D02*
X125730000Y-116205000D01*
X125095000Y-118745000D02*
X125095000Y-116205000D01*
X124460000Y-116205000D02*
X124460000Y-118745000D01*
X124460000Y-118745000D02*
X129540000Y-118745000D01*
X129540000Y-118745000D02*
X129540000Y-116205000D01*
X129540000Y-116205000D02*
X124460000Y-116205000D01*
X196215000Y-132715000D02*
X196215000Y-127635000D01*
X196215000Y-127635000D02*
X193675000Y-127635000D01*
X193675000Y-127635000D02*
X193675000Y-132715000D01*
X193675000Y-135255000D02*
X193675000Y-132715000D01*
X193675000Y-132715000D02*
X196215000Y-132715000D01*
X193675000Y-135255000D02*
X196215000Y-135255000D01*
X196215000Y-135255000D02*
X196215000Y-132715000D01*
X107950000Y-135890000D02*
X102870000Y-135890000D01*
X102870000Y-135890000D02*
X102870000Y-138430000D01*
X102870000Y-138430000D02*
X107950000Y-138430000D01*
X110490000Y-138430000D02*
X107950000Y-138430000D01*
X107950000Y-138430000D02*
X107950000Y-135890000D01*
X110490000Y-138430000D02*
X110490000Y-135890000D01*
X110490000Y-135890000D02*
X107950000Y-135890000D01*
X100584000Y-127381000D02*
X101092000Y-127381000D01*
X101092000Y-127381000D02*
X101092000Y-122809000D01*
X101092000Y-122809000D02*
X100584000Y-122809000D01*
X110236000Y-114935000D02*
X110236000Y-135255000D01*
X110236000Y-135255000D02*
X100584000Y-135255000D01*
X100584000Y-135255000D02*
X100584000Y-114935000D01*
X100584000Y-114935000D02*
X110236000Y-114935000D01*
X136525000Y-100965000D02*
X149225000Y-100965000D01*
X149225000Y-100965000D02*
X149225000Y-103505000D01*
X149225000Y-103505000D02*
X136525000Y-103505000D01*
X133985000Y-100965000D02*
X136525000Y-100965000D01*
X136525000Y-100965000D02*
X136525000Y-103505000D01*
X133985000Y-100965000D02*
X133985000Y-103505000D01*
X133985000Y-103505000D02*
X136525000Y-103505000D01*
X179324000Y-100584000D02*
X179324000Y-101092000D01*
X179324000Y-101092000D02*
X183896000Y-101092000D01*
X183896000Y-101092000D02*
X183896000Y-100584000D01*
X190520000Y-110236000D02*
X172700000Y-110236000D01*
X172700000Y-110236000D02*
X172700000Y-100584000D01*
X172700000Y-100584000D02*
X190520000Y-100584000D01*
X190520000Y-100584000D02*
X190520000Y-110236000D01*
X172466000Y-149606000D02*
X172466000Y-149098000D01*
X172466000Y-149098000D02*
X167894000Y-149098000D01*
X167894000Y-149098000D02*
X167894000Y-149606000D01*
X161270000Y-139954000D02*
X179090000Y-139954000D01*
X179090000Y-139954000D02*
X179090000Y-149606000D01*
X179090000Y-149606000D02*
X161270000Y-149606000D01*
X161270000Y-149606000D02*
X161270000Y-139954000D01*
X124460000Y-146050000D02*
X132080000Y-146050000D01*
X124460000Y-143510000D02*
X132080000Y-143510000D01*
X121920000Y-143510000D02*
X124460000Y-143510000D01*
X132080000Y-146050000D02*
X132080000Y-143510000D01*
X124460000Y-143510000D02*
X124460000Y-146050000D01*
X121920000Y-143510000D02*
X121920000Y-146050000D01*
X121920000Y-146050000D02*
X124460000Y-146050000D01*
X113030000Y-146050000D02*
X120650000Y-146050000D01*
X113030000Y-143510000D02*
X120650000Y-143510000D01*
X110490000Y-143510000D02*
X113030000Y-143510000D01*
X120650000Y-146050000D02*
X120650000Y-143510000D01*
X113030000Y-143510000D02*
X113030000Y-146050000D01*
X110490000Y-143510000D02*
X110490000Y-146050000D01*
X110490000Y-146050000D02*
X113030000Y-146050000D01*
D15*
X180340000Y-134620000D02*
X180340000Y-135890000D01*
X180340000Y-129540000D02*
X180340000Y-128270000D01*
X181610000Y-129540000D02*
X179070000Y-129540000D01*
X179070000Y-129540000D02*
X179070000Y-134620000D01*
X179070000Y-134620000D02*
X181610000Y-134620000D01*
X181610000Y-134620000D02*
X181610000Y-129540000D01*
X120650000Y-113030000D02*
X119380000Y-113030000D01*
X125730000Y-113030000D02*
X127000000Y-113030000D01*
X125730000Y-114300000D02*
X125730000Y-111760000D01*
X125730000Y-111760000D02*
X120650000Y-111760000D01*
X120650000Y-111760000D02*
X120650000Y-114300000D01*
X120650000Y-114300000D02*
X125730000Y-114300000D01*
X151765000Y-129540000D02*
X150495000Y-129540000D01*
X156845000Y-129540000D02*
X158115000Y-129540000D01*
X156845000Y-130810000D02*
X156845000Y-128270000D01*
X156845000Y-128270000D02*
X151765000Y-128270000D01*
X151765000Y-128270000D02*
X151765000Y-130810000D01*
X151765000Y-130810000D02*
X156845000Y-130810000D01*
X156845000Y-133350000D02*
X158115000Y-133350000D01*
X151765000Y-133350000D02*
X150495000Y-133350000D01*
X151765000Y-132080000D02*
X151765000Y-134620000D01*
X151765000Y-134620000D02*
X156845000Y-134620000D01*
X156845000Y-134620000D02*
X156845000Y-132080000D01*
X156845000Y-132080000D02*
X151765000Y-132080000D01*
X151765000Y-137160000D02*
X150495000Y-137160000D01*
X156845000Y-137160000D02*
X158115000Y-137160000D01*
X156845000Y-138430000D02*
X156845000Y-135890000D01*
X156845000Y-135890000D02*
X151765000Y-135890000D01*
X151765000Y-135890000D02*
X151765000Y-138430000D01*
X151765000Y-138430000D02*
X156845000Y-138430000D01*
X121285000Y-141605000D02*
X122555000Y-141605000D01*
X116205000Y-141605000D02*
X114935000Y-141605000D01*
X116205000Y-140335000D02*
X116205000Y-142875000D01*
X116205000Y-142875000D02*
X121285000Y-142875000D01*
X121285000Y-142875000D02*
X121285000Y-140335000D01*
X121285000Y-140335000D02*
X116205000Y-140335000D01*
X112395000Y-134620000D02*
X112395000Y-135890000D01*
X112395000Y-129540000D02*
X112395000Y-128270000D01*
X113665000Y-129540000D02*
X111125000Y-129540000D01*
X111125000Y-129540000D02*
X111125000Y-134620000D01*
X111125000Y-134620000D02*
X113665000Y-134620000D01*
X113665000Y-134620000D02*
X113665000Y-129540000D01*
X151765000Y-140970000D02*
X150495000Y-140970000D01*
X156845000Y-140970000D02*
X158115000Y-140970000D01*
X156845000Y-142240000D02*
X156845000Y-139700000D01*
X156845000Y-139700000D02*
X151765000Y-139700000D01*
X151765000Y-139700000D02*
X151765000Y-142240000D01*
X151765000Y-142240000D02*
X156845000Y-142240000D01*
X135255000Y-109855000D02*
X135255000Y-108585000D01*
X135255000Y-114935000D02*
X135255000Y-116205000D01*
X133985000Y-114935000D02*
X136525000Y-114935000D01*
X136525000Y-114935000D02*
X136525000Y-109855000D01*
X136525000Y-109855000D02*
X133985000Y-109855000D01*
X133985000Y-109855000D02*
X133985000Y-114935000D01*
D12*
X153210260Y-100484940D02*
X153210260Y-100733860D01*
X159209740Y-100484940D02*
X159209740Y-100733860D01*
X153210260Y-103985060D02*
X153210260Y-103736140D01*
X159209740Y-103985060D02*
X159209740Y-103736140D01*
X159209740Y-100484940D02*
X153210260Y-100484940D01*
X159209740Y-103985060D02*
X153210260Y-103985060D01*
X184785000Y-138557000D02*
X184785000Y-139954000D01*
X187325000Y-138557000D02*
X187325000Y-139954000D01*
X189865000Y-138557000D02*
X189865000Y-139954000D01*
X189839472Y-125476000D02*
G75*
G03X189839472Y-125476000I-2514472J0D01*
G74*
G01*
X192659000Y-130048000D02*
X192659000Y-122047000D01*
X192659000Y-122047000D02*
X181991000Y-122047000D01*
X181991000Y-122047000D02*
X181991000Y-130048000D01*
X192659000Y-138557000D02*
X192659000Y-130048000D01*
X192659000Y-130048000D02*
X181991000Y-130048000D01*
X181991000Y-130048000D02*
X181991000Y-138557000D01*
X187325000Y-138557000D02*
X181991000Y-138557000D01*
X187325000Y-138557000D02*
X192659000Y-138557000D01*
D14*
X168275000Y-103505000D02*
X168275000Y-104775000D01*
X168275000Y-104775000D02*
X165735000Y-104775000D01*
X165735000Y-104775000D02*
X165735000Y-103505000D01*
X169545000Y-103505000D02*
X169545000Y-113665000D01*
X169545000Y-113665000D02*
X164465000Y-113665000D01*
X164465000Y-113665000D02*
X164465000Y-103505000D01*
X164465000Y-103505000D02*
X169545000Y-103505000D01*
X168275000Y-115570000D02*
X168275000Y-116840000D01*
X168275000Y-116840000D02*
X165735000Y-116840000D01*
X165735000Y-116840000D02*
X165735000Y-115570000D01*
X169545000Y-115570000D02*
X169545000Y-125730000D01*
X169545000Y-125730000D02*
X164465000Y-125730000D01*
X164465000Y-125730000D02*
X164465000Y-115570000D01*
X164465000Y-115570000D02*
X169545000Y-115570000D01*
X168275000Y-127635000D02*
X168275000Y-128905000D01*
X168275000Y-128905000D02*
X165735000Y-128905000D01*
X165735000Y-128905000D02*
X165735000Y-127635000D01*
X169545000Y-127635000D02*
X169545000Y-137795000D01*
X169545000Y-137795000D02*
X164465000Y-137795000D01*
X164465000Y-137795000D02*
X164465000Y-127635000D01*
X164465000Y-127635000D02*
X169545000Y-127635000D01*
D12*
X174625000Y-114300000D02*
X174625000Y-114300000D01*
X174625000Y-114300000D02*
X175895000Y-114300000D01*
X175895000Y-114300000D02*
X175895000Y-116840000D01*
X175895000Y-116840000D02*
X174625000Y-116840000D01*
X174625000Y-113030000D02*
X197485000Y-113030000D01*
X197485000Y-113030000D02*
X197485000Y-118110000D01*
X197485000Y-118110000D02*
X174625000Y-118110000D01*
X174625000Y-118110000D02*
X174625000Y-113030000D01*
X116713000Y-103505000D02*
X115316000Y-103505000D01*
X116713000Y-106045000D02*
X115316000Y-106045000D01*
X116713000Y-108585000D02*
X115316000Y-108585000D01*
X132308472Y-106045000D02*
G75*
G03X132308472Y-106045000I-2514472J0D01*
G74*
G01*
X125222000Y-111379000D02*
X133223000Y-111379000D01*
X133223000Y-111379000D02*
X133223000Y-100711000D01*
X133223000Y-100711000D02*
X125222000Y-100711000D01*
X116713000Y-111379000D02*
X125222000Y-111379000D01*
X125222000Y-111379000D02*
X125222000Y-100711000D01*
X125222000Y-100711000D02*
X116713000Y-100711000D01*
X116713000Y-106045000D02*
X116713000Y-100711000D01*
X116713000Y-106045000D02*
X116713000Y-111379000D01*
X114300000Y-132715000D02*
X134620000Y-132715000D01*
X134620000Y-137795000D02*
X114300000Y-137795000D01*
X114300000Y-137795000D02*
X114300000Y-132715000D01*
X114300000Y-133985000D02*
X115570000Y-133985000D01*
X115570000Y-133985000D02*
X115570000Y-136525000D01*
X115570000Y-136525000D02*
X114300000Y-136525000D01*
X134620000Y-132715000D02*
X134620000Y-137795000D01*
D14*
X116840000Y-114935000D02*
X116840000Y-116205000D01*
X116840000Y-116205000D02*
X114300000Y-116205000D01*
X114300000Y-116205000D02*
X114300000Y-114935000D01*
X118110000Y-114935000D02*
X118110000Y-125095000D01*
X118110000Y-125095000D02*
X113030000Y-125095000D01*
X113030000Y-125095000D02*
X113030000Y-114935000D01*
X113030000Y-114935000D02*
X118110000Y-114935000D01*
D12*
X144780000Y-104140000D02*
X144780000Y-142240000D01*
X144780000Y-142240000D02*
X139700000Y-142240000D01*
X139700000Y-142240000D02*
X139700000Y-104140000D01*
X139700000Y-104140000D02*
X144780000Y-104140000D01*
X143510000Y-104140000D02*
X143510000Y-105410000D01*
X143510000Y-105410000D02*
X140970000Y-105410000D01*
X140970000Y-105410000D02*
X140970000Y-104140000D01*
X123571000Y-128000760D02*
X123370340Y-127599440D01*
X123370340Y-127599440D02*
X123268740Y-127000000D01*
X123268740Y-127000000D02*
X123370340Y-126499620D01*
X123370340Y-126499620D02*
X123769120Y-125801120D01*
X123769120Y-125801120D02*
X124371100Y-125399800D01*
X124371100Y-125399800D02*
X124970540Y-125199140D01*
X124970540Y-125199140D02*
X131569460Y-125199140D01*
X131569460Y-125199140D02*
X132270500Y-125399800D01*
X132270500Y-125399800D02*
X132669280Y-125699520D01*
X132669280Y-125699520D02*
X133070600Y-126199900D01*
X133070600Y-126199900D02*
X133271260Y-126799340D01*
X133271260Y-126799340D02*
X133271260Y-127299720D01*
X133271260Y-127299720D02*
X133070600Y-127800100D01*
X133070600Y-127800100D02*
X132570220Y-128399540D01*
X132570220Y-128399540D02*
X132069840Y-128699260D01*
X132069840Y-128699260D02*
X131569460Y-128800860D01*
X131470400Y-128800860D02*
X124868940Y-128800860D01*
X124868940Y-128800860D02*
X124470160Y-128699260D01*
X124470160Y-128699260D02*
X123969780Y-128399540D01*
X123969780Y-128399540D02*
X123469400Y-127899160D01*
X131460240Y-129329180D02*
X131919980Y-129280920D01*
X131919980Y-129280920D02*
X132318760Y-129169160D01*
X132318760Y-129169160D02*
X132750560Y-128950720D01*
X132750560Y-128950720D02*
X133040120Y-128719580D01*
X133040120Y-128719580D02*
X133370320Y-128369060D01*
X133370320Y-128369060D02*
X133659880Y-127830580D01*
X133659880Y-127830580D02*
X133789420Y-127231140D01*
X133789420Y-127231140D02*
X133789420Y-126720600D01*
X133789420Y-126720600D02*
X133619240Y-126019560D01*
X133619240Y-126019560D02*
X133220460Y-125430280D01*
X133220460Y-125430280D02*
X132760720Y-125059440D01*
X132760720Y-125059440D02*
X132339080Y-124851160D01*
X132339080Y-124851160D02*
X131889500Y-124691140D01*
X131889500Y-124691140D02*
X131450080Y-124660660D01*
X124109480Y-124879100D02*
X123731020Y-125100080D01*
X123731020Y-125100080D02*
X123410980Y-125379480D01*
X123410980Y-125379480D02*
X123159520Y-125709680D01*
X123159520Y-125709680D02*
X122859800Y-126260860D01*
X122859800Y-126260860D02*
X122750580Y-126730760D01*
X122750580Y-126730760D02*
X122730260Y-127190500D01*
X122730260Y-127190500D02*
X122819160Y-127650240D01*
X122819160Y-127650240D02*
X123009660Y-128099820D01*
X123009660Y-128099820D02*
X123370340Y-128569720D01*
X123370340Y-128569720D02*
X123720860Y-128889760D01*
X123720860Y-128889760D02*
X124109480Y-129120900D01*
X124109480Y-129120900D02*
X124538740Y-129260600D01*
X124538740Y-129260600D02*
X124980700Y-129329180D01*
X131470400Y-124670820D02*
X125018800Y-124670820D01*
X125018800Y-124670820D02*
X124599700Y-124708920D01*
X124599700Y-124708920D02*
X124109480Y-124879100D01*
X131470400Y-129329180D02*
X125018800Y-129329180D01*
D15*
X172720000Y-136525000D02*
X172720000Y-121285000D01*
X172720000Y-121285000D02*
X175260000Y-121285000D01*
X175260000Y-121285000D02*
X175260000Y-136525000D01*
X172720000Y-139065000D02*
X172720000Y-136525000D01*
X172720000Y-136525000D02*
X175260000Y-136525000D01*
X172720000Y-139065000D02*
X175260000Y-139065000D01*
X175260000Y-139065000D02*
X175260000Y-136525000D01*
X143510000Y-145415000D02*
X146050000Y-145415000D01*
X146050000Y-145415000D02*
X146050000Y-147955000D01*
X143510000Y-147955000D02*
X151130000Y-147955000D01*
X151130000Y-147955000D02*
X151130000Y-142875000D01*
X151130000Y-142875000D02*
X146050000Y-142875000D01*
X143510000Y-147955000D02*
X143510000Y-145415000D01*
X143510000Y-142875000D02*
X143510000Y-145415000D01*
X146050000Y-142875000D02*
X143510000Y-142875000D01*
D11*
X160164780Y-148079460D02*
X160164780Y-144061180D01*
X160144460Y-144018000D02*
G75*
G03X160147000Y-148079460I-2029460J-2032000D01*
G74*
G01*
D12*
X157480000Y-104775000D02*
X157480000Y-104775000D01*
X157480000Y-104775000D02*
X157480000Y-106045000D01*
X157480000Y-106045000D02*
X154940000Y-106045000D01*
X154940000Y-106045000D02*
X154940000Y-104775000D01*
X158750000Y-104775000D02*
X158750000Y-127635000D01*
X158750000Y-127635000D02*
X153670000Y-127635000D01*
X153670000Y-127635000D02*
X153670000Y-104775000D01*
X153670000Y-104775000D02*
X158750000Y-104775000D01*
D11*
X183510767Y-149295757D02*
X183462386Y-149344138D01*
X183317243Y-149392519D01*
X183220481Y-149392519D01*
X183075339Y-149344138D01*
X182978577Y-149247376D01*
X182930196Y-149150614D01*
X182881815Y-148957090D01*
X182881815Y-148811948D01*
X182930196Y-148618424D01*
X182978577Y-148521662D01*
X183075339Y-148424900D01*
X183220481Y-148376519D01*
X183317243Y-148376519D01*
X183462386Y-148424900D01*
X183510767Y-148473281D01*
X184478386Y-149392519D02*
X183897815Y-149392519D01*
X184188101Y-149392519D02*
X184188101Y-148376519D01*
X184091339Y-148521662D01*
X183994577Y-148618424D01*
X183897815Y-148666805D01*
X177630667Y-138792857D02*
X177582286Y-138841238D01*
X177437143Y-138889619D01*
X177340381Y-138889619D01*
X177195239Y-138841238D01*
X177098477Y-138744476D01*
X177050096Y-138647714D01*
X177001715Y-138454190D01*
X177001715Y-138309048D01*
X177050096Y-138115524D01*
X177098477Y-138018762D01*
X177195239Y-137922000D01*
X177340381Y-137873619D01*
X177437143Y-137873619D01*
X177582286Y-137922000D01*
X177630667Y-137970381D01*
X178017715Y-137970381D02*
X178066096Y-137922000D01*
X178162858Y-137873619D01*
X178404762Y-137873619D01*
X178501524Y-137922000D01*
X178549905Y-137970381D01*
X178598286Y-138067143D01*
X178598286Y-138163905D01*
X178549905Y-138309048D01*
X177969334Y-138889619D01*
X178598286Y-138889619D01*
X188387567Y-149410057D02*
X188339186Y-149458438D01*
X188194043Y-149506819D01*
X188097281Y-149506819D01*
X187952139Y-149458438D01*
X187855377Y-149361676D01*
X187806996Y-149264914D01*
X187758615Y-149071390D01*
X187758615Y-148926248D01*
X187806996Y-148732724D01*
X187855377Y-148635962D01*
X187952139Y-148539200D01*
X188097281Y-148490819D01*
X188194043Y-148490819D01*
X188339186Y-148539200D01*
X188387567Y-148587581D01*
X188726234Y-148490819D02*
X189355186Y-148490819D01*
X189016520Y-148877867D01*
X189161662Y-148877867D01*
X189258424Y-148926248D01*
X189306805Y-148974629D01*
X189355186Y-149071390D01*
X189355186Y-149313295D01*
X189306805Y-149410057D01*
X189258424Y-149458438D01*
X189161662Y-149506819D01*
X188871377Y-149506819D01*
X188774615Y-149458438D01*
X188726234Y-149410057D01*
X197310587Y-124025297D02*
X197262206Y-124073678D01*
X197117063Y-124122059D01*
X197020301Y-124122059D01*
X196875159Y-124073678D01*
X196778397Y-123976916D01*
X196730016Y-123880154D01*
X196681635Y-123686630D01*
X196681635Y-123541488D01*
X196730016Y-123347964D01*
X196778397Y-123251202D01*
X196875159Y-123154440D01*
X197020301Y-123106059D01*
X197117063Y-123106059D01*
X197262206Y-123154440D01*
X197310587Y-123202821D01*
X198181444Y-123444726D02*
X198181444Y-124122059D01*
X197939540Y-123057678D02*
X197697635Y-123783392D01*
X198326587Y-123783392D01*
X135720667Y-133077857D02*
X135672286Y-133126238D01*
X135527143Y-133174619D01*
X135430381Y-133174619D01*
X135285239Y-133126238D01*
X135188477Y-133029476D01*
X135140096Y-132932714D01*
X135091715Y-132739190D01*
X135091715Y-132594048D01*
X135140096Y-132400524D01*
X135188477Y-132303762D01*
X135285239Y-132207000D01*
X135430381Y-132158619D01*
X135527143Y-132158619D01*
X135672286Y-132207000D01*
X135720667Y-132255381D01*
X136639905Y-132158619D02*
X136156096Y-132158619D01*
X136107715Y-132642429D01*
X136156096Y-132594048D01*
X136252858Y-132545667D01*
X136494762Y-132545667D01*
X136591524Y-132594048D01*
X136639905Y-132642429D01*
X136688286Y-132739190D01*
X136688286Y-132981095D01*
X136639905Y-133077857D01*
X136591524Y-133126238D01*
X136494762Y-133174619D01*
X136252858Y-133174619D01*
X136156096Y-133126238D01*
X136107715Y-133077857D01*
X111590667Y-101962857D02*
X111542286Y-102011238D01*
X111397143Y-102059619D01*
X111300381Y-102059619D01*
X111155239Y-102011238D01*
X111058477Y-101914476D01*
X111010096Y-101817714D01*
X110961715Y-101624190D01*
X110961715Y-101479048D01*
X111010096Y-101285524D01*
X111058477Y-101188762D01*
X111155239Y-101092000D01*
X111300381Y-101043619D01*
X111397143Y-101043619D01*
X111542286Y-101092000D01*
X111590667Y-101140381D01*
X112461524Y-101043619D02*
X112268001Y-101043619D01*
X112171239Y-101092000D01*
X112122858Y-101140381D01*
X112026096Y-101285524D01*
X111977715Y-101479048D01*
X111977715Y-101866095D01*
X112026096Y-101962857D01*
X112074477Y-102011238D01*
X112171239Y-102059619D01*
X112364762Y-102059619D01*
X112461524Y-102011238D01*
X112509905Y-101962857D01*
X112558286Y-101866095D01*
X112558286Y-101624190D01*
X112509905Y-101527429D01*
X112461524Y-101479048D01*
X112364762Y-101430667D01*
X112171239Y-101430667D01*
X112074477Y-101479048D01*
X112026096Y-101527429D01*
X111977715Y-101624190D01*
X130600667Y-120747857D02*
X130552286Y-120796238D01*
X130407143Y-120844619D01*
X130310381Y-120844619D01*
X130165239Y-120796238D01*
X130068477Y-120699476D01*
X130020096Y-120602714D01*
X129971715Y-120409190D01*
X129971715Y-120264048D01*
X130020096Y-120070524D01*
X130068477Y-119973762D01*
X130165239Y-119877000D01*
X130310381Y-119828619D01*
X130407143Y-119828619D01*
X130552286Y-119877000D01*
X130600667Y-119925381D01*
X130939334Y-119828619D02*
X131616667Y-119828619D01*
X131181239Y-120844619D01*
X115083167Y-114396157D02*
X115034786Y-114444538D01*
X114889643Y-114492919D01*
X114792881Y-114492919D01*
X114647739Y-114444538D01*
X114550977Y-114347776D01*
X114502596Y-114251014D01*
X114454215Y-114057490D01*
X114454215Y-113912348D01*
X114502596Y-113718824D01*
X114550977Y-113622062D01*
X114647739Y-113525300D01*
X114792881Y-113476919D01*
X114889643Y-113476919D01*
X115034786Y-113525300D01*
X115083167Y-113573681D01*
X115663739Y-113912348D02*
X115566977Y-113863967D01*
X115518596Y-113815586D01*
X115470215Y-113718824D01*
X115470215Y-113670443D01*
X115518596Y-113573681D01*
X115566977Y-113525300D01*
X115663739Y-113476919D01*
X115857262Y-113476919D01*
X115954024Y-113525300D01*
X116002405Y-113573681D01*
X116050786Y-113670443D01*
X116050786Y-113718824D01*
X116002405Y-113815586D01*
X115954024Y-113863967D01*
X115857262Y-113912348D01*
X115663739Y-113912348D01*
X115566977Y-113960729D01*
X115518596Y-114009110D01*
X115470215Y-114105871D01*
X115470215Y-114299395D01*
X115518596Y-114396157D01*
X115566977Y-114444538D01*
X115663739Y-114492919D01*
X115857262Y-114492919D01*
X115954024Y-114444538D01*
X116002405Y-114396157D01*
X116050786Y-114299395D01*
X116050786Y-114105871D01*
X116002405Y-114009110D01*
X115954024Y-113960729D01*
X115857262Y-113912348D01*
X105875667Y-110852857D02*
X105827286Y-110901238D01*
X105682143Y-110949619D01*
X105585381Y-110949619D01*
X105440239Y-110901238D01*
X105343477Y-110804476D01*
X105295096Y-110707714D01*
X105246715Y-110514190D01*
X105246715Y-110369048D01*
X105295096Y-110175524D01*
X105343477Y-110078762D01*
X105440239Y-109982000D01*
X105585381Y-109933619D01*
X105682143Y-109933619D01*
X105827286Y-109982000D01*
X105875667Y-110030381D01*
X106359477Y-110949619D02*
X106553001Y-110949619D01*
X106649762Y-110901238D01*
X106698143Y-110852857D01*
X106794905Y-110707714D01*
X106843286Y-110514190D01*
X106843286Y-110127143D01*
X106794905Y-110030381D01*
X106746524Y-109982000D01*
X106649762Y-109933619D01*
X106456239Y-109933619D01*
X106359477Y-109982000D01*
X106311096Y-110030381D01*
X106262715Y-110127143D01*
X106262715Y-110369048D01*
X106311096Y-110465810D01*
X106359477Y-110514190D01*
X106456239Y-110562571D01*
X106649762Y-110562571D01*
X106746524Y-110514190D01*
X106794905Y-110465810D01*
X106843286Y-110369048D01*
X124391057Y-123425857D02*
X124342676Y-123474238D01*
X124197533Y-123522619D01*
X124100771Y-123522619D01*
X123955629Y-123474238D01*
X123858867Y-123377476D01*
X123810486Y-123280714D01*
X123762105Y-123087190D01*
X123762105Y-122942048D01*
X123810486Y-122748524D01*
X123858867Y-122651762D01*
X123955629Y-122555000D01*
X124100771Y-122506619D01*
X124197533Y-122506619D01*
X124342676Y-122555000D01*
X124391057Y-122603381D01*
X125358676Y-123522619D02*
X124778105Y-123522619D01*
X125068391Y-123522619D02*
X125068391Y-122506619D01*
X124971629Y-122651762D01*
X124874867Y-122748524D01*
X124778105Y-122796905D01*
X125987629Y-122506619D02*
X126084390Y-122506619D01*
X126181152Y-122555000D01*
X126229533Y-122603381D01*
X126277914Y-122700143D01*
X126326295Y-122893667D01*
X126326295Y-123135571D01*
X126277914Y-123329095D01*
X126229533Y-123425857D01*
X126181152Y-123474238D01*
X126084390Y-123522619D01*
X125987629Y-123522619D01*
X125890867Y-123474238D01*
X125842486Y-123425857D01*
X125794105Y-123329095D01*
X125745724Y-123135571D01*
X125745724Y-122893667D01*
X125794105Y-122700143D01*
X125842486Y-122603381D01*
X125890867Y-122555000D01*
X125987629Y-122506619D01*
X135135257Y-120073057D02*
X135086876Y-120121438D01*
X134941733Y-120169819D01*
X134844971Y-120169819D01*
X134699829Y-120121438D01*
X134603067Y-120024676D01*
X134554686Y-119927914D01*
X134506305Y-119734390D01*
X134506305Y-119589248D01*
X134554686Y-119395724D01*
X134603067Y-119298962D01*
X134699829Y-119202200D01*
X134844971Y-119153819D01*
X134941733Y-119153819D01*
X135086876Y-119202200D01*
X135135257Y-119250581D01*
X136102876Y-120169819D02*
X135522305Y-120169819D01*
X135812591Y-120169819D02*
X135812591Y-119153819D01*
X135715829Y-119298962D01*
X135619067Y-119395724D01*
X135522305Y-119444105D01*
X137070495Y-120169819D02*
X136489924Y-120169819D01*
X136780210Y-120169819D02*
X136780210Y-119153819D01*
X136683448Y-119298962D01*
X136586686Y-119395724D01*
X136489924Y-119444105D01*
X148571857Y-121012857D02*
X148523476Y-121061238D01*
X148378333Y-121109619D01*
X148281571Y-121109619D01*
X148136429Y-121061238D01*
X148039667Y-120964476D01*
X147991286Y-120867714D01*
X147942905Y-120674190D01*
X147942905Y-120529048D01*
X147991286Y-120335524D01*
X148039667Y-120238762D01*
X148136429Y-120142000D01*
X148281571Y-120093619D01*
X148378333Y-120093619D01*
X148523476Y-120142000D01*
X148571857Y-120190381D01*
X149539476Y-121109619D02*
X148958905Y-121109619D01*
X149249191Y-121109619D02*
X149249191Y-120093619D01*
X149152429Y-120238762D01*
X149055667Y-120335524D01*
X148958905Y-120383905D01*
X149926524Y-120190381D02*
X149974905Y-120142000D01*
X150071667Y-120093619D01*
X150313571Y-120093619D01*
X150410333Y-120142000D01*
X150458714Y-120190381D01*
X150507095Y-120287143D01*
X150507095Y-120383905D01*
X150458714Y-120529048D01*
X149878143Y-121109619D01*
X150507095Y-121109619D01*
X119361857Y-126727857D02*
X119313476Y-126776238D01*
X119168333Y-126824619D01*
X119071571Y-126824619D01*
X118926429Y-126776238D01*
X118829667Y-126679476D01*
X118781286Y-126582714D01*
X118732905Y-126389190D01*
X118732905Y-126244048D01*
X118781286Y-126050524D01*
X118829667Y-125953762D01*
X118926429Y-125857000D01*
X119071571Y-125808619D01*
X119168333Y-125808619D01*
X119313476Y-125857000D01*
X119361857Y-125905381D01*
X120329476Y-126824619D02*
X119748905Y-126824619D01*
X120039191Y-126824619D02*
X120039191Y-125808619D01*
X119942429Y-125953762D01*
X119845667Y-126050524D01*
X119748905Y-126098905D01*
X120668143Y-125808619D02*
X121297095Y-125808619D01*
X120958429Y-126195667D01*
X121103571Y-126195667D01*
X121200333Y-126244048D01*
X121248714Y-126292429D01*
X121297095Y-126389190D01*
X121297095Y-126631095D01*
X121248714Y-126727857D01*
X121200333Y-126776238D01*
X121103571Y-126824619D01*
X120813286Y-126824619D01*
X120716524Y-126776238D01*
X120668143Y-126727857D01*
X133794137Y-141403977D02*
X133745756Y-141452358D01*
X133600613Y-141500739D01*
X133503851Y-141500739D01*
X133358709Y-141452358D01*
X133261947Y-141355596D01*
X133213566Y-141258834D01*
X133165185Y-141065310D01*
X133165185Y-140920168D01*
X133213566Y-140726644D01*
X133261947Y-140629882D01*
X133358709Y-140533120D01*
X133503851Y-140484739D01*
X133600613Y-140484739D01*
X133745756Y-140533120D01*
X133794137Y-140581501D01*
X134761756Y-141500739D02*
X134181185Y-141500739D01*
X134471471Y-141500739D02*
X134471471Y-140484739D01*
X134374709Y-140629882D01*
X134277947Y-140726644D01*
X134181185Y-140775025D01*
X135632613Y-140823406D02*
X135632613Y-141500739D01*
X135390709Y-140436358D02*
X135148804Y-141162072D01*
X135777756Y-141162072D01*
X126250096Y-115394619D02*
X126250096Y-114378619D01*
X126492001Y-114378619D01*
X126637143Y-114427000D01*
X126733905Y-114523762D01*
X126782286Y-114620524D01*
X126830667Y-114814048D01*
X126830667Y-114959190D01*
X126782286Y-115152714D01*
X126733905Y-115249476D01*
X126637143Y-115346238D01*
X126492001Y-115394619D01*
X126250096Y-115394619D01*
X127798286Y-115394619D02*
X127217715Y-115394619D01*
X127508001Y-115394619D02*
X127508001Y-114378619D01*
X127411239Y-114523762D01*
X127314477Y-114620524D01*
X127217715Y-114668905D01*
X122802953Y-118817571D02*
X123577048Y-118817571D01*
X130032953Y-115987571D02*
X130807048Y-115987571D01*
X130420000Y-116374619D02*
X130420000Y-115600524D01*
X104225905Y-105459619D02*
X104225905Y-104443619D01*
X104225905Y-104927429D02*
X104806476Y-104927429D01*
X104806476Y-105459619D02*
X104806476Y-104443619D01*
X105822476Y-105459619D02*
X105241905Y-105459619D01*
X105532191Y-105459619D02*
X105532191Y-104443619D01*
X105435429Y-104588762D01*
X105338667Y-104685524D01*
X105241905Y-104733905D01*
X194225905Y-105459619D02*
X194225905Y-104443619D01*
X194225905Y-104927429D02*
X194806476Y-104927429D01*
X194806476Y-105459619D02*
X194806476Y-104443619D01*
X195241905Y-104540381D02*
X195290286Y-104492000D01*
X195387048Y-104443619D01*
X195628952Y-104443619D01*
X195725714Y-104492000D01*
X195774095Y-104540381D01*
X195822476Y-104637143D01*
X195822476Y-104733905D01*
X195774095Y-104879048D01*
X195193524Y-105459619D01*
X195822476Y-105459619D01*
X104225905Y-145459619D02*
X104225905Y-144443619D01*
X104225905Y-144927429D02*
X104806476Y-144927429D01*
X104806476Y-145459619D02*
X104806476Y-144443619D01*
X105193524Y-144443619D02*
X105822476Y-144443619D01*
X105483810Y-144830667D01*
X105628952Y-144830667D01*
X105725714Y-144879048D01*
X105774095Y-144927429D01*
X105822476Y-145024190D01*
X105822476Y-145266095D01*
X105774095Y-145362857D01*
X105725714Y-145411238D01*
X105628952Y-145459619D01*
X105338667Y-145459619D01*
X105241905Y-145411238D01*
X105193524Y-145362857D01*
X194225905Y-145459619D02*
X194225905Y-144443619D01*
X194225905Y-144927429D02*
X194806476Y-144927429D01*
X194806476Y-145459619D02*
X194806476Y-144443619D01*
X195725714Y-144782286D02*
X195725714Y-145459619D01*
X195483810Y-144395238D02*
X195241905Y-145120952D01*
X195870857Y-145120952D01*
X197176813Y-130888619D02*
X197176813Y-131614333D01*
X197128433Y-131759476D01*
X197031671Y-131856238D01*
X196886528Y-131904619D01*
X196789766Y-131904619D01*
X198192813Y-131904619D02*
X197612242Y-131904619D01*
X197902528Y-131904619D02*
X197902528Y-130888619D01*
X197805766Y-131033762D01*
X197709004Y-131130524D01*
X197612242Y-131178905D01*
X110694893Y-139031859D02*
X110694893Y-139757573D01*
X110646513Y-139902716D01*
X110549751Y-139999478D01*
X110404608Y-140047859D01*
X110307846Y-140047859D01*
X111130322Y-139128621D02*
X111178703Y-139080240D01*
X111275465Y-139031859D01*
X111517369Y-139031859D01*
X111614131Y-139080240D01*
X111662512Y-139128621D01*
X111710893Y-139225383D01*
X111710893Y-139322145D01*
X111662512Y-139467288D01*
X111081941Y-140047859D01*
X111710893Y-140047859D01*
X105905905Y-114124619D02*
X105905905Y-113108619D01*
X106486476Y-114124619D01*
X106486476Y-113108619D01*
X107502476Y-114124619D02*
X106921905Y-114124619D01*
X107212191Y-114124619D02*
X107212191Y-113108619D01*
X107115429Y-113253762D01*
X107018667Y-113350524D01*
X106921905Y-113398905D01*
X149766625Y-102831779D02*
X149766625Y-101815779D01*
X150347196Y-102831779D01*
X150347196Y-101815779D01*
X150782625Y-101912541D02*
X150831006Y-101864160D01*
X150927768Y-101815779D01*
X151169672Y-101815779D01*
X151266434Y-101864160D01*
X151314815Y-101912541D01*
X151363196Y-102009303D01*
X151363196Y-102106065D01*
X151314815Y-102251208D01*
X150734244Y-102831779D01*
X151363196Y-102831779D01*
X190995905Y-109679619D02*
X190995905Y-108663619D01*
X191576476Y-109679619D01*
X191576476Y-108663619D01*
X192544095Y-108663619D02*
X192060286Y-108663619D01*
X192011905Y-109147429D01*
X192060286Y-109099048D01*
X192157048Y-109050667D01*
X192398952Y-109050667D01*
X192495714Y-109099048D01*
X192544095Y-109147429D01*
X192592476Y-109244190D01*
X192592476Y-109486095D01*
X192544095Y-109582857D01*
X192495714Y-109631238D01*
X192398952Y-109679619D01*
X192157048Y-109679619D01*
X192060286Y-109631238D01*
X192011905Y-109582857D01*
X169405905Y-139524619D02*
X169405905Y-138508619D01*
X169986476Y-139524619D01*
X169986476Y-138508619D01*
X170905714Y-138508619D02*
X170712191Y-138508619D01*
X170615429Y-138557000D01*
X170567048Y-138605381D01*
X170470286Y-138750524D01*
X170421905Y-138944048D01*
X170421905Y-139331095D01*
X170470286Y-139427857D01*
X170518667Y-139476238D01*
X170615429Y-139524619D01*
X170808952Y-139524619D01*
X170905714Y-139476238D01*
X170954095Y-139427857D01*
X171002476Y-139331095D01*
X171002476Y-139089190D01*
X170954095Y-138992429D01*
X170905714Y-138944048D01*
X170808952Y-138895667D01*
X170615429Y-138895667D01*
X170518667Y-138944048D01*
X170470286Y-138992429D01*
X170421905Y-139089190D01*
X132575905Y-145239619D02*
X132575905Y-144223619D01*
X133156476Y-145239619D01*
X133156476Y-144223619D01*
X133543524Y-144223619D02*
X134220857Y-144223619D01*
X133785429Y-145239619D01*
X110350905Y-142699619D02*
X110350905Y-141683619D01*
X110931476Y-142699619D01*
X110931476Y-141683619D01*
X111560429Y-142119048D02*
X111463667Y-142070667D01*
X111415286Y-142022286D01*
X111366905Y-141925524D01*
X111366905Y-141877143D01*
X111415286Y-141780381D01*
X111463667Y-141732000D01*
X111560429Y-141683619D01*
X111753952Y-141683619D01*
X111850714Y-141732000D01*
X111899095Y-141780381D01*
X111947476Y-141877143D01*
X111947476Y-141925524D01*
X111899095Y-142022286D01*
X111850714Y-142070667D01*
X111753952Y-142119048D01*
X111560429Y-142119048D01*
X111463667Y-142167429D01*
X111415286Y-142215810D01*
X111366905Y-142312571D01*
X111366905Y-142506095D01*
X111415286Y-142602857D01*
X111463667Y-142651238D01*
X111560429Y-142699619D01*
X111753952Y-142699619D01*
X111850714Y-142651238D01*
X111899095Y-142602857D01*
X111947476Y-142506095D01*
X111947476Y-142312571D01*
X111899095Y-142215810D01*
X111850714Y-142167429D01*
X111753952Y-142119048D01*
X177630667Y-130634619D02*
X177292001Y-130150810D01*
X177050096Y-130634619D02*
X177050096Y-129618619D01*
X177437143Y-129618619D01*
X177533905Y-129667000D01*
X177582286Y-129715381D01*
X177630667Y-129812143D01*
X177630667Y-129957286D01*
X177582286Y-130054048D01*
X177533905Y-130102429D01*
X177437143Y-130150810D01*
X177050096Y-130150810D01*
X178598286Y-130634619D02*
X178017715Y-130634619D01*
X178308001Y-130634619D02*
X178308001Y-129618619D01*
X178211239Y-129763762D01*
X178114477Y-129860524D01*
X178017715Y-129908905D01*
X122295557Y-115864519D02*
X121956891Y-115380710D01*
X121714986Y-115864519D02*
X121714986Y-114848519D01*
X122102033Y-114848519D01*
X122198795Y-114896900D01*
X122247176Y-114945281D01*
X122295557Y-115042043D01*
X122295557Y-115187186D01*
X122247176Y-115283948D01*
X122198795Y-115332329D01*
X122102033Y-115380710D01*
X121714986Y-115380710D01*
X123263176Y-115864519D02*
X122682605Y-115864519D01*
X122972891Y-115864519D02*
X122972891Y-114848519D01*
X122876129Y-114993662D01*
X122779367Y-115090424D01*
X122682605Y-115138805D01*
X124134033Y-115187186D02*
X124134033Y-115864519D01*
X123892129Y-114800138D02*
X123650224Y-115525852D01*
X124279176Y-115525852D01*
X158731857Y-135714619D02*
X158393191Y-135230810D01*
X158151286Y-135714619D02*
X158151286Y-134698619D01*
X158538333Y-134698619D01*
X158635095Y-134747000D01*
X158683476Y-134795381D01*
X158731857Y-134892143D01*
X158731857Y-135037286D01*
X158683476Y-135134048D01*
X158635095Y-135182429D01*
X158538333Y-135230810D01*
X158151286Y-135230810D01*
X159699476Y-135714619D02*
X159118905Y-135714619D01*
X159409191Y-135714619D02*
X159409191Y-134698619D01*
X159312429Y-134843762D01*
X159215667Y-134940524D01*
X159118905Y-134988905D01*
X160618714Y-134698619D02*
X160134905Y-134698619D01*
X160086524Y-135182429D01*
X160134905Y-135134048D01*
X160231667Y-135085667D01*
X160473571Y-135085667D01*
X160570333Y-135134048D01*
X160618714Y-135182429D01*
X160667095Y-135279190D01*
X160667095Y-135521095D01*
X160618714Y-135617857D01*
X160570333Y-135666238D01*
X160473571Y-135714619D01*
X160231667Y-135714619D01*
X160134905Y-135666238D01*
X160086524Y-135617857D01*
X160001857Y-128094619D02*
X159663191Y-127610810D01*
X159421286Y-128094619D02*
X159421286Y-127078619D01*
X159808333Y-127078619D01*
X159905095Y-127127000D01*
X159953476Y-127175381D01*
X160001857Y-127272143D01*
X160001857Y-127417286D01*
X159953476Y-127514048D01*
X159905095Y-127562429D01*
X159808333Y-127610810D01*
X159421286Y-127610810D01*
X160969476Y-128094619D02*
X160388905Y-128094619D01*
X160679191Y-128094619D02*
X160679191Y-127078619D01*
X160582429Y-127223762D01*
X160485667Y-127320524D01*
X160388905Y-127368905D01*
X161840333Y-127078619D02*
X161646810Y-127078619D01*
X161550048Y-127127000D01*
X161501667Y-127175381D01*
X161404905Y-127320524D01*
X161356524Y-127514048D01*
X161356524Y-127901095D01*
X161404905Y-127997857D01*
X161453286Y-128046238D01*
X161550048Y-128094619D01*
X161743571Y-128094619D01*
X161840333Y-128046238D01*
X161888714Y-127997857D01*
X161937095Y-127901095D01*
X161937095Y-127659190D01*
X161888714Y-127562429D01*
X161840333Y-127514048D01*
X161743571Y-127465667D01*
X161550048Y-127465667D01*
X161453286Y-127514048D01*
X161404905Y-127562429D01*
X161356524Y-127659190D01*
X158731857Y-139524619D02*
X158393191Y-139040810D01*
X158151286Y-139524619D02*
X158151286Y-138508619D01*
X158538333Y-138508619D01*
X158635095Y-138557000D01*
X158683476Y-138605381D01*
X158731857Y-138702143D01*
X158731857Y-138847286D01*
X158683476Y-138944048D01*
X158635095Y-138992429D01*
X158538333Y-139040810D01*
X158151286Y-139040810D01*
X159699476Y-139524619D02*
X159118905Y-139524619D01*
X159409191Y-139524619D02*
X159409191Y-138508619D01*
X159312429Y-138653762D01*
X159215667Y-138750524D01*
X159118905Y-138798905D01*
X160038143Y-138508619D02*
X160715476Y-138508619D01*
X160280048Y-139524619D01*
X113453817Y-139991979D02*
X113115151Y-139508170D01*
X112873246Y-139991979D02*
X112873246Y-138975979D01*
X113260293Y-138975979D01*
X113357055Y-139024360D01*
X113405436Y-139072741D01*
X113453817Y-139169503D01*
X113453817Y-139314646D01*
X113405436Y-139411408D01*
X113357055Y-139459789D01*
X113260293Y-139508170D01*
X112873246Y-139508170D01*
X114421436Y-139991979D02*
X113840865Y-139991979D01*
X114131151Y-139991979D02*
X114131151Y-138975979D01*
X114034389Y-139121122D01*
X113937627Y-139217884D01*
X113840865Y-139266265D01*
X115002008Y-139411408D02*
X114905246Y-139363027D01*
X114856865Y-139314646D01*
X114808484Y-139217884D01*
X114808484Y-139169503D01*
X114856865Y-139072741D01*
X114905246Y-139024360D01*
X115002008Y-138975979D01*
X115195531Y-138975979D01*
X115292293Y-139024360D01*
X115340674Y-139072741D01*
X115389055Y-139169503D01*
X115389055Y-139217884D01*
X115340674Y-139314646D01*
X115292293Y-139363027D01*
X115195531Y-139411408D01*
X115002008Y-139411408D01*
X114905246Y-139459789D01*
X114856865Y-139508170D01*
X114808484Y-139604931D01*
X114808484Y-139798455D01*
X114856865Y-139895217D01*
X114905246Y-139943598D01*
X115002008Y-139991979D01*
X115195531Y-139991979D01*
X115292293Y-139943598D01*
X115340674Y-139895217D01*
X115389055Y-139798455D01*
X115389055Y-139604931D01*
X115340674Y-139508170D01*
X115292293Y-139459789D01*
X115195531Y-139411408D01*
X114281857Y-126824619D02*
X113943191Y-126340810D01*
X113701286Y-126824619D02*
X113701286Y-125808619D01*
X114088333Y-125808619D01*
X114185095Y-125857000D01*
X114233476Y-125905381D01*
X114281857Y-126002143D01*
X114281857Y-126147286D01*
X114233476Y-126244048D01*
X114185095Y-126292429D01*
X114088333Y-126340810D01*
X113701286Y-126340810D01*
X115249476Y-126824619D02*
X114668905Y-126824619D01*
X114959191Y-126824619D02*
X114959191Y-125808619D01*
X114862429Y-125953762D01*
X114765667Y-126050524D01*
X114668905Y-126098905D01*
X115733286Y-126824619D02*
X115926810Y-126824619D01*
X116023571Y-126776238D01*
X116071952Y-126727857D01*
X116168714Y-126582714D01*
X116217095Y-126389190D01*
X116217095Y-126002143D01*
X116168714Y-125905381D01*
X116120333Y-125857000D01*
X116023571Y-125808619D01*
X115830048Y-125808619D01*
X115733286Y-125857000D01*
X115684905Y-125905381D01*
X115636524Y-126002143D01*
X115636524Y-126244048D01*
X115684905Y-126340810D01*
X115733286Y-126389190D01*
X115830048Y-126437571D01*
X116023571Y-126437571D01*
X116120333Y-126389190D01*
X116168714Y-126340810D01*
X116217095Y-126244048D01*
X153743297Y-143680059D02*
X153404631Y-143196250D01*
X153162726Y-143680059D02*
X153162726Y-142664059D01*
X153549773Y-142664059D01*
X153646535Y-142712440D01*
X153694916Y-142760821D01*
X153743297Y-142857583D01*
X153743297Y-143002726D01*
X153694916Y-143099488D01*
X153646535Y-143147869D01*
X153549773Y-143196250D01*
X153162726Y-143196250D01*
X154130345Y-142760821D02*
X154178726Y-142712440D01*
X154275488Y-142664059D01*
X154517392Y-142664059D01*
X154614154Y-142712440D01*
X154662535Y-142760821D01*
X154710916Y-142857583D01*
X154710916Y-142954345D01*
X154662535Y-143099488D01*
X154081964Y-143680059D01*
X154710916Y-143680059D01*
X155339869Y-142664059D02*
X155436630Y-142664059D01*
X155533392Y-142712440D01*
X155581773Y-142760821D01*
X155630154Y-142857583D01*
X155678535Y-143051107D01*
X155678535Y-143293011D01*
X155630154Y-143486535D01*
X155581773Y-143583297D01*
X155533392Y-143631678D01*
X155436630Y-143680059D01*
X155339869Y-143680059D01*
X155243107Y-143631678D01*
X155194726Y-143583297D01*
X155146345Y-143486535D01*
X155097964Y-143293011D01*
X155097964Y-143051107D01*
X155146345Y-142857583D01*
X155194726Y-142760821D01*
X155243107Y-142712440D01*
X155339869Y-142664059D01*
X131426857Y-114759619D02*
X131088191Y-114275810D01*
X130846286Y-114759619D02*
X130846286Y-113743619D01*
X131233333Y-113743619D01*
X131330095Y-113792000D01*
X131378476Y-113840381D01*
X131426857Y-113937143D01*
X131426857Y-114082286D01*
X131378476Y-114179048D01*
X131330095Y-114227429D01*
X131233333Y-114275810D01*
X130846286Y-114275810D01*
X131813905Y-113840381D02*
X131862286Y-113792000D01*
X131959048Y-113743619D01*
X132200952Y-113743619D01*
X132297714Y-113792000D01*
X132346095Y-113840381D01*
X132394476Y-113937143D01*
X132394476Y-114033905D01*
X132346095Y-114179048D01*
X131765524Y-114759619D01*
X132394476Y-114759619D01*
X132781524Y-113840381D02*
X132829905Y-113792000D01*
X132926667Y-113743619D01*
X133168571Y-113743619D01*
X133265333Y-113792000D01*
X133313714Y-113840381D01*
X133362095Y-113937143D01*
X133362095Y-114033905D01*
X133313714Y-114179048D01*
X132733143Y-114759619D01*
X133362095Y-114759619D01*
X149775334Y-105186238D02*
X149920477Y-105234619D01*
X150162381Y-105234619D01*
X150259143Y-105186238D01*
X150307524Y-105137857D01*
X150355905Y-105041095D01*
X150355905Y-104944333D01*
X150307524Y-104847571D01*
X150259143Y-104799190D01*
X150162381Y-104750810D01*
X149968858Y-104702429D01*
X149872096Y-104654048D01*
X149823715Y-104605667D01*
X149775334Y-104508905D01*
X149775334Y-104412143D01*
X149823715Y-104315381D01*
X149872096Y-104267000D01*
X149968858Y-104218619D01*
X150210762Y-104218619D01*
X150355905Y-104267000D01*
X150694572Y-104218619D02*
X150936477Y-105234619D01*
X151130000Y-104508905D01*
X151323524Y-105234619D01*
X151565429Y-104218619D01*
X152484667Y-105234619D02*
X151904096Y-105234619D01*
X152194382Y-105234619D02*
X152194382Y-104218619D01*
X152097620Y-104363762D01*
X152000858Y-104460524D01*
X151904096Y-104508905D01*
X179774185Y-122491379D02*
X179774185Y-123313855D01*
X179822566Y-123410617D01*
X179870947Y-123458998D01*
X179967709Y-123507379D01*
X180161232Y-123507379D01*
X180257994Y-123458998D01*
X180306375Y-123410617D01*
X180354756Y-123313855D01*
X180354756Y-122491379D01*
X181370756Y-123507379D02*
X180790185Y-123507379D01*
X181080471Y-123507379D02*
X181080471Y-122491379D01*
X180983709Y-122636522D01*
X180886947Y-122733284D01*
X180790185Y-122781665D01*
X170040905Y-101678619D02*
X170040905Y-102501095D01*
X170089286Y-102597857D01*
X170137667Y-102646238D01*
X170234429Y-102694619D01*
X170427952Y-102694619D01*
X170524714Y-102646238D01*
X170573095Y-102597857D01*
X170621476Y-102501095D01*
X170621476Y-101678619D01*
X171056905Y-101775381D02*
X171105286Y-101727000D01*
X171202048Y-101678619D01*
X171443952Y-101678619D01*
X171540714Y-101727000D01*
X171589095Y-101775381D01*
X171637476Y-101872143D01*
X171637476Y-101968905D01*
X171589095Y-102114048D01*
X171008524Y-102694619D01*
X171637476Y-102694619D01*
X171945905Y-115013619D02*
X171945905Y-115836095D01*
X171994286Y-115932857D01*
X172042667Y-115981238D01*
X172139429Y-116029619D01*
X172332952Y-116029619D01*
X172429714Y-115981238D01*
X172478095Y-115932857D01*
X172526476Y-115836095D01*
X172526476Y-115013619D01*
X172913524Y-115013619D02*
X173542476Y-115013619D01*
X173203810Y-115400667D01*
X173348952Y-115400667D01*
X173445714Y-115449048D01*
X173494095Y-115497429D01*
X173542476Y-115594190D01*
X173542476Y-115836095D01*
X173494095Y-115932857D01*
X173445714Y-115981238D01*
X173348952Y-116029619D01*
X173058667Y-116029619D01*
X172961905Y-115981238D01*
X172913524Y-115932857D01*
X162420905Y-138508619D02*
X162420905Y-139331095D01*
X162469286Y-139427857D01*
X162517667Y-139476238D01*
X162614429Y-139524619D01*
X162807952Y-139524619D01*
X162904714Y-139476238D01*
X162953095Y-139427857D01*
X163001476Y-139331095D01*
X163001476Y-138508619D01*
X163920714Y-138847286D02*
X163920714Y-139524619D01*
X163678810Y-138460238D02*
X163436905Y-139185952D01*
X164065857Y-139185952D01*
X197345905Y-111203619D02*
X197345905Y-112026095D01*
X197394286Y-112122857D01*
X197442667Y-112171238D01*
X197539429Y-112219619D01*
X197732952Y-112219619D01*
X197829714Y-112171238D01*
X197878095Y-112122857D01*
X197926476Y-112026095D01*
X197926476Y-111203619D01*
X198894095Y-111203619D02*
X198410286Y-111203619D01*
X198361905Y-111687429D01*
X198410286Y-111639048D01*
X198507048Y-111590667D01*
X198748952Y-111590667D01*
X198845714Y-111639048D01*
X198894095Y-111687429D01*
X198942476Y-111784190D01*
X198942476Y-112026095D01*
X198894095Y-112122857D01*
X198845714Y-112171238D01*
X198748952Y-112219619D01*
X198507048Y-112219619D01*
X198410286Y-112171238D01*
X198361905Y-112122857D01*
X114795905Y-101043619D02*
X114795905Y-101866095D01*
X114844286Y-101962857D01*
X114892667Y-102011238D01*
X114989429Y-102059619D01*
X115182952Y-102059619D01*
X115279714Y-102011238D01*
X115328095Y-101962857D01*
X115376476Y-101866095D01*
X115376476Y-101043619D01*
X116295714Y-101043619D02*
X116102191Y-101043619D01*
X116005429Y-101092000D01*
X115957048Y-101140381D01*
X115860286Y-101285524D01*
X115811905Y-101479048D01*
X115811905Y-101866095D01*
X115860286Y-101962857D01*
X115908667Y-102011238D01*
X116005429Y-102059619D01*
X116198952Y-102059619D01*
X116295714Y-102011238D01*
X116344095Y-101962857D01*
X116392476Y-101866095D01*
X116392476Y-101624190D01*
X116344095Y-101527429D01*
X116295714Y-101479048D01*
X116198952Y-101430667D01*
X116005429Y-101430667D01*
X115908667Y-101479048D01*
X115860286Y-101527429D01*
X115811905Y-101624190D01*
X134480905Y-138508619D02*
X134480905Y-139331095D01*
X134529286Y-139427857D01*
X134577667Y-139476238D01*
X134674429Y-139524619D01*
X134867952Y-139524619D01*
X134964714Y-139476238D01*
X135013095Y-139427857D01*
X135061476Y-139331095D01*
X135061476Y-138508619D01*
X135448524Y-138508619D02*
X136125857Y-138508619D01*
X135690429Y-139524619D01*
X110985905Y-113743619D02*
X110985905Y-114566095D01*
X111034286Y-114662857D01*
X111082667Y-114711238D01*
X111179429Y-114759619D01*
X111372952Y-114759619D01*
X111469714Y-114711238D01*
X111518095Y-114662857D01*
X111566476Y-114566095D01*
X111566476Y-113743619D01*
X112195429Y-114179048D02*
X112098667Y-114130667D01*
X112050286Y-114082286D01*
X112001905Y-113985524D01*
X112001905Y-113937143D01*
X112050286Y-113840381D01*
X112098667Y-113792000D01*
X112195429Y-113743619D01*
X112388952Y-113743619D01*
X112485714Y-113792000D01*
X112534095Y-113840381D01*
X112582476Y-113937143D01*
X112582476Y-113985524D01*
X112534095Y-114082286D01*
X112485714Y-114130667D01*
X112388952Y-114179048D01*
X112195429Y-114179048D01*
X112098667Y-114227429D01*
X112050286Y-114275810D01*
X112001905Y-114372571D01*
X112001905Y-114566095D01*
X112050286Y-114662857D01*
X112098667Y-114711238D01*
X112195429Y-114759619D01*
X112388952Y-114759619D01*
X112485714Y-114711238D01*
X112534095Y-114662857D01*
X112582476Y-114566095D01*
X112582476Y-114372571D01*
X112534095Y-114275810D01*
X112485714Y-114227429D01*
X112388952Y-114179048D01*
X147180905Y-104218619D02*
X147180905Y-105041095D01*
X147229286Y-105137857D01*
X147277667Y-105186238D01*
X147374429Y-105234619D01*
X147567952Y-105234619D01*
X147664714Y-105186238D01*
X147713095Y-105137857D01*
X147761476Y-105041095D01*
X147761476Y-104218619D01*
X148293667Y-105234619D02*
X148487191Y-105234619D01*
X148583952Y-105186238D01*
X148632333Y-105137857D01*
X148729095Y-104992714D01*
X148777476Y-104799190D01*
X148777476Y-104412143D01*
X148729095Y-104315381D01*
X148680714Y-104267000D01*
X148583952Y-104218619D01*
X148390429Y-104218619D01*
X148293667Y-104267000D01*
X148245286Y-104315381D01*
X148196905Y-104412143D01*
X148196905Y-104654048D01*
X148245286Y-104750810D01*
X148293667Y-104799190D01*
X148390429Y-104847571D01*
X148583952Y-104847571D01*
X148680714Y-104799190D01*
X148729095Y-104750810D01*
X148777476Y-104654048D01*
X121732524Y-128983619D02*
X122409857Y-129999619D01*
X122409857Y-128983619D02*
X121732524Y-129999619D01*
X123329095Y-129999619D02*
X122748524Y-129999619D01*
X123038810Y-129999619D02*
X123038810Y-128983619D01*
X122942048Y-129128762D01*
X122845286Y-129225524D01*
X122748524Y-129273905D01*
X173719067Y-120830219D02*
X173380401Y-120346410D01*
X173138496Y-120830219D02*
X173138496Y-119814219D01*
X173525543Y-119814219D01*
X173622305Y-119862600D01*
X173670686Y-119910981D01*
X173719067Y-120007743D01*
X173719067Y-120152886D01*
X173670686Y-120249648D01*
X173622305Y-120298029D01*
X173525543Y-120346410D01*
X173138496Y-120346410D01*
X174299639Y-120249648D02*
X174202877Y-120201267D01*
X174154496Y-120152886D01*
X174106115Y-120056124D01*
X174106115Y-120007743D01*
X174154496Y-119910981D01*
X174202877Y-119862600D01*
X174299639Y-119814219D01*
X174493162Y-119814219D01*
X174589924Y-119862600D01*
X174638305Y-119910981D01*
X174686686Y-120007743D01*
X174686686Y-120056124D01*
X174638305Y-120152886D01*
X174589924Y-120201267D01*
X174493162Y-120249648D01*
X174299639Y-120249648D01*
X174202877Y-120298029D01*
X174154496Y-120346410D01*
X174106115Y-120443171D01*
X174106115Y-120636695D01*
X174154496Y-120733457D01*
X174202877Y-120781838D01*
X174299639Y-120830219D01*
X174493162Y-120830219D01*
X174589924Y-120781838D01*
X174638305Y-120733457D01*
X174686686Y-120636695D01*
X174686686Y-120443171D01*
X174638305Y-120346410D01*
X174589924Y-120298029D01*
X174493162Y-120249648D01*
X141465905Y-144604619D02*
X141465905Y-143588619D01*
X142046476Y-144604619D01*
X142046476Y-143588619D01*
X142433524Y-143588619D02*
X143062476Y-143588619D01*
X142723810Y-143975667D01*
X142868952Y-143975667D01*
X142965714Y-144024048D01*
X143014095Y-144072429D01*
X143062476Y-144169190D01*
X143062476Y-144411095D01*
X143014095Y-144507857D01*
X142965714Y-144556238D01*
X142868952Y-144604619D01*
X142578667Y-144604619D01*
X142481905Y-144556238D01*
X142433524Y-144507857D01*
X153440796Y-148097119D02*
X153440796Y-147081119D01*
X153682701Y-147081119D01*
X153827843Y-147129500D01*
X153924605Y-147226262D01*
X153972986Y-147323024D01*
X154021367Y-147516548D01*
X154021367Y-147661690D01*
X153972986Y-147855214D01*
X153924605Y-147951976D01*
X153827843Y-148048738D01*
X153682701Y-148097119D01*
X153440796Y-148097119D01*
X154408415Y-147177881D02*
X154456796Y-147129500D01*
X154553558Y-147081119D01*
X154795462Y-147081119D01*
X154892224Y-147129500D01*
X154940605Y-147177881D01*
X154988986Y-147274643D01*
X154988986Y-147371405D01*
X154940605Y-147516548D01*
X154360034Y-148097119D01*
X154988986Y-148097119D01*
X159820913Y-149160411D02*
X160595008Y-149160411D01*
X154377571Y-146437047D02*
X154377571Y-145662952D01*
X154764619Y-146050000D02*
X153990524Y-146050000D01*
X149182667Y-107850819D02*
X148844001Y-107367010D01*
X148602096Y-107850819D02*
X148602096Y-106834819D01*
X148989143Y-106834819D01*
X149085905Y-106883200D01*
X149134286Y-106931581D01*
X149182667Y-107028343D01*
X149182667Y-107173486D01*
X149134286Y-107270248D01*
X149085905Y-107318629D01*
X148989143Y-107367010D01*
X148602096Y-107367010D01*
X149569715Y-106931581D02*
X149618096Y-106883200D01*
X149714858Y-106834819D01*
X149956762Y-106834819D01*
X150053524Y-106883200D01*
X150101905Y-106931581D01*
X150150286Y-107028343D01*
X150150286Y-107125105D01*
X150101905Y-107270248D01*
X149521334Y-107850819D01*
X150150286Y-107850819D01*
M02*
