%FSLAX36Y36*%
G04 Gerber Fmt 3.6, Leading zero omitted, Abs format (unit inch)*
G04 Created by KiCad (PCBNEW (2014-jul-16 BZR unknown)-product) date Sun 05 Oct 2014 02:03:01 PM PDT*
%MOIN*%
G01*
G04 APERTURE LIST*
%ADD10C,0.003937*%
%ADD11C,0.059100*%
%ADD12C,0.078700*%
%ADD13R,0.078700X0.078700*%
%ADD14C,0.236220*%
%ADD15R,0.068000X0.068000*%
%ADD16C,0.068000*%
%ADD17R,0.060000X0.060000*%
%ADD18C,0.060000*%
%ADD19O,0.068000X0.068000*%
%ADD20O,0.066900X0.137800*%
%ADD21R,0.055000X0.055000*%
%ADD22C,0.055000*%
%ADD23O,0.137800X0.066900*%
G04 APERTURE END LIST*
D10*
D11*
X7175000Y-5775000D03*
X7275000Y-5775000D03*
X7150000Y-5650000D03*
X7150000Y-5550000D03*
X7475000Y-5775000D03*
X7375000Y-5775000D03*
X7675000Y-4825000D03*
X7675000Y-4925000D03*
X5350000Y-5025000D03*
X5350000Y-5125000D03*
X4325000Y-4075000D03*
X4325000Y-4175000D03*
X5100000Y-4825000D03*
X5200000Y-4825000D03*
X4425000Y-4400000D03*
X4525000Y-4400000D03*
X4300000Y-4400000D03*
X4300000Y-4300000D03*
X4975000Y-4750000D03*
X4875000Y-4750000D03*
X5350000Y-4800000D03*
X5350000Y-4900000D03*
X5875000Y-4950000D03*
X5875000Y-4850000D03*
X4600000Y-5075000D03*
X4700000Y-5075000D03*
X5075000Y-5575000D03*
X5175000Y-5575000D03*
D12*
X5200000Y-4625000D03*
D13*
X4800000Y-4625000D03*
D14*
X4133858Y-4133858D03*
X7677165Y-4133858D03*
X4133858Y-5708661D03*
X7677165Y-5708661D03*
D15*
X7675000Y-5275000D03*
D16*
X7675000Y-5175000D03*
X7675000Y-5075000D03*
D15*
X4300000Y-5400000D03*
D16*
X4200000Y-5400000D03*
X4100000Y-5400000D03*
D17*
X4100000Y-4725000D03*
D18*
X4200000Y-4725000D03*
X4100000Y-4825000D03*
X4200000Y-4825000D03*
X4100000Y-4925000D03*
X4200000Y-4925000D03*
X4100000Y-5025000D03*
X4200000Y-5025000D03*
X4100000Y-5125000D03*
X4200000Y-5125000D03*
D15*
X5325000Y-4025000D03*
D16*
X5425000Y-4025000D03*
X5525000Y-4025000D03*
X5625000Y-4025000D03*
X5725000Y-4025000D03*
X5825000Y-4025000D03*
D17*
X7300000Y-4100000D03*
D18*
X7300000Y-4200000D03*
X7200000Y-4100000D03*
X7200000Y-4200000D03*
X7100000Y-4100000D03*
X7100000Y-4200000D03*
X7000000Y-4100000D03*
X7000000Y-4200000D03*
D17*
X6550000Y-5750000D03*
D18*
X6550000Y-5650000D03*
X6650000Y-5750000D03*
X6650000Y-5650000D03*
X6750000Y-5750000D03*
X6750000Y-5650000D03*
X6850000Y-5750000D03*
X6850000Y-5650000D03*
D15*
X4850000Y-5700000D03*
D19*
X4950000Y-5700000D03*
X5050000Y-5700000D03*
X5150000Y-5700000D03*
D15*
X4400000Y-5700000D03*
D19*
X4500000Y-5700000D03*
X4600000Y-5700000D03*
X4700000Y-5700000D03*
D12*
X7100000Y-5000000D03*
X7100000Y-5400000D03*
X5050000Y-4450000D03*
X4650000Y-4450000D03*
X6275000Y-5100000D03*
X5875000Y-5100000D03*
X5875000Y-5250000D03*
X6275000Y-5250000D03*
X6275000Y-5400000D03*
X5875000Y-5400000D03*
X4475000Y-5575000D03*
X4875000Y-5575000D03*
X4425000Y-5000000D03*
X4425000Y-5400000D03*
X6275000Y-5550000D03*
X5875000Y-5550000D03*
X5325000Y-4625000D03*
X5325000Y-4225000D03*
D13*
X6278000Y-4025000D03*
D12*
X6022000Y-4025000D03*
D20*
X7375000Y-5600000D03*
X7275000Y-5600000D03*
X7475000Y-5600000D03*
D21*
X6425000Y-4125000D03*
D22*
X6425000Y-4225000D03*
X6425000Y-4325000D03*
X6425000Y-4425000D03*
X6725000Y-4425000D03*
X6725000Y-4325000D03*
X6725000Y-4225000D03*
X6725000Y-4125000D03*
D21*
X6425000Y-4600000D03*
D22*
X6425000Y-4700000D03*
X6425000Y-4800000D03*
X6425000Y-4900000D03*
X6725000Y-4900000D03*
X6725000Y-4800000D03*
X6725000Y-4700000D03*
X6725000Y-4600000D03*
D21*
X6425000Y-5075000D03*
D22*
X6425000Y-5175000D03*
X6425000Y-5275000D03*
X6425000Y-5375000D03*
X6725000Y-5375000D03*
X6725000Y-5275000D03*
X6725000Y-5175000D03*
X6725000Y-5075000D03*
D21*
X6975000Y-4700000D03*
D22*
X7075000Y-4700000D03*
X7175000Y-4700000D03*
X7275000Y-4700000D03*
X7375000Y-4700000D03*
X7475000Y-4700000D03*
X7575000Y-4700000D03*
X7675000Y-4700000D03*
X7675000Y-4400000D03*
X7575000Y-4400000D03*
X7475000Y-4400000D03*
X7375000Y-4400000D03*
X7275000Y-4400000D03*
X7175000Y-4400000D03*
X7075000Y-4400000D03*
X6975000Y-4400000D03*
D23*
X4450000Y-4175000D03*
X4450000Y-4075000D03*
X4450000Y-4275000D03*
D21*
X4600000Y-5475000D03*
D22*
X4700000Y-5475000D03*
X4800000Y-5475000D03*
X4900000Y-5475000D03*
X5000000Y-5475000D03*
X5100000Y-5475000D03*
X5200000Y-5475000D03*
X5200000Y-5175000D03*
X5100000Y-5175000D03*
X5000000Y-5175000D03*
X4900000Y-5175000D03*
X4800000Y-5175000D03*
X4700000Y-5175000D03*
X4600000Y-5175000D03*
D21*
X4400000Y-4575000D03*
D22*
X4400000Y-4675000D03*
X4400000Y-4775000D03*
X4400000Y-4875000D03*
X4700000Y-4875000D03*
X4700000Y-4775000D03*
X4700000Y-4675000D03*
X4700000Y-4575000D03*
X5450000Y-4300000D03*
X5450000Y-4400000D03*
X5450000Y-4500000D03*
X5450000Y-4600000D03*
X5450000Y-4700000D03*
X5450000Y-4800000D03*
X5450000Y-4900000D03*
X5450000Y-5000000D03*
X5450000Y-5100000D03*
X5450000Y-5200000D03*
X5450000Y-5300000D03*
X5450000Y-5400000D03*
X5450000Y-5500000D03*
D21*
X5450000Y-4200000D03*
D22*
X5750000Y-5500000D03*
X5750000Y-5400000D03*
X5750000Y-5300000D03*
X5750000Y-5200000D03*
X5750000Y-5100000D03*
X5750000Y-5000000D03*
X5750000Y-4900000D03*
X5750000Y-4800000D03*
X5750000Y-4700000D03*
X5750000Y-4600000D03*
X5750000Y-4500000D03*
X5750000Y-4400000D03*
X5750000Y-4300000D03*
X5750000Y-4200000D03*
D11*
X5146100Y-5000000D03*
X4953900Y-5000000D03*
D15*
X6850000Y-5425000D03*
D16*
X6850000Y-5325000D03*
X6850000Y-5225000D03*
X6850000Y-5125000D03*
X6850000Y-5025000D03*
X6850000Y-4925000D03*
X6850000Y-4825000D03*
D15*
X5700000Y-5775000D03*
D19*
X5700000Y-5675000D03*
X5800000Y-5775000D03*
X5800000Y-5675000D03*
X5900000Y-5775000D03*
X5900000Y-5675000D03*
D18*
X6175000Y-5750000D03*
X6275000Y-5750000D03*
D21*
X6000000Y-4225000D03*
D22*
X6000000Y-4325000D03*
X6000000Y-4425000D03*
X6000000Y-4525000D03*
X6000000Y-4625000D03*
X6000000Y-4725000D03*
X6000000Y-4825000D03*
X6000000Y-4925000D03*
X6300000Y-4925000D03*
X6300000Y-4825000D03*
X6300000Y-4725000D03*
X6300000Y-4625000D03*
X6300000Y-4525000D03*
X6300000Y-4425000D03*
X6300000Y-4325000D03*
X6300000Y-4225000D03*
M02*
