M48
;DRILL file {kicad (2014-jul-16 BZR unknown)-product} date Fri 03 Oct 2014 04:25:18 PM PDT
;FORMAT={-:-/ absolute / inch / decimal}
FMAT,2
INCH,TZ
T1C0.025
T2C0.030
T3C0.032
T4C0.032
T5C0.039
T6C0.040
T7C0.047
T8C0.050
T9C0.125
T10C0.150
%
G90
G05
M72
T1
X4.45Y-5.1
X4.55Y-4.95
X4.625Y-4.725
X4.625Y-4.825
X5.051Y-4.626
X5.2Y-4.4
X5.2Y-4.45
X5.25Y-4.55
X5.275Y-5.125
X5.375Y-5.65
X5.425Y-5.65
X5.425Y-5.775
X5.5Y-4.45
X5.525Y-5.
X5.525Y-5.2
X5.55Y-5.3
X5.6Y-4.75
X5.6Y-5.1
X5.625Y-4.2
X5.675Y-4.7
X5.9Y-4.15
X6.Y-5.025
X6.075Y-4.575
X6.1Y-4.025
X6.125Y-4.225
X6.125Y-4.825
X6.75Y-4.5
X7.025Y-4.525
X7.55Y-4.525
T2
X6.175Y-5.75
X6.275Y-5.75
T3
X4.3Y-4.3
X4.3Y-4.4
X4.325Y-4.075
X4.325Y-4.175
X4.425Y-4.4
X4.525Y-4.4
X4.6Y-5.075
X4.7Y-5.075
X4.875Y-4.75
X4.9539Y-5.
X4.975Y-4.75
X5.075Y-5.575
X5.1Y-4.825
X5.1461Y-5.
X5.175Y-5.575
X5.2Y-4.825
X5.35Y-4.8
X5.35Y-4.9
X5.35Y-5.025
X5.35Y-5.125
X5.875Y-4.85
X5.875Y-4.95
X7.15Y-5.55
X7.15Y-5.65
X7.175Y-5.775
X7.275Y-5.775
X7.375Y-5.775
X7.475Y-5.775
X7.675Y-4.825
X7.675Y-4.925
T4
X4.4Y-4.575
X4.4Y-4.675
X4.4Y-4.775
X4.4Y-4.875
X4.6Y-5.175
X4.6Y-5.475
X4.7Y-4.575
X4.7Y-4.675
X4.7Y-4.775
X4.7Y-4.875
X4.7Y-5.175
X4.7Y-5.475
X4.8Y-5.175
X4.8Y-5.475
X4.9Y-5.175
X4.9Y-5.475
X5.Y-5.175
X5.Y-5.475
X5.1Y-5.175
X5.1Y-5.475
X5.2Y-5.175
X5.2Y-5.475
X5.45Y-4.2
X5.45Y-4.3
X5.45Y-4.4
X5.45Y-4.5
X5.45Y-4.6
X5.45Y-4.7
X5.45Y-4.8
X5.45Y-4.9
X5.45Y-5.
X5.45Y-5.1
X5.45Y-5.2
X5.45Y-5.3
X5.45Y-5.4
X5.45Y-5.5
X5.75Y-4.2
X5.75Y-4.3
X5.75Y-4.4
X5.75Y-4.5
X5.75Y-4.6
X5.75Y-4.7
X5.75Y-4.8
X5.75Y-4.9
X5.75Y-5.
X5.75Y-5.1
X5.75Y-5.2
X5.75Y-5.3
X5.75Y-5.4
X5.75Y-5.5
X6.Y-4.225
X6.Y-4.325
X6.Y-4.425
X6.Y-4.525
X6.Y-4.625
X6.Y-4.725
X6.Y-4.825
X6.Y-4.925
X6.3Y-4.225
X6.3Y-4.325
X6.3Y-4.425
X6.3Y-4.525
X6.3Y-4.625
X6.3Y-4.725
X6.3Y-4.825
X6.3Y-4.925
X6.425Y-4.125
X6.425Y-4.225
X6.425Y-4.325
X6.425Y-4.425
X6.425Y-4.6
X6.425Y-4.7
X6.425Y-4.8
X6.425Y-4.9
X6.425Y-5.075
X6.425Y-5.175
X6.425Y-5.275
X6.425Y-5.375
X6.725Y-4.125
X6.725Y-4.225
X6.725Y-4.325
X6.725Y-4.425
X6.725Y-4.6
X6.725Y-4.7
X6.725Y-4.8
X6.725Y-4.9
X6.725Y-5.075
X6.725Y-5.175
X6.725Y-5.275
X6.725Y-5.375
X6.975Y-4.4
X6.975Y-4.7
X7.075Y-4.4
X7.075Y-4.7
X7.175Y-4.4
X7.175Y-4.7
X7.275Y-4.4
X7.275Y-4.7
X7.375Y-4.4
X7.375Y-4.7
X7.475Y-4.4
X7.475Y-4.7
X7.575Y-4.4
X7.575Y-4.7
X7.675Y-4.4
X7.675Y-4.7
T5
X4.425Y-5.
X4.425Y-5.4
X4.45Y-4.075
X4.45Y-4.175
X4.45Y-4.275
X4.475Y-5.575
X4.65Y-4.45
X4.8Y-4.625
X4.875Y-5.575
X5.05Y-4.45
X5.325Y-4.225
X5.325Y-4.625
X5.875Y-5.1
X5.875Y-5.25
X5.875Y-5.4
X5.875Y-5.55
X6.275Y-5.1
X6.275Y-5.25
X6.275Y-5.4
X6.275Y-5.55
X7.1Y-5.
X7.1Y-5.4
X7.275Y-5.6
X7.375Y-5.6
X7.475Y-5.6
T6
X4.1Y-4.725
X4.1Y-4.825
X4.1Y-4.925
X4.1Y-5.025
X4.1Y-5.125
X4.1Y-5.4
X4.2Y-4.725
X4.2Y-4.825
X4.2Y-4.925
X4.2Y-5.025
X4.2Y-5.125
X4.2Y-5.4
X4.3Y-5.4
X4.4Y-5.7
X4.5Y-5.7
X4.6Y-5.7
X4.7Y-5.7
X4.85Y-5.7
X4.95Y-5.7
X5.05Y-5.7
X5.15Y-5.7
X5.325Y-4.025
X5.425Y-4.025
X5.525Y-4.025
X5.625Y-4.025
X5.7Y-5.675
X5.7Y-5.775
X5.725Y-4.025
X5.8Y-5.675
X5.8Y-5.775
X5.825Y-4.025
X5.9Y-5.675
X5.9Y-5.775
X6.55Y-5.65
X6.55Y-5.75
X6.65Y-5.65
X6.65Y-5.75
X6.75Y-5.65
X6.75Y-5.75
X6.85Y-4.825
X6.85Y-4.925
X6.85Y-5.025
X6.85Y-5.125
X6.85Y-5.225
X6.85Y-5.325
X6.85Y-5.425
X6.85Y-5.65
X6.85Y-5.75
X7.Y-4.1
X7.Y-4.2
X7.1Y-4.1
X7.1Y-4.2
X7.2Y-4.1
X7.2Y-4.2
X7.3Y-4.1
X7.3Y-4.2
X7.675Y-5.075
X7.675Y-5.175
X7.675Y-5.275
T7
X6.022Y-4.025
X6.278Y-4.025
T8
X5.2Y-4.625
T9
X4.1339Y-4.1339
X4.1339Y-5.7087
X7.6772Y-4.1339
X7.6772Y-5.7087
T10
X5.11Y-4.175
X7.375Y-4.94
T0
M30
