M48
;DRILL file {kicad (2014-jul-16 BZR unknown)-product} date Sun 05 Oct 2014 02:02:59 PM PDT
;FORMAT={2:4/ absolute / inch / suppress leading zeros}
FMAT,2
INCH,TZ
T1C0.025
T2C0.030
T3C0.032
T4C0.032
T5C0.039
T6C0.040
T7C0.047
T8C0.050
T9C0.125
T10C0.150
%
G90
G05
M72
T1
X44500Y-51000
X45500Y-49500
X46250Y-47250
X46250Y-48250
X50510Y-46260
X52000Y-44000
X52000Y-44500
X52500Y-45500
X52750Y-51250
X53750Y-56500
X54250Y-56500
X54250Y-57750
X55000Y-44500
X55250Y-50000
X55250Y-52000
X55500Y-53000
X56000Y-47500
X56000Y-51000
X56250Y-42000
X56750Y-47000
X59000Y-41500
X60000Y-50250
X60750Y-45750
X61000Y-40250
X61250Y-42250
X61250Y-48250
X67500Y-45000
X70250Y-45250
X75500Y-45250
T2
X61750Y-57500
X62750Y-57500
T3
X43000Y-43000
X43000Y-44000
X43250Y-40750
X43250Y-41750
X44250Y-44000
X45250Y-44000
X46000Y-50750
X47000Y-50750
X48750Y-47500
X49539Y-50000
X49750Y-47500
X50750Y-55750
X51000Y-48250
X51461Y-50000
X51750Y-55750
X52000Y-48250
X53500Y-48000
X53500Y-49000
X53500Y-50250
X53500Y-51250
X58750Y-48500
X58750Y-49500
X71500Y-55500
X71500Y-56500
X71750Y-57750
X72750Y-57750
X73750Y-57750
X74750Y-57750
X76750Y-48250
X76750Y-49250
T4
X44000Y-45750
X44000Y-46750
X44000Y-47750
X44000Y-48750
X46000Y-51750
X46000Y-54750
X47000Y-45750
X47000Y-46750
X47000Y-47750
X47000Y-48750
X47000Y-51750
X47000Y-54750
X48000Y-51750
X48000Y-54750
X49000Y-51750
X49000Y-54750
X50000Y-51750
X50000Y-54750
X51000Y-51750
X51000Y-54750
X52000Y-51750
X52000Y-54750
X54500Y-42000
X54500Y-43000
X54500Y-44000
X54500Y-45000
X54500Y-46000
X54500Y-47000
X54500Y-48000
X54500Y-49000
X54500Y-50000
X54500Y-51000
X54500Y-52000
X54500Y-53000
X54500Y-54000
X54500Y-55000
X57500Y-42000
X57500Y-43000
X57500Y-44000
X57500Y-45000
X57500Y-46000
X57500Y-47000
X57500Y-48000
X57500Y-49000
X57500Y-50000
X57500Y-51000
X57500Y-52000
X57500Y-53000
X57500Y-54000
X57500Y-55000
X60000Y-42250
X60000Y-43250
X60000Y-44250
X60000Y-45250
X60000Y-46250
X60000Y-47250
X60000Y-48250
X60000Y-49250
X63000Y-42250
X63000Y-43250
X63000Y-44250
X63000Y-45250
X63000Y-46250
X63000Y-47250
X63000Y-48250
X63000Y-49250
X64250Y-41250
X64250Y-42250
X64250Y-43250
X64250Y-44250
X64250Y-46000
X64250Y-47000
X64250Y-48000
X64250Y-49000
X64250Y-50750
X64250Y-51750
X64250Y-52750
X64250Y-53750
X67250Y-41250
X67250Y-42250
X67250Y-43250
X67250Y-44250
X67250Y-46000
X67250Y-47000
X67250Y-48000
X67250Y-49000
X67250Y-50750
X67250Y-51750
X67250Y-52750
X67250Y-53750
X69750Y-44000
X69750Y-47000
X70750Y-44000
X70750Y-47000
X71750Y-44000
X71750Y-47000
X72750Y-44000
X72750Y-47000
X73750Y-44000
X73750Y-47000
X74750Y-44000
X74750Y-47000
X75750Y-44000
X75750Y-47000
X76750Y-44000
X76750Y-47000
T5
X44250Y-50000
X44250Y-54000
X44500Y-40750
X44500Y-41750
X44500Y-42750
X44750Y-55750
X46500Y-44500
X48000Y-46250
X48750Y-55750
X50500Y-44500
X53250Y-42250
X53250Y-46250
X58750Y-51000
X58750Y-52500
X58750Y-54000
X58750Y-55500
X62750Y-51000
X62750Y-52500
X62750Y-54000
X62750Y-55500
X71000Y-50000
X71000Y-54000
X72750Y-56000
X73750Y-56000
X74750Y-56000
T6
X41000Y-47250
X41000Y-48250
X41000Y-49250
X41000Y-50250
X41000Y-51250
X41000Y-54000
X42000Y-47250
X42000Y-48250
X42000Y-49250
X42000Y-50250
X42000Y-51250
X42000Y-54000
X43000Y-54000
X44000Y-57000
X45000Y-57000
X46000Y-57000
X47000Y-57000
X48500Y-57000
X49500Y-57000
X50500Y-57000
X51500Y-57000
X53250Y-40250
X54250Y-40250
X55250Y-40250
X56250Y-40250
X57000Y-56750
X57000Y-57750
X57250Y-40250
X58000Y-56750
X58000Y-57750
X58250Y-40250
X59000Y-56750
X59000Y-57750
X65500Y-56500
X65500Y-57500
X66500Y-56500
X66500Y-57500
X67500Y-56500
X67500Y-57500
X68500Y-48250
X68500Y-49250
X68500Y-50250
X68500Y-51250
X68500Y-52250
X68500Y-53250
X68500Y-54250
X68500Y-56500
X68500Y-57500
X70000Y-41000
X70000Y-42000
X71000Y-41000
X71000Y-42000
X72000Y-41000
X72000Y-42000
X73000Y-41000
X73000Y-42000
X76750Y-50750
X76750Y-51750
X76750Y-52750
T7
X60220Y-40250
X62780Y-40250
T8
X52000Y-46250
T9
X41339Y-41339
X41339Y-57087
X76772Y-41339
X76772Y-57087
T10
X51100Y-41750
X73750Y-49400
T0
M30
