%FSLAX46Y46*%
G04 Gerber Fmt 4.6, Leading zero omitted, Abs format (unit mm)*
G04 Created by KiCad (PCBNEW (2014-jul-16 BZR unknown)-product) date Fri 03 Oct 2014 04:25:25 PM PDT*
%MOMM*%
G01*
G04 APERTURE LIST*
%ADD10C,0.100000*%
%ADD11C,1.501140*%
%ADD12C,1.998980*%
%ADD13R,1.998980X1.998980*%
%ADD14C,6.000000*%
%ADD15R,1.727200X1.727200*%
%ADD16C,1.727200*%
%ADD17R,1.524000X1.524000*%
%ADD18C,1.524000*%
%ADD19O,1.727200X1.727200*%
%ADD20O,1.699260X3.500120*%
%ADD21R,1.397000X1.397000*%
%ADD22C,1.397000*%
%ADD23O,3.500120X1.699260*%
G04 APERTURE END LIST*
D10*
D11*
X182245000Y-146685000D03*
X184785000Y-146685000D03*
X181610000Y-143510000D03*
X181610000Y-140970000D03*
X189865000Y-146685000D03*
X187325000Y-146685000D03*
X194945000Y-122555000D03*
X194945000Y-125095000D03*
X135890000Y-127635000D03*
X135890000Y-130175000D03*
X109855000Y-103505000D03*
X109855000Y-106045000D03*
X129540000Y-122555000D03*
X132080000Y-122555000D03*
X112395000Y-111760000D03*
X114935000Y-111760000D03*
X109220000Y-111760000D03*
X109220000Y-109220000D03*
X126365000Y-120650000D03*
X123825000Y-120650000D03*
X135890000Y-121920000D03*
X135890000Y-124460000D03*
X149225000Y-125730000D03*
X149225000Y-123190000D03*
X116840000Y-128905000D03*
X119380000Y-128905000D03*
X128905000Y-141605000D03*
X131445000Y-141605000D03*
D12*
X132080000Y-117475000D03*
D13*
X121920000Y-117475000D03*
D14*
X105000000Y-105000000D03*
X195000000Y-105000000D03*
X105000000Y-145000000D03*
X195000000Y-145000000D03*
D15*
X194945000Y-133985000D03*
D16*
X194945000Y-131445000D03*
X194945000Y-128905000D03*
D15*
X109220000Y-137160000D03*
D16*
X106680000Y-137160000D03*
X104140000Y-137160000D03*
D17*
X104140000Y-120015000D03*
D18*
X106680000Y-120015000D03*
X104140000Y-122555000D03*
X106680000Y-122555000D03*
X104140000Y-125095000D03*
X106680000Y-125095000D03*
X104140000Y-127635000D03*
X106680000Y-127635000D03*
X104140000Y-130175000D03*
X106680000Y-130175000D03*
D15*
X135255000Y-102235000D03*
D16*
X137795000Y-102235000D03*
X140335000Y-102235000D03*
X142875000Y-102235000D03*
X145415000Y-102235000D03*
X147955000Y-102235000D03*
D17*
X185420000Y-104140000D03*
D18*
X185420000Y-106680000D03*
X182880000Y-104140000D03*
X182880000Y-106680000D03*
X180340000Y-104140000D03*
X180340000Y-106680000D03*
X177800000Y-104140000D03*
X177800000Y-106680000D03*
D17*
X166370000Y-146050000D03*
D18*
X166370000Y-143510000D03*
X168910000Y-146050000D03*
X168910000Y-143510000D03*
X171450000Y-146050000D03*
X171450000Y-143510000D03*
X173990000Y-146050000D03*
X173990000Y-143510000D03*
D15*
X123190000Y-144780000D03*
D19*
X125730000Y-144780000D03*
X128270000Y-144780000D03*
X130810000Y-144780000D03*
D15*
X111760000Y-144780000D03*
D19*
X114300000Y-144780000D03*
X116840000Y-144780000D03*
X119380000Y-144780000D03*
D12*
X180340000Y-127000000D03*
X180340000Y-137160000D03*
X128270000Y-113030000D03*
X118110000Y-113030000D03*
X159385000Y-129540000D03*
X149225000Y-129540000D03*
X149225000Y-133350000D03*
X159385000Y-133350000D03*
X159385000Y-137160000D03*
X149225000Y-137160000D03*
X113665000Y-141605000D03*
X123825000Y-141605000D03*
X112395000Y-127000000D03*
X112395000Y-137160000D03*
X159385000Y-140970000D03*
X149225000Y-140970000D03*
X135255000Y-117475000D03*
X135255000Y-107315000D03*
D13*
X159461200Y-102235000D03*
D12*
X152958800Y-102235000D03*
D20*
X187325000Y-142240000D03*
X184785000Y-142240000D03*
X189865000Y-142240000D03*
D21*
X163195000Y-104775000D03*
D22*
X163195000Y-107315000D03*
X163195000Y-109855000D03*
X163195000Y-112395000D03*
X170815000Y-112395000D03*
X170815000Y-109855000D03*
X170815000Y-107315000D03*
X170815000Y-104775000D03*
D21*
X163195000Y-116840000D03*
D22*
X163195000Y-119380000D03*
X163195000Y-121920000D03*
X163195000Y-124460000D03*
X170815000Y-124460000D03*
X170815000Y-121920000D03*
X170815000Y-119380000D03*
X170815000Y-116840000D03*
D21*
X163195000Y-128905000D03*
D22*
X163195000Y-131445000D03*
X163195000Y-133985000D03*
X163195000Y-136525000D03*
X170815000Y-136525000D03*
X170815000Y-133985000D03*
X170815000Y-131445000D03*
X170815000Y-128905000D03*
D21*
X177165000Y-119380000D03*
D22*
X179705000Y-119380000D03*
X182245000Y-119380000D03*
X184785000Y-119380000D03*
X187325000Y-119380000D03*
X189865000Y-119380000D03*
X192405000Y-119380000D03*
X194945000Y-119380000D03*
X194945000Y-111760000D03*
X192405000Y-111760000D03*
X189865000Y-111760000D03*
X187325000Y-111760000D03*
X184785000Y-111760000D03*
X182245000Y-111760000D03*
X179705000Y-111760000D03*
X177165000Y-111760000D03*
D23*
X113030000Y-106045000D03*
X113030000Y-103505000D03*
X113030000Y-108585000D03*
D21*
X116840000Y-139065000D03*
D22*
X119380000Y-139065000D03*
X121920000Y-139065000D03*
X124460000Y-139065000D03*
X127000000Y-139065000D03*
X129540000Y-139065000D03*
X132080000Y-139065000D03*
X132080000Y-131445000D03*
X129540000Y-131445000D03*
X127000000Y-131445000D03*
X124460000Y-131445000D03*
X121920000Y-131445000D03*
X119380000Y-131445000D03*
X116840000Y-131445000D03*
D21*
X111760000Y-116205000D03*
D22*
X111760000Y-118745000D03*
X111760000Y-121285000D03*
X111760000Y-123825000D03*
X119380000Y-123825000D03*
X119380000Y-121285000D03*
X119380000Y-118745000D03*
X119380000Y-116205000D03*
X138430000Y-109220000D03*
X138430000Y-111760000D03*
X138430000Y-114300000D03*
X138430000Y-116840000D03*
X138430000Y-119380000D03*
X138430000Y-121920000D03*
X138430000Y-124460000D03*
X138430000Y-127000000D03*
X138430000Y-129540000D03*
X138430000Y-132080000D03*
X138430000Y-134620000D03*
X138430000Y-137160000D03*
X138430000Y-139700000D03*
D21*
X138430000Y-106680000D03*
D22*
X146050000Y-139700000D03*
X146050000Y-137160000D03*
X146050000Y-134620000D03*
X146050000Y-132080000D03*
X146050000Y-129540000D03*
X146050000Y-127000000D03*
X146050000Y-124460000D03*
X146050000Y-121920000D03*
X146050000Y-119380000D03*
X146050000Y-116840000D03*
X146050000Y-114300000D03*
X146050000Y-111760000D03*
X146050000Y-109220000D03*
X146050000Y-106680000D03*
D11*
X130710940Y-127000000D03*
X125829060Y-127000000D03*
D15*
X173990000Y-137795000D03*
D16*
X173990000Y-135255000D03*
X173990000Y-132715000D03*
X173990000Y-130175000D03*
X173990000Y-127635000D03*
X173990000Y-125095000D03*
X173990000Y-122555000D03*
D15*
X144780000Y-146685000D03*
D19*
X144780000Y-144145000D03*
X147320000Y-146685000D03*
X147320000Y-144145000D03*
X149860000Y-146685000D03*
X149860000Y-144145000D03*
D18*
X156845000Y-146050000D03*
X159385000Y-146050000D03*
D21*
X152400000Y-107315000D03*
D22*
X152400000Y-109855000D03*
X152400000Y-112395000D03*
X152400000Y-114935000D03*
X152400000Y-117475000D03*
X152400000Y-120015000D03*
X152400000Y-122555000D03*
X152400000Y-125095000D03*
X160020000Y-125095000D03*
X160020000Y-122555000D03*
X160020000Y-120015000D03*
X160020000Y-117475000D03*
X160020000Y-114935000D03*
X160020000Y-112395000D03*
X160020000Y-109855000D03*
X160020000Y-107315000D03*
M02*
