%FSLAX36Y36*%
G04 Gerber Fmt 3.6, Leading zero omitted, Abs format (unit inch)*
G04 Created by KiCad (PCBNEW (2014-jul-16 BZR unknown)-product) date Sun 05 Oct 2014 02:03:01 PM PDT*
%MOIN*%
G01*
G04 APERTURE LIST*
%ADD10C,0.003937*%
%ADD11C,0.008000*%
%ADD12C,0.000100*%
G04 APERTURE END LIST*
D10*
D11*
X7490114Y-5421295D02*
X7490114Y-5381295D01*
X7472971Y-5421295D02*
X7472971Y-5400343D01*
X7474876Y-5396533D01*
X7478686Y-5394629D01*
X7484400Y-5394629D01*
X7488209Y-5396533D01*
X7490114Y-5398438D01*
X7436781Y-5421295D02*
X7436781Y-5400343D01*
X7438686Y-5396533D01*
X7442495Y-5394629D01*
X7450114Y-5394629D01*
X7453924Y-5396533D01*
X7436781Y-5419390D02*
X7440590Y-5421295D01*
X7450114Y-5421295D01*
X7453924Y-5419390D01*
X7455829Y-5415581D01*
X7455829Y-5411771D01*
X7453924Y-5407962D01*
X7450114Y-5406057D01*
X7440590Y-5406057D01*
X7436781Y-5404152D01*
X7417733Y-5421295D02*
X7417733Y-5394629D01*
X7417733Y-5402248D02*
X7415829Y-5398438D01*
X7413924Y-5396533D01*
X7410114Y-5394629D01*
X7406305Y-5394629D01*
X7375829Y-5421295D02*
X7375829Y-5381295D01*
X7375829Y-5419390D02*
X7379638Y-5421295D01*
X7387257Y-5421295D01*
X7391067Y-5419390D01*
X7392971Y-5417486D01*
X7394876Y-5413676D01*
X7394876Y-5402248D01*
X7392971Y-5398438D01*
X7391067Y-5396533D01*
X7387257Y-5394629D01*
X7379638Y-5394629D01*
X7375829Y-5396533D01*
X7360590Y-5394629D02*
X7352971Y-5421295D01*
X7345352Y-5402248D01*
X7337733Y-5421295D01*
X7330114Y-5394629D01*
X7297733Y-5421295D02*
X7297733Y-5400343D01*
X7299638Y-5396533D01*
X7303448Y-5394629D01*
X7311067Y-5394629D01*
X7314876Y-5396533D01*
X7297733Y-5419390D02*
X7301543Y-5421295D01*
X7311067Y-5421295D01*
X7314876Y-5419390D01*
X7316781Y-5415581D01*
X7316781Y-5411771D01*
X7314876Y-5407962D01*
X7311067Y-5406057D01*
X7301543Y-5406057D01*
X7297733Y-5404152D01*
X7278686Y-5421295D02*
X7278686Y-5394629D01*
X7278686Y-5402248D02*
X7276781Y-5398438D01*
X7274876Y-5396533D01*
X7271067Y-5394629D01*
X7267257Y-5394629D01*
X7238686Y-5419390D02*
X7242495Y-5421295D01*
X7250114Y-5421295D01*
X7253924Y-5419390D01*
X7255829Y-5415581D01*
X7255829Y-5400343D01*
X7253924Y-5396533D01*
X7250114Y-5394629D01*
X7242495Y-5394629D01*
X7238686Y-5396533D01*
X7236781Y-5400343D01*
X7236781Y-5404152D01*
X7255829Y-5407962D01*
X7520476Y-5368095D02*
X7524286Y-5366190D01*
X7526190Y-5364286D01*
X7528095Y-5360476D01*
X7528095Y-5349048D01*
X7526190Y-5345238D01*
X7524286Y-5343333D01*
X7520476Y-5341429D01*
X7514762Y-5341429D01*
X7510952Y-5343333D01*
X7509048Y-5345238D01*
X7507143Y-5349048D01*
X7507143Y-5360476D01*
X7509048Y-5364286D01*
X7510952Y-5366190D01*
X7514762Y-5368095D01*
X7520476Y-5368095D01*
X7490000Y-5341429D02*
X7490000Y-5381429D01*
X7490000Y-5343333D02*
X7486190Y-5341429D01*
X7478571Y-5341429D01*
X7474762Y-5343333D01*
X7472857Y-5345238D01*
X7470952Y-5349048D01*
X7470952Y-5360476D01*
X7472857Y-5364286D01*
X7474762Y-5366190D01*
X7478571Y-5368095D01*
X7486190Y-5368095D01*
X7490000Y-5366190D01*
X7438571Y-5366190D02*
X7442381Y-5368095D01*
X7450000Y-5368095D01*
X7453809Y-5366190D01*
X7455714Y-5362381D01*
X7455714Y-5347143D01*
X7453809Y-5343333D01*
X7450000Y-5341429D01*
X7442381Y-5341429D01*
X7438571Y-5343333D01*
X7436667Y-5347143D01*
X7436667Y-5350952D01*
X7455714Y-5354762D01*
X7419524Y-5341429D02*
X7419524Y-5368095D01*
X7419524Y-5345238D02*
X7417619Y-5343333D01*
X7413809Y-5341429D01*
X7408095Y-5341429D01*
X7404286Y-5343333D01*
X7402381Y-5347143D01*
X7402381Y-5368095D01*
X7354762Y-5366190D02*
X7350952Y-5368095D01*
X7343333Y-5368095D01*
X7339524Y-5366190D01*
X7337619Y-5362381D01*
X7337619Y-5360476D01*
X7339524Y-5356667D01*
X7343333Y-5354762D01*
X7349048Y-5354762D01*
X7352857Y-5352857D01*
X7354762Y-5349048D01*
X7354762Y-5347143D01*
X7352857Y-5343333D01*
X7349048Y-5341429D01*
X7343333Y-5341429D01*
X7339524Y-5343333D01*
X7314762Y-5368095D02*
X7318571Y-5366190D01*
X7320476Y-5364286D01*
X7322381Y-5360476D01*
X7322381Y-5349048D01*
X7320476Y-5345238D01*
X7318571Y-5343333D01*
X7314762Y-5341429D01*
X7309048Y-5341429D01*
X7305238Y-5343333D01*
X7303333Y-5345238D01*
X7301429Y-5349048D01*
X7301429Y-5360476D01*
X7303333Y-5364286D01*
X7305238Y-5366190D01*
X7309048Y-5368095D01*
X7314762Y-5368095D01*
X7267143Y-5341429D02*
X7267143Y-5368095D01*
X7284286Y-5341429D02*
X7284286Y-5362381D01*
X7282381Y-5366190D01*
X7278571Y-5368095D01*
X7272857Y-5368095D01*
X7269048Y-5366190D01*
X7267143Y-5364286D01*
X7248095Y-5368095D02*
X7248095Y-5341429D01*
X7248095Y-5349048D02*
X7246190Y-5345238D01*
X7244286Y-5343333D01*
X7240476Y-5341429D01*
X7236667Y-5341429D01*
X7206191Y-5366190D02*
X7210000Y-5368095D01*
X7217619Y-5368095D01*
X7221429Y-5366190D01*
X7223333Y-5364286D01*
X7225238Y-5360476D01*
X7225238Y-5349048D01*
X7223333Y-5345238D01*
X7221429Y-5343333D01*
X7217619Y-5341429D01*
X7210000Y-5341429D01*
X7206191Y-5343333D01*
X7173810Y-5366190D02*
X7177619Y-5368095D01*
X7185238Y-5368095D01*
X7189048Y-5366190D01*
X7190952Y-5362381D01*
X7190952Y-5347143D01*
X7189048Y-5343333D01*
X7185238Y-5341429D01*
X7177619Y-5341429D01*
X7173810Y-5343333D01*
X7171905Y-5347143D01*
X7171905Y-5350952D01*
X7190952Y-5354762D01*
D12*
G36*
X7259100Y-5334700D02*
X7260700Y-5333900D01*
X7264200Y-5331700D01*
X7269200Y-5328400D01*
X7275100Y-5324400D01*
X7281000Y-5320400D01*
X7285900Y-5317200D01*
X7289400Y-5315000D01*
X7290800Y-5314200D01*
X7291500Y-5314400D01*
X7294400Y-5315800D01*
X7298500Y-5317900D01*
X7300800Y-5319200D01*
X7304600Y-5320800D01*
X7306500Y-5321100D01*
X7306800Y-5320600D01*
X7308200Y-5317700D01*
X7310300Y-5312800D01*
X7313200Y-5306300D01*
X7316400Y-5298700D01*
X7319900Y-5290500D01*
X7323400Y-5282100D01*
X7326700Y-5274100D01*
X7329600Y-5266900D01*
X7332000Y-5261100D01*
X7333500Y-5257100D01*
X7334100Y-5255300D01*
X7333900Y-5254900D01*
X7332000Y-5253100D01*
X7328700Y-5250600D01*
X7321700Y-5244900D01*
X7314600Y-5236100D01*
X7310400Y-5226200D01*
X7309000Y-5215200D01*
X7310200Y-5204900D01*
X7314200Y-5195100D01*
X7321000Y-5186300D01*
X7329400Y-5179700D01*
X7339100Y-5175500D01*
X7350000Y-5174200D01*
X7360400Y-5175400D01*
X7370500Y-5179300D01*
X7379300Y-5186100D01*
X7383000Y-5190400D01*
X7388200Y-5199300D01*
X7391100Y-5208900D01*
X7391500Y-5211400D01*
X7391000Y-5221900D01*
X7387900Y-5232000D01*
X7382300Y-5241000D01*
X7374600Y-5248400D01*
X7373700Y-5249100D01*
X7370100Y-5251800D01*
X7367700Y-5253600D01*
X7365800Y-5255200D01*
X7379200Y-5287500D01*
X7381400Y-5292600D01*
X7385000Y-5301400D01*
X7388300Y-5309000D01*
X7390900Y-5315100D01*
X7392600Y-5319100D01*
X7393400Y-5320700D01*
X7393500Y-5320800D01*
X7394700Y-5321000D01*
X7397200Y-5320200D01*
X7401700Y-5318000D01*
X7404700Y-5316400D01*
X7408100Y-5314800D01*
X7409600Y-5314200D01*
X7410900Y-5314900D01*
X7414200Y-5317000D01*
X7419000Y-5320200D01*
X7424800Y-5324100D01*
X7430300Y-5327900D01*
X7435400Y-5331200D01*
X7439100Y-5333600D01*
X7440800Y-5334500D01*
X7441100Y-5334500D01*
X7442700Y-5333700D01*
X7445600Y-5331200D01*
X7450000Y-5327100D01*
X7456200Y-5320900D01*
X7457200Y-5320000D01*
X7462300Y-5314800D01*
X7466500Y-5310400D01*
X7469200Y-5307300D01*
X7470200Y-5305900D01*
X7470200Y-5305900D01*
X7469300Y-5304100D01*
X7467000Y-5300500D01*
X7463600Y-5295300D01*
X7459600Y-5289300D01*
X7448900Y-5273800D01*
X7454700Y-5259100D01*
X7456500Y-5254700D01*
X7458800Y-5249200D01*
X7460500Y-5245300D01*
X7461400Y-5243600D01*
X7463000Y-5243100D01*
X7467000Y-5242100D01*
X7472800Y-5240900D01*
X7479800Y-5239600D01*
X7486400Y-5238400D01*
X7492400Y-5237300D01*
X7496700Y-5236400D01*
X7498600Y-5236000D01*
X7499100Y-5235700D01*
X7499500Y-5234800D01*
X7499700Y-5232800D01*
X7499900Y-5229100D01*
X7499900Y-5223400D01*
X7499900Y-5215200D01*
X7499900Y-5214300D01*
X7499900Y-5206400D01*
X7499700Y-5200100D01*
X7499500Y-5196000D01*
X7499200Y-5194400D01*
X7499200Y-5194400D01*
X7497400Y-5193900D01*
X7493100Y-5193000D01*
X7487200Y-5191800D01*
X7480000Y-5190500D01*
X7479600Y-5190400D01*
X7472500Y-5189000D01*
X7466600Y-5187800D01*
X7462400Y-5186800D01*
X7460600Y-5186300D01*
X7460300Y-5185800D01*
X7458800Y-5183000D01*
X7456800Y-5178600D01*
X7454500Y-5173300D01*
X7452200Y-5167700D01*
X7450100Y-5162700D01*
X7448800Y-5158900D01*
X7448400Y-5157200D01*
X7448400Y-5157200D01*
X7449500Y-5155500D01*
X7451900Y-5151800D01*
X7455400Y-5146700D01*
X7459500Y-5140700D01*
X7459800Y-5140200D01*
X7463900Y-5134200D01*
X7467200Y-5129200D01*
X7469400Y-5125500D01*
X7470200Y-5123900D01*
X7470200Y-5123800D01*
X7468900Y-5122000D01*
X7465800Y-5118600D01*
X7461400Y-5114000D01*
X7456200Y-5108700D01*
X7454500Y-5107100D01*
X7448700Y-5101400D01*
X7444600Y-5097700D01*
X7442100Y-5095700D01*
X7440900Y-5095300D01*
X7440900Y-5095300D01*
X7439100Y-5096400D01*
X7435300Y-5098900D01*
X7430100Y-5102300D01*
X7424100Y-5106500D01*
X7423600Y-5106800D01*
X7417600Y-5110800D01*
X7412600Y-5114200D01*
X7409100Y-5116600D01*
X7407500Y-5117500D01*
X7407300Y-5117500D01*
X7404800Y-5116800D01*
X7400600Y-5115300D01*
X7395300Y-5113200D01*
X7389800Y-5111000D01*
X7384700Y-5108900D01*
X7380900Y-5107200D01*
X7379200Y-5106200D01*
X7379100Y-5106100D01*
X7378500Y-5103900D01*
X7377500Y-5099400D01*
X7376200Y-5093300D01*
X7374800Y-5085900D01*
X7374600Y-5084700D01*
X7373200Y-5077600D01*
X7372100Y-5071700D01*
X7371200Y-5067600D01*
X7370800Y-5065900D01*
X7369800Y-5065700D01*
X7366300Y-5065400D01*
X7361000Y-5065300D01*
X7354500Y-5065200D01*
X7347700Y-5065300D01*
X7341100Y-5065400D01*
X7335500Y-5065600D01*
X7331400Y-5065900D01*
X7329700Y-5066200D01*
X7329700Y-5066300D01*
X7329000Y-5068500D01*
X7328100Y-5073000D01*
X7326800Y-5079300D01*
X7325400Y-5086600D01*
X7325100Y-5087900D01*
X7323800Y-5095000D01*
X7322600Y-5100900D01*
X7321700Y-5104900D01*
X7321300Y-5106500D01*
X7320600Y-5106800D01*
X7317700Y-5108100D01*
X7312900Y-5110100D01*
X7307000Y-5112500D01*
X7293200Y-5118000D01*
X7276400Y-5106500D01*
X7274900Y-5105500D01*
X7268800Y-5101300D01*
X7263800Y-5098000D01*
X7260400Y-5095800D01*
X7259000Y-5095000D01*
X7258800Y-5095000D01*
X7257100Y-5096500D01*
X7253800Y-5099600D01*
X7249300Y-5104100D01*
X7243900Y-5109300D01*
X7240000Y-5113300D01*
X7235400Y-5118000D01*
X7232500Y-5121200D01*
X7230900Y-5123200D01*
X7230300Y-5124400D01*
X7230400Y-5125300D01*
X7231500Y-5127000D01*
X7234000Y-5130700D01*
X7237500Y-5135800D01*
X7241500Y-5141800D01*
X7244900Y-5146700D01*
X7248600Y-5152400D01*
X7251000Y-5156400D01*
X7251800Y-5158400D01*
X7251600Y-5159200D01*
X7250400Y-5162500D01*
X7248400Y-5167500D01*
X7245900Y-5173400D01*
X7240000Y-5186700D01*
X7231300Y-5188400D01*
X7226000Y-5189400D01*
X7218600Y-5190800D01*
X7211500Y-5192200D01*
X7200400Y-5194400D01*
X7200000Y-5235000D01*
X7201800Y-5235700D01*
X7203400Y-5236200D01*
X7207500Y-5237100D01*
X7213300Y-5238200D01*
X7220200Y-5239500D01*
X7226100Y-5240600D01*
X7232000Y-5241800D01*
X7236300Y-5242600D01*
X7238200Y-5243000D01*
X7238700Y-5243600D01*
X7240200Y-5246500D01*
X7242200Y-5251100D01*
X7244600Y-5256500D01*
X7247000Y-5262200D01*
X7249100Y-5267500D01*
X7250500Y-5271500D01*
X7251100Y-5273600D01*
X7250200Y-5275100D01*
X7248000Y-5278600D01*
X7244700Y-5283600D01*
X7240700Y-5289400D01*
X7236700Y-5295300D01*
X7233300Y-5300400D01*
X7230900Y-5304000D01*
X7229900Y-5305600D01*
X7230400Y-5306800D01*
X7232800Y-5309600D01*
X7237200Y-5314200D01*
X7243800Y-5320800D01*
X7244900Y-5321800D01*
X7250200Y-5326900D01*
X7254600Y-5331000D01*
X7257700Y-5333700D01*
X7259100Y-5334700D01*
X7259100Y-5334700D01*
G37*
X7259100Y-5334700D02*
X7260700Y-5333900D01*
X7264200Y-5331700D01*
X7269200Y-5328400D01*
X7275100Y-5324400D01*
X7281000Y-5320400D01*
X7285900Y-5317200D01*
X7289400Y-5315000D01*
X7290800Y-5314200D01*
X7291500Y-5314400D01*
X7294400Y-5315800D01*
X7298500Y-5317900D01*
X7300800Y-5319200D01*
X7304600Y-5320800D01*
X7306500Y-5321100D01*
X7306800Y-5320600D01*
X7308200Y-5317700D01*
X7310300Y-5312800D01*
X7313200Y-5306300D01*
X7316400Y-5298700D01*
X7319900Y-5290500D01*
X7323400Y-5282100D01*
X7326700Y-5274100D01*
X7329600Y-5266900D01*
X7332000Y-5261100D01*
X7333500Y-5257100D01*
X7334100Y-5255300D01*
X7333900Y-5254900D01*
X7332000Y-5253100D01*
X7328700Y-5250600D01*
X7321700Y-5244900D01*
X7314600Y-5236100D01*
X7310400Y-5226200D01*
X7309000Y-5215200D01*
X7310200Y-5204900D01*
X7314200Y-5195100D01*
X7321000Y-5186300D01*
X7329400Y-5179700D01*
X7339100Y-5175500D01*
X7350000Y-5174200D01*
X7360400Y-5175400D01*
X7370500Y-5179300D01*
X7379300Y-5186100D01*
X7383000Y-5190400D01*
X7388200Y-5199300D01*
X7391100Y-5208900D01*
X7391500Y-5211400D01*
X7391000Y-5221900D01*
X7387900Y-5232000D01*
X7382300Y-5241000D01*
X7374600Y-5248400D01*
X7373700Y-5249100D01*
X7370100Y-5251800D01*
X7367700Y-5253600D01*
X7365800Y-5255200D01*
X7379200Y-5287500D01*
X7381400Y-5292600D01*
X7385000Y-5301400D01*
X7388300Y-5309000D01*
X7390900Y-5315100D01*
X7392600Y-5319100D01*
X7393400Y-5320700D01*
X7393500Y-5320800D01*
X7394700Y-5321000D01*
X7397200Y-5320200D01*
X7401700Y-5318000D01*
X7404700Y-5316400D01*
X7408100Y-5314800D01*
X7409600Y-5314200D01*
X7410900Y-5314900D01*
X7414200Y-5317000D01*
X7419000Y-5320200D01*
X7424800Y-5324100D01*
X7430300Y-5327900D01*
X7435400Y-5331200D01*
X7439100Y-5333600D01*
X7440800Y-5334500D01*
X7441100Y-5334500D01*
X7442700Y-5333700D01*
X7445600Y-5331200D01*
X7450000Y-5327100D01*
X7456200Y-5320900D01*
X7457200Y-5320000D01*
X7462300Y-5314800D01*
X7466500Y-5310400D01*
X7469200Y-5307300D01*
X7470200Y-5305900D01*
X7470200Y-5305900D01*
X7469300Y-5304100D01*
X7467000Y-5300500D01*
X7463600Y-5295300D01*
X7459600Y-5289300D01*
X7448900Y-5273800D01*
X7454700Y-5259100D01*
X7456500Y-5254700D01*
X7458800Y-5249200D01*
X7460500Y-5245300D01*
X7461400Y-5243600D01*
X7463000Y-5243100D01*
X7467000Y-5242100D01*
X7472800Y-5240900D01*
X7479800Y-5239600D01*
X7486400Y-5238400D01*
X7492400Y-5237300D01*
X7496700Y-5236400D01*
X7498600Y-5236000D01*
X7499100Y-5235700D01*
X7499500Y-5234800D01*
X7499700Y-5232800D01*
X7499900Y-5229100D01*
X7499900Y-5223400D01*
X7499900Y-5215200D01*
X7499900Y-5214300D01*
X7499900Y-5206400D01*
X7499700Y-5200100D01*
X7499500Y-5196000D01*
X7499200Y-5194400D01*
X7499200Y-5194400D01*
X7497400Y-5193900D01*
X7493100Y-5193000D01*
X7487200Y-5191800D01*
X7480000Y-5190500D01*
X7479600Y-5190400D01*
X7472500Y-5189000D01*
X7466600Y-5187800D01*
X7462400Y-5186800D01*
X7460600Y-5186300D01*
X7460300Y-5185800D01*
X7458800Y-5183000D01*
X7456800Y-5178600D01*
X7454500Y-5173300D01*
X7452200Y-5167700D01*
X7450100Y-5162700D01*
X7448800Y-5158900D01*
X7448400Y-5157200D01*
X7448400Y-5157200D01*
X7449500Y-5155500D01*
X7451900Y-5151800D01*
X7455400Y-5146700D01*
X7459500Y-5140700D01*
X7459800Y-5140200D01*
X7463900Y-5134200D01*
X7467200Y-5129200D01*
X7469400Y-5125500D01*
X7470200Y-5123900D01*
X7470200Y-5123800D01*
X7468900Y-5122000D01*
X7465800Y-5118600D01*
X7461400Y-5114000D01*
X7456200Y-5108700D01*
X7454500Y-5107100D01*
X7448700Y-5101400D01*
X7444600Y-5097700D01*
X7442100Y-5095700D01*
X7440900Y-5095300D01*
X7440900Y-5095300D01*
X7439100Y-5096400D01*
X7435300Y-5098900D01*
X7430100Y-5102300D01*
X7424100Y-5106500D01*
X7423600Y-5106800D01*
X7417600Y-5110800D01*
X7412600Y-5114200D01*
X7409100Y-5116600D01*
X7407500Y-5117500D01*
X7407300Y-5117500D01*
X7404800Y-5116800D01*
X7400600Y-5115300D01*
X7395300Y-5113200D01*
X7389800Y-5111000D01*
X7384700Y-5108900D01*
X7380900Y-5107200D01*
X7379200Y-5106200D01*
X7379100Y-5106100D01*
X7378500Y-5103900D01*
X7377500Y-5099400D01*
X7376200Y-5093300D01*
X7374800Y-5085900D01*
X7374600Y-5084700D01*
X7373200Y-5077600D01*
X7372100Y-5071700D01*
X7371200Y-5067600D01*
X7370800Y-5065900D01*
X7369800Y-5065700D01*
X7366300Y-5065400D01*
X7361000Y-5065300D01*
X7354500Y-5065200D01*
X7347700Y-5065300D01*
X7341100Y-5065400D01*
X7335500Y-5065600D01*
X7331400Y-5065900D01*
X7329700Y-5066200D01*
X7329700Y-5066300D01*
X7329000Y-5068500D01*
X7328100Y-5073000D01*
X7326800Y-5079300D01*
X7325400Y-5086600D01*
X7325100Y-5087900D01*
X7323800Y-5095000D01*
X7322600Y-5100900D01*
X7321700Y-5104900D01*
X7321300Y-5106500D01*
X7320600Y-5106800D01*
X7317700Y-5108100D01*
X7312900Y-5110100D01*
X7307000Y-5112500D01*
X7293200Y-5118000D01*
X7276400Y-5106500D01*
X7274900Y-5105500D01*
X7268800Y-5101300D01*
X7263800Y-5098000D01*
X7260400Y-5095800D01*
X7259000Y-5095000D01*
X7258800Y-5095000D01*
X7257100Y-5096500D01*
X7253800Y-5099600D01*
X7249300Y-5104100D01*
X7243900Y-5109300D01*
X7240000Y-5113300D01*
X7235400Y-5118000D01*
X7232500Y-5121200D01*
X7230900Y-5123200D01*
X7230300Y-5124400D01*
X7230400Y-5125300D01*
X7231500Y-5127000D01*
X7234000Y-5130700D01*
X7237500Y-5135800D01*
X7241500Y-5141800D01*
X7244900Y-5146700D01*
X7248600Y-5152400D01*
X7251000Y-5156400D01*
X7251800Y-5158400D01*
X7251600Y-5159200D01*
X7250400Y-5162500D01*
X7248400Y-5167500D01*
X7245900Y-5173400D01*
X7240000Y-5186700D01*
X7231300Y-5188400D01*
X7226000Y-5189400D01*
X7218600Y-5190800D01*
X7211500Y-5192200D01*
X7200400Y-5194400D01*
X7200000Y-5235000D01*
X7201800Y-5235700D01*
X7203400Y-5236200D01*
X7207500Y-5237100D01*
X7213300Y-5238200D01*
X7220200Y-5239500D01*
X7226100Y-5240600D01*
X7232000Y-5241800D01*
X7236300Y-5242600D01*
X7238200Y-5243000D01*
X7238700Y-5243600D01*
X7240200Y-5246500D01*
X7242200Y-5251100D01*
X7244600Y-5256500D01*
X7247000Y-5262200D01*
X7249100Y-5267500D01*
X7250500Y-5271500D01*
X7251100Y-5273600D01*
X7250200Y-5275100D01*
X7248000Y-5278600D01*
X7244700Y-5283600D01*
X7240700Y-5289400D01*
X7236700Y-5295300D01*
X7233300Y-5300400D01*
X7230900Y-5304000D01*
X7229900Y-5305600D01*
X7230400Y-5306800D01*
X7232800Y-5309600D01*
X7237200Y-5314200D01*
X7243800Y-5320800D01*
X7244900Y-5321800D01*
X7250200Y-5326900D01*
X7254600Y-5331000D01*
X7257700Y-5333700D01*
X7259100Y-5334700D01*
M02*
