%FSLAX46Y46*%
G04 Gerber Fmt 4.6, Leading zero omitted, Abs format (unit mm)*
G04 Created by KiCad (PCBNEW (2014-jul-16 BZR unknown)-product) date Fri 03 Oct 2014 04:25:25 PM PDT*
%MOMM*%
G01*
G04 APERTURE LIST*
%ADD10C,0.100000*%
%ADD11C,1.501140*%
%ADD12C,1.998980*%
%ADD13R,1.998980X1.998980*%
%ADD14C,6.000000*%
%ADD15R,1.727200X1.727200*%
%ADD16C,1.727200*%
%ADD17R,1.524000X1.524000*%
%ADD18C,1.524000*%
%ADD19O,1.727200X1.727200*%
%ADD20O,1.699260X3.500120*%
%ADD21R,9.652000X15.748000*%
%ADD22R,1.397000X1.397000*%
%ADD23C,1.397000*%
%ADD24O,3.500120X1.699260*%
%ADD25R,15.748000X9.652000*%
%ADD26C,0.889000*%
%ADD27C,0.203200*%
%ADD28C,1.016000*%
%ADD29C,0.254000*%
G04 APERTURE END LIST*
D10*
D11*
X182245000Y-146685000D03*
X184785000Y-146685000D03*
X181610000Y-143510000D03*
X181610000Y-140970000D03*
X189865000Y-146685000D03*
X187325000Y-146685000D03*
X194945000Y-122555000D03*
X194945000Y-125095000D03*
X135890000Y-127635000D03*
X135890000Y-130175000D03*
X109855000Y-103505000D03*
X109855000Y-106045000D03*
X129540000Y-122555000D03*
X132080000Y-122555000D03*
X112395000Y-111760000D03*
X114935000Y-111760000D03*
X109220000Y-111760000D03*
X109220000Y-109220000D03*
X126365000Y-120650000D03*
X123825000Y-120650000D03*
X135890000Y-121920000D03*
X135890000Y-124460000D03*
X149225000Y-125730000D03*
X149225000Y-123190000D03*
X116840000Y-128905000D03*
X119380000Y-128905000D03*
X128905000Y-141605000D03*
X131445000Y-141605000D03*
D12*
X132080000Y-117475000D03*
D13*
X121920000Y-117475000D03*
D14*
X105000000Y-105000000D03*
X195000000Y-105000000D03*
X105000000Y-145000000D03*
X195000000Y-145000000D03*
D15*
X194945000Y-133985000D03*
D16*
X194945000Y-131445000D03*
X194945000Y-128905000D03*
D15*
X109220000Y-137160000D03*
D16*
X106680000Y-137160000D03*
X104140000Y-137160000D03*
D17*
X104140000Y-120015000D03*
D18*
X106680000Y-120015000D03*
X104140000Y-122555000D03*
X106680000Y-122555000D03*
X104140000Y-125095000D03*
X106680000Y-125095000D03*
X104140000Y-127635000D03*
X106680000Y-127635000D03*
X104140000Y-130175000D03*
X106680000Y-130175000D03*
D15*
X135255000Y-102235000D03*
D16*
X137795000Y-102235000D03*
X140335000Y-102235000D03*
X142875000Y-102235000D03*
X145415000Y-102235000D03*
X147955000Y-102235000D03*
D17*
X185420000Y-104140000D03*
D18*
X185420000Y-106680000D03*
X182880000Y-104140000D03*
X182880000Y-106680000D03*
X180340000Y-104140000D03*
X180340000Y-106680000D03*
X177800000Y-104140000D03*
X177800000Y-106680000D03*
D17*
X166370000Y-146050000D03*
D18*
X166370000Y-143510000D03*
X168910000Y-146050000D03*
X168910000Y-143510000D03*
X171450000Y-146050000D03*
X171450000Y-143510000D03*
X173990000Y-146050000D03*
X173990000Y-143510000D03*
D15*
X123190000Y-144780000D03*
D19*
X125730000Y-144780000D03*
X128270000Y-144780000D03*
X130810000Y-144780000D03*
D15*
X111760000Y-144780000D03*
D19*
X114300000Y-144780000D03*
X116840000Y-144780000D03*
X119380000Y-144780000D03*
D12*
X180340000Y-127000000D03*
X180340000Y-137160000D03*
X128270000Y-113030000D03*
X118110000Y-113030000D03*
X159385000Y-129540000D03*
X149225000Y-129540000D03*
X149225000Y-133350000D03*
X159385000Y-133350000D03*
X159385000Y-137160000D03*
X149225000Y-137160000D03*
X113665000Y-141605000D03*
X123825000Y-141605000D03*
X112395000Y-127000000D03*
X112395000Y-137160000D03*
X159385000Y-140970000D03*
X149225000Y-140970000D03*
X135255000Y-117475000D03*
X135255000Y-107315000D03*
D13*
X159461200Y-102235000D03*
D12*
X152958800Y-102235000D03*
D20*
X187325000Y-142240000D03*
X184785000Y-142240000D03*
X189865000Y-142240000D03*
D21*
X187325000Y-130302000D03*
D22*
X163195000Y-104775000D03*
D23*
X163195000Y-107315000D03*
X163195000Y-109855000D03*
X163195000Y-112395000D03*
X170815000Y-112395000D03*
X170815000Y-109855000D03*
X170815000Y-107315000D03*
X170815000Y-104775000D03*
D22*
X163195000Y-116840000D03*
D23*
X163195000Y-119380000D03*
X163195000Y-121920000D03*
X163195000Y-124460000D03*
X170815000Y-124460000D03*
X170815000Y-121920000D03*
X170815000Y-119380000D03*
X170815000Y-116840000D03*
D22*
X163195000Y-128905000D03*
D23*
X163195000Y-131445000D03*
X163195000Y-133985000D03*
X163195000Y-136525000D03*
X170815000Y-136525000D03*
X170815000Y-133985000D03*
X170815000Y-131445000D03*
X170815000Y-128905000D03*
D22*
X177165000Y-119380000D03*
D23*
X179705000Y-119380000D03*
X182245000Y-119380000D03*
X184785000Y-119380000D03*
X187325000Y-119380000D03*
X189865000Y-119380000D03*
X192405000Y-119380000D03*
X194945000Y-119380000D03*
X194945000Y-111760000D03*
X192405000Y-111760000D03*
X189865000Y-111760000D03*
X187325000Y-111760000D03*
X184785000Y-111760000D03*
X182245000Y-111760000D03*
X179705000Y-111760000D03*
X177165000Y-111760000D03*
D24*
X113030000Y-106045000D03*
X113030000Y-103505000D03*
X113030000Y-108585000D03*
D25*
X124968000Y-106045000D03*
D22*
X116840000Y-139065000D03*
D23*
X119380000Y-139065000D03*
X121920000Y-139065000D03*
X124460000Y-139065000D03*
X127000000Y-139065000D03*
X129540000Y-139065000D03*
X132080000Y-139065000D03*
X132080000Y-131445000D03*
X129540000Y-131445000D03*
X127000000Y-131445000D03*
X124460000Y-131445000D03*
X121920000Y-131445000D03*
X119380000Y-131445000D03*
X116840000Y-131445000D03*
D22*
X111760000Y-116205000D03*
D23*
X111760000Y-118745000D03*
X111760000Y-121285000D03*
X111760000Y-123825000D03*
X119380000Y-123825000D03*
X119380000Y-121285000D03*
X119380000Y-118745000D03*
X119380000Y-116205000D03*
X138430000Y-109220000D03*
X138430000Y-111760000D03*
X138430000Y-114300000D03*
X138430000Y-116840000D03*
X138430000Y-119380000D03*
X138430000Y-121920000D03*
X138430000Y-124460000D03*
X138430000Y-127000000D03*
X138430000Y-129540000D03*
X138430000Y-132080000D03*
X138430000Y-134620000D03*
X138430000Y-137160000D03*
X138430000Y-139700000D03*
D22*
X138430000Y-106680000D03*
D23*
X146050000Y-139700000D03*
X146050000Y-137160000D03*
X146050000Y-134620000D03*
X146050000Y-132080000D03*
X146050000Y-129540000D03*
X146050000Y-127000000D03*
X146050000Y-124460000D03*
X146050000Y-121920000D03*
X146050000Y-119380000D03*
X146050000Y-116840000D03*
X146050000Y-114300000D03*
X146050000Y-111760000D03*
X146050000Y-109220000D03*
X146050000Y-106680000D03*
D11*
X130710940Y-127000000D03*
X125829060Y-127000000D03*
D15*
X173990000Y-137795000D03*
D16*
X173990000Y-135255000D03*
X173990000Y-132715000D03*
X173990000Y-130175000D03*
X173990000Y-127635000D03*
X173990000Y-125095000D03*
X173990000Y-122555000D03*
D15*
X144780000Y-146685000D03*
D19*
X144780000Y-144145000D03*
X147320000Y-146685000D03*
X147320000Y-144145000D03*
X149860000Y-146685000D03*
X149860000Y-144145000D03*
D18*
X156845000Y-146050000D03*
X159385000Y-146050000D03*
D22*
X152400000Y-107315000D03*
D23*
X152400000Y-109855000D03*
X152400000Y-112395000D03*
X152400000Y-114935000D03*
X152400000Y-117475000D03*
X152400000Y-120015000D03*
X152400000Y-122555000D03*
X152400000Y-125095000D03*
X160020000Y-125095000D03*
X160020000Y-122555000D03*
X160020000Y-120015000D03*
X160020000Y-117475000D03*
X160020000Y-114935000D03*
X160020000Y-112395000D03*
X160020000Y-109855000D03*
X160020000Y-107315000D03*
D26*
X137795000Y-146685000D03*
X139700000Y-113030000D03*
X113030000Y-129540000D03*
X117475000Y-122555000D03*
X117475000Y-120015000D03*
X115570000Y-125730000D03*
X136525000Y-143510000D03*
X137795000Y-143510000D03*
X142240000Y-120650000D03*
X144145000Y-119380000D03*
X140335000Y-132080000D03*
X152400000Y-127635000D03*
X142240000Y-129540000D03*
X142875000Y-106680000D03*
X149860000Y-105410000D03*
X154305000Y-116205000D03*
X154940000Y-102235000D03*
X140970000Y-134620000D03*
X132080000Y-113030000D03*
X133985000Y-130175000D03*
X132080000Y-111760000D03*
X191770000Y-114935000D03*
X178435000Y-114935000D03*
X171450000Y-114300000D03*
X140335000Y-127000000D03*
X133350000Y-115570000D03*
X128294341Y-117499341D03*
X155575000Y-122555000D03*
X155575000Y-107315000D03*
D27*
X165100000Y-146050000D02*
X163830000Y-147320000D01*
X166370000Y-146050000D02*
X165100000Y-146050000D01*
X153670000Y-147320000D02*
X151765000Y-145415000D01*
X163830000Y-147320000D02*
X153670000Y-147320000D01*
X151765000Y-145415000D02*
X143510000Y-145415000D01*
X143510000Y-145415000D02*
X142240000Y-146685000D01*
X142240000Y-146685000D02*
X137795000Y-146685000D01*
X139700000Y-113030000D02*
X135255000Y-113030000D01*
X135255000Y-113030000D02*
X133985000Y-114300000D01*
X117475000Y-122555000D02*
X116840000Y-122555000D01*
X116840000Y-122555000D02*
X114300000Y-125095000D01*
X114300000Y-125095000D02*
X114300000Y-128270000D01*
X114300000Y-128270000D02*
X113030000Y-129540000D01*
X122555000Y-119380000D02*
X121920000Y-120015000D01*
X121920000Y-120015000D02*
X117475000Y-120015000D01*
X128270000Y-116205000D02*
X126365000Y-118110000D01*
X125730000Y-118110000D02*
X124460000Y-119380000D01*
X124460000Y-119380000D02*
X122555000Y-119380000D01*
X126365000Y-118110000D02*
X125730000Y-118110000D01*
X131445000Y-114300000D02*
X129540000Y-116205000D01*
X129540000Y-116205000D02*
X128270000Y-116205000D01*
X133985000Y-114300000D02*
X131445000Y-114300000D01*
X125730000Y-119380000D02*
X125095000Y-120015000D01*
X125095000Y-120015000D02*
X125095000Y-121285000D01*
X125095000Y-121285000D02*
X123825000Y-122555000D01*
X123825000Y-122555000D02*
X118745000Y-122555000D01*
X118745000Y-122555000D02*
X115570000Y-125730000D01*
X138430000Y-119380000D02*
X125730000Y-119380000D01*
X128270000Y-144780000D02*
X129540000Y-143510000D01*
X129540000Y-143510000D02*
X136525000Y-143510000D01*
X125730000Y-144780000D02*
X127406402Y-143103598D01*
X134391402Y-143103598D02*
X135255000Y-142240000D01*
X127406402Y-143103598D02*
X134391402Y-143103598D01*
X135255000Y-142240000D02*
X136525000Y-142240000D01*
X136525000Y-142240000D02*
X137795000Y-143510000D01*
X172720000Y-144780000D02*
X153670000Y-144780000D01*
X153670000Y-144780000D02*
X151765000Y-142875000D01*
X151765000Y-142875000D02*
X144145000Y-142875000D01*
X144145000Y-142875000D02*
X138430000Y-137160000D01*
X173990000Y-146050000D02*
X172720000Y-144780000D01*
X148590000Y-120015000D02*
X147955000Y-120650000D01*
X147955000Y-120650000D02*
X142240000Y-120650000D01*
X152400000Y-120015000D02*
X148590000Y-120015000D01*
X147955000Y-118110000D02*
X145415000Y-118110000D01*
X148590000Y-117475000D02*
X147955000Y-118110000D01*
X152400000Y-117475000D02*
X148590000Y-117475000D01*
X144145000Y-119380000D02*
X145415000Y-118110000D01*
X140335000Y-132080000D02*
X146050000Y-132080000D01*
X147955000Y-127635000D02*
X152400000Y-127635000D01*
X146050000Y-129540000D02*
X147955000Y-127635000D01*
X146050000Y-129540000D02*
X142240000Y-129540000D01*
X163830000Y-100965000D02*
X160655000Y-104140000D01*
X160655000Y-104140000D02*
X145415000Y-104140000D01*
X145415000Y-104140000D02*
X142875000Y-106680000D01*
X184150000Y-100965000D02*
X185420000Y-102235000D01*
X185420000Y-104140000D02*
X185420000Y-102235000D01*
X184150000Y-100965000D02*
X163830000Y-100965000D01*
X149860000Y-105410000D02*
X150495000Y-104775000D01*
X150495000Y-104775000D02*
X160655000Y-104775000D01*
X160655000Y-104775000D02*
X163830000Y-101600000D01*
X175260000Y-101600000D02*
X177800000Y-104140000D01*
X163830000Y-101600000D02*
X175260000Y-101600000D01*
D28*
X177165000Y-111760000D02*
X179070000Y-113665000D01*
X196850000Y-120650000D02*
X194945000Y-122555000D01*
X196850000Y-116840000D02*
X196850000Y-120650000D01*
X193675000Y-113665000D02*
X196850000Y-116840000D01*
X191770000Y-113665000D02*
X193675000Y-113665000D01*
X179070000Y-113665000D02*
X191770000Y-113665000D01*
X182880000Y-144780000D02*
X189230000Y-144780000D01*
X189230000Y-144780000D02*
X189865000Y-144145000D01*
X189865000Y-144145000D02*
X189865000Y-142240000D01*
X181610000Y-143510000D02*
X182880000Y-144780000D01*
D27*
X195000000Y-105000000D02*
X190330000Y-100330000D01*
X190330000Y-100330000D02*
X161366200Y-100330000D01*
X161366200Y-100330000D02*
X159461200Y-102235000D01*
D28*
X129794000Y-106045000D02*
X133604000Y-102235000D01*
X133604000Y-102235000D02*
X135255000Y-102235000D01*
X138430000Y-124460000D02*
X140970000Y-124460000D01*
X143510000Y-121920000D02*
X146050000Y-121920000D01*
X140970000Y-124460000D02*
X143510000Y-121920000D01*
X132080000Y-122555000D02*
X133985000Y-124460000D01*
X133985000Y-124460000D02*
X135890000Y-124460000D01*
X138430000Y-124460000D02*
X135890000Y-124460000D01*
X113030000Y-106045000D02*
X129794000Y-106045000D01*
X113030000Y-106045000D02*
X109855000Y-106045000D01*
D27*
X195000000Y-145000000D02*
X193315000Y-146685000D01*
D28*
X106680000Y-122555000D02*
X104140000Y-122555000D01*
X147955000Y-123190000D02*
X149225000Y-123190000D01*
X146685000Y-121920000D02*
X147955000Y-123190000D01*
X146050000Y-121920000D02*
X146685000Y-121920000D01*
D27*
X173355000Y-135255000D02*
X173990000Y-135255000D01*
X172085000Y-136525000D02*
X173355000Y-135255000D01*
X170815000Y-136525000D02*
X172085000Y-136525000D01*
X138430000Y-127000000D02*
X136525000Y-127000000D01*
X136525000Y-127000000D02*
X135890000Y-127635000D01*
X135890000Y-127635000D02*
X131345940Y-127635000D01*
X131345940Y-127635000D02*
X130710940Y-127000000D01*
X138430000Y-129540000D02*
X137795000Y-128905000D01*
X127734060Y-128905000D02*
X125829060Y-127000000D01*
X137795000Y-128905000D02*
X127734060Y-128905000D01*
X114935000Y-111760000D02*
X116205000Y-113030000D01*
X116205000Y-113030000D02*
X118110000Y-113030000D01*
X152958800Y-102235000D02*
X149860000Y-102235000D01*
X149860000Y-102235000D02*
X148590000Y-103505000D01*
X138430000Y-106045000D02*
X138430000Y-106680000D01*
X130810000Y-118745000D02*
X132080000Y-117475000D01*
X132080000Y-117475000D02*
X135255000Y-117475000D01*
X141605000Y-103505000D02*
X148590000Y-103505000D01*
X138430000Y-106680000D02*
X141605000Y-103505000D01*
X154305000Y-116205000D02*
X149225000Y-116205000D01*
X149225000Y-116205000D02*
X148590000Y-116205000D01*
X148590000Y-116205000D02*
X147955000Y-115570000D01*
X147955000Y-115570000D02*
X145415000Y-115570000D01*
X124460000Y-120015000D02*
X124460000Y-120015000D01*
X124460000Y-120015000D02*
X125730000Y-118745000D01*
X125730000Y-118745000D02*
X130810000Y-118745000D01*
X123825000Y-120650000D02*
X124460000Y-120015000D01*
X142875000Y-118110000D02*
X145415000Y-115570000D01*
X135890000Y-118110000D02*
X142875000Y-118110000D01*
X135255000Y-117475000D02*
X135890000Y-118110000D01*
X106680000Y-125095000D02*
X113030000Y-125095000D01*
X116840000Y-121285000D02*
X119380000Y-121285000D01*
X113030000Y-125095000D02*
X116840000Y-121285000D01*
X106680000Y-137160000D02*
X107950000Y-135890000D01*
X111125000Y-135890000D02*
X112395000Y-137160000D01*
X107950000Y-135890000D02*
X111125000Y-135890000D01*
X104140000Y-125095000D02*
X105410000Y-126365000D01*
X109220000Y-127000000D02*
X112395000Y-127000000D01*
X108585000Y-126365000D02*
X109220000Y-127000000D01*
X105410000Y-126365000D02*
X108585000Y-126365000D01*
X105410000Y-123825000D02*
X109220000Y-123825000D01*
X109220000Y-123825000D02*
X110490000Y-122555000D01*
X110490000Y-122555000D02*
X113665000Y-122555000D01*
X113665000Y-122555000D02*
X117475000Y-118745000D01*
X117475000Y-118745000D02*
X119380000Y-118745000D01*
X104140000Y-125095000D02*
X105410000Y-123825000D01*
X142875000Y-102235000D02*
X144272000Y-100838000D01*
X154940000Y-102235000D02*
X153543000Y-100838000D01*
X153543000Y-100838000D02*
X144272000Y-100838000D01*
X140970000Y-133350000D02*
X143510000Y-135890000D01*
X143510000Y-135890000D02*
X147955000Y-135890000D01*
X147955000Y-135890000D02*
X148590000Y-135255000D01*
X148590000Y-135255000D02*
X157480000Y-135255000D01*
X157480000Y-135255000D02*
X159385000Y-137160000D01*
X119380000Y-139065000D02*
X123190000Y-135255000D01*
X137160000Y-133350000D02*
X135255000Y-135255000D01*
X135255000Y-135255000D02*
X123190000Y-135255000D01*
X140970000Y-133350000D02*
X137160000Y-133350000D01*
X130175000Y-135890000D02*
X127000000Y-139065000D01*
X139700000Y-135890000D02*
X140970000Y-134620000D01*
X130175000Y-135890000D02*
X139700000Y-135890000D01*
X138430000Y-111760000D02*
X137160000Y-111760000D01*
X137160000Y-111760000D02*
X136525000Y-112395000D01*
X149225000Y-129540000D02*
X147955000Y-130810000D01*
X133350000Y-112395000D02*
X132715000Y-113030000D01*
X132715000Y-113030000D02*
X132080000Y-113030000D01*
X136525000Y-112395000D02*
X133350000Y-112395000D01*
X129540000Y-115570000D02*
X121285000Y-115570000D01*
X121285000Y-115570000D02*
X120650000Y-114935000D01*
X120650000Y-114935000D02*
X116205000Y-114935000D01*
X116205000Y-114935000D02*
X114935000Y-116205000D01*
X114935000Y-116205000D02*
X111760000Y-116205000D01*
X132080000Y-113030000D02*
X129540000Y-115570000D01*
X137160000Y-131445000D02*
X135255000Y-131445000D01*
X135255000Y-131445000D02*
X133985000Y-130175000D01*
X137795000Y-130810000D02*
X137160000Y-131445000D01*
X147955000Y-130810000D02*
X137795000Y-130810000D01*
X135890000Y-111760000D02*
X138430000Y-109220000D01*
X135890000Y-111760000D02*
X132080000Y-111760000D01*
D28*
X182245000Y-146685000D02*
X180340000Y-148590000D01*
X109220000Y-146050000D02*
X111760000Y-148590000D01*
X109220000Y-142875000D02*
X109220000Y-146050000D01*
X102870000Y-140970000D02*
X107315000Y-140970000D01*
X102235000Y-140335000D02*
X102870000Y-140970000D01*
X107315000Y-140970000D02*
X109220000Y-142875000D01*
X102235000Y-132080000D02*
X102235000Y-140335000D01*
X102235000Y-132080000D02*
X104140000Y-130175000D01*
X180340000Y-148590000D02*
X111760000Y-148590000D01*
X184785000Y-142875000D02*
X184785000Y-140970000D01*
X106680000Y-130175000D02*
X104140000Y-130175000D01*
X184785000Y-140335000D02*
X185420000Y-139700000D01*
X184785000Y-142240000D02*
X184785000Y-140335000D01*
X194945000Y-137160000D02*
X194945000Y-133985000D01*
X192405000Y-139700000D02*
X194945000Y-137160000D01*
X185420000Y-139700000D02*
X192405000Y-139700000D01*
X173990000Y-137795000D02*
X186309000Y-125476000D01*
X186309000Y-125476000D02*
X187325000Y-125476000D01*
X187325000Y-119380000D02*
X187325000Y-125476000D01*
X187325000Y-119380000D02*
X184785000Y-119380000D01*
X187325000Y-111760000D02*
X184785000Y-111760000D01*
X106680000Y-127635000D02*
X104140000Y-127635000D01*
X113030000Y-103505000D02*
X109855000Y-103505000D01*
X106680000Y-120015000D02*
X104140000Y-120015000D01*
D27*
X172720000Y-132715000D02*
X173990000Y-132715000D01*
X171450000Y-131445000D02*
X172720000Y-132715000D01*
X170815000Y-131445000D02*
X171450000Y-131445000D01*
X178435000Y-114935000D02*
X191770000Y-114935000D01*
X171450000Y-114300000D02*
X175260000Y-110490000D01*
X175260000Y-110490000D02*
X191135000Y-110490000D01*
X191135000Y-110490000D02*
X192405000Y-111760000D01*
X172720000Y-117475000D02*
X190500000Y-117475000D01*
X190500000Y-117475000D02*
X192405000Y-119380000D01*
X170815000Y-119380000D02*
X172720000Y-117475000D01*
X172085000Y-120650000D02*
X172085000Y-125730000D01*
X172085000Y-125730000D02*
X173990000Y-127635000D01*
X170815000Y-119380000D02*
X172085000Y-120650000D01*
X177165000Y-121920000D02*
X177165000Y-119380000D01*
X173990000Y-125095000D02*
X177165000Y-121920000D01*
X173990000Y-120015000D02*
X175895000Y-118110000D01*
X175895000Y-118110000D02*
X178435000Y-118110000D01*
X178435000Y-118110000D02*
X179705000Y-119380000D01*
X173990000Y-122555000D02*
X173990000Y-120015000D01*
X116205000Y-139065000D02*
X116840000Y-139065000D01*
X113665000Y-141605000D02*
X116205000Y-139065000D01*
X127000000Y-131445000D02*
X124460000Y-131445000D01*
X129540000Y-131445000D02*
X127000000Y-131445000D01*
X160655000Y-107315000D02*
X163195000Y-104775000D01*
X160020000Y-107315000D02*
X160655000Y-107315000D01*
X160020000Y-109855000D02*
X163195000Y-109855000D01*
D28*
X119380000Y-131445000D02*
X121920000Y-131445000D01*
X116840000Y-131445000D02*
X119380000Y-131445000D01*
X144780000Y-144145000D02*
X142875000Y-144145000D01*
X142240000Y-144780000D02*
X130810000Y-144780000D01*
X142875000Y-144145000D02*
X142240000Y-144780000D01*
X140335000Y-127000000D02*
X146050000Y-127000000D01*
X145415000Y-127000000D02*
X146050000Y-127000000D01*
X133350000Y-115570000D02*
X131445000Y-115570000D01*
X131445000Y-115570000D02*
X129540000Y-117475000D01*
X129540000Y-117475000D02*
X128270000Y-117475000D01*
X119380000Y-123825000D02*
X125730000Y-123825000D01*
X125730000Y-123825000D02*
X128905000Y-120650000D01*
X134620000Y-120650000D02*
X135890000Y-121920000D01*
X128905000Y-120650000D02*
X130175000Y-120650000D01*
X130175000Y-120650000D02*
X134620000Y-120650000D01*
X138430000Y-121920000D02*
X135890000Y-121920000D01*
X112395000Y-111760000D02*
X109220000Y-111760000D01*
X147955000Y-125730000D02*
X149225000Y-125730000D01*
X146685000Y-127000000D02*
X147955000Y-125730000D01*
X146050000Y-127000000D02*
X146685000Y-127000000D01*
X165735000Y-141605000D02*
X172085000Y-141605000D01*
X172085000Y-141605000D02*
X173990000Y-143510000D01*
X154305000Y-140970000D02*
X156210000Y-142875000D01*
X156210000Y-142875000D02*
X161925000Y-142875000D01*
X161925000Y-142875000D02*
X163195000Y-141605000D01*
X163195000Y-141605000D02*
X165735000Y-141605000D01*
X149225000Y-140970000D02*
X154305000Y-140970000D01*
X173990000Y-102870000D02*
X168275000Y-102870000D01*
X168275000Y-102870000D02*
X165735000Y-105410000D01*
X165735000Y-105410000D02*
X165735000Y-141605000D01*
X177800000Y-106680000D02*
X173990000Y-102870000D01*
X122555000Y-141605000D02*
X123825000Y-141605000D01*
X119380000Y-144780000D02*
X122555000Y-141605000D01*
X128905000Y-141605000D02*
X123825000Y-141605000D01*
X128294341Y-117499341D02*
X128270000Y-117475000D01*
D27*
X155575000Y-122555000D02*
X152400000Y-122555000D01*
X155575000Y-107315000D02*
X156845000Y-108585000D01*
X160020000Y-122555000D02*
X156845000Y-119380000D01*
X156845000Y-119380000D02*
X156845000Y-108585000D01*
D29*
G36*
X184835063Y-111774142D02*
X184799142Y-111810063D01*
X184785000Y-111795921D01*
X184770857Y-111810063D01*
X184734936Y-111774142D01*
X184749079Y-111760000D01*
X184734936Y-111745857D01*
X184770857Y-111709936D01*
X184785000Y-111724079D01*
X184799142Y-111709936D01*
X184835063Y-111745857D01*
X184820921Y-111760000D01*
X184835063Y-111774142D01*
X184835063Y-111774142D01*
G37*
X184835063Y-111774142D02*
X184799142Y-111810063D01*
X184785000Y-111795921D01*
X184770857Y-111810063D01*
X184734936Y-111774142D01*
X184749079Y-111760000D01*
X184734936Y-111745857D01*
X184770857Y-111709936D01*
X184785000Y-111724079D01*
X184799142Y-111709936D01*
X184835063Y-111745857D01*
X184820921Y-111760000D01*
X184835063Y-111774142D01*
G36*
X187370400Y-142265400D02*
X187350400Y-142265400D01*
X187350400Y-142285400D01*
X187299600Y-142285400D01*
X187299600Y-142265400D01*
X187279600Y-142265400D01*
X187279600Y-142214600D01*
X187299600Y-142214600D01*
X187299600Y-142194600D01*
X187350400Y-142194600D01*
X187350400Y-142214600D01*
X187370400Y-142214600D01*
X187370400Y-142265400D01*
X187370400Y-142265400D01*
G37*
X187370400Y-142265400D02*
X187350400Y-142265400D01*
X187350400Y-142285400D01*
X187299600Y-142285400D01*
X187299600Y-142265400D01*
X187279600Y-142265400D01*
X187279600Y-142214600D01*
X187299600Y-142214600D01*
X187299600Y-142194600D01*
X187350400Y-142194600D01*
X187350400Y-142214600D01*
X187370400Y-142214600D01*
X187370400Y-142265400D01*
G36*
X187375063Y-111774142D02*
X187339142Y-111810063D01*
X187325000Y-111795921D01*
X187310857Y-111810063D01*
X187274936Y-111774142D01*
X187289079Y-111760000D01*
X187274936Y-111745857D01*
X187310857Y-111709936D01*
X187325000Y-111724079D01*
X187339142Y-111709936D01*
X187375063Y-111745857D01*
X187360921Y-111760000D01*
X187375063Y-111774142D01*
X187375063Y-111774142D01*
G37*
X187375063Y-111774142D02*
X187339142Y-111810063D01*
X187325000Y-111795921D01*
X187310857Y-111810063D01*
X187274936Y-111774142D01*
X187289079Y-111760000D01*
X187274936Y-111745857D01*
X187310857Y-111709936D01*
X187325000Y-111724079D01*
X187339142Y-111709936D01*
X187375063Y-111745857D01*
X187360921Y-111760000D01*
X187375063Y-111774142D01*
G36*
X199263000Y-149098000D02*
X198635630Y-149098000D01*
X198635630Y-144280126D01*
X198083400Y-142943628D01*
X197061751Y-141920194D01*
X196591946Y-141725113D01*
X196591946Y-124808433D01*
X196356915Y-124199987D01*
X196312200Y-124133067D01*
X195987712Y-124088209D01*
X194980921Y-125095000D01*
X195987712Y-126101791D01*
X196312200Y-126056933D01*
X196576244Y-125460506D01*
X196591946Y-124808433D01*
X196591946Y-141725113D01*
X195726218Y-141365632D01*
X194280126Y-141364370D01*
X192943628Y-141916600D01*
X191920194Y-142938249D01*
X191365632Y-144273782D01*
X191364370Y-145719874D01*
X191916600Y-147056372D01*
X192938249Y-148079806D01*
X194273782Y-148634368D01*
X195719874Y-148635630D01*
X197056372Y-148083400D01*
X198079806Y-147061751D01*
X198634368Y-145726218D01*
X198635630Y-144280126D01*
X198635630Y-149098000D01*
X188331791Y-149098000D01*
X188331791Y-147727712D01*
X187325000Y-146720921D01*
X186318209Y-147727712D01*
X186363067Y-148052200D01*
X186959494Y-148316244D01*
X187611567Y-148331946D01*
X188220013Y-148096915D01*
X188286933Y-148052200D01*
X188331791Y-147727712D01*
X188331791Y-149098000D01*
X185791791Y-149098000D01*
X185791791Y-147727712D01*
X184785000Y-146720921D01*
X183778209Y-147727712D01*
X183823067Y-148052200D01*
X184419494Y-148316244D01*
X185071567Y-148331946D01*
X185680013Y-148096915D01*
X185746933Y-148052200D01*
X185791791Y-147727712D01*
X185791791Y-149098000D01*
X181448446Y-149098000D01*
X182475674Y-148070771D01*
X182519398Y-148070810D01*
X183028837Y-147860314D01*
X183355425Y-147534295D01*
X183373085Y-147580013D01*
X183417800Y-147646933D01*
X183742288Y-147691791D01*
X184749079Y-146685000D01*
X184734936Y-146670857D01*
X184770857Y-146634936D01*
X184785000Y-146649079D01*
X184799142Y-146634936D01*
X184835063Y-146670857D01*
X184820921Y-146685000D01*
X185827712Y-147691791D01*
X186055000Y-147660370D01*
X186282288Y-147691791D01*
X187289079Y-146685000D01*
X187274936Y-146670857D01*
X187310857Y-146634936D01*
X187325000Y-146649079D01*
X187339142Y-146634936D01*
X187375063Y-146670857D01*
X187360921Y-146685000D01*
X188367712Y-147691791D01*
X188692200Y-147646933D01*
X188746048Y-147525298D01*
X189079113Y-147858944D01*
X189588184Y-148070329D01*
X190139398Y-148070810D01*
X190648837Y-147860314D01*
X191038944Y-147470887D01*
X191250329Y-146961816D01*
X191250810Y-146410602D01*
X191040314Y-145901163D01*
X190650887Y-145511056D01*
X190272507Y-145353938D01*
X190673223Y-144953223D01*
X190920994Y-144582407D01*
X191008000Y-144145000D01*
X191008000Y-144097452D01*
X191236619Y-143755299D01*
X191349630Y-143187156D01*
X191349630Y-141292844D01*
X191260150Y-140843000D01*
X192405000Y-140843000D01*
X192842407Y-140755994D01*
X193213223Y-140508223D01*
X195753223Y-137968223D01*
X196000994Y-137597407D01*
X196088000Y-137160000D01*
X196088000Y-135420187D01*
X196168298Y-135386927D01*
X196346927Y-135208299D01*
X196443600Y-134974910D01*
X196443600Y-134722291D01*
X196443600Y-132995091D01*
X196346927Y-132761702D01*
X196168299Y-132583073D01*
X195997148Y-132512179D01*
X196214710Y-132294997D01*
X196443339Y-131744398D01*
X196443859Y-131148218D01*
X196216192Y-130597220D01*
X195794997Y-130175290D01*
X195794069Y-130174904D01*
X196214710Y-129754997D01*
X196443339Y-129204398D01*
X196443859Y-128608218D01*
X196216192Y-128057220D01*
X195951791Y-127792357D01*
X195951791Y-126137712D01*
X194945000Y-125130921D01*
X194909079Y-125166842D01*
X194909079Y-125095000D01*
X193902288Y-124088209D01*
X193577800Y-124133067D01*
X193313756Y-124729494D01*
X193298054Y-125381567D01*
X193533085Y-125990013D01*
X193577800Y-126056933D01*
X193902288Y-126101791D01*
X194909079Y-125095000D01*
X194909079Y-125166842D01*
X193938209Y-126137712D01*
X193983067Y-126462200D01*
X194579494Y-126726244D01*
X195231567Y-126741946D01*
X195840013Y-126506915D01*
X195906933Y-126462200D01*
X195951791Y-126137712D01*
X195951791Y-127792357D01*
X195794997Y-127635290D01*
X195244398Y-127406661D01*
X194648218Y-127406141D01*
X194097220Y-127633808D01*
X193675290Y-128055003D01*
X193446661Y-128605602D01*
X193446141Y-129201782D01*
X193673808Y-129752780D01*
X194095003Y-130174710D01*
X194095930Y-130175095D01*
X193675290Y-130595003D01*
X193446661Y-131145602D01*
X193446141Y-131741782D01*
X193673808Y-132292780D01*
X193892833Y-132512187D01*
X193721702Y-132583073D01*
X193543073Y-132761701D01*
X193446400Y-132995090D01*
X193446400Y-133247709D01*
X193446400Y-134974909D01*
X193543073Y-135208298D01*
X193721701Y-135386927D01*
X193802000Y-135420187D01*
X193802000Y-136686554D01*
X193040000Y-137448554D01*
X193040000Y-130549650D01*
X193040000Y-130054350D01*
X193040000Y-122251167D01*
X192904658Y-121924422D01*
X192654578Y-121674342D01*
X192327833Y-121539000D01*
X191974167Y-121539000D01*
X188294245Y-121539000D01*
X188294245Y-120385166D01*
X187325000Y-119415921D01*
X187289079Y-119451842D01*
X187289079Y-119380000D01*
X186319834Y-118410755D01*
X186055000Y-118442727D01*
X185790166Y-118410755D01*
X184820921Y-119380000D01*
X185790166Y-120349245D01*
X186055000Y-120317272D01*
X186319834Y-120349245D01*
X187289079Y-119380000D01*
X187289079Y-119451842D01*
X186355755Y-120385166D01*
X186394276Y-120704244D01*
X186971890Y-120959615D01*
X187603261Y-120974504D01*
X188192271Y-120746644D01*
X188255724Y-120704244D01*
X188294245Y-120385166D01*
X188294245Y-121539000D01*
X187572650Y-121539000D01*
X187350400Y-121761250D01*
X187350400Y-130276600D01*
X192817750Y-130276600D01*
X193040000Y-130054350D01*
X193040000Y-130549650D01*
X192817750Y-130327400D01*
X187350400Y-130327400D01*
X187350400Y-130347400D01*
X187299600Y-130347400D01*
X187299600Y-130327400D01*
X187299600Y-130276600D01*
X187299600Y-121761250D01*
X187077350Y-121539000D01*
X185754245Y-121539000D01*
X185754245Y-120385166D01*
X184785000Y-119415921D01*
X183815755Y-120385166D01*
X183854276Y-120704244D01*
X184431890Y-120959615D01*
X185063261Y-120974504D01*
X185652271Y-120746644D01*
X185715724Y-120704244D01*
X185754245Y-120385166D01*
X185754245Y-121539000D01*
X182675833Y-121539000D01*
X182322167Y-121539000D01*
X181995422Y-121674342D01*
X181745342Y-121924422D01*
X181610000Y-122251167D01*
X181610000Y-125694076D01*
X181526276Y-125777799D01*
X181451126Y-125427453D01*
X180764759Y-125121947D01*
X180013727Y-125102357D01*
X179312366Y-125371666D01*
X179228874Y-125427453D01*
X179153723Y-125777802D01*
X180340000Y-126964079D01*
X180354142Y-126949936D01*
X180390063Y-126985857D01*
X180375921Y-127000000D01*
X180390063Y-127014142D01*
X180354142Y-127050063D01*
X180340000Y-127035921D01*
X180304079Y-127071842D01*
X180304079Y-127000000D01*
X179117802Y-125813723D01*
X178767453Y-125888874D01*
X178461947Y-126575241D01*
X178442357Y-127326273D01*
X178711666Y-128027634D01*
X178767453Y-128111126D01*
X179117802Y-128186277D01*
X180304079Y-127000000D01*
X180304079Y-127071842D01*
X179153723Y-128222198D01*
X179228874Y-128572547D01*
X179915241Y-128878053D01*
X180666273Y-128897643D01*
X181367634Y-128628334D01*
X181451126Y-128572547D01*
X181526276Y-128222200D01*
X181526277Y-128222201D01*
X181610000Y-128305924D01*
X181610000Y-130054350D01*
X181832250Y-130276600D01*
X187299600Y-130276600D01*
X187299600Y-130327400D01*
X181832250Y-130327400D01*
X181610000Y-130549650D01*
X181610000Y-136118679D01*
X181526277Y-136034810D01*
X181267073Y-135775154D01*
X180666547Y-135525794D01*
X180016306Y-135525226D01*
X179415345Y-135773538D01*
X178955154Y-136232927D01*
X178705794Y-136833453D01*
X178705226Y-137483694D01*
X178953538Y-138084655D01*
X179412927Y-138544846D01*
X180013453Y-138794206D01*
X180663694Y-138794774D01*
X181264655Y-138546462D01*
X181610000Y-138201718D01*
X181610000Y-138352833D01*
X181745342Y-138679578D01*
X181995422Y-138929658D01*
X182322167Y-139065000D01*
X182675833Y-139065000D01*
X184438554Y-139065000D01*
X183976777Y-139526777D01*
X183729006Y-139897593D01*
X183642000Y-140335000D01*
X183642000Y-140382547D01*
X183413381Y-140724701D01*
X183300370Y-141292844D01*
X183300370Y-143187156D01*
X183389849Y-143637000D01*
X183353446Y-143637000D01*
X182995771Y-143279325D01*
X182995810Y-143235602D01*
X182785314Y-142726163D01*
X182395887Y-142336056D01*
X182164618Y-142240025D01*
X182393837Y-142145314D01*
X182783944Y-141755887D01*
X182995329Y-141246816D01*
X182995810Y-140695602D01*
X182785314Y-140186163D01*
X182395887Y-139796056D01*
X181886816Y-139584671D01*
X181335602Y-139584190D01*
X180826163Y-139794686D01*
X180436056Y-140184113D01*
X180224671Y-140693184D01*
X180224190Y-141244398D01*
X180434686Y-141753837D01*
X180824113Y-142143944D01*
X181055381Y-142239974D01*
X180826163Y-142334686D01*
X180436056Y-142724113D01*
X180224671Y-143233184D01*
X180224190Y-143784398D01*
X180434686Y-144293837D01*
X180824113Y-144683944D01*
X181333184Y-144895329D01*
X181378922Y-144895368D01*
X181837670Y-145354116D01*
X181461163Y-145509686D01*
X181071056Y-145899113D01*
X180859671Y-146408184D01*
X180859631Y-146453922D01*
X179866554Y-147447000D01*
X177927000Y-147447000D01*
X177927000Y-138938000D01*
X175700115Y-138938000D01*
X175742600Y-138835433D01*
X175742600Y-138042650D01*
X175520350Y-137820400D01*
X174015400Y-137820400D01*
X174015400Y-137840400D01*
X173964600Y-137840400D01*
X173964600Y-137820400D01*
X172459650Y-137820400D01*
X172237400Y-138042650D01*
X172237400Y-138835433D01*
X172279884Y-138938000D01*
X167767000Y-138938000D01*
X167767000Y-109982000D01*
X169481388Y-109982000D01*
X169481269Y-110119086D01*
X169683854Y-110609380D01*
X170058647Y-110984827D01*
X170396446Y-111125093D01*
X170060620Y-111263854D01*
X169685173Y-111638647D01*
X169481732Y-112128587D01*
X169481269Y-112659086D01*
X169683854Y-113149380D01*
X170058647Y-113524827D01*
X170522957Y-113717625D01*
X170370687Y-114084332D01*
X170370313Y-114513784D01*
X170534311Y-114910689D01*
X170837714Y-115214622D01*
X171234332Y-115379313D01*
X171663784Y-115379687D01*
X172060689Y-115215689D01*
X172364622Y-114912286D01*
X172529313Y-114515668D01*
X172529533Y-114262176D01*
X175565110Y-111226600D01*
X175942594Y-111226600D01*
X175831732Y-111493587D01*
X175831269Y-112024086D01*
X176033854Y-112514380D01*
X176408647Y-112889827D01*
X176869917Y-113081363D01*
X177816080Y-114027526D01*
X177520378Y-114322714D01*
X177355687Y-114719332D01*
X177355313Y-115148784D01*
X177519311Y-115545689D01*
X177822714Y-115849622D01*
X178219332Y-116014313D01*
X178648784Y-116014687D01*
X179045689Y-115850689D01*
X179225090Y-115671600D01*
X190980002Y-115671600D01*
X191157714Y-115849622D01*
X191554332Y-116014313D01*
X191983784Y-116014687D01*
X192380689Y-115850689D01*
X192684622Y-115547286D01*
X192849313Y-115150668D01*
X192849611Y-114808000D01*
X193201554Y-114808000D01*
X195707000Y-117313446D01*
X195707000Y-118255829D01*
X195701353Y-118250173D01*
X195211413Y-118046732D01*
X194680914Y-118046269D01*
X194190620Y-118248854D01*
X193815173Y-118623647D01*
X193674906Y-118961446D01*
X193536146Y-118625620D01*
X193161353Y-118250173D01*
X192671413Y-118046732D01*
X192140914Y-118046269D01*
X192121146Y-118054436D01*
X191020855Y-116954145D01*
X190781885Y-116794470D01*
X190500000Y-116738400D01*
X172720000Y-116738400D01*
X172438115Y-116794470D01*
X172199145Y-116954145D01*
X172148356Y-117004933D01*
X172148731Y-116575914D01*
X171946146Y-116085620D01*
X171571353Y-115710173D01*
X171081413Y-115506732D01*
X170550914Y-115506269D01*
X170060620Y-115708854D01*
X169685173Y-116083647D01*
X169481732Y-116573587D01*
X169481269Y-117104086D01*
X169683854Y-117594380D01*
X170058647Y-117969827D01*
X170396446Y-118110093D01*
X170060620Y-118248854D01*
X169685173Y-118623647D01*
X169481732Y-119113587D01*
X169481269Y-119644086D01*
X169683854Y-120134380D01*
X170058647Y-120509827D01*
X170396446Y-120650093D01*
X170060620Y-120788854D01*
X169685173Y-121163647D01*
X169481732Y-121653587D01*
X169481269Y-122184086D01*
X169683854Y-122674380D01*
X170058647Y-123049827D01*
X170396446Y-123190093D01*
X170060620Y-123328854D01*
X169685173Y-123703647D01*
X169481732Y-124193587D01*
X169481269Y-124724086D01*
X169683854Y-125214380D01*
X170058647Y-125589827D01*
X170548587Y-125793268D01*
X171079086Y-125793731D01*
X171348400Y-125682452D01*
X171348400Y-125730000D01*
X171404470Y-126011885D01*
X171564145Y-126250855D01*
X172537793Y-127224503D01*
X172491661Y-127335602D01*
X172491141Y-127931782D01*
X172718808Y-128482780D01*
X173140003Y-128904710D01*
X173140930Y-128905095D01*
X172720290Y-129325003D01*
X172491661Y-129875602D01*
X172491141Y-130471782D01*
X172718808Y-131022780D01*
X173140003Y-131444710D01*
X173140930Y-131445095D01*
X172816084Y-131769374D01*
X172093179Y-131046469D01*
X171946146Y-130690620D01*
X171571353Y-130315173D01*
X171233553Y-130174906D01*
X171569380Y-130036146D01*
X171944827Y-129661353D01*
X172148268Y-129171413D01*
X172148731Y-128640914D01*
X171946146Y-128150620D01*
X171571353Y-127775173D01*
X171081413Y-127571732D01*
X170550914Y-127571269D01*
X170060620Y-127773854D01*
X169685173Y-128148647D01*
X169481732Y-128638587D01*
X169481269Y-129169086D01*
X169683854Y-129659380D01*
X170058647Y-130034827D01*
X170396446Y-130175093D01*
X170060620Y-130313854D01*
X169685173Y-130688647D01*
X169481732Y-131178587D01*
X169481269Y-131709086D01*
X169683854Y-132199380D01*
X170058647Y-132574827D01*
X170396446Y-132715093D01*
X170060620Y-132853854D01*
X169685173Y-133228647D01*
X169481732Y-133718587D01*
X169481269Y-134249086D01*
X169683854Y-134739380D01*
X170058647Y-135114827D01*
X170396446Y-135255093D01*
X170060620Y-135393854D01*
X169685173Y-135768647D01*
X169481732Y-136258587D01*
X169481269Y-136789086D01*
X169683854Y-137279380D01*
X170058647Y-137654827D01*
X170548587Y-137858268D01*
X171079086Y-137858731D01*
X171569380Y-137656146D01*
X171944827Y-137281353D01*
X171953029Y-137261600D01*
X172085000Y-137261600D01*
X172237400Y-137231285D01*
X172237400Y-137547350D01*
X172459650Y-137769600D01*
X173964600Y-137769600D01*
X173964600Y-137749600D01*
X174015400Y-137749600D01*
X174015400Y-137769600D01*
X175520350Y-137769600D01*
X175742600Y-137547350D01*
X175742600Y-136754567D01*
X175607258Y-136427822D01*
X175357178Y-136177742D01*
X175236790Y-136127876D01*
X175259710Y-136104997D01*
X175488339Y-135554398D01*
X175488859Y-134958218D01*
X175261192Y-134407220D01*
X174839997Y-133985290D01*
X174839069Y-133984904D01*
X175259710Y-133564997D01*
X175488339Y-133014398D01*
X175488859Y-132418218D01*
X175261192Y-131867220D01*
X174839997Y-131445290D01*
X174839069Y-131444904D01*
X175259710Y-131024997D01*
X175488339Y-130474398D01*
X175488859Y-129878218D01*
X175261192Y-129327220D01*
X174839997Y-128905290D01*
X174839069Y-128904904D01*
X175259710Y-128484997D01*
X175488339Y-127934398D01*
X175488859Y-127338218D01*
X175261192Y-126787220D01*
X174839997Y-126365290D01*
X174839069Y-126364904D01*
X175259710Y-125944997D01*
X175488339Y-125394398D01*
X175488859Y-124798218D01*
X175441970Y-124684739D01*
X177685855Y-122440855D01*
X177845530Y-122201885D01*
X177901600Y-121920000D01*
X177901600Y-120713500D01*
X177989809Y-120713500D01*
X178223198Y-120616827D01*
X178401827Y-120438199D01*
X178498500Y-120204810D01*
X178498500Y-119952191D01*
X178498500Y-119952009D01*
X178573854Y-120134380D01*
X178948647Y-120509827D01*
X179438587Y-120713268D01*
X179969086Y-120713731D01*
X180459380Y-120511146D01*
X180834827Y-120136353D01*
X180975093Y-119798553D01*
X181113854Y-120134380D01*
X181488647Y-120509827D01*
X181978587Y-120713268D01*
X182509086Y-120713731D01*
X182999380Y-120511146D01*
X183374827Y-120136353D01*
X183375148Y-120135579D01*
X183418356Y-120247271D01*
X183460756Y-120310724D01*
X183779834Y-120349245D01*
X184749079Y-119380000D01*
X183779834Y-118410755D01*
X183460756Y-118449276D01*
X183379356Y-118633390D01*
X183376146Y-118625620D01*
X183001353Y-118250173D01*
X182908458Y-118211600D01*
X183835461Y-118211600D01*
X183815755Y-118374834D01*
X184785000Y-119344079D01*
X185754245Y-118374834D01*
X185734538Y-118211600D01*
X186375461Y-118211600D01*
X186355755Y-118374834D01*
X187325000Y-119344079D01*
X188294245Y-118374834D01*
X188274538Y-118211600D01*
X189200781Y-118211600D01*
X189110620Y-118248854D01*
X188735173Y-118623647D01*
X188734851Y-118624420D01*
X188691644Y-118512729D01*
X188649244Y-118449276D01*
X188330166Y-118410755D01*
X187360921Y-119380000D01*
X188330166Y-120349245D01*
X188649244Y-120310724D01*
X188730643Y-120126609D01*
X188733854Y-120134380D01*
X189108647Y-120509827D01*
X189598587Y-120713268D01*
X190129086Y-120713731D01*
X190619380Y-120511146D01*
X190994827Y-120136353D01*
X191135093Y-119798553D01*
X191273854Y-120134380D01*
X191648647Y-120509827D01*
X192138587Y-120713268D01*
X192669086Y-120713731D01*
X193159380Y-120511146D01*
X193534827Y-120136353D01*
X193675093Y-119798553D01*
X193813854Y-120134380D01*
X194188647Y-120509827D01*
X194678587Y-120713268D01*
X195169857Y-120713696D01*
X194714325Y-121169228D01*
X194670602Y-121169190D01*
X194161163Y-121379686D01*
X193771056Y-121769113D01*
X193559671Y-122278184D01*
X193559190Y-122829398D01*
X193769686Y-123338837D01*
X194095704Y-123665425D01*
X194049987Y-123683085D01*
X193983067Y-123727800D01*
X193938209Y-124052288D01*
X194945000Y-125059079D01*
X195951791Y-124052288D01*
X195906933Y-123727800D01*
X195785298Y-123673951D01*
X196118944Y-123340887D01*
X196330329Y-122831816D01*
X196330368Y-122786077D01*
X197658223Y-121458223D01*
X197905994Y-121087407D01*
X197993000Y-120650000D01*
X197993000Y-116840000D01*
X197905994Y-116402593D01*
X197658223Y-116031777D01*
X194719749Y-113093303D01*
X195209086Y-113093731D01*
X195699380Y-112891146D01*
X196074827Y-112516353D01*
X196278268Y-112026413D01*
X196278731Y-111495914D01*
X196076146Y-111005620D01*
X195701353Y-110630173D01*
X195211413Y-110426732D01*
X194680914Y-110426269D01*
X194190620Y-110628854D01*
X193815173Y-111003647D01*
X193674906Y-111341446D01*
X193536146Y-111005620D01*
X193161353Y-110630173D01*
X192671413Y-110426732D01*
X192140914Y-110426269D01*
X192121146Y-110434436D01*
X191668710Y-109982000D01*
X199263000Y-109982000D01*
X199263000Y-149098000D01*
X199263000Y-149098000D01*
G37*
X199263000Y-149098000D02*
X198635630Y-149098000D01*
X198635630Y-144280126D01*
X198083400Y-142943628D01*
X197061751Y-141920194D01*
X196591946Y-141725113D01*
X196591946Y-124808433D01*
X196356915Y-124199987D01*
X196312200Y-124133067D01*
X195987712Y-124088209D01*
X194980921Y-125095000D01*
X195987712Y-126101791D01*
X196312200Y-126056933D01*
X196576244Y-125460506D01*
X196591946Y-124808433D01*
X196591946Y-141725113D01*
X195726218Y-141365632D01*
X194280126Y-141364370D01*
X192943628Y-141916600D01*
X191920194Y-142938249D01*
X191365632Y-144273782D01*
X191364370Y-145719874D01*
X191916600Y-147056372D01*
X192938249Y-148079806D01*
X194273782Y-148634368D01*
X195719874Y-148635630D01*
X197056372Y-148083400D01*
X198079806Y-147061751D01*
X198634368Y-145726218D01*
X198635630Y-144280126D01*
X198635630Y-149098000D01*
X188331791Y-149098000D01*
X188331791Y-147727712D01*
X187325000Y-146720921D01*
X186318209Y-147727712D01*
X186363067Y-148052200D01*
X186959494Y-148316244D01*
X187611567Y-148331946D01*
X188220013Y-148096915D01*
X188286933Y-148052200D01*
X188331791Y-147727712D01*
X188331791Y-149098000D01*
X185791791Y-149098000D01*
X185791791Y-147727712D01*
X184785000Y-146720921D01*
X183778209Y-147727712D01*
X183823067Y-148052200D01*
X184419494Y-148316244D01*
X185071567Y-148331946D01*
X185680013Y-148096915D01*
X185746933Y-148052200D01*
X185791791Y-147727712D01*
X185791791Y-149098000D01*
X181448446Y-149098000D01*
X182475674Y-148070771D01*
X182519398Y-148070810D01*
X183028837Y-147860314D01*
X183355425Y-147534295D01*
X183373085Y-147580013D01*
X183417800Y-147646933D01*
X183742288Y-147691791D01*
X184749079Y-146685000D01*
X184734936Y-146670857D01*
X184770857Y-146634936D01*
X184785000Y-146649079D01*
X184799142Y-146634936D01*
X184835063Y-146670857D01*
X184820921Y-146685000D01*
X185827712Y-147691791D01*
X186055000Y-147660370D01*
X186282288Y-147691791D01*
X187289079Y-146685000D01*
X187274936Y-146670857D01*
X187310857Y-146634936D01*
X187325000Y-146649079D01*
X187339142Y-146634936D01*
X187375063Y-146670857D01*
X187360921Y-146685000D01*
X188367712Y-147691791D01*
X188692200Y-147646933D01*
X188746048Y-147525298D01*
X189079113Y-147858944D01*
X189588184Y-148070329D01*
X190139398Y-148070810D01*
X190648837Y-147860314D01*
X191038944Y-147470887D01*
X191250329Y-146961816D01*
X191250810Y-146410602D01*
X191040314Y-145901163D01*
X190650887Y-145511056D01*
X190272507Y-145353938D01*
X190673223Y-144953223D01*
X190920994Y-144582407D01*
X191008000Y-144145000D01*
X191008000Y-144097452D01*
X191236619Y-143755299D01*
X191349630Y-143187156D01*
X191349630Y-141292844D01*
X191260150Y-140843000D01*
X192405000Y-140843000D01*
X192842407Y-140755994D01*
X193213223Y-140508223D01*
X195753223Y-137968223D01*
X196000994Y-137597407D01*
X196088000Y-137160000D01*
X196088000Y-135420187D01*
X196168298Y-135386927D01*
X196346927Y-135208299D01*
X196443600Y-134974910D01*
X196443600Y-134722291D01*
X196443600Y-132995091D01*
X196346927Y-132761702D01*
X196168299Y-132583073D01*
X195997148Y-132512179D01*
X196214710Y-132294997D01*
X196443339Y-131744398D01*
X196443859Y-131148218D01*
X196216192Y-130597220D01*
X195794997Y-130175290D01*
X195794069Y-130174904D01*
X196214710Y-129754997D01*
X196443339Y-129204398D01*
X196443859Y-128608218D01*
X196216192Y-128057220D01*
X195951791Y-127792357D01*
X195951791Y-126137712D01*
X194945000Y-125130921D01*
X194909079Y-125166842D01*
X194909079Y-125095000D01*
X193902288Y-124088209D01*
X193577800Y-124133067D01*
X193313756Y-124729494D01*
X193298054Y-125381567D01*
X193533085Y-125990013D01*
X193577800Y-126056933D01*
X193902288Y-126101791D01*
X194909079Y-125095000D01*
X194909079Y-125166842D01*
X193938209Y-126137712D01*
X193983067Y-126462200D01*
X194579494Y-126726244D01*
X195231567Y-126741946D01*
X195840013Y-126506915D01*
X195906933Y-126462200D01*
X195951791Y-126137712D01*
X195951791Y-127792357D01*
X195794997Y-127635290D01*
X195244398Y-127406661D01*
X194648218Y-127406141D01*
X194097220Y-127633808D01*
X193675290Y-128055003D01*
X193446661Y-128605602D01*
X193446141Y-129201782D01*
X193673808Y-129752780D01*
X194095003Y-130174710D01*
X194095930Y-130175095D01*
X193675290Y-130595003D01*
X193446661Y-131145602D01*
X193446141Y-131741782D01*
X193673808Y-132292780D01*
X193892833Y-132512187D01*
X193721702Y-132583073D01*
X193543073Y-132761701D01*
X193446400Y-132995090D01*
X193446400Y-133247709D01*
X193446400Y-134974909D01*
X193543073Y-135208298D01*
X193721701Y-135386927D01*
X193802000Y-135420187D01*
X193802000Y-136686554D01*
X193040000Y-137448554D01*
X193040000Y-130549650D01*
X193040000Y-130054350D01*
X193040000Y-122251167D01*
X192904658Y-121924422D01*
X192654578Y-121674342D01*
X192327833Y-121539000D01*
X191974167Y-121539000D01*
X188294245Y-121539000D01*
X188294245Y-120385166D01*
X187325000Y-119415921D01*
X187289079Y-119451842D01*
X187289079Y-119380000D01*
X186319834Y-118410755D01*
X186055000Y-118442727D01*
X185790166Y-118410755D01*
X184820921Y-119380000D01*
X185790166Y-120349245D01*
X186055000Y-120317272D01*
X186319834Y-120349245D01*
X187289079Y-119380000D01*
X187289079Y-119451842D01*
X186355755Y-120385166D01*
X186394276Y-120704244D01*
X186971890Y-120959615D01*
X187603261Y-120974504D01*
X188192271Y-120746644D01*
X188255724Y-120704244D01*
X188294245Y-120385166D01*
X188294245Y-121539000D01*
X187572650Y-121539000D01*
X187350400Y-121761250D01*
X187350400Y-130276600D01*
X192817750Y-130276600D01*
X193040000Y-130054350D01*
X193040000Y-130549650D01*
X192817750Y-130327400D01*
X187350400Y-130327400D01*
X187350400Y-130347400D01*
X187299600Y-130347400D01*
X187299600Y-130327400D01*
X187299600Y-130276600D01*
X187299600Y-121761250D01*
X187077350Y-121539000D01*
X185754245Y-121539000D01*
X185754245Y-120385166D01*
X184785000Y-119415921D01*
X183815755Y-120385166D01*
X183854276Y-120704244D01*
X184431890Y-120959615D01*
X185063261Y-120974504D01*
X185652271Y-120746644D01*
X185715724Y-120704244D01*
X185754245Y-120385166D01*
X185754245Y-121539000D01*
X182675833Y-121539000D01*
X182322167Y-121539000D01*
X181995422Y-121674342D01*
X181745342Y-121924422D01*
X181610000Y-122251167D01*
X181610000Y-125694076D01*
X181526276Y-125777799D01*
X181451126Y-125427453D01*
X180764759Y-125121947D01*
X180013727Y-125102357D01*
X179312366Y-125371666D01*
X179228874Y-125427453D01*
X179153723Y-125777802D01*
X180340000Y-126964079D01*
X180354142Y-126949936D01*
X180390063Y-126985857D01*
X180375921Y-127000000D01*
X180390063Y-127014142D01*
X180354142Y-127050063D01*
X180340000Y-127035921D01*
X180304079Y-127071842D01*
X180304079Y-127000000D01*
X179117802Y-125813723D01*
X178767453Y-125888874D01*
X178461947Y-126575241D01*
X178442357Y-127326273D01*
X178711666Y-128027634D01*
X178767453Y-128111126D01*
X179117802Y-128186277D01*
X180304079Y-127000000D01*
X180304079Y-127071842D01*
X179153723Y-128222198D01*
X179228874Y-128572547D01*
X179915241Y-128878053D01*
X180666273Y-128897643D01*
X181367634Y-128628334D01*
X181451126Y-128572547D01*
X181526276Y-128222200D01*
X181526277Y-128222201D01*
X181610000Y-128305924D01*
X181610000Y-130054350D01*
X181832250Y-130276600D01*
X187299600Y-130276600D01*
X187299600Y-130327400D01*
X181832250Y-130327400D01*
X181610000Y-130549650D01*
X181610000Y-136118679D01*
X181526277Y-136034810D01*
X181267073Y-135775154D01*
X180666547Y-135525794D01*
X180016306Y-135525226D01*
X179415345Y-135773538D01*
X178955154Y-136232927D01*
X178705794Y-136833453D01*
X178705226Y-137483694D01*
X178953538Y-138084655D01*
X179412927Y-138544846D01*
X180013453Y-138794206D01*
X180663694Y-138794774D01*
X181264655Y-138546462D01*
X181610000Y-138201718D01*
X181610000Y-138352833D01*
X181745342Y-138679578D01*
X181995422Y-138929658D01*
X182322167Y-139065000D01*
X182675833Y-139065000D01*
X184438554Y-139065000D01*
X183976777Y-139526777D01*
X183729006Y-139897593D01*
X183642000Y-140335000D01*
X183642000Y-140382547D01*
X183413381Y-140724701D01*
X183300370Y-141292844D01*
X183300370Y-143187156D01*
X183389849Y-143637000D01*
X183353446Y-143637000D01*
X182995771Y-143279325D01*
X182995810Y-143235602D01*
X182785314Y-142726163D01*
X182395887Y-142336056D01*
X182164618Y-142240025D01*
X182393837Y-142145314D01*
X182783944Y-141755887D01*
X182995329Y-141246816D01*
X182995810Y-140695602D01*
X182785314Y-140186163D01*
X182395887Y-139796056D01*
X181886816Y-139584671D01*
X181335602Y-139584190D01*
X180826163Y-139794686D01*
X180436056Y-140184113D01*
X180224671Y-140693184D01*
X180224190Y-141244398D01*
X180434686Y-141753837D01*
X180824113Y-142143944D01*
X181055381Y-142239974D01*
X180826163Y-142334686D01*
X180436056Y-142724113D01*
X180224671Y-143233184D01*
X180224190Y-143784398D01*
X180434686Y-144293837D01*
X180824113Y-144683944D01*
X181333184Y-144895329D01*
X181378922Y-144895368D01*
X181837670Y-145354116D01*
X181461163Y-145509686D01*
X181071056Y-145899113D01*
X180859671Y-146408184D01*
X180859631Y-146453922D01*
X179866554Y-147447000D01*
X177927000Y-147447000D01*
X177927000Y-138938000D01*
X175700115Y-138938000D01*
X175742600Y-138835433D01*
X175742600Y-138042650D01*
X175520350Y-137820400D01*
X174015400Y-137820400D01*
X174015400Y-137840400D01*
X173964600Y-137840400D01*
X173964600Y-137820400D01*
X172459650Y-137820400D01*
X172237400Y-138042650D01*
X172237400Y-138835433D01*
X172279884Y-138938000D01*
X167767000Y-138938000D01*
X167767000Y-109982000D01*
X169481388Y-109982000D01*
X169481269Y-110119086D01*
X169683854Y-110609380D01*
X170058647Y-110984827D01*
X170396446Y-111125093D01*
X170060620Y-111263854D01*
X169685173Y-111638647D01*
X169481732Y-112128587D01*
X169481269Y-112659086D01*
X169683854Y-113149380D01*
X170058647Y-113524827D01*
X170522957Y-113717625D01*
X170370687Y-114084332D01*
X170370313Y-114513784D01*
X170534311Y-114910689D01*
X170837714Y-115214622D01*
X171234332Y-115379313D01*
X171663784Y-115379687D01*
X172060689Y-115215689D01*
X172364622Y-114912286D01*
X172529313Y-114515668D01*
X172529533Y-114262176D01*
X175565110Y-111226600D01*
X175942594Y-111226600D01*
X175831732Y-111493587D01*
X175831269Y-112024086D01*
X176033854Y-112514380D01*
X176408647Y-112889827D01*
X176869917Y-113081363D01*
X177816080Y-114027526D01*
X177520378Y-114322714D01*
X177355687Y-114719332D01*
X177355313Y-115148784D01*
X177519311Y-115545689D01*
X177822714Y-115849622D01*
X178219332Y-116014313D01*
X178648784Y-116014687D01*
X179045689Y-115850689D01*
X179225090Y-115671600D01*
X190980002Y-115671600D01*
X191157714Y-115849622D01*
X191554332Y-116014313D01*
X191983784Y-116014687D01*
X192380689Y-115850689D01*
X192684622Y-115547286D01*
X192849313Y-115150668D01*
X192849611Y-114808000D01*
X193201554Y-114808000D01*
X195707000Y-117313446D01*
X195707000Y-118255829D01*
X195701353Y-118250173D01*
X195211413Y-118046732D01*
X194680914Y-118046269D01*
X194190620Y-118248854D01*
X193815173Y-118623647D01*
X193674906Y-118961446D01*
X193536146Y-118625620D01*
X193161353Y-118250173D01*
X192671413Y-118046732D01*
X192140914Y-118046269D01*
X192121146Y-118054436D01*
X191020855Y-116954145D01*
X190781885Y-116794470D01*
X190500000Y-116738400D01*
X172720000Y-116738400D01*
X172438115Y-116794470D01*
X172199145Y-116954145D01*
X172148356Y-117004933D01*
X172148731Y-116575914D01*
X171946146Y-116085620D01*
X171571353Y-115710173D01*
X171081413Y-115506732D01*
X170550914Y-115506269D01*
X170060620Y-115708854D01*
X169685173Y-116083647D01*
X169481732Y-116573587D01*
X169481269Y-117104086D01*
X169683854Y-117594380D01*
X170058647Y-117969827D01*
X170396446Y-118110093D01*
X170060620Y-118248854D01*
X169685173Y-118623647D01*
X169481732Y-119113587D01*
X169481269Y-119644086D01*
X169683854Y-120134380D01*
X170058647Y-120509827D01*
X170396446Y-120650093D01*
X170060620Y-120788854D01*
X169685173Y-121163647D01*
X169481732Y-121653587D01*
X169481269Y-122184086D01*
X169683854Y-122674380D01*
X170058647Y-123049827D01*
X170396446Y-123190093D01*
X170060620Y-123328854D01*
X169685173Y-123703647D01*
X169481732Y-124193587D01*
X169481269Y-124724086D01*
X169683854Y-125214380D01*
X170058647Y-125589827D01*
X170548587Y-125793268D01*
X171079086Y-125793731D01*
X171348400Y-125682452D01*
X171348400Y-125730000D01*
X171404470Y-126011885D01*
X171564145Y-126250855D01*
X172537793Y-127224503D01*
X172491661Y-127335602D01*
X172491141Y-127931782D01*
X172718808Y-128482780D01*
X173140003Y-128904710D01*
X173140930Y-128905095D01*
X172720290Y-129325003D01*
X172491661Y-129875602D01*
X172491141Y-130471782D01*
X172718808Y-131022780D01*
X173140003Y-131444710D01*
X173140930Y-131445095D01*
X172816084Y-131769374D01*
X172093179Y-131046469D01*
X171946146Y-130690620D01*
X171571353Y-130315173D01*
X171233553Y-130174906D01*
X171569380Y-130036146D01*
X171944827Y-129661353D01*
X172148268Y-129171413D01*
X172148731Y-128640914D01*
X171946146Y-128150620D01*
X171571353Y-127775173D01*
X171081413Y-127571732D01*
X170550914Y-127571269D01*
X170060620Y-127773854D01*
X169685173Y-128148647D01*
X169481732Y-128638587D01*
X169481269Y-129169086D01*
X169683854Y-129659380D01*
X170058647Y-130034827D01*
X170396446Y-130175093D01*
X170060620Y-130313854D01*
X169685173Y-130688647D01*
X169481732Y-131178587D01*
X169481269Y-131709086D01*
X169683854Y-132199380D01*
X170058647Y-132574827D01*
X170396446Y-132715093D01*
X170060620Y-132853854D01*
X169685173Y-133228647D01*
X169481732Y-133718587D01*
X169481269Y-134249086D01*
X169683854Y-134739380D01*
X170058647Y-135114827D01*
X170396446Y-135255093D01*
X170060620Y-135393854D01*
X169685173Y-135768647D01*
X169481732Y-136258587D01*
X169481269Y-136789086D01*
X169683854Y-137279380D01*
X170058647Y-137654827D01*
X170548587Y-137858268D01*
X171079086Y-137858731D01*
X171569380Y-137656146D01*
X171944827Y-137281353D01*
X171953029Y-137261600D01*
X172085000Y-137261600D01*
X172237400Y-137231285D01*
X172237400Y-137547350D01*
X172459650Y-137769600D01*
X173964600Y-137769600D01*
X173964600Y-137749600D01*
X174015400Y-137749600D01*
X174015400Y-137769600D01*
X175520350Y-137769600D01*
X175742600Y-137547350D01*
X175742600Y-136754567D01*
X175607258Y-136427822D01*
X175357178Y-136177742D01*
X175236790Y-136127876D01*
X175259710Y-136104997D01*
X175488339Y-135554398D01*
X175488859Y-134958218D01*
X175261192Y-134407220D01*
X174839997Y-133985290D01*
X174839069Y-133984904D01*
X175259710Y-133564997D01*
X175488339Y-133014398D01*
X175488859Y-132418218D01*
X175261192Y-131867220D01*
X174839997Y-131445290D01*
X174839069Y-131444904D01*
X175259710Y-131024997D01*
X175488339Y-130474398D01*
X175488859Y-129878218D01*
X175261192Y-129327220D01*
X174839997Y-128905290D01*
X174839069Y-128904904D01*
X175259710Y-128484997D01*
X175488339Y-127934398D01*
X175488859Y-127338218D01*
X175261192Y-126787220D01*
X174839997Y-126365290D01*
X174839069Y-126364904D01*
X175259710Y-125944997D01*
X175488339Y-125394398D01*
X175488859Y-124798218D01*
X175441970Y-124684739D01*
X177685855Y-122440855D01*
X177845530Y-122201885D01*
X177901600Y-121920000D01*
X177901600Y-120713500D01*
X177989809Y-120713500D01*
X178223198Y-120616827D01*
X178401827Y-120438199D01*
X178498500Y-120204810D01*
X178498500Y-119952191D01*
X178498500Y-119952009D01*
X178573854Y-120134380D01*
X178948647Y-120509827D01*
X179438587Y-120713268D01*
X179969086Y-120713731D01*
X180459380Y-120511146D01*
X180834827Y-120136353D01*
X180975093Y-119798553D01*
X181113854Y-120134380D01*
X181488647Y-120509827D01*
X181978587Y-120713268D01*
X182509086Y-120713731D01*
X182999380Y-120511146D01*
X183374827Y-120136353D01*
X183375148Y-120135579D01*
X183418356Y-120247271D01*
X183460756Y-120310724D01*
X183779834Y-120349245D01*
X184749079Y-119380000D01*
X183779834Y-118410755D01*
X183460756Y-118449276D01*
X183379356Y-118633390D01*
X183376146Y-118625620D01*
X183001353Y-118250173D01*
X182908458Y-118211600D01*
X183835461Y-118211600D01*
X183815755Y-118374834D01*
X184785000Y-119344079D01*
X185754245Y-118374834D01*
X185734538Y-118211600D01*
X186375461Y-118211600D01*
X186355755Y-118374834D01*
X187325000Y-119344079D01*
X188294245Y-118374834D01*
X188274538Y-118211600D01*
X189200781Y-118211600D01*
X189110620Y-118248854D01*
X188735173Y-118623647D01*
X188734851Y-118624420D01*
X188691644Y-118512729D01*
X188649244Y-118449276D01*
X188330166Y-118410755D01*
X187360921Y-119380000D01*
X188330166Y-120349245D01*
X188649244Y-120310724D01*
X188730643Y-120126609D01*
X188733854Y-120134380D01*
X189108647Y-120509827D01*
X189598587Y-120713268D01*
X190129086Y-120713731D01*
X190619380Y-120511146D01*
X190994827Y-120136353D01*
X191135093Y-119798553D01*
X191273854Y-120134380D01*
X191648647Y-120509827D01*
X192138587Y-120713268D01*
X192669086Y-120713731D01*
X193159380Y-120511146D01*
X193534827Y-120136353D01*
X193675093Y-119798553D01*
X193813854Y-120134380D01*
X194188647Y-120509827D01*
X194678587Y-120713268D01*
X195169857Y-120713696D01*
X194714325Y-121169228D01*
X194670602Y-121169190D01*
X194161163Y-121379686D01*
X193771056Y-121769113D01*
X193559671Y-122278184D01*
X193559190Y-122829398D01*
X193769686Y-123338837D01*
X194095704Y-123665425D01*
X194049987Y-123683085D01*
X193983067Y-123727800D01*
X193938209Y-124052288D01*
X194945000Y-125059079D01*
X195951791Y-124052288D01*
X195906933Y-123727800D01*
X195785298Y-123673951D01*
X196118944Y-123340887D01*
X196330329Y-122831816D01*
X196330368Y-122786077D01*
X197658223Y-121458223D01*
X197905994Y-121087407D01*
X197993000Y-120650000D01*
X197993000Y-116840000D01*
X197905994Y-116402593D01*
X197658223Y-116031777D01*
X194719749Y-113093303D01*
X195209086Y-113093731D01*
X195699380Y-112891146D01*
X196074827Y-112516353D01*
X196278268Y-112026413D01*
X196278731Y-111495914D01*
X196076146Y-111005620D01*
X195701353Y-110630173D01*
X195211413Y-110426732D01*
X194680914Y-110426269D01*
X194190620Y-110628854D01*
X193815173Y-111003647D01*
X193674906Y-111341446D01*
X193536146Y-111005620D01*
X193161353Y-110630173D01*
X192671413Y-110426732D01*
X192140914Y-110426269D01*
X192121146Y-110434436D01*
X191668710Y-109982000D01*
X199263000Y-109982000D01*
X199263000Y-149098000D01*
G36*
X131495063Y-141619142D02*
X131459142Y-141655063D01*
X131445000Y-141640921D01*
X131430857Y-141655063D01*
X131394936Y-141619142D01*
X131409079Y-141605000D01*
X130402288Y-140598209D01*
X130077800Y-140643067D01*
X130023951Y-140764701D01*
X129690887Y-140431056D01*
X129612637Y-140398563D01*
X129804086Y-140398731D01*
X130294380Y-140196146D01*
X130669827Y-139821353D01*
X130670148Y-139820579D01*
X130713356Y-139932271D01*
X130755756Y-139995724D01*
X130988250Y-140023792D01*
X130549987Y-140193085D01*
X130483067Y-140237800D01*
X130438209Y-140562288D01*
X131445000Y-141569079D01*
X131459142Y-141554936D01*
X131495063Y-141590857D01*
X131480921Y-141605000D01*
X131495063Y-141619142D01*
X131495063Y-141619142D01*
G37*
X131495063Y-141619142D02*
X131459142Y-141655063D01*
X131445000Y-141640921D01*
X131430857Y-141655063D01*
X131394936Y-141619142D01*
X131409079Y-141605000D01*
X130402288Y-140598209D01*
X130077800Y-140643067D01*
X130023951Y-140764701D01*
X129690887Y-140431056D01*
X129612637Y-140398563D01*
X129804086Y-140398731D01*
X130294380Y-140196146D01*
X130669827Y-139821353D01*
X130670148Y-139820579D01*
X130713356Y-139932271D01*
X130755756Y-139995724D01*
X130988250Y-140023792D01*
X130549987Y-140193085D01*
X130483067Y-140237800D01*
X130438209Y-140562288D01*
X131445000Y-141569079D01*
X131459142Y-141554936D01*
X131495063Y-141590857D01*
X131480921Y-141605000D01*
X131495063Y-141619142D01*
G36*
X135940063Y-130189142D02*
X135904142Y-130225063D01*
X135890000Y-130210921D01*
X135875857Y-130225063D01*
X135839936Y-130189142D01*
X135854079Y-130175000D01*
X135839936Y-130160857D01*
X135875857Y-130124936D01*
X135890000Y-130139079D01*
X135904142Y-130124936D01*
X135940063Y-130160857D01*
X135925921Y-130175000D01*
X135940063Y-130189142D01*
X135940063Y-130189142D01*
G37*
X135940063Y-130189142D02*
X135904142Y-130225063D01*
X135890000Y-130210921D01*
X135875857Y-130225063D01*
X135839936Y-130189142D01*
X135854079Y-130175000D01*
X135839936Y-130160857D01*
X135875857Y-130124936D01*
X135890000Y-130139079D01*
X135904142Y-130124936D01*
X135940063Y-130160857D01*
X135925921Y-130175000D01*
X135940063Y-130189142D01*
G36*
X140334690Y-103733599D02*
X138721790Y-105346500D01*
X138621543Y-105346500D01*
X138430000Y-105308400D01*
X138238456Y-105346500D01*
X137605191Y-105346500D01*
X137371802Y-105443173D01*
X137193173Y-105621801D01*
X137096500Y-105855190D01*
X137096500Y-106107809D01*
X137096500Y-107504809D01*
X137193173Y-107738198D01*
X137371801Y-107916827D01*
X137605190Y-108013500D01*
X137857809Y-108013500D01*
X137857990Y-108013500D01*
X137675620Y-108088854D01*
X137300173Y-108463647D01*
X137096732Y-108953587D01*
X137096269Y-109484086D01*
X137104436Y-109503853D01*
X135584890Y-111023400D01*
X133731000Y-111023400D01*
X133731000Y-110694167D01*
X133731000Y-107906787D01*
X133868538Y-108239655D01*
X134327927Y-108699846D01*
X134928453Y-108949206D01*
X135578694Y-108949774D01*
X136179655Y-108701462D01*
X136639846Y-108242073D01*
X136889206Y-107641547D01*
X136889774Y-106991306D01*
X136641462Y-106390345D01*
X136182073Y-105930154D01*
X135581547Y-105680794D01*
X134931306Y-105680226D01*
X134330345Y-105928538D01*
X133870154Y-106387927D01*
X133731000Y-106723047D01*
X133731000Y-106292650D01*
X133508750Y-106070400D01*
X124993400Y-106070400D01*
X124993400Y-111537750D01*
X125215650Y-111760000D01*
X126964076Y-111760000D01*
X127047799Y-111843723D01*
X126697453Y-111918874D01*
X126391947Y-112605241D01*
X126372357Y-113356273D01*
X126641666Y-114057634D01*
X126697453Y-114141126D01*
X127047802Y-114216277D01*
X128234079Y-113030000D01*
X128219936Y-113015857D01*
X128255857Y-112979936D01*
X128270000Y-112994079D01*
X128284142Y-112979936D01*
X128320063Y-113015857D01*
X128305921Y-113030000D01*
X129492198Y-114216277D01*
X129842547Y-114141126D01*
X130148053Y-113454759D01*
X130167643Y-112703727D01*
X129898334Y-112002366D01*
X129842547Y-111918874D01*
X129492200Y-111843723D01*
X129575924Y-111760000D01*
X131000499Y-111760000D01*
X131000313Y-111973784D01*
X131164311Y-112370689D01*
X131188356Y-112394776D01*
X131165378Y-112417714D01*
X131000687Y-112814332D01*
X131000466Y-113067823D01*
X130167643Y-113900646D01*
X129234890Y-114833400D01*
X128841709Y-114833400D01*
X129297634Y-114658334D01*
X129381126Y-114602547D01*
X129456277Y-114252198D01*
X128270000Y-113065921D01*
X128234079Y-113101842D01*
X127083723Y-114252198D01*
X127158874Y-114602547D01*
X127677521Y-114833400D01*
X121590110Y-114833400D01*
X121170855Y-114414145D01*
X120931885Y-114254470D01*
X120650000Y-114198400D01*
X119253097Y-114198400D01*
X119494846Y-113957073D01*
X119744206Y-113356547D01*
X119744774Y-112706306D01*
X119496462Y-112105345D01*
X119151718Y-111760000D01*
X124720350Y-111760000D01*
X124942600Y-111537750D01*
X124942600Y-106070400D01*
X116427250Y-106070400D01*
X116205000Y-106292650D01*
X116205000Y-110694167D01*
X116205000Y-111047833D01*
X116340342Y-111374578D01*
X116590422Y-111624658D01*
X116917167Y-111760000D01*
X117068679Y-111760000D01*
X116725154Y-112102927D01*
X116646062Y-112293400D01*
X116510110Y-112293400D01*
X116300728Y-112084018D01*
X116320329Y-112036816D01*
X116320810Y-111485602D01*
X116110314Y-110976163D01*
X115720887Y-110586056D01*
X115643497Y-110553920D01*
X115643497Y-106342040D01*
X115446597Y-106070400D01*
X113055400Y-106070400D01*
X113055400Y-106090400D01*
X113004600Y-106090400D01*
X113004600Y-106070400D01*
X112984600Y-106070400D01*
X112984600Y-106019600D01*
X113004600Y-106019600D01*
X113004600Y-105999600D01*
X113055400Y-105999600D01*
X113055400Y-106019600D01*
X115446597Y-106019600D01*
X115643497Y-105747960D01*
X115546434Y-105403121D01*
X115177787Y-104833563D01*
X114898226Y-104640800D01*
X115026948Y-104554792D01*
X115348775Y-104073143D01*
X115461786Y-103505000D01*
X115348775Y-102936857D01*
X115026948Y-102455208D01*
X114545299Y-102133381D01*
X113977156Y-102020370D01*
X112082844Y-102020370D01*
X111514701Y-102133381D01*
X111172547Y-102362000D01*
X110671777Y-102362000D01*
X110640887Y-102331056D01*
X110131816Y-102119671D01*
X109580602Y-102119190D01*
X109071163Y-102329686D01*
X108681056Y-102719113D01*
X108479566Y-103204353D01*
X108367539Y-102906579D01*
X108222770Y-102689917D01*
X107664558Y-102371363D01*
X107628637Y-102407284D01*
X107628637Y-102335442D01*
X107310083Y-101777230D01*
X105900937Y-101138518D01*
X104354633Y-101087682D01*
X102906579Y-101632461D01*
X102689917Y-101777230D01*
X102371363Y-102335442D01*
X105000000Y-104964079D01*
X107628637Y-102335442D01*
X107628637Y-102407284D01*
X105035921Y-105000000D01*
X107664558Y-107628637D01*
X108222770Y-107310083D01*
X108418894Y-106877387D01*
X108443085Y-106940013D01*
X108487800Y-107006933D01*
X108812288Y-107051791D01*
X109819079Y-106045000D01*
X109804936Y-106030857D01*
X109840857Y-105994936D01*
X109855000Y-106009079D01*
X109869142Y-105994936D01*
X109905063Y-106030857D01*
X109890921Y-106045000D01*
X109905063Y-106059142D01*
X109869142Y-106095063D01*
X109855000Y-106080921D01*
X108848209Y-107087712D01*
X108893067Y-107412200D01*
X109274984Y-107581278D01*
X108933433Y-107573054D01*
X108324987Y-107808085D01*
X108258067Y-107852800D01*
X108213209Y-108177288D01*
X109220000Y-109184079D01*
X110226791Y-108177288D01*
X110181933Y-107852800D01*
X109800015Y-107683721D01*
X110141567Y-107691946D01*
X110750013Y-107456915D01*
X110816933Y-107412200D01*
X110846165Y-107200743D01*
X110882213Y-107256437D01*
X111161773Y-107449199D01*
X111033052Y-107535208D01*
X110711225Y-108016857D01*
X110643809Y-108355778D01*
X110631915Y-108324987D01*
X110587200Y-108258067D01*
X110262712Y-108213209D01*
X109255921Y-109220000D01*
X110262712Y-110226791D01*
X110587200Y-110181933D01*
X110851244Y-109585506D01*
X110856422Y-109370447D01*
X111033052Y-109634792D01*
X111514701Y-109956619D01*
X112082844Y-110069630D01*
X113977156Y-110069630D01*
X114545299Y-109956619D01*
X115026948Y-109634792D01*
X115348775Y-109153143D01*
X115461786Y-108585000D01*
X115348775Y-108016857D01*
X115026948Y-107535208D01*
X114898226Y-107449199D01*
X115177787Y-107256437D01*
X115546434Y-106686879D01*
X115643497Y-106342040D01*
X115643497Y-110553920D01*
X115211816Y-110374671D01*
X114660602Y-110374190D01*
X114151163Y-110584686D01*
X113761056Y-110974113D01*
X113665025Y-111205381D01*
X113570314Y-110976163D01*
X113180887Y-110586056D01*
X112671816Y-110374671D01*
X112120602Y-110374190D01*
X111611163Y-110584686D01*
X111578792Y-110617000D01*
X110137334Y-110617000D01*
X110181933Y-110587200D01*
X110226791Y-110262712D01*
X109220000Y-109255921D01*
X109184079Y-109291842D01*
X109184079Y-109220000D01*
X108177288Y-108213209D01*
X107852800Y-108258067D01*
X107628637Y-108764410D01*
X107628637Y-107664558D01*
X105000000Y-105035921D01*
X104964079Y-105071842D01*
X104964079Y-105000000D01*
X102335442Y-102371363D01*
X101777230Y-102689917D01*
X101138518Y-104099063D01*
X101087682Y-105645367D01*
X101632461Y-107093421D01*
X101777230Y-107310083D01*
X102335442Y-107628637D01*
X104964079Y-105000000D01*
X104964079Y-105071842D01*
X102371363Y-107664558D01*
X102689917Y-108222770D01*
X104099063Y-108861482D01*
X105645367Y-108912318D01*
X107093421Y-108367539D01*
X107310083Y-108222770D01*
X107628637Y-107664558D01*
X107628637Y-108764410D01*
X107588756Y-108854494D01*
X107573054Y-109506567D01*
X107808085Y-110115013D01*
X107852800Y-110181933D01*
X108177288Y-110226791D01*
X109184079Y-109220000D01*
X109184079Y-109291842D01*
X108213209Y-110262712D01*
X108258067Y-110587200D01*
X108379701Y-110641048D01*
X108046056Y-110974113D01*
X107834671Y-111483184D01*
X107834190Y-112034398D01*
X108044686Y-112543837D01*
X108434113Y-112933944D01*
X108943184Y-113145329D01*
X109494398Y-113145810D01*
X110003837Y-112935314D01*
X110036207Y-112903000D01*
X111578222Y-112903000D01*
X111609113Y-112933944D01*
X112118184Y-113145329D01*
X112669398Y-113145810D01*
X113178837Y-112935314D01*
X113568944Y-112545887D01*
X113664974Y-112314618D01*
X113759686Y-112543837D01*
X114149113Y-112933944D01*
X114658184Y-113145329D01*
X115209398Y-113145810D01*
X115258720Y-113125430D01*
X115684145Y-113550855D01*
X115923115Y-113710530D01*
X116205000Y-113766600D01*
X116645835Y-113766600D01*
X116723538Y-113954655D01*
X116966858Y-114198400D01*
X116205000Y-114198400D01*
X115923115Y-114254470D01*
X115684145Y-114414145D01*
X114629890Y-115468400D01*
X113093500Y-115468400D01*
X113093500Y-115380191D01*
X112996827Y-115146802D01*
X112818199Y-114968173D01*
X112584810Y-114871500D01*
X112332191Y-114871500D01*
X110935191Y-114871500D01*
X110701802Y-114968173D01*
X110523173Y-115146801D01*
X110426500Y-115380190D01*
X110426500Y-115632809D01*
X110426500Y-117029809D01*
X110523173Y-117263198D01*
X110701801Y-117441827D01*
X110820782Y-117491110D01*
X110790755Y-117739834D01*
X111760000Y-118709079D01*
X112729245Y-117739834D01*
X112699217Y-117491110D01*
X112818198Y-117441827D01*
X112996827Y-117263199D01*
X113093500Y-117029810D01*
X113093500Y-116941600D01*
X114935000Y-116941600D01*
X115216885Y-116885530D01*
X115455855Y-116725855D01*
X116510110Y-115671600D01*
X117880093Y-115671600D01*
X117800385Y-115851890D01*
X117785496Y-116483261D01*
X118013356Y-117072271D01*
X118055756Y-117135724D01*
X118374834Y-117174245D01*
X119344079Y-116205000D01*
X119329936Y-116190857D01*
X119365857Y-116154936D01*
X119380000Y-116169079D01*
X119394142Y-116154936D01*
X119430063Y-116190857D01*
X119415921Y-116205000D01*
X119430063Y-116219142D01*
X119394142Y-116255063D01*
X119380000Y-116240921D01*
X118410755Y-117210166D01*
X118449276Y-117529244D01*
X118633390Y-117610643D01*
X118625620Y-117613854D01*
X118250173Y-117988647D01*
X118241970Y-118008400D01*
X117475000Y-118008400D01*
X117193115Y-118064470D01*
X116954145Y-118224145D01*
X113359890Y-121818400D01*
X113354504Y-121818400D01*
X113354504Y-118466739D01*
X113126644Y-117877729D01*
X113084244Y-117814276D01*
X112765166Y-117775755D01*
X111795921Y-118745000D01*
X112765166Y-119714245D01*
X113084244Y-119675724D01*
X113339615Y-119098110D01*
X113354504Y-118466739D01*
X113354504Y-121818400D01*
X112982405Y-121818400D01*
X113093268Y-121551413D01*
X113093731Y-121020914D01*
X112891146Y-120530620D01*
X112516353Y-120155173D01*
X112515579Y-120154851D01*
X112627271Y-120111644D01*
X112690724Y-120069244D01*
X112729245Y-119750166D01*
X111760000Y-118780921D01*
X111724079Y-118816842D01*
X111724079Y-118745000D01*
X110754834Y-117775755D01*
X110435756Y-117814276D01*
X110180385Y-118391890D01*
X110165496Y-119023261D01*
X110393356Y-119612271D01*
X110435756Y-119675724D01*
X110754834Y-119714245D01*
X111724079Y-118745000D01*
X111724079Y-118816842D01*
X110790755Y-119750166D01*
X110829276Y-120069244D01*
X111013390Y-120150643D01*
X111005620Y-120153854D01*
X110630173Y-120528647D01*
X110426732Y-121018587D01*
X110426269Y-121549086D01*
X110537547Y-121818400D01*
X110490000Y-121818400D01*
X110208115Y-121874470D01*
X109969145Y-122034145D01*
X108914890Y-123088400D01*
X108249432Y-123088400D01*
X108322577Y-122923226D01*
X108338457Y-122266609D01*
X108101852Y-121653898D01*
X108077242Y-121617065D01*
X108077242Y-119738339D01*
X107865010Y-119224697D01*
X107472370Y-118831371D01*
X106959100Y-118618243D01*
X106403339Y-118617758D01*
X105889697Y-118829990D01*
X105847613Y-118872000D01*
X105419025Y-118872000D01*
X105261699Y-118714673D01*
X105028310Y-118618000D01*
X104775691Y-118618000D01*
X103251691Y-118618000D01*
X103018302Y-118714673D01*
X102839673Y-118893301D01*
X102743000Y-119126690D01*
X102743000Y-119379309D01*
X102743000Y-120903309D01*
X102839673Y-121136698D01*
X103018301Y-121315327D01*
X103144352Y-121367539D01*
X103124967Y-121504046D01*
X104140000Y-122519079D01*
X105155033Y-121504046D01*
X105135647Y-121367538D01*
X105261698Y-121315327D01*
X105419025Y-121158000D01*
X105741703Y-121158000D01*
X105711216Y-121178371D01*
X105664967Y-121504046D01*
X106680000Y-122519079D01*
X107695033Y-121504046D01*
X107648784Y-121178371D01*
X107540164Y-121130270D01*
X107863629Y-120807370D01*
X108076757Y-120294100D01*
X108077242Y-119738339D01*
X108077242Y-121617065D01*
X108056629Y-121586216D01*
X107730954Y-121539967D01*
X106715921Y-122555000D01*
X106730063Y-122569142D01*
X106694142Y-122605063D01*
X106680000Y-122590921D01*
X106665857Y-122605063D01*
X106629936Y-122569142D01*
X106644079Y-122555000D01*
X105629046Y-121539967D01*
X105410000Y-121571073D01*
X105190954Y-121539967D01*
X104175921Y-122555000D01*
X104190063Y-122569142D01*
X104154142Y-122605063D01*
X104140000Y-122590921D01*
X104104079Y-122626842D01*
X104104079Y-122555000D01*
X103089046Y-121539967D01*
X102763371Y-121586216D01*
X102497423Y-122186774D01*
X102481543Y-122843391D01*
X102718148Y-123456102D01*
X102763371Y-123523784D01*
X103089046Y-123570033D01*
X104104079Y-122555000D01*
X104104079Y-122626842D01*
X103124967Y-123605954D01*
X103171216Y-123931629D01*
X103279835Y-123979729D01*
X102956371Y-124302630D01*
X102743243Y-124815900D01*
X102742758Y-125371661D01*
X102954990Y-125885303D01*
X103347630Y-126278629D01*
X103555512Y-126364949D01*
X103349697Y-126449990D01*
X102956371Y-126842630D01*
X102743243Y-127355900D01*
X102742758Y-127911661D01*
X102954990Y-128425303D01*
X103347630Y-128818629D01*
X103555512Y-128904949D01*
X103349697Y-128989990D01*
X102956371Y-129382630D01*
X102743243Y-129895900D01*
X102743191Y-129955362D01*
X101426777Y-131271777D01*
X101179006Y-131642593D01*
X101092000Y-132080000D01*
X101092000Y-140335000D01*
X101179006Y-140772407D01*
X101426777Y-141143223D01*
X102061777Y-141778223D01*
X102432593Y-142025994D01*
X102536195Y-142046601D01*
X102371363Y-142335442D01*
X105000000Y-144964079D01*
X105014142Y-144949936D01*
X105050063Y-144985857D01*
X105035921Y-145000000D01*
X107664558Y-147628637D01*
X108222770Y-147310083D01*
X108422651Y-146869097D01*
X110651554Y-149098000D01*
X107628637Y-149098000D01*
X107628637Y-147664558D01*
X105000000Y-145035921D01*
X104964079Y-145071842D01*
X104964079Y-145000000D01*
X102335442Y-142371363D01*
X101777230Y-142689917D01*
X101138518Y-144099063D01*
X101087682Y-145645367D01*
X101632461Y-147093421D01*
X101777230Y-147310083D01*
X102335442Y-147628637D01*
X104964079Y-145000000D01*
X104964079Y-145071842D01*
X102371363Y-147664558D01*
X102689917Y-148222770D01*
X104099063Y-148861482D01*
X105645367Y-148912318D01*
X107093421Y-148367539D01*
X107310083Y-148222770D01*
X107628637Y-147664558D01*
X107628637Y-149098000D01*
X100685000Y-149098000D01*
X100685000Y-100685000D01*
X116370764Y-100685000D01*
X116340342Y-100715422D01*
X116205000Y-101042167D01*
X116205000Y-101395833D01*
X116205000Y-105797350D01*
X116427250Y-106019600D01*
X124942600Y-106019600D01*
X124942600Y-105999600D01*
X124993400Y-105999600D01*
X124993400Y-106019600D01*
X133508750Y-106019600D01*
X133731000Y-105797350D01*
X133731000Y-103695436D01*
X133887822Y-103852258D01*
X134214567Y-103987600D01*
X135007350Y-103987600D01*
X135229600Y-103765350D01*
X135229600Y-102260400D01*
X135209600Y-102260400D01*
X135209600Y-102209600D01*
X135229600Y-102209600D01*
X135229600Y-102189600D01*
X135280400Y-102189600D01*
X135280400Y-102209600D01*
X135300400Y-102209600D01*
X135300400Y-102260400D01*
X135280400Y-102260400D01*
X135280400Y-103765350D01*
X135502650Y-103987600D01*
X136295433Y-103987600D01*
X136622178Y-103852258D01*
X136872258Y-103602178D01*
X136922123Y-103481790D01*
X136945003Y-103504710D01*
X137495602Y-103733339D01*
X138091782Y-103733859D01*
X138642780Y-103506192D01*
X139064710Y-103084997D01*
X139065095Y-103084069D01*
X139485003Y-103504710D01*
X140035602Y-103733339D01*
X140334690Y-103733599D01*
X140334690Y-103733599D01*
G37*
X140334690Y-103733599D02*
X138721790Y-105346500D01*
X138621543Y-105346500D01*
X138430000Y-105308400D01*
X138238456Y-105346500D01*
X137605191Y-105346500D01*
X137371802Y-105443173D01*
X137193173Y-105621801D01*
X137096500Y-105855190D01*
X137096500Y-106107809D01*
X137096500Y-107504809D01*
X137193173Y-107738198D01*
X137371801Y-107916827D01*
X137605190Y-108013500D01*
X137857809Y-108013500D01*
X137857990Y-108013500D01*
X137675620Y-108088854D01*
X137300173Y-108463647D01*
X137096732Y-108953587D01*
X137096269Y-109484086D01*
X137104436Y-109503853D01*
X135584890Y-111023400D01*
X133731000Y-111023400D01*
X133731000Y-110694167D01*
X133731000Y-107906787D01*
X133868538Y-108239655D01*
X134327927Y-108699846D01*
X134928453Y-108949206D01*
X135578694Y-108949774D01*
X136179655Y-108701462D01*
X136639846Y-108242073D01*
X136889206Y-107641547D01*
X136889774Y-106991306D01*
X136641462Y-106390345D01*
X136182073Y-105930154D01*
X135581547Y-105680794D01*
X134931306Y-105680226D01*
X134330345Y-105928538D01*
X133870154Y-106387927D01*
X133731000Y-106723047D01*
X133731000Y-106292650D01*
X133508750Y-106070400D01*
X124993400Y-106070400D01*
X124993400Y-111537750D01*
X125215650Y-111760000D01*
X126964076Y-111760000D01*
X127047799Y-111843723D01*
X126697453Y-111918874D01*
X126391947Y-112605241D01*
X126372357Y-113356273D01*
X126641666Y-114057634D01*
X126697453Y-114141126D01*
X127047802Y-114216277D01*
X128234079Y-113030000D01*
X128219936Y-113015857D01*
X128255857Y-112979936D01*
X128270000Y-112994079D01*
X128284142Y-112979936D01*
X128320063Y-113015857D01*
X128305921Y-113030000D01*
X129492198Y-114216277D01*
X129842547Y-114141126D01*
X130148053Y-113454759D01*
X130167643Y-112703727D01*
X129898334Y-112002366D01*
X129842547Y-111918874D01*
X129492200Y-111843723D01*
X129575924Y-111760000D01*
X131000499Y-111760000D01*
X131000313Y-111973784D01*
X131164311Y-112370689D01*
X131188356Y-112394776D01*
X131165378Y-112417714D01*
X131000687Y-112814332D01*
X131000466Y-113067823D01*
X130167643Y-113900646D01*
X129234890Y-114833400D01*
X128841709Y-114833400D01*
X129297634Y-114658334D01*
X129381126Y-114602547D01*
X129456277Y-114252198D01*
X128270000Y-113065921D01*
X128234079Y-113101842D01*
X127083723Y-114252198D01*
X127158874Y-114602547D01*
X127677521Y-114833400D01*
X121590110Y-114833400D01*
X121170855Y-114414145D01*
X120931885Y-114254470D01*
X120650000Y-114198400D01*
X119253097Y-114198400D01*
X119494846Y-113957073D01*
X119744206Y-113356547D01*
X119744774Y-112706306D01*
X119496462Y-112105345D01*
X119151718Y-111760000D01*
X124720350Y-111760000D01*
X124942600Y-111537750D01*
X124942600Y-106070400D01*
X116427250Y-106070400D01*
X116205000Y-106292650D01*
X116205000Y-110694167D01*
X116205000Y-111047833D01*
X116340342Y-111374578D01*
X116590422Y-111624658D01*
X116917167Y-111760000D01*
X117068679Y-111760000D01*
X116725154Y-112102927D01*
X116646062Y-112293400D01*
X116510110Y-112293400D01*
X116300728Y-112084018D01*
X116320329Y-112036816D01*
X116320810Y-111485602D01*
X116110314Y-110976163D01*
X115720887Y-110586056D01*
X115643497Y-110553920D01*
X115643497Y-106342040D01*
X115446597Y-106070400D01*
X113055400Y-106070400D01*
X113055400Y-106090400D01*
X113004600Y-106090400D01*
X113004600Y-106070400D01*
X112984600Y-106070400D01*
X112984600Y-106019600D01*
X113004600Y-106019600D01*
X113004600Y-105999600D01*
X113055400Y-105999600D01*
X113055400Y-106019600D01*
X115446597Y-106019600D01*
X115643497Y-105747960D01*
X115546434Y-105403121D01*
X115177787Y-104833563D01*
X114898226Y-104640800D01*
X115026948Y-104554792D01*
X115348775Y-104073143D01*
X115461786Y-103505000D01*
X115348775Y-102936857D01*
X115026948Y-102455208D01*
X114545299Y-102133381D01*
X113977156Y-102020370D01*
X112082844Y-102020370D01*
X111514701Y-102133381D01*
X111172547Y-102362000D01*
X110671777Y-102362000D01*
X110640887Y-102331056D01*
X110131816Y-102119671D01*
X109580602Y-102119190D01*
X109071163Y-102329686D01*
X108681056Y-102719113D01*
X108479566Y-103204353D01*
X108367539Y-102906579D01*
X108222770Y-102689917D01*
X107664558Y-102371363D01*
X107628637Y-102407284D01*
X107628637Y-102335442D01*
X107310083Y-101777230D01*
X105900937Y-101138518D01*
X104354633Y-101087682D01*
X102906579Y-101632461D01*
X102689917Y-101777230D01*
X102371363Y-102335442D01*
X105000000Y-104964079D01*
X107628637Y-102335442D01*
X107628637Y-102407284D01*
X105035921Y-105000000D01*
X107664558Y-107628637D01*
X108222770Y-107310083D01*
X108418894Y-106877387D01*
X108443085Y-106940013D01*
X108487800Y-107006933D01*
X108812288Y-107051791D01*
X109819079Y-106045000D01*
X109804936Y-106030857D01*
X109840857Y-105994936D01*
X109855000Y-106009079D01*
X109869142Y-105994936D01*
X109905063Y-106030857D01*
X109890921Y-106045000D01*
X109905063Y-106059142D01*
X109869142Y-106095063D01*
X109855000Y-106080921D01*
X108848209Y-107087712D01*
X108893067Y-107412200D01*
X109274984Y-107581278D01*
X108933433Y-107573054D01*
X108324987Y-107808085D01*
X108258067Y-107852800D01*
X108213209Y-108177288D01*
X109220000Y-109184079D01*
X110226791Y-108177288D01*
X110181933Y-107852800D01*
X109800015Y-107683721D01*
X110141567Y-107691946D01*
X110750013Y-107456915D01*
X110816933Y-107412200D01*
X110846165Y-107200743D01*
X110882213Y-107256437D01*
X111161773Y-107449199D01*
X111033052Y-107535208D01*
X110711225Y-108016857D01*
X110643809Y-108355778D01*
X110631915Y-108324987D01*
X110587200Y-108258067D01*
X110262712Y-108213209D01*
X109255921Y-109220000D01*
X110262712Y-110226791D01*
X110587200Y-110181933D01*
X110851244Y-109585506D01*
X110856422Y-109370447D01*
X111033052Y-109634792D01*
X111514701Y-109956619D01*
X112082844Y-110069630D01*
X113977156Y-110069630D01*
X114545299Y-109956619D01*
X115026948Y-109634792D01*
X115348775Y-109153143D01*
X115461786Y-108585000D01*
X115348775Y-108016857D01*
X115026948Y-107535208D01*
X114898226Y-107449199D01*
X115177787Y-107256437D01*
X115546434Y-106686879D01*
X115643497Y-106342040D01*
X115643497Y-110553920D01*
X115211816Y-110374671D01*
X114660602Y-110374190D01*
X114151163Y-110584686D01*
X113761056Y-110974113D01*
X113665025Y-111205381D01*
X113570314Y-110976163D01*
X113180887Y-110586056D01*
X112671816Y-110374671D01*
X112120602Y-110374190D01*
X111611163Y-110584686D01*
X111578792Y-110617000D01*
X110137334Y-110617000D01*
X110181933Y-110587200D01*
X110226791Y-110262712D01*
X109220000Y-109255921D01*
X109184079Y-109291842D01*
X109184079Y-109220000D01*
X108177288Y-108213209D01*
X107852800Y-108258067D01*
X107628637Y-108764410D01*
X107628637Y-107664558D01*
X105000000Y-105035921D01*
X104964079Y-105071842D01*
X104964079Y-105000000D01*
X102335442Y-102371363D01*
X101777230Y-102689917D01*
X101138518Y-104099063D01*
X101087682Y-105645367D01*
X101632461Y-107093421D01*
X101777230Y-107310083D01*
X102335442Y-107628637D01*
X104964079Y-105000000D01*
X104964079Y-105071842D01*
X102371363Y-107664558D01*
X102689917Y-108222770D01*
X104099063Y-108861482D01*
X105645367Y-108912318D01*
X107093421Y-108367539D01*
X107310083Y-108222770D01*
X107628637Y-107664558D01*
X107628637Y-108764410D01*
X107588756Y-108854494D01*
X107573054Y-109506567D01*
X107808085Y-110115013D01*
X107852800Y-110181933D01*
X108177288Y-110226791D01*
X109184079Y-109220000D01*
X109184079Y-109291842D01*
X108213209Y-110262712D01*
X108258067Y-110587200D01*
X108379701Y-110641048D01*
X108046056Y-110974113D01*
X107834671Y-111483184D01*
X107834190Y-112034398D01*
X108044686Y-112543837D01*
X108434113Y-112933944D01*
X108943184Y-113145329D01*
X109494398Y-113145810D01*
X110003837Y-112935314D01*
X110036207Y-112903000D01*
X111578222Y-112903000D01*
X111609113Y-112933944D01*
X112118184Y-113145329D01*
X112669398Y-113145810D01*
X113178837Y-112935314D01*
X113568944Y-112545887D01*
X113664974Y-112314618D01*
X113759686Y-112543837D01*
X114149113Y-112933944D01*
X114658184Y-113145329D01*
X115209398Y-113145810D01*
X115258720Y-113125430D01*
X115684145Y-113550855D01*
X115923115Y-113710530D01*
X116205000Y-113766600D01*
X116645835Y-113766600D01*
X116723538Y-113954655D01*
X116966858Y-114198400D01*
X116205000Y-114198400D01*
X115923115Y-114254470D01*
X115684145Y-114414145D01*
X114629890Y-115468400D01*
X113093500Y-115468400D01*
X113093500Y-115380191D01*
X112996827Y-115146802D01*
X112818199Y-114968173D01*
X112584810Y-114871500D01*
X112332191Y-114871500D01*
X110935191Y-114871500D01*
X110701802Y-114968173D01*
X110523173Y-115146801D01*
X110426500Y-115380190D01*
X110426500Y-115632809D01*
X110426500Y-117029809D01*
X110523173Y-117263198D01*
X110701801Y-117441827D01*
X110820782Y-117491110D01*
X110790755Y-117739834D01*
X111760000Y-118709079D01*
X112729245Y-117739834D01*
X112699217Y-117491110D01*
X112818198Y-117441827D01*
X112996827Y-117263199D01*
X113093500Y-117029810D01*
X113093500Y-116941600D01*
X114935000Y-116941600D01*
X115216885Y-116885530D01*
X115455855Y-116725855D01*
X116510110Y-115671600D01*
X117880093Y-115671600D01*
X117800385Y-115851890D01*
X117785496Y-116483261D01*
X118013356Y-117072271D01*
X118055756Y-117135724D01*
X118374834Y-117174245D01*
X119344079Y-116205000D01*
X119329936Y-116190857D01*
X119365857Y-116154936D01*
X119380000Y-116169079D01*
X119394142Y-116154936D01*
X119430063Y-116190857D01*
X119415921Y-116205000D01*
X119430063Y-116219142D01*
X119394142Y-116255063D01*
X119380000Y-116240921D01*
X118410755Y-117210166D01*
X118449276Y-117529244D01*
X118633390Y-117610643D01*
X118625620Y-117613854D01*
X118250173Y-117988647D01*
X118241970Y-118008400D01*
X117475000Y-118008400D01*
X117193115Y-118064470D01*
X116954145Y-118224145D01*
X113359890Y-121818400D01*
X113354504Y-121818400D01*
X113354504Y-118466739D01*
X113126644Y-117877729D01*
X113084244Y-117814276D01*
X112765166Y-117775755D01*
X111795921Y-118745000D01*
X112765166Y-119714245D01*
X113084244Y-119675724D01*
X113339615Y-119098110D01*
X113354504Y-118466739D01*
X113354504Y-121818400D01*
X112982405Y-121818400D01*
X113093268Y-121551413D01*
X113093731Y-121020914D01*
X112891146Y-120530620D01*
X112516353Y-120155173D01*
X112515579Y-120154851D01*
X112627271Y-120111644D01*
X112690724Y-120069244D01*
X112729245Y-119750166D01*
X111760000Y-118780921D01*
X111724079Y-118816842D01*
X111724079Y-118745000D01*
X110754834Y-117775755D01*
X110435756Y-117814276D01*
X110180385Y-118391890D01*
X110165496Y-119023261D01*
X110393356Y-119612271D01*
X110435756Y-119675724D01*
X110754834Y-119714245D01*
X111724079Y-118745000D01*
X111724079Y-118816842D01*
X110790755Y-119750166D01*
X110829276Y-120069244D01*
X111013390Y-120150643D01*
X111005620Y-120153854D01*
X110630173Y-120528647D01*
X110426732Y-121018587D01*
X110426269Y-121549086D01*
X110537547Y-121818400D01*
X110490000Y-121818400D01*
X110208115Y-121874470D01*
X109969145Y-122034145D01*
X108914890Y-123088400D01*
X108249432Y-123088400D01*
X108322577Y-122923226D01*
X108338457Y-122266609D01*
X108101852Y-121653898D01*
X108077242Y-121617065D01*
X108077242Y-119738339D01*
X107865010Y-119224697D01*
X107472370Y-118831371D01*
X106959100Y-118618243D01*
X106403339Y-118617758D01*
X105889697Y-118829990D01*
X105847613Y-118872000D01*
X105419025Y-118872000D01*
X105261699Y-118714673D01*
X105028310Y-118618000D01*
X104775691Y-118618000D01*
X103251691Y-118618000D01*
X103018302Y-118714673D01*
X102839673Y-118893301D01*
X102743000Y-119126690D01*
X102743000Y-119379309D01*
X102743000Y-120903309D01*
X102839673Y-121136698D01*
X103018301Y-121315327D01*
X103144352Y-121367539D01*
X103124967Y-121504046D01*
X104140000Y-122519079D01*
X105155033Y-121504046D01*
X105135647Y-121367538D01*
X105261698Y-121315327D01*
X105419025Y-121158000D01*
X105741703Y-121158000D01*
X105711216Y-121178371D01*
X105664967Y-121504046D01*
X106680000Y-122519079D01*
X107695033Y-121504046D01*
X107648784Y-121178371D01*
X107540164Y-121130270D01*
X107863629Y-120807370D01*
X108076757Y-120294100D01*
X108077242Y-119738339D01*
X108077242Y-121617065D01*
X108056629Y-121586216D01*
X107730954Y-121539967D01*
X106715921Y-122555000D01*
X106730063Y-122569142D01*
X106694142Y-122605063D01*
X106680000Y-122590921D01*
X106665857Y-122605063D01*
X106629936Y-122569142D01*
X106644079Y-122555000D01*
X105629046Y-121539967D01*
X105410000Y-121571073D01*
X105190954Y-121539967D01*
X104175921Y-122555000D01*
X104190063Y-122569142D01*
X104154142Y-122605063D01*
X104140000Y-122590921D01*
X104104079Y-122626842D01*
X104104079Y-122555000D01*
X103089046Y-121539967D01*
X102763371Y-121586216D01*
X102497423Y-122186774D01*
X102481543Y-122843391D01*
X102718148Y-123456102D01*
X102763371Y-123523784D01*
X103089046Y-123570033D01*
X104104079Y-122555000D01*
X104104079Y-122626842D01*
X103124967Y-123605954D01*
X103171216Y-123931629D01*
X103279835Y-123979729D01*
X102956371Y-124302630D01*
X102743243Y-124815900D01*
X102742758Y-125371661D01*
X102954990Y-125885303D01*
X103347630Y-126278629D01*
X103555512Y-126364949D01*
X103349697Y-126449990D01*
X102956371Y-126842630D01*
X102743243Y-127355900D01*
X102742758Y-127911661D01*
X102954990Y-128425303D01*
X103347630Y-128818629D01*
X103555512Y-128904949D01*
X103349697Y-128989990D01*
X102956371Y-129382630D01*
X102743243Y-129895900D01*
X102743191Y-129955362D01*
X101426777Y-131271777D01*
X101179006Y-131642593D01*
X101092000Y-132080000D01*
X101092000Y-140335000D01*
X101179006Y-140772407D01*
X101426777Y-141143223D01*
X102061777Y-141778223D01*
X102432593Y-142025994D01*
X102536195Y-142046601D01*
X102371363Y-142335442D01*
X105000000Y-144964079D01*
X105014142Y-144949936D01*
X105050063Y-144985857D01*
X105035921Y-145000000D01*
X107664558Y-147628637D01*
X108222770Y-147310083D01*
X108422651Y-146869097D01*
X110651554Y-149098000D01*
X107628637Y-149098000D01*
X107628637Y-147664558D01*
X105000000Y-145035921D01*
X104964079Y-145071842D01*
X104964079Y-145000000D01*
X102335442Y-142371363D01*
X101777230Y-142689917D01*
X101138518Y-144099063D01*
X101087682Y-145645367D01*
X101632461Y-147093421D01*
X101777230Y-147310083D01*
X102335442Y-147628637D01*
X104964079Y-145000000D01*
X104964079Y-145071842D01*
X102371363Y-147664558D01*
X102689917Y-148222770D01*
X104099063Y-148861482D01*
X105645367Y-148912318D01*
X107093421Y-148367539D01*
X107310083Y-148222770D01*
X107628637Y-147664558D01*
X107628637Y-149098000D01*
X100685000Y-149098000D01*
X100685000Y-100685000D01*
X116370764Y-100685000D01*
X116340342Y-100715422D01*
X116205000Y-101042167D01*
X116205000Y-101395833D01*
X116205000Y-105797350D01*
X116427250Y-106019600D01*
X124942600Y-106019600D01*
X124942600Y-105999600D01*
X124993400Y-105999600D01*
X124993400Y-106019600D01*
X133508750Y-106019600D01*
X133731000Y-105797350D01*
X133731000Y-103695436D01*
X133887822Y-103852258D01*
X134214567Y-103987600D01*
X135007350Y-103987600D01*
X135229600Y-103765350D01*
X135229600Y-102260400D01*
X135209600Y-102260400D01*
X135209600Y-102209600D01*
X135229600Y-102209600D01*
X135229600Y-102189600D01*
X135280400Y-102189600D01*
X135280400Y-102209600D01*
X135300400Y-102209600D01*
X135300400Y-102260400D01*
X135280400Y-102260400D01*
X135280400Y-103765350D01*
X135502650Y-103987600D01*
X136295433Y-103987600D01*
X136622178Y-103852258D01*
X136872258Y-103602178D01*
X136922123Y-103481790D01*
X136945003Y-103504710D01*
X137495602Y-103733339D01*
X138091782Y-103733859D01*
X138642780Y-103506192D01*
X139064710Y-103084997D01*
X139065095Y-103084069D01*
X139485003Y-103504710D01*
X140035602Y-103733339D01*
X140334690Y-103733599D01*
G36*
X143230290Y-143002000D02*
X142875000Y-143002000D01*
X142437593Y-143089006D01*
X142066777Y-143336777D01*
X141766554Y-143637000D01*
X138874390Y-143637000D01*
X138874687Y-143296216D01*
X138710689Y-142899311D01*
X138407286Y-142595378D01*
X138010668Y-142430687D01*
X137757176Y-142430466D01*
X137045855Y-141719145D01*
X136806885Y-141559470D01*
X136525000Y-141503400D01*
X135255000Y-141503400D01*
X134973115Y-141559470D01*
X134734145Y-141719145D01*
X134086292Y-142366998D01*
X133674504Y-142366998D01*
X133674504Y-138786739D01*
X133446644Y-138197729D01*
X133404244Y-138134276D01*
X133085166Y-138095755D01*
X133049245Y-138131676D01*
X133049245Y-138059834D01*
X133010724Y-137740756D01*
X132433110Y-137485385D01*
X131801739Y-137470496D01*
X131212729Y-137698356D01*
X131149276Y-137740756D01*
X131110755Y-138059834D01*
X132080000Y-139029079D01*
X133049245Y-138059834D01*
X133049245Y-138131676D01*
X132115921Y-139065000D01*
X133085166Y-140034245D01*
X133404244Y-139995724D01*
X133659615Y-139418110D01*
X133674504Y-138786739D01*
X133674504Y-142366998D01*
X132900713Y-142366998D01*
X133076244Y-141970506D01*
X133091946Y-141318433D01*
X132856915Y-140709987D01*
X132812200Y-140643067D01*
X132509073Y-140601161D01*
X132947271Y-140431644D01*
X133010724Y-140389244D01*
X133049245Y-140070166D01*
X132080000Y-139100921D01*
X132065857Y-139115063D01*
X132029936Y-139079142D01*
X132044079Y-139065000D01*
X131074834Y-138095755D01*
X130755756Y-138134276D01*
X130674356Y-138318390D01*
X130671146Y-138310620D01*
X130296353Y-137935173D01*
X129806413Y-137731732D01*
X129375354Y-137731355D01*
X130480109Y-136626600D01*
X137207594Y-136626600D01*
X137096732Y-136893587D01*
X137096269Y-137424086D01*
X137298854Y-137914380D01*
X137673647Y-138289827D01*
X138011446Y-138430093D01*
X137675620Y-138568854D01*
X137300173Y-138943647D01*
X137096732Y-139433587D01*
X137096269Y-139964086D01*
X137298854Y-140454380D01*
X137673647Y-140829827D01*
X138163587Y-141033268D01*
X138694086Y-141033731D01*
X139184380Y-140831146D01*
X139559827Y-140456353D01*
X139763268Y-139966413D01*
X139763644Y-139535354D01*
X143230290Y-143002000D01*
X143230290Y-143002000D01*
G37*
X143230290Y-143002000D02*
X142875000Y-143002000D01*
X142437593Y-143089006D01*
X142066777Y-143336777D01*
X141766554Y-143637000D01*
X138874390Y-143637000D01*
X138874687Y-143296216D01*
X138710689Y-142899311D01*
X138407286Y-142595378D01*
X138010668Y-142430687D01*
X137757176Y-142430466D01*
X137045855Y-141719145D01*
X136806885Y-141559470D01*
X136525000Y-141503400D01*
X135255000Y-141503400D01*
X134973115Y-141559470D01*
X134734145Y-141719145D01*
X134086292Y-142366998D01*
X133674504Y-142366998D01*
X133674504Y-138786739D01*
X133446644Y-138197729D01*
X133404244Y-138134276D01*
X133085166Y-138095755D01*
X133049245Y-138131676D01*
X133049245Y-138059834D01*
X133010724Y-137740756D01*
X132433110Y-137485385D01*
X131801739Y-137470496D01*
X131212729Y-137698356D01*
X131149276Y-137740756D01*
X131110755Y-138059834D01*
X132080000Y-139029079D01*
X133049245Y-138059834D01*
X133049245Y-138131676D01*
X132115921Y-139065000D01*
X133085166Y-140034245D01*
X133404244Y-139995724D01*
X133659615Y-139418110D01*
X133674504Y-138786739D01*
X133674504Y-142366998D01*
X132900713Y-142366998D01*
X133076244Y-141970506D01*
X133091946Y-141318433D01*
X132856915Y-140709987D01*
X132812200Y-140643067D01*
X132509073Y-140601161D01*
X132947271Y-140431644D01*
X133010724Y-140389244D01*
X133049245Y-140070166D01*
X132080000Y-139100921D01*
X132065857Y-139115063D01*
X132029936Y-139079142D01*
X132044079Y-139065000D01*
X131074834Y-138095755D01*
X130755756Y-138134276D01*
X130674356Y-138318390D01*
X130671146Y-138310620D01*
X130296353Y-137935173D01*
X129806413Y-137731732D01*
X129375354Y-137731355D01*
X130480109Y-136626600D01*
X137207594Y-136626600D01*
X137096732Y-136893587D01*
X137096269Y-137424086D01*
X137298854Y-137914380D01*
X137673647Y-138289827D01*
X138011446Y-138430093D01*
X137675620Y-138568854D01*
X137300173Y-138943647D01*
X137096732Y-139433587D01*
X137096269Y-139964086D01*
X137298854Y-140454380D01*
X137673647Y-140829827D01*
X138163587Y-141033268D01*
X138694086Y-141033731D01*
X139184380Y-140831146D01*
X139559827Y-140456353D01*
X139763268Y-139966413D01*
X139763644Y-139535354D01*
X143230290Y-143002000D01*
G36*
X155553840Y-146583400D02*
X153975110Y-146583400D01*
X152285855Y-144894145D01*
X152046885Y-144734470D01*
X151765000Y-144678400D01*
X151503837Y-144678400D01*
X151569928Y-144529395D01*
X151586867Y-144444226D01*
X151390139Y-144170400D01*
X149885400Y-144170400D01*
X149885400Y-144190400D01*
X149834600Y-144190400D01*
X149834600Y-144170400D01*
X149814600Y-144170400D01*
X149814600Y-144119600D01*
X149834600Y-144119600D01*
X149834600Y-144099600D01*
X149885400Y-144099600D01*
X149885400Y-144119600D01*
X151390139Y-144119600D01*
X151586867Y-143845774D01*
X151569928Y-143760605D01*
X151538867Y-143690577D01*
X153149145Y-145300855D01*
X153388115Y-145460530D01*
X153388116Y-145460530D01*
X153670000Y-145516600D01*
X155553837Y-145516600D01*
X155448243Y-145770900D01*
X155447758Y-146326661D01*
X155553840Y-146583400D01*
X155553840Y-146583400D01*
G37*
X155553840Y-146583400D02*
X153975110Y-146583400D01*
X152285855Y-144894145D01*
X152046885Y-144734470D01*
X151765000Y-144678400D01*
X151503837Y-144678400D01*
X151569928Y-144529395D01*
X151586867Y-144444226D01*
X151390139Y-144170400D01*
X149885400Y-144170400D01*
X149885400Y-144190400D01*
X149834600Y-144190400D01*
X149834600Y-144170400D01*
X149814600Y-144170400D01*
X149814600Y-144119600D01*
X149834600Y-144119600D01*
X149834600Y-144099600D01*
X149885400Y-144099600D01*
X149885400Y-144119600D01*
X151390139Y-144119600D01*
X151586867Y-143845774D01*
X151569928Y-143760605D01*
X151538867Y-143690577D01*
X153149145Y-145300855D01*
X153388115Y-145460530D01*
X153388116Y-145460530D01*
X153670000Y-145516600D01*
X155553837Y-145516600D01*
X155448243Y-145770900D01*
X155447758Y-146326661D01*
X155553840Y-146583400D01*
G36*
X159435063Y-146064142D02*
X159399142Y-146100063D01*
X159385000Y-146085921D01*
X159370857Y-146100063D01*
X159334936Y-146064142D01*
X159349079Y-146050000D01*
X159334936Y-146035857D01*
X159370857Y-145999936D01*
X159385000Y-146014079D01*
X159399142Y-145999936D01*
X159435063Y-146035857D01*
X159420921Y-146050000D01*
X159435063Y-146064142D01*
X159435063Y-146064142D01*
G37*
X159435063Y-146064142D02*
X159399142Y-146100063D01*
X159385000Y-146085921D01*
X159370857Y-146100063D01*
X159334936Y-146064142D01*
X159349079Y-146050000D01*
X159334936Y-146035857D01*
X159370857Y-145999936D01*
X159385000Y-146014079D01*
X159399142Y-145999936D01*
X159435063Y-146035857D01*
X159420921Y-146050000D01*
X159435063Y-146064142D01*
G36*
X163068290Y-100685000D02*
X161310165Y-102443125D01*
X161127440Y-102260400D01*
X159486600Y-102260400D01*
X159486600Y-102280400D01*
X159435800Y-102280400D01*
X159435800Y-102260400D01*
X157794960Y-102260400D01*
X157572710Y-102482650D01*
X157572710Y-103057657D01*
X157572710Y-103403400D01*
X154101897Y-103403400D01*
X154343646Y-103162073D01*
X154345712Y-103157095D01*
X154724332Y-103314313D01*
X155153784Y-103314687D01*
X155550689Y-103150689D01*
X155854622Y-102847286D01*
X156019313Y-102450668D01*
X156019687Y-102021216D01*
X155855689Y-101624311D01*
X155552286Y-101320378D01*
X155155668Y-101155687D01*
X154902176Y-101155466D01*
X154431710Y-100685000D01*
X157754984Y-100685000D01*
X157708052Y-100731932D01*
X157572710Y-101058677D01*
X157572710Y-101412343D01*
X157572710Y-101987350D01*
X157794960Y-102209600D01*
X159435800Y-102209600D01*
X159435800Y-102189600D01*
X159486600Y-102189600D01*
X159486600Y-102209600D01*
X161127440Y-102209600D01*
X161349690Y-101987350D01*
X161349690Y-101412343D01*
X161349690Y-101058677D01*
X161214348Y-100731932D01*
X161167416Y-100685000D01*
X163068290Y-100685000D01*
X163068290Y-100685000D01*
G37*
X163068290Y-100685000D02*
X161310165Y-102443125D01*
X161127440Y-102260400D01*
X159486600Y-102260400D01*
X159486600Y-102280400D01*
X159435800Y-102280400D01*
X159435800Y-102260400D01*
X157794960Y-102260400D01*
X157572710Y-102482650D01*
X157572710Y-103057657D01*
X157572710Y-103403400D01*
X154101897Y-103403400D01*
X154343646Y-103162073D01*
X154345712Y-103157095D01*
X154724332Y-103314313D01*
X155153784Y-103314687D01*
X155550689Y-103150689D01*
X155854622Y-102847286D01*
X156019313Y-102450668D01*
X156019687Y-102021216D01*
X155855689Y-101624311D01*
X155552286Y-101320378D01*
X155155668Y-101155687D01*
X154902176Y-101155466D01*
X154431710Y-100685000D01*
X157754984Y-100685000D01*
X157708052Y-100731932D01*
X157572710Y-101058677D01*
X157572710Y-101412343D01*
X157572710Y-101987350D01*
X157794960Y-102209600D01*
X159435800Y-102209600D01*
X159435800Y-102189600D01*
X159486600Y-102189600D01*
X159486600Y-102209600D01*
X161127440Y-102209600D01*
X161349690Y-101987350D01*
X161349690Y-101412343D01*
X161349690Y-101058677D01*
X161214348Y-100731932D01*
X161167416Y-100685000D01*
X163068290Y-100685000D01*
G36*
X166420063Y-143524142D02*
X166384142Y-143560063D01*
X166370000Y-143545921D01*
X166355857Y-143560063D01*
X166319936Y-143524142D01*
X166334079Y-143510000D01*
X166319936Y-143495857D01*
X166355857Y-143459936D01*
X166370000Y-143474079D01*
X166384142Y-143459936D01*
X166420063Y-143495857D01*
X166405921Y-143510000D01*
X166420063Y-143524142D01*
X166420063Y-143524142D01*
G37*
X166420063Y-143524142D02*
X166384142Y-143560063D01*
X166370000Y-143545921D01*
X166355857Y-143560063D01*
X166319936Y-143524142D01*
X166334079Y-143510000D01*
X166319936Y-143495857D01*
X166355857Y-143459936D01*
X166370000Y-143474079D01*
X166384142Y-143459936D01*
X166420063Y-143495857D01*
X166405921Y-143510000D01*
X166420063Y-143524142D01*
G36*
X167191954Y-102336600D02*
X164926777Y-104601777D01*
X164679006Y-104972593D01*
X164592000Y-105410000D01*
X164592000Y-106526198D01*
X164561644Y-106447729D01*
X164519244Y-106384276D01*
X164200166Y-106345755D01*
X163230921Y-107315000D01*
X164200166Y-108284245D01*
X164519244Y-108245724D01*
X164592000Y-108081159D01*
X164592000Y-111606198D01*
X164561644Y-111527729D01*
X164519244Y-111464276D01*
X164200166Y-111425755D01*
X163230921Y-112395000D01*
X164200166Y-113364245D01*
X164519244Y-113325724D01*
X164592000Y-113161159D01*
X164592000Y-118591198D01*
X164561644Y-118512729D01*
X164528500Y-118463127D01*
X164528500Y-117664810D01*
X164528500Y-117412191D01*
X164528500Y-116015191D01*
X164431827Y-115781802D01*
X164253199Y-115603173D01*
X164164245Y-115566327D01*
X164164245Y-113400166D01*
X163195000Y-112430921D01*
X163159079Y-112466842D01*
X163159079Y-112395000D01*
X162189834Y-111425755D01*
X161870756Y-111464276D01*
X161615385Y-112041890D01*
X161600496Y-112673261D01*
X161828356Y-113262271D01*
X161870756Y-113325724D01*
X162189834Y-113364245D01*
X163159079Y-112395000D01*
X163159079Y-112466842D01*
X162225755Y-113400166D01*
X162264276Y-113719244D01*
X162841890Y-113974615D01*
X163473261Y-113989504D01*
X164062271Y-113761644D01*
X164125724Y-113719244D01*
X164164245Y-113400166D01*
X164164245Y-115566327D01*
X164019810Y-115506500D01*
X163767191Y-115506500D01*
X162370191Y-115506500D01*
X162136802Y-115603173D01*
X161958173Y-115781801D01*
X161861500Y-116015190D01*
X161861500Y-116267809D01*
X161861500Y-117664809D01*
X161958173Y-117898198D01*
X162136801Y-118076827D01*
X162255782Y-118126110D01*
X162225755Y-118374834D01*
X163195000Y-119344079D01*
X164164245Y-118374834D01*
X164134217Y-118126110D01*
X164253198Y-118076827D01*
X164431827Y-117898199D01*
X164528500Y-117664810D01*
X164528500Y-118463127D01*
X164519244Y-118449276D01*
X164200166Y-118410755D01*
X163230921Y-119380000D01*
X164200166Y-120349245D01*
X164519244Y-120310724D01*
X164592000Y-120146159D01*
X164592000Y-123671198D01*
X164561644Y-123592729D01*
X164528731Y-123543473D01*
X164528731Y-121655914D01*
X164326146Y-121165620D01*
X163951353Y-120790173D01*
X163950579Y-120789851D01*
X164062271Y-120746644D01*
X164125724Y-120704244D01*
X164164245Y-120385166D01*
X163195000Y-119415921D01*
X163159079Y-119451842D01*
X163159079Y-119380000D01*
X162189834Y-118410755D01*
X161870756Y-118449276D01*
X161615385Y-119026890D01*
X161600496Y-119658261D01*
X161828356Y-120247271D01*
X161870756Y-120310724D01*
X162189834Y-120349245D01*
X163159079Y-119380000D01*
X163159079Y-119451842D01*
X162225755Y-120385166D01*
X162264276Y-120704244D01*
X162448390Y-120785643D01*
X162440620Y-120788854D01*
X162065173Y-121163647D01*
X161861732Y-121653587D01*
X161861269Y-122184086D01*
X162063854Y-122674380D01*
X162438647Y-123049827D01*
X162439420Y-123050148D01*
X162327729Y-123093356D01*
X162264276Y-123135756D01*
X162225755Y-123454834D01*
X163195000Y-124424079D01*
X164164245Y-123454834D01*
X164125724Y-123135756D01*
X163941609Y-123054356D01*
X163949380Y-123051146D01*
X164324827Y-122676353D01*
X164528268Y-122186413D01*
X164528731Y-121655914D01*
X164528731Y-123543473D01*
X164519244Y-123529276D01*
X164200166Y-123490755D01*
X163230921Y-124460000D01*
X164200166Y-125429245D01*
X164519244Y-125390724D01*
X164592000Y-125226159D01*
X164592000Y-130656198D01*
X164561644Y-130577729D01*
X164528500Y-130528127D01*
X164528500Y-129729810D01*
X164528500Y-129477191D01*
X164528500Y-128080191D01*
X164431827Y-127846802D01*
X164253199Y-127668173D01*
X164164245Y-127631327D01*
X164164245Y-125465166D01*
X163195000Y-124495921D01*
X163159079Y-124531842D01*
X163159079Y-124460000D01*
X162189834Y-123490755D01*
X161870756Y-123529276D01*
X161615385Y-124106890D01*
X161600496Y-124738261D01*
X161828356Y-125327271D01*
X161870756Y-125390724D01*
X162189834Y-125429245D01*
X163159079Y-124460000D01*
X163159079Y-124531842D01*
X162225755Y-125465166D01*
X162264276Y-125784244D01*
X162841890Y-126039615D01*
X163473261Y-126054504D01*
X164062271Y-125826644D01*
X164125724Y-125784244D01*
X164164245Y-125465166D01*
X164164245Y-127631327D01*
X164019810Y-127571500D01*
X163767191Y-127571500D01*
X162370191Y-127571500D01*
X162136802Y-127668173D01*
X161958173Y-127846801D01*
X161861500Y-128080190D01*
X161861500Y-128332809D01*
X161861500Y-129729809D01*
X161958173Y-129963198D01*
X162136801Y-130141827D01*
X162255782Y-130191110D01*
X162225755Y-130439834D01*
X163195000Y-131409079D01*
X164164245Y-130439834D01*
X164134217Y-130191110D01*
X164253198Y-130141827D01*
X164431827Y-129963199D01*
X164528500Y-129729810D01*
X164528500Y-130528127D01*
X164519244Y-130514276D01*
X164200166Y-130475755D01*
X163230921Y-131445000D01*
X164200166Y-132414245D01*
X164519244Y-132375724D01*
X164592000Y-132211159D01*
X164592000Y-135736198D01*
X164561644Y-135657729D01*
X164528731Y-135608473D01*
X164528731Y-133720914D01*
X164326146Y-133230620D01*
X163951353Y-132855173D01*
X163950579Y-132854851D01*
X164062271Y-132811644D01*
X164125724Y-132769244D01*
X164164245Y-132450166D01*
X163195000Y-131480921D01*
X163159079Y-131516842D01*
X163159079Y-131445000D01*
X162189834Y-130475755D01*
X161870756Y-130514276D01*
X161615385Y-131091890D01*
X161600496Y-131723261D01*
X161828356Y-132312271D01*
X161870756Y-132375724D01*
X162189834Y-132414245D01*
X163159079Y-131445000D01*
X163159079Y-131516842D01*
X162225755Y-132450166D01*
X162264276Y-132769244D01*
X162448390Y-132850643D01*
X162440620Y-132853854D01*
X162065173Y-133228647D01*
X161861732Y-133718587D01*
X161861269Y-134249086D01*
X162063854Y-134739380D01*
X162438647Y-135114827D01*
X162439420Y-135115148D01*
X162327729Y-135158356D01*
X162264276Y-135200756D01*
X162225755Y-135519834D01*
X163195000Y-136489079D01*
X164164245Y-135519834D01*
X164125724Y-135200756D01*
X163941609Y-135119356D01*
X163949380Y-135116146D01*
X164324827Y-134741353D01*
X164528268Y-134251413D01*
X164528731Y-133720914D01*
X164528731Y-135608473D01*
X164519244Y-135594276D01*
X164200166Y-135555755D01*
X163230921Y-136525000D01*
X164200166Y-137494245D01*
X164519244Y-137455724D01*
X164592000Y-137291159D01*
X164592000Y-140462000D01*
X164164245Y-140462000D01*
X164164245Y-137530166D01*
X163195000Y-136560921D01*
X163159079Y-136596842D01*
X163159079Y-136525000D01*
X162189834Y-135555755D01*
X161870756Y-135594276D01*
X161615385Y-136171890D01*
X161600496Y-136803261D01*
X161828356Y-137392271D01*
X161870756Y-137455724D01*
X162189834Y-137494245D01*
X163159079Y-136525000D01*
X163159079Y-136596842D01*
X162225755Y-137530166D01*
X162264276Y-137849244D01*
X162841890Y-138104615D01*
X163473261Y-138119504D01*
X164062271Y-137891644D01*
X164125724Y-137849244D01*
X164164245Y-137530166D01*
X164164245Y-140462000D01*
X163195000Y-140462000D01*
X162757593Y-140549006D01*
X162386777Y-140796777D01*
X161451554Y-141732000D01*
X160838390Y-141732000D01*
X161019206Y-141296547D01*
X161019774Y-140646306D01*
X160771462Y-140045345D01*
X160312073Y-139585154D01*
X159711547Y-139335794D01*
X159061306Y-139335226D01*
X158460345Y-139583538D01*
X158000154Y-140042927D01*
X157750794Y-140643453D01*
X157750226Y-141293694D01*
X157931330Y-141732000D01*
X156683445Y-141732000D01*
X155113223Y-140161777D01*
X154742407Y-139914006D01*
X154305000Y-139827000D01*
X150393497Y-139827000D01*
X150152073Y-139585154D01*
X149551547Y-139335794D01*
X148901306Y-139335226D01*
X148300345Y-139583538D01*
X147840154Y-140042927D01*
X147590794Y-140643453D01*
X147590226Y-141293694D01*
X147838538Y-141894655D01*
X148081858Y-142138400D01*
X144450109Y-142138400D01*
X139755890Y-137444180D01*
X139763268Y-137426413D01*
X139763731Y-136895914D01*
X139652452Y-136626600D01*
X139700000Y-136626600D01*
X139981885Y-136570530D01*
X140220855Y-136410855D01*
X140932242Y-135699467D01*
X141183784Y-135699687D01*
X141580689Y-135535689D01*
X141847566Y-135269276D01*
X142989145Y-136410855D01*
X143228115Y-136570530D01*
X143510000Y-136626600D01*
X144827594Y-136626600D01*
X144716732Y-136893587D01*
X144716269Y-137424086D01*
X144918854Y-137914380D01*
X145293647Y-138289827D01*
X145631446Y-138430093D01*
X145295620Y-138568854D01*
X144920173Y-138943647D01*
X144716732Y-139433587D01*
X144716269Y-139964086D01*
X144918854Y-140454380D01*
X145293647Y-140829827D01*
X145783587Y-141033268D01*
X146314086Y-141033731D01*
X146804380Y-140831146D01*
X147179827Y-140456353D01*
X147383268Y-139966413D01*
X147383731Y-139435914D01*
X147181146Y-138945620D01*
X146806353Y-138570173D01*
X146468553Y-138429906D01*
X146804380Y-138291146D01*
X147179827Y-137916353D01*
X147383268Y-137426413D01*
X147383731Y-136895914D01*
X147272452Y-136626600D01*
X147676686Y-136626600D01*
X147590794Y-136833453D01*
X147590226Y-137483694D01*
X147838538Y-138084655D01*
X148297927Y-138544846D01*
X148898453Y-138794206D01*
X149548694Y-138794774D01*
X150149655Y-138546462D01*
X150609846Y-138087073D01*
X150859206Y-137486547D01*
X150859774Y-136836306D01*
X150611462Y-136235345D01*
X150368141Y-135991600D01*
X157174889Y-135991600D01*
X157828824Y-136645534D01*
X157750794Y-136833453D01*
X157750226Y-137483694D01*
X157998538Y-138084655D01*
X158457927Y-138544846D01*
X159058453Y-138794206D01*
X159708694Y-138794774D01*
X160309655Y-138546462D01*
X160769846Y-138087073D01*
X161019206Y-137486547D01*
X161019774Y-136836306D01*
X161019774Y-133026306D01*
X161019774Y-129216306D01*
X160771462Y-128615345D01*
X160312073Y-128155154D01*
X159711547Y-127905794D01*
X159061306Y-127905226D01*
X158460345Y-128153538D01*
X158000154Y-128612927D01*
X157750794Y-129213453D01*
X157750226Y-129863694D01*
X157998538Y-130464655D01*
X158457927Y-130924846D01*
X159058453Y-131174206D01*
X159708694Y-131174774D01*
X160309655Y-130926462D01*
X160769846Y-130467073D01*
X161019206Y-129866547D01*
X161019774Y-129216306D01*
X161019774Y-133026306D01*
X160771462Y-132425345D01*
X160312073Y-131965154D01*
X159711547Y-131715794D01*
X159061306Y-131715226D01*
X158460345Y-131963538D01*
X158000154Y-132422927D01*
X157750794Y-133023453D01*
X157750226Y-133673694D01*
X157998538Y-134274655D01*
X158457927Y-134734846D01*
X159058453Y-134984206D01*
X159708694Y-134984774D01*
X160309655Y-134736462D01*
X160769846Y-134277073D01*
X161019206Y-133676547D01*
X161019774Y-133026306D01*
X161019774Y-136836306D01*
X160771462Y-136235345D01*
X160312073Y-135775154D01*
X159711547Y-135525794D01*
X159061306Y-135525226D01*
X158870694Y-135603984D01*
X158000855Y-134734145D01*
X157761885Y-134574470D01*
X157480000Y-134518400D01*
X150530539Y-134518400D01*
X150797547Y-134461126D01*
X151103053Y-133774759D01*
X151122643Y-133023727D01*
X150853334Y-132322366D01*
X150797547Y-132238874D01*
X150447198Y-132163723D01*
X150411277Y-132199644D01*
X150411277Y-132127802D01*
X150336126Y-131777453D01*
X149649759Y-131471947D01*
X148898727Y-131452357D01*
X148197366Y-131721666D01*
X148113874Y-131777453D01*
X148038723Y-132127802D01*
X149225000Y-133314079D01*
X150411277Y-132127802D01*
X150411277Y-132199644D01*
X149260921Y-133350000D01*
X149275063Y-133364142D01*
X149239142Y-133400063D01*
X149225000Y-133385921D01*
X149189079Y-133421842D01*
X149189079Y-133350000D01*
X148002802Y-132163723D01*
X147652453Y-132238874D01*
X147346947Y-132925241D01*
X147327357Y-133676273D01*
X147596666Y-134377634D01*
X147652453Y-134461126D01*
X148002802Y-134536277D01*
X149189079Y-133350000D01*
X149189079Y-133421842D01*
X148038723Y-134572198D01*
X148072920Y-134731622D01*
X148069145Y-134734145D01*
X147649890Y-135153400D01*
X147272405Y-135153400D01*
X147383268Y-134886413D01*
X147383731Y-134355914D01*
X147181146Y-133865620D01*
X146806353Y-133490173D01*
X146468553Y-133349906D01*
X146804380Y-133211146D01*
X147179827Y-132836353D01*
X147383268Y-132346413D01*
X147383731Y-131815914D01*
X147272452Y-131546600D01*
X147955000Y-131546600D01*
X148236885Y-131490530D01*
X148475855Y-131330855D01*
X148710534Y-131096175D01*
X148898453Y-131174206D01*
X149548694Y-131174774D01*
X150149655Y-130926462D01*
X150609846Y-130467073D01*
X150859206Y-129866547D01*
X150859774Y-129216306D01*
X150611462Y-128615345D01*
X150368141Y-128371600D01*
X151610002Y-128371600D01*
X151787714Y-128549622D01*
X152184332Y-128714313D01*
X152613784Y-128714687D01*
X153010689Y-128550689D01*
X153314622Y-128247286D01*
X153479313Y-127850668D01*
X153479687Y-127421216D01*
X153315689Y-127024311D01*
X153012286Y-126720378D01*
X152615668Y-126555687D01*
X152186216Y-126555313D01*
X151789311Y-126719311D01*
X151609909Y-126898400D01*
X150871946Y-126898400D01*
X150871946Y-122903433D01*
X150636915Y-122294987D01*
X150592200Y-122228067D01*
X150267712Y-122183209D01*
X150231791Y-122219130D01*
X150231791Y-122147288D01*
X150186933Y-121822800D01*
X149590506Y-121558756D01*
X148938433Y-121543054D01*
X148329987Y-121778085D01*
X148263067Y-121822800D01*
X148218209Y-122147288D01*
X149225000Y-123154079D01*
X150231791Y-122147288D01*
X150231791Y-122219130D01*
X149260921Y-123190000D01*
X150267712Y-124196791D01*
X150592200Y-124151933D01*
X150856244Y-123555506D01*
X150871946Y-122903433D01*
X150871946Y-126898400D01*
X150015763Y-126898400D01*
X150398944Y-126515887D01*
X150610329Y-126006816D01*
X150610810Y-125455602D01*
X150400314Y-124946163D01*
X150074295Y-124619574D01*
X150120013Y-124601915D01*
X150186933Y-124557200D01*
X150231791Y-124232712D01*
X149225000Y-123225921D01*
X149189079Y-123261842D01*
X149189079Y-123190000D01*
X148182288Y-122183209D01*
X147857800Y-122228067D01*
X147593756Y-122824494D01*
X147578054Y-123476567D01*
X147813085Y-124085013D01*
X147857800Y-124151933D01*
X148182288Y-124196791D01*
X149189079Y-123190000D01*
X149189079Y-123261842D01*
X148218209Y-124232712D01*
X148263067Y-124557200D01*
X148330379Y-124587000D01*
X147955000Y-124587000D01*
X147517593Y-124674006D01*
X147361805Y-124778099D01*
X147383268Y-124726413D01*
X147383731Y-124195914D01*
X147181146Y-123705620D01*
X146806353Y-123330173D01*
X146805579Y-123329851D01*
X146917271Y-123286644D01*
X146980724Y-123244244D01*
X147019245Y-122925166D01*
X146050000Y-121955921D01*
X145080755Y-122925166D01*
X145119276Y-123244244D01*
X145303390Y-123325643D01*
X145295620Y-123328854D01*
X144920173Y-123703647D01*
X144716732Y-124193587D01*
X144716269Y-124724086D01*
X144918854Y-125214380D01*
X145293647Y-125589827D01*
X145631446Y-125730093D01*
X145324308Y-125857000D01*
X140335000Y-125857000D01*
X140024504Y-125918761D01*
X140024504Y-124181739D01*
X139796644Y-123592729D01*
X139754244Y-123529276D01*
X139435166Y-123490755D01*
X138465921Y-124460000D01*
X139435166Y-125429245D01*
X139754244Y-125390724D01*
X140009615Y-124813110D01*
X140024504Y-124181739D01*
X140024504Y-125918761D01*
X139897593Y-125944006D01*
X139526777Y-126191777D01*
X139519006Y-126203406D01*
X139186353Y-125870173D01*
X139185579Y-125869851D01*
X139297271Y-125826644D01*
X139360724Y-125784244D01*
X139399245Y-125465166D01*
X138430000Y-124495921D01*
X138394079Y-124531842D01*
X138394079Y-124460000D01*
X137424834Y-123490755D01*
X137265192Y-123510027D01*
X137257200Y-123498067D01*
X136932712Y-123453209D01*
X135925921Y-124460000D01*
X136932712Y-125466791D01*
X137257200Y-125421933D01*
X137262632Y-125409663D01*
X137424834Y-125429245D01*
X138394079Y-124460000D01*
X138394079Y-124531842D01*
X137460755Y-125465166D01*
X137499276Y-125784244D01*
X137683390Y-125865643D01*
X137675620Y-125868854D01*
X137300173Y-126243647D01*
X137291970Y-126263400D01*
X136896791Y-126263400D01*
X136896791Y-125502712D01*
X135890000Y-124495921D01*
X135854079Y-124531842D01*
X135854079Y-124460000D01*
X134847288Y-123453209D01*
X134522800Y-123498067D01*
X134258756Y-124094494D01*
X134243054Y-124746567D01*
X134478085Y-125355013D01*
X134522800Y-125421933D01*
X134847288Y-125466791D01*
X135854079Y-124460000D01*
X135854079Y-124531842D01*
X134883209Y-125502712D01*
X134928067Y-125827200D01*
X135524494Y-126091244D01*
X136176567Y-126106946D01*
X136785013Y-125871915D01*
X136851933Y-125827200D01*
X136896791Y-125502712D01*
X136896791Y-126263400D01*
X136525000Y-126263400D01*
X136305179Y-126307124D01*
X136166816Y-126249671D01*
X135615602Y-126249190D01*
X135106163Y-126459686D01*
X134716056Y-126849113D01*
X134695590Y-126898400D01*
X133086791Y-126898400D01*
X133086791Y-123597712D01*
X132080000Y-122590921D01*
X131073209Y-123597712D01*
X131118067Y-123922200D01*
X131714494Y-124186244D01*
X132366567Y-124201946D01*
X132975013Y-123966915D01*
X133041933Y-123922200D01*
X133086791Y-123597712D01*
X133086791Y-126898400D01*
X132096599Y-126898400D01*
X132096750Y-126725602D01*
X131886254Y-126216163D01*
X131496827Y-125826056D01*
X130987756Y-125614671D01*
X130436542Y-125614190D01*
X129927103Y-125824686D01*
X129536996Y-126214113D01*
X129325611Y-126723184D01*
X129325130Y-127274398D01*
X129535626Y-127783837D01*
X129919518Y-128168400D01*
X128039170Y-128168400D01*
X127194788Y-127324018D01*
X127214389Y-127276816D01*
X127214870Y-126725602D01*
X127004374Y-126216163D01*
X126614947Y-125826056D01*
X126105876Y-125614671D01*
X125554662Y-125614190D01*
X125045223Y-125824686D01*
X124655116Y-126214113D01*
X124443731Y-126723184D01*
X124443250Y-127274398D01*
X124653746Y-127783837D01*
X125043173Y-128173944D01*
X125552244Y-128385329D01*
X126103458Y-128385810D01*
X126152780Y-128365430D01*
X127213205Y-129425855D01*
X127452175Y-129585530D01*
X127452176Y-129585530D01*
X127734060Y-129641600D01*
X133037621Y-129641600D01*
X132905687Y-129959332D01*
X132905316Y-130384257D01*
X132836353Y-130315173D01*
X132346413Y-130111732D01*
X131815914Y-130111269D01*
X131325620Y-130313854D01*
X130950173Y-130688647D01*
X130809906Y-131026446D01*
X130671146Y-130690620D01*
X130296353Y-130315173D01*
X129806413Y-130111732D01*
X129275914Y-130111269D01*
X128785620Y-130313854D01*
X128410173Y-130688647D01*
X128401970Y-130708400D01*
X128138492Y-130708400D01*
X128131146Y-130690620D01*
X127756353Y-130315173D01*
X127266413Y-130111732D01*
X126735914Y-130111269D01*
X126245620Y-130313854D01*
X125870173Y-130688647D01*
X125861970Y-130708400D01*
X125598492Y-130708400D01*
X125591146Y-130690620D01*
X125216353Y-130315173D01*
X124726413Y-130111732D01*
X124195914Y-130111269D01*
X123705620Y-130313854D01*
X123330173Y-130688647D01*
X123189906Y-131026446D01*
X123051146Y-130690620D01*
X122676353Y-130315173D01*
X122186413Y-130111732D01*
X121655914Y-130111269D01*
X121194308Y-130302000D01*
X121026946Y-130302000D01*
X121026946Y-128618433D01*
X120791915Y-128009987D01*
X120747200Y-127943067D01*
X120422712Y-127898209D01*
X120386791Y-127934130D01*
X120386791Y-127862288D01*
X120341933Y-127537800D01*
X119745506Y-127273756D01*
X119093433Y-127258054D01*
X118484987Y-127493085D01*
X118418067Y-127537800D01*
X118373209Y-127862288D01*
X119380000Y-128869079D01*
X120386791Y-127862288D01*
X120386791Y-127934130D01*
X119415921Y-128905000D01*
X120422712Y-129911791D01*
X120747200Y-129866933D01*
X121011244Y-129270506D01*
X121026946Y-128618433D01*
X121026946Y-130302000D01*
X120297334Y-130302000D01*
X120341933Y-130272200D01*
X120386791Y-129947712D01*
X119380000Y-128940921D01*
X118373209Y-129947712D01*
X118418067Y-130272200D01*
X118485379Y-130302000D01*
X117564628Y-130302000D01*
X117326561Y-130203145D01*
X117623837Y-130080314D01*
X117950425Y-129754295D01*
X117968085Y-129800013D01*
X118012800Y-129866933D01*
X118337288Y-129911791D01*
X119344079Y-128905000D01*
X118337288Y-127898209D01*
X118012800Y-127943067D01*
X117958951Y-128064701D01*
X117625887Y-127731056D01*
X117116816Y-127519671D01*
X116565602Y-127519190D01*
X116056163Y-127729686D01*
X115666056Y-128119113D01*
X115454671Y-128628184D01*
X115454190Y-129179398D01*
X115664686Y-129688837D01*
X116054113Y-130078944D01*
X116353388Y-130203214D01*
X116085620Y-130313854D01*
X115710173Y-130688647D01*
X115506732Y-131178587D01*
X115506269Y-131709086D01*
X115708854Y-132199380D01*
X116083647Y-132574827D01*
X116573587Y-132778268D01*
X117104086Y-132778731D01*
X117565691Y-132588000D01*
X118655371Y-132588000D01*
X119113587Y-132778268D01*
X119644086Y-132778731D01*
X120105691Y-132588000D01*
X121195371Y-132588000D01*
X121653587Y-132778268D01*
X122184086Y-132778731D01*
X122674380Y-132576146D01*
X123049827Y-132201353D01*
X123190093Y-131863553D01*
X123328854Y-132199380D01*
X123703647Y-132574827D01*
X124193587Y-132778268D01*
X124724086Y-132778731D01*
X125214380Y-132576146D01*
X125589827Y-132201353D01*
X125598029Y-132181600D01*
X125861507Y-132181600D01*
X125868854Y-132199380D01*
X126243647Y-132574827D01*
X126733587Y-132778268D01*
X127264086Y-132778731D01*
X127754380Y-132576146D01*
X128129827Y-132201353D01*
X128138029Y-132181600D01*
X128401507Y-132181600D01*
X128408854Y-132199380D01*
X128783647Y-132574827D01*
X129273587Y-132778268D01*
X129804086Y-132778731D01*
X130294380Y-132576146D01*
X130669827Y-132201353D01*
X130810093Y-131863553D01*
X130948854Y-132199380D01*
X131323647Y-132574827D01*
X131813587Y-132778268D01*
X132344086Y-132778731D01*
X132834380Y-132576146D01*
X133209827Y-132201353D01*
X133413268Y-131711413D01*
X133413731Y-131180914D01*
X133376692Y-131091274D01*
X133769332Y-131254313D01*
X134022823Y-131254533D01*
X134734145Y-131965855D01*
X134973115Y-132125530D01*
X135255000Y-132181600D01*
X137096410Y-132181600D01*
X137096269Y-132344086D01*
X137207547Y-132613400D01*
X137160000Y-132613400D01*
X136878115Y-132669470D01*
X136639145Y-132829145D01*
X134949890Y-134518400D01*
X123190000Y-134518400D01*
X122908115Y-134574470D01*
X122669145Y-134734145D01*
X119664180Y-137739109D01*
X119646413Y-137731732D01*
X119115914Y-137731269D01*
X118625620Y-137933854D01*
X118250173Y-138308647D01*
X118173500Y-138493295D01*
X118173500Y-138240191D01*
X118076827Y-138006802D01*
X117898199Y-137828173D01*
X117664810Y-137731500D01*
X117412191Y-137731500D01*
X116015191Y-137731500D01*
X115781802Y-137828173D01*
X115603173Y-138006801D01*
X115506500Y-138240190D01*
X115506500Y-138492809D01*
X115506500Y-138721790D01*
X114179465Y-140048824D01*
X113991547Y-139970794D01*
X113341306Y-139970226D01*
X112740345Y-140218538D01*
X112280154Y-140677927D01*
X112030794Y-141278453D01*
X112030226Y-141928694D01*
X112278538Y-142529655D01*
X112737927Y-142989846D01*
X113338453Y-143239206D01*
X113988694Y-143239774D01*
X114589655Y-142991462D01*
X115049846Y-142532073D01*
X115299206Y-141931547D01*
X115299774Y-141281306D01*
X115221015Y-141090694D01*
X115943079Y-140368630D01*
X116015190Y-140398500D01*
X116267809Y-140398500D01*
X117664809Y-140398500D01*
X117898198Y-140301827D01*
X118076827Y-140123199D01*
X118173500Y-139889810D01*
X118173500Y-139637191D01*
X118173500Y-139637009D01*
X118248854Y-139819380D01*
X118623647Y-140194827D01*
X119113587Y-140398268D01*
X119644086Y-140398731D01*
X120134380Y-140196146D01*
X120509827Y-139821353D01*
X120650093Y-139483553D01*
X120788854Y-139819380D01*
X121163647Y-140194827D01*
X121653587Y-140398268D01*
X122184086Y-140398731D01*
X122674380Y-140196146D01*
X123049827Y-139821353D01*
X123190093Y-139483553D01*
X123328854Y-139819380D01*
X123485823Y-139976623D01*
X122900345Y-140218538D01*
X122656457Y-140462000D01*
X122555000Y-140462000D01*
X122117593Y-140549006D01*
X121746777Y-140796777D01*
X119240182Y-143303371D01*
X118777152Y-143395474D01*
X118290971Y-143720330D01*
X118110000Y-143991172D01*
X117929029Y-143720330D01*
X117442848Y-143395474D01*
X116869359Y-143281400D01*
X116810641Y-143281400D01*
X116237152Y-143395474D01*
X115750971Y-143720330D01*
X115570000Y-143991172D01*
X115389029Y-143720330D01*
X114902848Y-143395474D01*
X114329359Y-143281400D01*
X114270641Y-143281400D01*
X113697152Y-143395474D01*
X113440974Y-143566646D01*
X113377258Y-143412822D01*
X113127178Y-143162742D01*
X112800433Y-143027400D01*
X112007650Y-143027400D01*
X111785400Y-143249650D01*
X111785400Y-144754600D01*
X111805400Y-144754600D01*
X111805400Y-144805400D01*
X111785400Y-144805400D01*
X111785400Y-146310350D01*
X112007650Y-146532600D01*
X112800433Y-146532600D01*
X113127178Y-146397258D01*
X113377258Y-146147178D01*
X113440974Y-145993353D01*
X113697152Y-146164526D01*
X114270641Y-146278600D01*
X114329359Y-146278600D01*
X114902848Y-146164526D01*
X115389029Y-145839670D01*
X115570000Y-145568827D01*
X115750971Y-145839670D01*
X116237152Y-146164526D01*
X116810641Y-146278600D01*
X116869359Y-146278600D01*
X117442848Y-146164526D01*
X117929029Y-145839670D01*
X118110000Y-145568827D01*
X118290971Y-145839670D01*
X118777152Y-146164526D01*
X119350641Y-146278600D01*
X119409359Y-146278600D01*
X119982848Y-146164526D01*
X120469029Y-145839670D01*
X120793885Y-145353489D01*
X120885987Y-144890458D01*
X121437400Y-144339046D01*
X121437400Y-144532350D01*
X121659650Y-144754600D01*
X123164600Y-144754600D01*
X123164600Y-144734600D01*
X123215400Y-144734600D01*
X123215400Y-144754600D01*
X123235400Y-144754600D01*
X123235400Y-144805400D01*
X123215400Y-144805400D01*
X123215400Y-146310350D01*
X123437650Y-146532600D01*
X124230433Y-146532600D01*
X124557178Y-146397258D01*
X124807258Y-146147178D01*
X124870974Y-145993353D01*
X125127152Y-146164526D01*
X125700641Y-146278600D01*
X125759359Y-146278600D01*
X126332848Y-146164526D01*
X126819029Y-145839670D01*
X127000000Y-145568827D01*
X127180971Y-145839670D01*
X127667152Y-146164526D01*
X128240641Y-146278600D01*
X128299359Y-146278600D01*
X128872848Y-146164526D01*
X129359029Y-145839670D01*
X129540000Y-145568827D01*
X129720971Y-145839670D01*
X130207152Y-146164526D01*
X130780641Y-146278600D01*
X130839359Y-146278600D01*
X131412848Y-146164526D01*
X131774316Y-145923000D01*
X137030353Y-145923000D01*
X136880378Y-146072714D01*
X136715687Y-146469332D01*
X136715313Y-146898784D01*
X136879311Y-147295689D01*
X137030358Y-147447000D01*
X123164600Y-147447000D01*
X123164600Y-146310350D01*
X123164600Y-144805400D01*
X121659650Y-144805400D01*
X121437400Y-145027650D01*
X121437400Y-145466767D01*
X121437400Y-145820433D01*
X121572742Y-146147178D01*
X121822822Y-146397258D01*
X122149567Y-146532600D01*
X122942350Y-146532600D01*
X123164600Y-146310350D01*
X123164600Y-147447000D01*
X112233445Y-147447000D01*
X111319046Y-146532600D01*
X111512350Y-146532600D01*
X111734600Y-146310350D01*
X111734600Y-144805400D01*
X111714600Y-144805400D01*
X111714600Y-144754600D01*
X111734600Y-144754600D01*
X111734600Y-143249650D01*
X111512350Y-143027400D01*
X110719567Y-143027400D01*
X110392822Y-143162742D01*
X110363000Y-143192564D01*
X110363000Y-142875000D01*
X110275994Y-142437593D01*
X110028223Y-142066777D01*
X108123223Y-140161777D01*
X107752407Y-139914006D01*
X107315000Y-139827000D01*
X103378000Y-139827000D01*
X103378000Y-138466249D01*
X103840602Y-138658339D01*
X104436782Y-138658859D01*
X104987780Y-138431192D01*
X105409710Y-138009997D01*
X105410095Y-138009069D01*
X105830003Y-138429710D01*
X106380602Y-138658339D01*
X106976782Y-138658859D01*
X107527780Y-138431192D01*
X107747187Y-138212166D01*
X107818073Y-138383298D01*
X107996701Y-138561927D01*
X108230090Y-138658600D01*
X108482709Y-138658600D01*
X110209909Y-138658600D01*
X110443298Y-138561927D01*
X110621927Y-138383299D01*
X110718600Y-138149910D01*
X110718600Y-137897291D01*
X110718600Y-136626600D01*
X110819890Y-136626600D01*
X110838824Y-136645534D01*
X110760794Y-136833453D01*
X110760226Y-137483694D01*
X111008538Y-138084655D01*
X111467927Y-138544846D01*
X112068453Y-138794206D01*
X112718694Y-138794774D01*
X113319655Y-138546462D01*
X113779846Y-138087073D01*
X114029206Y-137486547D01*
X114029774Y-136836306D01*
X113781462Y-136235345D01*
X113322073Y-135775154D01*
X112721547Y-135525794D01*
X112071306Y-135525226D01*
X111880694Y-135603984D01*
X111645855Y-135369145D01*
X111406885Y-135209470D01*
X111125000Y-135153400D01*
X107950000Y-135153400D01*
X107668115Y-135209470D01*
X107429145Y-135369145D01*
X107090496Y-135707793D01*
X106979398Y-135661661D01*
X106383218Y-135661141D01*
X105832220Y-135888808D01*
X105410290Y-136310003D01*
X105409904Y-136310930D01*
X104989997Y-135890290D01*
X104439398Y-135661661D01*
X103843218Y-135661141D01*
X103378000Y-135853364D01*
X103378000Y-132553446D01*
X104359254Y-131572191D01*
X104416661Y-131572242D01*
X104930303Y-131360010D01*
X104972386Y-131318000D01*
X105847071Y-131318000D01*
X105887630Y-131358629D01*
X106400900Y-131571757D01*
X106956661Y-131572242D01*
X107470303Y-131360010D01*
X107863629Y-130967370D01*
X108076757Y-130454100D01*
X108077242Y-129898339D01*
X107865010Y-129384697D01*
X107472370Y-128991371D01*
X107264487Y-128905050D01*
X107470303Y-128820010D01*
X107863629Y-128427370D01*
X108076757Y-127914100D01*
X108077242Y-127358339D01*
X107971159Y-127101600D01*
X108279890Y-127101600D01*
X108699145Y-127520855D01*
X108938115Y-127680530D01*
X108938116Y-127680530D01*
X109220000Y-127736600D01*
X110930835Y-127736600D01*
X111008538Y-127924655D01*
X111467927Y-128384846D01*
X112068453Y-128634206D01*
X112409100Y-128634503D01*
X112115378Y-128927714D01*
X111950687Y-129324332D01*
X111950313Y-129753784D01*
X112114311Y-130150689D01*
X112417714Y-130454622D01*
X112814332Y-130619313D01*
X113243784Y-130619687D01*
X113640689Y-130455689D01*
X113944622Y-130152286D01*
X114109313Y-129755668D01*
X114109533Y-129502176D01*
X114820855Y-128790855D01*
X114980530Y-128551885D01*
X115036600Y-128270000D01*
X115036600Y-126677378D01*
X115354332Y-126809313D01*
X115783784Y-126809687D01*
X116180689Y-126645689D01*
X116484622Y-126342286D01*
X116649313Y-125945668D01*
X116649533Y-125692176D01*
X118106603Y-124235106D01*
X118248854Y-124579380D01*
X118623647Y-124954827D01*
X119113587Y-125158268D01*
X119644086Y-125158731D01*
X120105691Y-124968000D01*
X125730000Y-124968000D01*
X126167407Y-124880994D01*
X126538223Y-124633223D01*
X128209116Y-122962329D01*
X128364686Y-123338837D01*
X128754113Y-123728944D01*
X129263184Y-123940329D01*
X129814398Y-123940810D01*
X130323837Y-123730314D01*
X130650425Y-123404295D01*
X130668085Y-123450013D01*
X130712800Y-123516933D01*
X131037288Y-123561791D01*
X132044079Y-122555000D01*
X132029936Y-122540857D01*
X132065857Y-122504936D01*
X132080000Y-122519079D01*
X132094142Y-122504936D01*
X132130063Y-122540857D01*
X132115921Y-122555000D01*
X133122712Y-123561791D01*
X133447200Y-123516933D01*
X133711244Y-122920506D01*
X133726946Y-122268433D01*
X133543295Y-121793000D01*
X134146554Y-121793000D01*
X134504228Y-122150674D01*
X134504190Y-122194398D01*
X134714686Y-122703837D01*
X135040704Y-123030425D01*
X134994987Y-123048085D01*
X134928067Y-123092800D01*
X134883209Y-123417288D01*
X135890000Y-124424079D01*
X136896791Y-123417288D01*
X136851933Y-123092800D01*
X136784620Y-123063000D01*
X137641198Y-123063000D01*
X137562729Y-123093356D01*
X137499276Y-123135756D01*
X137460755Y-123454834D01*
X138430000Y-124424079D01*
X139399245Y-123454834D01*
X139360724Y-123135756D01*
X139176609Y-123054356D01*
X139184380Y-123051146D01*
X139559827Y-122676353D01*
X139763268Y-122186413D01*
X139763731Y-121655914D01*
X139561146Y-121165620D01*
X139186353Y-120790173D01*
X138848553Y-120649906D01*
X139184380Y-120511146D01*
X139559827Y-120136353D01*
X139763268Y-119646413D01*
X139763731Y-119115914D01*
X139652452Y-118846600D01*
X142875000Y-118846600D01*
X143156885Y-118790530D01*
X143310028Y-118688202D01*
X143230378Y-118767714D01*
X143065687Y-119164332D01*
X143065313Y-119593784D01*
X143197375Y-119913400D01*
X143029997Y-119913400D01*
X142852286Y-119735378D01*
X142455668Y-119570687D01*
X142026216Y-119570313D01*
X141629311Y-119734311D01*
X141325378Y-120037714D01*
X141160687Y-120434332D01*
X141160313Y-120863784D01*
X141324311Y-121260689D01*
X141627714Y-121564622D01*
X142024332Y-121729313D01*
X142453784Y-121729687D01*
X142850689Y-121565689D01*
X143030090Y-121386600D01*
X144550093Y-121386600D01*
X144470385Y-121566890D01*
X144455496Y-122198261D01*
X144683356Y-122787271D01*
X144725756Y-122850724D01*
X145044834Y-122889245D01*
X146014079Y-121920000D01*
X145999936Y-121905857D01*
X146035857Y-121869936D01*
X146050000Y-121884079D01*
X146064142Y-121869936D01*
X146100063Y-121905857D01*
X146085921Y-121920000D01*
X147055166Y-122889245D01*
X147374244Y-122850724D01*
X147629615Y-122273110D01*
X147644504Y-121641739D01*
X147545802Y-121386600D01*
X147955000Y-121386600D01*
X148236885Y-121330530D01*
X148475855Y-121170855D01*
X148895110Y-120751600D01*
X151261507Y-120751600D01*
X151268854Y-120769380D01*
X151643647Y-121144827D01*
X151981446Y-121285093D01*
X151645620Y-121423854D01*
X151270173Y-121798647D01*
X151066732Y-122288587D01*
X151066269Y-122819086D01*
X151268854Y-123309380D01*
X151643647Y-123684827D01*
X151981446Y-123825093D01*
X151645620Y-123963854D01*
X151270173Y-124338647D01*
X151066732Y-124828587D01*
X151066269Y-125359086D01*
X151268854Y-125849380D01*
X151643647Y-126224827D01*
X152133587Y-126428268D01*
X152664086Y-126428731D01*
X153154380Y-126226146D01*
X153529827Y-125851353D01*
X153733268Y-125361413D01*
X153733731Y-124830914D01*
X153531146Y-124340620D01*
X153156353Y-123965173D01*
X152818553Y-123824906D01*
X153154380Y-123686146D01*
X153529827Y-123311353D01*
X153538029Y-123291600D01*
X154785002Y-123291600D01*
X154962714Y-123469622D01*
X155359332Y-123634313D01*
X155788784Y-123634687D01*
X156185689Y-123470689D01*
X156489622Y-123167286D01*
X156654313Y-122770668D01*
X156654687Y-122341216D01*
X156490689Y-121944311D01*
X156187286Y-121640378D01*
X155790668Y-121475687D01*
X155361216Y-121475313D01*
X154964311Y-121639311D01*
X154784909Y-121818400D01*
X153538492Y-121818400D01*
X153531146Y-121800620D01*
X153156353Y-121425173D01*
X152818553Y-121284906D01*
X153154380Y-121146146D01*
X153529827Y-120771353D01*
X153733268Y-120281413D01*
X153733731Y-119750914D01*
X153531146Y-119260620D01*
X153156353Y-118885173D01*
X152818553Y-118744906D01*
X153154380Y-118606146D01*
X153529827Y-118231353D01*
X153733268Y-117741413D01*
X153733731Y-117210914D01*
X153696692Y-117121274D01*
X154089332Y-117284313D01*
X154518784Y-117284687D01*
X154915689Y-117120689D01*
X155219622Y-116817286D01*
X155384313Y-116420668D01*
X155384687Y-115991216D01*
X155220689Y-115594311D01*
X154917286Y-115290378D01*
X154520668Y-115125687D01*
X154091216Y-115125313D01*
X153697278Y-115288084D01*
X153733268Y-115201413D01*
X153733731Y-114670914D01*
X153531146Y-114180620D01*
X153156353Y-113805173D01*
X152818553Y-113664906D01*
X153154380Y-113526146D01*
X153529827Y-113151353D01*
X153733268Y-112661413D01*
X153733731Y-112130914D01*
X153531146Y-111640620D01*
X153156353Y-111265173D01*
X152818553Y-111124906D01*
X153154380Y-110986146D01*
X153529827Y-110611353D01*
X153733268Y-110121413D01*
X153733731Y-109590914D01*
X153531146Y-109100620D01*
X153156353Y-108725173D01*
X152971704Y-108648500D01*
X153224809Y-108648500D01*
X153458198Y-108551827D01*
X153636827Y-108373199D01*
X153733500Y-108139810D01*
X153733500Y-107887191D01*
X153733500Y-106490191D01*
X153636827Y-106256802D01*
X153458199Y-106078173D01*
X153224810Y-105981500D01*
X152972191Y-105981500D01*
X151575191Y-105981500D01*
X151341802Y-106078173D01*
X151163173Y-106256801D01*
X151066500Y-106490190D01*
X151066500Y-106742809D01*
X151066500Y-108139809D01*
X151163173Y-108373198D01*
X151341801Y-108551827D01*
X151575190Y-108648500D01*
X151827809Y-108648500D01*
X151827990Y-108648500D01*
X151645620Y-108723854D01*
X151270173Y-109098647D01*
X151066732Y-109588587D01*
X151066269Y-110119086D01*
X151268854Y-110609380D01*
X151643647Y-110984827D01*
X151981446Y-111125093D01*
X151645620Y-111263854D01*
X151270173Y-111638647D01*
X151066732Y-112128587D01*
X151066269Y-112659086D01*
X151268854Y-113149380D01*
X151643647Y-113524827D01*
X151981446Y-113665093D01*
X151645620Y-113803854D01*
X151270173Y-114178647D01*
X151066732Y-114668587D01*
X151066269Y-115199086D01*
X151177547Y-115468400D01*
X149225000Y-115468400D01*
X148895110Y-115468400D01*
X148475855Y-115049145D01*
X148236885Y-114889470D01*
X147955000Y-114833400D01*
X147272405Y-114833400D01*
X147383268Y-114566413D01*
X147383731Y-114035914D01*
X147181146Y-113545620D01*
X146806353Y-113170173D01*
X146468553Y-113029906D01*
X146804380Y-112891146D01*
X147179827Y-112516353D01*
X147383268Y-112026413D01*
X147383731Y-111495914D01*
X147181146Y-111005620D01*
X146806353Y-110630173D01*
X146468553Y-110489906D01*
X146804380Y-110351146D01*
X147179827Y-109976353D01*
X147383268Y-109486413D01*
X147383731Y-108955914D01*
X147181146Y-108465620D01*
X146806353Y-108090173D01*
X146468553Y-107949906D01*
X146804380Y-107811146D01*
X147179827Y-107436353D01*
X147383268Y-106946413D01*
X147383731Y-106415914D01*
X147181146Y-105925620D01*
X146806353Y-105550173D01*
X146316413Y-105346732D01*
X145785914Y-105346269D01*
X145295620Y-105548854D01*
X144920173Y-105923647D01*
X144716732Y-106413587D01*
X144716269Y-106944086D01*
X144918854Y-107434380D01*
X145293647Y-107809827D01*
X145631446Y-107950093D01*
X145295620Y-108088854D01*
X144920173Y-108463647D01*
X144716732Y-108953587D01*
X144716269Y-109484086D01*
X144918854Y-109974380D01*
X145293647Y-110349827D01*
X145631446Y-110490093D01*
X145295620Y-110628854D01*
X144920173Y-111003647D01*
X144716732Y-111493587D01*
X144716269Y-112024086D01*
X144918854Y-112514380D01*
X145293647Y-112889827D01*
X145631446Y-113030093D01*
X145295620Y-113168854D01*
X144920173Y-113543647D01*
X144716732Y-114033587D01*
X144716269Y-114564086D01*
X144911813Y-115037339D01*
X144894145Y-115049145D01*
X142569890Y-117373400D01*
X139652405Y-117373400D01*
X139763268Y-117106413D01*
X139763731Y-116575914D01*
X139561146Y-116085620D01*
X139186353Y-115710173D01*
X138848553Y-115569906D01*
X139184380Y-115431146D01*
X139559827Y-115056353D01*
X139763268Y-114566413D01*
X139763666Y-114109556D01*
X139913784Y-114109687D01*
X140310689Y-113945689D01*
X140614622Y-113642286D01*
X140779313Y-113245668D01*
X140779687Y-112816216D01*
X140615689Y-112419311D01*
X140312286Y-112115378D01*
X139915668Y-111950687D01*
X139763334Y-111950554D01*
X139763731Y-111495914D01*
X139561146Y-111005620D01*
X139186353Y-110630173D01*
X138848553Y-110489906D01*
X139184380Y-110351146D01*
X139559827Y-109976353D01*
X139763268Y-109486413D01*
X139763731Y-108955914D01*
X139561146Y-108465620D01*
X139186353Y-108090173D01*
X139001704Y-108013500D01*
X139254809Y-108013500D01*
X139488198Y-107916827D01*
X139666827Y-107738199D01*
X139763500Y-107504810D01*
X139763500Y-107252191D01*
X139763500Y-106388210D01*
X141910110Y-104241600D01*
X144271690Y-104241600D01*
X142912757Y-105600532D01*
X142661216Y-105600313D01*
X142264311Y-105764311D01*
X141960378Y-106067714D01*
X141795687Y-106464332D01*
X141795313Y-106893784D01*
X141959311Y-107290689D01*
X142262714Y-107594622D01*
X142659332Y-107759313D01*
X143088784Y-107759687D01*
X143485689Y-107595689D01*
X143789622Y-107292286D01*
X143954313Y-106895668D01*
X143954533Y-106642176D01*
X145720110Y-104876600D01*
X148912621Y-104876600D01*
X148780687Y-105194332D01*
X148780313Y-105623784D01*
X148944311Y-106020689D01*
X149247714Y-106324622D01*
X149644332Y-106489313D01*
X150073784Y-106489687D01*
X150470689Y-106325689D01*
X150774622Y-106022286D01*
X150939313Y-105625668D01*
X150939412Y-105511600D01*
X160655000Y-105511600D01*
X160936885Y-105455530D01*
X161175855Y-105295855D01*
X161861500Y-104610210D01*
X161861500Y-105066790D01*
X160752868Y-106175421D01*
X160286413Y-105981732D01*
X159755914Y-105981269D01*
X159265620Y-106183854D01*
X158890173Y-106558647D01*
X158686732Y-107048587D01*
X158686269Y-107579086D01*
X158888854Y-108069380D01*
X159263647Y-108444827D01*
X159601446Y-108585093D01*
X159265620Y-108723854D01*
X158890173Y-109098647D01*
X158686732Y-109588587D01*
X158686269Y-110119086D01*
X158888854Y-110609380D01*
X159263647Y-110984827D01*
X159601446Y-111125093D01*
X159265620Y-111263854D01*
X158890173Y-111638647D01*
X158686732Y-112128587D01*
X158686269Y-112659086D01*
X158888854Y-113149380D01*
X159263647Y-113524827D01*
X159601446Y-113665093D01*
X159265620Y-113803854D01*
X158890173Y-114178647D01*
X158686732Y-114668587D01*
X158686269Y-115199086D01*
X158888854Y-115689380D01*
X159263647Y-116064827D01*
X159601446Y-116205093D01*
X159265620Y-116343854D01*
X158890173Y-116718647D01*
X158686732Y-117208587D01*
X158686269Y-117739086D01*
X158888854Y-118229380D01*
X159263647Y-118604827D01*
X159601446Y-118745093D01*
X159265620Y-118883854D01*
X158890173Y-119258647D01*
X158686732Y-119748587D01*
X158686355Y-120179645D01*
X157581600Y-119074890D01*
X157581600Y-108585000D01*
X157525530Y-108303115D01*
X157365855Y-108064145D01*
X156654467Y-107352757D01*
X156654687Y-107101216D01*
X156490689Y-106704311D01*
X156187286Y-106400378D01*
X155790668Y-106235687D01*
X155361216Y-106235313D01*
X154964311Y-106399311D01*
X154660378Y-106702714D01*
X154495687Y-107099332D01*
X154495313Y-107528784D01*
X154659311Y-107925689D01*
X154962714Y-108229622D01*
X155359332Y-108394313D01*
X155612823Y-108394533D01*
X156108400Y-108890110D01*
X156108400Y-119380000D01*
X156164470Y-119661885D01*
X156324145Y-119900855D01*
X158694109Y-122270819D01*
X158686732Y-122288587D01*
X158686269Y-122819086D01*
X158888854Y-123309380D01*
X159263647Y-123684827D01*
X159601446Y-123825093D01*
X159265620Y-123963854D01*
X158890173Y-124338647D01*
X158686732Y-124828587D01*
X158686269Y-125359086D01*
X158888854Y-125849380D01*
X159263647Y-126224827D01*
X159753587Y-126428268D01*
X160284086Y-126428731D01*
X160774380Y-126226146D01*
X161149827Y-125851353D01*
X161353268Y-125361413D01*
X161353731Y-124830914D01*
X161151146Y-124340620D01*
X160776353Y-123965173D01*
X160438553Y-123824906D01*
X160774380Y-123686146D01*
X161149827Y-123311353D01*
X161353268Y-122821413D01*
X161353731Y-122290914D01*
X161151146Y-121800620D01*
X160776353Y-121425173D01*
X160438553Y-121284906D01*
X160774380Y-121146146D01*
X161149827Y-120771353D01*
X161353268Y-120281413D01*
X161353731Y-119750914D01*
X161151146Y-119260620D01*
X160776353Y-118885173D01*
X160438553Y-118744906D01*
X160774380Y-118606146D01*
X161149827Y-118231353D01*
X161353268Y-117741413D01*
X161353731Y-117210914D01*
X161151146Y-116720620D01*
X160776353Y-116345173D01*
X160438553Y-116204906D01*
X160774380Y-116066146D01*
X161149827Y-115691353D01*
X161353268Y-115201413D01*
X161353731Y-114670914D01*
X161151146Y-114180620D01*
X160776353Y-113805173D01*
X160438553Y-113664906D01*
X160774380Y-113526146D01*
X161149827Y-113151353D01*
X161353268Y-112661413D01*
X161353731Y-112130914D01*
X161151146Y-111640620D01*
X160776353Y-111265173D01*
X160438553Y-111124906D01*
X160774380Y-110986146D01*
X161149827Y-110611353D01*
X161158029Y-110591600D01*
X162056507Y-110591600D01*
X162063854Y-110609380D01*
X162438647Y-110984827D01*
X162439420Y-110985148D01*
X162327729Y-111028356D01*
X162264276Y-111070756D01*
X162225755Y-111389834D01*
X163195000Y-112359079D01*
X164164245Y-111389834D01*
X164125724Y-111070756D01*
X163941609Y-110989356D01*
X163949380Y-110986146D01*
X164324827Y-110611353D01*
X164528268Y-110121413D01*
X164528731Y-109590914D01*
X164326146Y-109100620D01*
X163951353Y-108725173D01*
X163950579Y-108724851D01*
X164062271Y-108681644D01*
X164125724Y-108639244D01*
X164164245Y-108320166D01*
X163195000Y-107350921D01*
X162225755Y-108320166D01*
X162264276Y-108639244D01*
X162448390Y-108720643D01*
X162440620Y-108723854D01*
X162065173Y-109098647D01*
X162056970Y-109118400D01*
X161158492Y-109118400D01*
X161151146Y-109100620D01*
X160776353Y-108725173D01*
X160438553Y-108584906D01*
X160774380Y-108446146D01*
X161149827Y-108071353D01*
X161298570Y-107713139D01*
X161604892Y-107406817D01*
X161600496Y-107593261D01*
X161828356Y-108182271D01*
X161870756Y-108245724D01*
X162189834Y-108284245D01*
X163159079Y-107315000D01*
X163144936Y-107300857D01*
X163180857Y-107264936D01*
X163195000Y-107279079D01*
X164164245Y-106309834D01*
X164134217Y-106061110D01*
X164253198Y-106011827D01*
X164431827Y-105833199D01*
X164528500Y-105599810D01*
X164528500Y-105347191D01*
X164528500Y-103950191D01*
X164431827Y-103716802D01*
X164253199Y-103538173D01*
X164019810Y-103441500D01*
X163767191Y-103441500D01*
X163030210Y-103441500D01*
X164135110Y-102336600D01*
X167191954Y-102336600D01*
X167191954Y-102336600D01*
G37*
X167191954Y-102336600D02*
X164926777Y-104601777D01*
X164679006Y-104972593D01*
X164592000Y-105410000D01*
X164592000Y-106526198D01*
X164561644Y-106447729D01*
X164519244Y-106384276D01*
X164200166Y-106345755D01*
X163230921Y-107315000D01*
X164200166Y-108284245D01*
X164519244Y-108245724D01*
X164592000Y-108081159D01*
X164592000Y-111606198D01*
X164561644Y-111527729D01*
X164519244Y-111464276D01*
X164200166Y-111425755D01*
X163230921Y-112395000D01*
X164200166Y-113364245D01*
X164519244Y-113325724D01*
X164592000Y-113161159D01*
X164592000Y-118591198D01*
X164561644Y-118512729D01*
X164528500Y-118463127D01*
X164528500Y-117664810D01*
X164528500Y-117412191D01*
X164528500Y-116015191D01*
X164431827Y-115781802D01*
X164253199Y-115603173D01*
X164164245Y-115566327D01*
X164164245Y-113400166D01*
X163195000Y-112430921D01*
X163159079Y-112466842D01*
X163159079Y-112395000D01*
X162189834Y-111425755D01*
X161870756Y-111464276D01*
X161615385Y-112041890D01*
X161600496Y-112673261D01*
X161828356Y-113262271D01*
X161870756Y-113325724D01*
X162189834Y-113364245D01*
X163159079Y-112395000D01*
X163159079Y-112466842D01*
X162225755Y-113400166D01*
X162264276Y-113719244D01*
X162841890Y-113974615D01*
X163473261Y-113989504D01*
X164062271Y-113761644D01*
X164125724Y-113719244D01*
X164164245Y-113400166D01*
X164164245Y-115566327D01*
X164019810Y-115506500D01*
X163767191Y-115506500D01*
X162370191Y-115506500D01*
X162136802Y-115603173D01*
X161958173Y-115781801D01*
X161861500Y-116015190D01*
X161861500Y-116267809D01*
X161861500Y-117664809D01*
X161958173Y-117898198D01*
X162136801Y-118076827D01*
X162255782Y-118126110D01*
X162225755Y-118374834D01*
X163195000Y-119344079D01*
X164164245Y-118374834D01*
X164134217Y-118126110D01*
X164253198Y-118076827D01*
X164431827Y-117898199D01*
X164528500Y-117664810D01*
X164528500Y-118463127D01*
X164519244Y-118449276D01*
X164200166Y-118410755D01*
X163230921Y-119380000D01*
X164200166Y-120349245D01*
X164519244Y-120310724D01*
X164592000Y-120146159D01*
X164592000Y-123671198D01*
X164561644Y-123592729D01*
X164528731Y-123543473D01*
X164528731Y-121655914D01*
X164326146Y-121165620D01*
X163951353Y-120790173D01*
X163950579Y-120789851D01*
X164062271Y-120746644D01*
X164125724Y-120704244D01*
X164164245Y-120385166D01*
X163195000Y-119415921D01*
X163159079Y-119451842D01*
X163159079Y-119380000D01*
X162189834Y-118410755D01*
X161870756Y-118449276D01*
X161615385Y-119026890D01*
X161600496Y-119658261D01*
X161828356Y-120247271D01*
X161870756Y-120310724D01*
X162189834Y-120349245D01*
X163159079Y-119380000D01*
X163159079Y-119451842D01*
X162225755Y-120385166D01*
X162264276Y-120704244D01*
X162448390Y-120785643D01*
X162440620Y-120788854D01*
X162065173Y-121163647D01*
X161861732Y-121653587D01*
X161861269Y-122184086D01*
X162063854Y-122674380D01*
X162438647Y-123049827D01*
X162439420Y-123050148D01*
X162327729Y-123093356D01*
X162264276Y-123135756D01*
X162225755Y-123454834D01*
X163195000Y-124424079D01*
X164164245Y-123454834D01*
X164125724Y-123135756D01*
X163941609Y-123054356D01*
X163949380Y-123051146D01*
X164324827Y-122676353D01*
X164528268Y-122186413D01*
X164528731Y-121655914D01*
X164528731Y-123543473D01*
X164519244Y-123529276D01*
X164200166Y-123490755D01*
X163230921Y-124460000D01*
X164200166Y-125429245D01*
X164519244Y-125390724D01*
X164592000Y-125226159D01*
X164592000Y-130656198D01*
X164561644Y-130577729D01*
X164528500Y-130528127D01*
X164528500Y-129729810D01*
X164528500Y-129477191D01*
X164528500Y-128080191D01*
X164431827Y-127846802D01*
X164253199Y-127668173D01*
X164164245Y-127631327D01*
X164164245Y-125465166D01*
X163195000Y-124495921D01*
X163159079Y-124531842D01*
X163159079Y-124460000D01*
X162189834Y-123490755D01*
X161870756Y-123529276D01*
X161615385Y-124106890D01*
X161600496Y-124738261D01*
X161828356Y-125327271D01*
X161870756Y-125390724D01*
X162189834Y-125429245D01*
X163159079Y-124460000D01*
X163159079Y-124531842D01*
X162225755Y-125465166D01*
X162264276Y-125784244D01*
X162841890Y-126039615D01*
X163473261Y-126054504D01*
X164062271Y-125826644D01*
X164125724Y-125784244D01*
X164164245Y-125465166D01*
X164164245Y-127631327D01*
X164019810Y-127571500D01*
X163767191Y-127571500D01*
X162370191Y-127571500D01*
X162136802Y-127668173D01*
X161958173Y-127846801D01*
X161861500Y-128080190D01*
X161861500Y-128332809D01*
X161861500Y-129729809D01*
X161958173Y-129963198D01*
X162136801Y-130141827D01*
X162255782Y-130191110D01*
X162225755Y-130439834D01*
X163195000Y-131409079D01*
X164164245Y-130439834D01*
X164134217Y-130191110D01*
X164253198Y-130141827D01*
X164431827Y-129963199D01*
X164528500Y-129729810D01*
X164528500Y-130528127D01*
X164519244Y-130514276D01*
X164200166Y-130475755D01*
X163230921Y-131445000D01*
X164200166Y-132414245D01*
X164519244Y-132375724D01*
X164592000Y-132211159D01*
X164592000Y-135736198D01*
X164561644Y-135657729D01*
X164528731Y-135608473D01*
X164528731Y-133720914D01*
X164326146Y-133230620D01*
X163951353Y-132855173D01*
X163950579Y-132854851D01*
X164062271Y-132811644D01*
X164125724Y-132769244D01*
X164164245Y-132450166D01*
X163195000Y-131480921D01*
X163159079Y-131516842D01*
X163159079Y-131445000D01*
X162189834Y-130475755D01*
X161870756Y-130514276D01*
X161615385Y-131091890D01*
X161600496Y-131723261D01*
X161828356Y-132312271D01*
X161870756Y-132375724D01*
X162189834Y-132414245D01*
X163159079Y-131445000D01*
X163159079Y-131516842D01*
X162225755Y-132450166D01*
X162264276Y-132769244D01*
X162448390Y-132850643D01*
X162440620Y-132853854D01*
X162065173Y-133228647D01*
X161861732Y-133718587D01*
X161861269Y-134249086D01*
X162063854Y-134739380D01*
X162438647Y-135114827D01*
X162439420Y-135115148D01*
X162327729Y-135158356D01*
X162264276Y-135200756D01*
X162225755Y-135519834D01*
X163195000Y-136489079D01*
X164164245Y-135519834D01*
X164125724Y-135200756D01*
X163941609Y-135119356D01*
X163949380Y-135116146D01*
X164324827Y-134741353D01*
X164528268Y-134251413D01*
X164528731Y-133720914D01*
X164528731Y-135608473D01*
X164519244Y-135594276D01*
X164200166Y-135555755D01*
X163230921Y-136525000D01*
X164200166Y-137494245D01*
X164519244Y-137455724D01*
X164592000Y-137291159D01*
X164592000Y-140462000D01*
X164164245Y-140462000D01*
X164164245Y-137530166D01*
X163195000Y-136560921D01*
X163159079Y-136596842D01*
X163159079Y-136525000D01*
X162189834Y-135555755D01*
X161870756Y-135594276D01*
X161615385Y-136171890D01*
X161600496Y-136803261D01*
X161828356Y-137392271D01*
X161870756Y-137455724D01*
X162189834Y-137494245D01*
X163159079Y-136525000D01*
X163159079Y-136596842D01*
X162225755Y-137530166D01*
X162264276Y-137849244D01*
X162841890Y-138104615D01*
X163473261Y-138119504D01*
X164062271Y-137891644D01*
X164125724Y-137849244D01*
X164164245Y-137530166D01*
X164164245Y-140462000D01*
X163195000Y-140462000D01*
X162757593Y-140549006D01*
X162386777Y-140796777D01*
X161451554Y-141732000D01*
X160838390Y-141732000D01*
X161019206Y-141296547D01*
X161019774Y-140646306D01*
X160771462Y-140045345D01*
X160312073Y-139585154D01*
X159711547Y-139335794D01*
X159061306Y-139335226D01*
X158460345Y-139583538D01*
X158000154Y-140042927D01*
X157750794Y-140643453D01*
X157750226Y-141293694D01*
X157931330Y-141732000D01*
X156683445Y-141732000D01*
X155113223Y-140161777D01*
X154742407Y-139914006D01*
X154305000Y-139827000D01*
X150393497Y-139827000D01*
X150152073Y-139585154D01*
X149551547Y-139335794D01*
X148901306Y-139335226D01*
X148300345Y-139583538D01*
X147840154Y-140042927D01*
X147590794Y-140643453D01*
X147590226Y-141293694D01*
X147838538Y-141894655D01*
X148081858Y-142138400D01*
X144450109Y-142138400D01*
X139755890Y-137444180D01*
X139763268Y-137426413D01*
X139763731Y-136895914D01*
X139652452Y-136626600D01*
X139700000Y-136626600D01*
X139981885Y-136570530D01*
X140220855Y-136410855D01*
X140932242Y-135699467D01*
X141183784Y-135699687D01*
X141580689Y-135535689D01*
X141847566Y-135269276D01*
X142989145Y-136410855D01*
X143228115Y-136570530D01*
X143510000Y-136626600D01*
X144827594Y-136626600D01*
X144716732Y-136893587D01*
X144716269Y-137424086D01*
X144918854Y-137914380D01*
X145293647Y-138289827D01*
X145631446Y-138430093D01*
X145295620Y-138568854D01*
X144920173Y-138943647D01*
X144716732Y-139433587D01*
X144716269Y-139964086D01*
X144918854Y-140454380D01*
X145293647Y-140829827D01*
X145783587Y-141033268D01*
X146314086Y-141033731D01*
X146804380Y-140831146D01*
X147179827Y-140456353D01*
X147383268Y-139966413D01*
X147383731Y-139435914D01*
X147181146Y-138945620D01*
X146806353Y-138570173D01*
X146468553Y-138429906D01*
X146804380Y-138291146D01*
X147179827Y-137916353D01*
X147383268Y-137426413D01*
X147383731Y-136895914D01*
X147272452Y-136626600D01*
X147676686Y-136626600D01*
X147590794Y-136833453D01*
X147590226Y-137483694D01*
X147838538Y-138084655D01*
X148297927Y-138544846D01*
X148898453Y-138794206D01*
X149548694Y-138794774D01*
X150149655Y-138546462D01*
X150609846Y-138087073D01*
X150859206Y-137486547D01*
X150859774Y-136836306D01*
X150611462Y-136235345D01*
X150368141Y-135991600D01*
X157174889Y-135991600D01*
X157828824Y-136645534D01*
X157750794Y-136833453D01*
X157750226Y-137483694D01*
X157998538Y-138084655D01*
X158457927Y-138544846D01*
X159058453Y-138794206D01*
X159708694Y-138794774D01*
X160309655Y-138546462D01*
X160769846Y-138087073D01*
X161019206Y-137486547D01*
X161019774Y-136836306D01*
X161019774Y-133026306D01*
X161019774Y-129216306D01*
X160771462Y-128615345D01*
X160312073Y-128155154D01*
X159711547Y-127905794D01*
X159061306Y-127905226D01*
X158460345Y-128153538D01*
X158000154Y-128612927D01*
X157750794Y-129213453D01*
X157750226Y-129863694D01*
X157998538Y-130464655D01*
X158457927Y-130924846D01*
X159058453Y-131174206D01*
X159708694Y-131174774D01*
X160309655Y-130926462D01*
X160769846Y-130467073D01*
X161019206Y-129866547D01*
X161019774Y-129216306D01*
X161019774Y-133026306D01*
X160771462Y-132425345D01*
X160312073Y-131965154D01*
X159711547Y-131715794D01*
X159061306Y-131715226D01*
X158460345Y-131963538D01*
X158000154Y-132422927D01*
X157750794Y-133023453D01*
X157750226Y-133673694D01*
X157998538Y-134274655D01*
X158457927Y-134734846D01*
X159058453Y-134984206D01*
X159708694Y-134984774D01*
X160309655Y-134736462D01*
X160769846Y-134277073D01*
X161019206Y-133676547D01*
X161019774Y-133026306D01*
X161019774Y-136836306D01*
X160771462Y-136235345D01*
X160312073Y-135775154D01*
X159711547Y-135525794D01*
X159061306Y-135525226D01*
X158870694Y-135603984D01*
X158000855Y-134734145D01*
X157761885Y-134574470D01*
X157480000Y-134518400D01*
X150530539Y-134518400D01*
X150797547Y-134461126D01*
X151103053Y-133774759D01*
X151122643Y-133023727D01*
X150853334Y-132322366D01*
X150797547Y-132238874D01*
X150447198Y-132163723D01*
X150411277Y-132199644D01*
X150411277Y-132127802D01*
X150336126Y-131777453D01*
X149649759Y-131471947D01*
X148898727Y-131452357D01*
X148197366Y-131721666D01*
X148113874Y-131777453D01*
X148038723Y-132127802D01*
X149225000Y-133314079D01*
X150411277Y-132127802D01*
X150411277Y-132199644D01*
X149260921Y-133350000D01*
X149275063Y-133364142D01*
X149239142Y-133400063D01*
X149225000Y-133385921D01*
X149189079Y-133421842D01*
X149189079Y-133350000D01*
X148002802Y-132163723D01*
X147652453Y-132238874D01*
X147346947Y-132925241D01*
X147327357Y-133676273D01*
X147596666Y-134377634D01*
X147652453Y-134461126D01*
X148002802Y-134536277D01*
X149189079Y-133350000D01*
X149189079Y-133421842D01*
X148038723Y-134572198D01*
X148072920Y-134731622D01*
X148069145Y-134734145D01*
X147649890Y-135153400D01*
X147272405Y-135153400D01*
X147383268Y-134886413D01*
X147383731Y-134355914D01*
X147181146Y-133865620D01*
X146806353Y-133490173D01*
X146468553Y-133349906D01*
X146804380Y-133211146D01*
X147179827Y-132836353D01*
X147383268Y-132346413D01*
X147383731Y-131815914D01*
X147272452Y-131546600D01*
X147955000Y-131546600D01*
X148236885Y-131490530D01*
X148475855Y-131330855D01*
X148710534Y-131096175D01*
X148898453Y-131174206D01*
X149548694Y-131174774D01*
X150149655Y-130926462D01*
X150609846Y-130467073D01*
X150859206Y-129866547D01*
X150859774Y-129216306D01*
X150611462Y-128615345D01*
X150368141Y-128371600D01*
X151610002Y-128371600D01*
X151787714Y-128549622D01*
X152184332Y-128714313D01*
X152613784Y-128714687D01*
X153010689Y-128550689D01*
X153314622Y-128247286D01*
X153479313Y-127850668D01*
X153479687Y-127421216D01*
X153315689Y-127024311D01*
X153012286Y-126720378D01*
X152615668Y-126555687D01*
X152186216Y-126555313D01*
X151789311Y-126719311D01*
X151609909Y-126898400D01*
X150871946Y-126898400D01*
X150871946Y-122903433D01*
X150636915Y-122294987D01*
X150592200Y-122228067D01*
X150267712Y-122183209D01*
X150231791Y-122219130D01*
X150231791Y-122147288D01*
X150186933Y-121822800D01*
X149590506Y-121558756D01*
X148938433Y-121543054D01*
X148329987Y-121778085D01*
X148263067Y-121822800D01*
X148218209Y-122147288D01*
X149225000Y-123154079D01*
X150231791Y-122147288D01*
X150231791Y-122219130D01*
X149260921Y-123190000D01*
X150267712Y-124196791D01*
X150592200Y-124151933D01*
X150856244Y-123555506D01*
X150871946Y-122903433D01*
X150871946Y-126898400D01*
X150015763Y-126898400D01*
X150398944Y-126515887D01*
X150610329Y-126006816D01*
X150610810Y-125455602D01*
X150400314Y-124946163D01*
X150074295Y-124619574D01*
X150120013Y-124601915D01*
X150186933Y-124557200D01*
X150231791Y-124232712D01*
X149225000Y-123225921D01*
X149189079Y-123261842D01*
X149189079Y-123190000D01*
X148182288Y-122183209D01*
X147857800Y-122228067D01*
X147593756Y-122824494D01*
X147578054Y-123476567D01*
X147813085Y-124085013D01*
X147857800Y-124151933D01*
X148182288Y-124196791D01*
X149189079Y-123190000D01*
X149189079Y-123261842D01*
X148218209Y-124232712D01*
X148263067Y-124557200D01*
X148330379Y-124587000D01*
X147955000Y-124587000D01*
X147517593Y-124674006D01*
X147361805Y-124778099D01*
X147383268Y-124726413D01*
X147383731Y-124195914D01*
X147181146Y-123705620D01*
X146806353Y-123330173D01*
X146805579Y-123329851D01*
X146917271Y-123286644D01*
X146980724Y-123244244D01*
X147019245Y-122925166D01*
X146050000Y-121955921D01*
X145080755Y-122925166D01*
X145119276Y-123244244D01*
X145303390Y-123325643D01*
X145295620Y-123328854D01*
X144920173Y-123703647D01*
X144716732Y-124193587D01*
X144716269Y-124724086D01*
X144918854Y-125214380D01*
X145293647Y-125589827D01*
X145631446Y-125730093D01*
X145324308Y-125857000D01*
X140335000Y-125857000D01*
X140024504Y-125918761D01*
X140024504Y-124181739D01*
X139796644Y-123592729D01*
X139754244Y-123529276D01*
X139435166Y-123490755D01*
X138465921Y-124460000D01*
X139435166Y-125429245D01*
X139754244Y-125390724D01*
X140009615Y-124813110D01*
X140024504Y-124181739D01*
X140024504Y-125918761D01*
X139897593Y-125944006D01*
X139526777Y-126191777D01*
X139519006Y-126203406D01*
X139186353Y-125870173D01*
X139185579Y-125869851D01*
X139297271Y-125826644D01*
X139360724Y-125784244D01*
X139399245Y-125465166D01*
X138430000Y-124495921D01*
X138394079Y-124531842D01*
X138394079Y-124460000D01*
X137424834Y-123490755D01*
X137265192Y-123510027D01*
X137257200Y-123498067D01*
X136932712Y-123453209D01*
X135925921Y-124460000D01*
X136932712Y-125466791D01*
X137257200Y-125421933D01*
X137262632Y-125409663D01*
X137424834Y-125429245D01*
X138394079Y-124460000D01*
X138394079Y-124531842D01*
X137460755Y-125465166D01*
X137499276Y-125784244D01*
X137683390Y-125865643D01*
X137675620Y-125868854D01*
X137300173Y-126243647D01*
X137291970Y-126263400D01*
X136896791Y-126263400D01*
X136896791Y-125502712D01*
X135890000Y-124495921D01*
X135854079Y-124531842D01*
X135854079Y-124460000D01*
X134847288Y-123453209D01*
X134522800Y-123498067D01*
X134258756Y-124094494D01*
X134243054Y-124746567D01*
X134478085Y-125355013D01*
X134522800Y-125421933D01*
X134847288Y-125466791D01*
X135854079Y-124460000D01*
X135854079Y-124531842D01*
X134883209Y-125502712D01*
X134928067Y-125827200D01*
X135524494Y-126091244D01*
X136176567Y-126106946D01*
X136785013Y-125871915D01*
X136851933Y-125827200D01*
X136896791Y-125502712D01*
X136896791Y-126263400D01*
X136525000Y-126263400D01*
X136305179Y-126307124D01*
X136166816Y-126249671D01*
X135615602Y-126249190D01*
X135106163Y-126459686D01*
X134716056Y-126849113D01*
X134695590Y-126898400D01*
X133086791Y-126898400D01*
X133086791Y-123597712D01*
X132080000Y-122590921D01*
X131073209Y-123597712D01*
X131118067Y-123922200D01*
X131714494Y-124186244D01*
X132366567Y-124201946D01*
X132975013Y-123966915D01*
X133041933Y-123922200D01*
X133086791Y-123597712D01*
X133086791Y-126898400D01*
X132096599Y-126898400D01*
X132096750Y-126725602D01*
X131886254Y-126216163D01*
X131496827Y-125826056D01*
X130987756Y-125614671D01*
X130436542Y-125614190D01*
X129927103Y-125824686D01*
X129536996Y-126214113D01*
X129325611Y-126723184D01*
X129325130Y-127274398D01*
X129535626Y-127783837D01*
X129919518Y-128168400D01*
X128039170Y-128168400D01*
X127194788Y-127324018D01*
X127214389Y-127276816D01*
X127214870Y-126725602D01*
X127004374Y-126216163D01*
X126614947Y-125826056D01*
X126105876Y-125614671D01*
X125554662Y-125614190D01*
X125045223Y-125824686D01*
X124655116Y-126214113D01*
X124443731Y-126723184D01*
X124443250Y-127274398D01*
X124653746Y-127783837D01*
X125043173Y-128173944D01*
X125552244Y-128385329D01*
X126103458Y-128385810D01*
X126152780Y-128365430D01*
X127213205Y-129425855D01*
X127452175Y-129585530D01*
X127452176Y-129585530D01*
X127734060Y-129641600D01*
X133037621Y-129641600D01*
X132905687Y-129959332D01*
X132905316Y-130384257D01*
X132836353Y-130315173D01*
X132346413Y-130111732D01*
X131815914Y-130111269D01*
X131325620Y-130313854D01*
X130950173Y-130688647D01*
X130809906Y-131026446D01*
X130671146Y-130690620D01*
X130296353Y-130315173D01*
X129806413Y-130111732D01*
X129275914Y-130111269D01*
X128785620Y-130313854D01*
X128410173Y-130688647D01*
X128401970Y-130708400D01*
X128138492Y-130708400D01*
X128131146Y-130690620D01*
X127756353Y-130315173D01*
X127266413Y-130111732D01*
X126735914Y-130111269D01*
X126245620Y-130313854D01*
X125870173Y-130688647D01*
X125861970Y-130708400D01*
X125598492Y-130708400D01*
X125591146Y-130690620D01*
X125216353Y-130315173D01*
X124726413Y-130111732D01*
X124195914Y-130111269D01*
X123705620Y-130313854D01*
X123330173Y-130688647D01*
X123189906Y-131026446D01*
X123051146Y-130690620D01*
X122676353Y-130315173D01*
X122186413Y-130111732D01*
X121655914Y-130111269D01*
X121194308Y-130302000D01*
X121026946Y-130302000D01*
X121026946Y-128618433D01*
X120791915Y-128009987D01*
X120747200Y-127943067D01*
X120422712Y-127898209D01*
X120386791Y-127934130D01*
X120386791Y-127862288D01*
X120341933Y-127537800D01*
X119745506Y-127273756D01*
X119093433Y-127258054D01*
X118484987Y-127493085D01*
X118418067Y-127537800D01*
X118373209Y-127862288D01*
X119380000Y-128869079D01*
X120386791Y-127862288D01*
X120386791Y-127934130D01*
X119415921Y-128905000D01*
X120422712Y-129911791D01*
X120747200Y-129866933D01*
X121011244Y-129270506D01*
X121026946Y-128618433D01*
X121026946Y-130302000D01*
X120297334Y-130302000D01*
X120341933Y-130272200D01*
X120386791Y-129947712D01*
X119380000Y-128940921D01*
X118373209Y-129947712D01*
X118418067Y-130272200D01*
X118485379Y-130302000D01*
X117564628Y-130302000D01*
X117326561Y-130203145D01*
X117623837Y-130080314D01*
X117950425Y-129754295D01*
X117968085Y-129800013D01*
X118012800Y-129866933D01*
X118337288Y-129911791D01*
X119344079Y-128905000D01*
X118337288Y-127898209D01*
X118012800Y-127943067D01*
X117958951Y-128064701D01*
X117625887Y-127731056D01*
X117116816Y-127519671D01*
X116565602Y-127519190D01*
X116056163Y-127729686D01*
X115666056Y-128119113D01*
X115454671Y-128628184D01*
X115454190Y-129179398D01*
X115664686Y-129688837D01*
X116054113Y-130078944D01*
X116353388Y-130203214D01*
X116085620Y-130313854D01*
X115710173Y-130688647D01*
X115506732Y-131178587D01*
X115506269Y-131709086D01*
X115708854Y-132199380D01*
X116083647Y-132574827D01*
X116573587Y-132778268D01*
X117104086Y-132778731D01*
X117565691Y-132588000D01*
X118655371Y-132588000D01*
X119113587Y-132778268D01*
X119644086Y-132778731D01*
X120105691Y-132588000D01*
X121195371Y-132588000D01*
X121653587Y-132778268D01*
X122184086Y-132778731D01*
X122674380Y-132576146D01*
X123049827Y-132201353D01*
X123190093Y-131863553D01*
X123328854Y-132199380D01*
X123703647Y-132574827D01*
X124193587Y-132778268D01*
X124724086Y-132778731D01*
X125214380Y-132576146D01*
X125589827Y-132201353D01*
X125598029Y-132181600D01*
X125861507Y-132181600D01*
X125868854Y-132199380D01*
X126243647Y-132574827D01*
X126733587Y-132778268D01*
X127264086Y-132778731D01*
X127754380Y-132576146D01*
X128129827Y-132201353D01*
X128138029Y-132181600D01*
X128401507Y-132181600D01*
X128408854Y-132199380D01*
X128783647Y-132574827D01*
X129273587Y-132778268D01*
X129804086Y-132778731D01*
X130294380Y-132576146D01*
X130669827Y-132201353D01*
X130810093Y-131863553D01*
X130948854Y-132199380D01*
X131323647Y-132574827D01*
X131813587Y-132778268D01*
X132344086Y-132778731D01*
X132834380Y-132576146D01*
X133209827Y-132201353D01*
X133413268Y-131711413D01*
X133413731Y-131180914D01*
X133376692Y-131091274D01*
X133769332Y-131254313D01*
X134022823Y-131254533D01*
X134734145Y-131965855D01*
X134973115Y-132125530D01*
X135255000Y-132181600D01*
X137096410Y-132181600D01*
X137096269Y-132344086D01*
X137207547Y-132613400D01*
X137160000Y-132613400D01*
X136878115Y-132669470D01*
X136639145Y-132829145D01*
X134949890Y-134518400D01*
X123190000Y-134518400D01*
X122908115Y-134574470D01*
X122669145Y-134734145D01*
X119664180Y-137739109D01*
X119646413Y-137731732D01*
X119115914Y-137731269D01*
X118625620Y-137933854D01*
X118250173Y-138308647D01*
X118173500Y-138493295D01*
X118173500Y-138240191D01*
X118076827Y-138006802D01*
X117898199Y-137828173D01*
X117664810Y-137731500D01*
X117412191Y-137731500D01*
X116015191Y-137731500D01*
X115781802Y-137828173D01*
X115603173Y-138006801D01*
X115506500Y-138240190D01*
X115506500Y-138492809D01*
X115506500Y-138721790D01*
X114179465Y-140048824D01*
X113991547Y-139970794D01*
X113341306Y-139970226D01*
X112740345Y-140218538D01*
X112280154Y-140677927D01*
X112030794Y-141278453D01*
X112030226Y-141928694D01*
X112278538Y-142529655D01*
X112737927Y-142989846D01*
X113338453Y-143239206D01*
X113988694Y-143239774D01*
X114589655Y-142991462D01*
X115049846Y-142532073D01*
X115299206Y-141931547D01*
X115299774Y-141281306D01*
X115221015Y-141090694D01*
X115943079Y-140368630D01*
X116015190Y-140398500D01*
X116267809Y-140398500D01*
X117664809Y-140398500D01*
X117898198Y-140301827D01*
X118076827Y-140123199D01*
X118173500Y-139889810D01*
X118173500Y-139637191D01*
X118173500Y-139637009D01*
X118248854Y-139819380D01*
X118623647Y-140194827D01*
X119113587Y-140398268D01*
X119644086Y-140398731D01*
X120134380Y-140196146D01*
X120509827Y-139821353D01*
X120650093Y-139483553D01*
X120788854Y-139819380D01*
X121163647Y-140194827D01*
X121653587Y-140398268D01*
X122184086Y-140398731D01*
X122674380Y-140196146D01*
X123049827Y-139821353D01*
X123190093Y-139483553D01*
X123328854Y-139819380D01*
X123485823Y-139976623D01*
X122900345Y-140218538D01*
X122656457Y-140462000D01*
X122555000Y-140462000D01*
X122117593Y-140549006D01*
X121746777Y-140796777D01*
X119240182Y-143303371D01*
X118777152Y-143395474D01*
X118290971Y-143720330D01*
X118110000Y-143991172D01*
X117929029Y-143720330D01*
X117442848Y-143395474D01*
X116869359Y-143281400D01*
X116810641Y-143281400D01*
X116237152Y-143395474D01*
X115750971Y-143720330D01*
X115570000Y-143991172D01*
X115389029Y-143720330D01*
X114902848Y-143395474D01*
X114329359Y-143281400D01*
X114270641Y-143281400D01*
X113697152Y-143395474D01*
X113440974Y-143566646D01*
X113377258Y-143412822D01*
X113127178Y-143162742D01*
X112800433Y-143027400D01*
X112007650Y-143027400D01*
X111785400Y-143249650D01*
X111785400Y-144754600D01*
X111805400Y-144754600D01*
X111805400Y-144805400D01*
X111785400Y-144805400D01*
X111785400Y-146310350D01*
X112007650Y-146532600D01*
X112800433Y-146532600D01*
X113127178Y-146397258D01*
X113377258Y-146147178D01*
X113440974Y-145993353D01*
X113697152Y-146164526D01*
X114270641Y-146278600D01*
X114329359Y-146278600D01*
X114902848Y-146164526D01*
X115389029Y-145839670D01*
X115570000Y-145568827D01*
X115750971Y-145839670D01*
X116237152Y-146164526D01*
X116810641Y-146278600D01*
X116869359Y-146278600D01*
X117442848Y-146164526D01*
X117929029Y-145839670D01*
X118110000Y-145568827D01*
X118290971Y-145839670D01*
X118777152Y-146164526D01*
X119350641Y-146278600D01*
X119409359Y-146278600D01*
X119982848Y-146164526D01*
X120469029Y-145839670D01*
X120793885Y-145353489D01*
X120885987Y-144890458D01*
X121437400Y-144339046D01*
X121437400Y-144532350D01*
X121659650Y-144754600D01*
X123164600Y-144754600D01*
X123164600Y-144734600D01*
X123215400Y-144734600D01*
X123215400Y-144754600D01*
X123235400Y-144754600D01*
X123235400Y-144805400D01*
X123215400Y-144805400D01*
X123215400Y-146310350D01*
X123437650Y-146532600D01*
X124230433Y-146532600D01*
X124557178Y-146397258D01*
X124807258Y-146147178D01*
X124870974Y-145993353D01*
X125127152Y-146164526D01*
X125700641Y-146278600D01*
X125759359Y-146278600D01*
X126332848Y-146164526D01*
X126819029Y-145839670D01*
X127000000Y-145568827D01*
X127180971Y-145839670D01*
X127667152Y-146164526D01*
X128240641Y-146278600D01*
X128299359Y-146278600D01*
X128872848Y-146164526D01*
X129359029Y-145839670D01*
X129540000Y-145568827D01*
X129720971Y-145839670D01*
X130207152Y-146164526D01*
X130780641Y-146278600D01*
X130839359Y-146278600D01*
X131412848Y-146164526D01*
X131774316Y-145923000D01*
X137030353Y-145923000D01*
X136880378Y-146072714D01*
X136715687Y-146469332D01*
X136715313Y-146898784D01*
X136879311Y-147295689D01*
X137030358Y-147447000D01*
X123164600Y-147447000D01*
X123164600Y-146310350D01*
X123164600Y-144805400D01*
X121659650Y-144805400D01*
X121437400Y-145027650D01*
X121437400Y-145466767D01*
X121437400Y-145820433D01*
X121572742Y-146147178D01*
X121822822Y-146397258D01*
X122149567Y-146532600D01*
X122942350Y-146532600D01*
X123164600Y-146310350D01*
X123164600Y-147447000D01*
X112233445Y-147447000D01*
X111319046Y-146532600D01*
X111512350Y-146532600D01*
X111734600Y-146310350D01*
X111734600Y-144805400D01*
X111714600Y-144805400D01*
X111714600Y-144754600D01*
X111734600Y-144754600D01*
X111734600Y-143249650D01*
X111512350Y-143027400D01*
X110719567Y-143027400D01*
X110392822Y-143162742D01*
X110363000Y-143192564D01*
X110363000Y-142875000D01*
X110275994Y-142437593D01*
X110028223Y-142066777D01*
X108123223Y-140161777D01*
X107752407Y-139914006D01*
X107315000Y-139827000D01*
X103378000Y-139827000D01*
X103378000Y-138466249D01*
X103840602Y-138658339D01*
X104436782Y-138658859D01*
X104987780Y-138431192D01*
X105409710Y-138009997D01*
X105410095Y-138009069D01*
X105830003Y-138429710D01*
X106380602Y-138658339D01*
X106976782Y-138658859D01*
X107527780Y-138431192D01*
X107747187Y-138212166D01*
X107818073Y-138383298D01*
X107996701Y-138561927D01*
X108230090Y-138658600D01*
X108482709Y-138658600D01*
X110209909Y-138658600D01*
X110443298Y-138561927D01*
X110621927Y-138383299D01*
X110718600Y-138149910D01*
X110718600Y-137897291D01*
X110718600Y-136626600D01*
X110819890Y-136626600D01*
X110838824Y-136645534D01*
X110760794Y-136833453D01*
X110760226Y-137483694D01*
X111008538Y-138084655D01*
X111467927Y-138544846D01*
X112068453Y-138794206D01*
X112718694Y-138794774D01*
X113319655Y-138546462D01*
X113779846Y-138087073D01*
X114029206Y-137486547D01*
X114029774Y-136836306D01*
X113781462Y-136235345D01*
X113322073Y-135775154D01*
X112721547Y-135525794D01*
X112071306Y-135525226D01*
X111880694Y-135603984D01*
X111645855Y-135369145D01*
X111406885Y-135209470D01*
X111125000Y-135153400D01*
X107950000Y-135153400D01*
X107668115Y-135209470D01*
X107429145Y-135369145D01*
X107090496Y-135707793D01*
X106979398Y-135661661D01*
X106383218Y-135661141D01*
X105832220Y-135888808D01*
X105410290Y-136310003D01*
X105409904Y-136310930D01*
X104989997Y-135890290D01*
X104439398Y-135661661D01*
X103843218Y-135661141D01*
X103378000Y-135853364D01*
X103378000Y-132553446D01*
X104359254Y-131572191D01*
X104416661Y-131572242D01*
X104930303Y-131360010D01*
X104972386Y-131318000D01*
X105847071Y-131318000D01*
X105887630Y-131358629D01*
X106400900Y-131571757D01*
X106956661Y-131572242D01*
X107470303Y-131360010D01*
X107863629Y-130967370D01*
X108076757Y-130454100D01*
X108077242Y-129898339D01*
X107865010Y-129384697D01*
X107472370Y-128991371D01*
X107264487Y-128905050D01*
X107470303Y-128820010D01*
X107863629Y-128427370D01*
X108076757Y-127914100D01*
X108077242Y-127358339D01*
X107971159Y-127101600D01*
X108279890Y-127101600D01*
X108699145Y-127520855D01*
X108938115Y-127680530D01*
X108938116Y-127680530D01*
X109220000Y-127736600D01*
X110930835Y-127736600D01*
X111008538Y-127924655D01*
X111467927Y-128384846D01*
X112068453Y-128634206D01*
X112409100Y-128634503D01*
X112115378Y-128927714D01*
X111950687Y-129324332D01*
X111950313Y-129753784D01*
X112114311Y-130150689D01*
X112417714Y-130454622D01*
X112814332Y-130619313D01*
X113243784Y-130619687D01*
X113640689Y-130455689D01*
X113944622Y-130152286D01*
X114109313Y-129755668D01*
X114109533Y-129502176D01*
X114820855Y-128790855D01*
X114980530Y-128551885D01*
X115036600Y-128270000D01*
X115036600Y-126677378D01*
X115354332Y-126809313D01*
X115783784Y-126809687D01*
X116180689Y-126645689D01*
X116484622Y-126342286D01*
X116649313Y-125945668D01*
X116649533Y-125692176D01*
X118106603Y-124235106D01*
X118248854Y-124579380D01*
X118623647Y-124954827D01*
X119113587Y-125158268D01*
X119644086Y-125158731D01*
X120105691Y-124968000D01*
X125730000Y-124968000D01*
X126167407Y-124880994D01*
X126538223Y-124633223D01*
X128209116Y-122962329D01*
X128364686Y-123338837D01*
X128754113Y-123728944D01*
X129263184Y-123940329D01*
X129814398Y-123940810D01*
X130323837Y-123730314D01*
X130650425Y-123404295D01*
X130668085Y-123450013D01*
X130712800Y-123516933D01*
X131037288Y-123561791D01*
X132044079Y-122555000D01*
X132029936Y-122540857D01*
X132065857Y-122504936D01*
X132080000Y-122519079D01*
X132094142Y-122504936D01*
X132130063Y-122540857D01*
X132115921Y-122555000D01*
X133122712Y-123561791D01*
X133447200Y-123516933D01*
X133711244Y-122920506D01*
X133726946Y-122268433D01*
X133543295Y-121793000D01*
X134146554Y-121793000D01*
X134504228Y-122150674D01*
X134504190Y-122194398D01*
X134714686Y-122703837D01*
X135040704Y-123030425D01*
X134994987Y-123048085D01*
X134928067Y-123092800D01*
X134883209Y-123417288D01*
X135890000Y-124424079D01*
X136896791Y-123417288D01*
X136851933Y-123092800D01*
X136784620Y-123063000D01*
X137641198Y-123063000D01*
X137562729Y-123093356D01*
X137499276Y-123135756D01*
X137460755Y-123454834D01*
X138430000Y-124424079D01*
X139399245Y-123454834D01*
X139360724Y-123135756D01*
X139176609Y-123054356D01*
X139184380Y-123051146D01*
X139559827Y-122676353D01*
X139763268Y-122186413D01*
X139763731Y-121655914D01*
X139561146Y-121165620D01*
X139186353Y-120790173D01*
X138848553Y-120649906D01*
X139184380Y-120511146D01*
X139559827Y-120136353D01*
X139763268Y-119646413D01*
X139763731Y-119115914D01*
X139652452Y-118846600D01*
X142875000Y-118846600D01*
X143156885Y-118790530D01*
X143310028Y-118688202D01*
X143230378Y-118767714D01*
X143065687Y-119164332D01*
X143065313Y-119593784D01*
X143197375Y-119913400D01*
X143029997Y-119913400D01*
X142852286Y-119735378D01*
X142455668Y-119570687D01*
X142026216Y-119570313D01*
X141629311Y-119734311D01*
X141325378Y-120037714D01*
X141160687Y-120434332D01*
X141160313Y-120863784D01*
X141324311Y-121260689D01*
X141627714Y-121564622D01*
X142024332Y-121729313D01*
X142453784Y-121729687D01*
X142850689Y-121565689D01*
X143030090Y-121386600D01*
X144550093Y-121386600D01*
X144470385Y-121566890D01*
X144455496Y-122198261D01*
X144683356Y-122787271D01*
X144725756Y-122850724D01*
X145044834Y-122889245D01*
X146014079Y-121920000D01*
X145999936Y-121905857D01*
X146035857Y-121869936D01*
X146050000Y-121884079D01*
X146064142Y-121869936D01*
X146100063Y-121905857D01*
X146085921Y-121920000D01*
X147055166Y-122889245D01*
X147374244Y-122850724D01*
X147629615Y-122273110D01*
X147644504Y-121641739D01*
X147545802Y-121386600D01*
X147955000Y-121386600D01*
X148236885Y-121330530D01*
X148475855Y-121170855D01*
X148895110Y-120751600D01*
X151261507Y-120751600D01*
X151268854Y-120769380D01*
X151643647Y-121144827D01*
X151981446Y-121285093D01*
X151645620Y-121423854D01*
X151270173Y-121798647D01*
X151066732Y-122288587D01*
X151066269Y-122819086D01*
X151268854Y-123309380D01*
X151643647Y-123684827D01*
X151981446Y-123825093D01*
X151645620Y-123963854D01*
X151270173Y-124338647D01*
X151066732Y-124828587D01*
X151066269Y-125359086D01*
X151268854Y-125849380D01*
X151643647Y-126224827D01*
X152133587Y-126428268D01*
X152664086Y-126428731D01*
X153154380Y-126226146D01*
X153529827Y-125851353D01*
X153733268Y-125361413D01*
X153733731Y-124830914D01*
X153531146Y-124340620D01*
X153156353Y-123965173D01*
X152818553Y-123824906D01*
X153154380Y-123686146D01*
X153529827Y-123311353D01*
X153538029Y-123291600D01*
X154785002Y-123291600D01*
X154962714Y-123469622D01*
X155359332Y-123634313D01*
X155788784Y-123634687D01*
X156185689Y-123470689D01*
X156489622Y-123167286D01*
X156654313Y-122770668D01*
X156654687Y-122341216D01*
X156490689Y-121944311D01*
X156187286Y-121640378D01*
X155790668Y-121475687D01*
X155361216Y-121475313D01*
X154964311Y-121639311D01*
X154784909Y-121818400D01*
X153538492Y-121818400D01*
X153531146Y-121800620D01*
X153156353Y-121425173D01*
X152818553Y-121284906D01*
X153154380Y-121146146D01*
X153529827Y-120771353D01*
X153733268Y-120281413D01*
X153733731Y-119750914D01*
X153531146Y-119260620D01*
X153156353Y-118885173D01*
X152818553Y-118744906D01*
X153154380Y-118606146D01*
X153529827Y-118231353D01*
X153733268Y-117741413D01*
X153733731Y-117210914D01*
X153696692Y-117121274D01*
X154089332Y-117284313D01*
X154518784Y-117284687D01*
X154915689Y-117120689D01*
X155219622Y-116817286D01*
X155384313Y-116420668D01*
X155384687Y-115991216D01*
X155220689Y-115594311D01*
X154917286Y-115290378D01*
X154520668Y-115125687D01*
X154091216Y-115125313D01*
X153697278Y-115288084D01*
X153733268Y-115201413D01*
X153733731Y-114670914D01*
X153531146Y-114180620D01*
X153156353Y-113805173D01*
X152818553Y-113664906D01*
X153154380Y-113526146D01*
X153529827Y-113151353D01*
X153733268Y-112661413D01*
X153733731Y-112130914D01*
X153531146Y-111640620D01*
X153156353Y-111265173D01*
X152818553Y-111124906D01*
X153154380Y-110986146D01*
X153529827Y-110611353D01*
X153733268Y-110121413D01*
X153733731Y-109590914D01*
X153531146Y-109100620D01*
X153156353Y-108725173D01*
X152971704Y-108648500D01*
X153224809Y-108648500D01*
X153458198Y-108551827D01*
X153636827Y-108373199D01*
X153733500Y-108139810D01*
X153733500Y-107887191D01*
X153733500Y-106490191D01*
X153636827Y-106256802D01*
X153458199Y-106078173D01*
X153224810Y-105981500D01*
X152972191Y-105981500D01*
X151575191Y-105981500D01*
X151341802Y-106078173D01*
X151163173Y-106256801D01*
X151066500Y-106490190D01*
X151066500Y-106742809D01*
X151066500Y-108139809D01*
X151163173Y-108373198D01*
X151341801Y-108551827D01*
X151575190Y-108648500D01*
X151827809Y-108648500D01*
X151827990Y-108648500D01*
X151645620Y-108723854D01*
X151270173Y-109098647D01*
X151066732Y-109588587D01*
X151066269Y-110119086D01*
X151268854Y-110609380D01*
X151643647Y-110984827D01*
X151981446Y-111125093D01*
X151645620Y-111263854D01*
X151270173Y-111638647D01*
X151066732Y-112128587D01*
X151066269Y-112659086D01*
X151268854Y-113149380D01*
X151643647Y-113524827D01*
X151981446Y-113665093D01*
X151645620Y-113803854D01*
X151270173Y-114178647D01*
X151066732Y-114668587D01*
X151066269Y-115199086D01*
X151177547Y-115468400D01*
X149225000Y-115468400D01*
X148895110Y-115468400D01*
X148475855Y-115049145D01*
X148236885Y-114889470D01*
X147955000Y-114833400D01*
X147272405Y-114833400D01*
X147383268Y-114566413D01*
X147383731Y-114035914D01*
X147181146Y-113545620D01*
X146806353Y-113170173D01*
X146468553Y-113029906D01*
X146804380Y-112891146D01*
X147179827Y-112516353D01*
X147383268Y-112026413D01*
X147383731Y-111495914D01*
X147181146Y-111005620D01*
X146806353Y-110630173D01*
X146468553Y-110489906D01*
X146804380Y-110351146D01*
X147179827Y-109976353D01*
X147383268Y-109486413D01*
X147383731Y-108955914D01*
X147181146Y-108465620D01*
X146806353Y-108090173D01*
X146468553Y-107949906D01*
X146804380Y-107811146D01*
X147179827Y-107436353D01*
X147383268Y-106946413D01*
X147383731Y-106415914D01*
X147181146Y-105925620D01*
X146806353Y-105550173D01*
X146316413Y-105346732D01*
X145785914Y-105346269D01*
X145295620Y-105548854D01*
X144920173Y-105923647D01*
X144716732Y-106413587D01*
X144716269Y-106944086D01*
X144918854Y-107434380D01*
X145293647Y-107809827D01*
X145631446Y-107950093D01*
X145295620Y-108088854D01*
X144920173Y-108463647D01*
X144716732Y-108953587D01*
X144716269Y-109484086D01*
X144918854Y-109974380D01*
X145293647Y-110349827D01*
X145631446Y-110490093D01*
X145295620Y-110628854D01*
X144920173Y-111003647D01*
X144716732Y-111493587D01*
X144716269Y-112024086D01*
X144918854Y-112514380D01*
X145293647Y-112889827D01*
X145631446Y-113030093D01*
X145295620Y-113168854D01*
X144920173Y-113543647D01*
X144716732Y-114033587D01*
X144716269Y-114564086D01*
X144911813Y-115037339D01*
X144894145Y-115049145D01*
X142569890Y-117373400D01*
X139652405Y-117373400D01*
X139763268Y-117106413D01*
X139763731Y-116575914D01*
X139561146Y-116085620D01*
X139186353Y-115710173D01*
X138848553Y-115569906D01*
X139184380Y-115431146D01*
X139559827Y-115056353D01*
X139763268Y-114566413D01*
X139763666Y-114109556D01*
X139913784Y-114109687D01*
X140310689Y-113945689D01*
X140614622Y-113642286D01*
X140779313Y-113245668D01*
X140779687Y-112816216D01*
X140615689Y-112419311D01*
X140312286Y-112115378D01*
X139915668Y-111950687D01*
X139763334Y-111950554D01*
X139763731Y-111495914D01*
X139561146Y-111005620D01*
X139186353Y-110630173D01*
X138848553Y-110489906D01*
X139184380Y-110351146D01*
X139559827Y-109976353D01*
X139763268Y-109486413D01*
X139763731Y-108955914D01*
X139561146Y-108465620D01*
X139186353Y-108090173D01*
X139001704Y-108013500D01*
X139254809Y-108013500D01*
X139488198Y-107916827D01*
X139666827Y-107738199D01*
X139763500Y-107504810D01*
X139763500Y-107252191D01*
X139763500Y-106388210D01*
X141910110Y-104241600D01*
X144271690Y-104241600D01*
X142912757Y-105600532D01*
X142661216Y-105600313D01*
X142264311Y-105764311D01*
X141960378Y-106067714D01*
X141795687Y-106464332D01*
X141795313Y-106893784D01*
X141959311Y-107290689D01*
X142262714Y-107594622D01*
X142659332Y-107759313D01*
X143088784Y-107759687D01*
X143485689Y-107595689D01*
X143789622Y-107292286D01*
X143954313Y-106895668D01*
X143954533Y-106642176D01*
X145720110Y-104876600D01*
X148912621Y-104876600D01*
X148780687Y-105194332D01*
X148780313Y-105623784D01*
X148944311Y-106020689D01*
X149247714Y-106324622D01*
X149644332Y-106489313D01*
X150073784Y-106489687D01*
X150470689Y-106325689D01*
X150774622Y-106022286D01*
X150939313Y-105625668D01*
X150939412Y-105511600D01*
X160655000Y-105511600D01*
X160936885Y-105455530D01*
X161175855Y-105295855D01*
X161861500Y-104610210D01*
X161861500Y-105066790D01*
X160752868Y-106175421D01*
X160286413Y-105981732D01*
X159755914Y-105981269D01*
X159265620Y-106183854D01*
X158890173Y-106558647D01*
X158686732Y-107048587D01*
X158686269Y-107579086D01*
X158888854Y-108069380D01*
X159263647Y-108444827D01*
X159601446Y-108585093D01*
X159265620Y-108723854D01*
X158890173Y-109098647D01*
X158686732Y-109588587D01*
X158686269Y-110119086D01*
X158888854Y-110609380D01*
X159263647Y-110984827D01*
X159601446Y-111125093D01*
X159265620Y-111263854D01*
X158890173Y-111638647D01*
X158686732Y-112128587D01*
X158686269Y-112659086D01*
X158888854Y-113149380D01*
X159263647Y-113524827D01*
X159601446Y-113665093D01*
X159265620Y-113803854D01*
X158890173Y-114178647D01*
X158686732Y-114668587D01*
X158686269Y-115199086D01*
X158888854Y-115689380D01*
X159263647Y-116064827D01*
X159601446Y-116205093D01*
X159265620Y-116343854D01*
X158890173Y-116718647D01*
X158686732Y-117208587D01*
X158686269Y-117739086D01*
X158888854Y-118229380D01*
X159263647Y-118604827D01*
X159601446Y-118745093D01*
X159265620Y-118883854D01*
X158890173Y-119258647D01*
X158686732Y-119748587D01*
X158686355Y-120179645D01*
X157581600Y-119074890D01*
X157581600Y-108585000D01*
X157525530Y-108303115D01*
X157365855Y-108064145D01*
X156654467Y-107352757D01*
X156654687Y-107101216D01*
X156490689Y-106704311D01*
X156187286Y-106400378D01*
X155790668Y-106235687D01*
X155361216Y-106235313D01*
X154964311Y-106399311D01*
X154660378Y-106702714D01*
X154495687Y-107099332D01*
X154495313Y-107528784D01*
X154659311Y-107925689D01*
X154962714Y-108229622D01*
X155359332Y-108394313D01*
X155612823Y-108394533D01*
X156108400Y-108890110D01*
X156108400Y-119380000D01*
X156164470Y-119661885D01*
X156324145Y-119900855D01*
X158694109Y-122270819D01*
X158686732Y-122288587D01*
X158686269Y-122819086D01*
X158888854Y-123309380D01*
X159263647Y-123684827D01*
X159601446Y-123825093D01*
X159265620Y-123963854D01*
X158890173Y-124338647D01*
X158686732Y-124828587D01*
X158686269Y-125359086D01*
X158888854Y-125849380D01*
X159263647Y-126224827D01*
X159753587Y-126428268D01*
X160284086Y-126428731D01*
X160774380Y-126226146D01*
X161149827Y-125851353D01*
X161353268Y-125361413D01*
X161353731Y-124830914D01*
X161151146Y-124340620D01*
X160776353Y-123965173D01*
X160438553Y-123824906D01*
X160774380Y-123686146D01*
X161149827Y-123311353D01*
X161353268Y-122821413D01*
X161353731Y-122290914D01*
X161151146Y-121800620D01*
X160776353Y-121425173D01*
X160438553Y-121284906D01*
X160774380Y-121146146D01*
X161149827Y-120771353D01*
X161353268Y-120281413D01*
X161353731Y-119750914D01*
X161151146Y-119260620D01*
X160776353Y-118885173D01*
X160438553Y-118744906D01*
X160774380Y-118606146D01*
X161149827Y-118231353D01*
X161353268Y-117741413D01*
X161353731Y-117210914D01*
X161151146Y-116720620D01*
X160776353Y-116345173D01*
X160438553Y-116204906D01*
X160774380Y-116066146D01*
X161149827Y-115691353D01*
X161353268Y-115201413D01*
X161353731Y-114670914D01*
X161151146Y-114180620D01*
X160776353Y-113805173D01*
X160438553Y-113664906D01*
X160774380Y-113526146D01*
X161149827Y-113151353D01*
X161353268Y-112661413D01*
X161353731Y-112130914D01*
X161151146Y-111640620D01*
X160776353Y-111265173D01*
X160438553Y-111124906D01*
X160774380Y-110986146D01*
X161149827Y-110611353D01*
X161158029Y-110591600D01*
X162056507Y-110591600D01*
X162063854Y-110609380D01*
X162438647Y-110984827D01*
X162439420Y-110985148D01*
X162327729Y-111028356D01*
X162264276Y-111070756D01*
X162225755Y-111389834D01*
X163195000Y-112359079D01*
X164164245Y-111389834D01*
X164125724Y-111070756D01*
X163941609Y-110989356D01*
X163949380Y-110986146D01*
X164324827Y-110611353D01*
X164528268Y-110121413D01*
X164528731Y-109590914D01*
X164326146Y-109100620D01*
X163951353Y-108725173D01*
X163950579Y-108724851D01*
X164062271Y-108681644D01*
X164125724Y-108639244D01*
X164164245Y-108320166D01*
X163195000Y-107350921D01*
X162225755Y-108320166D01*
X162264276Y-108639244D01*
X162448390Y-108720643D01*
X162440620Y-108723854D01*
X162065173Y-109098647D01*
X162056970Y-109118400D01*
X161158492Y-109118400D01*
X161151146Y-109100620D01*
X160776353Y-108725173D01*
X160438553Y-108584906D01*
X160774380Y-108446146D01*
X161149827Y-108071353D01*
X161298570Y-107713139D01*
X161604892Y-107406817D01*
X161600496Y-107593261D01*
X161828356Y-108182271D01*
X161870756Y-108245724D01*
X162189834Y-108284245D01*
X163159079Y-107315000D01*
X163144936Y-107300857D01*
X163180857Y-107264936D01*
X163195000Y-107279079D01*
X164164245Y-106309834D01*
X164134217Y-106061110D01*
X164253198Y-106011827D01*
X164431827Y-105833199D01*
X164528500Y-105599810D01*
X164528500Y-105347191D01*
X164528500Y-103950191D01*
X164431827Y-103716802D01*
X164253199Y-103538173D01*
X164019810Y-103441500D01*
X163767191Y-103441500D01*
X163030210Y-103441500D01*
X164135110Y-102336600D01*
X167191954Y-102336600D01*
G36*
X199263000Y-108458000D02*
X198912318Y-108458000D01*
X198912318Y-104354633D01*
X198367539Y-102906579D01*
X198222770Y-102689917D01*
X197664558Y-102371363D01*
X197628637Y-102407284D01*
X197628637Y-102335442D01*
X197310083Y-101777230D01*
X195900937Y-101138518D01*
X194354633Y-101087682D01*
X192906579Y-101632461D01*
X192689917Y-101777230D01*
X192371363Y-102335442D01*
X195000000Y-104964079D01*
X197628637Y-102335442D01*
X197628637Y-102407284D01*
X195035921Y-105000000D01*
X197664558Y-107628637D01*
X198222770Y-107310083D01*
X198861482Y-105900937D01*
X198912318Y-104354633D01*
X198912318Y-108458000D01*
X196852970Y-108458000D01*
X197093421Y-108367539D01*
X197310083Y-108222770D01*
X197628637Y-107664558D01*
X195000000Y-105035921D01*
X194964079Y-105071842D01*
X194964079Y-105000000D01*
X192335442Y-102371363D01*
X191777230Y-102689917D01*
X191138518Y-104099063D01*
X191087682Y-105645367D01*
X191632461Y-107093421D01*
X191777230Y-107310083D01*
X192335442Y-107628637D01*
X194964079Y-105000000D01*
X194964079Y-105071842D01*
X192371363Y-107664558D01*
X192689917Y-108222770D01*
X193208888Y-108458000D01*
X187078457Y-108458000D01*
X187078457Y-106391609D01*
X186841852Y-105778898D01*
X186796629Y-105711216D01*
X186470954Y-105664967D01*
X185455921Y-106680000D01*
X186470954Y-107695033D01*
X186796629Y-107648784D01*
X187062577Y-107048226D01*
X187078457Y-106391609D01*
X187078457Y-108458000D01*
X186435033Y-108458000D01*
X186435033Y-107730954D01*
X185420000Y-106715921D01*
X184404967Y-107730954D01*
X184451216Y-108056629D01*
X185051774Y-108322577D01*
X185708391Y-108338457D01*
X186321102Y-108101852D01*
X186388784Y-108056629D01*
X186435033Y-107730954D01*
X186435033Y-108458000D01*
X171540691Y-108458000D01*
X171569380Y-108446146D01*
X171944827Y-108071353D01*
X172148268Y-107581413D01*
X172148731Y-107050914D01*
X171946146Y-106560620D01*
X171571353Y-106185173D01*
X171233553Y-106044906D01*
X171569380Y-105906146D01*
X171944827Y-105531353D01*
X172148268Y-105041413D01*
X172148731Y-104510914D01*
X171946146Y-104020620D01*
X171938539Y-104013000D01*
X173516554Y-104013000D01*
X176402808Y-106899254D01*
X176402758Y-106956661D01*
X176614990Y-107470303D01*
X177007630Y-107863629D01*
X177520900Y-108076757D01*
X178076661Y-108077242D01*
X178590303Y-107865010D01*
X178983629Y-107472370D01*
X179069949Y-107264487D01*
X179154990Y-107470303D01*
X179547630Y-107863629D01*
X180060900Y-108076757D01*
X180616661Y-108077242D01*
X181130303Y-107865010D01*
X181523629Y-107472370D01*
X181609949Y-107264487D01*
X181694990Y-107470303D01*
X182087630Y-107863629D01*
X182600900Y-108076757D01*
X183156661Y-108077242D01*
X183670303Y-107865010D01*
X183986061Y-107549802D01*
X183998148Y-107581102D01*
X184043371Y-107648784D01*
X184369046Y-107695033D01*
X185384079Y-106680000D01*
X184369046Y-105664967D01*
X184043371Y-105711216D01*
X183995270Y-105819835D01*
X183672370Y-105496371D01*
X183464487Y-105410050D01*
X183670303Y-105325010D01*
X184023000Y-104972928D01*
X184023000Y-105028309D01*
X184119673Y-105261698D01*
X184298301Y-105440327D01*
X184424352Y-105492539D01*
X184404967Y-105629046D01*
X185420000Y-106644079D01*
X186435033Y-105629046D01*
X186415647Y-105492538D01*
X186541698Y-105440327D01*
X186720327Y-105261699D01*
X186817000Y-105028310D01*
X186817000Y-104775691D01*
X186817000Y-103251691D01*
X186720327Y-103018302D01*
X186541699Y-102839673D01*
X186308310Y-102743000D01*
X186156600Y-102743000D01*
X186156600Y-102235000D01*
X186100530Y-101953115D01*
X185940855Y-101714145D01*
X184911710Y-100685000D01*
X199263000Y-100685000D01*
X199263000Y-108458000D01*
X199263000Y-108458000D01*
G37*
X199263000Y-108458000D02*
X198912318Y-108458000D01*
X198912318Y-104354633D01*
X198367539Y-102906579D01*
X198222770Y-102689917D01*
X197664558Y-102371363D01*
X197628637Y-102407284D01*
X197628637Y-102335442D01*
X197310083Y-101777230D01*
X195900937Y-101138518D01*
X194354633Y-101087682D01*
X192906579Y-101632461D01*
X192689917Y-101777230D01*
X192371363Y-102335442D01*
X195000000Y-104964079D01*
X197628637Y-102335442D01*
X197628637Y-102407284D01*
X195035921Y-105000000D01*
X197664558Y-107628637D01*
X198222770Y-107310083D01*
X198861482Y-105900937D01*
X198912318Y-104354633D01*
X198912318Y-108458000D01*
X196852970Y-108458000D01*
X197093421Y-108367539D01*
X197310083Y-108222770D01*
X197628637Y-107664558D01*
X195000000Y-105035921D01*
X194964079Y-105071842D01*
X194964079Y-105000000D01*
X192335442Y-102371363D01*
X191777230Y-102689917D01*
X191138518Y-104099063D01*
X191087682Y-105645367D01*
X191632461Y-107093421D01*
X191777230Y-107310083D01*
X192335442Y-107628637D01*
X194964079Y-105000000D01*
X194964079Y-105071842D01*
X192371363Y-107664558D01*
X192689917Y-108222770D01*
X193208888Y-108458000D01*
X187078457Y-108458000D01*
X187078457Y-106391609D01*
X186841852Y-105778898D01*
X186796629Y-105711216D01*
X186470954Y-105664967D01*
X185455921Y-106680000D01*
X186470954Y-107695033D01*
X186796629Y-107648784D01*
X187062577Y-107048226D01*
X187078457Y-106391609D01*
X187078457Y-108458000D01*
X186435033Y-108458000D01*
X186435033Y-107730954D01*
X185420000Y-106715921D01*
X184404967Y-107730954D01*
X184451216Y-108056629D01*
X185051774Y-108322577D01*
X185708391Y-108338457D01*
X186321102Y-108101852D01*
X186388784Y-108056629D01*
X186435033Y-107730954D01*
X186435033Y-108458000D01*
X171540691Y-108458000D01*
X171569380Y-108446146D01*
X171944827Y-108071353D01*
X172148268Y-107581413D01*
X172148731Y-107050914D01*
X171946146Y-106560620D01*
X171571353Y-106185173D01*
X171233553Y-106044906D01*
X171569380Y-105906146D01*
X171944827Y-105531353D01*
X172148268Y-105041413D01*
X172148731Y-104510914D01*
X171946146Y-104020620D01*
X171938539Y-104013000D01*
X173516554Y-104013000D01*
X176402808Y-106899254D01*
X176402758Y-106956661D01*
X176614990Y-107470303D01*
X177007630Y-107863629D01*
X177520900Y-108076757D01*
X178076661Y-108077242D01*
X178590303Y-107865010D01*
X178983629Y-107472370D01*
X179069949Y-107264487D01*
X179154990Y-107470303D01*
X179547630Y-107863629D01*
X180060900Y-108076757D01*
X180616661Y-108077242D01*
X181130303Y-107865010D01*
X181523629Y-107472370D01*
X181609949Y-107264487D01*
X181694990Y-107470303D01*
X182087630Y-107863629D01*
X182600900Y-108076757D01*
X183156661Y-108077242D01*
X183670303Y-107865010D01*
X183986061Y-107549802D01*
X183998148Y-107581102D01*
X184043371Y-107648784D01*
X184369046Y-107695033D01*
X185384079Y-106680000D01*
X184369046Y-105664967D01*
X184043371Y-105711216D01*
X183995270Y-105819835D01*
X183672370Y-105496371D01*
X183464487Y-105410050D01*
X183670303Y-105325010D01*
X184023000Y-104972928D01*
X184023000Y-105028309D01*
X184119673Y-105261698D01*
X184298301Y-105440327D01*
X184424352Y-105492539D01*
X184404967Y-105629046D01*
X185420000Y-106644079D01*
X186435033Y-105629046D01*
X186415647Y-105492538D01*
X186541698Y-105440327D01*
X186720327Y-105261699D01*
X186817000Y-105028310D01*
X186817000Y-104775691D01*
X186817000Y-103251691D01*
X186720327Y-103018302D01*
X186541699Y-102839673D01*
X186308310Y-102743000D01*
X186156600Y-102743000D01*
X186156600Y-102235000D01*
X186100530Y-101953115D01*
X185940855Y-101714145D01*
X184911710Y-100685000D01*
X199263000Y-100685000D01*
X199263000Y-108458000D01*
M02*
