%FSLAX46Y46*%
G04 Gerber Fmt 4.6, Leading zero omitted, Abs format (unit mm)*
G04 Created by KiCad (PCBNEW (2014-jul-16 BZR unknown)-product) date Fri 03 Oct 2014 04:25:25 PM PDT*
%MOMM*%
G01*
G04 APERTURE LIST*
%ADD10C,0.100000*%
%ADD11C,1.501140*%
%ADD12C,1.998980*%
%ADD13R,1.998980X1.998980*%
%ADD14C,6.000000*%
%ADD15R,1.727200X1.727200*%
%ADD16C,1.727200*%
%ADD17R,1.524000X1.524000*%
%ADD18C,1.524000*%
%ADD19O,1.727200X1.727200*%
%ADD20O,1.699260X3.500120*%
%ADD21R,9.652000X15.748000*%
%ADD22R,1.397000X1.397000*%
%ADD23C,1.397000*%
%ADD24O,3.500120X1.699260*%
%ADD25R,15.748000X9.652000*%
%ADD26C,0.889000*%
%ADD27C,0.203200*%
%ADD28C,1.016000*%
%ADD29C,0.254000*%
G04 APERTURE END LIST*
D10*
D11*
X182245000Y-146685000D03*
X184785000Y-146685000D03*
X181610000Y-143510000D03*
X181610000Y-140970000D03*
X189865000Y-146685000D03*
X187325000Y-146685000D03*
X194945000Y-122555000D03*
X194945000Y-125095000D03*
X135890000Y-127635000D03*
X135890000Y-130175000D03*
X109855000Y-103505000D03*
X109855000Y-106045000D03*
X129540000Y-122555000D03*
X132080000Y-122555000D03*
X112395000Y-111760000D03*
X114935000Y-111760000D03*
X109220000Y-111760000D03*
X109220000Y-109220000D03*
X126365000Y-120650000D03*
X123825000Y-120650000D03*
X135890000Y-121920000D03*
X135890000Y-124460000D03*
X149225000Y-125730000D03*
X149225000Y-123190000D03*
X116840000Y-128905000D03*
X119380000Y-128905000D03*
X128905000Y-141605000D03*
X131445000Y-141605000D03*
D12*
X132080000Y-117475000D03*
D13*
X121920000Y-117475000D03*
D14*
X105000000Y-105000000D03*
X195000000Y-105000000D03*
X105000000Y-145000000D03*
X195000000Y-145000000D03*
D15*
X194945000Y-133985000D03*
D16*
X194945000Y-131445000D03*
X194945000Y-128905000D03*
D15*
X109220000Y-137160000D03*
D16*
X106680000Y-137160000D03*
X104140000Y-137160000D03*
D17*
X104140000Y-120015000D03*
D18*
X106680000Y-120015000D03*
X104140000Y-122555000D03*
X106680000Y-122555000D03*
X104140000Y-125095000D03*
X106680000Y-125095000D03*
X104140000Y-127635000D03*
X106680000Y-127635000D03*
X104140000Y-130175000D03*
X106680000Y-130175000D03*
D15*
X135255000Y-102235000D03*
D16*
X137795000Y-102235000D03*
X140335000Y-102235000D03*
X142875000Y-102235000D03*
X145415000Y-102235000D03*
X147955000Y-102235000D03*
D17*
X185420000Y-104140000D03*
D18*
X185420000Y-106680000D03*
X182880000Y-104140000D03*
X182880000Y-106680000D03*
X180340000Y-104140000D03*
X180340000Y-106680000D03*
X177800000Y-104140000D03*
X177800000Y-106680000D03*
D17*
X166370000Y-146050000D03*
D18*
X166370000Y-143510000D03*
X168910000Y-146050000D03*
X168910000Y-143510000D03*
X171450000Y-146050000D03*
X171450000Y-143510000D03*
X173990000Y-146050000D03*
X173990000Y-143510000D03*
D15*
X123190000Y-144780000D03*
D19*
X125730000Y-144780000D03*
X128270000Y-144780000D03*
X130810000Y-144780000D03*
D15*
X111760000Y-144780000D03*
D19*
X114300000Y-144780000D03*
X116840000Y-144780000D03*
X119380000Y-144780000D03*
D12*
X180340000Y-127000000D03*
X180340000Y-137160000D03*
X128270000Y-113030000D03*
X118110000Y-113030000D03*
X159385000Y-129540000D03*
X149225000Y-129540000D03*
X149225000Y-133350000D03*
X159385000Y-133350000D03*
X159385000Y-137160000D03*
X149225000Y-137160000D03*
X113665000Y-141605000D03*
X123825000Y-141605000D03*
X112395000Y-127000000D03*
X112395000Y-137160000D03*
X159385000Y-140970000D03*
X149225000Y-140970000D03*
X135255000Y-117475000D03*
X135255000Y-107315000D03*
D13*
X159461200Y-102235000D03*
D12*
X152958800Y-102235000D03*
D20*
X187325000Y-142240000D03*
X184785000Y-142240000D03*
X189865000Y-142240000D03*
D21*
X187325000Y-130302000D03*
D22*
X163195000Y-104775000D03*
D23*
X163195000Y-107315000D03*
X163195000Y-109855000D03*
X163195000Y-112395000D03*
X170815000Y-112395000D03*
X170815000Y-109855000D03*
X170815000Y-107315000D03*
X170815000Y-104775000D03*
D22*
X163195000Y-116840000D03*
D23*
X163195000Y-119380000D03*
X163195000Y-121920000D03*
X163195000Y-124460000D03*
X170815000Y-124460000D03*
X170815000Y-121920000D03*
X170815000Y-119380000D03*
X170815000Y-116840000D03*
D22*
X163195000Y-128905000D03*
D23*
X163195000Y-131445000D03*
X163195000Y-133985000D03*
X163195000Y-136525000D03*
X170815000Y-136525000D03*
X170815000Y-133985000D03*
X170815000Y-131445000D03*
X170815000Y-128905000D03*
D22*
X177165000Y-119380000D03*
D23*
X179705000Y-119380000D03*
X182245000Y-119380000D03*
X184785000Y-119380000D03*
X187325000Y-119380000D03*
X189865000Y-119380000D03*
X192405000Y-119380000D03*
X194945000Y-119380000D03*
X194945000Y-111760000D03*
X192405000Y-111760000D03*
X189865000Y-111760000D03*
X187325000Y-111760000D03*
X184785000Y-111760000D03*
X182245000Y-111760000D03*
X179705000Y-111760000D03*
X177165000Y-111760000D03*
D24*
X113030000Y-106045000D03*
X113030000Y-103505000D03*
X113030000Y-108585000D03*
D25*
X124968000Y-106045000D03*
D22*
X116840000Y-139065000D03*
D23*
X119380000Y-139065000D03*
X121920000Y-139065000D03*
X124460000Y-139065000D03*
X127000000Y-139065000D03*
X129540000Y-139065000D03*
X132080000Y-139065000D03*
X132080000Y-131445000D03*
X129540000Y-131445000D03*
X127000000Y-131445000D03*
X124460000Y-131445000D03*
X121920000Y-131445000D03*
X119380000Y-131445000D03*
X116840000Y-131445000D03*
D22*
X111760000Y-116205000D03*
D23*
X111760000Y-118745000D03*
X111760000Y-121285000D03*
X111760000Y-123825000D03*
X119380000Y-123825000D03*
X119380000Y-121285000D03*
X119380000Y-118745000D03*
X119380000Y-116205000D03*
X138430000Y-109220000D03*
X138430000Y-111760000D03*
X138430000Y-114300000D03*
X138430000Y-116840000D03*
X138430000Y-119380000D03*
X138430000Y-121920000D03*
X138430000Y-124460000D03*
X138430000Y-127000000D03*
X138430000Y-129540000D03*
X138430000Y-132080000D03*
X138430000Y-134620000D03*
X138430000Y-137160000D03*
X138430000Y-139700000D03*
D22*
X138430000Y-106680000D03*
D23*
X146050000Y-139700000D03*
X146050000Y-137160000D03*
X146050000Y-134620000D03*
X146050000Y-132080000D03*
X146050000Y-129540000D03*
X146050000Y-127000000D03*
X146050000Y-124460000D03*
X146050000Y-121920000D03*
X146050000Y-119380000D03*
X146050000Y-116840000D03*
X146050000Y-114300000D03*
X146050000Y-111760000D03*
X146050000Y-109220000D03*
X146050000Y-106680000D03*
D11*
X130710940Y-127000000D03*
X125829060Y-127000000D03*
D15*
X173990000Y-137795000D03*
D16*
X173990000Y-135255000D03*
X173990000Y-132715000D03*
X173990000Y-130175000D03*
X173990000Y-127635000D03*
X173990000Y-125095000D03*
X173990000Y-122555000D03*
D15*
X144780000Y-146685000D03*
D19*
X144780000Y-144145000D03*
X147320000Y-146685000D03*
X147320000Y-144145000D03*
X149860000Y-146685000D03*
X149860000Y-144145000D03*
D18*
X156845000Y-146050000D03*
X159385000Y-146050000D03*
D22*
X152400000Y-107315000D03*
D23*
X152400000Y-109855000D03*
X152400000Y-112395000D03*
X152400000Y-114935000D03*
X152400000Y-117475000D03*
X152400000Y-120015000D03*
X152400000Y-122555000D03*
X152400000Y-125095000D03*
X160020000Y-125095000D03*
X160020000Y-122555000D03*
X160020000Y-120015000D03*
X160020000Y-117475000D03*
X160020000Y-114935000D03*
X160020000Y-112395000D03*
X160020000Y-109855000D03*
X160020000Y-107315000D03*
D26*
X137795000Y-146685000D03*
X139700000Y-113030000D03*
X113030000Y-129540000D03*
X117475000Y-122555000D03*
X117475000Y-120015000D03*
X115570000Y-125730000D03*
X136525000Y-143510000D03*
X137795000Y-143510000D03*
X142240000Y-120650000D03*
X144145000Y-119380000D03*
X140335000Y-132080000D03*
X152400000Y-127635000D03*
X142240000Y-129540000D03*
X142875000Y-106680000D03*
X149860000Y-105410000D03*
X154305000Y-116205000D03*
X154940000Y-102235000D03*
X140970000Y-134620000D03*
X132080000Y-113030000D03*
X133985000Y-130175000D03*
X132080000Y-111760000D03*
X191770000Y-114935000D03*
X178435000Y-114935000D03*
X171450000Y-114300000D03*
X140335000Y-127000000D03*
X133350000Y-115570000D03*
X128294341Y-117499341D03*
X155575000Y-122555000D03*
X155575000Y-107315000D03*
D27*
X134620000Y-135255000D02*
X137160000Y-132715000D01*
X138430000Y-114300000D02*
X137160000Y-115570000D01*
X137160000Y-115570000D02*
X137160000Y-132715000D01*
X134620000Y-135255000D02*
X134620000Y-143510000D01*
X137795000Y-146685000D02*
X134620000Y-143510000D01*
X139700000Y-115570000D02*
X139700000Y-113030000D01*
X138430000Y-116840000D02*
X139700000Y-115570000D01*
X113030000Y-129540000D02*
X114300000Y-130810000D01*
X114300000Y-130810000D02*
X114300000Y-135255000D01*
X114300000Y-144780000D02*
X115570000Y-143510000D01*
X115570000Y-143510000D02*
X115570000Y-136525000D01*
X115570000Y-136525000D02*
X114300000Y-135255000D01*
X117475000Y-120015000D02*
X117475000Y-122555000D01*
X116840000Y-144780000D02*
X118110000Y-143510000D01*
X118110000Y-143510000D02*
X118110000Y-135255000D01*
X118110000Y-135255000D02*
X115570000Y-132715000D01*
X115570000Y-132715000D02*
X115570000Y-125730000D01*
X135255000Y-142240000D02*
X135255000Y-135255000D01*
X135255000Y-135255000D02*
X138430000Y-132080000D01*
X136525000Y-143510000D02*
X135255000Y-142240000D01*
X135890000Y-141605000D02*
X135890000Y-137160000D01*
X137795000Y-143510000D02*
X135890000Y-141605000D01*
X135890000Y-137160000D02*
X138430000Y-134620000D01*
X142240000Y-127635000D02*
X142240000Y-120650000D01*
X142240000Y-135890000D02*
X142240000Y-131445000D01*
X138430000Y-139700000D02*
X142240000Y-135890000D01*
X140970000Y-130175000D02*
X140970000Y-128905000D01*
X140970000Y-128905000D02*
X142240000Y-127635000D01*
X142240000Y-131445000D02*
X140970000Y-130175000D01*
X145415000Y-139700000D02*
X146050000Y-139700000D01*
X143510000Y-137795000D02*
X145415000Y-139700000D01*
X143510000Y-120015000D02*
X144145000Y-119380000D01*
X143510000Y-137795000D02*
X143510000Y-120015000D01*
X144145000Y-135255000D02*
X144145000Y-121920000D01*
X144145000Y-121920000D02*
X145415000Y-120650000D01*
X145415000Y-120650000D02*
X146685000Y-120650000D01*
X146685000Y-120650000D02*
X147955000Y-119380000D01*
X147955000Y-119380000D02*
X147955000Y-111760000D01*
X147955000Y-111760000D02*
X152400000Y-107315000D01*
X146050000Y-137160000D02*
X144145000Y-135255000D01*
X147320000Y-133350000D02*
X147320000Y-123190000D01*
X147320000Y-123190000D02*
X147955000Y-122555000D01*
X147955000Y-122555000D02*
X147955000Y-121285000D01*
X147955000Y-121285000D02*
X149860000Y-119380000D01*
X149860000Y-119380000D02*
X149860000Y-114935000D01*
X149860000Y-114935000D02*
X152400000Y-112395000D01*
X146050000Y-134620000D02*
X147320000Y-133350000D01*
X148590000Y-142875000D02*
X149860000Y-142875000D01*
X149860000Y-142875000D02*
X151130000Y-141605000D01*
X151130000Y-141605000D02*
X151130000Y-136525000D01*
X151130000Y-136525000D02*
X149860000Y-135255000D01*
X149860000Y-135255000D02*
X146685000Y-135255000D01*
X146685000Y-135255000D02*
X146050000Y-134620000D01*
X147320000Y-144145000D02*
X148590000Y-142875000D01*
X144780000Y-130810000D02*
X144780000Y-123825000D01*
X144780000Y-123825000D02*
X145415000Y-123190000D01*
X145415000Y-123190000D02*
X146685000Y-123190000D01*
X149225000Y-118745000D02*
X149225000Y-113030000D01*
X149225000Y-113030000D02*
X152400000Y-109855000D01*
X146050000Y-132080000D02*
X144780000Y-130810000D01*
X147320000Y-122555000D02*
X147320000Y-120650000D01*
X147320000Y-120650000D02*
X149225000Y-118745000D01*
X146685000Y-123190000D02*
X147320000Y-122555000D01*
X139065000Y-138430000D02*
X139700000Y-137795000D01*
X137795000Y-138430000D02*
X139065000Y-138430000D01*
X137160000Y-139065000D02*
X137795000Y-138430000D01*
X137160000Y-140335000D02*
X137160000Y-139065000D01*
X143510000Y-146685000D02*
X137160000Y-140335000D01*
X144780000Y-146685000D02*
X143510000Y-146685000D01*
X139700000Y-132715000D02*
X139700000Y-137795000D01*
X140335000Y-132080000D02*
X139700000Y-132715000D01*
X152400000Y-127635000D02*
X151130000Y-126365000D01*
X151130000Y-126365000D02*
X151130000Y-116205000D01*
X151130000Y-116205000D02*
X152400000Y-114935000D01*
X142240000Y-129540000D02*
X142875000Y-130175000D01*
X142875000Y-130175000D02*
X142875000Y-144780000D01*
X142875000Y-144780000D02*
X143510000Y-145415000D01*
X143510000Y-145415000D02*
X146050000Y-145415000D01*
X146050000Y-145415000D02*
X147320000Y-146685000D01*
X146050000Y-119380000D02*
X141605000Y-114935000D01*
X142875000Y-106680000D02*
X141605000Y-107950000D01*
X141605000Y-107950000D02*
X141605000Y-114935000D01*
X146050000Y-116840000D02*
X144780000Y-115570000D01*
X145415000Y-105410000D02*
X149860000Y-105410000D01*
X144780000Y-106045000D02*
X145415000Y-105410000D01*
X144780000Y-115570000D02*
X144780000Y-106045000D01*
D28*
X170815000Y-128905000D02*
X168910000Y-130810000D01*
X168910000Y-132080000D02*
X170815000Y-133985000D01*
X168910000Y-130810000D02*
X168910000Y-132080000D01*
X170815000Y-121920000D02*
X168910000Y-123825000D01*
X168910000Y-127000000D02*
X170815000Y-128905000D01*
X168910000Y-123825000D02*
X168910000Y-127000000D01*
X170815000Y-116840000D02*
X168910000Y-118745000D01*
X168910000Y-120015000D02*
X170815000Y-121920000D01*
X168910000Y-118745000D02*
X168910000Y-120015000D01*
X168910000Y-111760000D02*
X168910000Y-114935000D01*
X170815000Y-109855000D02*
X168910000Y-111760000D01*
X168910000Y-114935000D02*
X170815000Y-116840000D01*
X168910000Y-106680000D02*
X168910000Y-107950000D01*
X170815000Y-104775000D02*
X168910000Y-106680000D01*
X168910000Y-107950000D02*
X170815000Y-109855000D01*
X194945000Y-128905000D02*
X196850000Y-127000000D01*
X196850000Y-124460000D02*
X194945000Y-122555000D01*
X196850000Y-127000000D02*
X196850000Y-124460000D01*
X196850000Y-130810000D02*
X194945000Y-128905000D01*
X175260000Y-109855000D02*
X170815000Y-109855000D01*
X177165000Y-111760000D02*
X175260000Y-109855000D01*
X196850000Y-135255000D02*
X196850000Y-130810000D01*
X189865000Y-142240000D02*
X196850000Y-135255000D01*
X189865000Y-146685000D02*
X189865000Y-142240000D01*
D27*
X180340000Y-139700000D02*
X180340000Y-137160000D01*
X181610000Y-140970000D02*
X180340000Y-139700000D01*
D28*
X131445000Y-141605000D02*
X131445000Y-140970000D01*
X131445000Y-140970000D02*
X132080000Y-140335000D01*
X132080000Y-140335000D02*
X132080000Y-139065000D01*
D27*
X195000000Y-145000000D02*
X198120000Y-141880000D01*
X198120000Y-108120000D02*
X195000000Y-105000000D01*
X198120000Y-141880000D02*
X198120000Y-108120000D01*
D28*
X128270000Y-113030000D02*
X128270000Y-107569000D01*
X128270000Y-107569000D02*
X129794000Y-106045000D01*
X119380000Y-116205000D02*
X122555000Y-113030000D01*
X122555000Y-113030000D02*
X128270000Y-113030000D01*
X109220000Y-109220000D02*
X109220000Y-107950000D01*
X109855000Y-107315000D02*
X109855000Y-106045000D01*
X109220000Y-107950000D02*
X109855000Y-107315000D01*
X106680000Y-122555000D02*
X108585000Y-120650000D01*
X106680000Y-111760000D02*
X109220000Y-109220000D01*
X106680000Y-113665000D02*
X106680000Y-111760000D01*
X108585000Y-115570000D02*
X106680000Y-113665000D01*
X108585000Y-120650000D02*
X108585000Y-115570000D01*
X149860000Y-144145000D02*
X152400000Y-141605000D01*
X152400000Y-141605000D02*
X152400000Y-136525000D01*
X152400000Y-136525000D02*
X149225000Y-133350000D01*
X194945000Y-131445000D02*
X193040000Y-129540000D01*
X193040000Y-121285000D02*
X194945000Y-119380000D01*
X193040000Y-129540000D02*
X193040000Y-121285000D01*
D27*
X172720000Y-133985000D02*
X172720000Y-132080000D01*
X172720000Y-132080000D02*
X173355000Y-131445000D01*
X173355000Y-131445000D02*
X174625000Y-131445000D01*
X174625000Y-131445000D02*
X175260000Y-130810000D01*
X175260000Y-130810000D02*
X175260000Y-116205000D01*
X175260000Y-116205000D02*
X179705000Y-111760000D01*
X173990000Y-135255000D02*
X172720000Y-133985000D01*
D28*
X175574960Y-140147040D02*
X177104040Y-138617960D01*
X172272960Y-140147040D02*
X175574960Y-140147040D01*
X172272960Y-140147040D02*
X168910000Y-143510000D01*
X177104040Y-138617960D02*
X177104040Y-138617960D01*
X168910000Y-146050000D02*
X168910000Y-143510000D01*
X177164998Y-124460002D02*
X177164998Y-138617960D01*
X177164998Y-138617960D02*
X177104040Y-138617960D01*
X182245000Y-119380000D02*
X177164998Y-124460002D01*
X171450000Y-143510000D02*
X173355000Y-141605000D01*
X187960000Y-121285000D02*
X189865000Y-119380000D01*
X182245000Y-121285000D02*
X187960000Y-121285000D01*
X178435000Y-125095000D02*
X182245000Y-121285000D01*
X178435000Y-139700000D02*
X178435000Y-125095000D01*
X176530000Y-141605000D02*
X178435000Y-139700000D01*
X173355000Y-141605000D02*
X176530000Y-141605000D01*
X171450000Y-146050000D02*
X171450000Y-143510000D01*
X182880000Y-106680000D02*
X182880000Y-104140000D01*
X187325000Y-109220000D02*
X183515000Y-109220000D01*
X183515000Y-109220000D02*
X182880000Y-108585000D01*
X182880000Y-108585000D02*
X182880000Y-106680000D01*
X189865000Y-111760000D02*
X187325000Y-109220000D01*
X180340000Y-106680000D02*
X180340000Y-104140000D01*
X182245000Y-111760000D02*
X182245000Y-110490000D01*
X180340000Y-108585000D02*
X180340000Y-106680000D01*
X182245000Y-110490000D02*
X180340000Y-108585000D01*
D27*
X125829060Y-127000000D02*
X129540000Y-123289060D01*
X129540000Y-123289060D02*
X129540000Y-122555000D01*
X125730000Y-130810000D02*
X125095000Y-130175000D01*
X121920000Y-128270000D02*
X121920000Y-126365000D01*
X123825000Y-130175000D02*
X121920000Y-128270000D01*
X125095000Y-130175000D02*
X123825000Y-130175000D01*
X126365000Y-120650000D02*
X126365000Y-121920000D01*
X126365000Y-121920000D02*
X121920000Y-126365000D01*
X129540000Y-139065000D02*
X125730000Y-135255000D01*
X125730000Y-135255000D02*
X125730000Y-130810000D01*
X136525000Y-108585000D02*
X138430000Y-106680000D01*
X136525000Y-114300000D02*
X136525000Y-108585000D01*
X135255000Y-115570000D02*
X136525000Y-114300000D01*
X135255000Y-117475000D02*
X135255000Y-115570000D01*
X154305000Y-142240000D02*
X154305000Y-116205000D01*
X149860000Y-146685000D02*
X154305000Y-142240000D01*
X109220000Y-137160000D02*
X109220000Y-127635000D01*
X109220000Y-127635000D02*
X106680000Y-125095000D01*
X157480000Y-135255000D02*
X159385000Y-137160000D01*
X157480000Y-104775000D02*
X154940000Y-102235000D01*
X157480000Y-135255000D02*
X157480000Y-104775000D01*
X159385000Y-133350000D02*
X159385000Y-129540000D01*
X146812000Y-100838000D02*
X154813000Y-100838000D01*
X154813000Y-100838000D02*
X158115000Y-104140000D01*
X158115000Y-104140000D02*
X158115000Y-128270000D01*
X158115000Y-128270000D02*
X159385000Y-129540000D01*
X145415000Y-102235000D02*
X146812000Y-100838000D01*
X156845000Y-106680000D02*
X155575000Y-105410000D01*
X159385000Y-140970000D02*
X156845000Y-138430000D01*
X155575000Y-105410000D02*
X151130000Y-105410000D01*
X156845000Y-138430000D02*
X156845000Y-106680000D01*
X151130000Y-105410000D02*
X149860000Y-104140000D01*
X141605000Y-131445000D02*
X141605000Y-133985000D01*
X141605000Y-121285000D02*
X141605000Y-127635000D01*
X140970000Y-120650000D02*
X141605000Y-121285000D01*
X140970000Y-106045000D02*
X140970000Y-120650000D01*
X143510000Y-103505000D02*
X140970000Y-106045000D01*
X146685000Y-103505000D02*
X143510000Y-103505000D01*
X147955000Y-102235000D02*
X146685000Y-103505000D01*
X151130000Y-105410000D02*
X149860000Y-104140000D01*
X149860000Y-104140000D02*
X147955000Y-102235000D01*
X140970000Y-134620000D02*
X141605000Y-133985000D01*
X140335000Y-130175000D02*
X140335000Y-128905000D01*
X140335000Y-128905000D02*
X141605000Y-127635000D01*
X141605000Y-131445000D02*
X140335000Y-130175000D01*
X133985000Y-121920000D02*
X130175000Y-118110000D01*
X130175000Y-118110000D02*
X130175000Y-114935000D01*
X130175000Y-114935000D02*
X131445000Y-113665000D01*
X132080000Y-113030000D02*
X130175000Y-114935000D01*
X133985000Y-130175000D02*
X133985000Y-121920000D01*
X125095000Y-120015000D02*
X125095000Y-121285000D01*
X120650000Y-133350000D02*
X121920000Y-134620000D01*
X120650000Y-130810000D02*
X120650000Y-133350000D01*
X121285000Y-130175000D02*
X120650000Y-130810000D01*
X121285000Y-125095000D02*
X121285000Y-130175000D01*
X125095000Y-121285000D02*
X121285000Y-125095000D01*
X121920000Y-139065000D02*
X121920000Y-134620000D01*
X132080000Y-111760000D02*
X129540000Y-114300000D01*
X126365000Y-118745000D02*
X128270000Y-118745000D01*
X128270000Y-118745000D02*
X129540000Y-117475000D01*
X129540000Y-117475000D02*
X129540000Y-114300000D01*
X125095000Y-120015000D02*
X126365000Y-118745000D01*
D28*
X182245000Y-146685000D02*
X184785000Y-144145000D01*
X184785000Y-144145000D02*
X184785000Y-142240000D01*
X184785000Y-146685000D02*
X182880000Y-148590000D01*
X109220000Y-146050000D02*
X111760000Y-148590000D01*
X102235000Y-129540000D02*
X104140000Y-127635000D01*
X102235000Y-129540000D02*
X102235000Y-140335000D01*
X102235000Y-140335000D02*
X102870000Y-140970000D01*
X102870000Y-140970000D02*
X107315000Y-140970000D01*
X107315000Y-140970000D02*
X109220000Y-142875000D01*
X109220000Y-142875000D02*
X109220000Y-146050000D01*
X182880000Y-148590000D02*
X111760000Y-148590000D01*
X187325000Y-142240000D02*
X187325000Y-125476000D01*
X184785000Y-119380000D02*
X184785000Y-111760000D01*
X187325000Y-119380000D02*
X187325000Y-111760000D01*
X187325000Y-146685000D02*
X187325000Y-142240000D01*
X109855000Y-103505000D02*
X107315000Y-100965000D01*
X104140000Y-112395000D02*
X104140000Y-120015000D01*
X100965000Y-109220000D02*
X104140000Y-112395000D01*
X100965000Y-102870000D02*
X100965000Y-109220000D01*
X102870000Y-100965000D02*
X100965000Y-102870000D01*
X107315000Y-100965000D02*
X102870000Y-100965000D01*
D27*
X178435000Y-120650000D02*
X178435000Y-114935000D01*
X175895000Y-123190000D02*
X178435000Y-120650000D01*
X191770000Y-114935000D02*
X194945000Y-111760000D01*
X175260000Y-132715000D02*
X175895000Y-132080000D01*
X175895000Y-132080000D02*
X175895000Y-123190000D01*
X173990000Y-132715000D02*
X175260000Y-132715000D01*
X170815000Y-127000000D02*
X173990000Y-130175000D01*
X170815000Y-124460000D02*
X170815000Y-127000000D01*
X172085000Y-123190000D02*
X172085000Y-114935000D01*
X172085000Y-114935000D02*
X171450000Y-114300000D01*
X170815000Y-124460000D02*
X172085000Y-123190000D01*
X172720000Y-123825000D02*
X172720000Y-114300000D01*
X172720000Y-114300000D02*
X170815000Y-112395000D01*
X173990000Y-125095000D02*
X172720000Y-123825000D01*
X172085000Y-108585000D02*
X170815000Y-107315000D01*
X178435000Y-108585000D02*
X172085000Y-108585000D01*
X180975000Y-111125000D02*
X178435000Y-108585000D01*
X180975000Y-114935000D02*
X180975000Y-111125000D01*
X179705000Y-116205000D02*
X180975000Y-114935000D01*
X179705000Y-119380000D02*
X179705000Y-116205000D01*
X111760000Y-123825000D02*
X114935000Y-127000000D01*
X116840000Y-135890000D02*
X116840000Y-139065000D01*
X114935000Y-133985000D02*
X116840000Y-135890000D01*
X114935000Y-127000000D02*
X114935000Y-133985000D01*
X163195000Y-115570000D02*
X163195000Y-116840000D01*
X160020000Y-112395000D02*
X163195000Y-115570000D01*
X161925000Y-120650000D02*
X161925000Y-116840000D01*
X161925000Y-116840000D02*
X160020000Y-114935000D01*
X163195000Y-121920000D02*
X161925000Y-120650000D01*
X161290000Y-127000000D02*
X161290000Y-121285000D01*
X161290000Y-121285000D02*
X161290000Y-121285000D01*
X161290000Y-121285000D02*
X161290000Y-118745000D01*
X161290000Y-118745000D02*
X160020000Y-117475000D01*
X163195000Y-128905000D02*
X161290000Y-127000000D01*
X158750000Y-121285000D02*
X158750000Y-125730000D01*
X158750000Y-125730000D02*
X161925000Y-128905000D01*
X161925000Y-128905000D02*
X161925000Y-132715000D01*
X161925000Y-132715000D02*
X163195000Y-133985000D01*
X160020000Y-120015000D02*
X158750000Y-121285000D01*
D28*
X124460000Y-139065000D02*
X124460000Y-133985000D01*
X124460000Y-133985000D02*
X121920000Y-131445000D01*
X138430000Y-121920000D02*
X140335000Y-123825000D01*
X140335000Y-123825000D02*
X140335000Y-127000000D01*
X130810000Y-144780000D02*
X130810000Y-143510000D01*
X130810000Y-143510000D02*
X128905000Y-141605000D01*
X135255000Y-107315000D02*
X135255000Y-113665000D01*
X135255000Y-113665000D02*
X133350000Y-115570000D01*
X119380000Y-123825000D02*
X120015000Y-123825000D01*
X120015000Y-123825000D02*
X121920000Y-121920000D01*
X121920000Y-121920000D02*
X121920000Y-117475000D01*
X119380000Y-123825000D02*
X116840000Y-123825000D01*
X114300000Y-121285000D02*
X111760000Y-121285000D01*
X116840000Y-123825000D02*
X114300000Y-121285000D01*
X111760000Y-121285000D02*
X113665000Y-119380000D01*
X113665000Y-119380000D02*
X113665000Y-113030000D01*
X113665000Y-113030000D02*
X112395000Y-111760000D01*
X116840000Y-131445000D02*
X116840000Y-128905000D01*
X116840000Y-128905000D02*
X119380000Y-126365000D01*
X119380000Y-126365000D02*
X119380000Y-123825000D01*
X118745000Y-123825000D02*
X119380000Y-123825000D01*
X113030000Y-108585000D02*
X113030000Y-109855000D01*
X112395000Y-110490000D02*
X112395000Y-111760000D01*
X113030000Y-109855000D02*
X112395000Y-110490000D01*
X149225000Y-140970000D02*
X149225000Y-137160000D01*
X123825000Y-139700000D02*
X124460000Y-139065000D01*
X123825000Y-141605000D02*
X123825000Y-139700000D01*
X147955000Y-140970000D02*
X149225000Y-140970000D01*
X144780000Y-144145000D02*
X147955000Y-140970000D01*
X128270000Y-117475000D02*
X128294341Y-117499341D01*
X121920000Y-117475000D02*
X128270000Y-117475000D01*
D27*
X155575000Y-144780000D02*
X155575000Y-122555000D01*
X156845000Y-146050000D02*
X155575000Y-144780000D01*
X146050000Y-106680000D02*
X150495000Y-106680000D01*
X150495000Y-106680000D02*
X151130000Y-106045000D01*
X154305000Y-106045000D02*
X155575000Y-107315000D01*
X151130000Y-106045000D02*
X154305000Y-106045000D01*
D29*
G36*
X176021998Y-138083556D02*
X175742600Y-138362954D01*
X175742600Y-138042650D01*
X175520350Y-137820400D01*
X174015400Y-137820400D01*
X174015400Y-137840400D01*
X173964600Y-137840400D01*
X173964600Y-137820400D01*
X172459650Y-137820400D01*
X172237400Y-138042650D01*
X172237400Y-138835433D01*
X172279884Y-138938000D01*
X167767000Y-138938000D01*
X167767000Y-132080000D01*
X167854006Y-132517407D01*
X168101777Y-132888223D01*
X169494386Y-134280832D01*
X169683854Y-134739380D01*
X170058647Y-135114827D01*
X170396446Y-135255093D01*
X170060620Y-135393854D01*
X169685173Y-135768647D01*
X169481732Y-136258587D01*
X169481269Y-136789086D01*
X169683854Y-137279380D01*
X170058647Y-137654827D01*
X170548587Y-137858268D01*
X171079086Y-137858731D01*
X171569380Y-137656146D01*
X171944827Y-137281353D01*
X172148268Y-136791413D01*
X172148731Y-136260914D01*
X171946146Y-135770620D01*
X171571353Y-135395173D01*
X171233553Y-135254906D01*
X171569380Y-135116146D01*
X171944827Y-134741353D01*
X172102607Y-134361376D01*
X172199145Y-134505855D01*
X172537793Y-134844503D01*
X172491661Y-134955602D01*
X172491141Y-135551782D01*
X172718808Y-136102780D01*
X172743669Y-136127685D01*
X172622822Y-136177742D01*
X172372742Y-136427822D01*
X172237400Y-136754567D01*
X172237400Y-137547350D01*
X172459650Y-137769600D01*
X173964600Y-137769600D01*
X173964600Y-137749600D01*
X174015400Y-137749600D01*
X174015400Y-137769600D01*
X175520350Y-137769600D01*
X175742600Y-137547350D01*
X175742600Y-136754567D01*
X175607258Y-136427822D01*
X175357178Y-136177742D01*
X175236790Y-136127876D01*
X175259710Y-136104997D01*
X175488339Y-135554398D01*
X175488859Y-134958218D01*
X175261192Y-134407220D01*
X174839997Y-133985290D01*
X174839069Y-133984904D01*
X175259710Y-133564997D01*
X175311009Y-133441453D01*
X175541885Y-133395530D01*
X175780855Y-133235855D01*
X176021998Y-132994712D01*
X176021998Y-138083556D01*
X176021998Y-138083556D01*
G37*
X176021998Y-138083556D02*
X175742600Y-138362954D01*
X175742600Y-138042650D01*
X175520350Y-137820400D01*
X174015400Y-137820400D01*
X174015400Y-137840400D01*
X173964600Y-137840400D01*
X173964600Y-137820400D01*
X172459650Y-137820400D01*
X172237400Y-138042650D01*
X172237400Y-138835433D01*
X172279884Y-138938000D01*
X167767000Y-138938000D01*
X167767000Y-132080000D01*
X167854006Y-132517407D01*
X168101777Y-132888223D01*
X169494386Y-134280832D01*
X169683854Y-134739380D01*
X170058647Y-135114827D01*
X170396446Y-135255093D01*
X170060620Y-135393854D01*
X169685173Y-135768647D01*
X169481732Y-136258587D01*
X169481269Y-136789086D01*
X169683854Y-137279380D01*
X170058647Y-137654827D01*
X170548587Y-137858268D01*
X171079086Y-137858731D01*
X171569380Y-137656146D01*
X171944827Y-137281353D01*
X172148268Y-136791413D01*
X172148731Y-136260914D01*
X171946146Y-135770620D01*
X171571353Y-135395173D01*
X171233553Y-135254906D01*
X171569380Y-135116146D01*
X171944827Y-134741353D01*
X172102607Y-134361376D01*
X172199145Y-134505855D01*
X172537793Y-134844503D01*
X172491661Y-134955602D01*
X172491141Y-135551782D01*
X172718808Y-136102780D01*
X172743669Y-136127685D01*
X172622822Y-136177742D01*
X172372742Y-136427822D01*
X172237400Y-136754567D01*
X172237400Y-137547350D01*
X172459650Y-137769600D01*
X173964600Y-137769600D01*
X173964600Y-137749600D01*
X174015400Y-137749600D01*
X174015400Y-137769600D01*
X175520350Y-137769600D01*
X175742600Y-137547350D01*
X175742600Y-136754567D01*
X175607258Y-136427822D01*
X175357178Y-136177742D01*
X175236790Y-136127876D01*
X175259710Y-136104997D01*
X175488339Y-135554398D01*
X175488859Y-134958218D01*
X175261192Y-134407220D01*
X174839997Y-133985290D01*
X174839069Y-133984904D01*
X175259710Y-133564997D01*
X175311009Y-133441453D01*
X175541885Y-133395530D01*
X175780855Y-133235855D01*
X176021998Y-132994712D01*
X176021998Y-138083556D01*
G36*
X180390063Y-127014142D02*
X180354142Y-127050063D01*
X180340000Y-127035921D01*
X180325857Y-127050063D01*
X180289936Y-127014142D01*
X180304079Y-127000000D01*
X180289936Y-126985857D01*
X180325857Y-126949936D01*
X180340000Y-126964079D01*
X180354142Y-126949936D01*
X180390063Y-126985857D01*
X180375921Y-127000000D01*
X180390063Y-127014142D01*
X180390063Y-127014142D01*
G37*
X180390063Y-127014142D02*
X180354142Y-127050063D01*
X180340000Y-127035921D01*
X180325857Y-127050063D01*
X180289936Y-127014142D01*
X180304079Y-127000000D01*
X180289936Y-126985857D01*
X180325857Y-126949936D01*
X180340000Y-126964079D01*
X180354142Y-126949936D01*
X180390063Y-126985857D01*
X180375921Y-127000000D01*
X180390063Y-127014142D01*
G36*
X194995063Y-125109142D02*
X194959142Y-125145063D01*
X194945000Y-125130921D01*
X194930857Y-125145063D01*
X194894936Y-125109142D01*
X194909079Y-125095000D01*
X194894936Y-125080857D01*
X194930857Y-125044936D01*
X194945000Y-125059079D01*
X194959142Y-125044936D01*
X194995063Y-125080857D01*
X194980921Y-125095000D01*
X194995063Y-125109142D01*
X194995063Y-125109142D01*
G37*
X194995063Y-125109142D02*
X194959142Y-125145063D01*
X194945000Y-125130921D01*
X194930857Y-125145063D01*
X194894936Y-125109142D01*
X194909079Y-125095000D01*
X194894936Y-125080857D01*
X194930857Y-125044936D01*
X194945000Y-125059079D01*
X194959142Y-125044936D01*
X194995063Y-125080857D01*
X194980921Y-125095000D01*
X194995063Y-125109142D01*
G36*
X197383400Y-123376954D02*
X196330771Y-122324325D01*
X196330810Y-122280602D01*
X196120314Y-121771163D01*
X195730887Y-121381056D01*
X195221816Y-121169671D01*
X194772167Y-121169278D01*
X195240832Y-120700613D01*
X195699380Y-120511146D01*
X196074827Y-120136353D01*
X196278268Y-119646413D01*
X196278731Y-119115914D01*
X196076146Y-118625620D01*
X195701353Y-118250173D01*
X195211413Y-118046732D01*
X194680914Y-118046269D01*
X194190620Y-118248854D01*
X193815173Y-118623647D01*
X193674906Y-118961446D01*
X193536146Y-118625620D01*
X193161353Y-118250173D01*
X192671413Y-118046732D01*
X192140914Y-118046269D01*
X191650620Y-118248854D01*
X191275173Y-118623647D01*
X191134906Y-118961446D01*
X190996146Y-118625620D01*
X190621353Y-118250173D01*
X190131413Y-118046732D01*
X189600914Y-118046269D01*
X189110620Y-118248854D01*
X188735173Y-118623647D01*
X188734851Y-118624420D01*
X188691644Y-118512729D01*
X188649244Y-118449276D01*
X188330166Y-118410755D01*
X188294245Y-118446676D01*
X188294245Y-118374834D01*
X188294245Y-112765166D01*
X187325000Y-111795921D01*
X187289079Y-111831842D01*
X187289079Y-111760000D01*
X186319834Y-110790755D01*
X186055000Y-110822727D01*
X185790166Y-110790755D01*
X184820921Y-111760000D01*
X185790166Y-112729245D01*
X186055000Y-112697272D01*
X186319834Y-112729245D01*
X187289079Y-111760000D01*
X187289079Y-111831842D01*
X186355755Y-112765166D01*
X186394276Y-113084244D01*
X186971890Y-113339615D01*
X187603261Y-113354504D01*
X188192271Y-113126644D01*
X188255724Y-113084244D01*
X188294245Y-112765166D01*
X188294245Y-118374834D01*
X188255724Y-118055756D01*
X187678110Y-117800385D01*
X187046739Y-117785496D01*
X186457729Y-118013356D01*
X186394276Y-118055756D01*
X186355755Y-118374834D01*
X187325000Y-119344079D01*
X188294245Y-118374834D01*
X188294245Y-118446676D01*
X187360921Y-119380000D01*
X187375063Y-119394142D01*
X187339142Y-119430063D01*
X187325000Y-119415921D01*
X187310857Y-119430063D01*
X187274936Y-119394142D01*
X187289079Y-119380000D01*
X186319834Y-118410755D01*
X186055000Y-118442727D01*
X185790166Y-118410755D01*
X185754245Y-118446676D01*
X185754245Y-118374834D01*
X185754245Y-112765166D01*
X184785000Y-111795921D01*
X183815755Y-112765166D01*
X183854276Y-113084244D01*
X184431890Y-113339615D01*
X185063261Y-113354504D01*
X185652271Y-113126644D01*
X185715724Y-113084244D01*
X185754245Y-112765166D01*
X185754245Y-118374834D01*
X185715724Y-118055756D01*
X185138110Y-117800385D01*
X184506739Y-117785496D01*
X183917729Y-118013356D01*
X183854276Y-118055756D01*
X183815755Y-118374834D01*
X184785000Y-119344079D01*
X185754245Y-118374834D01*
X185754245Y-118446676D01*
X184820921Y-119380000D01*
X184835063Y-119394142D01*
X184799142Y-119430063D01*
X184785000Y-119415921D01*
X184770857Y-119430063D01*
X184734936Y-119394142D01*
X184749079Y-119380000D01*
X183779834Y-118410755D01*
X183460756Y-118449276D01*
X183379356Y-118633390D01*
X183376146Y-118625620D01*
X183001353Y-118250173D01*
X182511413Y-118046732D01*
X181980914Y-118046269D01*
X181490620Y-118248854D01*
X181115173Y-118623647D01*
X180974906Y-118961446D01*
X180836146Y-118625620D01*
X180461353Y-118250173D01*
X180441600Y-118241970D01*
X180441600Y-116510110D01*
X181495855Y-115455855D01*
X181655530Y-115216885D01*
X181711600Y-114935000D01*
X181711600Y-112982405D01*
X181978587Y-113093268D01*
X182509086Y-113093731D01*
X182999380Y-112891146D01*
X183374827Y-112516353D01*
X183375148Y-112515579D01*
X183418356Y-112627271D01*
X183460756Y-112690724D01*
X183779834Y-112729245D01*
X184749079Y-111760000D01*
X183779834Y-110790755D01*
X183460756Y-110829276D01*
X183388000Y-110993840D01*
X183388000Y-110490000D01*
X183356465Y-110331465D01*
X183515000Y-110363000D01*
X183996198Y-110363000D01*
X183917729Y-110393356D01*
X183854276Y-110435756D01*
X183815755Y-110754834D01*
X184785000Y-111724079D01*
X185754245Y-110754834D01*
X185715724Y-110435756D01*
X185551159Y-110363000D01*
X186536198Y-110363000D01*
X186457729Y-110393356D01*
X186394276Y-110435756D01*
X186355755Y-110754834D01*
X187325000Y-111724079D01*
X187339142Y-111709936D01*
X187375063Y-111745857D01*
X187360921Y-111760000D01*
X188330166Y-112729245D01*
X188649244Y-112690724D01*
X188730643Y-112506609D01*
X188733854Y-112514380D01*
X189108647Y-112889827D01*
X189598587Y-113093268D01*
X190129086Y-113093731D01*
X190619380Y-112891146D01*
X190994827Y-112516353D01*
X191135093Y-112178553D01*
X191273854Y-112514380D01*
X191648647Y-112889827D01*
X192138587Y-113093268D01*
X192569645Y-113093644D01*
X191807757Y-113855532D01*
X191556216Y-113855313D01*
X191159311Y-114019311D01*
X190855378Y-114322714D01*
X190690687Y-114719332D01*
X190690313Y-115148784D01*
X190854311Y-115545689D01*
X191157714Y-115849622D01*
X191554332Y-116014313D01*
X191983784Y-116014687D01*
X192380689Y-115850689D01*
X192684622Y-115547286D01*
X192849313Y-115150668D01*
X192849533Y-114897176D01*
X194660819Y-113085890D01*
X194678587Y-113093268D01*
X195209086Y-113093731D01*
X195699380Y-112891146D01*
X196074827Y-112516353D01*
X196278268Y-112026413D01*
X196278731Y-111495914D01*
X196076146Y-111005620D01*
X195701353Y-110630173D01*
X195211413Y-110426732D01*
X194680914Y-110426269D01*
X194190620Y-110628854D01*
X193815173Y-111003647D01*
X193674906Y-111341446D01*
X193536146Y-111005620D01*
X193161353Y-110630173D01*
X192671413Y-110426732D01*
X192140914Y-110426269D01*
X191650620Y-110628854D01*
X191275173Y-111003647D01*
X191134906Y-111341446D01*
X190996146Y-111005620D01*
X190621353Y-110630173D01*
X190160082Y-110438636D01*
X189703446Y-109982000D01*
X197383400Y-109982000D01*
X197383400Y-123376954D01*
X197383400Y-123376954D01*
G37*
X197383400Y-123376954D02*
X196330771Y-122324325D01*
X196330810Y-122280602D01*
X196120314Y-121771163D01*
X195730887Y-121381056D01*
X195221816Y-121169671D01*
X194772167Y-121169278D01*
X195240832Y-120700613D01*
X195699380Y-120511146D01*
X196074827Y-120136353D01*
X196278268Y-119646413D01*
X196278731Y-119115914D01*
X196076146Y-118625620D01*
X195701353Y-118250173D01*
X195211413Y-118046732D01*
X194680914Y-118046269D01*
X194190620Y-118248854D01*
X193815173Y-118623647D01*
X193674906Y-118961446D01*
X193536146Y-118625620D01*
X193161353Y-118250173D01*
X192671413Y-118046732D01*
X192140914Y-118046269D01*
X191650620Y-118248854D01*
X191275173Y-118623647D01*
X191134906Y-118961446D01*
X190996146Y-118625620D01*
X190621353Y-118250173D01*
X190131413Y-118046732D01*
X189600914Y-118046269D01*
X189110620Y-118248854D01*
X188735173Y-118623647D01*
X188734851Y-118624420D01*
X188691644Y-118512729D01*
X188649244Y-118449276D01*
X188330166Y-118410755D01*
X188294245Y-118446676D01*
X188294245Y-118374834D01*
X188294245Y-112765166D01*
X187325000Y-111795921D01*
X187289079Y-111831842D01*
X187289079Y-111760000D01*
X186319834Y-110790755D01*
X186055000Y-110822727D01*
X185790166Y-110790755D01*
X184820921Y-111760000D01*
X185790166Y-112729245D01*
X186055000Y-112697272D01*
X186319834Y-112729245D01*
X187289079Y-111760000D01*
X187289079Y-111831842D01*
X186355755Y-112765166D01*
X186394276Y-113084244D01*
X186971890Y-113339615D01*
X187603261Y-113354504D01*
X188192271Y-113126644D01*
X188255724Y-113084244D01*
X188294245Y-112765166D01*
X188294245Y-118374834D01*
X188255724Y-118055756D01*
X187678110Y-117800385D01*
X187046739Y-117785496D01*
X186457729Y-118013356D01*
X186394276Y-118055756D01*
X186355755Y-118374834D01*
X187325000Y-119344079D01*
X188294245Y-118374834D01*
X188294245Y-118446676D01*
X187360921Y-119380000D01*
X187375063Y-119394142D01*
X187339142Y-119430063D01*
X187325000Y-119415921D01*
X187310857Y-119430063D01*
X187274936Y-119394142D01*
X187289079Y-119380000D01*
X186319834Y-118410755D01*
X186055000Y-118442727D01*
X185790166Y-118410755D01*
X185754245Y-118446676D01*
X185754245Y-118374834D01*
X185754245Y-112765166D01*
X184785000Y-111795921D01*
X183815755Y-112765166D01*
X183854276Y-113084244D01*
X184431890Y-113339615D01*
X185063261Y-113354504D01*
X185652271Y-113126644D01*
X185715724Y-113084244D01*
X185754245Y-112765166D01*
X185754245Y-118374834D01*
X185715724Y-118055756D01*
X185138110Y-117800385D01*
X184506739Y-117785496D01*
X183917729Y-118013356D01*
X183854276Y-118055756D01*
X183815755Y-118374834D01*
X184785000Y-119344079D01*
X185754245Y-118374834D01*
X185754245Y-118446676D01*
X184820921Y-119380000D01*
X184835063Y-119394142D01*
X184799142Y-119430063D01*
X184785000Y-119415921D01*
X184770857Y-119430063D01*
X184734936Y-119394142D01*
X184749079Y-119380000D01*
X183779834Y-118410755D01*
X183460756Y-118449276D01*
X183379356Y-118633390D01*
X183376146Y-118625620D01*
X183001353Y-118250173D01*
X182511413Y-118046732D01*
X181980914Y-118046269D01*
X181490620Y-118248854D01*
X181115173Y-118623647D01*
X180974906Y-118961446D01*
X180836146Y-118625620D01*
X180461353Y-118250173D01*
X180441600Y-118241970D01*
X180441600Y-116510110D01*
X181495855Y-115455855D01*
X181655530Y-115216885D01*
X181711600Y-114935000D01*
X181711600Y-112982405D01*
X181978587Y-113093268D01*
X182509086Y-113093731D01*
X182999380Y-112891146D01*
X183374827Y-112516353D01*
X183375148Y-112515579D01*
X183418356Y-112627271D01*
X183460756Y-112690724D01*
X183779834Y-112729245D01*
X184749079Y-111760000D01*
X183779834Y-110790755D01*
X183460756Y-110829276D01*
X183388000Y-110993840D01*
X183388000Y-110490000D01*
X183356465Y-110331465D01*
X183515000Y-110363000D01*
X183996198Y-110363000D01*
X183917729Y-110393356D01*
X183854276Y-110435756D01*
X183815755Y-110754834D01*
X184785000Y-111724079D01*
X185754245Y-110754834D01*
X185715724Y-110435756D01*
X185551159Y-110363000D01*
X186536198Y-110363000D01*
X186457729Y-110393356D01*
X186394276Y-110435756D01*
X186355755Y-110754834D01*
X187325000Y-111724079D01*
X187339142Y-111709936D01*
X187375063Y-111745857D01*
X187360921Y-111760000D01*
X188330166Y-112729245D01*
X188649244Y-112690724D01*
X188730643Y-112506609D01*
X188733854Y-112514380D01*
X189108647Y-112889827D01*
X189598587Y-113093268D01*
X190129086Y-113093731D01*
X190619380Y-112891146D01*
X190994827Y-112516353D01*
X191135093Y-112178553D01*
X191273854Y-112514380D01*
X191648647Y-112889827D01*
X192138587Y-113093268D01*
X192569645Y-113093644D01*
X191807757Y-113855532D01*
X191556216Y-113855313D01*
X191159311Y-114019311D01*
X190855378Y-114322714D01*
X190690687Y-114719332D01*
X190690313Y-115148784D01*
X190854311Y-115545689D01*
X191157714Y-115849622D01*
X191554332Y-116014313D01*
X191983784Y-116014687D01*
X192380689Y-115850689D01*
X192684622Y-115547286D01*
X192849313Y-115150668D01*
X192849533Y-114897176D01*
X194660819Y-113085890D01*
X194678587Y-113093268D01*
X195209086Y-113093731D01*
X195699380Y-112891146D01*
X196074827Y-112516353D01*
X196278268Y-112026413D01*
X196278731Y-111495914D01*
X196076146Y-111005620D01*
X195701353Y-110630173D01*
X195211413Y-110426732D01*
X194680914Y-110426269D01*
X194190620Y-110628854D01*
X193815173Y-111003647D01*
X193674906Y-111341446D01*
X193536146Y-111005620D01*
X193161353Y-110630173D01*
X192671413Y-110426732D01*
X192140914Y-110426269D01*
X191650620Y-110628854D01*
X191275173Y-111003647D01*
X191134906Y-111341446D01*
X190996146Y-111005620D01*
X190621353Y-110630173D01*
X190160082Y-110438636D01*
X189703446Y-109982000D01*
X197383400Y-109982000D01*
X197383400Y-123376954D01*
G36*
X199263000Y-149098000D02*
X188331791Y-149098000D01*
X188331791Y-147727712D01*
X187325000Y-146720921D01*
X187289079Y-146756842D01*
X187289079Y-146685000D01*
X186282288Y-145678209D01*
X186055000Y-145709629D01*
X185827712Y-145678209D01*
X184820921Y-146685000D01*
X185827712Y-147691791D01*
X186055000Y-147660370D01*
X186282288Y-147691791D01*
X187289079Y-146685000D01*
X187289079Y-146756842D01*
X186318209Y-147727712D01*
X186363067Y-148052200D01*
X186959494Y-148316244D01*
X187611567Y-148331946D01*
X188220013Y-148096915D01*
X188286933Y-148052200D01*
X188331791Y-147727712D01*
X188331791Y-149098000D01*
X185791791Y-149098000D01*
X185791791Y-147727712D01*
X184785000Y-146720921D01*
X183778209Y-147727712D01*
X183823067Y-148052200D01*
X184419494Y-148316244D01*
X185071567Y-148331946D01*
X185680013Y-148096915D01*
X185746933Y-148052200D01*
X185791791Y-147727712D01*
X185791791Y-149098000D01*
X177927000Y-149098000D01*
X177927000Y-141824446D01*
X179243223Y-140508223D01*
X179490994Y-140137407D01*
X179578000Y-139700000D01*
X179578000Y-138613390D01*
X179603400Y-138623937D01*
X179603400Y-139700000D01*
X179659470Y-139981885D01*
X179819145Y-140220855D01*
X180244271Y-140645981D01*
X180224671Y-140693184D01*
X180224190Y-141244398D01*
X180434686Y-141753837D01*
X180824113Y-142143944D01*
X181055381Y-142239974D01*
X180826163Y-142334686D01*
X180436056Y-142724113D01*
X180224671Y-143233184D01*
X180224190Y-143784398D01*
X180434686Y-144293837D01*
X180824113Y-144683944D01*
X181333184Y-144895329D01*
X181884398Y-144895810D01*
X182393837Y-144685314D01*
X182783944Y-144295887D01*
X182995329Y-143786816D01*
X182995810Y-143235602D01*
X182785314Y-142726163D01*
X182395887Y-142336056D01*
X182164618Y-142240025D01*
X182393837Y-142145314D01*
X182783944Y-141755887D01*
X182995329Y-141246816D01*
X182995810Y-140695602D01*
X182785314Y-140186163D01*
X182395887Y-139796056D01*
X181886816Y-139584671D01*
X181335602Y-139584190D01*
X181286279Y-139604569D01*
X181076600Y-139394890D01*
X181076600Y-138624164D01*
X181264655Y-138546462D01*
X181610000Y-138201718D01*
X181610000Y-138352833D01*
X181745342Y-138679578D01*
X181995422Y-138929658D01*
X182322167Y-139065000D01*
X182675833Y-139065000D01*
X187077350Y-139065000D01*
X187299600Y-138842750D01*
X187299600Y-130327400D01*
X181832250Y-130327400D01*
X181610000Y-130549650D01*
X181610000Y-136118679D01*
X181267073Y-135775154D01*
X180666547Y-135525794D01*
X180016306Y-135525226D01*
X179578000Y-135706330D01*
X179578000Y-128727945D01*
X179915241Y-128878053D01*
X180666273Y-128897643D01*
X181367634Y-128628334D01*
X181451126Y-128572547D01*
X181526276Y-128222200D01*
X181610000Y-128305924D01*
X181610000Y-130054350D01*
X181832250Y-130276600D01*
X187299600Y-130276600D01*
X187299600Y-130256600D01*
X187350400Y-130256600D01*
X187350400Y-130276600D01*
X187370400Y-130276600D01*
X187370400Y-130327400D01*
X187350400Y-130327400D01*
X187350400Y-138842750D01*
X187572650Y-139065000D01*
X191423554Y-139065000D01*
X190513581Y-139974972D01*
X190433143Y-139921225D01*
X189865000Y-139808214D01*
X189296857Y-139921225D01*
X188815208Y-140243052D01*
X188729199Y-140371773D01*
X188536437Y-140092213D01*
X187966879Y-139723566D01*
X187622040Y-139626503D01*
X187350400Y-139823403D01*
X187350400Y-142214600D01*
X187370400Y-142214600D01*
X187370400Y-142265400D01*
X187350400Y-142265400D01*
X187350400Y-144656597D01*
X187622040Y-144853497D01*
X187966879Y-144756434D01*
X188536437Y-144387787D01*
X188722000Y-144118667D01*
X188722000Y-145767665D01*
X188692200Y-145723067D01*
X188367712Y-145678209D01*
X188331791Y-145714130D01*
X188331791Y-145642288D01*
X188286933Y-145317800D01*
X187690506Y-145053756D01*
X187299600Y-145044342D01*
X187299600Y-144656597D01*
X187299600Y-142265400D01*
X187279600Y-142265400D01*
X187279600Y-142214600D01*
X187299600Y-142214600D01*
X187299600Y-139823403D01*
X187027960Y-139626503D01*
X186683121Y-139723566D01*
X186113563Y-140092213D01*
X185920800Y-140371773D01*
X185834792Y-140243052D01*
X185353143Y-139921225D01*
X184785000Y-139808214D01*
X184216857Y-139921225D01*
X183735208Y-140243052D01*
X183413381Y-140724701D01*
X183300370Y-141292844D01*
X183300370Y-143187156D01*
X183413381Y-143755299D01*
X183471409Y-143842144D01*
X182014325Y-145299228D01*
X181970602Y-145299190D01*
X181461163Y-145509686D01*
X181071056Y-145899113D01*
X180859671Y-146408184D01*
X180859190Y-146959398D01*
X181069686Y-147468837D01*
X181459113Y-147858944D01*
X181968184Y-148070329D01*
X182519398Y-148070810D01*
X183028837Y-147860314D01*
X183355425Y-147534295D01*
X183373085Y-147580013D01*
X183417800Y-147646933D01*
X183742288Y-147691791D01*
X184749079Y-146685000D01*
X184734936Y-146670857D01*
X184770857Y-146634936D01*
X184785000Y-146649079D01*
X185791791Y-145642288D01*
X185746933Y-145317800D01*
X185387687Y-145158758D01*
X185593223Y-144953223D01*
X185840994Y-144582407D01*
X185928000Y-144145000D01*
X185928000Y-144118667D01*
X186113563Y-144387787D01*
X186683121Y-144756434D01*
X187027960Y-144853497D01*
X187299600Y-144656597D01*
X187299600Y-145044342D01*
X187038433Y-145038054D01*
X186429987Y-145273085D01*
X186363067Y-145317800D01*
X186318209Y-145642288D01*
X187325000Y-146649079D01*
X188331791Y-145642288D01*
X188331791Y-145714130D01*
X187360921Y-146685000D01*
X188367712Y-147691791D01*
X188692200Y-147646933D01*
X188746048Y-147525298D01*
X189079113Y-147858944D01*
X189588184Y-148070329D01*
X190139398Y-148070810D01*
X190648837Y-147860314D01*
X191038944Y-147470887D01*
X191250329Y-146961816D01*
X191250810Y-146410602D01*
X191040314Y-145901163D01*
X191008000Y-145868792D01*
X191008000Y-144097452D01*
X191236619Y-143755299D01*
X191349630Y-143187156D01*
X191349630Y-142371816D01*
X197383400Y-136338046D01*
X197383400Y-141574890D01*
X197045036Y-141913253D01*
X195726218Y-141365632D01*
X194280126Y-141364370D01*
X192943628Y-141916600D01*
X191920194Y-142938249D01*
X191365632Y-144273782D01*
X191364370Y-145719874D01*
X191916600Y-147056372D01*
X192938249Y-148079806D01*
X194273782Y-148634368D01*
X195719874Y-148635630D01*
X197056372Y-148083400D01*
X198079806Y-147061751D01*
X198634368Y-145726218D01*
X198635630Y-144280126D01*
X198087692Y-142954017D01*
X198640855Y-142400855D01*
X198800530Y-142161885D01*
X198856600Y-141880000D01*
X198856600Y-109982000D01*
X199263000Y-109982000D01*
X199263000Y-149098000D01*
X199263000Y-149098000D01*
G37*
X199263000Y-149098000D02*
X188331791Y-149098000D01*
X188331791Y-147727712D01*
X187325000Y-146720921D01*
X187289079Y-146756842D01*
X187289079Y-146685000D01*
X186282288Y-145678209D01*
X186055000Y-145709629D01*
X185827712Y-145678209D01*
X184820921Y-146685000D01*
X185827712Y-147691791D01*
X186055000Y-147660370D01*
X186282288Y-147691791D01*
X187289079Y-146685000D01*
X187289079Y-146756842D01*
X186318209Y-147727712D01*
X186363067Y-148052200D01*
X186959494Y-148316244D01*
X187611567Y-148331946D01*
X188220013Y-148096915D01*
X188286933Y-148052200D01*
X188331791Y-147727712D01*
X188331791Y-149098000D01*
X185791791Y-149098000D01*
X185791791Y-147727712D01*
X184785000Y-146720921D01*
X183778209Y-147727712D01*
X183823067Y-148052200D01*
X184419494Y-148316244D01*
X185071567Y-148331946D01*
X185680013Y-148096915D01*
X185746933Y-148052200D01*
X185791791Y-147727712D01*
X185791791Y-149098000D01*
X177927000Y-149098000D01*
X177927000Y-141824446D01*
X179243223Y-140508223D01*
X179490994Y-140137407D01*
X179578000Y-139700000D01*
X179578000Y-138613390D01*
X179603400Y-138623937D01*
X179603400Y-139700000D01*
X179659470Y-139981885D01*
X179819145Y-140220855D01*
X180244271Y-140645981D01*
X180224671Y-140693184D01*
X180224190Y-141244398D01*
X180434686Y-141753837D01*
X180824113Y-142143944D01*
X181055381Y-142239974D01*
X180826163Y-142334686D01*
X180436056Y-142724113D01*
X180224671Y-143233184D01*
X180224190Y-143784398D01*
X180434686Y-144293837D01*
X180824113Y-144683944D01*
X181333184Y-144895329D01*
X181884398Y-144895810D01*
X182393837Y-144685314D01*
X182783944Y-144295887D01*
X182995329Y-143786816D01*
X182995810Y-143235602D01*
X182785314Y-142726163D01*
X182395887Y-142336056D01*
X182164618Y-142240025D01*
X182393837Y-142145314D01*
X182783944Y-141755887D01*
X182995329Y-141246816D01*
X182995810Y-140695602D01*
X182785314Y-140186163D01*
X182395887Y-139796056D01*
X181886816Y-139584671D01*
X181335602Y-139584190D01*
X181286279Y-139604569D01*
X181076600Y-139394890D01*
X181076600Y-138624164D01*
X181264655Y-138546462D01*
X181610000Y-138201718D01*
X181610000Y-138352833D01*
X181745342Y-138679578D01*
X181995422Y-138929658D01*
X182322167Y-139065000D01*
X182675833Y-139065000D01*
X187077350Y-139065000D01*
X187299600Y-138842750D01*
X187299600Y-130327400D01*
X181832250Y-130327400D01*
X181610000Y-130549650D01*
X181610000Y-136118679D01*
X181267073Y-135775154D01*
X180666547Y-135525794D01*
X180016306Y-135525226D01*
X179578000Y-135706330D01*
X179578000Y-128727945D01*
X179915241Y-128878053D01*
X180666273Y-128897643D01*
X181367634Y-128628334D01*
X181451126Y-128572547D01*
X181526276Y-128222200D01*
X181610000Y-128305924D01*
X181610000Y-130054350D01*
X181832250Y-130276600D01*
X187299600Y-130276600D01*
X187299600Y-130256600D01*
X187350400Y-130256600D01*
X187350400Y-130276600D01*
X187370400Y-130276600D01*
X187370400Y-130327400D01*
X187350400Y-130327400D01*
X187350400Y-138842750D01*
X187572650Y-139065000D01*
X191423554Y-139065000D01*
X190513581Y-139974972D01*
X190433143Y-139921225D01*
X189865000Y-139808214D01*
X189296857Y-139921225D01*
X188815208Y-140243052D01*
X188729199Y-140371773D01*
X188536437Y-140092213D01*
X187966879Y-139723566D01*
X187622040Y-139626503D01*
X187350400Y-139823403D01*
X187350400Y-142214600D01*
X187370400Y-142214600D01*
X187370400Y-142265400D01*
X187350400Y-142265400D01*
X187350400Y-144656597D01*
X187622040Y-144853497D01*
X187966879Y-144756434D01*
X188536437Y-144387787D01*
X188722000Y-144118667D01*
X188722000Y-145767665D01*
X188692200Y-145723067D01*
X188367712Y-145678209D01*
X188331791Y-145714130D01*
X188331791Y-145642288D01*
X188286933Y-145317800D01*
X187690506Y-145053756D01*
X187299600Y-145044342D01*
X187299600Y-144656597D01*
X187299600Y-142265400D01*
X187279600Y-142265400D01*
X187279600Y-142214600D01*
X187299600Y-142214600D01*
X187299600Y-139823403D01*
X187027960Y-139626503D01*
X186683121Y-139723566D01*
X186113563Y-140092213D01*
X185920800Y-140371773D01*
X185834792Y-140243052D01*
X185353143Y-139921225D01*
X184785000Y-139808214D01*
X184216857Y-139921225D01*
X183735208Y-140243052D01*
X183413381Y-140724701D01*
X183300370Y-141292844D01*
X183300370Y-143187156D01*
X183413381Y-143755299D01*
X183471409Y-143842144D01*
X182014325Y-145299228D01*
X181970602Y-145299190D01*
X181461163Y-145509686D01*
X181071056Y-145899113D01*
X180859671Y-146408184D01*
X180859190Y-146959398D01*
X181069686Y-147468837D01*
X181459113Y-147858944D01*
X181968184Y-148070329D01*
X182519398Y-148070810D01*
X183028837Y-147860314D01*
X183355425Y-147534295D01*
X183373085Y-147580013D01*
X183417800Y-147646933D01*
X183742288Y-147691791D01*
X184749079Y-146685000D01*
X184734936Y-146670857D01*
X184770857Y-146634936D01*
X184785000Y-146649079D01*
X185791791Y-145642288D01*
X185746933Y-145317800D01*
X185387687Y-145158758D01*
X185593223Y-144953223D01*
X185840994Y-144582407D01*
X185928000Y-144145000D01*
X185928000Y-144118667D01*
X186113563Y-144387787D01*
X186683121Y-144756434D01*
X187027960Y-144853497D01*
X187299600Y-144656597D01*
X187299600Y-145044342D01*
X187038433Y-145038054D01*
X186429987Y-145273085D01*
X186363067Y-145317800D01*
X186318209Y-145642288D01*
X187325000Y-146649079D01*
X188331791Y-145642288D01*
X188331791Y-145714130D01*
X187360921Y-146685000D01*
X188367712Y-147691791D01*
X188692200Y-147646933D01*
X188746048Y-147525298D01*
X189079113Y-147858944D01*
X189588184Y-148070329D01*
X190139398Y-148070810D01*
X190648837Y-147860314D01*
X191038944Y-147470887D01*
X191250329Y-146961816D01*
X191250810Y-146410602D01*
X191040314Y-145901163D01*
X191008000Y-145868792D01*
X191008000Y-144097452D01*
X191236619Y-143755299D01*
X191349630Y-143187156D01*
X191349630Y-142371816D01*
X197383400Y-136338046D01*
X197383400Y-141574890D01*
X197045036Y-141913253D01*
X195726218Y-141365632D01*
X194280126Y-141364370D01*
X192943628Y-141916600D01*
X191920194Y-142938249D01*
X191365632Y-144273782D01*
X191364370Y-145719874D01*
X191916600Y-147056372D01*
X192938249Y-148079806D01*
X194273782Y-148634368D01*
X195719874Y-148635630D01*
X197056372Y-148083400D01*
X198079806Y-147061751D01*
X198634368Y-145726218D01*
X198635630Y-144280126D01*
X198087692Y-142954017D01*
X198640855Y-142400855D01*
X198800530Y-142161885D01*
X198856600Y-141880000D01*
X198856600Y-109982000D01*
X199263000Y-109982000D01*
X199263000Y-149098000D01*
G36*
X119430063Y-128919142D02*
X119394142Y-128955063D01*
X119380000Y-128940921D01*
X118373209Y-129947712D01*
X118418067Y-130272200D01*
X118590760Y-130348652D01*
X118250173Y-130688647D01*
X118109906Y-131026446D01*
X117983000Y-130719308D01*
X117983000Y-129822334D01*
X118012800Y-129866933D01*
X118337288Y-129911791D01*
X119344079Y-128905000D01*
X119329936Y-128890857D01*
X119365857Y-128854936D01*
X119380000Y-128869079D01*
X119394142Y-128854936D01*
X119430063Y-128890857D01*
X119415921Y-128905000D01*
X119430063Y-128919142D01*
X119430063Y-128919142D01*
G37*
X119430063Y-128919142D02*
X119394142Y-128955063D01*
X119380000Y-128940921D01*
X118373209Y-129947712D01*
X118418067Y-130272200D01*
X118590760Y-130348652D01*
X118250173Y-130688647D01*
X118109906Y-131026446D01*
X117983000Y-130719308D01*
X117983000Y-129822334D01*
X118012800Y-129866933D01*
X118337288Y-129911791D01*
X119344079Y-128905000D01*
X119329936Y-128890857D01*
X119365857Y-128854936D01*
X119380000Y-128869079D01*
X119394142Y-128854936D01*
X119430063Y-128890857D01*
X119415921Y-128905000D01*
X119430063Y-128919142D01*
G36*
X133248400Y-129385002D02*
X133086791Y-129546329D01*
X133070378Y-129562714D01*
X132905687Y-129959332D01*
X132905316Y-130384257D01*
X132836353Y-130315173D01*
X132346413Y-130111732D01*
X132096750Y-130111514D01*
X132096750Y-126725602D01*
X131886254Y-126216163D01*
X131496827Y-125826056D01*
X130987756Y-125614671D01*
X130436542Y-125614190D01*
X129927103Y-125824686D01*
X129536996Y-126214113D01*
X129325611Y-126723184D01*
X129325130Y-127274398D01*
X129535626Y-127783837D01*
X129925053Y-128173944D01*
X130434124Y-128385329D01*
X130985338Y-128385810D01*
X131494777Y-128175314D01*
X131884884Y-127785887D01*
X132096269Y-127276816D01*
X132096750Y-126725602D01*
X132096750Y-130111514D01*
X131815914Y-130111269D01*
X131325620Y-130313854D01*
X130950173Y-130688647D01*
X130809906Y-131026446D01*
X130671146Y-130690620D01*
X130296353Y-130315173D01*
X129806413Y-130111732D01*
X129275914Y-130111269D01*
X128785620Y-130313854D01*
X128410173Y-130688647D01*
X128269906Y-131026446D01*
X128131146Y-130690620D01*
X127756353Y-130315173D01*
X127266413Y-130111732D01*
X126735914Y-130111269D01*
X126262660Y-130306813D01*
X126250855Y-130289145D01*
X125615855Y-129654145D01*
X125376885Y-129494470D01*
X125095000Y-129438400D01*
X124130110Y-129438400D01*
X122656600Y-127964890D01*
X122656600Y-126670110D01*
X126885855Y-122440855D01*
X127045530Y-122201885D01*
X127101600Y-121920000D01*
X127101600Y-121844831D01*
X127148837Y-121825314D01*
X127538944Y-121435887D01*
X127750329Y-120926816D01*
X127750810Y-120375602D01*
X127540314Y-119866163D01*
X127156421Y-119481600D01*
X128270000Y-119481600D01*
X128551885Y-119425530D01*
X128790855Y-119265855D01*
X129562704Y-118494005D01*
X129654145Y-118630855D01*
X131934746Y-120911456D01*
X131793433Y-120908054D01*
X131184987Y-121143085D01*
X131118067Y-121187800D01*
X131073209Y-121512288D01*
X132080000Y-122519079D01*
X132094142Y-122504936D01*
X132130063Y-122540857D01*
X132115921Y-122555000D01*
X132130063Y-122569142D01*
X132094142Y-122605063D01*
X132080000Y-122590921D01*
X132044079Y-122626842D01*
X132044079Y-122555000D01*
X131037288Y-121548209D01*
X130712800Y-121593067D01*
X130658951Y-121714701D01*
X130325887Y-121381056D01*
X129816816Y-121169671D01*
X129265602Y-121169190D01*
X128756163Y-121379686D01*
X128366056Y-121769113D01*
X128154671Y-122278184D01*
X128154190Y-122829398D01*
X128364686Y-123338837D01*
X128406562Y-123380787D01*
X126153078Y-125634271D01*
X126105876Y-125614671D01*
X125554662Y-125614190D01*
X125045223Y-125824686D01*
X124655116Y-126214113D01*
X124443731Y-126723184D01*
X124443250Y-127274398D01*
X124653746Y-127783837D01*
X125043173Y-128173944D01*
X125552244Y-128385329D01*
X126103458Y-128385810D01*
X126612897Y-128175314D01*
X127003004Y-127785887D01*
X127214389Y-127276816D01*
X127214870Y-126725602D01*
X127194490Y-126676279D01*
X130011331Y-123859438D01*
X130323837Y-123730314D01*
X130650425Y-123404295D01*
X130668085Y-123450013D01*
X130712800Y-123516933D01*
X131037288Y-123561791D01*
X132044079Y-122555000D01*
X132044079Y-122626842D01*
X131073209Y-123597712D01*
X131118067Y-123922200D01*
X131714494Y-124186244D01*
X132366567Y-124201946D01*
X132975013Y-123966915D01*
X133041933Y-123922200D01*
X133086790Y-123597714D01*
X133086791Y-123597715D01*
X133242343Y-123753267D01*
X133248400Y-123747210D01*
X133248400Y-129385002D01*
X133248400Y-129385002D01*
G37*
X133248400Y-129385002D02*
X133086791Y-129546329D01*
X133070378Y-129562714D01*
X132905687Y-129959332D01*
X132905316Y-130384257D01*
X132836353Y-130315173D01*
X132346413Y-130111732D01*
X132096750Y-130111514D01*
X132096750Y-126725602D01*
X131886254Y-126216163D01*
X131496827Y-125826056D01*
X130987756Y-125614671D01*
X130436542Y-125614190D01*
X129927103Y-125824686D01*
X129536996Y-126214113D01*
X129325611Y-126723184D01*
X129325130Y-127274398D01*
X129535626Y-127783837D01*
X129925053Y-128173944D01*
X130434124Y-128385329D01*
X130985338Y-128385810D01*
X131494777Y-128175314D01*
X131884884Y-127785887D01*
X132096269Y-127276816D01*
X132096750Y-126725602D01*
X132096750Y-130111514D01*
X131815914Y-130111269D01*
X131325620Y-130313854D01*
X130950173Y-130688647D01*
X130809906Y-131026446D01*
X130671146Y-130690620D01*
X130296353Y-130315173D01*
X129806413Y-130111732D01*
X129275914Y-130111269D01*
X128785620Y-130313854D01*
X128410173Y-130688647D01*
X128269906Y-131026446D01*
X128131146Y-130690620D01*
X127756353Y-130315173D01*
X127266413Y-130111732D01*
X126735914Y-130111269D01*
X126262660Y-130306813D01*
X126250855Y-130289145D01*
X125615855Y-129654145D01*
X125376885Y-129494470D01*
X125095000Y-129438400D01*
X124130110Y-129438400D01*
X122656600Y-127964890D01*
X122656600Y-126670110D01*
X126885855Y-122440855D01*
X127045530Y-122201885D01*
X127101600Y-121920000D01*
X127101600Y-121844831D01*
X127148837Y-121825314D01*
X127538944Y-121435887D01*
X127750329Y-120926816D01*
X127750810Y-120375602D01*
X127540314Y-119866163D01*
X127156421Y-119481600D01*
X128270000Y-119481600D01*
X128551885Y-119425530D01*
X128790855Y-119265855D01*
X129562704Y-118494005D01*
X129654145Y-118630855D01*
X131934746Y-120911456D01*
X131793433Y-120908054D01*
X131184987Y-121143085D01*
X131118067Y-121187800D01*
X131073209Y-121512288D01*
X132080000Y-122519079D01*
X132094142Y-122504936D01*
X132130063Y-122540857D01*
X132115921Y-122555000D01*
X132130063Y-122569142D01*
X132094142Y-122605063D01*
X132080000Y-122590921D01*
X132044079Y-122626842D01*
X132044079Y-122555000D01*
X131037288Y-121548209D01*
X130712800Y-121593067D01*
X130658951Y-121714701D01*
X130325887Y-121381056D01*
X129816816Y-121169671D01*
X129265602Y-121169190D01*
X128756163Y-121379686D01*
X128366056Y-121769113D01*
X128154671Y-122278184D01*
X128154190Y-122829398D01*
X128364686Y-123338837D01*
X128406562Y-123380787D01*
X126153078Y-125634271D01*
X126105876Y-125614671D01*
X125554662Y-125614190D01*
X125045223Y-125824686D01*
X124655116Y-126214113D01*
X124443731Y-126723184D01*
X124443250Y-127274398D01*
X124653746Y-127783837D01*
X125043173Y-128173944D01*
X125552244Y-128385329D01*
X126103458Y-128385810D01*
X126612897Y-128175314D01*
X127003004Y-127785887D01*
X127214389Y-127276816D01*
X127214870Y-126725602D01*
X127194490Y-126676279D01*
X130011331Y-123859438D01*
X130323837Y-123730314D01*
X130650425Y-123404295D01*
X130668085Y-123450013D01*
X130712800Y-123516933D01*
X131037288Y-123561791D01*
X132044079Y-122555000D01*
X132044079Y-122626842D01*
X131073209Y-123597712D01*
X131118067Y-123922200D01*
X131714494Y-124186244D01*
X132366567Y-124201946D01*
X132975013Y-123966915D01*
X133041933Y-123922200D01*
X133086790Y-123597714D01*
X133086791Y-123597715D01*
X133242343Y-123753267D01*
X133248400Y-123747210D01*
X133248400Y-129385002D01*
G36*
X135940063Y-124474142D02*
X135904142Y-124510063D01*
X135890000Y-124495921D01*
X135875857Y-124510063D01*
X135839936Y-124474142D01*
X135854079Y-124460000D01*
X135839936Y-124445857D01*
X135875857Y-124409936D01*
X135890000Y-124424079D01*
X135904142Y-124409936D01*
X135940063Y-124445857D01*
X135925921Y-124460000D01*
X135940063Y-124474142D01*
X135940063Y-124474142D01*
G37*
X135940063Y-124474142D02*
X135904142Y-124510063D01*
X135890000Y-124495921D01*
X135875857Y-124510063D01*
X135839936Y-124474142D01*
X135854079Y-124460000D01*
X135839936Y-124445857D01*
X135875857Y-124409936D01*
X135890000Y-124424079D01*
X135904142Y-124409936D01*
X135940063Y-124445857D01*
X135925921Y-124460000D01*
X135940063Y-124474142D01*
G36*
X137030358Y-147447000D02*
X133674504Y-147447000D01*
X133674504Y-138786739D01*
X133446644Y-138197729D01*
X133404244Y-138134276D01*
X133085166Y-138095755D01*
X133049245Y-138131676D01*
X133049245Y-138059834D01*
X133010724Y-137740756D01*
X132433110Y-137485385D01*
X131801739Y-137470496D01*
X131212729Y-137698356D01*
X131149276Y-137740756D01*
X131110755Y-138059834D01*
X132080000Y-139029079D01*
X133049245Y-138059834D01*
X133049245Y-138131676D01*
X132115921Y-139065000D01*
X133085166Y-140034245D01*
X133404244Y-139995724D01*
X133659615Y-139418110D01*
X133674504Y-138786739D01*
X133674504Y-147447000D01*
X123164600Y-147447000D01*
X123164600Y-146310350D01*
X123164600Y-144805400D01*
X121659650Y-144805400D01*
X121437400Y-145027650D01*
X121437400Y-145466767D01*
X121437400Y-145820433D01*
X121572742Y-146147178D01*
X121822822Y-146397258D01*
X122149567Y-146532600D01*
X122942350Y-146532600D01*
X123164600Y-146310350D01*
X123164600Y-147447000D01*
X112233446Y-147447000D01*
X111319046Y-146532600D01*
X111512350Y-146532600D01*
X111734600Y-146310350D01*
X111734600Y-144805400D01*
X111714600Y-144805400D01*
X111714600Y-144754600D01*
X111734600Y-144754600D01*
X111734600Y-143249650D01*
X111512350Y-143027400D01*
X110719567Y-143027400D01*
X110392822Y-143162742D01*
X110363000Y-143192564D01*
X110363000Y-142875000D01*
X110275994Y-142437593D01*
X110028223Y-142066777D01*
X108123223Y-140161777D01*
X107752407Y-139914006D01*
X107315000Y-139827000D01*
X103378000Y-139827000D01*
X103378000Y-138466249D01*
X103840602Y-138658339D01*
X104436782Y-138658859D01*
X104987780Y-138431192D01*
X105409710Y-138009997D01*
X105410095Y-138009069D01*
X105830003Y-138429710D01*
X106380602Y-138658339D01*
X106976782Y-138658859D01*
X107527780Y-138431192D01*
X107747187Y-138212166D01*
X107818073Y-138383298D01*
X107996701Y-138561927D01*
X108230090Y-138658600D01*
X108482709Y-138658600D01*
X110209909Y-138658600D01*
X110443298Y-138561927D01*
X110621927Y-138383299D01*
X110718600Y-138149910D01*
X110718600Y-137897291D01*
X110718600Y-136170091D01*
X110621927Y-135936702D01*
X110443299Y-135758073D01*
X110209910Y-135661400D01*
X109957291Y-135661400D01*
X109956600Y-135661400D01*
X109956600Y-127635000D01*
X109900530Y-127353115D01*
X109740855Y-127114145D01*
X108338457Y-125711747D01*
X108338457Y-122266609D01*
X108101852Y-121653898D01*
X108056629Y-121586216D01*
X107730954Y-121539967D01*
X106715921Y-122555000D01*
X107730954Y-123570033D01*
X108056629Y-123523784D01*
X108322577Y-122923226D01*
X108338457Y-122266609D01*
X108338457Y-125711747D01*
X108054473Y-125427763D01*
X108076757Y-125374100D01*
X108077242Y-124818339D01*
X107865010Y-124304697D01*
X107549802Y-123988938D01*
X107581102Y-123976852D01*
X107648784Y-123931629D01*
X107695033Y-123605954D01*
X106680000Y-122590921D01*
X106644079Y-122626842D01*
X106644079Y-122555000D01*
X105629046Y-121539967D01*
X105410000Y-121571073D01*
X105190954Y-121539967D01*
X104175921Y-122555000D01*
X105190954Y-123570033D01*
X105410000Y-123538926D01*
X105629046Y-123570033D01*
X106644079Y-122555000D01*
X106644079Y-122626842D01*
X105664967Y-123605954D01*
X105711216Y-123931629D01*
X105819835Y-123979729D01*
X105496371Y-124302630D01*
X105410050Y-124510512D01*
X105325010Y-124304697D01*
X105009802Y-123988938D01*
X105041102Y-123976852D01*
X105108784Y-123931629D01*
X105155033Y-123605954D01*
X104140000Y-122590921D01*
X104104079Y-122626842D01*
X104104079Y-122555000D01*
X103089046Y-121539967D01*
X102763371Y-121586216D01*
X102497423Y-122186774D01*
X102481543Y-122843391D01*
X102718148Y-123456102D01*
X102763371Y-123523784D01*
X103089046Y-123570033D01*
X104104079Y-122555000D01*
X104104079Y-122626842D01*
X103124967Y-123605954D01*
X103171216Y-123931629D01*
X103279835Y-123979729D01*
X102956371Y-124302630D01*
X102743243Y-124815900D01*
X102742758Y-125371661D01*
X102954990Y-125885303D01*
X103347630Y-126278629D01*
X103555512Y-126364949D01*
X103349697Y-126449990D01*
X102956371Y-126842630D01*
X102743243Y-127355900D01*
X102743191Y-127415362D01*
X101426777Y-128731777D01*
X101179006Y-129102593D01*
X101092000Y-129540000D01*
X101092000Y-140335000D01*
X101179006Y-140772407D01*
X101426777Y-141143223D01*
X102061777Y-141778223D01*
X102432593Y-142025994D01*
X102536195Y-142046601D01*
X102371363Y-142335442D01*
X105000000Y-144964079D01*
X105014142Y-144949936D01*
X105050063Y-144985857D01*
X105035921Y-145000000D01*
X107664558Y-147628637D01*
X108222770Y-147310083D01*
X108422651Y-146869097D01*
X110651554Y-149098000D01*
X107628637Y-149098000D01*
X107628637Y-147664558D01*
X105000000Y-145035921D01*
X104964079Y-145071842D01*
X104964079Y-145000000D01*
X102335442Y-142371363D01*
X101777230Y-142689917D01*
X101138518Y-144099063D01*
X101087682Y-145645367D01*
X101632461Y-147093421D01*
X101777230Y-147310083D01*
X102335442Y-147628637D01*
X104964079Y-145000000D01*
X104964079Y-145071842D01*
X102371363Y-147664558D01*
X102689917Y-148222770D01*
X104099063Y-148861482D01*
X105645367Y-148912318D01*
X107093421Y-148367539D01*
X107310083Y-148222770D01*
X107628637Y-147664558D01*
X107628637Y-149098000D01*
X100685000Y-149098000D01*
X100685000Y-110556446D01*
X102997000Y-112868446D01*
X102997000Y-118735974D01*
X102839673Y-118893301D01*
X102743000Y-119126690D01*
X102743000Y-119379309D01*
X102743000Y-120903309D01*
X102839673Y-121136698D01*
X103018301Y-121315327D01*
X103144352Y-121367539D01*
X103124967Y-121504046D01*
X104140000Y-122519079D01*
X105155033Y-121504046D01*
X105135647Y-121367538D01*
X105261698Y-121315327D01*
X105440327Y-121136699D01*
X105537000Y-120903310D01*
X105537000Y-120847386D01*
X105810197Y-121121061D01*
X105778898Y-121133148D01*
X105711216Y-121178371D01*
X105664967Y-121504046D01*
X106680000Y-122519079D01*
X107695033Y-121504046D01*
X107648784Y-121178371D01*
X107540164Y-121130270D01*
X107863629Y-120807370D01*
X108076757Y-120294100D01*
X108077242Y-119738339D01*
X107865010Y-119224697D01*
X107472370Y-118831371D01*
X106959100Y-118618243D01*
X106403339Y-118617758D01*
X105889697Y-118829990D01*
X105537000Y-119182071D01*
X105537000Y-119126691D01*
X105440327Y-118893302D01*
X105283000Y-118735974D01*
X105283000Y-112395000D01*
X105195994Y-111957593D01*
X104948223Y-111586777D01*
X102108000Y-108746554D01*
X102108000Y-107498843D01*
X102335442Y-107628637D01*
X104964079Y-105000000D01*
X104949936Y-104985857D01*
X104985857Y-104949936D01*
X105000000Y-104964079D01*
X105014142Y-104949936D01*
X105050063Y-104985857D01*
X105035921Y-105000000D01*
X107664558Y-107628637D01*
X108222770Y-107310083D01*
X108418894Y-106877387D01*
X108443085Y-106940013D01*
X108487800Y-107006933D01*
X108812288Y-107051791D01*
X109819079Y-106045000D01*
X109804936Y-106030857D01*
X109840857Y-105994936D01*
X109855000Y-106009079D01*
X109869142Y-105994936D01*
X109905063Y-106030857D01*
X109890921Y-106045000D01*
X109905063Y-106059142D01*
X109869142Y-106095063D01*
X109855000Y-106080921D01*
X108848209Y-107087712D01*
X108893067Y-107412200D01*
X109274984Y-107581278D01*
X108933433Y-107573054D01*
X108324987Y-107808085D01*
X108258067Y-107852800D01*
X108213209Y-108177288D01*
X109220000Y-109184079D01*
X110226791Y-108177288D01*
X110181933Y-107852800D01*
X109800015Y-107683721D01*
X110141567Y-107691946D01*
X110750013Y-107456915D01*
X110816933Y-107412200D01*
X110846165Y-107200743D01*
X110882213Y-107256437D01*
X111161773Y-107449199D01*
X111033052Y-107535208D01*
X110711225Y-108016857D01*
X110643809Y-108355778D01*
X110631915Y-108324987D01*
X110587200Y-108258067D01*
X110262712Y-108213209D01*
X109255921Y-109220000D01*
X110262712Y-110226791D01*
X110587200Y-110181933D01*
X110851244Y-109585506D01*
X110856422Y-109370447D01*
X111033052Y-109634792D01*
X111437569Y-109905081D01*
X111339006Y-110052593D01*
X111252000Y-110490000D01*
X111252000Y-110943222D01*
X111221056Y-110974113D01*
X111009671Y-111483184D01*
X111009190Y-112034398D01*
X111219686Y-112543837D01*
X111609113Y-112933944D01*
X112118184Y-113145329D01*
X112163922Y-113145368D01*
X112522000Y-113503446D01*
X112522000Y-114871500D01*
X112332191Y-114871500D01*
X110935191Y-114871500D01*
X110701802Y-114968173D01*
X110605810Y-115064164D01*
X110605810Y-111485602D01*
X110395314Y-110976163D01*
X110069295Y-110649574D01*
X110115013Y-110631915D01*
X110181933Y-110587200D01*
X110226791Y-110262712D01*
X109220000Y-109255921D01*
X109184079Y-109291842D01*
X109184079Y-109220000D01*
X108177288Y-108213209D01*
X107852800Y-108258067D01*
X107628637Y-108764410D01*
X107628637Y-107664558D01*
X105000000Y-105035921D01*
X102371363Y-107664558D01*
X102689917Y-108222770D01*
X104099063Y-108861482D01*
X105645367Y-108912318D01*
X107093421Y-108367539D01*
X107310083Y-108222770D01*
X107628637Y-107664558D01*
X107628637Y-108764410D01*
X107588756Y-108854494D01*
X107573054Y-109506567D01*
X107808085Y-110115013D01*
X107852800Y-110181933D01*
X108177288Y-110226791D01*
X109184079Y-109220000D01*
X109184079Y-109291842D01*
X108213209Y-110262712D01*
X108258067Y-110587200D01*
X108379701Y-110641048D01*
X108046056Y-110974113D01*
X107834671Y-111483184D01*
X107834190Y-112034398D01*
X108044686Y-112543837D01*
X108434113Y-112933944D01*
X108943184Y-113145329D01*
X109494398Y-113145810D01*
X110003837Y-112935314D01*
X110393944Y-112545887D01*
X110605329Y-112036816D01*
X110605810Y-111485602D01*
X110605810Y-115064164D01*
X110523173Y-115146801D01*
X110426500Y-115380190D01*
X110426500Y-115632809D01*
X110426500Y-117029809D01*
X110523173Y-117263198D01*
X110701801Y-117441827D01*
X110820782Y-117491110D01*
X110790755Y-117739834D01*
X111760000Y-118709079D01*
X111774142Y-118694936D01*
X111810063Y-118730857D01*
X111795921Y-118745000D01*
X111810063Y-118759142D01*
X111774142Y-118795063D01*
X111760000Y-118780921D01*
X111724079Y-118816842D01*
X111724079Y-118745000D01*
X110754834Y-117775755D01*
X110435756Y-117814276D01*
X110180385Y-118391890D01*
X110165496Y-119023261D01*
X110393356Y-119612271D01*
X110435756Y-119675724D01*
X110754834Y-119714245D01*
X111724079Y-118745000D01*
X111724079Y-118816842D01*
X110790755Y-119750166D01*
X110829276Y-120069244D01*
X111013390Y-120150643D01*
X111005620Y-120153854D01*
X110630173Y-120528647D01*
X110426732Y-121018587D01*
X110426269Y-121549086D01*
X110628854Y-122039380D01*
X111003647Y-122414827D01*
X111341446Y-122555093D01*
X111005620Y-122693854D01*
X110630173Y-123068647D01*
X110426732Y-123558587D01*
X110426269Y-124089086D01*
X110628854Y-124579380D01*
X111003647Y-124954827D01*
X111493587Y-125158268D01*
X112024086Y-125158731D01*
X112043853Y-125150563D01*
X112258679Y-125365389D01*
X112071306Y-125365226D01*
X111470345Y-125613538D01*
X111010154Y-126072927D01*
X110760794Y-126673453D01*
X110760226Y-127323694D01*
X111008538Y-127924655D01*
X111467927Y-128384846D01*
X112068453Y-128634206D01*
X112409100Y-128634503D01*
X112115378Y-128927714D01*
X111950687Y-129324332D01*
X111950313Y-129753784D01*
X112114311Y-130150689D01*
X112417714Y-130454622D01*
X112814332Y-130619313D01*
X113067823Y-130619533D01*
X113563400Y-131115110D01*
X113563400Y-135255000D01*
X113619470Y-135536885D01*
X113779145Y-135775855D01*
X114833400Y-136830110D01*
X114833400Y-140461902D01*
X114592073Y-140220154D01*
X114029774Y-139986667D01*
X114029774Y-136836306D01*
X113781462Y-136235345D01*
X113322073Y-135775154D01*
X112721547Y-135525794D01*
X112071306Y-135525226D01*
X111470345Y-135773538D01*
X111010154Y-136232927D01*
X110760794Y-136833453D01*
X110760226Y-137483694D01*
X111008538Y-138084655D01*
X111467927Y-138544846D01*
X112068453Y-138794206D01*
X112718694Y-138794774D01*
X113319655Y-138546462D01*
X113779846Y-138087073D01*
X114029206Y-137486547D01*
X114029774Y-136836306D01*
X114029774Y-139986667D01*
X113991547Y-139970794D01*
X113341306Y-139970226D01*
X112740345Y-140218538D01*
X112280154Y-140677927D01*
X112030794Y-141278453D01*
X112030226Y-141928694D01*
X112278538Y-142529655D01*
X112737927Y-142989846D01*
X113338453Y-143239206D01*
X113988694Y-143239774D01*
X114589655Y-142991462D01*
X114833400Y-142748141D01*
X114833400Y-143204890D01*
X114685958Y-143352331D01*
X114329359Y-143281400D01*
X114270641Y-143281400D01*
X113697152Y-143395474D01*
X113440974Y-143566646D01*
X113377258Y-143412822D01*
X113127178Y-143162742D01*
X112800433Y-143027400D01*
X112007650Y-143027400D01*
X111785400Y-143249650D01*
X111785400Y-144754600D01*
X111805400Y-144754600D01*
X111805400Y-144805400D01*
X111785400Y-144805400D01*
X111785400Y-146310350D01*
X112007650Y-146532600D01*
X112800433Y-146532600D01*
X113127178Y-146397258D01*
X113377258Y-146147178D01*
X113440974Y-145993353D01*
X113697152Y-146164526D01*
X114270641Y-146278600D01*
X114329359Y-146278600D01*
X114902848Y-146164526D01*
X115389029Y-145839670D01*
X115570000Y-145568827D01*
X115750971Y-145839670D01*
X116237152Y-146164526D01*
X116810641Y-146278600D01*
X116869359Y-146278600D01*
X117442848Y-146164526D01*
X117929029Y-145839670D01*
X118110000Y-145568827D01*
X118290971Y-145839670D01*
X118777152Y-146164526D01*
X119350641Y-146278600D01*
X119409359Y-146278600D01*
X119982848Y-146164526D01*
X120469029Y-145839670D01*
X120793885Y-145353489D01*
X120907959Y-144780000D01*
X120793885Y-144206511D01*
X120469029Y-143720330D01*
X119982848Y-143395474D01*
X119409359Y-143281400D01*
X119350641Y-143281400D01*
X118846600Y-143381659D01*
X118846600Y-140287405D01*
X119113587Y-140398268D01*
X119644086Y-140398731D01*
X120134380Y-140196146D01*
X120509827Y-139821353D01*
X120650093Y-139483553D01*
X120788854Y-139819380D01*
X121163647Y-140194827D01*
X121653587Y-140398268D01*
X122184086Y-140398731D01*
X122674380Y-140196146D01*
X122682000Y-140188539D01*
X122682000Y-140436502D01*
X122440154Y-140677927D01*
X122190794Y-141278453D01*
X122190226Y-141928694D01*
X122438538Y-142529655D01*
X122897927Y-142989846D01*
X123164598Y-143100577D01*
X123164598Y-143249648D01*
X122942350Y-143027400D01*
X122149567Y-143027400D01*
X121822822Y-143162742D01*
X121572742Y-143412822D01*
X121437400Y-143739567D01*
X121437400Y-144093233D01*
X121437400Y-144532350D01*
X121659650Y-144754600D01*
X123164600Y-144754600D01*
X123164600Y-144734600D01*
X123215400Y-144734600D01*
X123215400Y-144754600D01*
X123235400Y-144754600D01*
X123235400Y-144805400D01*
X123215400Y-144805400D01*
X123215400Y-146310350D01*
X123437650Y-146532600D01*
X124230433Y-146532600D01*
X124557178Y-146397258D01*
X124807258Y-146147178D01*
X124870974Y-145993353D01*
X125127152Y-146164526D01*
X125700641Y-146278600D01*
X125759359Y-146278600D01*
X126332848Y-146164526D01*
X126819029Y-145839670D01*
X127000000Y-145568827D01*
X127180971Y-145839670D01*
X127667152Y-146164526D01*
X128240641Y-146278600D01*
X128299359Y-146278600D01*
X128872848Y-146164526D01*
X129359029Y-145839670D01*
X129540000Y-145568827D01*
X129720971Y-145839670D01*
X130207152Y-146164526D01*
X130780641Y-146278600D01*
X130839359Y-146278600D01*
X131412848Y-146164526D01*
X131899029Y-145839670D01*
X132223885Y-145353489D01*
X132337959Y-144780000D01*
X132223885Y-144206511D01*
X131953000Y-143801103D01*
X131953000Y-143510000D01*
X131889532Y-143190927D01*
X132340013Y-143016915D01*
X132406933Y-142972200D01*
X132451791Y-142647712D01*
X131445000Y-141640921D01*
X131430857Y-141655063D01*
X131394936Y-141619142D01*
X131409079Y-141605000D01*
X130402288Y-140598209D01*
X130077800Y-140643067D01*
X130023951Y-140764701D01*
X129690887Y-140431056D01*
X129612637Y-140398563D01*
X129804086Y-140398731D01*
X130294380Y-140196146D01*
X130669827Y-139821353D01*
X130670148Y-139820579D01*
X130713356Y-139932271D01*
X130755756Y-139995724D01*
X130988250Y-140023792D01*
X130549987Y-140193085D01*
X130483067Y-140237800D01*
X130438209Y-140562288D01*
X131445000Y-141569079D01*
X131459142Y-141554936D01*
X131495063Y-141590857D01*
X131480921Y-141605000D01*
X132487712Y-142611791D01*
X132812200Y-142566933D01*
X133076244Y-141970506D01*
X133091946Y-141318433D01*
X132856915Y-140709987D01*
X132812200Y-140643067D01*
X132509073Y-140601161D01*
X132947271Y-140431644D01*
X133010724Y-140389244D01*
X133049245Y-140070166D01*
X132080000Y-139100921D01*
X132065857Y-139115063D01*
X132029936Y-139079142D01*
X132044079Y-139065000D01*
X131074834Y-138095755D01*
X130755756Y-138134276D01*
X130674356Y-138318390D01*
X130671146Y-138310620D01*
X130296353Y-137935173D01*
X129806413Y-137731732D01*
X129275914Y-137731269D01*
X129256146Y-137739436D01*
X126466600Y-134949890D01*
X126466600Y-132667405D01*
X126733587Y-132778268D01*
X127264086Y-132778731D01*
X127754380Y-132576146D01*
X128129827Y-132201353D01*
X128270093Y-131863553D01*
X128408854Y-132199380D01*
X128783647Y-132574827D01*
X129273587Y-132778268D01*
X129804086Y-132778731D01*
X130294380Y-132576146D01*
X130669827Y-132201353D01*
X130810093Y-131863553D01*
X130948854Y-132199380D01*
X131323647Y-132574827D01*
X131813587Y-132778268D01*
X132344086Y-132778731D01*
X132834380Y-132576146D01*
X133209827Y-132201353D01*
X133413268Y-131711413D01*
X133413731Y-131180914D01*
X133376692Y-131091274D01*
X133769332Y-131254313D01*
X134198784Y-131254687D01*
X134514355Y-131124295D01*
X134522800Y-131136933D01*
X134847288Y-131181791D01*
X135854079Y-130175000D01*
X135839936Y-130160857D01*
X135875857Y-130124936D01*
X135890000Y-130139079D01*
X135904142Y-130124936D01*
X135940063Y-130160857D01*
X135925921Y-130175000D01*
X135940063Y-130189142D01*
X135904142Y-130225063D01*
X135890000Y-130210921D01*
X134883209Y-131217712D01*
X134928067Y-131542200D01*
X135524494Y-131806244D01*
X136176567Y-131821946D01*
X136423400Y-131726599D01*
X136423400Y-132409890D01*
X134099145Y-134734145D01*
X133939470Y-134973115D01*
X133883400Y-135255000D01*
X133883400Y-143510000D01*
X133939470Y-143791885D01*
X134099145Y-144030855D01*
X136715532Y-146647242D01*
X136715313Y-146898784D01*
X136879311Y-147295689D01*
X137030358Y-147447000D01*
X137030358Y-147447000D01*
G37*
X137030358Y-147447000D02*
X133674504Y-147447000D01*
X133674504Y-138786739D01*
X133446644Y-138197729D01*
X133404244Y-138134276D01*
X133085166Y-138095755D01*
X133049245Y-138131676D01*
X133049245Y-138059834D01*
X133010724Y-137740756D01*
X132433110Y-137485385D01*
X131801739Y-137470496D01*
X131212729Y-137698356D01*
X131149276Y-137740756D01*
X131110755Y-138059834D01*
X132080000Y-139029079D01*
X133049245Y-138059834D01*
X133049245Y-138131676D01*
X132115921Y-139065000D01*
X133085166Y-140034245D01*
X133404244Y-139995724D01*
X133659615Y-139418110D01*
X133674504Y-138786739D01*
X133674504Y-147447000D01*
X123164600Y-147447000D01*
X123164600Y-146310350D01*
X123164600Y-144805400D01*
X121659650Y-144805400D01*
X121437400Y-145027650D01*
X121437400Y-145466767D01*
X121437400Y-145820433D01*
X121572742Y-146147178D01*
X121822822Y-146397258D01*
X122149567Y-146532600D01*
X122942350Y-146532600D01*
X123164600Y-146310350D01*
X123164600Y-147447000D01*
X112233446Y-147447000D01*
X111319046Y-146532600D01*
X111512350Y-146532600D01*
X111734600Y-146310350D01*
X111734600Y-144805400D01*
X111714600Y-144805400D01*
X111714600Y-144754600D01*
X111734600Y-144754600D01*
X111734600Y-143249650D01*
X111512350Y-143027400D01*
X110719567Y-143027400D01*
X110392822Y-143162742D01*
X110363000Y-143192564D01*
X110363000Y-142875000D01*
X110275994Y-142437593D01*
X110028223Y-142066777D01*
X108123223Y-140161777D01*
X107752407Y-139914006D01*
X107315000Y-139827000D01*
X103378000Y-139827000D01*
X103378000Y-138466249D01*
X103840602Y-138658339D01*
X104436782Y-138658859D01*
X104987780Y-138431192D01*
X105409710Y-138009997D01*
X105410095Y-138009069D01*
X105830003Y-138429710D01*
X106380602Y-138658339D01*
X106976782Y-138658859D01*
X107527780Y-138431192D01*
X107747187Y-138212166D01*
X107818073Y-138383298D01*
X107996701Y-138561927D01*
X108230090Y-138658600D01*
X108482709Y-138658600D01*
X110209909Y-138658600D01*
X110443298Y-138561927D01*
X110621927Y-138383299D01*
X110718600Y-138149910D01*
X110718600Y-137897291D01*
X110718600Y-136170091D01*
X110621927Y-135936702D01*
X110443299Y-135758073D01*
X110209910Y-135661400D01*
X109957291Y-135661400D01*
X109956600Y-135661400D01*
X109956600Y-127635000D01*
X109900530Y-127353115D01*
X109740855Y-127114145D01*
X108338457Y-125711747D01*
X108338457Y-122266609D01*
X108101852Y-121653898D01*
X108056629Y-121586216D01*
X107730954Y-121539967D01*
X106715921Y-122555000D01*
X107730954Y-123570033D01*
X108056629Y-123523784D01*
X108322577Y-122923226D01*
X108338457Y-122266609D01*
X108338457Y-125711747D01*
X108054473Y-125427763D01*
X108076757Y-125374100D01*
X108077242Y-124818339D01*
X107865010Y-124304697D01*
X107549802Y-123988938D01*
X107581102Y-123976852D01*
X107648784Y-123931629D01*
X107695033Y-123605954D01*
X106680000Y-122590921D01*
X106644079Y-122626842D01*
X106644079Y-122555000D01*
X105629046Y-121539967D01*
X105410000Y-121571073D01*
X105190954Y-121539967D01*
X104175921Y-122555000D01*
X105190954Y-123570033D01*
X105410000Y-123538926D01*
X105629046Y-123570033D01*
X106644079Y-122555000D01*
X106644079Y-122626842D01*
X105664967Y-123605954D01*
X105711216Y-123931629D01*
X105819835Y-123979729D01*
X105496371Y-124302630D01*
X105410050Y-124510512D01*
X105325010Y-124304697D01*
X105009802Y-123988938D01*
X105041102Y-123976852D01*
X105108784Y-123931629D01*
X105155033Y-123605954D01*
X104140000Y-122590921D01*
X104104079Y-122626842D01*
X104104079Y-122555000D01*
X103089046Y-121539967D01*
X102763371Y-121586216D01*
X102497423Y-122186774D01*
X102481543Y-122843391D01*
X102718148Y-123456102D01*
X102763371Y-123523784D01*
X103089046Y-123570033D01*
X104104079Y-122555000D01*
X104104079Y-122626842D01*
X103124967Y-123605954D01*
X103171216Y-123931629D01*
X103279835Y-123979729D01*
X102956371Y-124302630D01*
X102743243Y-124815900D01*
X102742758Y-125371661D01*
X102954990Y-125885303D01*
X103347630Y-126278629D01*
X103555512Y-126364949D01*
X103349697Y-126449990D01*
X102956371Y-126842630D01*
X102743243Y-127355900D01*
X102743191Y-127415362D01*
X101426777Y-128731777D01*
X101179006Y-129102593D01*
X101092000Y-129540000D01*
X101092000Y-140335000D01*
X101179006Y-140772407D01*
X101426777Y-141143223D01*
X102061777Y-141778223D01*
X102432593Y-142025994D01*
X102536195Y-142046601D01*
X102371363Y-142335442D01*
X105000000Y-144964079D01*
X105014142Y-144949936D01*
X105050063Y-144985857D01*
X105035921Y-145000000D01*
X107664558Y-147628637D01*
X108222770Y-147310083D01*
X108422651Y-146869097D01*
X110651554Y-149098000D01*
X107628637Y-149098000D01*
X107628637Y-147664558D01*
X105000000Y-145035921D01*
X104964079Y-145071842D01*
X104964079Y-145000000D01*
X102335442Y-142371363D01*
X101777230Y-142689917D01*
X101138518Y-144099063D01*
X101087682Y-145645367D01*
X101632461Y-147093421D01*
X101777230Y-147310083D01*
X102335442Y-147628637D01*
X104964079Y-145000000D01*
X104964079Y-145071842D01*
X102371363Y-147664558D01*
X102689917Y-148222770D01*
X104099063Y-148861482D01*
X105645367Y-148912318D01*
X107093421Y-148367539D01*
X107310083Y-148222770D01*
X107628637Y-147664558D01*
X107628637Y-149098000D01*
X100685000Y-149098000D01*
X100685000Y-110556446D01*
X102997000Y-112868446D01*
X102997000Y-118735974D01*
X102839673Y-118893301D01*
X102743000Y-119126690D01*
X102743000Y-119379309D01*
X102743000Y-120903309D01*
X102839673Y-121136698D01*
X103018301Y-121315327D01*
X103144352Y-121367539D01*
X103124967Y-121504046D01*
X104140000Y-122519079D01*
X105155033Y-121504046D01*
X105135647Y-121367538D01*
X105261698Y-121315327D01*
X105440327Y-121136699D01*
X105537000Y-120903310D01*
X105537000Y-120847386D01*
X105810197Y-121121061D01*
X105778898Y-121133148D01*
X105711216Y-121178371D01*
X105664967Y-121504046D01*
X106680000Y-122519079D01*
X107695033Y-121504046D01*
X107648784Y-121178371D01*
X107540164Y-121130270D01*
X107863629Y-120807370D01*
X108076757Y-120294100D01*
X108077242Y-119738339D01*
X107865010Y-119224697D01*
X107472370Y-118831371D01*
X106959100Y-118618243D01*
X106403339Y-118617758D01*
X105889697Y-118829990D01*
X105537000Y-119182071D01*
X105537000Y-119126691D01*
X105440327Y-118893302D01*
X105283000Y-118735974D01*
X105283000Y-112395000D01*
X105195994Y-111957593D01*
X104948223Y-111586777D01*
X102108000Y-108746554D01*
X102108000Y-107498843D01*
X102335442Y-107628637D01*
X104964079Y-105000000D01*
X104949936Y-104985857D01*
X104985857Y-104949936D01*
X105000000Y-104964079D01*
X105014142Y-104949936D01*
X105050063Y-104985857D01*
X105035921Y-105000000D01*
X107664558Y-107628637D01*
X108222770Y-107310083D01*
X108418894Y-106877387D01*
X108443085Y-106940013D01*
X108487800Y-107006933D01*
X108812288Y-107051791D01*
X109819079Y-106045000D01*
X109804936Y-106030857D01*
X109840857Y-105994936D01*
X109855000Y-106009079D01*
X109869142Y-105994936D01*
X109905063Y-106030857D01*
X109890921Y-106045000D01*
X109905063Y-106059142D01*
X109869142Y-106095063D01*
X109855000Y-106080921D01*
X108848209Y-107087712D01*
X108893067Y-107412200D01*
X109274984Y-107581278D01*
X108933433Y-107573054D01*
X108324987Y-107808085D01*
X108258067Y-107852800D01*
X108213209Y-108177288D01*
X109220000Y-109184079D01*
X110226791Y-108177288D01*
X110181933Y-107852800D01*
X109800015Y-107683721D01*
X110141567Y-107691946D01*
X110750013Y-107456915D01*
X110816933Y-107412200D01*
X110846165Y-107200743D01*
X110882213Y-107256437D01*
X111161773Y-107449199D01*
X111033052Y-107535208D01*
X110711225Y-108016857D01*
X110643809Y-108355778D01*
X110631915Y-108324987D01*
X110587200Y-108258067D01*
X110262712Y-108213209D01*
X109255921Y-109220000D01*
X110262712Y-110226791D01*
X110587200Y-110181933D01*
X110851244Y-109585506D01*
X110856422Y-109370447D01*
X111033052Y-109634792D01*
X111437569Y-109905081D01*
X111339006Y-110052593D01*
X111252000Y-110490000D01*
X111252000Y-110943222D01*
X111221056Y-110974113D01*
X111009671Y-111483184D01*
X111009190Y-112034398D01*
X111219686Y-112543837D01*
X111609113Y-112933944D01*
X112118184Y-113145329D01*
X112163922Y-113145368D01*
X112522000Y-113503446D01*
X112522000Y-114871500D01*
X112332191Y-114871500D01*
X110935191Y-114871500D01*
X110701802Y-114968173D01*
X110605810Y-115064164D01*
X110605810Y-111485602D01*
X110395314Y-110976163D01*
X110069295Y-110649574D01*
X110115013Y-110631915D01*
X110181933Y-110587200D01*
X110226791Y-110262712D01*
X109220000Y-109255921D01*
X109184079Y-109291842D01*
X109184079Y-109220000D01*
X108177288Y-108213209D01*
X107852800Y-108258067D01*
X107628637Y-108764410D01*
X107628637Y-107664558D01*
X105000000Y-105035921D01*
X102371363Y-107664558D01*
X102689917Y-108222770D01*
X104099063Y-108861482D01*
X105645367Y-108912318D01*
X107093421Y-108367539D01*
X107310083Y-108222770D01*
X107628637Y-107664558D01*
X107628637Y-108764410D01*
X107588756Y-108854494D01*
X107573054Y-109506567D01*
X107808085Y-110115013D01*
X107852800Y-110181933D01*
X108177288Y-110226791D01*
X109184079Y-109220000D01*
X109184079Y-109291842D01*
X108213209Y-110262712D01*
X108258067Y-110587200D01*
X108379701Y-110641048D01*
X108046056Y-110974113D01*
X107834671Y-111483184D01*
X107834190Y-112034398D01*
X108044686Y-112543837D01*
X108434113Y-112933944D01*
X108943184Y-113145329D01*
X109494398Y-113145810D01*
X110003837Y-112935314D01*
X110393944Y-112545887D01*
X110605329Y-112036816D01*
X110605810Y-111485602D01*
X110605810Y-115064164D01*
X110523173Y-115146801D01*
X110426500Y-115380190D01*
X110426500Y-115632809D01*
X110426500Y-117029809D01*
X110523173Y-117263198D01*
X110701801Y-117441827D01*
X110820782Y-117491110D01*
X110790755Y-117739834D01*
X111760000Y-118709079D01*
X111774142Y-118694936D01*
X111810063Y-118730857D01*
X111795921Y-118745000D01*
X111810063Y-118759142D01*
X111774142Y-118795063D01*
X111760000Y-118780921D01*
X111724079Y-118816842D01*
X111724079Y-118745000D01*
X110754834Y-117775755D01*
X110435756Y-117814276D01*
X110180385Y-118391890D01*
X110165496Y-119023261D01*
X110393356Y-119612271D01*
X110435756Y-119675724D01*
X110754834Y-119714245D01*
X111724079Y-118745000D01*
X111724079Y-118816842D01*
X110790755Y-119750166D01*
X110829276Y-120069244D01*
X111013390Y-120150643D01*
X111005620Y-120153854D01*
X110630173Y-120528647D01*
X110426732Y-121018587D01*
X110426269Y-121549086D01*
X110628854Y-122039380D01*
X111003647Y-122414827D01*
X111341446Y-122555093D01*
X111005620Y-122693854D01*
X110630173Y-123068647D01*
X110426732Y-123558587D01*
X110426269Y-124089086D01*
X110628854Y-124579380D01*
X111003647Y-124954827D01*
X111493587Y-125158268D01*
X112024086Y-125158731D01*
X112043853Y-125150563D01*
X112258679Y-125365389D01*
X112071306Y-125365226D01*
X111470345Y-125613538D01*
X111010154Y-126072927D01*
X110760794Y-126673453D01*
X110760226Y-127323694D01*
X111008538Y-127924655D01*
X111467927Y-128384846D01*
X112068453Y-128634206D01*
X112409100Y-128634503D01*
X112115378Y-128927714D01*
X111950687Y-129324332D01*
X111950313Y-129753784D01*
X112114311Y-130150689D01*
X112417714Y-130454622D01*
X112814332Y-130619313D01*
X113067823Y-130619533D01*
X113563400Y-131115110D01*
X113563400Y-135255000D01*
X113619470Y-135536885D01*
X113779145Y-135775855D01*
X114833400Y-136830110D01*
X114833400Y-140461902D01*
X114592073Y-140220154D01*
X114029774Y-139986667D01*
X114029774Y-136836306D01*
X113781462Y-136235345D01*
X113322073Y-135775154D01*
X112721547Y-135525794D01*
X112071306Y-135525226D01*
X111470345Y-135773538D01*
X111010154Y-136232927D01*
X110760794Y-136833453D01*
X110760226Y-137483694D01*
X111008538Y-138084655D01*
X111467927Y-138544846D01*
X112068453Y-138794206D01*
X112718694Y-138794774D01*
X113319655Y-138546462D01*
X113779846Y-138087073D01*
X114029206Y-137486547D01*
X114029774Y-136836306D01*
X114029774Y-139986667D01*
X113991547Y-139970794D01*
X113341306Y-139970226D01*
X112740345Y-140218538D01*
X112280154Y-140677927D01*
X112030794Y-141278453D01*
X112030226Y-141928694D01*
X112278538Y-142529655D01*
X112737927Y-142989846D01*
X113338453Y-143239206D01*
X113988694Y-143239774D01*
X114589655Y-142991462D01*
X114833400Y-142748141D01*
X114833400Y-143204890D01*
X114685958Y-143352331D01*
X114329359Y-143281400D01*
X114270641Y-143281400D01*
X113697152Y-143395474D01*
X113440974Y-143566646D01*
X113377258Y-143412822D01*
X113127178Y-143162742D01*
X112800433Y-143027400D01*
X112007650Y-143027400D01*
X111785400Y-143249650D01*
X111785400Y-144754600D01*
X111805400Y-144754600D01*
X111805400Y-144805400D01*
X111785400Y-144805400D01*
X111785400Y-146310350D01*
X112007650Y-146532600D01*
X112800433Y-146532600D01*
X113127178Y-146397258D01*
X113377258Y-146147178D01*
X113440974Y-145993353D01*
X113697152Y-146164526D01*
X114270641Y-146278600D01*
X114329359Y-146278600D01*
X114902848Y-146164526D01*
X115389029Y-145839670D01*
X115570000Y-145568827D01*
X115750971Y-145839670D01*
X116237152Y-146164526D01*
X116810641Y-146278600D01*
X116869359Y-146278600D01*
X117442848Y-146164526D01*
X117929029Y-145839670D01*
X118110000Y-145568827D01*
X118290971Y-145839670D01*
X118777152Y-146164526D01*
X119350641Y-146278600D01*
X119409359Y-146278600D01*
X119982848Y-146164526D01*
X120469029Y-145839670D01*
X120793885Y-145353489D01*
X120907959Y-144780000D01*
X120793885Y-144206511D01*
X120469029Y-143720330D01*
X119982848Y-143395474D01*
X119409359Y-143281400D01*
X119350641Y-143281400D01*
X118846600Y-143381659D01*
X118846600Y-140287405D01*
X119113587Y-140398268D01*
X119644086Y-140398731D01*
X120134380Y-140196146D01*
X120509827Y-139821353D01*
X120650093Y-139483553D01*
X120788854Y-139819380D01*
X121163647Y-140194827D01*
X121653587Y-140398268D01*
X122184086Y-140398731D01*
X122674380Y-140196146D01*
X122682000Y-140188539D01*
X122682000Y-140436502D01*
X122440154Y-140677927D01*
X122190794Y-141278453D01*
X122190226Y-141928694D01*
X122438538Y-142529655D01*
X122897927Y-142989846D01*
X123164598Y-143100577D01*
X123164598Y-143249648D01*
X122942350Y-143027400D01*
X122149567Y-143027400D01*
X121822822Y-143162742D01*
X121572742Y-143412822D01*
X121437400Y-143739567D01*
X121437400Y-144093233D01*
X121437400Y-144532350D01*
X121659650Y-144754600D01*
X123164600Y-144754600D01*
X123164600Y-144734600D01*
X123215400Y-144734600D01*
X123215400Y-144754600D01*
X123235400Y-144754600D01*
X123235400Y-144805400D01*
X123215400Y-144805400D01*
X123215400Y-146310350D01*
X123437650Y-146532600D01*
X124230433Y-146532600D01*
X124557178Y-146397258D01*
X124807258Y-146147178D01*
X124870974Y-145993353D01*
X125127152Y-146164526D01*
X125700641Y-146278600D01*
X125759359Y-146278600D01*
X126332848Y-146164526D01*
X126819029Y-145839670D01*
X127000000Y-145568827D01*
X127180971Y-145839670D01*
X127667152Y-146164526D01*
X128240641Y-146278600D01*
X128299359Y-146278600D01*
X128872848Y-146164526D01*
X129359029Y-145839670D01*
X129540000Y-145568827D01*
X129720971Y-145839670D01*
X130207152Y-146164526D01*
X130780641Y-146278600D01*
X130839359Y-146278600D01*
X131412848Y-146164526D01*
X131899029Y-145839670D01*
X132223885Y-145353489D01*
X132337959Y-144780000D01*
X132223885Y-144206511D01*
X131953000Y-143801103D01*
X131953000Y-143510000D01*
X131889532Y-143190927D01*
X132340013Y-143016915D01*
X132406933Y-142972200D01*
X132451791Y-142647712D01*
X131445000Y-141640921D01*
X131430857Y-141655063D01*
X131394936Y-141619142D01*
X131409079Y-141605000D01*
X130402288Y-140598209D01*
X130077800Y-140643067D01*
X130023951Y-140764701D01*
X129690887Y-140431056D01*
X129612637Y-140398563D01*
X129804086Y-140398731D01*
X130294380Y-140196146D01*
X130669827Y-139821353D01*
X130670148Y-139820579D01*
X130713356Y-139932271D01*
X130755756Y-139995724D01*
X130988250Y-140023792D01*
X130549987Y-140193085D01*
X130483067Y-140237800D01*
X130438209Y-140562288D01*
X131445000Y-141569079D01*
X131459142Y-141554936D01*
X131495063Y-141590857D01*
X131480921Y-141605000D01*
X132487712Y-142611791D01*
X132812200Y-142566933D01*
X133076244Y-141970506D01*
X133091946Y-141318433D01*
X132856915Y-140709987D01*
X132812200Y-140643067D01*
X132509073Y-140601161D01*
X132947271Y-140431644D01*
X133010724Y-140389244D01*
X133049245Y-140070166D01*
X132080000Y-139100921D01*
X132065857Y-139115063D01*
X132029936Y-139079142D01*
X132044079Y-139065000D01*
X131074834Y-138095755D01*
X130755756Y-138134276D01*
X130674356Y-138318390D01*
X130671146Y-138310620D01*
X130296353Y-137935173D01*
X129806413Y-137731732D01*
X129275914Y-137731269D01*
X129256146Y-137739436D01*
X126466600Y-134949890D01*
X126466600Y-132667405D01*
X126733587Y-132778268D01*
X127264086Y-132778731D01*
X127754380Y-132576146D01*
X128129827Y-132201353D01*
X128270093Y-131863553D01*
X128408854Y-132199380D01*
X128783647Y-132574827D01*
X129273587Y-132778268D01*
X129804086Y-132778731D01*
X130294380Y-132576146D01*
X130669827Y-132201353D01*
X130810093Y-131863553D01*
X130948854Y-132199380D01*
X131323647Y-132574827D01*
X131813587Y-132778268D01*
X132344086Y-132778731D01*
X132834380Y-132576146D01*
X133209827Y-132201353D01*
X133413268Y-131711413D01*
X133413731Y-131180914D01*
X133376692Y-131091274D01*
X133769332Y-131254313D01*
X134198784Y-131254687D01*
X134514355Y-131124295D01*
X134522800Y-131136933D01*
X134847288Y-131181791D01*
X135854079Y-130175000D01*
X135839936Y-130160857D01*
X135875857Y-130124936D01*
X135890000Y-130139079D01*
X135904142Y-130124936D01*
X135940063Y-130160857D01*
X135925921Y-130175000D01*
X135940063Y-130189142D01*
X135904142Y-130225063D01*
X135890000Y-130210921D01*
X134883209Y-131217712D01*
X134928067Y-131542200D01*
X135524494Y-131806244D01*
X136176567Y-131821946D01*
X136423400Y-131726599D01*
X136423400Y-132409890D01*
X134099145Y-134734145D01*
X133939470Y-134973115D01*
X133883400Y-135255000D01*
X133883400Y-143510000D01*
X133939470Y-143791885D01*
X134099145Y-144030855D01*
X136715532Y-146647242D01*
X136715313Y-146898784D01*
X136879311Y-147295689D01*
X137030358Y-147447000D01*
G36*
X138480063Y-124474142D02*
X138444142Y-124510063D01*
X138430000Y-124495921D01*
X138415857Y-124510063D01*
X138379936Y-124474142D01*
X138394079Y-124460000D01*
X138379936Y-124445857D01*
X138415857Y-124409936D01*
X138430000Y-124424079D01*
X138444142Y-124409936D01*
X138480063Y-124445857D01*
X138465921Y-124460000D01*
X138480063Y-124474142D01*
X138480063Y-124474142D01*
G37*
X138480063Y-124474142D02*
X138444142Y-124510063D01*
X138430000Y-124495921D01*
X138415857Y-124510063D01*
X138379936Y-124474142D01*
X138394079Y-124460000D01*
X138379936Y-124445857D01*
X138415857Y-124409936D01*
X138430000Y-124424079D01*
X138444142Y-124409936D01*
X138480063Y-124445857D01*
X138465921Y-124460000D01*
X138480063Y-124474142D01*
G36*
X142338432Y-103634857D02*
X140449145Y-105524145D01*
X140289470Y-105763115D01*
X140233400Y-106045000D01*
X140233400Y-112082621D01*
X139915668Y-111950687D01*
X139763334Y-111950554D01*
X139763731Y-111495914D01*
X139561146Y-111005620D01*
X139186353Y-110630173D01*
X138848553Y-110489906D01*
X139184380Y-110351146D01*
X139559827Y-109976353D01*
X139763268Y-109486413D01*
X139763731Y-108955914D01*
X139561146Y-108465620D01*
X139186353Y-108090173D01*
X139001704Y-108013500D01*
X139254809Y-108013500D01*
X139488198Y-107916827D01*
X139666827Y-107738199D01*
X139763500Y-107504810D01*
X139763500Y-107252191D01*
X139763500Y-105855191D01*
X139666827Y-105621802D01*
X139488199Y-105443173D01*
X139254810Y-105346500D01*
X139002191Y-105346500D01*
X137605191Y-105346500D01*
X137371802Y-105443173D01*
X137193173Y-105621801D01*
X137096500Y-105855190D01*
X137096500Y-106107809D01*
X137096500Y-106971790D01*
X136889610Y-107178679D01*
X136889774Y-106991306D01*
X136641462Y-106390345D01*
X136182073Y-105930154D01*
X135581547Y-105680794D01*
X134931306Y-105680226D01*
X134330345Y-105928538D01*
X133870154Y-106387927D01*
X133731000Y-106723047D01*
X133731000Y-106292650D01*
X133508750Y-106070400D01*
X124993400Y-106070400D01*
X124993400Y-111537750D01*
X125215650Y-111760000D01*
X126964076Y-111760000D01*
X127047799Y-111843723D01*
X126697453Y-111918874D01*
X126391947Y-112605241D01*
X126372357Y-113356273D01*
X126641666Y-114057634D01*
X126697453Y-114141126D01*
X127047802Y-114216277D01*
X128234079Y-113030000D01*
X128219936Y-113015857D01*
X128255857Y-112979936D01*
X128270000Y-112994079D01*
X128284142Y-112979936D01*
X128320063Y-113015857D01*
X128305921Y-113030000D01*
X128320063Y-113044142D01*
X128284142Y-113080063D01*
X128270000Y-113065921D01*
X128234079Y-113101842D01*
X127083723Y-114252198D01*
X127158874Y-114602547D01*
X127845241Y-114908053D01*
X128596273Y-114927643D01*
X128803400Y-114848110D01*
X128803400Y-116483146D01*
X128707407Y-116419006D01*
X128270000Y-116332000D01*
X124942600Y-116332000D01*
X124942600Y-111537750D01*
X124942600Y-106070400D01*
X116427250Y-106070400D01*
X116205000Y-106292650D01*
X116205000Y-110694167D01*
X116205000Y-111047833D01*
X116340342Y-111374578D01*
X116590422Y-111624658D01*
X116917167Y-111760000D01*
X117068679Y-111760000D01*
X116725154Y-112102927D01*
X116475794Y-112703453D01*
X116475226Y-113353694D01*
X116723538Y-113954655D01*
X117182927Y-114414846D01*
X117783453Y-114664206D01*
X118433694Y-114664774D01*
X119034655Y-114416462D01*
X119494846Y-113957073D01*
X119744206Y-113356547D01*
X119744774Y-112706306D01*
X119496462Y-112105345D01*
X119151718Y-111760000D01*
X124720350Y-111760000D01*
X124942600Y-111537750D01*
X124942600Y-116332000D01*
X123547365Y-116332000D01*
X123457817Y-116115812D01*
X123279189Y-115937183D01*
X123045800Y-115840510D01*
X122793181Y-115840510D01*
X120941146Y-115840510D01*
X120746644Y-115337729D01*
X120704244Y-115274276D01*
X120385166Y-115235755D01*
X120349245Y-115271676D01*
X120349245Y-115199834D01*
X120310724Y-114880756D01*
X119733110Y-114625385D01*
X119101739Y-114610496D01*
X118512729Y-114838356D01*
X118449276Y-114880756D01*
X118410755Y-115199834D01*
X119380000Y-116169079D01*
X120349245Y-115199834D01*
X120349245Y-115271676D01*
X119415921Y-116205000D01*
X119430063Y-116219142D01*
X119394142Y-116255063D01*
X119380000Y-116240921D01*
X119344079Y-116276842D01*
X119344079Y-116205000D01*
X118374834Y-115235755D01*
X118055756Y-115274276D01*
X117800385Y-115851890D01*
X117785496Y-116483261D01*
X118013356Y-117072271D01*
X118055756Y-117135724D01*
X118374834Y-117174245D01*
X119344079Y-116205000D01*
X119344079Y-116276842D01*
X118410755Y-117210166D01*
X118449276Y-117529244D01*
X118633390Y-117610643D01*
X118625620Y-117613854D01*
X118250173Y-117988647D01*
X118046732Y-118478587D01*
X118046269Y-119009086D01*
X118083307Y-119098725D01*
X117690668Y-118935687D01*
X117261216Y-118935313D01*
X116864311Y-119099311D01*
X116560378Y-119402714D01*
X116395687Y-119799332D01*
X116395313Y-120228784D01*
X116559311Y-120625689D01*
X116738400Y-120805090D01*
X116738400Y-121765002D01*
X116567275Y-121935829D01*
X115108223Y-120476777D01*
X114737407Y-120229006D01*
X114480162Y-120177836D01*
X114720994Y-119817407D01*
X114808000Y-119380000D01*
X114808000Y-113145459D01*
X115209398Y-113145810D01*
X115718837Y-112935314D01*
X116108944Y-112545887D01*
X116320329Y-112036816D01*
X116320810Y-111485602D01*
X116110314Y-110976163D01*
X115720887Y-110586056D01*
X115211816Y-110374671D01*
X114660602Y-110374190D01*
X114151163Y-110584686D01*
X113761056Y-110974113D01*
X113665025Y-111205381D01*
X113570314Y-110976163D01*
X113547818Y-110953627D01*
X113838223Y-110663223D01*
X114085994Y-110292407D01*
X114136616Y-110037911D01*
X114545299Y-109956619D01*
X115026948Y-109634792D01*
X115348775Y-109153143D01*
X115461786Y-108585000D01*
X115348775Y-108016857D01*
X115026948Y-107535208D01*
X114898226Y-107449199D01*
X115177787Y-107256437D01*
X115546434Y-106686879D01*
X115643497Y-106342040D01*
X115446597Y-106070400D01*
X113055400Y-106070400D01*
X113055400Y-106090400D01*
X113004600Y-106090400D01*
X113004600Y-106070400D01*
X112984600Y-106070400D01*
X112984600Y-106019600D01*
X113004600Y-106019600D01*
X113004600Y-105999600D01*
X113055400Y-105999600D01*
X113055400Y-106019600D01*
X115446597Y-106019600D01*
X115643497Y-105747960D01*
X115546434Y-105403121D01*
X115177787Y-104833563D01*
X114898226Y-104640800D01*
X115026948Y-104554792D01*
X115348775Y-104073143D01*
X115461786Y-103505000D01*
X115348775Y-102936857D01*
X115026948Y-102455208D01*
X114545299Y-102133381D01*
X113977156Y-102020370D01*
X112082844Y-102020370D01*
X111514701Y-102133381D01*
X111033052Y-102455208D01*
X110925502Y-102616168D01*
X110640887Y-102331056D01*
X110131816Y-102119671D01*
X110086077Y-102119631D01*
X108651446Y-100685000D01*
X116370764Y-100685000D01*
X116340342Y-100715422D01*
X116205000Y-101042167D01*
X116205000Y-101395833D01*
X116205000Y-105797350D01*
X116427250Y-106019600D01*
X124942600Y-106019600D01*
X124942600Y-105999600D01*
X124993400Y-105999600D01*
X124993400Y-106019600D01*
X133508750Y-106019600D01*
X133731000Y-105797350D01*
X133731000Y-103695436D01*
X133887822Y-103852258D01*
X134214567Y-103987600D01*
X135007350Y-103987600D01*
X135229600Y-103765350D01*
X135229600Y-102260400D01*
X135209600Y-102260400D01*
X135209600Y-102209600D01*
X135229600Y-102209600D01*
X135229600Y-102189600D01*
X135280400Y-102189600D01*
X135280400Y-102209600D01*
X135300400Y-102209600D01*
X135300400Y-102260400D01*
X135280400Y-102260400D01*
X135280400Y-103765350D01*
X135502650Y-103987600D01*
X136295433Y-103987600D01*
X136622178Y-103852258D01*
X136872258Y-103602178D01*
X136922123Y-103481790D01*
X136945003Y-103504710D01*
X137495602Y-103733339D01*
X138091782Y-103733859D01*
X138642780Y-103506192D01*
X139064710Y-103084997D01*
X139065095Y-103084069D01*
X139485003Y-103504710D01*
X140035602Y-103733339D01*
X140631782Y-103733859D01*
X141182780Y-103506192D01*
X141604710Y-103084997D01*
X141605095Y-103084069D01*
X142025003Y-103504710D01*
X142338432Y-103634857D01*
X142338432Y-103634857D01*
G37*
X142338432Y-103634857D02*
X140449145Y-105524145D01*
X140289470Y-105763115D01*
X140233400Y-106045000D01*
X140233400Y-112082621D01*
X139915668Y-111950687D01*
X139763334Y-111950554D01*
X139763731Y-111495914D01*
X139561146Y-111005620D01*
X139186353Y-110630173D01*
X138848553Y-110489906D01*
X139184380Y-110351146D01*
X139559827Y-109976353D01*
X139763268Y-109486413D01*
X139763731Y-108955914D01*
X139561146Y-108465620D01*
X139186353Y-108090173D01*
X139001704Y-108013500D01*
X139254809Y-108013500D01*
X139488198Y-107916827D01*
X139666827Y-107738199D01*
X139763500Y-107504810D01*
X139763500Y-107252191D01*
X139763500Y-105855191D01*
X139666827Y-105621802D01*
X139488199Y-105443173D01*
X139254810Y-105346500D01*
X139002191Y-105346500D01*
X137605191Y-105346500D01*
X137371802Y-105443173D01*
X137193173Y-105621801D01*
X137096500Y-105855190D01*
X137096500Y-106107809D01*
X137096500Y-106971790D01*
X136889610Y-107178679D01*
X136889774Y-106991306D01*
X136641462Y-106390345D01*
X136182073Y-105930154D01*
X135581547Y-105680794D01*
X134931306Y-105680226D01*
X134330345Y-105928538D01*
X133870154Y-106387927D01*
X133731000Y-106723047D01*
X133731000Y-106292650D01*
X133508750Y-106070400D01*
X124993400Y-106070400D01*
X124993400Y-111537750D01*
X125215650Y-111760000D01*
X126964076Y-111760000D01*
X127047799Y-111843723D01*
X126697453Y-111918874D01*
X126391947Y-112605241D01*
X126372357Y-113356273D01*
X126641666Y-114057634D01*
X126697453Y-114141126D01*
X127047802Y-114216277D01*
X128234079Y-113030000D01*
X128219936Y-113015857D01*
X128255857Y-112979936D01*
X128270000Y-112994079D01*
X128284142Y-112979936D01*
X128320063Y-113015857D01*
X128305921Y-113030000D01*
X128320063Y-113044142D01*
X128284142Y-113080063D01*
X128270000Y-113065921D01*
X128234079Y-113101842D01*
X127083723Y-114252198D01*
X127158874Y-114602547D01*
X127845241Y-114908053D01*
X128596273Y-114927643D01*
X128803400Y-114848110D01*
X128803400Y-116483146D01*
X128707407Y-116419006D01*
X128270000Y-116332000D01*
X124942600Y-116332000D01*
X124942600Y-111537750D01*
X124942600Y-106070400D01*
X116427250Y-106070400D01*
X116205000Y-106292650D01*
X116205000Y-110694167D01*
X116205000Y-111047833D01*
X116340342Y-111374578D01*
X116590422Y-111624658D01*
X116917167Y-111760000D01*
X117068679Y-111760000D01*
X116725154Y-112102927D01*
X116475794Y-112703453D01*
X116475226Y-113353694D01*
X116723538Y-113954655D01*
X117182927Y-114414846D01*
X117783453Y-114664206D01*
X118433694Y-114664774D01*
X119034655Y-114416462D01*
X119494846Y-113957073D01*
X119744206Y-113356547D01*
X119744774Y-112706306D01*
X119496462Y-112105345D01*
X119151718Y-111760000D01*
X124720350Y-111760000D01*
X124942600Y-111537750D01*
X124942600Y-116332000D01*
X123547365Y-116332000D01*
X123457817Y-116115812D01*
X123279189Y-115937183D01*
X123045800Y-115840510D01*
X122793181Y-115840510D01*
X120941146Y-115840510D01*
X120746644Y-115337729D01*
X120704244Y-115274276D01*
X120385166Y-115235755D01*
X120349245Y-115271676D01*
X120349245Y-115199834D01*
X120310724Y-114880756D01*
X119733110Y-114625385D01*
X119101739Y-114610496D01*
X118512729Y-114838356D01*
X118449276Y-114880756D01*
X118410755Y-115199834D01*
X119380000Y-116169079D01*
X120349245Y-115199834D01*
X120349245Y-115271676D01*
X119415921Y-116205000D01*
X119430063Y-116219142D01*
X119394142Y-116255063D01*
X119380000Y-116240921D01*
X119344079Y-116276842D01*
X119344079Y-116205000D01*
X118374834Y-115235755D01*
X118055756Y-115274276D01*
X117800385Y-115851890D01*
X117785496Y-116483261D01*
X118013356Y-117072271D01*
X118055756Y-117135724D01*
X118374834Y-117174245D01*
X119344079Y-116205000D01*
X119344079Y-116276842D01*
X118410755Y-117210166D01*
X118449276Y-117529244D01*
X118633390Y-117610643D01*
X118625620Y-117613854D01*
X118250173Y-117988647D01*
X118046732Y-118478587D01*
X118046269Y-119009086D01*
X118083307Y-119098725D01*
X117690668Y-118935687D01*
X117261216Y-118935313D01*
X116864311Y-119099311D01*
X116560378Y-119402714D01*
X116395687Y-119799332D01*
X116395313Y-120228784D01*
X116559311Y-120625689D01*
X116738400Y-120805090D01*
X116738400Y-121765002D01*
X116567275Y-121935829D01*
X115108223Y-120476777D01*
X114737407Y-120229006D01*
X114480162Y-120177836D01*
X114720994Y-119817407D01*
X114808000Y-119380000D01*
X114808000Y-113145459D01*
X115209398Y-113145810D01*
X115718837Y-112935314D01*
X116108944Y-112545887D01*
X116320329Y-112036816D01*
X116320810Y-111485602D01*
X116110314Y-110976163D01*
X115720887Y-110586056D01*
X115211816Y-110374671D01*
X114660602Y-110374190D01*
X114151163Y-110584686D01*
X113761056Y-110974113D01*
X113665025Y-111205381D01*
X113570314Y-110976163D01*
X113547818Y-110953627D01*
X113838223Y-110663223D01*
X114085994Y-110292407D01*
X114136616Y-110037911D01*
X114545299Y-109956619D01*
X115026948Y-109634792D01*
X115348775Y-109153143D01*
X115461786Y-108585000D01*
X115348775Y-108016857D01*
X115026948Y-107535208D01*
X114898226Y-107449199D01*
X115177787Y-107256437D01*
X115546434Y-106686879D01*
X115643497Y-106342040D01*
X115446597Y-106070400D01*
X113055400Y-106070400D01*
X113055400Y-106090400D01*
X113004600Y-106090400D01*
X113004600Y-106070400D01*
X112984600Y-106070400D01*
X112984600Y-106019600D01*
X113004600Y-106019600D01*
X113004600Y-105999600D01*
X113055400Y-105999600D01*
X113055400Y-106019600D01*
X115446597Y-106019600D01*
X115643497Y-105747960D01*
X115546434Y-105403121D01*
X115177787Y-104833563D01*
X114898226Y-104640800D01*
X115026948Y-104554792D01*
X115348775Y-104073143D01*
X115461786Y-103505000D01*
X115348775Y-102936857D01*
X115026948Y-102455208D01*
X114545299Y-102133381D01*
X113977156Y-102020370D01*
X112082844Y-102020370D01*
X111514701Y-102133381D01*
X111033052Y-102455208D01*
X110925502Y-102616168D01*
X110640887Y-102331056D01*
X110131816Y-102119671D01*
X110086077Y-102119631D01*
X108651446Y-100685000D01*
X116370764Y-100685000D01*
X116340342Y-100715422D01*
X116205000Y-101042167D01*
X116205000Y-101395833D01*
X116205000Y-105797350D01*
X116427250Y-106019600D01*
X124942600Y-106019600D01*
X124942600Y-105999600D01*
X124993400Y-105999600D01*
X124993400Y-106019600D01*
X133508750Y-106019600D01*
X133731000Y-105797350D01*
X133731000Y-103695436D01*
X133887822Y-103852258D01*
X134214567Y-103987600D01*
X135007350Y-103987600D01*
X135229600Y-103765350D01*
X135229600Y-102260400D01*
X135209600Y-102260400D01*
X135209600Y-102209600D01*
X135229600Y-102209600D01*
X135229600Y-102189600D01*
X135280400Y-102189600D01*
X135280400Y-102209600D01*
X135300400Y-102209600D01*
X135300400Y-102260400D01*
X135280400Y-102260400D01*
X135280400Y-103765350D01*
X135502650Y-103987600D01*
X136295433Y-103987600D01*
X136622178Y-103852258D01*
X136872258Y-103602178D01*
X136922123Y-103481790D01*
X136945003Y-103504710D01*
X137495602Y-103733339D01*
X138091782Y-103733859D01*
X138642780Y-103506192D01*
X139064710Y-103084997D01*
X139065095Y-103084069D01*
X139485003Y-103504710D01*
X140035602Y-103733339D01*
X140631782Y-103733859D01*
X141182780Y-103506192D01*
X141604710Y-103084997D01*
X141605095Y-103084069D01*
X142025003Y-103504710D01*
X142338432Y-103634857D01*
G36*
X146100063Y-121934142D02*
X146064142Y-121970063D01*
X146050000Y-121955921D01*
X146035857Y-121970063D01*
X145999936Y-121934142D01*
X146014079Y-121920000D01*
X145999936Y-121905857D01*
X146035857Y-121869936D01*
X146050000Y-121884079D01*
X146064142Y-121869936D01*
X146100063Y-121905857D01*
X146085921Y-121920000D01*
X146100063Y-121934142D01*
X146100063Y-121934142D01*
G37*
X146100063Y-121934142D02*
X146064142Y-121970063D01*
X146050000Y-121955921D01*
X146035857Y-121970063D01*
X145999936Y-121934142D01*
X146014079Y-121920000D01*
X145999936Y-121905857D01*
X146035857Y-121869936D01*
X146050000Y-121884079D01*
X146064142Y-121869936D01*
X146100063Y-121905857D01*
X146085921Y-121920000D01*
X146100063Y-121934142D01*
G36*
X149275063Y-123204142D02*
X149239142Y-123240063D01*
X149225000Y-123225921D01*
X149210857Y-123240063D01*
X149174936Y-123204142D01*
X149189079Y-123190000D01*
X149174936Y-123175857D01*
X149210857Y-123139936D01*
X149225000Y-123154079D01*
X149239142Y-123139936D01*
X149275063Y-123175857D01*
X149260921Y-123190000D01*
X149275063Y-123204142D01*
X149275063Y-123204142D01*
G37*
X149275063Y-123204142D02*
X149239142Y-123240063D01*
X149225000Y-123225921D01*
X149210857Y-123240063D01*
X149174936Y-123204142D01*
X149189079Y-123190000D01*
X149174936Y-123175857D01*
X149210857Y-123139936D01*
X149225000Y-123154079D01*
X149239142Y-123139936D01*
X149275063Y-123175857D01*
X149260921Y-123190000D01*
X149275063Y-123204142D01*
G36*
X149905400Y-144170400D02*
X149885400Y-144170400D01*
X149885400Y-144190400D01*
X149834600Y-144190400D01*
X149834600Y-144170400D01*
X149814600Y-144170400D01*
X149814600Y-144119600D01*
X149834600Y-144119600D01*
X149834600Y-144099600D01*
X149885400Y-144099600D01*
X149885400Y-144119600D01*
X149905400Y-144119600D01*
X149905400Y-144170400D01*
X149905400Y-144170400D01*
G37*
X149905400Y-144170400D02*
X149885400Y-144170400D01*
X149885400Y-144190400D01*
X149834600Y-144190400D01*
X149834600Y-144170400D01*
X149814600Y-144170400D01*
X149814600Y-144119600D01*
X149834600Y-144119600D01*
X149834600Y-144099600D01*
X149885400Y-144099600D01*
X149885400Y-144119600D01*
X149905400Y-144119600D01*
X149905400Y-144170400D01*
G36*
X153568400Y-141934890D02*
X151406594Y-144096695D01*
X151586867Y-143845774D01*
X151569928Y-143760605D01*
X151292666Y-143135504D01*
X150958863Y-142817846D01*
X151650855Y-142125855D01*
X151810530Y-141886885D01*
X151866600Y-141605000D01*
X151866600Y-136525000D01*
X151810530Y-136243115D01*
X151650855Y-136004145D01*
X151122643Y-135475933D01*
X151122643Y-133023727D01*
X150853334Y-132322366D01*
X150797547Y-132238874D01*
X150447198Y-132163723D01*
X149260921Y-133350000D01*
X150447198Y-134536277D01*
X150797547Y-134461126D01*
X151103053Y-133774759D01*
X151122643Y-133023727D01*
X151122643Y-135475933D01*
X150380855Y-134734145D01*
X150377079Y-134731622D01*
X150411277Y-134572198D01*
X149225000Y-133385921D01*
X149210857Y-133400063D01*
X149174936Y-133364142D01*
X149189079Y-133350000D01*
X149174936Y-133335857D01*
X149210857Y-133299936D01*
X149225000Y-133314079D01*
X150411277Y-132127802D01*
X150336126Y-131777453D01*
X149649759Y-131471947D01*
X148898727Y-131452357D01*
X148197366Y-131721666D01*
X148113874Y-131777453D01*
X148056600Y-132044460D01*
X148056600Y-130683097D01*
X148297927Y-130924846D01*
X148898453Y-131174206D01*
X149548694Y-131174774D01*
X150149655Y-130926462D01*
X150609846Y-130467073D01*
X150859206Y-129866547D01*
X150859774Y-129216306D01*
X150611462Y-128615345D01*
X150152073Y-128155154D01*
X149551547Y-127905794D01*
X148901306Y-127905226D01*
X148300345Y-128153538D01*
X148056600Y-128396858D01*
X148056600Y-126520763D01*
X148439113Y-126903944D01*
X148948184Y-127115329D01*
X149499398Y-127115810D01*
X150008837Y-126905314D01*
X150398944Y-126515887D01*
X150415487Y-126476044D01*
X150449470Y-126646885D01*
X150609145Y-126885855D01*
X151320532Y-127597242D01*
X151320313Y-127848784D01*
X151484311Y-128245689D01*
X151787714Y-128549622D01*
X152184332Y-128714313D01*
X152613784Y-128714687D01*
X153010689Y-128550689D01*
X153314622Y-128247286D01*
X153479313Y-127850668D01*
X153479687Y-127421216D01*
X153315689Y-127024311D01*
X153012286Y-126720378D01*
X152615668Y-126555687D01*
X152362176Y-126555466D01*
X152235066Y-126428356D01*
X152664086Y-126428731D01*
X153154380Y-126226146D01*
X153529827Y-125851353D01*
X153568400Y-125758458D01*
X153568400Y-141934890D01*
X153568400Y-141934890D01*
G37*
X153568400Y-141934890D02*
X151406594Y-144096695D01*
X151586867Y-143845774D01*
X151569928Y-143760605D01*
X151292666Y-143135504D01*
X150958863Y-142817846D01*
X151650855Y-142125855D01*
X151810530Y-141886885D01*
X151866600Y-141605000D01*
X151866600Y-136525000D01*
X151810530Y-136243115D01*
X151650855Y-136004145D01*
X151122643Y-135475933D01*
X151122643Y-133023727D01*
X150853334Y-132322366D01*
X150797547Y-132238874D01*
X150447198Y-132163723D01*
X149260921Y-133350000D01*
X150447198Y-134536277D01*
X150797547Y-134461126D01*
X151103053Y-133774759D01*
X151122643Y-133023727D01*
X151122643Y-135475933D01*
X150380855Y-134734145D01*
X150377079Y-134731622D01*
X150411277Y-134572198D01*
X149225000Y-133385921D01*
X149210857Y-133400063D01*
X149174936Y-133364142D01*
X149189079Y-133350000D01*
X149174936Y-133335857D01*
X149210857Y-133299936D01*
X149225000Y-133314079D01*
X150411277Y-132127802D01*
X150336126Y-131777453D01*
X149649759Y-131471947D01*
X148898727Y-131452357D01*
X148197366Y-131721666D01*
X148113874Y-131777453D01*
X148056600Y-132044460D01*
X148056600Y-130683097D01*
X148297927Y-130924846D01*
X148898453Y-131174206D01*
X149548694Y-131174774D01*
X150149655Y-130926462D01*
X150609846Y-130467073D01*
X150859206Y-129866547D01*
X150859774Y-129216306D01*
X150611462Y-128615345D01*
X150152073Y-128155154D01*
X149551547Y-127905794D01*
X148901306Y-127905226D01*
X148300345Y-128153538D01*
X148056600Y-128396858D01*
X148056600Y-126520763D01*
X148439113Y-126903944D01*
X148948184Y-127115329D01*
X149499398Y-127115810D01*
X150008837Y-126905314D01*
X150398944Y-126515887D01*
X150415487Y-126476044D01*
X150449470Y-126646885D01*
X150609145Y-126885855D01*
X151320532Y-127597242D01*
X151320313Y-127848784D01*
X151484311Y-128245689D01*
X151787714Y-128549622D01*
X152184332Y-128714313D01*
X152613784Y-128714687D01*
X153010689Y-128550689D01*
X153314622Y-128247286D01*
X153479313Y-127850668D01*
X153479687Y-127421216D01*
X153315689Y-127024311D01*
X153012286Y-126720378D01*
X152615668Y-126555687D01*
X152362176Y-126555466D01*
X152235066Y-126428356D01*
X152664086Y-126428731D01*
X153154380Y-126226146D01*
X153529827Y-125851353D01*
X153568400Y-125758458D01*
X153568400Y-141934890D01*
G36*
X199263000Y-108458000D02*
X198912318Y-108458000D01*
X198912318Y-104354633D01*
X198367539Y-102906579D01*
X198222770Y-102689917D01*
X197664558Y-102371363D01*
X197628637Y-102407284D01*
X197628637Y-102335442D01*
X197310083Y-101777230D01*
X195900937Y-101138518D01*
X194354633Y-101087682D01*
X192906579Y-101632461D01*
X192689917Y-101777230D01*
X192371363Y-102335442D01*
X195000000Y-104964079D01*
X197628637Y-102335442D01*
X197628637Y-102407284D01*
X195035921Y-105000000D01*
X197664558Y-107628637D01*
X198222770Y-107310083D01*
X198861482Y-105900937D01*
X198912318Y-104354633D01*
X198912318Y-108458000D01*
X196852970Y-108458000D01*
X197093421Y-108367539D01*
X197310083Y-108222770D01*
X197628637Y-107664558D01*
X195000000Y-105035921D01*
X194964079Y-105071842D01*
X194964079Y-105000000D01*
X192335442Y-102371363D01*
X191777230Y-102689917D01*
X191138518Y-104099063D01*
X191087682Y-105645367D01*
X191632461Y-107093421D01*
X191777230Y-107310083D01*
X192335442Y-107628637D01*
X194964079Y-105000000D01*
X194964079Y-105071842D01*
X192371363Y-107664558D01*
X192689917Y-108222770D01*
X193208888Y-108458000D01*
X188179446Y-108458000D01*
X188133223Y-108411777D01*
X187762407Y-108164006D01*
X187325000Y-108077000D01*
X187078457Y-108077000D01*
X187078457Y-106391609D01*
X186841852Y-105778898D01*
X186796629Y-105711216D01*
X186470954Y-105664967D01*
X185455921Y-106680000D01*
X186470954Y-107695033D01*
X186796629Y-107648784D01*
X187062577Y-107048226D01*
X187078457Y-106391609D01*
X187078457Y-108077000D01*
X186358296Y-108077000D01*
X186388784Y-108056629D01*
X186435033Y-107730954D01*
X185420000Y-106715921D01*
X184404967Y-107730954D01*
X184451216Y-108056629D01*
X184497217Y-108077000D01*
X184023000Y-108077000D01*
X184023000Y-107618296D01*
X184043371Y-107648784D01*
X184369046Y-107695033D01*
X185384079Y-106680000D01*
X184369046Y-105664967D01*
X184043371Y-105711216D01*
X184023000Y-105757217D01*
X184023000Y-105028309D01*
X184119673Y-105261698D01*
X184298301Y-105440327D01*
X184424352Y-105492539D01*
X184404967Y-105629046D01*
X185420000Y-106644079D01*
X186435033Y-105629046D01*
X186415647Y-105492538D01*
X186541698Y-105440327D01*
X186720327Y-105261699D01*
X186817000Y-105028310D01*
X186817000Y-104775691D01*
X186817000Y-103251691D01*
X186720327Y-103018302D01*
X186541699Y-102839673D01*
X186308310Y-102743000D01*
X186055691Y-102743000D01*
X184531691Y-102743000D01*
X184298302Y-102839673D01*
X184119673Y-103018301D01*
X184023000Y-103251690D01*
X184023000Y-103307613D01*
X183672370Y-102956371D01*
X183159100Y-102743243D01*
X182603339Y-102742758D01*
X182089697Y-102954990D01*
X181696371Y-103347630D01*
X181610050Y-103555512D01*
X181525010Y-103349697D01*
X181132370Y-102956371D01*
X180619100Y-102743243D01*
X180063339Y-102742758D01*
X179549697Y-102954990D01*
X179156371Y-103347630D01*
X179070050Y-103555512D01*
X178985010Y-103349697D01*
X178592370Y-102956371D01*
X178079100Y-102743243D01*
X177523339Y-102742758D01*
X177009697Y-102954990D01*
X176616371Y-103347630D01*
X176403243Y-103860900D01*
X176402758Y-104416661D01*
X176614990Y-104930303D01*
X177007630Y-105323629D01*
X177215512Y-105409949D01*
X177009697Y-105494990D01*
X176616371Y-105887630D01*
X176403243Y-106400900D01*
X176402758Y-106956661D01*
X176614990Y-107470303D01*
X176992427Y-107848400D01*
X172390110Y-107848400D01*
X172140890Y-107599180D01*
X172148268Y-107581413D01*
X172148731Y-107050914D01*
X171946146Y-106560620D01*
X171571353Y-106185173D01*
X171233553Y-106044906D01*
X171569380Y-105906146D01*
X171944827Y-105531353D01*
X172148268Y-105041413D01*
X172148731Y-104510914D01*
X171946146Y-104020620D01*
X171571353Y-103645173D01*
X171081413Y-103441732D01*
X170550914Y-103441269D01*
X170060620Y-103643854D01*
X169685173Y-104018647D01*
X169493636Y-104479917D01*
X168101777Y-105871777D01*
X167854006Y-106242593D01*
X167767000Y-106680000D01*
X167767000Y-107950000D01*
X167854006Y-108387407D01*
X167901174Y-108458000D01*
X166243000Y-108458000D01*
X166243000Y-140462000D01*
X170341554Y-140462000D01*
X168690745Y-142112808D01*
X168633339Y-142112758D01*
X168119697Y-142324990D01*
X167803938Y-142640197D01*
X167791852Y-142608898D01*
X167746629Y-142541216D01*
X167420954Y-142494967D01*
X167385033Y-142530888D01*
X167385033Y-142459046D01*
X167338784Y-142133371D01*
X166738226Y-141867423D01*
X166081609Y-141851543D01*
X165468898Y-142088148D01*
X165401216Y-142133371D01*
X165354967Y-142459046D01*
X166370000Y-143474079D01*
X167385033Y-142459046D01*
X167385033Y-142530888D01*
X166405921Y-143510000D01*
X167420954Y-144525033D01*
X167746629Y-144478784D01*
X167767000Y-144432782D01*
X167767000Y-145161691D01*
X167670327Y-144928302D01*
X167491699Y-144749673D01*
X167365647Y-144697460D01*
X167385033Y-144560954D01*
X166370000Y-143545921D01*
X166334079Y-143581842D01*
X166334079Y-143510000D01*
X165319046Y-142494967D01*
X164993371Y-142541216D01*
X164789504Y-143001584D01*
X164789504Y-136246739D01*
X164789504Y-131166739D01*
X164789504Y-124181739D01*
X164789504Y-119101739D01*
X164789504Y-112116739D01*
X164789504Y-107036739D01*
X164561644Y-106447729D01*
X164528500Y-106398127D01*
X164528500Y-105599810D01*
X164528500Y-105347191D01*
X164528500Y-103950191D01*
X164431827Y-103716802D01*
X164253199Y-103538173D01*
X164019810Y-103441500D01*
X163767191Y-103441500D01*
X162370191Y-103441500D01*
X162136802Y-103538173D01*
X161958173Y-103716801D01*
X161861500Y-103950190D01*
X161861500Y-104202809D01*
X161861500Y-105599809D01*
X161958173Y-105833198D01*
X162136801Y-106011827D01*
X162255782Y-106061110D01*
X162225755Y-106309834D01*
X163195000Y-107279079D01*
X164164245Y-106309834D01*
X164134217Y-106061110D01*
X164253198Y-106011827D01*
X164431827Y-105833199D01*
X164528500Y-105599810D01*
X164528500Y-106398127D01*
X164519244Y-106384276D01*
X164200166Y-106345755D01*
X163230921Y-107315000D01*
X164200166Y-108284245D01*
X164519244Y-108245724D01*
X164774615Y-107668110D01*
X164789504Y-107036739D01*
X164789504Y-112116739D01*
X164561644Y-111527729D01*
X164528731Y-111478473D01*
X164528731Y-109590914D01*
X164326146Y-109100620D01*
X163951353Y-108725173D01*
X163950579Y-108724851D01*
X164062271Y-108681644D01*
X164125724Y-108639244D01*
X164164245Y-108320166D01*
X163195000Y-107350921D01*
X163159079Y-107386842D01*
X163159079Y-107315000D01*
X162189834Y-106345755D01*
X161870756Y-106384276D01*
X161615385Y-106961890D01*
X161600496Y-107593261D01*
X161828356Y-108182271D01*
X161870756Y-108245724D01*
X162189834Y-108284245D01*
X163159079Y-107315000D01*
X163159079Y-107386842D01*
X162225755Y-108320166D01*
X162264276Y-108639244D01*
X162448390Y-108720643D01*
X162440620Y-108723854D01*
X162065173Y-109098647D01*
X161861732Y-109588587D01*
X161861269Y-110119086D01*
X162063854Y-110609380D01*
X162438647Y-110984827D01*
X162439420Y-110985148D01*
X162327729Y-111028356D01*
X162264276Y-111070756D01*
X162225755Y-111389834D01*
X163195000Y-112359079D01*
X164164245Y-111389834D01*
X164125724Y-111070756D01*
X163941609Y-110989356D01*
X163949380Y-110986146D01*
X164324827Y-110611353D01*
X164528268Y-110121413D01*
X164528731Y-109590914D01*
X164528731Y-111478473D01*
X164519244Y-111464276D01*
X164200166Y-111425755D01*
X163230921Y-112395000D01*
X164200166Y-113364245D01*
X164519244Y-113325724D01*
X164774615Y-112748110D01*
X164789504Y-112116739D01*
X164789504Y-119101739D01*
X164561644Y-118512729D01*
X164519244Y-118449276D01*
X164200166Y-118410755D01*
X163230921Y-119380000D01*
X164200166Y-120349245D01*
X164519244Y-120310724D01*
X164774615Y-119733110D01*
X164789504Y-119101739D01*
X164789504Y-124181739D01*
X164561644Y-123592729D01*
X164519244Y-123529276D01*
X164200166Y-123490755D01*
X163230921Y-124460000D01*
X164200166Y-125429245D01*
X164519244Y-125390724D01*
X164774615Y-124813110D01*
X164789504Y-124181739D01*
X164789504Y-131166739D01*
X164561644Y-130577729D01*
X164519244Y-130514276D01*
X164200166Y-130475755D01*
X163230921Y-131445000D01*
X164200166Y-132414245D01*
X164519244Y-132375724D01*
X164774615Y-131798110D01*
X164789504Y-131166739D01*
X164789504Y-136246739D01*
X164561644Y-135657729D01*
X164519244Y-135594276D01*
X164200166Y-135555755D01*
X163230921Y-136525000D01*
X164200166Y-137494245D01*
X164519244Y-137455724D01*
X164774615Y-136878110D01*
X164789504Y-136246739D01*
X164789504Y-143001584D01*
X164727423Y-143141774D01*
X164711543Y-143798391D01*
X164948148Y-144411102D01*
X164993371Y-144478784D01*
X165319046Y-144525033D01*
X166334079Y-143510000D01*
X166334079Y-143581842D01*
X165354967Y-144560954D01*
X165374352Y-144697461D01*
X165248302Y-144749673D01*
X165069673Y-144928301D01*
X164973000Y-145161690D01*
X164973000Y-145414309D01*
X164973000Y-146938309D01*
X165069673Y-147171698D01*
X165248301Y-147350327D01*
X165481690Y-147447000D01*
X164164245Y-147447000D01*
X164164245Y-137530166D01*
X163195000Y-136560921D01*
X163159079Y-136596842D01*
X163159079Y-136525000D01*
X162189834Y-135555755D01*
X161870756Y-135594276D01*
X161615385Y-136171890D01*
X161600496Y-136803261D01*
X161828356Y-137392271D01*
X161870756Y-137455724D01*
X162189834Y-137494245D01*
X163159079Y-136525000D01*
X163159079Y-136596842D01*
X162225755Y-137530166D01*
X162264276Y-137849244D01*
X162841890Y-138104615D01*
X163473261Y-138119504D01*
X164062271Y-137891644D01*
X164125724Y-137849244D01*
X164164245Y-137530166D01*
X164164245Y-147447000D01*
X161043457Y-147447000D01*
X161043457Y-145761609D01*
X160806852Y-145148898D01*
X160761629Y-145081216D01*
X160435954Y-145034967D01*
X160400033Y-145070888D01*
X160400033Y-144999046D01*
X160353784Y-144673371D01*
X159753226Y-144407423D01*
X159096609Y-144391543D01*
X158483898Y-144628148D01*
X158416216Y-144673371D01*
X158369967Y-144999046D01*
X159385000Y-146014079D01*
X160400033Y-144999046D01*
X160400033Y-145070888D01*
X159420921Y-146050000D01*
X160435954Y-147065033D01*
X160761629Y-147018784D01*
X161027577Y-146418226D01*
X161043457Y-145761609D01*
X161043457Y-147447000D01*
X160323296Y-147447000D01*
X160353784Y-147426629D01*
X160400033Y-147100954D01*
X159385000Y-146085921D01*
X158369967Y-147100954D01*
X158416216Y-147426629D01*
X158462217Y-147447000D01*
X157122246Y-147447000D01*
X157635303Y-147235010D01*
X157951061Y-146919802D01*
X157963148Y-146951102D01*
X158008371Y-147018784D01*
X158334046Y-147065033D01*
X159349079Y-146050000D01*
X158334046Y-145034967D01*
X158008371Y-145081216D01*
X157960270Y-145189835D01*
X157637370Y-144866371D01*
X157124100Y-144653243D01*
X156568339Y-144652758D01*
X156512528Y-144675818D01*
X156311600Y-144474890D01*
X156311600Y-138932080D01*
X156324145Y-138950855D01*
X157828824Y-140455534D01*
X157750794Y-140643453D01*
X157750226Y-141293694D01*
X157998538Y-141894655D01*
X158457927Y-142354846D01*
X159058453Y-142604206D01*
X159708694Y-142604774D01*
X160309655Y-142356462D01*
X160769846Y-141897073D01*
X161019206Y-141296547D01*
X161019774Y-140646306D01*
X160771462Y-140045345D01*
X160312073Y-139585154D01*
X159711547Y-139335794D01*
X159061306Y-139335226D01*
X158870694Y-139413984D01*
X157581600Y-138124890D01*
X157581600Y-136398310D01*
X157828824Y-136645534D01*
X157750794Y-136833453D01*
X157750226Y-137483694D01*
X157998538Y-138084655D01*
X158457927Y-138544846D01*
X159058453Y-138794206D01*
X159708694Y-138794774D01*
X160309655Y-138546462D01*
X160769846Y-138087073D01*
X161019206Y-137486547D01*
X161019774Y-136836306D01*
X160771462Y-136235345D01*
X160312073Y-135775154D01*
X159711547Y-135525794D01*
X159061306Y-135525226D01*
X158870694Y-135603984D01*
X158216600Y-134949890D01*
X158216600Y-134493097D01*
X158457927Y-134734846D01*
X159058453Y-134984206D01*
X159708694Y-134984774D01*
X160309655Y-134736462D01*
X160769846Y-134277073D01*
X161019206Y-133676547D01*
X161019774Y-133026306D01*
X160771462Y-132425345D01*
X160312073Y-131965154D01*
X160121600Y-131886062D01*
X160121600Y-131004164D01*
X160309655Y-130926462D01*
X160769846Y-130467073D01*
X161019206Y-129866547D01*
X161019774Y-129216306D01*
X160896675Y-128918385D01*
X161188400Y-129210110D01*
X161188400Y-132715000D01*
X161244470Y-132996885D01*
X161404145Y-133235855D01*
X161869109Y-133700819D01*
X161861732Y-133718587D01*
X161861269Y-134249086D01*
X162063854Y-134739380D01*
X162438647Y-135114827D01*
X162439420Y-135115148D01*
X162327729Y-135158356D01*
X162264276Y-135200756D01*
X162225755Y-135519834D01*
X163195000Y-136489079D01*
X164164245Y-135519834D01*
X164125724Y-135200756D01*
X163941609Y-135119356D01*
X163949380Y-135116146D01*
X164324827Y-134741353D01*
X164528268Y-134251413D01*
X164528731Y-133720914D01*
X164326146Y-133230620D01*
X163951353Y-132855173D01*
X163950579Y-132854851D01*
X164062271Y-132811644D01*
X164125724Y-132769244D01*
X164164245Y-132450166D01*
X163195000Y-131480921D01*
X163180857Y-131495063D01*
X163144936Y-131459142D01*
X163159079Y-131445000D01*
X163144936Y-131430857D01*
X163180857Y-131394936D01*
X163195000Y-131409079D01*
X164164245Y-130439834D01*
X164134217Y-130191110D01*
X164253198Y-130141827D01*
X164431827Y-129963199D01*
X164528500Y-129729810D01*
X164528500Y-129477191D01*
X164528500Y-128080191D01*
X164431827Y-127846802D01*
X164253199Y-127668173D01*
X164164245Y-127631327D01*
X164164245Y-125465166D01*
X163195000Y-124495921D01*
X162225755Y-125465166D01*
X162264276Y-125784244D01*
X162841890Y-126039615D01*
X163473261Y-126054504D01*
X164062271Y-125826644D01*
X164125724Y-125784244D01*
X164164245Y-125465166D01*
X164164245Y-127631327D01*
X164019810Y-127571500D01*
X163767191Y-127571500D01*
X162903210Y-127571500D01*
X162026600Y-126694890D01*
X162026600Y-125409538D01*
X162189834Y-125429245D01*
X163159079Y-124460000D01*
X162189834Y-123490755D01*
X162026600Y-123510461D01*
X162026600Y-122584218D01*
X162063854Y-122674380D01*
X162438647Y-123049827D01*
X162439420Y-123050148D01*
X162327729Y-123093356D01*
X162264276Y-123135756D01*
X162225755Y-123454834D01*
X163195000Y-124424079D01*
X164164245Y-123454834D01*
X164125724Y-123135756D01*
X163941609Y-123054356D01*
X163949380Y-123051146D01*
X164324827Y-122676353D01*
X164528268Y-122186413D01*
X164528731Y-121655914D01*
X164326146Y-121165620D01*
X163951353Y-120790173D01*
X163950579Y-120789851D01*
X164062271Y-120746644D01*
X164125724Y-120704244D01*
X164164245Y-120385166D01*
X163195000Y-119415921D01*
X163180857Y-119430063D01*
X163144936Y-119394142D01*
X163159079Y-119380000D01*
X163144936Y-119365857D01*
X163180857Y-119329936D01*
X163195000Y-119344079D01*
X164164245Y-118374834D01*
X164134217Y-118126110D01*
X164253198Y-118076827D01*
X164431827Y-117898199D01*
X164528500Y-117664810D01*
X164528500Y-117412191D01*
X164528500Y-116015191D01*
X164431827Y-115781802D01*
X164253199Y-115603173D01*
X164019810Y-115506500D01*
X163918969Y-115506500D01*
X163875530Y-115288115D01*
X163715855Y-115049145D01*
X162482381Y-113815671D01*
X162841890Y-113974615D01*
X163473261Y-113989504D01*
X164062271Y-113761644D01*
X164125724Y-113719244D01*
X164164245Y-113400166D01*
X163195000Y-112430921D01*
X163180857Y-112445063D01*
X163144936Y-112409142D01*
X163159079Y-112395000D01*
X162189834Y-111425755D01*
X161870756Y-111464276D01*
X161615385Y-112041890D01*
X161600496Y-112673261D01*
X161764868Y-113098158D01*
X161345890Y-112679180D01*
X161353268Y-112661413D01*
X161353731Y-112130914D01*
X161151146Y-111640620D01*
X160776353Y-111265173D01*
X160438553Y-111124906D01*
X160774380Y-110986146D01*
X161149827Y-110611353D01*
X161353268Y-110121413D01*
X161353731Y-109590914D01*
X161151146Y-109100620D01*
X160776353Y-108725173D01*
X160438553Y-108584906D01*
X160774380Y-108446146D01*
X161149827Y-108071353D01*
X161353268Y-107581413D01*
X161353731Y-107050914D01*
X161349690Y-107041134D01*
X161349690Y-103411323D01*
X161349690Y-103057657D01*
X161349690Y-102482650D01*
X161127440Y-102260400D01*
X159486600Y-102260400D01*
X159486600Y-103901240D01*
X159708850Y-104123490D01*
X160637523Y-104123490D01*
X160964268Y-103988148D01*
X161214348Y-103738068D01*
X161349690Y-103411323D01*
X161349690Y-107041134D01*
X161151146Y-106560620D01*
X160776353Y-106185173D01*
X160286413Y-105981732D01*
X159755914Y-105981269D01*
X159265620Y-106183854D01*
X158890173Y-106558647D01*
X158851600Y-106651541D01*
X158851600Y-104140000D01*
X158848315Y-104123490D01*
X159213550Y-104123490D01*
X159435800Y-103901240D01*
X159435800Y-102260400D01*
X157794960Y-102260400D01*
X157572710Y-102482650D01*
X157572710Y-102556000D01*
X155701710Y-100685000D01*
X157754984Y-100685000D01*
X157708052Y-100731932D01*
X157572710Y-101058677D01*
X157572710Y-101412343D01*
X157572710Y-101987350D01*
X157794960Y-102209600D01*
X159435800Y-102209600D01*
X159435800Y-102189600D01*
X159486600Y-102189600D01*
X159486600Y-102209600D01*
X161127440Y-102209600D01*
X161349690Y-101987350D01*
X161349690Y-101412343D01*
X161349690Y-101058677D01*
X161214348Y-100731932D01*
X161167416Y-100685000D01*
X199263000Y-100685000D01*
X199263000Y-108458000D01*
X199263000Y-108458000D01*
G37*
X199263000Y-108458000D02*
X198912318Y-108458000D01*
X198912318Y-104354633D01*
X198367539Y-102906579D01*
X198222770Y-102689917D01*
X197664558Y-102371363D01*
X197628637Y-102407284D01*
X197628637Y-102335442D01*
X197310083Y-101777230D01*
X195900937Y-101138518D01*
X194354633Y-101087682D01*
X192906579Y-101632461D01*
X192689917Y-101777230D01*
X192371363Y-102335442D01*
X195000000Y-104964079D01*
X197628637Y-102335442D01*
X197628637Y-102407284D01*
X195035921Y-105000000D01*
X197664558Y-107628637D01*
X198222770Y-107310083D01*
X198861482Y-105900937D01*
X198912318Y-104354633D01*
X198912318Y-108458000D01*
X196852970Y-108458000D01*
X197093421Y-108367539D01*
X197310083Y-108222770D01*
X197628637Y-107664558D01*
X195000000Y-105035921D01*
X194964079Y-105071842D01*
X194964079Y-105000000D01*
X192335442Y-102371363D01*
X191777230Y-102689917D01*
X191138518Y-104099063D01*
X191087682Y-105645367D01*
X191632461Y-107093421D01*
X191777230Y-107310083D01*
X192335442Y-107628637D01*
X194964079Y-105000000D01*
X194964079Y-105071842D01*
X192371363Y-107664558D01*
X192689917Y-108222770D01*
X193208888Y-108458000D01*
X188179446Y-108458000D01*
X188133223Y-108411777D01*
X187762407Y-108164006D01*
X187325000Y-108077000D01*
X187078457Y-108077000D01*
X187078457Y-106391609D01*
X186841852Y-105778898D01*
X186796629Y-105711216D01*
X186470954Y-105664967D01*
X185455921Y-106680000D01*
X186470954Y-107695033D01*
X186796629Y-107648784D01*
X187062577Y-107048226D01*
X187078457Y-106391609D01*
X187078457Y-108077000D01*
X186358296Y-108077000D01*
X186388784Y-108056629D01*
X186435033Y-107730954D01*
X185420000Y-106715921D01*
X184404967Y-107730954D01*
X184451216Y-108056629D01*
X184497217Y-108077000D01*
X184023000Y-108077000D01*
X184023000Y-107618296D01*
X184043371Y-107648784D01*
X184369046Y-107695033D01*
X185384079Y-106680000D01*
X184369046Y-105664967D01*
X184043371Y-105711216D01*
X184023000Y-105757217D01*
X184023000Y-105028309D01*
X184119673Y-105261698D01*
X184298301Y-105440327D01*
X184424352Y-105492539D01*
X184404967Y-105629046D01*
X185420000Y-106644079D01*
X186435033Y-105629046D01*
X186415647Y-105492538D01*
X186541698Y-105440327D01*
X186720327Y-105261699D01*
X186817000Y-105028310D01*
X186817000Y-104775691D01*
X186817000Y-103251691D01*
X186720327Y-103018302D01*
X186541699Y-102839673D01*
X186308310Y-102743000D01*
X186055691Y-102743000D01*
X184531691Y-102743000D01*
X184298302Y-102839673D01*
X184119673Y-103018301D01*
X184023000Y-103251690D01*
X184023000Y-103307613D01*
X183672370Y-102956371D01*
X183159100Y-102743243D01*
X182603339Y-102742758D01*
X182089697Y-102954990D01*
X181696371Y-103347630D01*
X181610050Y-103555512D01*
X181525010Y-103349697D01*
X181132370Y-102956371D01*
X180619100Y-102743243D01*
X180063339Y-102742758D01*
X179549697Y-102954990D01*
X179156371Y-103347630D01*
X179070050Y-103555512D01*
X178985010Y-103349697D01*
X178592370Y-102956371D01*
X178079100Y-102743243D01*
X177523339Y-102742758D01*
X177009697Y-102954990D01*
X176616371Y-103347630D01*
X176403243Y-103860900D01*
X176402758Y-104416661D01*
X176614990Y-104930303D01*
X177007630Y-105323629D01*
X177215512Y-105409949D01*
X177009697Y-105494990D01*
X176616371Y-105887630D01*
X176403243Y-106400900D01*
X176402758Y-106956661D01*
X176614990Y-107470303D01*
X176992427Y-107848400D01*
X172390110Y-107848400D01*
X172140890Y-107599180D01*
X172148268Y-107581413D01*
X172148731Y-107050914D01*
X171946146Y-106560620D01*
X171571353Y-106185173D01*
X171233553Y-106044906D01*
X171569380Y-105906146D01*
X171944827Y-105531353D01*
X172148268Y-105041413D01*
X172148731Y-104510914D01*
X171946146Y-104020620D01*
X171571353Y-103645173D01*
X171081413Y-103441732D01*
X170550914Y-103441269D01*
X170060620Y-103643854D01*
X169685173Y-104018647D01*
X169493636Y-104479917D01*
X168101777Y-105871777D01*
X167854006Y-106242593D01*
X167767000Y-106680000D01*
X167767000Y-107950000D01*
X167854006Y-108387407D01*
X167901174Y-108458000D01*
X166243000Y-108458000D01*
X166243000Y-140462000D01*
X170341554Y-140462000D01*
X168690745Y-142112808D01*
X168633339Y-142112758D01*
X168119697Y-142324990D01*
X167803938Y-142640197D01*
X167791852Y-142608898D01*
X167746629Y-142541216D01*
X167420954Y-142494967D01*
X167385033Y-142530888D01*
X167385033Y-142459046D01*
X167338784Y-142133371D01*
X166738226Y-141867423D01*
X166081609Y-141851543D01*
X165468898Y-142088148D01*
X165401216Y-142133371D01*
X165354967Y-142459046D01*
X166370000Y-143474079D01*
X167385033Y-142459046D01*
X167385033Y-142530888D01*
X166405921Y-143510000D01*
X167420954Y-144525033D01*
X167746629Y-144478784D01*
X167767000Y-144432782D01*
X167767000Y-145161691D01*
X167670327Y-144928302D01*
X167491699Y-144749673D01*
X167365647Y-144697460D01*
X167385033Y-144560954D01*
X166370000Y-143545921D01*
X166334079Y-143581842D01*
X166334079Y-143510000D01*
X165319046Y-142494967D01*
X164993371Y-142541216D01*
X164789504Y-143001584D01*
X164789504Y-136246739D01*
X164789504Y-131166739D01*
X164789504Y-124181739D01*
X164789504Y-119101739D01*
X164789504Y-112116739D01*
X164789504Y-107036739D01*
X164561644Y-106447729D01*
X164528500Y-106398127D01*
X164528500Y-105599810D01*
X164528500Y-105347191D01*
X164528500Y-103950191D01*
X164431827Y-103716802D01*
X164253199Y-103538173D01*
X164019810Y-103441500D01*
X163767191Y-103441500D01*
X162370191Y-103441500D01*
X162136802Y-103538173D01*
X161958173Y-103716801D01*
X161861500Y-103950190D01*
X161861500Y-104202809D01*
X161861500Y-105599809D01*
X161958173Y-105833198D01*
X162136801Y-106011827D01*
X162255782Y-106061110D01*
X162225755Y-106309834D01*
X163195000Y-107279079D01*
X164164245Y-106309834D01*
X164134217Y-106061110D01*
X164253198Y-106011827D01*
X164431827Y-105833199D01*
X164528500Y-105599810D01*
X164528500Y-106398127D01*
X164519244Y-106384276D01*
X164200166Y-106345755D01*
X163230921Y-107315000D01*
X164200166Y-108284245D01*
X164519244Y-108245724D01*
X164774615Y-107668110D01*
X164789504Y-107036739D01*
X164789504Y-112116739D01*
X164561644Y-111527729D01*
X164528731Y-111478473D01*
X164528731Y-109590914D01*
X164326146Y-109100620D01*
X163951353Y-108725173D01*
X163950579Y-108724851D01*
X164062271Y-108681644D01*
X164125724Y-108639244D01*
X164164245Y-108320166D01*
X163195000Y-107350921D01*
X163159079Y-107386842D01*
X163159079Y-107315000D01*
X162189834Y-106345755D01*
X161870756Y-106384276D01*
X161615385Y-106961890D01*
X161600496Y-107593261D01*
X161828356Y-108182271D01*
X161870756Y-108245724D01*
X162189834Y-108284245D01*
X163159079Y-107315000D01*
X163159079Y-107386842D01*
X162225755Y-108320166D01*
X162264276Y-108639244D01*
X162448390Y-108720643D01*
X162440620Y-108723854D01*
X162065173Y-109098647D01*
X161861732Y-109588587D01*
X161861269Y-110119086D01*
X162063854Y-110609380D01*
X162438647Y-110984827D01*
X162439420Y-110985148D01*
X162327729Y-111028356D01*
X162264276Y-111070756D01*
X162225755Y-111389834D01*
X163195000Y-112359079D01*
X164164245Y-111389834D01*
X164125724Y-111070756D01*
X163941609Y-110989356D01*
X163949380Y-110986146D01*
X164324827Y-110611353D01*
X164528268Y-110121413D01*
X164528731Y-109590914D01*
X164528731Y-111478473D01*
X164519244Y-111464276D01*
X164200166Y-111425755D01*
X163230921Y-112395000D01*
X164200166Y-113364245D01*
X164519244Y-113325724D01*
X164774615Y-112748110D01*
X164789504Y-112116739D01*
X164789504Y-119101739D01*
X164561644Y-118512729D01*
X164519244Y-118449276D01*
X164200166Y-118410755D01*
X163230921Y-119380000D01*
X164200166Y-120349245D01*
X164519244Y-120310724D01*
X164774615Y-119733110D01*
X164789504Y-119101739D01*
X164789504Y-124181739D01*
X164561644Y-123592729D01*
X164519244Y-123529276D01*
X164200166Y-123490755D01*
X163230921Y-124460000D01*
X164200166Y-125429245D01*
X164519244Y-125390724D01*
X164774615Y-124813110D01*
X164789504Y-124181739D01*
X164789504Y-131166739D01*
X164561644Y-130577729D01*
X164519244Y-130514276D01*
X164200166Y-130475755D01*
X163230921Y-131445000D01*
X164200166Y-132414245D01*
X164519244Y-132375724D01*
X164774615Y-131798110D01*
X164789504Y-131166739D01*
X164789504Y-136246739D01*
X164561644Y-135657729D01*
X164519244Y-135594276D01*
X164200166Y-135555755D01*
X163230921Y-136525000D01*
X164200166Y-137494245D01*
X164519244Y-137455724D01*
X164774615Y-136878110D01*
X164789504Y-136246739D01*
X164789504Y-143001584D01*
X164727423Y-143141774D01*
X164711543Y-143798391D01*
X164948148Y-144411102D01*
X164993371Y-144478784D01*
X165319046Y-144525033D01*
X166334079Y-143510000D01*
X166334079Y-143581842D01*
X165354967Y-144560954D01*
X165374352Y-144697461D01*
X165248302Y-144749673D01*
X165069673Y-144928301D01*
X164973000Y-145161690D01*
X164973000Y-145414309D01*
X164973000Y-146938309D01*
X165069673Y-147171698D01*
X165248301Y-147350327D01*
X165481690Y-147447000D01*
X164164245Y-147447000D01*
X164164245Y-137530166D01*
X163195000Y-136560921D01*
X163159079Y-136596842D01*
X163159079Y-136525000D01*
X162189834Y-135555755D01*
X161870756Y-135594276D01*
X161615385Y-136171890D01*
X161600496Y-136803261D01*
X161828356Y-137392271D01*
X161870756Y-137455724D01*
X162189834Y-137494245D01*
X163159079Y-136525000D01*
X163159079Y-136596842D01*
X162225755Y-137530166D01*
X162264276Y-137849244D01*
X162841890Y-138104615D01*
X163473261Y-138119504D01*
X164062271Y-137891644D01*
X164125724Y-137849244D01*
X164164245Y-137530166D01*
X164164245Y-147447000D01*
X161043457Y-147447000D01*
X161043457Y-145761609D01*
X160806852Y-145148898D01*
X160761629Y-145081216D01*
X160435954Y-145034967D01*
X160400033Y-145070888D01*
X160400033Y-144999046D01*
X160353784Y-144673371D01*
X159753226Y-144407423D01*
X159096609Y-144391543D01*
X158483898Y-144628148D01*
X158416216Y-144673371D01*
X158369967Y-144999046D01*
X159385000Y-146014079D01*
X160400033Y-144999046D01*
X160400033Y-145070888D01*
X159420921Y-146050000D01*
X160435954Y-147065033D01*
X160761629Y-147018784D01*
X161027577Y-146418226D01*
X161043457Y-145761609D01*
X161043457Y-147447000D01*
X160323296Y-147447000D01*
X160353784Y-147426629D01*
X160400033Y-147100954D01*
X159385000Y-146085921D01*
X158369967Y-147100954D01*
X158416216Y-147426629D01*
X158462217Y-147447000D01*
X157122246Y-147447000D01*
X157635303Y-147235010D01*
X157951061Y-146919802D01*
X157963148Y-146951102D01*
X158008371Y-147018784D01*
X158334046Y-147065033D01*
X159349079Y-146050000D01*
X158334046Y-145034967D01*
X158008371Y-145081216D01*
X157960270Y-145189835D01*
X157637370Y-144866371D01*
X157124100Y-144653243D01*
X156568339Y-144652758D01*
X156512528Y-144675818D01*
X156311600Y-144474890D01*
X156311600Y-138932080D01*
X156324145Y-138950855D01*
X157828824Y-140455534D01*
X157750794Y-140643453D01*
X157750226Y-141293694D01*
X157998538Y-141894655D01*
X158457927Y-142354846D01*
X159058453Y-142604206D01*
X159708694Y-142604774D01*
X160309655Y-142356462D01*
X160769846Y-141897073D01*
X161019206Y-141296547D01*
X161019774Y-140646306D01*
X160771462Y-140045345D01*
X160312073Y-139585154D01*
X159711547Y-139335794D01*
X159061306Y-139335226D01*
X158870694Y-139413984D01*
X157581600Y-138124890D01*
X157581600Y-136398310D01*
X157828824Y-136645534D01*
X157750794Y-136833453D01*
X157750226Y-137483694D01*
X157998538Y-138084655D01*
X158457927Y-138544846D01*
X159058453Y-138794206D01*
X159708694Y-138794774D01*
X160309655Y-138546462D01*
X160769846Y-138087073D01*
X161019206Y-137486547D01*
X161019774Y-136836306D01*
X160771462Y-136235345D01*
X160312073Y-135775154D01*
X159711547Y-135525794D01*
X159061306Y-135525226D01*
X158870694Y-135603984D01*
X158216600Y-134949890D01*
X158216600Y-134493097D01*
X158457927Y-134734846D01*
X159058453Y-134984206D01*
X159708694Y-134984774D01*
X160309655Y-134736462D01*
X160769846Y-134277073D01*
X161019206Y-133676547D01*
X161019774Y-133026306D01*
X160771462Y-132425345D01*
X160312073Y-131965154D01*
X160121600Y-131886062D01*
X160121600Y-131004164D01*
X160309655Y-130926462D01*
X160769846Y-130467073D01*
X161019206Y-129866547D01*
X161019774Y-129216306D01*
X160896675Y-128918385D01*
X161188400Y-129210110D01*
X161188400Y-132715000D01*
X161244470Y-132996885D01*
X161404145Y-133235855D01*
X161869109Y-133700819D01*
X161861732Y-133718587D01*
X161861269Y-134249086D01*
X162063854Y-134739380D01*
X162438647Y-135114827D01*
X162439420Y-135115148D01*
X162327729Y-135158356D01*
X162264276Y-135200756D01*
X162225755Y-135519834D01*
X163195000Y-136489079D01*
X164164245Y-135519834D01*
X164125724Y-135200756D01*
X163941609Y-135119356D01*
X163949380Y-135116146D01*
X164324827Y-134741353D01*
X164528268Y-134251413D01*
X164528731Y-133720914D01*
X164326146Y-133230620D01*
X163951353Y-132855173D01*
X163950579Y-132854851D01*
X164062271Y-132811644D01*
X164125724Y-132769244D01*
X164164245Y-132450166D01*
X163195000Y-131480921D01*
X163180857Y-131495063D01*
X163144936Y-131459142D01*
X163159079Y-131445000D01*
X163144936Y-131430857D01*
X163180857Y-131394936D01*
X163195000Y-131409079D01*
X164164245Y-130439834D01*
X164134217Y-130191110D01*
X164253198Y-130141827D01*
X164431827Y-129963199D01*
X164528500Y-129729810D01*
X164528500Y-129477191D01*
X164528500Y-128080191D01*
X164431827Y-127846802D01*
X164253199Y-127668173D01*
X164164245Y-127631327D01*
X164164245Y-125465166D01*
X163195000Y-124495921D01*
X162225755Y-125465166D01*
X162264276Y-125784244D01*
X162841890Y-126039615D01*
X163473261Y-126054504D01*
X164062271Y-125826644D01*
X164125724Y-125784244D01*
X164164245Y-125465166D01*
X164164245Y-127631327D01*
X164019810Y-127571500D01*
X163767191Y-127571500D01*
X162903210Y-127571500D01*
X162026600Y-126694890D01*
X162026600Y-125409538D01*
X162189834Y-125429245D01*
X163159079Y-124460000D01*
X162189834Y-123490755D01*
X162026600Y-123510461D01*
X162026600Y-122584218D01*
X162063854Y-122674380D01*
X162438647Y-123049827D01*
X162439420Y-123050148D01*
X162327729Y-123093356D01*
X162264276Y-123135756D01*
X162225755Y-123454834D01*
X163195000Y-124424079D01*
X164164245Y-123454834D01*
X164125724Y-123135756D01*
X163941609Y-123054356D01*
X163949380Y-123051146D01*
X164324827Y-122676353D01*
X164528268Y-122186413D01*
X164528731Y-121655914D01*
X164326146Y-121165620D01*
X163951353Y-120790173D01*
X163950579Y-120789851D01*
X164062271Y-120746644D01*
X164125724Y-120704244D01*
X164164245Y-120385166D01*
X163195000Y-119415921D01*
X163180857Y-119430063D01*
X163144936Y-119394142D01*
X163159079Y-119380000D01*
X163144936Y-119365857D01*
X163180857Y-119329936D01*
X163195000Y-119344079D01*
X164164245Y-118374834D01*
X164134217Y-118126110D01*
X164253198Y-118076827D01*
X164431827Y-117898199D01*
X164528500Y-117664810D01*
X164528500Y-117412191D01*
X164528500Y-116015191D01*
X164431827Y-115781802D01*
X164253199Y-115603173D01*
X164019810Y-115506500D01*
X163918969Y-115506500D01*
X163875530Y-115288115D01*
X163715855Y-115049145D01*
X162482381Y-113815671D01*
X162841890Y-113974615D01*
X163473261Y-113989504D01*
X164062271Y-113761644D01*
X164125724Y-113719244D01*
X164164245Y-113400166D01*
X163195000Y-112430921D01*
X163180857Y-112445063D01*
X163144936Y-112409142D01*
X163159079Y-112395000D01*
X162189834Y-111425755D01*
X161870756Y-111464276D01*
X161615385Y-112041890D01*
X161600496Y-112673261D01*
X161764868Y-113098158D01*
X161345890Y-112679180D01*
X161353268Y-112661413D01*
X161353731Y-112130914D01*
X161151146Y-111640620D01*
X160776353Y-111265173D01*
X160438553Y-111124906D01*
X160774380Y-110986146D01*
X161149827Y-110611353D01*
X161353268Y-110121413D01*
X161353731Y-109590914D01*
X161151146Y-109100620D01*
X160776353Y-108725173D01*
X160438553Y-108584906D01*
X160774380Y-108446146D01*
X161149827Y-108071353D01*
X161353268Y-107581413D01*
X161353731Y-107050914D01*
X161349690Y-107041134D01*
X161349690Y-103411323D01*
X161349690Y-103057657D01*
X161349690Y-102482650D01*
X161127440Y-102260400D01*
X159486600Y-102260400D01*
X159486600Y-103901240D01*
X159708850Y-104123490D01*
X160637523Y-104123490D01*
X160964268Y-103988148D01*
X161214348Y-103738068D01*
X161349690Y-103411323D01*
X161349690Y-107041134D01*
X161151146Y-106560620D01*
X160776353Y-106185173D01*
X160286413Y-105981732D01*
X159755914Y-105981269D01*
X159265620Y-106183854D01*
X158890173Y-106558647D01*
X158851600Y-106651541D01*
X158851600Y-104140000D01*
X158848315Y-104123490D01*
X159213550Y-104123490D01*
X159435800Y-103901240D01*
X159435800Y-102260400D01*
X157794960Y-102260400D01*
X157572710Y-102482650D01*
X157572710Y-102556000D01*
X155701710Y-100685000D01*
X157754984Y-100685000D01*
X157708052Y-100731932D01*
X157572710Y-101058677D01*
X157572710Y-101412343D01*
X157572710Y-101987350D01*
X157794960Y-102209600D01*
X159435800Y-102209600D01*
X159435800Y-102189600D01*
X159486600Y-102189600D01*
X159486600Y-102209600D01*
X161127440Y-102209600D01*
X161349690Y-101987350D01*
X161349690Y-101412343D01*
X161349690Y-101058677D01*
X161214348Y-100731932D01*
X161167416Y-100685000D01*
X199263000Y-100685000D01*
X199263000Y-108458000D01*
M02*
