%FSLAX36Y36*%
G04 Gerber Fmt 3.6, Leading zero omitted, Abs format (unit inch)*
G04 Created by KiCad (PCBNEW (2014-jul-16 BZR unknown)-product) date Sun 05 Oct 2014 02:03:01 PM PDT*
%MOIN*%
G01*
G04 APERTURE LIST*
%ADD10C,0.003937*%
%ADD11C,0.059100*%
%ADD12C,0.078700*%
%ADD13R,0.078700X0.078700*%
%ADD14C,0.236220*%
%ADD15R,0.068000X0.068000*%
%ADD16C,0.068000*%
%ADD17R,0.060000X0.060000*%
%ADD18C,0.060000*%
%ADD19O,0.068000X0.068000*%
%ADD20O,0.066900X0.137800*%
%ADD21R,0.380000X0.620000*%
%ADD22R,0.055000X0.055000*%
%ADD23C,0.055000*%
%ADD24O,0.137800X0.066900*%
%ADD25R,0.620000X0.380000*%
%ADD26C,0.035000*%
%ADD27C,0.008000*%
%ADD28C,0.040000*%
%ADD29C,0.010000*%
G04 APERTURE END LIST*
D10*
D11*
X7175000Y-5775000D03*
X7275000Y-5775000D03*
X7150000Y-5650000D03*
X7150000Y-5550000D03*
X7475000Y-5775000D03*
X7375000Y-5775000D03*
X7675000Y-4825000D03*
X7675000Y-4925000D03*
X5350000Y-5025000D03*
X5350000Y-5125000D03*
X4325000Y-4075000D03*
X4325000Y-4175000D03*
X5100000Y-4825000D03*
X5200000Y-4825000D03*
X4425000Y-4400000D03*
X4525000Y-4400000D03*
X4300000Y-4400000D03*
X4300000Y-4300000D03*
X4975000Y-4750000D03*
X4875000Y-4750000D03*
X5350000Y-4800000D03*
X5350000Y-4900000D03*
X5875000Y-4950000D03*
X5875000Y-4850000D03*
X4600000Y-5075000D03*
X4700000Y-5075000D03*
X5075000Y-5575000D03*
X5175000Y-5575000D03*
D12*
X5200000Y-4625000D03*
D13*
X4800000Y-4625000D03*
D14*
X4133858Y-4133858D03*
X7677165Y-4133858D03*
X4133858Y-5708661D03*
X7677165Y-5708661D03*
D15*
X7675000Y-5275000D03*
D16*
X7675000Y-5175000D03*
X7675000Y-5075000D03*
D15*
X4300000Y-5400000D03*
D16*
X4200000Y-5400000D03*
X4100000Y-5400000D03*
D17*
X4100000Y-4725000D03*
D18*
X4200000Y-4725000D03*
X4100000Y-4825000D03*
X4200000Y-4825000D03*
X4100000Y-4925000D03*
X4200000Y-4925000D03*
X4100000Y-5025000D03*
X4200000Y-5025000D03*
X4100000Y-5125000D03*
X4200000Y-5125000D03*
D15*
X5325000Y-4025000D03*
D16*
X5425000Y-4025000D03*
X5525000Y-4025000D03*
X5625000Y-4025000D03*
X5725000Y-4025000D03*
X5825000Y-4025000D03*
D17*
X7300000Y-4100000D03*
D18*
X7300000Y-4200000D03*
X7200000Y-4100000D03*
X7200000Y-4200000D03*
X7100000Y-4100000D03*
X7100000Y-4200000D03*
X7000000Y-4100000D03*
X7000000Y-4200000D03*
D17*
X6550000Y-5750000D03*
D18*
X6550000Y-5650000D03*
X6650000Y-5750000D03*
X6650000Y-5650000D03*
X6750000Y-5750000D03*
X6750000Y-5650000D03*
X6850000Y-5750000D03*
X6850000Y-5650000D03*
D15*
X4850000Y-5700000D03*
D19*
X4950000Y-5700000D03*
X5050000Y-5700000D03*
X5150000Y-5700000D03*
D15*
X4400000Y-5700000D03*
D19*
X4500000Y-5700000D03*
X4600000Y-5700000D03*
X4700000Y-5700000D03*
D12*
X7100000Y-5000000D03*
X7100000Y-5400000D03*
X5050000Y-4450000D03*
X4650000Y-4450000D03*
X6275000Y-5100000D03*
X5875000Y-5100000D03*
X5875000Y-5250000D03*
X6275000Y-5250000D03*
X6275000Y-5400000D03*
X5875000Y-5400000D03*
X4475000Y-5575000D03*
X4875000Y-5575000D03*
X4425000Y-5000000D03*
X4425000Y-5400000D03*
X6275000Y-5550000D03*
X5875000Y-5550000D03*
X5325000Y-4625000D03*
X5325000Y-4225000D03*
D13*
X6278000Y-4025000D03*
D12*
X6022000Y-4025000D03*
D20*
X7375000Y-5600000D03*
X7275000Y-5600000D03*
X7475000Y-5600000D03*
D21*
X7375000Y-5130000D03*
D22*
X6425000Y-4125000D03*
D23*
X6425000Y-4225000D03*
X6425000Y-4325000D03*
X6425000Y-4425000D03*
X6725000Y-4425000D03*
X6725000Y-4325000D03*
X6725000Y-4225000D03*
X6725000Y-4125000D03*
D22*
X6425000Y-4600000D03*
D23*
X6425000Y-4700000D03*
X6425000Y-4800000D03*
X6425000Y-4900000D03*
X6725000Y-4900000D03*
X6725000Y-4800000D03*
X6725000Y-4700000D03*
X6725000Y-4600000D03*
D22*
X6425000Y-5075000D03*
D23*
X6425000Y-5175000D03*
X6425000Y-5275000D03*
X6425000Y-5375000D03*
X6725000Y-5375000D03*
X6725000Y-5275000D03*
X6725000Y-5175000D03*
X6725000Y-5075000D03*
D22*
X6975000Y-4700000D03*
D23*
X7075000Y-4700000D03*
X7175000Y-4700000D03*
X7275000Y-4700000D03*
X7375000Y-4700000D03*
X7475000Y-4700000D03*
X7575000Y-4700000D03*
X7675000Y-4700000D03*
X7675000Y-4400000D03*
X7575000Y-4400000D03*
X7475000Y-4400000D03*
X7375000Y-4400000D03*
X7275000Y-4400000D03*
X7175000Y-4400000D03*
X7075000Y-4400000D03*
X6975000Y-4400000D03*
D24*
X4450000Y-4175000D03*
X4450000Y-4075000D03*
X4450000Y-4275000D03*
D25*
X4920000Y-4175000D03*
D22*
X4600000Y-5475000D03*
D23*
X4700000Y-5475000D03*
X4800000Y-5475000D03*
X4900000Y-5475000D03*
X5000000Y-5475000D03*
X5100000Y-5475000D03*
X5200000Y-5475000D03*
X5200000Y-5175000D03*
X5100000Y-5175000D03*
X5000000Y-5175000D03*
X4900000Y-5175000D03*
X4800000Y-5175000D03*
X4700000Y-5175000D03*
X4600000Y-5175000D03*
D22*
X4400000Y-4575000D03*
D23*
X4400000Y-4675000D03*
X4400000Y-4775000D03*
X4400000Y-4875000D03*
X4700000Y-4875000D03*
X4700000Y-4775000D03*
X4700000Y-4675000D03*
X4700000Y-4575000D03*
X5450000Y-4300000D03*
X5450000Y-4400000D03*
X5450000Y-4500000D03*
X5450000Y-4600000D03*
X5450000Y-4700000D03*
X5450000Y-4800000D03*
X5450000Y-4900000D03*
X5450000Y-5000000D03*
X5450000Y-5100000D03*
X5450000Y-5200000D03*
X5450000Y-5300000D03*
X5450000Y-5400000D03*
X5450000Y-5500000D03*
D22*
X5450000Y-4200000D03*
D23*
X5750000Y-5500000D03*
X5750000Y-5400000D03*
X5750000Y-5300000D03*
X5750000Y-5200000D03*
X5750000Y-5100000D03*
X5750000Y-5000000D03*
X5750000Y-4900000D03*
X5750000Y-4800000D03*
X5750000Y-4700000D03*
X5750000Y-4600000D03*
X5750000Y-4500000D03*
X5750000Y-4400000D03*
X5750000Y-4300000D03*
X5750000Y-4200000D03*
D11*
X5146100Y-5000000D03*
X4953900Y-5000000D03*
D15*
X6850000Y-5425000D03*
D16*
X6850000Y-5325000D03*
X6850000Y-5225000D03*
X6850000Y-5125000D03*
X6850000Y-5025000D03*
X6850000Y-4925000D03*
X6850000Y-4825000D03*
D15*
X5700000Y-5775000D03*
D19*
X5700000Y-5675000D03*
X5800000Y-5775000D03*
X5800000Y-5675000D03*
X5900000Y-5775000D03*
X5900000Y-5675000D03*
D18*
X6175000Y-5750000D03*
X6275000Y-5750000D03*
D22*
X6000000Y-4225000D03*
D23*
X6000000Y-4325000D03*
X6000000Y-4425000D03*
X6000000Y-4525000D03*
X6000000Y-4625000D03*
X6000000Y-4725000D03*
X6000000Y-4825000D03*
X6000000Y-4925000D03*
X6300000Y-4925000D03*
X6300000Y-4825000D03*
X6300000Y-4725000D03*
X6300000Y-4625000D03*
X6300000Y-4525000D03*
X6300000Y-4425000D03*
X6300000Y-4325000D03*
X6300000Y-4225000D03*
D26*
X5425000Y-5775000D03*
X4625000Y-4725000D03*
X4625000Y-4825000D03*
X4450000Y-5100000D03*
X5500000Y-4450000D03*
X4550000Y-4950000D03*
X5375000Y-5650000D03*
X5425000Y-5650000D03*
X5600000Y-4750000D03*
X5675000Y-4700000D03*
X5525000Y-5200000D03*
X5600000Y-5100000D03*
X6000000Y-5025000D03*
X5625000Y-4200000D03*
X5900000Y-4150000D03*
X6075000Y-4575000D03*
X6100000Y-4025000D03*
X5550000Y-5300000D03*
X5275000Y-5125000D03*
X5200000Y-4450000D03*
X5200000Y-4400000D03*
X7025000Y-4525000D03*
X7550000Y-4525000D03*
X6750000Y-4500000D03*
X5050958Y-4625958D03*
X5250000Y-4550000D03*
X5525000Y-5000000D03*
X6125000Y-4825000D03*
X6125000Y-4225000D03*
D27*
X5600000Y-5775000D02*
X5425000Y-5775000D01*
X5650000Y-5725000D02*
X5600000Y-5775000D01*
X5975000Y-5725000D02*
X5650000Y-5725000D01*
X6450000Y-5800000D02*
X6050000Y-5800000D01*
X6050000Y-5800000D02*
X5975000Y-5725000D01*
X6550000Y-5750000D02*
X6500000Y-5750000D01*
X6500000Y-5750000D02*
X6450000Y-5800000D01*
X5275000Y-4500000D02*
X5175000Y-4500000D01*
X5100000Y-4575000D02*
X5050000Y-4575000D01*
X5175000Y-4500000D02*
X5100000Y-4575000D01*
X4975000Y-4650000D02*
X4950000Y-4650000D01*
X4900000Y-4700000D02*
X4825000Y-4700000D01*
X4950000Y-4650000D02*
X4900000Y-4700000D01*
X5050000Y-4575000D02*
X4975000Y-4650000D01*
X4800000Y-4725000D02*
X4625000Y-4725000D01*
X4825000Y-4700000D02*
X4800000Y-4725000D01*
X4500000Y-5050000D02*
X4450000Y-5100000D01*
X4500000Y-4925000D02*
X4500000Y-5050000D01*
X4600000Y-4825000D02*
X4500000Y-4925000D01*
X4625000Y-4825000D02*
X4600000Y-4825000D01*
X5325000Y-4450000D02*
X5275000Y-4500000D01*
X5500000Y-4450000D02*
X5325000Y-4450000D01*
X5450000Y-4700000D02*
X4950000Y-4700000D01*
X4675000Y-4825000D02*
X4550000Y-4950000D01*
X4875000Y-4825000D02*
X4675000Y-4825000D01*
X4925000Y-4775000D02*
X4875000Y-4825000D01*
X4925000Y-4725000D02*
X4925000Y-4775000D01*
X4950000Y-4700000D02*
X4925000Y-4725000D01*
X5100000Y-5650000D02*
X5375000Y-5650000D01*
X5050000Y-5700000D02*
X5100000Y-5650000D01*
X5375000Y-5600000D02*
X5425000Y-5650000D01*
X5325000Y-5600000D02*
X5375000Y-5600000D01*
X5016000Y-5634000D02*
X5291000Y-5634000D01*
X5291000Y-5634000D02*
X5325000Y-5600000D01*
X4950000Y-5700000D02*
X5016000Y-5634000D01*
X6850000Y-5750000D02*
X6800000Y-5700000D01*
X5675000Y-5625000D02*
X5450000Y-5400000D01*
X5975000Y-5625000D02*
X5675000Y-5625000D01*
X6050000Y-5700000D02*
X5975000Y-5625000D01*
X6800000Y-5700000D02*
X6050000Y-5700000D01*
X6000000Y-4725000D02*
X5850000Y-4725000D01*
X5825000Y-4750000D02*
X5600000Y-4750000D01*
X5850000Y-4725000D02*
X5825000Y-4750000D01*
X5675000Y-4700000D02*
X5725000Y-4650000D01*
X6000000Y-4625000D02*
X5850000Y-4625000D01*
X5850000Y-4625000D02*
X5825000Y-4650000D01*
X5825000Y-4650000D02*
X5725000Y-4650000D01*
X5525000Y-5200000D02*
X5750000Y-5200000D01*
X5750000Y-5100000D02*
X5600000Y-5100000D01*
X5750000Y-5100000D02*
X5825000Y-5025000D01*
X5825000Y-5025000D02*
X6000000Y-5025000D01*
X7250000Y-3975000D02*
X6450000Y-3975000D01*
X7300000Y-4100000D02*
X7300000Y-4025000D01*
X7250000Y-3975000D02*
X7300000Y-4025000D01*
X5725000Y-4100000D02*
X5625000Y-4200000D01*
X6325000Y-4100000D02*
X5725000Y-4100000D01*
X6450000Y-3975000D02*
X6325000Y-4100000D01*
X6450000Y-4000000D02*
X6900000Y-4000000D01*
X6900000Y-4000000D02*
X7000000Y-4100000D01*
X6325000Y-4125000D02*
X6450000Y-4000000D01*
X5925000Y-4125000D02*
X6325000Y-4125000D01*
X5900000Y-4150000D02*
X5925000Y-4125000D01*
D28*
X7150000Y-5650000D02*
X7200000Y-5700000D01*
X7475000Y-5675000D02*
X7475000Y-5600000D01*
X7450000Y-5700000D02*
X7475000Y-5675000D01*
X7200000Y-5700000D02*
X7450000Y-5700000D01*
X7050000Y-4475000D02*
X7550000Y-4475000D01*
X7550000Y-4475000D02*
X7625000Y-4475000D01*
X7625000Y-4475000D02*
X7750000Y-4600000D01*
X7750000Y-4600000D02*
X7750000Y-4750000D01*
X7750000Y-4750000D02*
X7675000Y-4825000D01*
X6975000Y-4400000D02*
X7050000Y-4475000D01*
X5750000Y-4800000D02*
X5775000Y-4800000D01*
X5775000Y-4800000D02*
X5825000Y-4850000D01*
X5825000Y-4850000D02*
X5875000Y-4850000D01*
X4200000Y-4825000D02*
X4100000Y-4825000D01*
D27*
X7677165Y-5708661D02*
X7610827Y-5775000D01*
D28*
X4450000Y-4175000D02*
X4325000Y-4175000D01*
X4450000Y-4175000D02*
X5110000Y-4175000D01*
X5450000Y-4900000D02*
X5350000Y-4900000D01*
X5275000Y-4900000D02*
X5350000Y-4900000D01*
X5200000Y-4825000D02*
X5275000Y-4900000D01*
X5550000Y-4900000D02*
X5650000Y-4800000D01*
X5650000Y-4800000D02*
X5750000Y-4800000D01*
X5450000Y-4900000D02*
X5550000Y-4900000D01*
X5260000Y-4025000D02*
X5325000Y-4025000D01*
X5110000Y-4175000D02*
X5260000Y-4025000D01*
D27*
X6353000Y-3950000D02*
X6278000Y-4025000D01*
X7493307Y-3950000D02*
X6353000Y-3950000D01*
X7677165Y-4133858D02*
X7493307Y-3950000D01*
X6725000Y-5375000D02*
X6775000Y-5375000D01*
X6775000Y-5375000D02*
X6825000Y-5325000D01*
X6825000Y-5325000D02*
X6850000Y-5325000D01*
X5171100Y-5025000D02*
X5146100Y-5000000D01*
X5350000Y-5025000D02*
X5171100Y-5025000D01*
X5375000Y-5000000D02*
X5350000Y-5025000D01*
X5450000Y-5000000D02*
X5375000Y-5000000D01*
X5425000Y-5075000D02*
X5028900Y-5075000D01*
X5028900Y-5075000D02*
X4953900Y-5000000D01*
X5450000Y-5100000D02*
X5425000Y-5075000D01*
X4575000Y-4450000D02*
X4650000Y-4450000D01*
X4525000Y-4400000D02*
X4575000Y-4450000D01*
X5325000Y-4625000D02*
X5350000Y-4650000D01*
X5350000Y-4650000D02*
X5625000Y-4650000D01*
X5625000Y-4650000D02*
X5725000Y-4550000D01*
X4875000Y-4750000D02*
X4900000Y-4725000D01*
X4950000Y-4675000D02*
X5150000Y-4675000D01*
X4900000Y-4725000D02*
X4950000Y-4675000D01*
X4900000Y-4725000D02*
X4900000Y-4725000D01*
X5825000Y-4550000D02*
X5725000Y-4550000D01*
X5850000Y-4575000D02*
X5825000Y-4550000D01*
X5875000Y-4575000D02*
X5850000Y-4575000D01*
X6075000Y-4575000D02*
X5875000Y-4575000D01*
X5450000Y-4200000D02*
X5575000Y-4075000D01*
X5575000Y-4075000D02*
X5850000Y-4075000D01*
X5200000Y-4625000D02*
X5325000Y-4625000D01*
X5150000Y-4675000D02*
X5200000Y-4625000D01*
X5450000Y-4175000D02*
X5450000Y-4200000D01*
X5900000Y-4025000D02*
X5850000Y-4075000D01*
X6022000Y-4025000D02*
X5900000Y-4025000D01*
X4450000Y-4925000D02*
X4600000Y-4775000D01*
X4600000Y-4775000D02*
X4700000Y-4775000D01*
X4200000Y-4925000D02*
X4450000Y-4925000D01*
X4250000Y-5350000D02*
X4375000Y-5350000D01*
X4375000Y-5350000D02*
X4425000Y-5400000D01*
X4200000Y-5400000D02*
X4250000Y-5350000D01*
X4100000Y-4925000D02*
X4150000Y-4875000D01*
X4625000Y-4675000D02*
X4700000Y-4675000D01*
X4475000Y-4825000D02*
X4625000Y-4675000D01*
X4350000Y-4825000D02*
X4475000Y-4825000D01*
X4300000Y-4875000D02*
X4350000Y-4825000D01*
X4150000Y-4875000D02*
X4300000Y-4875000D01*
X4150000Y-4975000D02*
X4275000Y-4975000D01*
X4275000Y-4975000D02*
X4300000Y-5000000D01*
X4300000Y-5000000D02*
X4425000Y-5000000D01*
X4100000Y-4925000D02*
X4150000Y-4975000D01*
X5550000Y-5250000D02*
X5400000Y-5250000D01*
X5325000Y-5325000D02*
X4850000Y-5325000D01*
X5400000Y-5250000D02*
X5325000Y-5325000D01*
X4700000Y-5475000D02*
X4850000Y-5325000D01*
X6200000Y-5325000D02*
X6275000Y-5400000D01*
X5850000Y-5325000D02*
X6200000Y-5325000D01*
X5825000Y-5350000D02*
X5850000Y-5325000D01*
X5650000Y-5350000D02*
X5825000Y-5350000D01*
X5550000Y-5250000D02*
X5650000Y-5350000D01*
X6045000Y-3970000D02*
X5680000Y-3970000D01*
X6100000Y-4025000D02*
X6045000Y-3970000D01*
X5625000Y-4025000D02*
X5680000Y-3970000D01*
X5125000Y-5350000D02*
X5500000Y-5350000D01*
X5500000Y-5350000D02*
X5550000Y-5300000D01*
X5125000Y-5350000D02*
X5000000Y-5475000D01*
X5825000Y-5150000D02*
X5425000Y-5150000D01*
X5425000Y-5150000D02*
X5400000Y-5175000D01*
X5325000Y-5175000D02*
X5275000Y-5125000D01*
X5400000Y-5175000D02*
X5325000Y-5175000D01*
X5200000Y-4450000D02*
X5100000Y-4550000D01*
X4525000Y-4575000D02*
X4400000Y-4575000D01*
X4575000Y-4525000D02*
X4525000Y-4575000D01*
X4750000Y-4525000D02*
X4575000Y-4525000D01*
X4775000Y-4550000D02*
X4750000Y-4525000D01*
X5100000Y-4550000D02*
X4775000Y-4550000D01*
X5375000Y-4425000D02*
X5250000Y-4425000D01*
X5225000Y-4450000D02*
X5200000Y-4450000D01*
X5250000Y-4425000D02*
X5225000Y-4450000D01*
X5875000Y-5100000D02*
X5825000Y-5150000D01*
X5400000Y-4400000D02*
X5375000Y-4425000D01*
X5450000Y-4400000D02*
X5400000Y-4400000D01*
X5350000Y-4400000D02*
X5200000Y-4400000D01*
X5350000Y-4400000D02*
X5450000Y-4300000D01*
D28*
X7300000Y-5500000D02*
X7575000Y-5500000D01*
X7575000Y-5500000D02*
X7675000Y-5400000D01*
X7675000Y-5400000D02*
X7675000Y-5275000D01*
X7275000Y-5600000D02*
X7275000Y-5525000D01*
X7275000Y-5525000D02*
X7300000Y-5500000D01*
X4200000Y-5125000D02*
X4100000Y-5125000D01*
X7275000Y-5625000D02*
X7275000Y-5550000D01*
X7100000Y-5850000D02*
X4400000Y-5850000D01*
X4025000Y-5200000D02*
X4100000Y-5125000D01*
X4025000Y-5200000D02*
X4025000Y-5525000D01*
X4225000Y-5550000D02*
X4300000Y-5625000D01*
X4025000Y-5525000D02*
X4050000Y-5550000D01*
X4050000Y-5550000D02*
X4225000Y-5550000D01*
X4300000Y-5625000D02*
X4300000Y-5750000D01*
X4300000Y-5750000D02*
X4400000Y-5850000D01*
X7175000Y-5775000D02*
X7100000Y-5850000D01*
X4200000Y-5025000D02*
X4100000Y-5025000D01*
X7375000Y-4400000D02*
X7275000Y-4400000D01*
X7375000Y-4700000D02*
X7275000Y-4700000D01*
X7375000Y-4700000D02*
X7375000Y-4940000D01*
X7335000Y-4940000D02*
X7375000Y-4940000D01*
X6850000Y-5425000D02*
X7335000Y-4940000D01*
X4200000Y-4725000D02*
X4100000Y-4725000D01*
X4450000Y-4075000D02*
X4325000Y-4075000D01*
D27*
X7025000Y-4525000D02*
X7550000Y-4525000D01*
X6725000Y-5175000D02*
X6750000Y-5175000D01*
X6750000Y-5175000D02*
X6800000Y-5225000D01*
X6800000Y-5225000D02*
X6850000Y-5225000D01*
X7525000Y-4350000D02*
X7575000Y-4400000D01*
X6900000Y-4350000D02*
X7525000Y-4350000D01*
X6750000Y-4500000D02*
X6900000Y-4350000D01*
X6725000Y-4700000D02*
X6775000Y-4750000D01*
X6775000Y-4950000D02*
X6850000Y-5025000D01*
X6775000Y-4750000D02*
X6775000Y-4950000D01*
X6725000Y-4700000D02*
X6800000Y-4625000D01*
X7500000Y-4625000D02*
X7575000Y-4700000D01*
X6800000Y-4625000D02*
X7500000Y-4625000D01*
X6850000Y-4925000D02*
X6975000Y-4800000D01*
X6975000Y-4800000D02*
X6975000Y-4700000D01*
X6850000Y-4825000D02*
X6850000Y-4725000D01*
X7025000Y-4650000D02*
X7075000Y-4700000D01*
X6925000Y-4650000D02*
X7025000Y-4650000D01*
X6850000Y-4725000D02*
X6925000Y-4650000D01*
X4475000Y-5575000D02*
X4575000Y-5475000D01*
X4575000Y-5475000D02*
X4600000Y-5475000D01*
X5100000Y-5175000D02*
X5000000Y-5175000D01*
X5000000Y-5175000D02*
X4900000Y-5175000D01*
X6300000Y-4225000D02*
X6325000Y-4225000D01*
X6325000Y-4225000D02*
X6425000Y-4125000D01*
X6300000Y-4325000D02*
X6425000Y-4325000D01*
D28*
X5050958Y-4625958D02*
X5050000Y-4625000D01*
X5075000Y-5575000D02*
X4875000Y-5575000D01*
X4700000Y-5700000D02*
X4825000Y-5575000D01*
X4825000Y-5575000D02*
X4875000Y-5575000D01*
X7000000Y-4200000D02*
X6850000Y-4050000D01*
X6525000Y-4150000D02*
X6525000Y-5575000D01*
X6625000Y-4050000D02*
X6525000Y-4150000D01*
X6850000Y-4050000D02*
X6625000Y-4050000D01*
X5875000Y-5550000D02*
X6075000Y-5550000D01*
X6425000Y-5575000D02*
X6525000Y-5575000D01*
X6375000Y-5625000D02*
X6425000Y-5575000D01*
X6150000Y-5625000D02*
X6375000Y-5625000D01*
X6075000Y-5550000D02*
X6150000Y-5625000D01*
X6775000Y-5575000D02*
X6850000Y-5650000D01*
X6525000Y-5575000D02*
X6775000Y-5575000D01*
X5750000Y-5000000D02*
X5775000Y-5000000D01*
X5775000Y-5000000D02*
X5825000Y-4950000D01*
X5825000Y-4950000D02*
X5875000Y-4950000D01*
X4425000Y-4400000D02*
X4300000Y-4400000D01*
X5450000Y-4800000D02*
X5350000Y-4800000D01*
X5125000Y-4750000D02*
X5300000Y-4750000D01*
X5075000Y-4750000D02*
X5125000Y-4750000D01*
X5300000Y-4750000D02*
X5350000Y-4800000D01*
X4950000Y-4875000D02*
X5075000Y-4750000D01*
X4700000Y-4875000D02*
X4950000Y-4875000D01*
X5100000Y-4625000D02*
X5050000Y-4625000D01*
X5175000Y-4550000D02*
X5100000Y-4625000D01*
X5250000Y-4550000D02*
X5175000Y-4550000D01*
X5725000Y-5000000D02*
X5750000Y-5000000D01*
X5525000Y-5000000D02*
X5750000Y-5000000D01*
X5625000Y-5675000D02*
X5600000Y-5700000D01*
X5600000Y-5700000D02*
X5150000Y-5700000D01*
X5700000Y-5675000D02*
X5625000Y-5675000D01*
X4600000Y-5175000D02*
X4700000Y-5175000D01*
X4700000Y-5175000D02*
X4800000Y-5175000D01*
D27*
X6125000Y-4825000D02*
X6000000Y-4825000D01*
X6175000Y-4700000D02*
X6175000Y-4275000D01*
X6300000Y-4825000D02*
X6175000Y-4700000D01*
X6125000Y-4225000D02*
X6175000Y-4275000D01*
D29*
G36*
X7276971Y-4400557D02*
X7275557Y-4401971D01*
X7275000Y-4401414D01*
X7274443Y-4401971D01*
X7273029Y-4400557D01*
X7273586Y-4400000D01*
X7273029Y-4399443D01*
X7274443Y-4398029D01*
X7275000Y-4398586D01*
X7275557Y-4398029D01*
X7276971Y-4399443D01*
X7276414Y-4400000D01*
X7276971Y-4400557D01*
X7276971Y-4400557D01*
G37*
X7276971Y-4400557D02*
X7275557Y-4401971D01*
X7275000Y-4401414D01*
X7274443Y-4401971D01*
X7273029Y-4400557D01*
X7273586Y-4400000D01*
X7273029Y-4399443D01*
X7274443Y-4398029D01*
X7275000Y-4398586D01*
X7275557Y-4398029D01*
X7276971Y-4399443D01*
X7276414Y-4400000D01*
X7276971Y-4400557D01*
G36*
X7376787Y-5601000D02*
X7376000Y-5601000D01*
X7376000Y-5601787D01*
X7374000Y-5601787D01*
X7374000Y-5601000D01*
X7373213Y-5601000D01*
X7373213Y-5599000D01*
X7374000Y-5599000D01*
X7374000Y-5598213D01*
X7376000Y-5598213D01*
X7376000Y-5599000D01*
X7376787Y-5599000D01*
X7376787Y-5601000D01*
X7376787Y-5601000D01*
G37*
X7376787Y-5601000D02*
X7376000Y-5601000D01*
X7376000Y-5601787D01*
X7374000Y-5601787D01*
X7374000Y-5601000D01*
X7373213Y-5601000D01*
X7373213Y-5599000D01*
X7374000Y-5599000D01*
X7374000Y-5598213D01*
X7376000Y-5598213D01*
X7376000Y-5599000D01*
X7376787Y-5599000D01*
X7376787Y-5601000D01*
G36*
X7376971Y-4400557D02*
X7375557Y-4401971D01*
X7375000Y-4401414D01*
X7374443Y-4401971D01*
X7373029Y-4400557D01*
X7373586Y-4400000D01*
X7373029Y-4399443D01*
X7374443Y-4398029D01*
X7375000Y-4398586D01*
X7375557Y-4398029D01*
X7376971Y-4399443D01*
X7376414Y-4400000D01*
X7376971Y-4400557D01*
X7376971Y-4400557D01*
G37*
X7376971Y-4400557D02*
X7375557Y-4401971D01*
X7375000Y-4401414D01*
X7374443Y-4401971D01*
X7373029Y-4400557D01*
X7373586Y-4400000D01*
X7373029Y-4399443D01*
X7374443Y-4398029D01*
X7375000Y-4398586D01*
X7375557Y-4398029D01*
X7376971Y-4399443D01*
X7376414Y-4400000D01*
X7376971Y-4400557D01*
G36*
X7845000Y-5870000D02*
X7820300Y-5870000D01*
X7820300Y-5680320D01*
X7798559Y-5627702D01*
X7758337Y-5587409D01*
X7739840Y-5579729D01*
X7739840Y-4913718D01*
X7730587Y-4889763D01*
X7728827Y-4887129D01*
X7716052Y-4885363D01*
X7676414Y-4925000D01*
X7716052Y-4964637D01*
X7728827Y-4962871D01*
X7739222Y-4939390D01*
X7739840Y-4913718D01*
X7739840Y-5579729D01*
X7705757Y-5565576D01*
X7648824Y-5565526D01*
X7596206Y-5587268D01*
X7555913Y-5627490D01*
X7534080Y-5680070D01*
X7534030Y-5737003D01*
X7555772Y-5789621D01*
X7595994Y-5829914D01*
X7648574Y-5851747D01*
X7705507Y-5851796D01*
X7758125Y-5830055D01*
X7798418Y-5789833D01*
X7820251Y-5737253D01*
X7820300Y-5680320D01*
X7820300Y-5870000D01*
X7414637Y-5870000D01*
X7414637Y-5816052D01*
X7375000Y-5776414D01*
X7335363Y-5816052D01*
X7337129Y-5828827D01*
X7360610Y-5839222D01*
X7386282Y-5839840D01*
X7410237Y-5830587D01*
X7412871Y-5828827D01*
X7414637Y-5816052D01*
X7414637Y-5870000D01*
X7314637Y-5870000D01*
X7314637Y-5816052D01*
X7275000Y-5776414D01*
X7235363Y-5816052D01*
X7237129Y-5828827D01*
X7260610Y-5839222D01*
X7286282Y-5839840D01*
X7310237Y-5830587D01*
X7312871Y-5828827D01*
X7314637Y-5816052D01*
X7314637Y-5870000D01*
X7143640Y-5870000D01*
X7184082Y-5829558D01*
X7185803Y-5829559D01*
X7205860Y-5821272D01*
X7218718Y-5808437D01*
X7219413Y-5810237D01*
X7221173Y-5812871D01*
X7233948Y-5814637D01*
X7273586Y-5775000D01*
X7273029Y-5774443D01*
X7274443Y-5773029D01*
X7275000Y-5773586D01*
X7275557Y-5773029D01*
X7276971Y-5774443D01*
X7276414Y-5775000D01*
X7316052Y-5814637D01*
X7325000Y-5813400D01*
X7333948Y-5814637D01*
X7373586Y-5775000D01*
X7373029Y-5774443D01*
X7374443Y-5773029D01*
X7375000Y-5773586D01*
X7375557Y-5773029D01*
X7376971Y-5774443D01*
X7376414Y-5775000D01*
X7416052Y-5814637D01*
X7428827Y-5812871D01*
X7430947Y-5808083D01*
X7444060Y-5821218D01*
X7464102Y-5829541D01*
X7485803Y-5829559D01*
X7505860Y-5821272D01*
X7521218Y-5805940D01*
X7529541Y-5785898D01*
X7529559Y-5764197D01*
X7521272Y-5744140D01*
X7505940Y-5728782D01*
X7491044Y-5722596D01*
X7506820Y-5706820D01*
X7516575Y-5692221D01*
X7520000Y-5675000D01*
X7520000Y-5673128D01*
X7529001Y-5659657D01*
X7533450Y-5637290D01*
X7533450Y-5562710D01*
X7529927Y-5545000D01*
X7575000Y-5545000D01*
X7592221Y-5541575D01*
X7606820Y-5531820D01*
X7706820Y-5431820D01*
X7716575Y-5417221D01*
X7720000Y-5400000D01*
X7720000Y-5331503D01*
X7723161Y-5330194D01*
X7730194Y-5323161D01*
X7734000Y-5313973D01*
X7734000Y-5304027D01*
X7734000Y-5236027D01*
X7730194Y-5226839D01*
X7723161Y-5219806D01*
X7716423Y-5217015D01*
X7724989Y-5208464D01*
X7733990Y-5186787D01*
X7734010Y-5163316D01*
X7725047Y-5141623D01*
X7708464Y-5125011D01*
X7708428Y-5124996D01*
X7724989Y-5108464D01*
X7733990Y-5086787D01*
X7734010Y-5063316D01*
X7725047Y-5041623D01*
X7714637Y-5031195D01*
X7714637Y-4966052D01*
X7675000Y-4926414D01*
X7673586Y-4927828D01*
X7673586Y-4925000D01*
X7633948Y-4885363D01*
X7621173Y-4887129D01*
X7610778Y-4910610D01*
X7610160Y-4936282D01*
X7619413Y-4960237D01*
X7621173Y-4962871D01*
X7633948Y-4964637D01*
X7673586Y-4925000D01*
X7673586Y-4927828D01*
X7635363Y-4966052D01*
X7637129Y-4978827D01*
X7660610Y-4989222D01*
X7686282Y-4989840D01*
X7710237Y-4980587D01*
X7712871Y-4978827D01*
X7714637Y-4966052D01*
X7714637Y-5031195D01*
X7708464Y-5025011D01*
X7686787Y-5016010D01*
X7663316Y-5015990D01*
X7641623Y-5024953D01*
X7625011Y-5041536D01*
X7616010Y-5063213D01*
X7615990Y-5086684D01*
X7624953Y-5108377D01*
X7641536Y-5124989D01*
X7641572Y-5125004D01*
X7625011Y-5141536D01*
X7616010Y-5163213D01*
X7615990Y-5186684D01*
X7624953Y-5208377D01*
X7633576Y-5217015D01*
X7626839Y-5219806D01*
X7619806Y-5226839D01*
X7616000Y-5236027D01*
X7616000Y-5245973D01*
X7616000Y-5313973D01*
X7619806Y-5323161D01*
X7626839Y-5330194D01*
X7630000Y-5331503D01*
X7630000Y-5381360D01*
X7600000Y-5411360D01*
X7600000Y-5139750D01*
X7600000Y-5120250D01*
X7600000Y-4813038D01*
X7594672Y-4800174D01*
X7584826Y-4790328D01*
X7571962Y-4785000D01*
X7558038Y-4785000D01*
X7413159Y-4785000D01*
X7413159Y-4739573D01*
X7375000Y-4701414D01*
X7373586Y-4702828D01*
X7373586Y-4700000D01*
X7335427Y-4661841D01*
X7325000Y-4663099D01*
X7314573Y-4661841D01*
X7276414Y-4700000D01*
X7314573Y-4738159D01*
X7325000Y-4736900D01*
X7335427Y-4738159D01*
X7373586Y-4700000D01*
X7373586Y-4702828D01*
X7336841Y-4739573D01*
X7338357Y-4752136D01*
X7361098Y-4762190D01*
X7385955Y-4762776D01*
X7409145Y-4753805D01*
X7411643Y-4752136D01*
X7413159Y-4739573D01*
X7413159Y-4785000D01*
X7384750Y-4785000D01*
X7376000Y-4793750D01*
X7376000Y-5129000D01*
X7591250Y-5129000D01*
X7600000Y-5120250D01*
X7600000Y-5139750D01*
X7591250Y-5131000D01*
X7376000Y-5131000D01*
X7376000Y-5131787D01*
X7374000Y-5131787D01*
X7374000Y-5131000D01*
X7374000Y-5129000D01*
X7374000Y-4793750D01*
X7365250Y-4785000D01*
X7313159Y-4785000D01*
X7313159Y-4739573D01*
X7275000Y-4701414D01*
X7236841Y-4739573D01*
X7238357Y-4752136D01*
X7261098Y-4762190D01*
X7285955Y-4762776D01*
X7309145Y-4753805D01*
X7311643Y-4752136D01*
X7313159Y-4739573D01*
X7313159Y-4785000D01*
X7191962Y-4785000D01*
X7178038Y-4785000D01*
X7165174Y-4790328D01*
X7155328Y-4800174D01*
X7150000Y-4813038D01*
X7150000Y-4948586D01*
X7146704Y-4951882D01*
X7143745Y-4938089D01*
X7116723Y-4926061D01*
X7087155Y-4925290D01*
X7059542Y-4935892D01*
X7056255Y-4938089D01*
X7053296Y-4951882D01*
X7100000Y-4998586D01*
X7100557Y-4998029D01*
X7101971Y-4999443D01*
X7101414Y-5000000D01*
X7101971Y-5000557D01*
X7100557Y-5001971D01*
X7100000Y-5001414D01*
X7098586Y-5002828D01*
X7098586Y-5000000D01*
X7051882Y-4953296D01*
X7038089Y-4956255D01*
X7026061Y-4983277D01*
X7025290Y-5012845D01*
X7035892Y-5040458D01*
X7038089Y-5043745D01*
X7051882Y-5046704D01*
X7098586Y-5000000D01*
X7098586Y-5002828D01*
X7053296Y-5048118D01*
X7056255Y-5061911D01*
X7083277Y-5073939D01*
X7112845Y-5074710D01*
X7140458Y-5064108D01*
X7143745Y-5061911D01*
X7146704Y-5048118D01*
X7146704Y-5048118D01*
X7150000Y-5051414D01*
X7150000Y-5120250D01*
X7158750Y-5129000D01*
X7374000Y-5129000D01*
X7374000Y-5131000D01*
X7158750Y-5131000D01*
X7150000Y-5139750D01*
X7150000Y-5359003D01*
X7146704Y-5355701D01*
X7136499Y-5345479D01*
X7112856Y-5335661D01*
X7087256Y-5335639D01*
X7063596Y-5345415D01*
X7045479Y-5363501D01*
X7035661Y-5387144D01*
X7035639Y-5412744D01*
X7045415Y-5436404D01*
X7063501Y-5454521D01*
X7087144Y-5464339D01*
X7112744Y-5464361D01*
X7136404Y-5454585D01*
X7150000Y-5441013D01*
X7150000Y-5446962D01*
X7155328Y-5459826D01*
X7165174Y-5469672D01*
X7178038Y-5475000D01*
X7191962Y-5475000D01*
X7261360Y-5475000D01*
X7243180Y-5493180D01*
X7233425Y-5507779D01*
X7230000Y-5525000D01*
X7230000Y-5526872D01*
X7220999Y-5540343D01*
X7216550Y-5562710D01*
X7216550Y-5637290D01*
X7220073Y-5655000D01*
X7218640Y-5655000D01*
X7204558Y-5640918D01*
X7204559Y-5639197D01*
X7196272Y-5619140D01*
X7180940Y-5603782D01*
X7171835Y-5600001D01*
X7180860Y-5596272D01*
X7196218Y-5580940D01*
X7204541Y-5560898D01*
X7204559Y-5539197D01*
X7196272Y-5519140D01*
X7180940Y-5503782D01*
X7160898Y-5495459D01*
X7139197Y-5495441D01*
X7119140Y-5503728D01*
X7103782Y-5519060D01*
X7095459Y-5539102D01*
X7095441Y-5560803D01*
X7103728Y-5580860D01*
X7119060Y-5596218D01*
X7128165Y-5599999D01*
X7119140Y-5603728D01*
X7103782Y-5619060D01*
X7095459Y-5639102D01*
X7095441Y-5660803D01*
X7103728Y-5680860D01*
X7119060Y-5696218D01*
X7139102Y-5704541D01*
X7140902Y-5704542D01*
X7158963Y-5722603D01*
X7144140Y-5728728D01*
X7128782Y-5744060D01*
X7120459Y-5764102D01*
X7120458Y-5765902D01*
X7081360Y-5805000D01*
X7005000Y-5805000D01*
X7005000Y-5470000D01*
X6917327Y-5470000D01*
X6919000Y-5465962D01*
X6919000Y-5434750D01*
X6910250Y-5426000D01*
X6851000Y-5426000D01*
X6851000Y-5426787D01*
X6849000Y-5426787D01*
X6849000Y-5426000D01*
X6789750Y-5426000D01*
X6781000Y-5434750D01*
X6781000Y-5465962D01*
X6782673Y-5470000D01*
X6605000Y-5470000D01*
X6605000Y-4330000D01*
X6672496Y-4330000D01*
X6672491Y-4335397D01*
X6680467Y-4354700D01*
X6695222Y-4369481D01*
X6708521Y-4375004D01*
X6695300Y-4380467D01*
X6680519Y-4395222D01*
X6672509Y-4414511D01*
X6672491Y-4435397D01*
X6680467Y-4454700D01*
X6695222Y-4469481D01*
X6713502Y-4477072D01*
X6707507Y-4491509D01*
X6707493Y-4508417D01*
X6713949Y-4524043D01*
X6725894Y-4536009D01*
X6741509Y-4542493D01*
X6758417Y-4542507D01*
X6774043Y-4536051D01*
X6786009Y-4524106D01*
X6792493Y-4508491D01*
X6792501Y-4498511D01*
X6912012Y-4379000D01*
X6926874Y-4379000D01*
X6922509Y-4389511D01*
X6922491Y-4410397D01*
X6930467Y-4429700D01*
X6945222Y-4444481D01*
X6963383Y-4452022D01*
X7000633Y-4489273D01*
X6988991Y-4500894D01*
X6982507Y-4516509D01*
X6982493Y-4533417D01*
X6988949Y-4549043D01*
X7000894Y-4561009D01*
X7016509Y-4567493D01*
X7033417Y-4567507D01*
X7049043Y-4561051D01*
X7056106Y-4554000D01*
X7518898Y-4554000D01*
X7525894Y-4561009D01*
X7541509Y-4567493D01*
X7558417Y-4567507D01*
X7574043Y-4561051D01*
X7586009Y-4549106D01*
X7592493Y-4533491D01*
X7592504Y-4520000D01*
X7606360Y-4520000D01*
X7705000Y-4618640D01*
X7705000Y-4655741D01*
X7704778Y-4655519D01*
X7685489Y-4647509D01*
X7664603Y-4647491D01*
X7645300Y-4655467D01*
X7630519Y-4670222D01*
X7624996Y-4683521D01*
X7619533Y-4670300D01*
X7604778Y-4655519D01*
X7585489Y-4647509D01*
X7564603Y-4647491D01*
X7563825Y-4647812D01*
X7520506Y-4604494D01*
X7511098Y-4598207D01*
X7500000Y-4596000D01*
X6800000Y-4596000D01*
X6788902Y-4598207D01*
X6779494Y-4604494D01*
X6777494Y-4606493D01*
X6777509Y-4589603D01*
X6769533Y-4570300D01*
X6754778Y-4555519D01*
X6735489Y-4547509D01*
X6714603Y-4547491D01*
X6695300Y-4555467D01*
X6680519Y-4570222D01*
X6672509Y-4589511D01*
X6672491Y-4610397D01*
X6680467Y-4629700D01*
X6695222Y-4644481D01*
X6708521Y-4650004D01*
X6695300Y-4655467D01*
X6680519Y-4670222D01*
X6672509Y-4689511D01*
X6672491Y-4710397D01*
X6680467Y-4729700D01*
X6695222Y-4744481D01*
X6708521Y-4750004D01*
X6695300Y-4755467D01*
X6680519Y-4770222D01*
X6672509Y-4789511D01*
X6672491Y-4810397D01*
X6680467Y-4829700D01*
X6695222Y-4844481D01*
X6708521Y-4850004D01*
X6695300Y-4855467D01*
X6680519Y-4870222D01*
X6672509Y-4889511D01*
X6672491Y-4910397D01*
X6680467Y-4929700D01*
X6695222Y-4944481D01*
X6714511Y-4952491D01*
X6735397Y-4952509D01*
X6746000Y-4948128D01*
X6746000Y-4950000D01*
X6748207Y-4961098D01*
X6754494Y-4970506D01*
X6792826Y-5008839D01*
X6791010Y-5013213D01*
X6790990Y-5036684D01*
X6799953Y-5058377D01*
X6816536Y-5074989D01*
X6816572Y-5075004D01*
X6800011Y-5091536D01*
X6791010Y-5113213D01*
X6790990Y-5136684D01*
X6799953Y-5158377D01*
X6816536Y-5174989D01*
X6816572Y-5175004D01*
X6803783Y-5187771D01*
X6775322Y-5159310D01*
X6769533Y-5145300D01*
X6754778Y-5130519D01*
X6741478Y-5124996D01*
X6754700Y-5119533D01*
X6769481Y-5104778D01*
X6777491Y-5085489D01*
X6777509Y-5064603D01*
X6769533Y-5045300D01*
X6754778Y-5030519D01*
X6735489Y-5022509D01*
X6714603Y-5022491D01*
X6695300Y-5030467D01*
X6680519Y-5045222D01*
X6672509Y-5064511D01*
X6672491Y-5085397D01*
X6680467Y-5104700D01*
X6695222Y-5119481D01*
X6708521Y-5125004D01*
X6695300Y-5130467D01*
X6680519Y-5145222D01*
X6672509Y-5164511D01*
X6672491Y-5185397D01*
X6680467Y-5204700D01*
X6695222Y-5219481D01*
X6708521Y-5225004D01*
X6695300Y-5230467D01*
X6680519Y-5245222D01*
X6672509Y-5264511D01*
X6672491Y-5285397D01*
X6680467Y-5304700D01*
X6695222Y-5319481D01*
X6708521Y-5325004D01*
X6695300Y-5330467D01*
X6680519Y-5345222D01*
X6672509Y-5364511D01*
X6672491Y-5385397D01*
X6680467Y-5404700D01*
X6695222Y-5419481D01*
X6714511Y-5427491D01*
X6735397Y-5427509D01*
X6754700Y-5419533D01*
X6769481Y-5404778D01*
X6769804Y-5404000D01*
X6775000Y-5404000D01*
X6781000Y-5402806D01*
X6781000Y-5415250D01*
X6789750Y-5424000D01*
X6849000Y-5424000D01*
X6849000Y-5423213D01*
X6851000Y-5423213D01*
X6851000Y-5424000D01*
X6910250Y-5424000D01*
X6919000Y-5415250D01*
X6919000Y-5384038D01*
X6913672Y-5371174D01*
X6903826Y-5361328D01*
X6899086Y-5359365D01*
X6899989Y-5358464D01*
X6908990Y-5336787D01*
X6909010Y-5313316D01*
X6900047Y-5291623D01*
X6883464Y-5275011D01*
X6883428Y-5274996D01*
X6899989Y-5258464D01*
X6908990Y-5236787D01*
X6909010Y-5213316D01*
X6900047Y-5191623D01*
X6883464Y-5175011D01*
X6883428Y-5174996D01*
X6899989Y-5158464D01*
X6908990Y-5136787D01*
X6909010Y-5113316D01*
X6900047Y-5091623D01*
X6883464Y-5075011D01*
X6883428Y-5074996D01*
X6899989Y-5058464D01*
X6908990Y-5036787D01*
X6909010Y-5013316D01*
X6900047Y-4991623D01*
X6883464Y-4975011D01*
X6883428Y-4974996D01*
X6899989Y-4958464D01*
X6908990Y-4936787D01*
X6909010Y-4913316D01*
X6907164Y-4908848D01*
X6995506Y-4820506D01*
X7001793Y-4811098D01*
X7004000Y-4800000D01*
X7004000Y-4752500D01*
X7007473Y-4752500D01*
X7016661Y-4748694D01*
X7023694Y-4741661D01*
X7027500Y-4732473D01*
X7027500Y-4722527D01*
X7027500Y-4722520D01*
X7030467Y-4729700D01*
X7045222Y-4744481D01*
X7064511Y-4752491D01*
X7085397Y-4752509D01*
X7104700Y-4744533D01*
X7119481Y-4729778D01*
X7125004Y-4716478D01*
X7130467Y-4729700D01*
X7145222Y-4744481D01*
X7164511Y-4752491D01*
X7185397Y-4752509D01*
X7204700Y-4744533D01*
X7219481Y-4729778D01*
X7219494Y-4729747D01*
X7221195Y-4734145D01*
X7222864Y-4736643D01*
X7235427Y-4738159D01*
X7273586Y-4700000D01*
X7235427Y-4661841D01*
X7222864Y-4663357D01*
X7219660Y-4670606D01*
X7219533Y-4670300D01*
X7204778Y-4655519D01*
X7201120Y-4654000D01*
X7237617Y-4654000D01*
X7236841Y-4660427D01*
X7275000Y-4698586D01*
X7313159Y-4660427D01*
X7312383Y-4654000D01*
X7337617Y-4654000D01*
X7336841Y-4660427D01*
X7375000Y-4698586D01*
X7413159Y-4660427D01*
X7412383Y-4654000D01*
X7448850Y-4654000D01*
X7445300Y-4655467D01*
X7430519Y-4670222D01*
X7430506Y-4670253D01*
X7428805Y-4665855D01*
X7427136Y-4663357D01*
X7414573Y-4661841D01*
X7376414Y-4700000D01*
X7414573Y-4738159D01*
X7427136Y-4736643D01*
X7430340Y-4729394D01*
X7430467Y-4729700D01*
X7445222Y-4744481D01*
X7464511Y-4752491D01*
X7485397Y-4752509D01*
X7504700Y-4744533D01*
X7519481Y-4729778D01*
X7525004Y-4716478D01*
X7530467Y-4729700D01*
X7545222Y-4744481D01*
X7564511Y-4752491D01*
X7585397Y-4752509D01*
X7604700Y-4744533D01*
X7619481Y-4729778D01*
X7625004Y-4716478D01*
X7630467Y-4729700D01*
X7645222Y-4744481D01*
X7664511Y-4752491D01*
X7683853Y-4752508D01*
X7665918Y-4770442D01*
X7664197Y-4770441D01*
X7644140Y-4778728D01*
X7628782Y-4794060D01*
X7620459Y-4814102D01*
X7620441Y-4835803D01*
X7628728Y-4855860D01*
X7641563Y-4868718D01*
X7639763Y-4869413D01*
X7637129Y-4871173D01*
X7635363Y-4883948D01*
X7675000Y-4923586D01*
X7714637Y-4883948D01*
X7712871Y-4871173D01*
X7708083Y-4869053D01*
X7721218Y-4855940D01*
X7729541Y-4835898D01*
X7729542Y-4834098D01*
X7781820Y-4781820D01*
X7791575Y-4767221D01*
X7795000Y-4750000D01*
X7795000Y-4600000D01*
X7791575Y-4582779D01*
X7781820Y-4568180D01*
X7666132Y-4452492D01*
X7685397Y-4452509D01*
X7704700Y-4444533D01*
X7719481Y-4429778D01*
X7727491Y-4410489D01*
X7727509Y-4389603D01*
X7719533Y-4370300D01*
X7704778Y-4355519D01*
X7685489Y-4347509D01*
X7664603Y-4347491D01*
X7645300Y-4355467D01*
X7630519Y-4370222D01*
X7624996Y-4383521D01*
X7619533Y-4370300D01*
X7604778Y-4355519D01*
X7585489Y-4347509D01*
X7564603Y-4347491D01*
X7563825Y-4347812D01*
X7546012Y-4330000D01*
X7845000Y-4330000D01*
X7845000Y-5870000D01*
X7845000Y-5870000D01*
G37*
X7845000Y-5870000D02*
X7820300Y-5870000D01*
X7820300Y-5680320D01*
X7798559Y-5627702D01*
X7758337Y-5587409D01*
X7739840Y-5579729D01*
X7739840Y-4913718D01*
X7730587Y-4889763D01*
X7728827Y-4887129D01*
X7716052Y-4885363D01*
X7676414Y-4925000D01*
X7716052Y-4964637D01*
X7728827Y-4962871D01*
X7739222Y-4939390D01*
X7739840Y-4913718D01*
X7739840Y-5579729D01*
X7705757Y-5565576D01*
X7648824Y-5565526D01*
X7596206Y-5587268D01*
X7555913Y-5627490D01*
X7534080Y-5680070D01*
X7534030Y-5737003D01*
X7555772Y-5789621D01*
X7595994Y-5829914D01*
X7648574Y-5851747D01*
X7705507Y-5851796D01*
X7758125Y-5830055D01*
X7798418Y-5789833D01*
X7820251Y-5737253D01*
X7820300Y-5680320D01*
X7820300Y-5870000D01*
X7414637Y-5870000D01*
X7414637Y-5816052D01*
X7375000Y-5776414D01*
X7335363Y-5816052D01*
X7337129Y-5828827D01*
X7360610Y-5839222D01*
X7386282Y-5839840D01*
X7410237Y-5830587D01*
X7412871Y-5828827D01*
X7414637Y-5816052D01*
X7414637Y-5870000D01*
X7314637Y-5870000D01*
X7314637Y-5816052D01*
X7275000Y-5776414D01*
X7235363Y-5816052D01*
X7237129Y-5828827D01*
X7260610Y-5839222D01*
X7286282Y-5839840D01*
X7310237Y-5830587D01*
X7312871Y-5828827D01*
X7314637Y-5816052D01*
X7314637Y-5870000D01*
X7143640Y-5870000D01*
X7184082Y-5829558D01*
X7185803Y-5829559D01*
X7205860Y-5821272D01*
X7218718Y-5808437D01*
X7219413Y-5810237D01*
X7221173Y-5812871D01*
X7233948Y-5814637D01*
X7273586Y-5775000D01*
X7273029Y-5774443D01*
X7274443Y-5773029D01*
X7275000Y-5773586D01*
X7275557Y-5773029D01*
X7276971Y-5774443D01*
X7276414Y-5775000D01*
X7316052Y-5814637D01*
X7325000Y-5813400D01*
X7333948Y-5814637D01*
X7373586Y-5775000D01*
X7373029Y-5774443D01*
X7374443Y-5773029D01*
X7375000Y-5773586D01*
X7375557Y-5773029D01*
X7376971Y-5774443D01*
X7376414Y-5775000D01*
X7416052Y-5814637D01*
X7428827Y-5812871D01*
X7430947Y-5808083D01*
X7444060Y-5821218D01*
X7464102Y-5829541D01*
X7485803Y-5829559D01*
X7505860Y-5821272D01*
X7521218Y-5805940D01*
X7529541Y-5785898D01*
X7529559Y-5764197D01*
X7521272Y-5744140D01*
X7505940Y-5728782D01*
X7491044Y-5722596D01*
X7506820Y-5706820D01*
X7516575Y-5692221D01*
X7520000Y-5675000D01*
X7520000Y-5673128D01*
X7529001Y-5659657D01*
X7533450Y-5637290D01*
X7533450Y-5562710D01*
X7529927Y-5545000D01*
X7575000Y-5545000D01*
X7592221Y-5541575D01*
X7606820Y-5531820D01*
X7706820Y-5431820D01*
X7716575Y-5417221D01*
X7720000Y-5400000D01*
X7720000Y-5331503D01*
X7723161Y-5330194D01*
X7730194Y-5323161D01*
X7734000Y-5313973D01*
X7734000Y-5304027D01*
X7734000Y-5236027D01*
X7730194Y-5226839D01*
X7723161Y-5219806D01*
X7716423Y-5217015D01*
X7724989Y-5208464D01*
X7733990Y-5186787D01*
X7734010Y-5163316D01*
X7725047Y-5141623D01*
X7708464Y-5125011D01*
X7708428Y-5124996D01*
X7724989Y-5108464D01*
X7733990Y-5086787D01*
X7734010Y-5063316D01*
X7725047Y-5041623D01*
X7714637Y-5031195D01*
X7714637Y-4966052D01*
X7675000Y-4926414D01*
X7673586Y-4927828D01*
X7673586Y-4925000D01*
X7633948Y-4885363D01*
X7621173Y-4887129D01*
X7610778Y-4910610D01*
X7610160Y-4936282D01*
X7619413Y-4960237D01*
X7621173Y-4962871D01*
X7633948Y-4964637D01*
X7673586Y-4925000D01*
X7673586Y-4927828D01*
X7635363Y-4966052D01*
X7637129Y-4978827D01*
X7660610Y-4989222D01*
X7686282Y-4989840D01*
X7710237Y-4980587D01*
X7712871Y-4978827D01*
X7714637Y-4966052D01*
X7714637Y-5031195D01*
X7708464Y-5025011D01*
X7686787Y-5016010D01*
X7663316Y-5015990D01*
X7641623Y-5024953D01*
X7625011Y-5041536D01*
X7616010Y-5063213D01*
X7615990Y-5086684D01*
X7624953Y-5108377D01*
X7641536Y-5124989D01*
X7641572Y-5125004D01*
X7625011Y-5141536D01*
X7616010Y-5163213D01*
X7615990Y-5186684D01*
X7624953Y-5208377D01*
X7633576Y-5217015D01*
X7626839Y-5219806D01*
X7619806Y-5226839D01*
X7616000Y-5236027D01*
X7616000Y-5245973D01*
X7616000Y-5313973D01*
X7619806Y-5323161D01*
X7626839Y-5330194D01*
X7630000Y-5331503D01*
X7630000Y-5381360D01*
X7600000Y-5411360D01*
X7600000Y-5139750D01*
X7600000Y-5120250D01*
X7600000Y-4813038D01*
X7594672Y-4800174D01*
X7584826Y-4790328D01*
X7571962Y-4785000D01*
X7558038Y-4785000D01*
X7413159Y-4785000D01*
X7413159Y-4739573D01*
X7375000Y-4701414D01*
X7373586Y-4702828D01*
X7373586Y-4700000D01*
X7335427Y-4661841D01*
X7325000Y-4663099D01*
X7314573Y-4661841D01*
X7276414Y-4700000D01*
X7314573Y-4738159D01*
X7325000Y-4736900D01*
X7335427Y-4738159D01*
X7373586Y-4700000D01*
X7373586Y-4702828D01*
X7336841Y-4739573D01*
X7338357Y-4752136D01*
X7361098Y-4762190D01*
X7385955Y-4762776D01*
X7409145Y-4753805D01*
X7411643Y-4752136D01*
X7413159Y-4739573D01*
X7413159Y-4785000D01*
X7384750Y-4785000D01*
X7376000Y-4793750D01*
X7376000Y-5129000D01*
X7591250Y-5129000D01*
X7600000Y-5120250D01*
X7600000Y-5139750D01*
X7591250Y-5131000D01*
X7376000Y-5131000D01*
X7376000Y-5131787D01*
X7374000Y-5131787D01*
X7374000Y-5131000D01*
X7374000Y-5129000D01*
X7374000Y-4793750D01*
X7365250Y-4785000D01*
X7313159Y-4785000D01*
X7313159Y-4739573D01*
X7275000Y-4701414D01*
X7236841Y-4739573D01*
X7238357Y-4752136D01*
X7261098Y-4762190D01*
X7285955Y-4762776D01*
X7309145Y-4753805D01*
X7311643Y-4752136D01*
X7313159Y-4739573D01*
X7313159Y-4785000D01*
X7191962Y-4785000D01*
X7178038Y-4785000D01*
X7165174Y-4790328D01*
X7155328Y-4800174D01*
X7150000Y-4813038D01*
X7150000Y-4948586D01*
X7146704Y-4951882D01*
X7143745Y-4938089D01*
X7116723Y-4926061D01*
X7087155Y-4925290D01*
X7059542Y-4935892D01*
X7056255Y-4938089D01*
X7053296Y-4951882D01*
X7100000Y-4998586D01*
X7100557Y-4998029D01*
X7101971Y-4999443D01*
X7101414Y-5000000D01*
X7101971Y-5000557D01*
X7100557Y-5001971D01*
X7100000Y-5001414D01*
X7098586Y-5002828D01*
X7098586Y-5000000D01*
X7051882Y-4953296D01*
X7038089Y-4956255D01*
X7026061Y-4983277D01*
X7025290Y-5012845D01*
X7035892Y-5040458D01*
X7038089Y-5043745D01*
X7051882Y-5046704D01*
X7098586Y-5000000D01*
X7098586Y-5002828D01*
X7053296Y-5048118D01*
X7056255Y-5061911D01*
X7083277Y-5073939D01*
X7112845Y-5074710D01*
X7140458Y-5064108D01*
X7143745Y-5061911D01*
X7146704Y-5048118D01*
X7146704Y-5048118D01*
X7150000Y-5051414D01*
X7150000Y-5120250D01*
X7158750Y-5129000D01*
X7374000Y-5129000D01*
X7374000Y-5131000D01*
X7158750Y-5131000D01*
X7150000Y-5139750D01*
X7150000Y-5359003D01*
X7146704Y-5355701D01*
X7136499Y-5345479D01*
X7112856Y-5335661D01*
X7087256Y-5335639D01*
X7063596Y-5345415D01*
X7045479Y-5363501D01*
X7035661Y-5387144D01*
X7035639Y-5412744D01*
X7045415Y-5436404D01*
X7063501Y-5454521D01*
X7087144Y-5464339D01*
X7112744Y-5464361D01*
X7136404Y-5454585D01*
X7150000Y-5441013D01*
X7150000Y-5446962D01*
X7155328Y-5459826D01*
X7165174Y-5469672D01*
X7178038Y-5475000D01*
X7191962Y-5475000D01*
X7261360Y-5475000D01*
X7243180Y-5493180D01*
X7233425Y-5507779D01*
X7230000Y-5525000D01*
X7230000Y-5526872D01*
X7220999Y-5540343D01*
X7216550Y-5562710D01*
X7216550Y-5637290D01*
X7220073Y-5655000D01*
X7218640Y-5655000D01*
X7204558Y-5640918D01*
X7204559Y-5639197D01*
X7196272Y-5619140D01*
X7180940Y-5603782D01*
X7171835Y-5600001D01*
X7180860Y-5596272D01*
X7196218Y-5580940D01*
X7204541Y-5560898D01*
X7204559Y-5539197D01*
X7196272Y-5519140D01*
X7180940Y-5503782D01*
X7160898Y-5495459D01*
X7139197Y-5495441D01*
X7119140Y-5503728D01*
X7103782Y-5519060D01*
X7095459Y-5539102D01*
X7095441Y-5560803D01*
X7103728Y-5580860D01*
X7119060Y-5596218D01*
X7128165Y-5599999D01*
X7119140Y-5603728D01*
X7103782Y-5619060D01*
X7095459Y-5639102D01*
X7095441Y-5660803D01*
X7103728Y-5680860D01*
X7119060Y-5696218D01*
X7139102Y-5704541D01*
X7140902Y-5704542D01*
X7158963Y-5722603D01*
X7144140Y-5728728D01*
X7128782Y-5744060D01*
X7120459Y-5764102D01*
X7120458Y-5765902D01*
X7081360Y-5805000D01*
X7005000Y-5805000D01*
X7005000Y-5470000D01*
X6917327Y-5470000D01*
X6919000Y-5465962D01*
X6919000Y-5434750D01*
X6910250Y-5426000D01*
X6851000Y-5426000D01*
X6851000Y-5426787D01*
X6849000Y-5426787D01*
X6849000Y-5426000D01*
X6789750Y-5426000D01*
X6781000Y-5434750D01*
X6781000Y-5465962D01*
X6782673Y-5470000D01*
X6605000Y-5470000D01*
X6605000Y-4330000D01*
X6672496Y-4330000D01*
X6672491Y-4335397D01*
X6680467Y-4354700D01*
X6695222Y-4369481D01*
X6708521Y-4375004D01*
X6695300Y-4380467D01*
X6680519Y-4395222D01*
X6672509Y-4414511D01*
X6672491Y-4435397D01*
X6680467Y-4454700D01*
X6695222Y-4469481D01*
X6713502Y-4477072D01*
X6707507Y-4491509D01*
X6707493Y-4508417D01*
X6713949Y-4524043D01*
X6725894Y-4536009D01*
X6741509Y-4542493D01*
X6758417Y-4542507D01*
X6774043Y-4536051D01*
X6786009Y-4524106D01*
X6792493Y-4508491D01*
X6792501Y-4498511D01*
X6912012Y-4379000D01*
X6926874Y-4379000D01*
X6922509Y-4389511D01*
X6922491Y-4410397D01*
X6930467Y-4429700D01*
X6945222Y-4444481D01*
X6963383Y-4452022D01*
X7000633Y-4489273D01*
X6988991Y-4500894D01*
X6982507Y-4516509D01*
X6982493Y-4533417D01*
X6988949Y-4549043D01*
X7000894Y-4561009D01*
X7016509Y-4567493D01*
X7033417Y-4567507D01*
X7049043Y-4561051D01*
X7056106Y-4554000D01*
X7518898Y-4554000D01*
X7525894Y-4561009D01*
X7541509Y-4567493D01*
X7558417Y-4567507D01*
X7574043Y-4561051D01*
X7586009Y-4549106D01*
X7592493Y-4533491D01*
X7592504Y-4520000D01*
X7606360Y-4520000D01*
X7705000Y-4618640D01*
X7705000Y-4655741D01*
X7704778Y-4655519D01*
X7685489Y-4647509D01*
X7664603Y-4647491D01*
X7645300Y-4655467D01*
X7630519Y-4670222D01*
X7624996Y-4683521D01*
X7619533Y-4670300D01*
X7604778Y-4655519D01*
X7585489Y-4647509D01*
X7564603Y-4647491D01*
X7563825Y-4647812D01*
X7520506Y-4604494D01*
X7511098Y-4598207D01*
X7500000Y-4596000D01*
X6800000Y-4596000D01*
X6788902Y-4598207D01*
X6779494Y-4604494D01*
X6777494Y-4606493D01*
X6777509Y-4589603D01*
X6769533Y-4570300D01*
X6754778Y-4555519D01*
X6735489Y-4547509D01*
X6714603Y-4547491D01*
X6695300Y-4555467D01*
X6680519Y-4570222D01*
X6672509Y-4589511D01*
X6672491Y-4610397D01*
X6680467Y-4629700D01*
X6695222Y-4644481D01*
X6708521Y-4650004D01*
X6695300Y-4655467D01*
X6680519Y-4670222D01*
X6672509Y-4689511D01*
X6672491Y-4710397D01*
X6680467Y-4729700D01*
X6695222Y-4744481D01*
X6708521Y-4750004D01*
X6695300Y-4755467D01*
X6680519Y-4770222D01*
X6672509Y-4789511D01*
X6672491Y-4810397D01*
X6680467Y-4829700D01*
X6695222Y-4844481D01*
X6708521Y-4850004D01*
X6695300Y-4855467D01*
X6680519Y-4870222D01*
X6672509Y-4889511D01*
X6672491Y-4910397D01*
X6680467Y-4929700D01*
X6695222Y-4944481D01*
X6714511Y-4952491D01*
X6735397Y-4952509D01*
X6746000Y-4948128D01*
X6746000Y-4950000D01*
X6748207Y-4961098D01*
X6754494Y-4970506D01*
X6792826Y-5008839D01*
X6791010Y-5013213D01*
X6790990Y-5036684D01*
X6799953Y-5058377D01*
X6816536Y-5074989D01*
X6816572Y-5075004D01*
X6800011Y-5091536D01*
X6791010Y-5113213D01*
X6790990Y-5136684D01*
X6799953Y-5158377D01*
X6816536Y-5174989D01*
X6816572Y-5175004D01*
X6803783Y-5187771D01*
X6775322Y-5159310D01*
X6769533Y-5145300D01*
X6754778Y-5130519D01*
X6741478Y-5124996D01*
X6754700Y-5119533D01*
X6769481Y-5104778D01*
X6777491Y-5085489D01*
X6777509Y-5064603D01*
X6769533Y-5045300D01*
X6754778Y-5030519D01*
X6735489Y-5022509D01*
X6714603Y-5022491D01*
X6695300Y-5030467D01*
X6680519Y-5045222D01*
X6672509Y-5064511D01*
X6672491Y-5085397D01*
X6680467Y-5104700D01*
X6695222Y-5119481D01*
X6708521Y-5125004D01*
X6695300Y-5130467D01*
X6680519Y-5145222D01*
X6672509Y-5164511D01*
X6672491Y-5185397D01*
X6680467Y-5204700D01*
X6695222Y-5219481D01*
X6708521Y-5225004D01*
X6695300Y-5230467D01*
X6680519Y-5245222D01*
X6672509Y-5264511D01*
X6672491Y-5285397D01*
X6680467Y-5304700D01*
X6695222Y-5319481D01*
X6708521Y-5325004D01*
X6695300Y-5330467D01*
X6680519Y-5345222D01*
X6672509Y-5364511D01*
X6672491Y-5385397D01*
X6680467Y-5404700D01*
X6695222Y-5419481D01*
X6714511Y-5427491D01*
X6735397Y-5427509D01*
X6754700Y-5419533D01*
X6769481Y-5404778D01*
X6769804Y-5404000D01*
X6775000Y-5404000D01*
X6781000Y-5402806D01*
X6781000Y-5415250D01*
X6789750Y-5424000D01*
X6849000Y-5424000D01*
X6849000Y-5423213D01*
X6851000Y-5423213D01*
X6851000Y-5424000D01*
X6910250Y-5424000D01*
X6919000Y-5415250D01*
X6919000Y-5384038D01*
X6913672Y-5371174D01*
X6903826Y-5361328D01*
X6899086Y-5359365D01*
X6899989Y-5358464D01*
X6908990Y-5336787D01*
X6909010Y-5313316D01*
X6900047Y-5291623D01*
X6883464Y-5275011D01*
X6883428Y-5274996D01*
X6899989Y-5258464D01*
X6908990Y-5236787D01*
X6909010Y-5213316D01*
X6900047Y-5191623D01*
X6883464Y-5175011D01*
X6883428Y-5174996D01*
X6899989Y-5158464D01*
X6908990Y-5136787D01*
X6909010Y-5113316D01*
X6900047Y-5091623D01*
X6883464Y-5075011D01*
X6883428Y-5074996D01*
X6899989Y-5058464D01*
X6908990Y-5036787D01*
X6909010Y-5013316D01*
X6900047Y-4991623D01*
X6883464Y-4975011D01*
X6883428Y-4974996D01*
X6899989Y-4958464D01*
X6908990Y-4936787D01*
X6909010Y-4913316D01*
X6907164Y-4908848D01*
X6995506Y-4820506D01*
X7001793Y-4811098D01*
X7004000Y-4800000D01*
X7004000Y-4752500D01*
X7007473Y-4752500D01*
X7016661Y-4748694D01*
X7023694Y-4741661D01*
X7027500Y-4732473D01*
X7027500Y-4722527D01*
X7027500Y-4722520D01*
X7030467Y-4729700D01*
X7045222Y-4744481D01*
X7064511Y-4752491D01*
X7085397Y-4752509D01*
X7104700Y-4744533D01*
X7119481Y-4729778D01*
X7125004Y-4716478D01*
X7130467Y-4729700D01*
X7145222Y-4744481D01*
X7164511Y-4752491D01*
X7185397Y-4752509D01*
X7204700Y-4744533D01*
X7219481Y-4729778D01*
X7219494Y-4729747D01*
X7221195Y-4734145D01*
X7222864Y-4736643D01*
X7235427Y-4738159D01*
X7273586Y-4700000D01*
X7235427Y-4661841D01*
X7222864Y-4663357D01*
X7219660Y-4670606D01*
X7219533Y-4670300D01*
X7204778Y-4655519D01*
X7201120Y-4654000D01*
X7237617Y-4654000D01*
X7236841Y-4660427D01*
X7275000Y-4698586D01*
X7313159Y-4660427D01*
X7312383Y-4654000D01*
X7337617Y-4654000D01*
X7336841Y-4660427D01*
X7375000Y-4698586D01*
X7413159Y-4660427D01*
X7412383Y-4654000D01*
X7448850Y-4654000D01*
X7445300Y-4655467D01*
X7430519Y-4670222D01*
X7430506Y-4670253D01*
X7428805Y-4665855D01*
X7427136Y-4663357D01*
X7414573Y-4661841D01*
X7376414Y-4700000D01*
X7414573Y-4738159D01*
X7427136Y-4736643D01*
X7430340Y-4729394D01*
X7430467Y-4729700D01*
X7445222Y-4744481D01*
X7464511Y-4752491D01*
X7485397Y-4752509D01*
X7504700Y-4744533D01*
X7519481Y-4729778D01*
X7525004Y-4716478D01*
X7530467Y-4729700D01*
X7545222Y-4744481D01*
X7564511Y-4752491D01*
X7585397Y-4752509D01*
X7604700Y-4744533D01*
X7619481Y-4729778D01*
X7625004Y-4716478D01*
X7630467Y-4729700D01*
X7645222Y-4744481D01*
X7664511Y-4752491D01*
X7683853Y-4752508D01*
X7665918Y-4770442D01*
X7664197Y-4770441D01*
X7644140Y-4778728D01*
X7628782Y-4794060D01*
X7620459Y-4814102D01*
X7620441Y-4835803D01*
X7628728Y-4855860D01*
X7641563Y-4868718D01*
X7639763Y-4869413D01*
X7637129Y-4871173D01*
X7635363Y-4883948D01*
X7675000Y-4923586D01*
X7714637Y-4883948D01*
X7712871Y-4871173D01*
X7708083Y-4869053D01*
X7721218Y-4855940D01*
X7729541Y-4835898D01*
X7729542Y-4834098D01*
X7781820Y-4781820D01*
X7791575Y-4767221D01*
X7795000Y-4750000D01*
X7795000Y-4600000D01*
X7791575Y-4582779D01*
X7781820Y-4568180D01*
X7666132Y-4452492D01*
X7685397Y-4452509D01*
X7704700Y-4444533D01*
X7719481Y-4429778D01*
X7727491Y-4410489D01*
X7727509Y-4389603D01*
X7719533Y-4370300D01*
X7704778Y-4355519D01*
X7685489Y-4347509D01*
X7664603Y-4347491D01*
X7645300Y-4355467D01*
X7630519Y-4370222D01*
X7624996Y-4383521D01*
X7619533Y-4370300D01*
X7604778Y-4355519D01*
X7585489Y-4347509D01*
X7564603Y-4347491D01*
X7563825Y-4347812D01*
X7546012Y-4330000D01*
X7845000Y-4330000D01*
X7845000Y-5870000D01*
G36*
X5176971Y-5575557D02*
X5175557Y-5576971D01*
X5175000Y-5576414D01*
X5174443Y-5576971D01*
X5173029Y-5575557D01*
X5173586Y-5575000D01*
X5133948Y-5535363D01*
X5121173Y-5537129D01*
X5119053Y-5541917D01*
X5105940Y-5528782D01*
X5102860Y-5527502D01*
X5110397Y-5527509D01*
X5129700Y-5519533D01*
X5144481Y-5504778D01*
X5144494Y-5504747D01*
X5146195Y-5509145D01*
X5147864Y-5511643D01*
X5157018Y-5512748D01*
X5139763Y-5519413D01*
X5137129Y-5521173D01*
X5135363Y-5533948D01*
X5175000Y-5573586D01*
X5175557Y-5573029D01*
X5176971Y-5574443D01*
X5176414Y-5575000D01*
X5176971Y-5575557D01*
X5176971Y-5575557D01*
G37*
X5176971Y-5575557D02*
X5175557Y-5576971D01*
X5175000Y-5576414D01*
X5174443Y-5576971D01*
X5173029Y-5575557D01*
X5173586Y-5575000D01*
X5133948Y-5535363D01*
X5121173Y-5537129D01*
X5119053Y-5541917D01*
X5105940Y-5528782D01*
X5102860Y-5527502D01*
X5110397Y-5527509D01*
X5129700Y-5519533D01*
X5144481Y-5504778D01*
X5144494Y-5504747D01*
X5146195Y-5509145D01*
X5147864Y-5511643D01*
X5157018Y-5512748D01*
X5139763Y-5519413D01*
X5137129Y-5521173D01*
X5135363Y-5533948D01*
X5175000Y-5573586D01*
X5175557Y-5573029D01*
X5176971Y-5574443D01*
X5176414Y-5575000D01*
X5176971Y-5575557D01*
G36*
X5351971Y-5125557D02*
X5350557Y-5126971D01*
X5350000Y-5126414D01*
X5349443Y-5126971D01*
X5348029Y-5125557D01*
X5348586Y-5125000D01*
X5348029Y-5124443D01*
X5349443Y-5123029D01*
X5350000Y-5123586D01*
X5350557Y-5123029D01*
X5351971Y-5124443D01*
X5351414Y-5125000D01*
X5351971Y-5125557D01*
X5351971Y-5125557D01*
G37*
X5351971Y-5125557D02*
X5350557Y-5126971D01*
X5350000Y-5126414D01*
X5349443Y-5126971D01*
X5348029Y-5125557D01*
X5348586Y-5125000D01*
X5348029Y-5124443D01*
X5349443Y-5123029D01*
X5350000Y-5123586D01*
X5350557Y-5123029D01*
X5351971Y-5124443D01*
X5351414Y-5125000D01*
X5351971Y-5125557D01*
G36*
X5524988Y-4084000D02*
X5461488Y-4147500D01*
X5457541Y-4147500D01*
X5450000Y-4146000D01*
X5442459Y-4147500D01*
X5417527Y-4147500D01*
X5408339Y-4151306D01*
X5401306Y-4158339D01*
X5397500Y-4167527D01*
X5397500Y-4177473D01*
X5397500Y-4232473D01*
X5401306Y-4241661D01*
X5408339Y-4248694D01*
X5417527Y-4252500D01*
X5427473Y-4252500D01*
X5427480Y-4252500D01*
X5420300Y-4255467D01*
X5405519Y-4270222D01*
X5397509Y-4289511D01*
X5397491Y-4310397D01*
X5397812Y-4311175D01*
X5337988Y-4371000D01*
X5265000Y-4371000D01*
X5265000Y-4358038D01*
X5265000Y-4248299D01*
X5270415Y-4261404D01*
X5288501Y-4279521D01*
X5312144Y-4289339D01*
X5337744Y-4289361D01*
X5361404Y-4279585D01*
X5379521Y-4261499D01*
X5389339Y-4237856D01*
X5389361Y-4212256D01*
X5379585Y-4188596D01*
X5361499Y-4170479D01*
X5337856Y-4160661D01*
X5312256Y-4160639D01*
X5288596Y-4170415D01*
X5270479Y-4188501D01*
X5265000Y-4201695D01*
X5265000Y-4184750D01*
X5256250Y-4176000D01*
X4921000Y-4176000D01*
X4921000Y-4391250D01*
X4929750Y-4400000D01*
X4998586Y-4400000D01*
X5001882Y-4403296D01*
X4988089Y-4406255D01*
X4976061Y-4433277D01*
X4975290Y-4462845D01*
X4985892Y-4490458D01*
X4988089Y-4493745D01*
X5001882Y-4496704D01*
X5048586Y-4450000D01*
X5048029Y-4449443D01*
X5049443Y-4448029D01*
X5050000Y-4448586D01*
X5050557Y-4448029D01*
X5051971Y-4449443D01*
X5051414Y-4450000D01*
X5098118Y-4496704D01*
X5111911Y-4493745D01*
X5123939Y-4466723D01*
X5124710Y-4437155D01*
X5114108Y-4409542D01*
X5111911Y-4406255D01*
X5098118Y-4403296D01*
X5101414Y-4400000D01*
X5157500Y-4400000D01*
X5157493Y-4408417D01*
X5163949Y-4424043D01*
X5164896Y-4424991D01*
X5163991Y-4425894D01*
X5157507Y-4441509D01*
X5157499Y-4451489D01*
X5124710Y-4484277D01*
X5087988Y-4521000D01*
X5072508Y-4521000D01*
X5090458Y-4514108D01*
X5093745Y-4511911D01*
X5096704Y-4498118D01*
X5050000Y-4451414D01*
X5048586Y-4452828D01*
X5003296Y-4498118D01*
X5006255Y-4511911D01*
X5026674Y-4521000D01*
X4787012Y-4521000D01*
X4770506Y-4504494D01*
X4761098Y-4498207D01*
X4750000Y-4496000D01*
X4695004Y-4496000D01*
X4704521Y-4486499D01*
X4714339Y-4462856D01*
X4714361Y-4437256D01*
X4704585Y-4413596D01*
X4691013Y-4400000D01*
X4910250Y-4400000D01*
X4919000Y-4391250D01*
X4919000Y-4176000D01*
X4583750Y-4176000D01*
X4575000Y-4184750D01*
X4575000Y-4358038D01*
X4575000Y-4371962D01*
X4580328Y-4384826D01*
X4590174Y-4394672D01*
X4603038Y-4400000D01*
X4609003Y-4400000D01*
X4595479Y-4413501D01*
X4592365Y-4421000D01*
X4587012Y-4421000D01*
X4578769Y-4412757D01*
X4579541Y-4410898D01*
X4579559Y-4389197D01*
X4571272Y-4369140D01*
X4555940Y-4353782D01*
X4552894Y-4352517D01*
X4552894Y-4186694D01*
X4545142Y-4176000D01*
X4451000Y-4176000D01*
X4451000Y-4176787D01*
X4449000Y-4176787D01*
X4449000Y-4176000D01*
X4448213Y-4176000D01*
X4448213Y-4174000D01*
X4449000Y-4174000D01*
X4449000Y-4173213D01*
X4451000Y-4173213D01*
X4451000Y-4174000D01*
X4545142Y-4174000D01*
X4552894Y-4163306D01*
X4549072Y-4149729D01*
X4534559Y-4127306D01*
X4523552Y-4119717D01*
X4528620Y-4116330D01*
X4541290Y-4097368D01*
X4545740Y-4075000D01*
X4541290Y-4052632D01*
X4528620Y-4033670D01*
X4509657Y-4020999D01*
X4487290Y-4016550D01*
X4412710Y-4016550D01*
X4390343Y-4020999D01*
X4376872Y-4030000D01*
X4357157Y-4030000D01*
X4355940Y-4028782D01*
X4335898Y-4020459D01*
X4314197Y-4020441D01*
X4294140Y-4028728D01*
X4278782Y-4044060D01*
X4270849Y-4063164D01*
X4266439Y-4051440D01*
X4260739Y-4042910D01*
X4238762Y-4030369D01*
X4237348Y-4031783D01*
X4237348Y-4028954D01*
X4224806Y-4006978D01*
X4169328Y-3981831D01*
X4108450Y-3979830D01*
X4051440Y-4001278D01*
X4042910Y-4006978D01*
X4030369Y-4028954D01*
X4133858Y-4132444D01*
X4237348Y-4028954D01*
X4237348Y-4031783D01*
X4135272Y-4133858D01*
X4238762Y-4237348D01*
X4260739Y-4224806D01*
X4268460Y-4207771D01*
X4269413Y-4210237D01*
X4271173Y-4212871D01*
X4283948Y-4214637D01*
X4323586Y-4175000D01*
X4323029Y-4174443D01*
X4324443Y-4173029D01*
X4325000Y-4173586D01*
X4325557Y-4173029D01*
X4326971Y-4174443D01*
X4326414Y-4175000D01*
X4326971Y-4175557D01*
X4325557Y-4176971D01*
X4325000Y-4176414D01*
X4285363Y-4216052D01*
X4287129Y-4228827D01*
X4302165Y-4235483D01*
X4288718Y-4235160D01*
X4264763Y-4244413D01*
X4262129Y-4246173D01*
X4260363Y-4258948D01*
X4300000Y-4298586D01*
X4339637Y-4258948D01*
X4337871Y-4246173D01*
X4322835Y-4239517D01*
X4336282Y-4239840D01*
X4360237Y-4230587D01*
X4362871Y-4228827D01*
X4364022Y-4220502D01*
X4365441Y-4222694D01*
X4376448Y-4230283D01*
X4371380Y-4233670D01*
X4358710Y-4252632D01*
X4356055Y-4265976D01*
X4355587Y-4264763D01*
X4353827Y-4262129D01*
X4341052Y-4260363D01*
X4301414Y-4300000D01*
X4341052Y-4339637D01*
X4353827Y-4337871D01*
X4364222Y-4314390D01*
X4364426Y-4305923D01*
X4371380Y-4316330D01*
X4390343Y-4329001D01*
X4412710Y-4333450D01*
X4487290Y-4333450D01*
X4509657Y-4329001D01*
X4528620Y-4316330D01*
X4541290Y-4297368D01*
X4545740Y-4275000D01*
X4541290Y-4252632D01*
X4528620Y-4233670D01*
X4523552Y-4230283D01*
X4534559Y-4222694D01*
X4549072Y-4200271D01*
X4552894Y-4186694D01*
X4552894Y-4352517D01*
X4535898Y-4345459D01*
X4514197Y-4345441D01*
X4494140Y-4353728D01*
X4478782Y-4369060D01*
X4475001Y-4378165D01*
X4471272Y-4369140D01*
X4455940Y-4353782D01*
X4435898Y-4345459D01*
X4414197Y-4345441D01*
X4394140Y-4353728D01*
X4392866Y-4355000D01*
X4336116Y-4355000D01*
X4337871Y-4353827D01*
X4339637Y-4341052D01*
X4300000Y-4301414D01*
X4298586Y-4302828D01*
X4298586Y-4300000D01*
X4258948Y-4260363D01*
X4246173Y-4262129D01*
X4237348Y-4282063D01*
X4237348Y-4238762D01*
X4133858Y-4135272D01*
X4132444Y-4136687D01*
X4132444Y-4133858D01*
X4028954Y-4030369D01*
X4006978Y-4042910D01*
X3981831Y-4098388D01*
X3979830Y-4159266D01*
X4001278Y-4216276D01*
X4006978Y-4224806D01*
X4028954Y-4237348D01*
X4132444Y-4133858D01*
X4132444Y-4136687D01*
X4030369Y-4238762D01*
X4042910Y-4260739D01*
X4098388Y-4285885D01*
X4159266Y-4287887D01*
X4216276Y-4266439D01*
X4224806Y-4260739D01*
X4237348Y-4238762D01*
X4237348Y-4282063D01*
X4235778Y-4285610D01*
X4235160Y-4311282D01*
X4244413Y-4335237D01*
X4246173Y-4337871D01*
X4258948Y-4339637D01*
X4298586Y-4300000D01*
X4298586Y-4302828D01*
X4260363Y-4341052D01*
X4262129Y-4353827D01*
X4266917Y-4355947D01*
X4253782Y-4369060D01*
X4245459Y-4389102D01*
X4245441Y-4410803D01*
X4253728Y-4430860D01*
X4269060Y-4446218D01*
X4289102Y-4454541D01*
X4310803Y-4454559D01*
X4330860Y-4446272D01*
X4332134Y-4445000D01*
X4392843Y-4445000D01*
X4394060Y-4446218D01*
X4414102Y-4454541D01*
X4435803Y-4454559D01*
X4455860Y-4446272D01*
X4471218Y-4430940D01*
X4474999Y-4421835D01*
X4478728Y-4430860D01*
X4494060Y-4446218D01*
X4514102Y-4454541D01*
X4535803Y-4454559D01*
X4537745Y-4453757D01*
X4554494Y-4470506D01*
X4563902Y-4476793D01*
X4575000Y-4479000D01*
X4592356Y-4479000D01*
X4595415Y-4486404D01*
X4604994Y-4496000D01*
X4575000Y-4496000D01*
X4563902Y-4498207D01*
X4554494Y-4504494D01*
X4512988Y-4546000D01*
X4452500Y-4546000D01*
X4452500Y-4542527D01*
X4448694Y-4533339D01*
X4441661Y-4526306D01*
X4432473Y-4522500D01*
X4422527Y-4522500D01*
X4367527Y-4522500D01*
X4358339Y-4526306D01*
X4351306Y-4533339D01*
X4347500Y-4542527D01*
X4347500Y-4552473D01*
X4347500Y-4607473D01*
X4351306Y-4616661D01*
X4358339Y-4623694D01*
X4363023Y-4625634D01*
X4361841Y-4635427D01*
X4400000Y-4673586D01*
X4438159Y-4635427D01*
X4436977Y-4625634D01*
X4441661Y-4623694D01*
X4448694Y-4616661D01*
X4452500Y-4607473D01*
X4452500Y-4604000D01*
X4525000Y-4604000D01*
X4536098Y-4601793D01*
X4545506Y-4595506D01*
X4587012Y-4554000D01*
X4640949Y-4554000D01*
X4637810Y-4561098D01*
X4637224Y-4585955D01*
X4646195Y-4609145D01*
X4647864Y-4611643D01*
X4660427Y-4613159D01*
X4698586Y-4575000D01*
X4698029Y-4574443D01*
X4699443Y-4573029D01*
X4700000Y-4573586D01*
X4700557Y-4573029D01*
X4701971Y-4574443D01*
X4701414Y-4575000D01*
X4701971Y-4575557D01*
X4700557Y-4576971D01*
X4700000Y-4576414D01*
X4661841Y-4614573D01*
X4663357Y-4627136D01*
X4670606Y-4630340D01*
X4670300Y-4630467D01*
X4655519Y-4645222D01*
X4655196Y-4646000D01*
X4625000Y-4646000D01*
X4613902Y-4648207D01*
X4604494Y-4654494D01*
X4462988Y-4796000D01*
X4462776Y-4796000D01*
X4462776Y-4664045D01*
X4453805Y-4640855D01*
X4452136Y-4638357D01*
X4439573Y-4636841D01*
X4401414Y-4675000D01*
X4439573Y-4713159D01*
X4452136Y-4711643D01*
X4462190Y-4688902D01*
X4462776Y-4664045D01*
X4462776Y-4796000D01*
X4448126Y-4796000D01*
X4452491Y-4785489D01*
X4452509Y-4764603D01*
X4444533Y-4745300D01*
X4429778Y-4730519D01*
X4429747Y-4730506D01*
X4434145Y-4728805D01*
X4436643Y-4727136D01*
X4438159Y-4714573D01*
X4400000Y-4676414D01*
X4398586Y-4677828D01*
X4398586Y-4675000D01*
X4360427Y-4636841D01*
X4347864Y-4638357D01*
X4337810Y-4661098D01*
X4337224Y-4685955D01*
X4346195Y-4709145D01*
X4347864Y-4711643D01*
X4360427Y-4713159D01*
X4398586Y-4675000D01*
X4398586Y-4677828D01*
X4361841Y-4714573D01*
X4363357Y-4727136D01*
X4370606Y-4730340D01*
X4370300Y-4730467D01*
X4355519Y-4745222D01*
X4347509Y-4764511D01*
X4347491Y-4785397D01*
X4351872Y-4796000D01*
X4350000Y-4796000D01*
X4338902Y-4798207D01*
X4329494Y-4804494D01*
X4287988Y-4846000D01*
X4261789Y-4846000D01*
X4264668Y-4839497D01*
X4265294Y-4813646D01*
X4255978Y-4789524D01*
X4255010Y-4788073D01*
X4255010Y-4714108D01*
X4246654Y-4693886D01*
X4231196Y-4678400D01*
X4210988Y-4670010D01*
X4189108Y-4669990D01*
X4168886Y-4678346D01*
X4167229Y-4680000D01*
X4150355Y-4680000D01*
X4144161Y-4673806D01*
X4134973Y-4670000D01*
X4125027Y-4670000D01*
X4065027Y-4670000D01*
X4055839Y-4673806D01*
X4048806Y-4680839D01*
X4045000Y-4690027D01*
X4045000Y-4699973D01*
X4045000Y-4759973D01*
X4048806Y-4769161D01*
X4055839Y-4776194D01*
X4060801Y-4778250D01*
X4060038Y-4783624D01*
X4100000Y-4823586D01*
X4139962Y-4783624D01*
X4139199Y-4778250D01*
X4144161Y-4776194D01*
X4150355Y-4770000D01*
X4163059Y-4770000D01*
X4161859Y-4770802D01*
X4160038Y-4783624D01*
X4200000Y-4823586D01*
X4239962Y-4783624D01*
X4238141Y-4770802D01*
X4233865Y-4768908D01*
X4246600Y-4756196D01*
X4254990Y-4735988D01*
X4255010Y-4714108D01*
X4255010Y-4788073D01*
X4254198Y-4786859D01*
X4241376Y-4785038D01*
X4201414Y-4825000D01*
X4201971Y-4825557D01*
X4200557Y-4826971D01*
X4200000Y-4826414D01*
X4199443Y-4826971D01*
X4198029Y-4825557D01*
X4198586Y-4825000D01*
X4158624Y-4785038D01*
X4150000Y-4786263D01*
X4141376Y-4785038D01*
X4101414Y-4825000D01*
X4101971Y-4825557D01*
X4100557Y-4826971D01*
X4100000Y-4826414D01*
X4098586Y-4827828D01*
X4098586Y-4825000D01*
X4058624Y-4785038D01*
X4045802Y-4786859D01*
X4035332Y-4810503D01*
X4034706Y-4836354D01*
X4044022Y-4860476D01*
X4045802Y-4863141D01*
X4058624Y-4864962D01*
X4098586Y-4825000D01*
X4098586Y-4827828D01*
X4060038Y-4866376D01*
X4061859Y-4879198D01*
X4066135Y-4881092D01*
X4053400Y-4893804D01*
X4045010Y-4914012D01*
X4044990Y-4935892D01*
X4053346Y-4956114D01*
X4068804Y-4971600D01*
X4076989Y-4974998D01*
X4068886Y-4978346D01*
X4053400Y-4993804D01*
X4045010Y-5014012D01*
X4044990Y-5035892D01*
X4053346Y-5056114D01*
X4068804Y-5071600D01*
X4076989Y-5074998D01*
X4068886Y-5078346D01*
X4053400Y-5093804D01*
X4045010Y-5114012D01*
X4045008Y-5116353D01*
X3993180Y-5168180D01*
X3983425Y-5182779D01*
X3980000Y-5200000D01*
X3980000Y-5525000D01*
X3983425Y-5542221D01*
X3993180Y-5556820D01*
X4018180Y-5581820D01*
X4032779Y-5591575D01*
X4036858Y-5592386D01*
X4030369Y-5603758D01*
X4133858Y-5707247D01*
X4134415Y-5706690D01*
X4135829Y-5708105D01*
X4135272Y-5708661D01*
X4238762Y-5812151D01*
X4260739Y-5799610D01*
X4268608Y-5782248D01*
X4356360Y-5870000D01*
X4237348Y-5870000D01*
X4237348Y-5813565D01*
X4133858Y-5710076D01*
X4132444Y-5711490D01*
X4132444Y-5708661D01*
X4028954Y-5605172D01*
X4006978Y-5617713D01*
X3981831Y-5673191D01*
X3979830Y-5734070D01*
X4001278Y-5791080D01*
X4006978Y-5799610D01*
X4028954Y-5812151D01*
X4132444Y-5708661D01*
X4132444Y-5711490D01*
X4030369Y-5813565D01*
X4042910Y-5835542D01*
X4098388Y-5860688D01*
X4159266Y-5862690D01*
X4216276Y-5841242D01*
X4224806Y-5835542D01*
X4237348Y-5813565D01*
X4237348Y-5870000D01*
X3963976Y-5870000D01*
X3963976Y-3963976D01*
X4581526Y-3963976D01*
X4580328Y-3965174D01*
X4575000Y-3978038D01*
X4575000Y-3991962D01*
X4575000Y-4165250D01*
X4583750Y-4174000D01*
X4919000Y-4174000D01*
X4919000Y-4173213D01*
X4921000Y-4173213D01*
X4921000Y-4174000D01*
X5256250Y-4174000D01*
X5265000Y-4165250D01*
X5265000Y-4082497D01*
X5271174Y-4088672D01*
X5284038Y-4094000D01*
X5315250Y-4094000D01*
X5324000Y-4085250D01*
X5324000Y-4026000D01*
X5323213Y-4026000D01*
X5323213Y-4024000D01*
X5324000Y-4024000D01*
X5324000Y-4023213D01*
X5326000Y-4023213D01*
X5326000Y-4024000D01*
X5326787Y-4024000D01*
X5326787Y-4026000D01*
X5326000Y-4026000D01*
X5326000Y-4085250D01*
X5334750Y-4094000D01*
X5365962Y-4094000D01*
X5378826Y-4088672D01*
X5388672Y-4078826D01*
X5390635Y-4074086D01*
X5391536Y-4074989D01*
X5413213Y-4083990D01*
X5436684Y-4084010D01*
X5458377Y-4075047D01*
X5474989Y-4058464D01*
X5475004Y-4058428D01*
X5491536Y-4074989D01*
X5513213Y-4083990D01*
X5524988Y-4084000D01*
X5524988Y-4084000D01*
G37*
X5524988Y-4084000D02*
X5461488Y-4147500D01*
X5457541Y-4147500D01*
X5450000Y-4146000D01*
X5442459Y-4147500D01*
X5417527Y-4147500D01*
X5408339Y-4151306D01*
X5401306Y-4158339D01*
X5397500Y-4167527D01*
X5397500Y-4177473D01*
X5397500Y-4232473D01*
X5401306Y-4241661D01*
X5408339Y-4248694D01*
X5417527Y-4252500D01*
X5427473Y-4252500D01*
X5427480Y-4252500D01*
X5420300Y-4255467D01*
X5405519Y-4270222D01*
X5397509Y-4289511D01*
X5397491Y-4310397D01*
X5397812Y-4311175D01*
X5337988Y-4371000D01*
X5265000Y-4371000D01*
X5265000Y-4358038D01*
X5265000Y-4248299D01*
X5270415Y-4261404D01*
X5288501Y-4279521D01*
X5312144Y-4289339D01*
X5337744Y-4289361D01*
X5361404Y-4279585D01*
X5379521Y-4261499D01*
X5389339Y-4237856D01*
X5389361Y-4212256D01*
X5379585Y-4188596D01*
X5361499Y-4170479D01*
X5337856Y-4160661D01*
X5312256Y-4160639D01*
X5288596Y-4170415D01*
X5270479Y-4188501D01*
X5265000Y-4201695D01*
X5265000Y-4184750D01*
X5256250Y-4176000D01*
X4921000Y-4176000D01*
X4921000Y-4391250D01*
X4929750Y-4400000D01*
X4998586Y-4400000D01*
X5001882Y-4403296D01*
X4988089Y-4406255D01*
X4976061Y-4433277D01*
X4975290Y-4462845D01*
X4985892Y-4490458D01*
X4988089Y-4493745D01*
X5001882Y-4496704D01*
X5048586Y-4450000D01*
X5048029Y-4449443D01*
X5049443Y-4448029D01*
X5050000Y-4448586D01*
X5050557Y-4448029D01*
X5051971Y-4449443D01*
X5051414Y-4450000D01*
X5098118Y-4496704D01*
X5111911Y-4493745D01*
X5123939Y-4466723D01*
X5124710Y-4437155D01*
X5114108Y-4409542D01*
X5111911Y-4406255D01*
X5098118Y-4403296D01*
X5101414Y-4400000D01*
X5157500Y-4400000D01*
X5157493Y-4408417D01*
X5163949Y-4424043D01*
X5164896Y-4424991D01*
X5163991Y-4425894D01*
X5157507Y-4441509D01*
X5157499Y-4451489D01*
X5124710Y-4484277D01*
X5087988Y-4521000D01*
X5072508Y-4521000D01*
X5090458Y-4514108D01*
X5093745Y-4511911D01*
X5096704Y-4498118D01*
X5050000Y-4451414D01*
X5048586Y-4452828D01*
X5003296Y-4498118D01*
X5006255Y-4511911D01*
X5026674Y-4521000D01*
X4787012Y-4521000D01*
X4770506Y-4504494D01*
X4761098Y-4498207D01*
X4750000Y-4496000D01*
X4695004Y-4496000D01*
X4704521Y-4486499D01*
X4714339Y-4462856D01*
X4714361Y-4437256D01*
X4704585Y-4413596D01*
X4691013Y-4400000D01*
X4910250Y-4400000D01*
X4919000Y-4391250D01*
X4919000Y-4176000D01*
X4583750Y-4176000D01*
X4575000Y-4184750D01*
X4575000Y-4358038D01*
X4575000Y-4371962D01*
X4580328Y-4384826D01*
X4590174Y-4394672D01*
X4603038Y-4400000D01*
X4609003Y-4400000D01*
X4595479Y-4413501D01*
X4592365Y-4421000D01*
X4587012Y-4421000D01*
X4578769Y-4412757D01*
X4579541Y-4410898D01*
X4579559Y-4389197D01*
X4571272Y-4369140D01*
X4555940Y-4353782D01*
X4552894Y-4352517D01*
X4552894Y-4186694D01*
X4545142Y-4176000D01*
X4451000Y-4176000D01*
X4451000Y-4176787D01*
X4449000Y-4176787D01*
X4449000Y-4176000D01*
X4448213Y-4176000D01*
X4448213Y-4174000D01*
X4449000Y-4174000D01*
X4449000Y-4173213D01*
X4451000Y-4173213D01*
X4451000Y-4174000D01*
X4545142Y-4174000D01*
X4552894Y-4163306D01*
X4549072Y-4149729D01*
X4534559Y-4127306D01*
X4523552Y-4119717D01*
X4528620Y-4116330D01*
X4541290Y-4097368D01*
X4545740Y-4075000D01*
X4541290Y-4052632D01*
X4528620Y-4033670D01*
X4509657Y-4020999D01*
X4487290Y-4016550D01*
X4412710Y-4016550D01*
X4390343Y-4020999D01*
X4376872Y-4030000D01*
X4357157Y-4030000D01*
X4355940Y-4028782D01*
X4335898Y-4020459D01*
X4314197Y-4020441D01*
X4294140Y-4028728D01*
X4278782Y-4044060D01*
X4270849Y-4063164D01*
X4266439Y-4051440D01*
X4260739Y-4042910D01*
X4238762Y-4030369D01*
X4237348Y-4031783D01*
X4237348Y-4028954D01*
X4224806Y-4006978D01*
X4169328Y-3981831D01*
X4108450Y-3979830D01*
X4051440Y-4001278D01*
X4042910Y-4006978D01*
X4030369Y-4028954D01*
X4133858Y-4132444D01*
X4237348Y-4028954D01*
X4237348Y-4031783D01*
X4135272Y-4133858D01*
X4238762Y-4237348D01*
X4260739Y-4224806D01*
X4268460Y-4207771D01*
X4269413Y-4210237D01*
X4271173Y-4212871D01*
X4283948Y-4214637D01*
X4323586Y-4175000D01*
X4323029Y-4174443D01*
X4324443Y-4173029D01*
X4325000Y-4173586D01*
X4325557Y-4173029D01*
X4326971Y-4174443D01*
X4326414Y-4175000D01*
X4326971Y-4175557D01*
X4325557Y-4176971D01*
X4325000Y-4176414D01*
X4285363Y-4216052D01*
X4287129Y-4228827D01*
X4302165Y-4235483D01*
X4288718Y-4235160D01*
X4264763Y-4244413D01*
X4262129Y-4246173D01*
X4260363Y-4258948D01*
X4300000Y-4298586D01*
X4339637Y-4258948D01*
X4337871Y-4246173D01*
X4322835Y-4239517D01*
X4336282Y-4239840D01*
X4360237Y-4230587D01*
X4362871Y-4228827D01*
X4364022Y-4220502D01*
X4365441Y-4222694D01*
X4376448Y-4230283D01*
X4371380Y-4233670D01*
X4358710Y-4252632D01*
X4356055Y-4265976D01*
X4355587Y-4264763D01*
X4353827Y-4262129D01*
X4341052Y-4260363D01*
X4301414Y-4300000D01*
X4341052Y-4339637D01*
X4353827Y-4337871D01*
X4364222Y-4314390D01*
X4364426Y-4305923D01*
X4371380Y-4316330D01*
X4390343Y-4329001D01*
X4412710Y-4333450D01*
X4487290Y-4333450D01*
X4509657Y-4329001D01*
X4528620Y-4316330D01*
X4541290Y-4297368D01*
X4545740Y-4275000D01*
X4541290Y-4252632D01*
X4528620Y-4233670D01*
X4523552Y-4230283D01*
X4534559Y-4222694D01*
X4549072Y-4200271D01*
X4552894Y-4186694D01*
X4552894Y-4352517D01*
X4535898Y-4345459D01*
X4514197Y-4345441D01*
X4494140Y-4353728D01*
X4478782Y-4369060D01*
X4475001Y-4378165D01*
X4471272Y-4369140D01*
X4455940Y-4353782D01*
X4435898Y-4345459D01*
X4414197Y-4345441D01*
X4394140Y-4353728D01*
X4392866Y-4355000D01*
X4336116Y-4355000D01*
X4337871Y-4353827D01*
X4339637Y-4341052D01*
X4300000Y-4301414D01*
X4298586Y-4302828D01*
X4298586Y-4300000D01*
X4258948Y-4260363D01*
X4246173Y-4262129D01*
X4237348Y-4282063D01*
X4237348Y-4238762D01*
X4133858Y-4135272D01*
X4132444Y-4136687D01*
X4132444Y-4133858D01*
X4028954Y-4030369D01*
X4006978Y-4042910D01*
X3981831Y-4098388D01*
X3979830Y-4159266D01*
X4001278Y-4216276D01*
X4006978Y-4224806D01*
X4028954Y-4237348D01*
X4132444Y-4133858D01*
X4132444Y-4136687D01*
X4030369Y-4238762D01*
X4042910Y-4260739D01*
X4098388Y-4285885D01*
X4159266Y-4287887D01*
X4216276Y-4266439D01*
X4224806Y-4260739D01*
X4237348Y-4238762D01*
X4237348Y-4282063D01*
X4235778Y-4285610D01*
X4235160Y-4311282D01*
X4244413Y-4335237D01*
X4246173Y-4337871D01*
X4258948Y-4339637D01*
X4298586Y-4300000D01*
X4298586Y-4302828D01*
X4260363Y-4341052D01*
X4262129Y-4353827D01*
X4266917Y-4355947D01*
X4253782Y-4369060D01*
X4245459Y-4389102D01*
X4245441Y-4410803D01*
X4253728Y-4430860D01*
X4269060Y-4446218D01*
X4289102Y-4454541D01*
X4310803Y-4454559D01*
X4330860Y-4446272D01*
X4332134Y-4445000D01*
X4392843Y-4445000D01*
X4394060Y-4446218D01*
X4414102Y-4454541D01*
X4435803Y-4454559D01*
X4455860Y-4446272D01*
X4471218Y-4430940D01*
X4474999Y-4421835D01*
X4478728Y-4430860D01*
X4494060Y-4446218D01*
X4514102Y-4454541D01*
X4535803Y-4454559D01*
X4537745Y-4453757D01*
X4554494Y-4470506D01*
X4563902Y-4476793D01*
X4575000Y-4479000D01*
X4592356Y-4479000D01*
X4595415Y-4486404D01*
X4604994Y-4496000D01*
X4575000Y-4496000D01*
X4563902Y-4498207D01*
X4554494Y-4504494D01*
X4512988Y-4546000D01*
X4452500Y-4546000D01*
X4452500Y-4542527D01*
X4448694Y-4533339D01*
X4441661Y-4526306D01*
X4432473Y-4522500D01*
X4422527Y-4522500D01*
X4367527Y-4522500D01*
X4358339Y-4526306D01*
X4351306Y-4533339D01*
X4347500Y-4542527D01*
X4347500Y-4552473D01*
X4347500Y-4607473D01*
X4351306Y-4616661D01*
X4358339Y-4623694D01*
X4363023Y-4625634D01*
X4361841Y-4635427D01*
X4400000Y-4673586D01*
X4438159Y-4635427D01*
X4436977Y-4625634D01*
X4441661Y-4623694D01*
X4448694Y-4616661D01*
X4452500Y-4607473D01*
X4452500Y-4604000D01*
X4525000Y-4604000D01*
X4536098Y-4601793D01*
X4545506Y-4595506D01*
X4587012Y-4554000D01*
X4640949Y-4554000D01*
X4637810Y-4561098D01*
X4637224Y-4585955D01*
X4646195Y-4609145D01*
X4647864Y-4611643D01*
X4660427Y-4613159D01*
X4698586Y-4575000D01*
X4698029Y-4574443D01*
X4699443Y-4573029D01*
X4700000Y-4573586D01*
X4700557Y-4573029D01*
X4701971Y-4574443D01*
X4701414Y-4575000D01*
X4701971Y-4575557D01*
X4700557Y-4576971D01*
X4700000Y-4576414D01*
X4661841Y-4614573D01*
X4663357Y-4627136D01*
X4670606Y-4630340D01*
X4670300Y-4630467D01*
X4655519Y-4645222D01*
X4655196Y-4646000D01*
X4625000Y-4646000D01*
X4613902Y-4648207D01*
X4604494Y-4654494D01*
X4462988Y-4796000D01*
X4462776Y-4796000D01*
X4462776Y-4664045D01*
X4453805Y-4640855D01*
X4452136Y-4638357D01*
X4439573Y-4636841D01*
X4401414Y-4675000D01*
X4439573Y-4713159D01*
X4452136Y-4711643D01*
X4462190Y-4688902D01*
X4462776Y-4664045D01*
X4462776Y-4796000D01*
X4448126Y-4796000D01*
X4452491Y-4785489D01*
X4452509Y-4764603D01*
X4444533Y-4745300D01*
X4429778Y-4730519D01*
X4429747Y-4730506D01*
X4434145Y-4728805D01*
X4436643Y-4727136D01*
X4438159Y-4714573D01*
X4400000Y-4676414D01*
X4398586Y-4677828D01*
X4398586Y-4675000D01*
X4360427Y-4636841D01*
X4347864Y-4638357D01*
X4337810Y-4661098D01*
X4337224Y-4685955D01*
X4346195Y-4709145D01*
X4347864Y-4711643D01*
X4360427Y-4713159D01*
X4398586Y-4675000D01*
X4398586Y-4677828D01*
X4361841Y-4714573D01*
X4363357Y-4727136D01*
X4370606Y-4730340D01*
X4370300Y-4730467D01*
X4355519Y-4745222D01*
X4347509Y-4764511D01*
X4347491Y-4785397D01*
X4351872Y-4796000D01*
X4350000Y-4796000D01*
X4338902Y-4798207D01*
X4329494Y-4804494D01*
X4287988Y-4846000D01*
X4261789Y-4846000D01*
X4264668Y-4839497D01*
X4265294Y-4813646D01*
X4255978Y-4789524D01*
X4255010Y-4788073D01*
X4255010Y-4714108D01*
X4246654Y-4693886D01*
X4231196Y-4678400D01*
X4210988Y-4670010D01*
X4189108Y-4669990D01*
X4168886Y-4678346D01*
X4167229Y-4680000D01*
X4150355Y-4680000D01*
X4144161Y-4673806D01*
X4134973Y-4670000D01*
X4125027Y-4670000D01*
X4065027Y-4670000D01*
X4055839Y-4673806D01*
X4048806Y-4680839D01*
X4045000Y-4690027D01*
X4045000Y-4699973D01*
X4045000Y-4759973D01*
X4048806Y-4769161D01*
X4055839Y-4776194D01*
X4060801Y-4778250D01*
X4060038Y-4783624D01*
X4100000Y-4823586D01*
X4139962Y-4783624D01*
X4139199Y-4778250D01*
X4144161Y-4776194D01*
X4150355Y-4770000D01*
X4163059Y-4770000D01*
X4161859Y-4770802D01*
X4160038Y-4783624D01*
X4200000Y-4823586D01*
X4239962Y-4783624D01*
X4238141Y-4770802D01*
X4233865Y-4768908D01*
X4246600Y-4756196D01*
X4254990Y-4735988D01*
X4255010Y-4714108D01*
X4255010Y-4788073D01*
X4254198Y-4786859D01*
X4241376Y-4785038D01*
X4201414Y-4825000D01*
X4201971Y-4825557D01*
X4200557Y-4826971D01*
X4200000Y-4826414D01*
X4199443Y-4826971D01*
X4198029Y-4825557D01*
X4198586Y-4825000D01*
X4158624Y-4785038D01*
X4150000Y-4786263D01*
X4141376Y-4785038D01*
X4101414Y-4825000D01*
X4101971Y-4825557D01*
X4100557Y-4826971D01*
X4100000Y-4826414D01*
X4098586Y-4827828D01*
X4098586Y-4825000D01*
X4058624Y-4785038D01*
X4045802Y-4786859D01*
X4035332Y-4810503D01*
X4034706Y-4836354D01*
X4044022Y-4860476D01*
X4045802Y-4863141D01*
X4058624Y-4864962D01*
X4098586Y-4825000D01*
X4098586Y-4827828D01*
X4060038Y-4866376D01*
X4061859Y-4879198D01*
X4066135Y-4881092D01*
X4053400Y-4893804D01*
X4045010Y-4914012D01*
X4044990Y-4935892D01*
X4053346Y-4956114D01*
X4068804Y-4971600D01*
X4076989Y-4974998D01*
X4068886Y-4978346D01*
X4053400Y-4993804D01*
X4045010Y-5014012D01*
X4044990Y-5035892D01*
X4053346Y-5056114D01*
X4068804Y-5071600D01*
X4076989Y-5074998D01*
X4068886Y-5078346D01*
X4053400Y-5093804D01*
X4045010Y-5114012D01*
X4045008Y-5116353D01*
X3993180Y-5168180D01*
X3983425Y-5182779D01*
X3980000Y-5200000D01*
X3980000Y-5525000D01*
X3983425Y-5542221D01*
X3993180Y-5556820D01*
X4018180Y-5581820D01*
X4032779Y-5591575D01*
X4036858Y-5592386D01*
X4030369Y-5603758D01*
X4133858Y-5707247D01*
X4134415Y-5706690D01*
X4135829Y-5708105D01*
X4135272Y-5708661D01*
X4238762Y-5812151D01*
X4260739Y-5799610D01*
X4268608Y-5782248D01*
X4356360Y-5870000D01*
X4237348Y-5870000D01*
X4237348Y-5813565D01*
X4133858Y-5710076D01*
X4132444Y-5711490D01*
X4132444Y-5708661D01*
X4028954Y-5605172D01*
X4006978Y-5617713D01*
X3981831Y-5673191D01*
X3979830Y-5734070D01*
X4001278Y-5791080D01*
X4006978Y-5799610D01*
X4028954Y-5812151D01*
X4132444Y-5708661D01*
X4132444Y-5711490D01*
X4030369Y-5813565D01*
X4042910Y-5835542D01*
X4098388Y-5860688D01*
X4159266Y-5862690D01*
X4216276Y-5841242D01*
X4224806Y-5835542D01*
X4237348Y-5813565D01*
X4237348Y-5870000D01*
X3963976Y-5870000D01*
X3963976Y-3963976D01*
X4581526Y-3963976D01*
X4580328Y-3965174D01*
X4575000Y-3978038D01*
X4575000Y-3991962D01*
X4575000Y-4165250D01*
X4583750Y-4174000D01*
X4919000Y-4174000D01*
X4919000Y-4173213D01*
X4921000Y-4173213D01*
X4921000Y-4174000D01*
X5256250Y-4174000D01*
X5265000Y-4165250D01*
X5265000Y-4082497D01*
X5271174Y-4088672D01*
X5284038Y-4094000D01*
X5315250Y-4094000D01*
X5324000Y-4085250D01*
X5324000Y-4026000D01*
X5323213Y-4026000D01*
X5323213Y-4024000D01*
X5324000Y-4024000D01*
X5324000Y-4023213D01*
X5326000Y-4023213D01*
X5326000Y-4024000D01*
X5326787Y-4024000D01*
X5326787Y-4026000D01*
X5326000Y-4026000D01*
X5326000Y-4085250D01*
X5334750Y-4094000D01*
X5365962Y-4094000D01*
X5378826Y-4088672D01*
X5388672Y-4078826D01*
X5390635Y-4074086D01*
X5391536Y-4074989D01*
X5413213Y-4083990D01*
X5436684Y-4084010D01*
X5458377Y-4075047D01*
X5474989Y-4058464D01*
X5475004Y-4058428D01*
X5491536Y-4074989D01*
X5513213Y-4083990D01*
X5524988Y-4084000D01*
G36*
X5638988Y-5630000D02*
X5625000Y-5630000D01*
X5607779Y-5633425D01*
X5593180Y-5643180D01*
X5581360Y-5655000D01*
X5467496Y-5655000D01*
X5467507Y-5641583D01*
X5461051Y-5625957D01*
X5449106Y-5613991D01*
X5433491Y-5607507D01*
X5423511Y-5607499D01*
X5395506Y-5579494D01*
X5386098Y-5573207D01*
X5375000Y-5571000D01*
X5325000Y-5571000D01*
X5313902Y-5573207D01*
X5304494Y-5579494D01*
X5278988Y-5605000D01*
X5262776Y-5605000D01*
X5262776Y-5464045D01*
X5253805Y-5440855D01*
X5252136Y-5438357D01*
X5239573Y-5436841D01*
X5238159Y-5438255D01*
X5238159Y-5435427D01*
X5236643Y-5422864D01*
X5213902Y-5412810D01*
X5189045Y-5412224D01*
X5165855Y-5421195D01*
X5163357Y-5422864D01*
X5161841Y-5435427D01*
X5200000Y-5473586D01*
X5238159Y-5435427D01*
X5238159Y-5438255D01*
X5201414Y-5475000D01*
X5239573Y-5513159D01*
X5252136Y-5511643D01*
X5262190Y-5488902D01*
X5262776Y-5464045D01*
X5262776Y-5605000D01*
X5232312Y-5605000D01*
X5239222Y-5589390D01*
X5239840Y-5563718D01*
X5230587Y-5539763D01*
X5228827Y-5537129D01*
X5216893Y-5535479D01*
X5234145Y-5528805D01*
X5236643Y-5527136D01*
X5238159Y-5514573D01*
X5200000Y-5476414D01*
X5199443Y-5476971D01*
X5198029Y-5475557D01*
X5198586Y-5475000D01*
X5160427Y-5436841D01*
X5147864Y-5438357D01*
X5144660Y-5445606D01*
X5144533Y-5445300D01*
X5129778Y-5430519D01*
X5110489Y-5422509D01*
X5093518Y-5422494D01*
X5137012Y-5379000D01*
X5401874Y-5379000D01*
X5397509Y-5389511D01*
X5397491Y-5410397D01*
X5405467Y-5429700D01*
X5420222Y-5444481D01*
X5433521Y-5450004D01*
X5420300Y-5455467D01*
X5405519Y-5470222D01*
X5397509Y-5489511D01*
X5397491Y-5510397D01*
X5405467Y-5529700D01*
X5420222Y-5544481D01*
X5439511Y-5552491D01*
X5460397Y-5552509D01*
X5479700Y-5544533D01*
X5494481Y-5529778D01*
X5502491Y-5510489D01*
X5502506Y-5493518D01*
X5638988Y-5630000D01*
X5638988Y-5630000D01*
G37*
X5638988Y-5630000D02*
X5625000Y-5630000D01*
X5607779Y-5633425D01*
X5593180Y-5643180D01*
X5581360Y-5655000D01*
X5467496Y-5655000D01*
X5467507Y-5641583D01*
X5461051Y-5625957D01*
X5449106Y-5613991D01*
X5433491Y-5607507D01*
X5423511Y-5607499D01*
X5395506Y-5579494D01*
X5386098Y-5573207D01*
X5375000Y-5571000D01*
X5325000Y-5571000D01*
X5313902Y-5573207D01*
X5304494Y-5579494D01*
X5278988Y-5605000D01*
X5262776Y-5605000D01*
X5262776Y-5464045D01*
X5253805Y-5440855D01*
X5252136Y-5438357D01*
X5239573Y-5436841D01*
X5238159Y-5438255D01*
X5238159Y-5435427D01*
X5236643Y-5422864D01*
X5213902Y-5412810D01*
X5189045Y-5412224D01*
X5165855Y-5421195D01*
X5163357Y-5422864D01*
X5161841Y-5435427D01*
X5200000Y-5473586D01*
X5238159Y-5435427D01*
X5238159Y-5438255D01*
X5201414Y-5475000D01*
X5239573Y-5513159D01*
X5252136Y-5511643D01*
X5262190Y-5488902D01*
X5262776Y-5464045D01*
X5262776Y-5605000D01*
X5232312Y-5605000D01*
X5239222Y-5589390D01*
X5239840Y-5563718D01*
X5230587Y-5539763D01*
X5228827Y-5537129D01*
X5216893Y-5535479D01*
X5234145Y-5528805D01*
X5236643Y-5527136D01*
X5238159Y-5514573D01*
X5200000Y-5476414D01*
X5199443Y-5476971D01*
X5198029Y-5475557D01*
X5198586Y-5475000D01*
X5160427Y-5436841D01*
X5147864Y-5438357D01*
X5144660Y-5445606D01*
X5144533Y-5445300D01*
X5129778Y-5430519D01*
X5110489Y-5422509D01*
X5093518Y-5422494D01*
X5137012Y-5379000D01*
X5401874Y-5379000D01*
X5397509Y-5389511D01*
X5397491Y-5410397D01*
X5405467Y-5429700D01*
X5420222Y-5444481D01*
X5433521Y-5450004D01*
X5420300Y-5455467D01*
X5405519Y-5470222D01*
X5397509Y-5489511D01*
X5397491Y-5510397D01*
X5405467Y-5529700D01*
X5420222Y-5544481D01*
X5439511Y-5552491D01*
X5460397Y-5552509D01*
X5479700Y-5544533D01*
X5494481Y-5529778D01*
X5502491Y-5510489D01*
X5502506Y-5493518D01*
X5638988Y-5630000D01*
G36*
X6124167Y-5771000D02*
X6062012Y-5771000D01*
X5995506Y-5704494D01*
X5986098Y-5698207D01*
X5975000Y-5696000D01*
X5964718Y-5696000D01*
X5967320Y-5690134D01*
X5967987Y-5686781D01*
X5960242Y-5676000D01*
X5901000Y-5676000D01*
X5901000Y-5676787D01*
X5899000Y-5676787D01*
X5899000Y-5676000D01*
X5898213Y-5676000D01*
X5898213Y-5674000D01*
X5899000Y-5674000D01*
X5899000Y-5673213D01*
X5901000Y-5673213D01*
X5901000Y-5674000D01*
X5960242Y-5674000D01*
X5967987Y-5663219D01*
X5967320Y-5659866D01*
X5966097Y-5657109D01*
X6029494Y-5720506D01*
X6038902Y-5726793D01*
X6038902Y-5726793D01*
X6050000Y-5729000D01*
X6124167Y-5729000D01*
X6120010Y-5739012D01*
X6119990Y-5760892D01*
X6124167Y-5771000D01*
X6124167Y-5771000D01*
G37*
X6124167Y-5771000D02*
X6062012Y-5771000D01*
X5995506Y-5704494D01*
X5986098Y-5698207D01*
X5975000Y-5696000D01*
X5964718Y-5696000D01*
X5967320Y-5690134D01*
X5967987Y-5686781D01*
X5960242Y-5676000D01*
X5901000Y-5676000D01*
X5901000Y-5676787D01*
X5899000Y-5676787D01*
X5899000Y-5676000D01*
X5898213Y-5676000D01*
X5898213Y-5674000D01*
X5899000Y-5674000D01*
X5899000Y-5673213D01*
X5901000Y-5673213D01*
X5901000Y-5674000D01*
X5960242Y-5674000D01*
X5967987Y-5663219D01*
X5967320Y-5659866D01*
X5966097Y-5657109D01*
X6029494Y-5720506D01*
X6038902Y-5726793D01*
X6038902Y-5726793D01*
X6050000Y-5729000D01*
X6124167Y-5729000D01*
X6120010Y-5739012D01*
X6119990Y-5760892D01*
X6124167Y-5771000D01*
G36*
X6276971Y-5750557D02*
X6275557Y-5751971D01*
X6275000Y-5751414D01*
X6274443Y-5751971D01*
X6273029Y-5750557D01*
X6273586Y-5750000D01*
X6273029Y-5749443D01*
X6274443Y-5748029D01*
X6275000Y-5748586D01*
X6275557Y-5748029D01*
X6276971Y-5749443D01*
X6276414Y-5750000D01*
X6276971Y-5750557D01*
X6276971Y-5750557D01*
G37*
X6276971Y-5750557D02*
X6275557Y-5751971D01*
X6275000Y-5751414D01*
X6274443Y-5751971D01*
X6273029Y-5750557D01*
X6273586Y-5750000D01*
X6273029Y-5749443D01*
X6274443Y-5748029D01*
X6275000Y-5748586D01*
X6275557Y-5748029D01*
X6276971Y-5749443D01*
X6276414Y-5750000D01*
X6276971Y-5750557D01*
G36*
X6420011Y-3963976D02*
X6350794Y-4033194D01*
X6343600Y-4026000D01*
X6279000Y-4026000D01*
X6279000Y-4026787D01*
X6277000Y-4026787D01*
X6277000Y-4026000D01*
X6212400Y-4026000D01*
X6203650Y-4034750D01*
X6203650Y-4057388D01*
X6203650Y-4071000D01*
X6067004Y-4071000D01*
X6076521Y-4061499D01*
X6076603Y-4061303D01*
X6091509Y-4067493D01*
X6108417Y-4067507D01*
X6124043Y-4061051D01*
X6136009Y-4049106D01*
X6142493Y-4033491D01*
X6142507Y-4016583D01*
X6136051Y-4000957D01*
X6124106Y-3988991D01*
X6108491Y-3982507D01*
X6098511Y-3982499D01*
X6079989Y-3963976D01*
X6210826Y-3963976D01*
X6208978Y-3965824D01*
X6203650Y-3978688D01*
X6203650Y-3992612D01*
X6203650Y-4015250D01*
X6212400Y-4024000D01*
X6277000Y-4024000D01*
X6277000Y-4023213D01*
X6279000Y-4023213D01*
X6279000Y-4024000D01*
X6343600Y-4024000D01*
X6352350Y-4015250D01*
X6352350Y-3992612D01*
X6352350Y-3978688D01*
X6347022Y-3965824D01*
X6345174Y-3963976D01*
X6420011Y-3963976D01*
X6420011Y-3963976D01*
G37*
X6420011Y-3963976D02*
X6350794Y-4033194D01*
X6343600Y-4026000D01*
X6279000Y-4026000D01*
X6279000Y-4026787D01*
X6277000Y-4026787D01*
X6277000Y-4026000D01*
X6212400Y-4026000D01*
X6203650Y-4034750D01*
X6203650Y-4057388D01*
X6203650Y-4071000D01*
X6067004Y-4071000D01*
X6076521Y-4061499D01*
X6076603Y-4061303D01*
X6091509Y-4067493D01*
X6108417Y-4067507D01*
X6124043Y-4061051D01*
X6136009Y-4049106D01*
X6142493Y-4033491D01*
X6142507Y-4016583D01*
X6136051Y-4000957D01*
X6124106Y-3988991D01*
X6108491Y-3982507D01*
X6098511Y-3982499D01*
X6079989Y-3963976D01*
X6210826Y-3963976D01*
X6208978Y-3965824D01*
X6203650Y-3978688D01*
X6203650Y-3992612D01*
X6203650Y-4015250D01*
X6212400Y-4024000D01*
X6277000Y-4024000D01*
X6277000Y-4023213D01*
X6279000Y-4023213D01*
X6279000Y-4024000D01*
X6343600Y-4024000D01*
X6352350Y-4015250D01*
X6352350Y-3992612D01*
X6352350Y-3978688D01*
X6347022Y-3965824D01*
X6345174Y-3963976D01*
X6420011Y-3963976D01*
G36*
X6551971Y-5650557D02*
X6550557Y-5651971D01*
X6550000Y-5651414D01*
X6549443Y-5651971D01*
X6548029Y-5650557D01*
X6548586Y-5650000D01*
X6548029Y-5649443D01*
X6549443Y-5648029D01*
X6550000Y-5648586D01*
X6550557Y-5648029D01*
X6551971Y-5649443D01*
X6551414Y-5650000D01*
X6551971Y-5650557D01*
X6551971Y-5650557D01*
G37*
X6551971Y-5650557D02*
X6550557Y-5651971D01*
X6550000Y-5651414D01*
X6549443Y-5651971D01*
X6548029Y-5650557D01*
X6548586Y-5650000D01*
X6548029Y-5649443D01*
X6549443Y-5648029D01*
X6550000Y-5648586D01*
X6550557Y-5648029D01*
X6551971Y-5649443D01*
X6551414Y-5650000D01*
X6551971Y-5650557D01*
G36*
X6582360Y-4029000D02*
X6493180Y-4118180D01*
X6483425Y-4132779D01*
X6480000Y-4150000D01*
X6480000Y-4193945D01*
X6478805Y-4190855D01*
X6477136Y-4188357D01*
X6464573Y-4186841D01*
X6426414Y-4225000D01*
X6464573Y-4263159D01*
X6477136Y-4261643D01*
X6480000Y-4255164D01*
X6480000Y-4393945D01*
X6478805Y-4390855D01*
X6477136Y-4388357D01*
X6464573Y-4386841D01*
X6426414Y-4425000D01*
X6464573Y-4463159D01*
X6477136Y-4461643D01*
X6480000Y-4455164D01*
X6480000Y-4668945D01*
X6478805Y-4665855D01*
X6477500Y-4663903D01*
X6477500Y-4632473D01*
X6477500Y-4622527D01*
X6477500Y-4567527D01*
X6473694Y-4558339D01*
X6466661Y-4551306D01*
X6463159Y-4549855D01*
X6463159Y-4464573D01*
X6425000Y-4426414D01*
X6423586Y-4427828D01*
X6423586Y-4425000D01*
X6385427Y-4386841D01*
X6372864Y-4388357D01*
X6362810Y-4411098D01*
X6362224Y-4435955D01*
X6371195Y-4459145D01*
X6372864Y-4461643D01*
X6385427Y-4463159D01*
X6423586Y-4425000D01*
X6423586Y-4427828D01*
X6386841Y-4464573D01*
X6388357Y-4477136D01*
X6411098Y-4487190D01*
X6435955Y-4487776D01*
X6459145Y-4478805D01*
X6461643Y-4477136D01*
X6463159Y-4464573D01*
X6463159Y-4549855D01*
X6457473Y-4547500D01*
X6447527Y-4547500D01*
X6392527Y-4547500D01*
X6383339Y-4551306D01*
X6376306Y-4558339D01*
X6372500Y-4567527D01*
X6372500Y-4577473D01*
X6372500Y-4632473D01*
X6376306Y-4641661D01*
X6383339Y-4648694D01*
X6388023Y-4650634D01*
X6386841Y-4660427D01*
X6425000Y-4698586D01*
X6463159Y-4660427D01*
X6461977Y-4650634D01*
X6466661Y-4648694D01*
X6473694Y-4641661D01*
X6477500Y-4632473D01*
X6477500Y-4663903D01*
X6477136Y-4663357D01*
X6464573Y-4661841D01*
X6426414Y-4700000D01*
X6464573Y-4738159D01*
X6477136Y-4736643D01*
X6480000Y-4730164D01*
X6480000Y-4868945D01*
X6478805Y-4865855D01*
X6477509Y-4863916D01*
X6477509Y-4789603D01*
X6469533Y-4770300D01*
X6454778Y-4755519D01*
X6454747Y-4755506D01*
X6459145Y-4753805D01*
X6461643Y-4752136D01*
X6463159Y-4739573D01*
X6425000Y-4701414D01*
X6423586Y-4702828D01*
X6423586Y-4700000D01*
X6385427Y-4661841D01*
X6372864Y-4663357D01*
X6362810Y-4686098D01*
X6362224Y-4710955D01*
X6371195Y-4734145D01*
X6372864Y-4736643D01*
X6385427Y-4738159D01*
X6423586Y-4700000D01*
X6423586Y-4702828D01*
X6386841Y-4739573D01*
X6388357Y-4752136D01*
X6395606Y-4755340D01*
X6395300Y-4755467D01*
X6380519Y-4770222D01*
X6372509Y-4789511D01*
X6372491Y-4810397D01*
X6380467Y-4829700D01*
X6395222Y-4844481D01*
X6395253Y-4844494D01*
X6390855Y-4846195D01*
X6388357Y-4847864D01*
X6386841Y-4860427D01*
X6425000Y-4898586D01*
X6463159Y-4860427D01*
X6461643Y-4847864D01*
X6454394Y-4844660D01*
X6454700Y-4844533D01*
X6469481Y-4829778D01*
X6477491Y-4810489D01*
X6477509Y-4789603D01*
X6477509Y-4863916D01*
X6477136Y-4863357D01*
X6464573Y-4861841D01*
X6426414Y-4900000D01*
X6464573Y-4938159D01*
X6477136Y-4936643D01*
X6480000Y-4930164D01*
X6480000Y-5143945D01*
X6478805Y-5140855D01*
X6477500Y-5138903D01*
X6477500Y-5107473D01*
X6477500Y-5097527D01*
X6477500Y-5042527D01*
X6473694Y-5033339D01*
X6466661Y-5026306D01*
X6463159Y-5024855D01*
X6463159Y-4939573D01*
X6425000Y-4901414D01*
X6423586Y-4902828D01*
X6423586Y-4900000D01*
X6385427Y-4861841D01*
X6372864Y-4863357D01*
X6362810Y-4886098D01*
X6362224Y-4910955D01*
X6371195Y-4934145D01*
X6372864Y-4936643D01*
X6385427Y-4938159D01*
X6423586Y-4900000D01*
X6423586Y-4902828D01*
X6386841Y-4939573D01*
X6388357Y-4952136D01*
X6411098Y-4962190D01*
X6435955Y-4962776D01*
X6459145Y-4953805D01*
X6461643Y-4952136D01*
X6463159Y-4939573D01*
X6463159Y-5024855D01*
X6457473Y-5022500D01*
X6447527Y-5022500D01*
X6392527Y-5022500D01*
X6383339Y-5026306D01*
X6376306Y-5033339D01*
X6372500Y-5042527D01*
X6372500Y-5052473D01*
X6372500Y-5107473D01*
X6376306Y-5116661D01*
X6383339Y-5123694D01*
X6388023Y-5125634D01*
X6386841Y-5135427D01*
X6425000Y-5173586D01*
X6463159Y-5135427D01*
X6461977Y-5125634D01*
X6466661Y-5123694D01*
X6473694Y-5116661D01*
X6477500Y-5107473D01*
X6477500Y-5138903D01*
X6477136Y-5138357D01*
X6464573Y-5136841D01*
X6426414Y-5175000D01*
X6464573Y-5213159D01*
X6477136Y-5211643D01*
X6480000Y-5205164D01*
X6480000Y-5343945D01*
X6478805Y-5340855D01*
X6477509Y-5338916D01*
X6477509Y-5264603D01*
X6469533Y-5245300D01*
X6454778Y-5230519D01*
X6454747Y-5230506D01*
X6459145Y-5228805D01*
X6461643Y-5227136D01*
X6463159Y-5214573D01*
X6425000Y-5176414D01*
X6423586Y-5177828D01*
X6423586Y-5175000D01*
X6385427Y-5136841D01*
X6372864Y-5138357D01*
X6362810Y-5161098D01*
X6362224Y-5185955D01*
X6371195Y-5209145D01*
X6372864Y-5211643D01*
X6385427Y-5213159D01*
X6423586Y-5175000D01*
X6423586Y-5177828D01*
X6386841Y-5214573D01*
X6388357Y-5227136D01*
X6395606Y-5230340D01*
X6395300Y-5230467D01*
X6380519Y-5245222D01*
X6372509Y-5264511D01*
X6372491Y-5285397D01*
X6380467Y-5304700D01*
X6395222Y-5319481D01*
X6395253Y-5319494D01*
X6390855Y-5321195D01*
X6388357Y-5322864D01*
X6386841Y-5335427D01*
X6425000Y-5373586D01*
X6463159Y-5335427D01*
X6461643Y-5322864D01*
X6454394Y-5319660D01*
X6454700Y-5319533D01*
X6469481Y-5304778D01*
X6477491Y-5285489D01*
X6477509Y-5264603D01*
X6477509Y-5338916D01*
X6477136Y-5338357D01*
X6464573Y-5336841D01*
X6426414Y-5375000D01*
X6464573Y-5413159D01*
X6477136Y-5411643D01*
X6480000Y-5405164D01*
X6480000Y-5530000D01*
X6463159Y-5530000D01*
X6463159Y-5414573D01*
X6425000Y-5376414D01*
X6423586Y-5377828D01*
X6423586Y-5375000D01*
X6385427Y-5336841D01*
X6372864Y-5338357D01*
X6362810Y-5361098D01*
X6362224Y-5385955D01*
X6371195Y-5409145D01*
X6372864Y-5411643D01*
X6385427Y-5413159D01*
X6423586Y-5375000D01*
X6423586Y-5377828D01*
X6386841Y-5414573D01*
X6388357Y-5427136D01*
X6411098Y-5437190D01*
X6435955Y-5437776D01*
X6459145Y-5428805D01*
X6461643Y-5427136D01*
X6463159Y-5414573D01*
X6463159Y-5530000D01*
X6425000Y-5530000D01*
X6407779Y-5533425D01*
X6393180Y-5543180D01*
X6356360Y-5580000D01*
X6332220Y-5580000D01*
X6339339Y-5562856D01*
X6339361Y-5537256D01*
X6329585Y-5513596D01*
X6311499Y-5495479D01*
X6287856Y-5485661D01*
X6262256Y-5485639D01*
X6238596Y-5495415D01*
X6220479Y-5513501D01*
X6210661Y-5537144D01*
X6210639Y-5562744D01*
X6217769Y-5580000D01*
X6168640Y-5580000D01*
X6106820Y-5518180D01*
X6092221Y-5508425D01*
X6075000Y-5505000D01*
X5921004Y-5505000D01*
X5911499Y-5495479D01*
X5887856Y-5485661D01*
X5862256Y-5485639D01*
X5838596Y-5495415D01*
X5820479Y-5513501D01*
X5810661Y-5537144D01*
X5810639Y-5562744D01*
X5820415Y-5586404D01*
X5829994Y-5596000D01*
X5687012Y-5596000D01*
X5502200Y-5411188D01*
X5502491Y-5410489D01*
X5502509Y-5389603D01*
X5498128Y-5379000D01*
X5500000Y-5379000D01*
X5511098Y-5376793D01*
X5520506Y-5370506D01*
X5548513Y-5342499D01*
X5558417Y-5342507D01*
X5574043Y-5336051D01*
X5584550Y-5325562D01*
X5629494Y-5370506D01*
X5638902Y-5376793D01*
X5650000Y-5379000D01*
X5701874Y-5379000D01*
X5697509Y-5389511D01*
X5697491Y-5410397D01*
X5705467Y-5429700D01*
X5720222Y-5444481D01*
X5733521Y-5450004D01*
X5720300Y-5455467D01*
X5705519Y-5470222D01*
X5697509Y-5489511D01*
X5697491Y-5510397D01*
X5705467Y-5529700D01*
X5720222Y-5544481D01*
X5739511Y-5552491D01*
X5760397Y-5552509D01*
X5779700Y-5544533D01*
X5794481Y-5529778D01*
X5802491Y-5510489D01*
X5802509Y-5489603D01*
X5794533Y-5470300D01*
X5779778Y-5455519D01*
X5766478Y-5449996D01*
X5779700Y-5444533D01*
X5794481Y-5429778D01*
X5802491Y-5410489D01*
X5802509Y-5389603D01*
X5798128Y-5379000D01*
X5814043Y-5379000D01*
X5810661Y-5387144D01*
X5810639Y-5412744D01*
X5820415Y-5436404D01*
X5838501Y-5454521D01*
X5862144Y-5464339D01*
X5887744Y-5464361D01*
X5911404Y-5454585D01*
X5929521Y-5436499D01*
X5939339Y-5412856D01*
X5939361Y-5387256D01*
X5929585Y-5363596D01*
X5920006Y-5354000D01*
X6187988Y-5354000D01*
X6213733Y-5379745D01*
X6210661Y-5387144D01*
X6210639Y-5412744D01*
X6220415Y-5436404D01*
X6238501Y-5454521D01*
X6262144Y-5464339D01*
X6287744Y-5464361D01*
X6311404Y-5454585D01*
X6329521Y-5436499D01*
X6339339Y-5412856D01*
X6339361Y-5387256D01*
X6339361Y-5237256D01*
X6339361Y-5087256D01*
X6329585Y-5063596D01*
X6311499Y-5045479D01*
X6287856Y-5035661D01*
X6262256Y-5035639D01*
X6238596Y-5045415D01*
X6220479Y-5063501D01*
X6210661Y-5087144D01*
X6210639Y-5112744D01*
X6220415Y-5136404D01*
X6238501Y-5154521D01*
X6262144Y-5164339D01*
X6287744Y-5164361D01*
X6311404Y-5154585D01*
X6329521Y-5136499D01*
X6339339Y-5112856D01*
X6339361Y-5087256D01*
X6339361Y-5237256D01*
X6329585Y-5213596D01*
X6311499Y-5195479D01*
X6287856Y-5185661D01*
X6262256Y-5185639D01*
X6238596Y-5195415D01*
X6220479Y-5213501D01*
X6210661Y-5237144D01*
X6210639Y-5262744D01*
X6220415Y-5286404D01*
X6238501Y-5304521D01*
X6262144Y-5314339D01*
X6287744Y-5314361D01*
X6311404Y-5304585D01*
X6329521Y-5286499D01*
X6339339Y-5262856D01*
X6339361Y-5237256D01*
X6339361Y-5387256D01*
X6329585Y-5363596D01*
X6311499Y-5345479D01*
X6287856Y-5335661D01*
X6262256Y-5335639D01*
X6254752Y-5338740D01*
X6220506Y-5304494D01*
X6211098Y-5298207D01*
X6200000Y-5296000D01*
X5926399Y-5296000D01*
X5936911Y-5293745D01*
X5948939Y-5266723D01*
X5949710Y-5237155D01*
X5939108Y-5209542D01*
X5936911Y-5206255D01*
X5923118Y-5203296D01*
X5921704Y-5204710D01*
X5921704Y-5201882D01*
X5918745Y-5188089D01*
X5891723Y-5176061D01*
X5862155Y-5175290D01*
X5834542Y-5185892D01*
X5831255Y-5188089D01*
X5828296Y-5201882D01*
X5875000Y-5248586D01*
X5921704Y-5201882D01*
X5921704Y-5204710D01*
X5876414Y-5250000D01*
X5876971Y-5250557D01*
X5875557Y-5251971D01*
X5875000Y-5251414D01*
X5873586Y-5252828D01*
X5873586Y-5250000D01*
X5826882Y-5203296D01*
X5813089Y-5206255D01*
X5801061Y-5233277D01*
X5800290Y-5262845D01*
X5810892Y-5290458D01*
X5813089Y-5293745D01*
X5826882Y-5296704D01*
X5873586Y-5250000D01*
X5873586Y-5252828D01*
X5828296Y-5298118D01*
X5829643Y-5304395D01*
X5829494Y-5304494D01*
X5812988Y-5321000D01*
X5798126Y-5321000D01*
X5802491Y-5310489D01*
X5802509Y-5289603D01*
X5794533Y-5270300D01*
X5779778Y-5255519D01*
X5766478Y-5249996D01*
X5779700Y-5244533D01*
X5794481Y-5229778D01*
X5802491Y-5210489D01*
X5802509Y-5189603D01*
X5798128Y-5179000D01*
X5825000Y-5179000D01*
X5836098Y-5176793D01*
X5845506Y-5170506D01*
X5854745Y-5161267D01*
X5862144Y-5164339D01*
X5887744Y-5164361D01*
X5911404Y-5154585D01*
X5929521Y-5136499D01*
X5939339Y-5112856D01*
X5939361Y-5087256D01*
X5929585Y-5063596D01*
X5920006Y-5054000D01*
X5968898Y-5054000D01*
X5975894Y-5061009D01*
X5991509Y-5067493D01*
X6008417Y-5067507D01*
X6024043Y-5061051D01*
X6036009Y-5049106D01*
X6042493Y-5033491D01*
X6042507Y-5016583D01*
X6036051Y-5000957D01*
X6024106Y-4988991D01*
X6008491Y-4982507D01*
X5991583Y-4982493D01*
X5975957Y-4988949D01*
X5968894Y-4996000D01*
X5939840Y-4996000D01*
X5939840Y-4838718D01*
X5930587Y-4814763D01*
X5928827Y-4812129D01*
X5916052Y-4810363D01*
X5914637Y-4811777D01*
X5914637Y-4808948D01*
X5912871Y-4796173D01*
X5889390Y-4785778D01*
X5863718Y-4785160D01*
X5839763Y-4794413D01*
X5837129Y-4796173D01*
X5835363Y-4808948D01*
X5875000Y-4848586D01*
X5914637Y-4808948D01*
X5914637Y-4811777D01*
X5876414Y-4850000D01*
X5916052Y-4889637D01*
X5928827Y-4887871D01*
X5939222Y-4864390D01*
X5939840Y-4838718D01*
X5939840Y-4996000D01*
X5906132Y-4996000D01*
X5921218Y-4980940D01*
X5929541Y-4960898D01*
X5929559Y-4939197D01*
X5921272Y-4919140D01*
X5908437Y-4906282D01*
X5910237Y-4905587D01*
X5912871Y-4903827D01*
X5914637Y-4891052D01*
X5875000Y-4851414D01*
X5873586Y-4852828D01*
X5873586Y-4850000D01*
X5833948Y-4810363D01*
X5821173Y-4812129D01*
X5810778Y-4835610D01*
X5810160Y-4861282D01*
X5819413Y-4885237D01*
X5821173Y-4887871D01*
X5833948Y-4889637D01*
X5873586Y-4850000D01*
X5873586Y-4852828D01*
X5835363Y-4891052D01*
X5837129Y-4903827D01*
X5839779Y-4905000D01*
X5825000Y-4905000D01*
X5807779Y-4908425D01*
X5801646Y-4912524D01*
X5802491Y-4910489D01*
X5802509Y-4889603D01*
X5794533Y-4870300D01*
X5779778Y-4855519D01*
X5779747Y-4855506D01*
X5784145Y-4853805D01*
X5786643Y-4852136D01*
X5788159Y-4839573D01*
X5750000Y-4801414D01*
X5711841Y-4839573D01*
X5713357Y-4852136D01*
X5720606Y-4855340D01*
X5720300Y-4855467D01*
X5705519Y-4870222D01*
X5697509Y-4889511D01*
X5697491Y-4910397D01*
X5705467Y-4929700D01*
X5720222Y-4944481D01*
X5733521Y-4950004D01*
X5721429Y-4955000D01*
X5525000Y-4955000D01*
X5512776Y-4957432D01*
X5512776Y-4889045D01*
X5503805Y-4865855D01*
X5502136Y-4863357D01*
X5489573Y-4861841D01*
X5451414Y-4900000D01*
X5489573Y-4938159D01*
X5502136Y-4936643D01*
X5512190Y-4913902D01*
X5512776Y-4889045D01*
X5512776Y-4957432D01*
X5507779Y-4958425D01*
X5493180Y-4968180D01*
X5492874Y-4968638D01*
X5479778Y-4955519D01*
X5479747Y-4955506D01*
X5484145Y-4953805D01*
X5486643Y-4952136D01*
X5488159Y-4939573D01*
X5450000Y-4901414D01*
X5448586Y-4902828D01*
X5448586Y-4900000D01*
X5410427Y-4861841D01*
X5404141Y-4862599D01*
X5403827Y-4862129D01*
X5391052Y-4860363D01*
X5351414Y-4900000D01*
X5391052Y-4939637D01*
X5403827Y-4937871D01*
X5404041Y-4937388D01*
X5410427Y-4938159D01*
X5448586Y-4900000D01*
X5448586Y-4902828D01*
X5411841Y-4939573D01*
X5413357Y-4952136D01*
X5420606Y-4955340D01*
X5420300Y-4955467D01*
X5405519Y-4970222D01*
X5405196Y-4971000D01*
X5389637Y-4971000D01*
X5389637Y-4941052D01*
X5350000Y-4901414D01*
X5348586Y-4902828D01*
X5348586Y-4900000D01*
X5308948Y-4860363D01*
X5296173Y-4862129D01*
X5285778Y-4885610D01*
X5285160Y-4911282D01*
X5294413Y-4935237D01*
X5296173Y-4937871D01*
X5308948Y-4939637D01*
X5348586Y-4900000D01*
X5348586Y-4902828D01*
X5310363Y-4941052D01*
X5312129Y-4953827D01*
X5335610Y-4964222D01*
X5361282Y-4964840D01*
X5385237Y-4955587D01*
X5387871Y-4953827D01*
X5389637Y-4941052D01*
X5389637Y-4971000D01*
X5375000Y-4971000D01*
X5366346Y-4972721D01*
X5360898Y-4970459D01*
X5339197Y-4970441D01*
X5319140Y-4978728D01*
X5303782Y-4994060D01*
X5302976Y-4996000D01*
X5239637Y-4996000D01*
X5239637Y-4866052D01*
X5200000Y-4826414D01*
X5160363Y-4866052D01*
X5162129Y-4878827D01*
X5185610Y-4889222D01*
X5211282Y-4889840D01*
X5235237Y-4880587D01*
X5237871Y-4878827D01*
X5239637Y-4866052D01*
X5239637Y-4996000D01*
X5200654Y-4996000D01*
X5200659Y-4989197D01*
X5192372Y-4969140D01*
X5177040Y-4953782D01*
X5156998Y-4945459D01*
X5135297Y-4945441D01*
X5115240Y-4953728D01*
X5099882Y-4969060D01*
X5091559Y-4989102D01*
X5091541Y-5010803D01*
X5099828Y-5030860D01*
X5114942Y-5046000D01*
X5040912Y-5046000D01*
X5007669Y-5012757D01*
X5008441Y-5010898D01*
X5008459Y-4989197D01*
X5000172Y-4969140D01*
X4984840Y-4953782D01*
X4964798Y-4945459D01*
X4943097Y-4945441D01*
X4923040Y-4953728D01*
X4907682Y-4969060D01*
X4899359Y-4989102D01*
X4899341Y-5010803D01*
X4907628Y-5030860D01*
X4922960Y-5046218D01*
X4943002Y-5054541D01*
X4964703Y-5054559D01*
X4966645Y-5053757D01*
X5008394Y-5095506D01*
X5017802Y-5101793D01*
X5017802Y-5101793D01*
X5028900Y-5104000D01*
X5237702Y-5104000D01*
X5232507Y-5116509D01*
X5232493Y-5133238D01*
X5229778Y-5130519D01*
X5210489Y-5122509D01*
X5189603Y-5122491D01*
X5170300Y-5130467D01*
X5155519Y-5145222D01*
X5149996Y-5158521D01*
X5144533Y-5145300D01*
X5129778Y-5130519D01*
X5110489Y-5122509D01*
X5089603Y-5122491D01*
X5070300Y-5130467D01*
X5055519Y-5145222D01*
X5055196Y-5146000D01*
X5044823Y-5146000D01*
X5044533Y-5145300D01*
X5029778Y-5130519D01*
X5010489Y-5122509D01*
X4989603Y-5122491D01*
X4970300Y-5130467D01*
X4955519Y-5145222D01*
X4955196Y-5146000D01*
X4944823Y-5146000D01*
X4944533Y-5145300D01*
X4929778Y-5130519D01*
X4910489Y-5122509D01*
X4889603Y-5122491D01*
X4870300Y-5130467D01*
X4855519Y-5145222D01*
X4849996Y-5158521D01*
X4844533Y-5145300D01*
X4829778Y-5130519D01*
X4810489Y-5122509D01*
X4789603Y-5122491D01*
X4771429Y-5130000D01*
X4764840Y-5130000D01*
X4764840Y-5063718D01*
X4755587Y-5039763D01*
X4753827Y-5037129D01*
X4741052Y-5035363D01*
X4739637Y-5036777D01*
X4739637Y-5033948D01*
X4737871Y-5021173D01*
X4714390Y-5010778D01*
X4688718Y-5010160D01*
X4664763Y-5019413D01*
X4662129Y-5021173D01*
X4660363Y-5033948D01*
X4700000Y-5073586D01*
X4739637Y-5033948D01*
X4739637Y-5036777D01*
X4701414Y-5075000D01*
X4741052Y-5114637D01*
X4753827Y-5112871D01*
X4764222Y-5089390D01*
X4764840Y-5063718D01*
X4764840Y-5130000D01*
X4736116Y-5130000D01*
X4737871Y-5128827D01*
X4739637Y-5116052D01*
X4700000Y-5076414D01*
X4660363Y-5116052D01*
X4662129Y-5128827D01*
X4664779Y-5130000D01*
X4628529Y-5130000D01*
X4619156Y-5126108D01*
X4630860Y-5121272D01*
X4643718Y-5108437D01*
X4644413Y-5110237D01*
X4646173Y-5112871D01*
X4658948Y-5114637D01*
X4698586Y-5075000D01*
X4658948Y-5035363D01*
X4646173Y-5037129D01*
X4644053Y-5041917D01*
X4630940Y-5028782D01*
X4610898Y-5020459D01*
X4589197Y-5020441D01*
X4569140Y-5028728D01*
X4553782Y-5044060D01*
X4545459Y-5064102D01*
X4545441Y-5085803D01*
X4553728Y-5105860D01*
X4569060Y-5121218D01*
X4580842Y-5126111D01*
X4570300Y-5130467D01*
X4555519Y-5145222D01*
X4547509Y-5164511D01*
X4547491Y-5185397D01*
X4555467Y-5204700D01*
X4570222Y-5219481D01*
X4589511Y-5227491D01*
X4610397Y-5227509D01*
X4628571Y-5220000D01*
X4671471Y-5220000D01*
X4689511Y-5227491D01*
X4710397Y-5227509D01*
X4728571Y-5220000D01*
X4771471Y-5220000D01*
X4789511Y-5227491D01*
X4810397Y-5227509D01*
X4829700Y-5219533D01*
X4844481Y-5204778D01*
X4850004Y-5191478D01*
X4855467Y-5204700D01*
X4870222Y-5219481D01*
X4889511Y-5227491D01*
X4910397Y-5227509D01*
X4929700Y-5219533D01*
X4944481Y-5204778D01*
X4944804Y-5204000D01*
X4955177Y-5204000D01*
X4955467Y-5204700D01*
X4970222Y-5219481D01*
X4989511Y-5227491D01*
X5010397Y-5227509D01*
X5029700Y-5219533D01*
X5044481Y-5204778D01*
X5044804Y-5204000D01*
X5055177Y-5204000D01*
X5055467Y-5204700D01*
X5070222Y-5219481D01*
X5089511Y-5227491D01*
X5110397Y-5227509D01*
X5129700Y-5219533D01*
X5144481Y-5204778D01*
X5150004Y-5191478D01*
X5155467Y-5204700D01*
X5170222Y-5219481D01*
X5189511Y-5227491D01*
X5210397Y-5227509D01*
X5229700Y-5219533D01*
X5244481Y-5204778D01*
X5252491Y-5185489D01*
X5252509Y-5164603D01*
X5251051Y-5161074D01*
X5266509Y-5167493D01*
X5276489Y-5167501D01*
X5304494Y-5195506D01*
X5313902Y-5201793D01*
X5325000Y-5204000D01*
X5397496Y-5204000D01*
X5397491Y-5210397D01*
X5401872Y-5221000D01*
X5400000Y-5221000D01*
X5388902Y-5223207D01*
X5379494Y-5229494D01*
X5312988Y-5296000D01*
X4850000Y-5296000D01*
X4838902Y-5298207D01*
X4829494Y-5304494D01*
X4711188Y-5422800D01*
X4710489Y-5422509D01*
X4689603Y-5422491D01*
X4670300Y-5430467D01*
X4655519Y-5445222D01*
X4652500Y-5452492D01*
X4652500Y-5442527D01*
X4648694Y-5433339D01*
X4641661Y-5426306D01*
X4632473Y-5422500D01*
X4622527Y-5422500D01*
X4567527Y-5422500D01*
X4558339Y-5426306D01*
X4551306Y-5433339D01*
X4547500Y-5442527D01*
X4547500Y-5452473D01*
X4547500Y-5461488D01*
X4495255Y-5513733D01*
X4487856Y-5510661D01*
X4462256Y-5510639D01*
X4438596Y-5520415D01*
X4420479Y-5538501D01*
X4410661Y-5562144D01*
X4410639Y-5587744D01*
X4420415Y-5611404D01*
X4438501Y-5629521D01*
X4462144Y-5639339D01*
X4487744Y-5639361D01*
X4511404Y-5629585D01*
X4529521Y-5611499D01*
X4539339Y-5587856D01*
X4539361Y-5562256D01*
X4536260Y-5554752D01*
X4564688Y-5526324D01*
X4567527Y-5527500D01*
X4577473Y-5527500D01*
X4632473Y-5527500D01*
X4641661Y-5523694D01*
X4648694Y-5516661D01*
X4652500Y-5507473D01*
X4652500Y-5497527D01*
X4652500Y-5497520D01*
X4655467Y-5504700D01*
X4670222Y-5519481D01*
X4689511Y-5527491D01*
X4710397Y-5527509D01*
X4729700Y-5519533D01*
X4744481Y-5504778D01*
X4750004Y-5491478D01*
X4755467Y-5504700D01*
X4770222Y-5519481D01*
X4789511Y-5527491D01*
X4810397Y-5527509D01*
X4829700Y-5519533D01*
X4844481Y-5504778D01*
X4850004Y-5491478D01*
X4855467Y-5504700D01*
X4861647Y-5510891D01*
X4838596Y-5520415D01*
X4828994Y-5530000D01*
X4825000Y-5530000D01*
X4807779Y-5533425D01*
X4793180Y-5543180D01*
X4694495Y-5641865D01*
X4676266Y-5645491D01*
X4657125Y-5658281D01*
X4650000Y-5668944D01*
X4642875Y-5658281D01*
X4623734Y-5645491D01*
X4601156Y-5641000D01*
X4598844Y-5641000D01*
X4576266Y-5645491D01*
X4557125Y-5658281D01*
X4550000Y-5668944D01*
X4542875Y-5658281D01*
X4523734Y-5645491D01*
X4501156Y-5641000D01*
X4498844Y-5641000D01*
X4476266Y-5645491D01*
X4466180Y-5652230D01*
X4463672Y-5646174D01*
X4453826Y-5636328D01*
X4440962Y-5631000D01*
X4409750Y-5631000D01*
X4401000Y-5639750D01*
X4401000Y-5699000D01*
X4401787Y-5699000D01*
X4401787Y-5701000D01*
X4401000Y-5701000D01*
X4401000Y-5760250D01*
X4409750Y-5769000D01*
X4440962Y-5769000D01*
X4453826Y-5763672D01*
X4463672Y-5753826D01*
X4466180Y-5747770D01*
X4476266Y-5754509D01*
X4498844Y-5759000D01*
X4501156Y-5759000D01*
X4523734Y-5754509D01*
X4542875Y-5741719D01*
X4550000Y-5731056D01*
X4557125Y-5741719D01*
X4576266Y-5754509D01*
X4598844Y-5759000D01*
X4601156Y-5759000D01*
X4623734Y-5754509D01*
X4642875Y-5741719D01*
X4650000Y-5731056D01*
X4657125Y-5741719D01*
X4676266Y-5754509D01*
X4698844Y-5759000D01*
X4701156Y-5759000D01*
X4723734Y-5754509D01*
X4742875Y-5741719D01*
X4755665Y-5722578D01*
X4759291Y-5704349D01*
X4781000Y-5682640D01*
X4781000Y-5690250D01*
X4789750Y-5699000D01*
X4849000Y-5699000D01*
X4849000Y-5698213D01*
X4851000Y-5698213D01*
X4851000Y-5699000D01*
X4851787Y-5699000D01*
X4851787Y-5701000D01*
X4851000Y-5701000D01*
X4851000Y-5760250D01*
X4859750Y-5769000D01*
X4890962Y-5769000D01*
X4903826Y-5763672D01*
X4913672Y-5753826D01*
X4916180Y-5747770D01*
X4926266Y-5754509D01*
X4948844Y-5759000D01*
X4951156Y-5759000D01*
X4973734Y-5754509D01*
X4992875Y-5741719D01*
X5000000Y-5731056D01*
X5007125Y-5741719D01*
X5026266Y-5754509D01*
X5048844Y-5759000D01*
X5051156Y-5759000D01*
X5073734Y-5754509D01*
X5092875Y-5741719D01*
X5100000Y-5731056D01*
X5107125Y-5741719D01*
X5126266Y-5754509D01*
X5148844Y-5759000D01*
X5151156Y-5759000D01*
X5173734Y-5754509D01*
X5187965Y-5745000D01*
X5394896Y-5745000D01*
X5388991Y-5750894D01*
X5382507Y-5766509D01*
X5382493Y-5783417D01*
X5388949Y-5799043D01*
X5394896Y-5805000D01*
X4849000Y-5805000D01*
X4849000Y-5760250D01*
X4849000Y-5701000D01*
X4789750Y-5701000D01*
X4781000Y-5709750D01*
X4781000Y-5727038D01*
X4781000Y-5740962D01*
X4786328Y-5753826D01*
X4796174Y-5763672D01*
X4809038Y-5769000D01*
X4840250Y-5769000D01*
X4849000Y-5760250D01*
X4849000Y-5805000D01*
X4418640Y-5805000D01*
X4382640Y-5769000D01*
X4390250Y-5769000D01*
X4399000Y-5760250D01*
X4399000Y-5701000D01*
X4398213Y-5701000D01*
X4398213Y-5699000D01*
X4399000Y-5699000D01*
X4399000Y-5639750D01*
X4390250Y-5631000D01*
X4359038Y-5631000D01*
X4346174Y-5636328D01*
X4345000Y-5637503D01*
X4345000Y-5625000D01*
X4341575Y-5607779D01*
X4331820Y-5593180D01*
X4256820Y-5518180D01*
X4242221Y-5508425D01*
X4225000Y-5505000D01*
X4070000Y-5505000D01*
X4070000Y-5451427D01*
X4088213Y-5458990D01*
X4111684Y-5459010D01*
X4133377Y-5450047D01*
X4149989Y-5433464D01*
X4150004Y-5433428D01*
X4166536Y-5449989D01*
X4188213Y-5458990D01*
X4211684Y-5459010D01*
X4233377Y-5450047D01*
X4242015Y-5441424D01*
X4244806Y-5448161D01*
X4251839Y-5455194D01*
X4261027Y-5459000D01*
X4270973Y-5459000D01*
X4338973Y-5459000D01*
X4348161Y-5455194D01*
X4355194Y-5448161D01*
X4359000Y-5438973D01*
X4359000Y-5429027D01*
X4359000Y-5379000D01*
X4362988Y-5379000D01*
X4363733Y-5379745D01*
X4360661Y-5387144D01*
X4360639Y-5412744D01*
X4370415Y-5436404D01*
X4388501Y-5454521D01*
X4412144Y-5464339D01*
X4437744Y-5464361D01*
X4461404Y-5454585D01*
X4479521Y-5436499D01*
X4489339Y-5412856D01*
X4489361Y-5387256D01*
X4479585Y-5363596D01*
X4461499Y-5345479D01*
X4437856Y-5335661D01*
X4412256Y-5335639D01*
X4404752Y-5338740D01*
X4395506Y-5329494D01*
X4386098Y-5323207D01*
X4375000Y-5321000D01*
X4250000Y-5321000D01*
X4238902Y-5323207D01*
X4229494Y-5329494D01*
X4216161Y-5342826D01*
X4211787Y-5341010D01*
X4188316Y-5340990D01*
X4166623Y-5349953D01*
X4150011Y-5366536D01*
X4149996Y-5366572D01*
X4133464Y-5350011D01*
X4111787Y-5341010D01*
X4088316Y-5340990D01*
X4070000Y-5348558D01*
X4070000Y-5218640D01*
X4108632Y-5180008D01*
X4110892Y-5180010D01*
X4131114Y-5171654D01*
X4132771Y-5170000D01*
X4167208Y-5170000D01*
X4168804Y-5171600D01*
X4189012Y-5179990D01*
X4210892Y-5180010D01*
X4231114Y-5171654D01*
X4246600Y-5156196D01*
X4254990Y-5135988D01*
X4255010Y-5114108D01*
X4246654Y-5093886D01*
X4231196Y-5078400D01*
X4223011Y-5075002D01*
X4231114Y-5071654D01*
X4246600Y-5056196D01*
X4254990Y-5035988D01*
X4255010Y-5014108D01*
X4250833Y-5004000D01*
X4262988Y-5004000D01*
X4279494Y-5020506D01*
X4288902Y-5026793D01*
X4288902Y-5026793D01*
X4300000Y-5029000D01*
X4367356Y-5029000D01*
X4370415Y-5036404D01*
X4388501Y-5054521D01*
X4412144Y-5064339D01*
X4425555Y-5064351D01*
X4413991Y-5075894D01*
X4407507Y-5091509D01*
X4407493Y-5108417D01*
X4413949Y-5124043D01*
X4425894Y-5136009D01*
X4441509Y-5142493D01*
X4458417Y-5142507D01*
X4474043Y-5136051D01*
X4486009Y-5124106D01*
X4492493Y-5108491D01*
X4492501Y-5098511D01*
X4520506Y-5070506D01*
X4526793Y-5061098D01*
X4529000Y-5050000D01*
X4529000Y-4987298D01*
X4541509Y-4992493D01*
X4558417Y-4992507D01*
X4574043Y-4986051D01*
X4586009Y-4974106D01*
X4592493Y-4958491D01*
X4592501Y-4948511D01*
X4649866Y-4891146D01*
X4655467Y-4904700D01*
X4670222Y-4919481D01*
X4689511Y-4927491D01*
X4710397Y-4927509D01*
X4728571Y-4920000D01*
X4950000Y-4920000D01*
X4967221Y-4916575D01*
X4981820Y-4906820D01*
X5047603Y-4841037D01*
X5053728Y-4855860D01*
X5069060Y-4871218D01*
X5089102Y-4879541D01*
X5110803Y-4879559D01*
X5130860Y-4871272D01*
X5143718Y-4858437D01*
X5144413Y-4860237D01*
X5146173Y-4862871D01*
X5158948Y-4864637D01*
X5198586Y-4825000D01*
X5198029Y-4824443D01*
X5199443Y-4823029D01*
X5200000Y-4823586D01*
X5200557Y-4823029D01*
X5201971Y-4824443D01*
X5201414Y-4825000D01*
X5241052Y-4864637D01*
X5253827Y-4862871D01*
X5264222Y-4839390D01*
X5264840Y-4813718D01*
X5257610Y-4795000D01*
X5281360Y-4795000D01*
X5295442Y-4809082D01*
X5295441Y-4810803D01*
X5303728Y-4830860D01*
X5316563Y-4843718D01*
X5314763Y-4844413D01*
X5312129Y-4846173D01*
X5310363Y-4858948D01*
X5350000Y-4898586D01*
X5389637Y-4858948D01*
X5387871Y-4846173D01*
X5385221Y-4845000D01*
X5418945Y-4845000D01*
X5415855Y-4846195D01*
X5413357Y-4847864D01*
X5411841Y-4860427D01*
X5450000Y-4898586D01*
X5488159Y-4860427D01*
X5486643Y-4847864D01*
X5479394Y-4844660D01*
X5479700Y-4844533D01*
X5494481Y-4829778D01*
X5502491Y-4810489D01*
X5502509Y-4789603D01*
X5494533Y-4770300D01*
X5479778Y-4755519D01*
X5466478Y-4749996D01*
X5479700Y-4744533D01*
X5494481Y-4729778D01*
X5502491Y-4710489D01*
X5502509Y-4689603D01*
X5498128Y-4679000D01*
X5625000Y-4679000D01*
X5636098Y-4676793D01*
X5642127Y-4672764D01*
X5638991Y-4675894D01*
X5632507Y-4691509D01*
X5632493Y-4708417D01*
X5637692Y-4721000D01*
X5631102Y-4721000D01*
X5624106Y-4713991D01*
X5608491Y-4707507D01*
X5591583Y-4707493D01*
X5575957Y-4713949D01*
X5563991Y-4725894D01*
X5557507Y-4741509D01*
X5557493Y-4758417D01*
X5563949Y-4774043D01*
X5575894Y-4786009D01*
X5591509Y-4792493D01*
X5608417Y-4792507D01*
X5624043Y-4786051D01*
X5631106Y-4779000D01*
X5690949Y-4779000D01*
X5687810Y-4786098D01*
X5687224Y-4810955D01*
X5696195Y-4834145D01*
X5697864Y-4836643D01*
X5710427Y-4838159D01*
X5748586Y-4800000D01*
X5748029Y-4799443D01*
X5749443Y-4798029D01*
X5750000Y-4798586D01*
X5750557Y-4798029D01*
X5751971Y-4799443D01*
X5751414Y-4800000D01*
X5789573Y-4838159D01*
X5802136Y-4836643D01*
X5812190Y-4813902D01*
X5812776Y-4789045D01*
X5808890Y-4779000D01*
X5825000Y-4779000D01*
X5836098Y-4776793D01*
X5845506Y-4770506D01*
X5862012Y-4754000D01*
X5955177Y-4754000D01*
X5955467Y-4754700D01*
X5970222Y-4769481D01*
X5983521Y-4775004D01*
X5970300Y-4780467D01*
X5955519Y-4795222D01*
X5947509Y-4814511D01*
X5947491Y-4835397D01*
X5955467Y-4854700D01*
X5970222Y-4869481D01*
X5983521Y-4875004D01*
X5970300Y-4880467D01*
X5955519Y-4895222D01*
X5947509Y-4914511D01*
X5947491Y-4935397D01*
X5955467Y-4954700D01*
X5970222Y-4969481D01*
X5989511Y-4977491D01*
X6010397Y-4977509D01*
X6029700Y-4969533D01*
X6044481Y-4954778D01*
X6052491Y-4935489D01*
X6052509Y-4914603D01*
X6044533Y-4895300D01*
X6029778Y-4880519D01*
X6016478Y-4874996D01*
X6029700Y-4869533D01*
X6044481Y-4854778D01*
X6044804Y-4854000D01*
X6093898Y-4854000D01*
X6100894Y-4861009D01*
X6116509Y-4867493D01*
X6133417Y-4867507D01*
X6149043Y-4861051D01*
X6161009Y-4849106D01*
X6167493Y-4833491D01*
X6167507Y-4816583D01*
X6161051Y-4800957D01*
X6149106Y-4788991D01*
X6133491Y-4782507D01*
X6116583Y-4782493D01*
X6100957Y-4788949D01*
X6093894Y-4796000D01*
X6044823Y-4796000D01*
X6044533Y-4795300D01*
X6029778Y-4780519D01*
X6016478Y-4774996D01*
X6029700Y-4769533D01*
X6044481Y-4754778D01*
X6052491Y-4735489D01*
X6052509Y-4714603D01*
X6044533Y-4695300D01*
X6029778Y-4680519D01*
X6016478Y-4674996D01*
X6029700Y-4669533D01*
X6044481Y-4654778D01*
X6052491Y-4635489D01*
X6052509Y-4614603D01*
X6051051Y-4611074D01*
X6066509Y-4617493D01*
X6083417Y-4617507D01*
X6099043Y-4611051D01*
X6111009Y-4599106D01*
X6117493Y-4583491D01*
X6117507Y-4566583D01*
X6111051Y-4550957D01*
X6099106Y-4538991D01*
X6083491Y-4532507D01*
X6066583Y-4532493D01*
X6051074Y-4538901D01*
X6052491Y-4535489D01*
X6052509Y-4514603D01*
X6044533Y-4495300D01*
X6029778Y-4480519D01*
X6016478Y-4474996D01*
X6029700Y-4469533D01*
X6044481Y-4454778D01*
X6052491Y-4435489D01*
X6052509Y-4414603D01*
X6044533Y-4395300D01*
X6029778Y-4380519D01*
X6016478Y-4374996D01*
X6029700Y-4369533D01*
X6044481Y-4354778D01*
X6052491Y-4335489D01*
X6052509Y-4314603D01*
X6044533Y-4295300D01*
X6029778Y-4280519D01*
X6022508Y-4277500D01*
X6032473Y-4277500D01*
X6041661Y-4273694D01*
X6048694Y-4266661D01*
X6052500Y-4257473D01*
X6052500Y-4247527D01*
X6052500Y-4192527D01*
X6048694Y-4183339D01*
X6041661Y-4176306D01*
X6032473Y-4172500D01*
X6022527Y-4172500D01*
X5967527Y-4172500D01*
X5958339Y-4176306D01*
X5951306Y-4183339D01*
X5947500Y-4192527D01*
X5947500Y-4202473D01*
X5947500Y-4257473D01*
X5951306Y-4266661D01*
X5958339Y-4273694D01*
X5967527Y-4277500D01*
X5977473Y-4277500D01*
X5977480Y-4277500D01*
X5970300Y-4280467D01*
X5955519Y-4295222D01*
X5947509Y-4314511D01*
X5947491Y-4335397D01*
X5955467Y-4354700D01*
X5970222Y-4369481D01*
X5983521Y-4375004D01*
X5970300Y-4380467D01*
X5955519Y-4395222D01*
X5947509Y-4414511D01*
X5947491Y-4435397D01*
X5955467Y-4454700D01*
X5970222Y-4469481D01*
X5983521Y-4475004D01*
X5970300Y-4480467D01*
X5955519Y-4495222D01*
X5947509Y-4514511D01*
X5947491Y-4535397D01*
X5951872Y-4546000D01*
X5875000Y-4546000D01*
X5862012Y-4546000D01*
X5845506Y-4529494D01*
X5836098Y-4523207D01*
X5825000Y-4521000D01*
X5798126Y-4521000D01*
X5802491Y-4510489D01*
X5802509Y-4489603D01*
X5794533Y-4470300D01*
X5779778Y-4455519D01*
X5766478Y-4449996D01*
X5779700Y-4444533D01*
X5794481Y-4429778D01*
X5802491Y-4410489D01*
X5802509Y-4389603D01*
X5794533Y-4370300D01*
X5779778Y-4355519D01*
X5766478Y-4349996D01*
X5779700Y-4344533D01*
X5794481Y-4329778D01*
X5802491Y-4310489D01*
X5802509Y-4289603D01*
X5794533Y-4270300D01*
X5779778Y-4255519D01*
X5766478Y-4249996D01*
X5779700Y-4244533D01*
X5794481Y-4229778D01*
X5802491Y-4210489D01*
X5802509Y-4189603D01*
X5794533Y-4170300D01*
X5779778Y-4155519D01*
X5760489Y-4147509D01*
X5739603Y-4147491D01*
X5720300Y-4155467D01*
X5705519Y-4170222D01*
X5697509Y-4189511D01*
X5697491Y-4210397D01*
X5705467Y-4229700D01*
X5720222Y-4244481D01*
X5733521Y-4250004D01*
X5720300Y-4255467D01*
X5705519Y-4270222D01*
X5697509Y-4289511D01*
X5697491Y-4310397D01*
X5705467Y-4329700D01*
X5720222Y-4344481D01*
X5733521Y-4350004D01*
X5720300Y-4355467D01*
X5705519Y-4370222D01*
X5697509Y-4389511D01*
X5697491Y-4410397D01*
X5705467Y-4429700D01*
X5720222Y-4444481D01*
X5733521Y-4450004D01*
X5720300Y-4455467D01*
X5705519Y-4470222D01*
X5697509Y-4489511D01*
X5697491Y-4510397D01*
X5705189Y-4529029D01*
X5704494Y-4529494D01*
X5612988Y-4621000D01*
X5498126Y-4621000D01*
X5502491Y-4610489D01*
X5502509Y-4589603D01*
X5494533Y-4570300D01*
X5479778Y-4555519D01*
X5466478Y-4549996D01*
X5479700Y-4544533D01*
X5494481Y-4529778D01*
X5502491Y-4510489D01*
X5502507Y-4492502D01*
X5508417Y-4492507D01*
X5524043Y-4486051D01*
X5536009Y-4474106D01*
X5542493Y-4458491D01*
X5542507Y-4441583D01*
X5536051Y-4425957D01*
X5524106Y-4413991D01*
X5508491Y-4407507D01*
X5502493Y-4407502D01*
X5502509Y-4389603D01*
X5494533Y-4370300D01*
X5479778Y-4355519D01*
X5466478Y-4349996D01*
X5479700Y-4344533D01*
X5494481Y-4329778D01*
X5502491Y-4310489D01*
X5502509Y-4289603D01*
X5494533Y-4270300D01*
X5479778Y-4255519D01*
X5472508Y-4252500D01*
X5482473Y-4252500D01*
X5491661Y-4248694D01*
X5498694Y-4241661D01*
X5502500Y-4232473D01*
X5502500Y-4222527D01*
X5502500Y-4188512D01*
X5587012Y-4104000D01*
X5679988Y-4104000D01*
X5626486Y-4157501D01*
X5616583Y-4157493D01*
X5600957Y-4163949D01*
X5588991Y-4175894D01*
X5582507Y-4191509D01*
X5582493Y-4208417D01*
X5588949Y-4224043D01*
X5600894Y-4236009D01*
X5616509Y-4242493D01*
X5633417Y-4242507D01*
X5649043Y-4236051D01*
X5661009Y-4224106D01*
X5667493Y-4208491D01*
X5667501Y-4198511D01*
X5737012Y-4129000D01*
X5862702Y-4129000D01*
X5857507Y-4141509D01*
X5857493Y-4158417D01*
X5863949Y-4174043D01*
X5875894Y-4186009D01*
X5891509Y-4192493D01*
X5908417Y-4192507D01*
X5924043Y-4186051D01*
X5936009Y-4174106D01*
X5942493Y-4158491D01*
X5942497Y-4154000D01*
X6325000Y-4154000D01*
X6336098Y-4151793D01*
X6345506Y-4145506D01*
X6372500Y-4118512D01*
X6372500Y-4136488D01*
X6328853Y-4180135D01*
X6310489Y-4172509D01*
X6289603Y-4172491D01*
X6270300Y-4180467D01*
X6255519Y-4195222D01*
X6247509Y-4214511D01*
X6247491Y-4235397D01*
X6255467Y-4254700D01*
X6270222Y-4269481D01*
X6283521Y-4275004D01*
X6270300Y-4280467D01*
X6255519Y-4295222D01*
X6247509Y-4314511D01*
X6247491Y-4335397D01*
X6255467Y-4354700D01*
X6270222Y-4369481D01*
X6283521Y-4375004D01*
X6270300Y-4380467D01*
X6255519Y-4395222D01*
X6247509Y-4414511D01*
X6247491Y-4435397D01*
X6255467Y-4454700D01*
X6270222Y-4469481D01*
X6283521Y-4475004D01*
X6270300Y-4480467D01*
X6255519Y-4495222D01*
X6247509Y-4514511D01*
X6247491Y-4535397D01*
X6255467Y-4554700D01*
X6270222Y-4569481D01*
X6283521Y-4575004D01*
X6270300Y-4580467D01*
X6255519Y-4595222D01*
X6247509Y-4614511D01*
X6247491Y-4635397D01*
X6255467Y-4654700D01*
X6270222Y-4669481D01*
X6283521Y-4675004D01*
X6270300Y-4680467D01*
X6255519Y-4695222D01*
X6247509Y-4714511D01*
X6247494Y-4731482D01*
X6204000Y-4687988D01*
X6204000Y-4275000D01*
X6201793Y-4263902D01*
X6195506Y-4254494D01*
X6167499Y-4226486D01*
X6167507Y-4216583D01*
X6161051Y-4200957D01*
X6149106Y-4188991D01*
X6133491Y-4182507D01*
X6116583Y-4182493D01*
X6100957Y-4188949D01*
X6088991Y-4200894D01*
X6082507Y-4216509D01*
X6082493Y-4233417D01*
X6088949Y-4249043D01*
X6100894Y-4261009D01*
X6116509Y-4267493D01*
X6126489Y-4267501D01*
X6146000Y-4287012D01*
X6146000Y-4700000D01*
X6148207Y-4711098D01*
X6154494Y-4720506D01*
X6247800Y-4813812D01*
X6247509Y-4814511D01*
X6247491Y-4835397D01*
X6255467Y-4854700D01*
X6270222Y-4869481D01*
X6283521Y-4875004D01*
X6270300Y-4880467D01*
X6255519Y-4895222D01*
X6247509Y-4914511D01*
X6247491Y-4935397D01*
X6255467Y-4954700D01*
X6270222Y-4969481D01*
X6289511Y-4977491D01*
X6310397Y-4977509D01*
X6329700Y-4969533D01*
X6344481Y-4954778D01*
X6352491Y-4935489D01*
X6352509Y-4914603D01*
X6344533Y-4895300D01*
X6329778Y-4880519D01*
X6316478Y-4874996D01*
X6329700Y-4869533D01*
X6344481Y-4854778D01*
X6352491Y-4835489D01*
X6352509Y-4814603D01*
X6344533Y-4795300D01*
X6329778Y-4780519D01*
X6316478Y-4774996D01*
X6329700Y-4769533D01*
X6344481Y-4754778D01*
X6352491Y-4735489D01*
X6352509Y-4714603D01*
X6344533Y-4695300D01*
X6329778Y-4680519D01*
X6316478Y-4674996D01*
X6329700Y-4669533D01*
X6344481Y-4654778D01*
X6352491Y-4635489D01*
X6352509Y-4614603D01*
X6344533Y-4595300D01*
X6329778Y-4580519D01*
X6316478Y-4574996D01*
X6329700Y-4569533D01*
X6344481Y-4554778D01*
X6352491Y-4535489D01*
X6352509Y-4514603D01*
X6344533Y-4495300D01*
X6329778Y-4480519D01*
X6316478Y-4474996D01*
X6329700Y-4469533D01*
X6344481Y-4454778D01*
X6352491Y-4435489D01*
X6352509Y-4414603D01*
X6344533Y-4395300D01*
X6329778Y-4380519D01*
X6316478Y-4374996D01*
X6329700Y-4369533D01*
X6344481Y-4354778D01*
X6344804Y-4354000D01*
X6380177Y-4354000D01*
X6380467Y-4354700D01*
X6395222Y-4369481D01*
X6395253Y-4369494D01*
X6390855Y-4371195D01*
X6388357Y-4372864D01*
X6386841Y-4385427D01*
X6425000Y-4423586D01*
X6463159Y-4385427D01*
X6461643Y-4372864D01*
X6454394Y-4369660D01*
X6454700Y-4369533D01*
X6469481Y-4354778D01*
X6477491Y-4335489D01*
X6477509Y-4314603D01*
X6469533Y-4295300D01*
X6454778Y-4280519D01*
X6454747Y-4280506D01*
X6459145Y-4278805D01*
X6461643Y-4277136D01*
X6463159Y-4264573D01*
X6425000Y-4226414D01*
X6386841Y-4264573D01*
X6388357Y-4277136D01*
X6395606Y-4280340D01*
X6395300Y-4280467D01*
X6380519Y-4295222D01*
X6380196Y-4296000D01*
X6344823Y-4296000D01*
X6344533Y-4295300D01*
X6329778Y-4280519D01*
X6316478Y-4274996D01*
X6329700Y-4269533D01*
X6344481Y-4254778D01*
X6350337Y-4240675D01*
X6362397Y-4228615D01*
X6362224Y-4235955D01*
X6371195Y-4259145D01*
X6372864Y-4261643D01*
X6385427Y-4263159D01*
X6423586Y-4225000D01*
X6423029Y-4224443D01*
X6424443Y-4223029D01*
X6425000Y-4223586D01*
X6463159Y-4185427D01*
X6461977Y-4175634D01*
X6466661Y-4173694D01*
X6473694Y-4166661D01*
X6477500Y-4157473D01*
X6477500Y-4147527D01*
X6477500Y-4092527D01*
X6473694Y-4083339D01*
X6466661Y-4076306D01*
X6457473Y-4072500D01*
X6447527Y-4072500D01*
X6418512Y-4072500D01*
X6462012Y-4029000D01*
X6582360Y-4029000D01*
X6582360Y-4029000D01*
G37*
X6582360Y-4029000D02*
X6493180Y-4118180D01*
X6483425Y-4132779D01*
X6480000Y-4150000D01*
X6480000Y-4193945D01*
X6478805Y-4190855D01*
X6477136Y-4188357D01*
X6464573Y-4186841D01*
X6426414Y-4225000D01*
X6464573Y-4263159D01*
X6477136Y-4261643D01*
X6480000Y-4255164D01*
X6480000Y-4393945D01*
X6478805Y-4390855D01*
X6477136Y-4388357D01*
X6464573Y-4386841D01*
X6426414Y-4425000D01*
X6464573Y-4463159D01*
X6477136Y-4461643D01*
X6480000Y-4455164D01*
X6480000Y-4668945D01*
X6478805Y-4665855D01*
X6477500Y-4663903D01*
X6477500Y-4632473D01*
X6477500Y-4622527D01*
X6477500Y-4567527D01*
X6473694Y-4558339D01*
X6466661Y-4551306D01*
X6463159Y-4549855D01*
X6463159Y-4464573D01*
X6425000Y-4426414D01*
X6423586Y-4427828D01*
X6423586Y-4425000D01*
X6385427Y-4386841D01*
X6372864Y-4388357D01*
X6362810Y-4411098D01*
X6362224Y-4435955D01*
X6371195Y-4459145D01*
X6372864Y-4461643D01*
X6385427Y-4463159D01*
X6423586Y-4425000D01*
X6423586Y-4427828D01*
X6386841Y-4464573D01*
X6388357Y-4477136D01*
X6411098Y-4487190D01*
X6435955Y-4487776D01*
X6459145Y-4478805D01*
X6461643Y-4477136D01*
X6463159Y-4464573D01*
X6463159Y-4549855D01*
X6457473Y-4547500D01*
X6447527Y-4547500D01*
X6392527Y-4547500D01*
X6383339Y-4551306D01*
X6376306Y-4558339D01*
X6372500Y-4567527D01*
X6372500Y-4577473D01*
X6372500Y-4632473D01*
X6376306Y-4641661D01*
X6383339Y-4648694D01*
X6388023Y-4650634D01*
X6386841Y-4660427D01*
X6425000Y-4698586D01*
X6463159Y-4660427D01*
X6461977Y-4650634D01*
X6466661Y-4648694D01*
X6473694Y-4641661D01*
X6477500Y-4632473D01*
X6477500Y-4663903D01*
X6477136Y-4663357D01*
X6464573Y-4661841D01*
X6426414Y-4700000D01*
X6464573Y-4738159D01*
X6477136Y-4736643D01*
X6480000Y-4730164D01*
X6480000Y-4868945D01*
X6478805Y-4865855D01*
X6477509Y-4863916D01*
X6477509Y-4789603D01*
X6469533Y-4770300D01*
X6454778Y-4755519D01*
X6454747Y-4755506D01*
X6459145Y-4753805D01*
X6461643Y-4752136D01*
X6463159Y-4739573D01*
X6425000Y-4701414D01*
X6423586Y-4702828D01*
X6423586Y-4700000D01*
X6385427Y-4661841D01*
X6372864Y-4663357D01*
X6362810Y-4686098D01*
X6362224Y-4710955D01*
X6371195Y-4734145D01*
X6372864Y-4736643D01*
X6385427Y-4738159D01*
X6423586Y-4700000D01*
X6423586Y-4702828D01*
X6386841Y-4739573D01*
X6388357Y-4752136D01*
X6395606Y-4755340D01*
X6395300Y-4755467D01*
X6380519Y-4770222D01*
X6372509Y-4789511D01*
X6372491Y-4810397D01*
X6380467Y-4829700D01*
X6395222Y-4844481D01*
X6395253Y-4844494D01*
X6390855Y-4846195D01*
X6388357Y-4847864D01*
X6386841Y-4860427D01*
X6425000Y-4898586D01*
X6463159Y-4860427D01*
X6461643Y-4847864D01*
X6454394Y-4844660D01*
X6454700Y-4844533D01*
X6469481Y-4829778D01*
X6477491Y-4810489D01*
X6477509Y-4789603D01*
X6477509Y-4863916D01*
X6477136Y-4863357D01*
X6464573Y-4861841D01*
X6426414Y-4900000D01*
X6464573Y-4938159D01*
X6477136Y-4936643D01*
X6480000Y-4930164D01*
X6480000Y-5143945D01*
X6478805Y-5140855D01*
X6477500Y-5138903D01*
X6477500Y-5107473D01*
X6477500Y-5097527D01*
X6477500Y-5042527D01*
X6473694Y-5033339D01*
X6466661Y-5026306D01*
X6463159Y-5024855D01*
X6463159Y-4939573D01*
X6425000Y-4901414D01*
X6423586Y-4902828D01*
X6423586Y-4900000D01*
X6385427Y-4861841D01*
X6372864Y-4863357D01*
X6362810Y-4886098D01*
X6362224Y-4910955D01*
X6371195Y-4934145D01*
X6372864Y-4936643D01*
X6385427Y-4938159D01*
X6423586Y-4900000D01*
X6423586Y-4902828D01*
X6386841Y-4939573D01*
X6388357Y-4952136D01*
X6411098Y-4962190D01*
X6435955Y-4962776D01*
X6459145Y-4953805D01*
X6461643Y-4952136D01*
X6463159Y-4939573D01*
X6463159Y-5024855D01*
X6457473Y-5022500D01*
X6447527Y-5022500D01*
X6392527Y-5022500D01*
X6383339Y-5026306D01*
X6376306Y-5033339D01*
X6372500Y-5042527D01*
X6372500Y-5052473D01*
X6372500Y-5107473D01*
X6376306Y-5116661D01*
X6383339Y-5123694D01*
X6388023Y-5125634D01*
X6386841Y-5135427D01*
X6425000Y-5173586D01*
X6463159Y-5135427D01*
X6461977Y-5125634D01*
X6466661Y-5123694D01*
X6473694Y-5116661D01*
X6477500Y-5107473D01*
X6477500Y-5138903D01*
X6477136Y-5138357D01*
X6464573Y-5136841D01*
X6426414Y-5175000D01*
X6464573Y-5213159D01*
X6477136Y-5211643D01*
X6480000Y-5205164D01*
X6480000Y-5343945D01*
X6478805Y-5340855D01*
X6477509Y-5338916D01*
X6477509Y-5264603D01*
X6469533Y-5245300D01*
X6454778Y-5230519D01*
X6454747Y-5230506D01*
X6459145Y-5228805D01*
X6461643Y-5227136D01*
X6463159Y-5214573D01*
X6425000Y-5176414D01*
X6423586Y-5177828D01*
X6423586Y-5175000D01*
X6385427Y-5136841D01*
X6372864Y-5138357D01*
X6362810Y-5161098D01*
X6362224Y-5185955D01*
X6371195Y-5209145D01*
X6372864Y-5211643D01*
X6385427Y-5213159D01*
X6423586Y-5175000D01*
X6423586Y-5177828D01*
X6386841Y-5214573D01*
X6388357Y-5227136D01*
X6395606Y-5230340D01*
X6395300Y-5230467D01*
X6380519Y-5245222D01*
X6372509Y-5264511D01*
X6372491Y-5285397D01*
X6380467Y-5304700D01*
X6395222Y-5319481D01*
X6395253Y-5319494D01*
X6390855Y-5321195D01*
X6388357Y-5322864D01*
X6386841Y-5335427D01*
X6425000Y-5373586D01*
X6463159Y-5335427D01*
X6461643Y-5322864D01*
X6454394Y-5319660D01*
X6454700Y-5319533D01*
X6469481Y-5304778D01*
X6477491Y-5285489D01*
X6477509Y-5264603D01*
X6477509Y-5338916D01*
X6477136Y-5338357D01*
X6464573Y-5336841D01*
X6426414Y-5375000D01*
X6464573Y-5413159D01*
X6477136Y-5411643D01*
X6480000Y-5405164D01*
X6480000Y-5530000D01*
X6463159Y-5530000D01*
X6463159Y-5414573D01*
X6425000Y-5376414D01*
X6423586Y-5377828D01*
X6423586Y-5375000D01*
X6385427Y-5336841D01*
X6372864Y-5338357D01*
X6362810Y-5361098D01*
X6362224Y-5385955D01*
X6371195Y-5409145D01*
X6372864Y-5411643D01*
X6385427Y-5413159D01*
X6423586Y-5375000D01*
X6423586Y-5377828D01*
X6386841Y-5414573D01*
X6388357Y-5427136D01*
X6411098Y-5437190D01*
X6435955Y-5437776D01*
X6459145Y-5428805D01*
X6461643Y-5427136D01*
X6463159Y-5414573D01*
X6463159Y-5530000D01*
X6425000Y-5530000D01*
X6407779Y-5533425D01*
X6393180Y-5543180D01*
X6356360Y-5580000D01*
X6332220Y-5580000D01*
X6339339Y-5562856D01*
X6339361Y-5537256D01*
X6329585Y-5513596D01*
X6311499Y-5495479D01*
X6287856Y-5485661D01*
X6262256Y-5485639D01*
X6238596Y-5495415D01*
X6220479Y-5513501D01*
X6210661Y-5537144D01*
X6210639Y-5562744D01*
X6217769Y-5580000D01*
X6168640Y-5580000D01*
X6106820Y-5518180D01*
X6092221Y-5508425D01*
X6075000Y-5505000D01*
X5921004Y-5505000D01*
X5911499Y-5495479D01*
X5887856Y-5485661D01*
X5862256Y-5485639D01*
X5838596Y-5495415D01*
X5820479Y-5513501D01*
X5810661Y-5537144D01*
X5810639Y-5562744D01*
X5820415Y-5586404D01*
X5829994Y-5596000D01*
X5687012Y-5596000D01*
X5502200Y-5411188D01*
X5502491Y-5410489D01*
X5502509Y-5389603D01*
X5498128Y-5379000D01*
X5500000Y-5379000D01*
X5511098Y-5376793D01*
X5520506Y-5370506D01*
X5548513Y-5342499D01*
X5558417Y-5342507D01*
X5574043Y-5336051D01*
X5584550Y-5325562D01*
X5629494Y-5370506D01*
X5638902Y-5376793D01*
X5650000Y-5379000D01*
X5701874Y-5379000D01*
X5697509Y-5389511D01*
X5697491Y-5410397D01*
X5705467Y-5429700D01*
X5720222Y-5444481D01*
X5733521Y-5450004D01*
X5720300Y-5455467D01*
X5705519Y-5470222D01*
X5697509Y-5489511D01*
X5697491Y-5510397D01*
X5705467Y-5529700D01*
X5720222Y-5544481D01*
X5739511Y-5552491D01*
X5760397Y-5552509D01*
X5779700Y-5544533D01*
X5794481Y-5529778D01*
X5802491Y-5510489D01*
X5802509Y-5489603D01*
X5794533Y-5470300D01*
X5779778Y-5455519D01*
X5766478Y-5449996D01*
X5779700Y-5444533D01*
X5794481Y-5429778D01*
X5802491Y-5410489D01*
X5802509Y-5389603D01*
X5798128Y-5379000D01*
X5814043Y-5379000D01*
X5810661Y-5387144D01*
X5810639Y-5412744D01*
X5820415Y-5436404D01*
X5838501Y-5454521D01*
X5862144Y-5464339D01*
X5887744Y-5464361D01*
X5911404Y-5454585D01*
X5929521Y-5436499D01*
X5939339Y-5412856D01*
X5939361Y-5387256D01*
X5929585Y-5363596D01*
X5920006Y-5354000D01*
X6187988Y-5354000D01*
X6213733Y-5379745D01*
X6210661Y-5387144D01*
X6210639Y-5412744D01*
X6220415Y-5436404D01*
X6238501Y-5454521D01*
X6262144Y-5464339D01*
X6287744Y-5464361D01*
X6311404Y-5454585D01*
X6329521Y-5436499D01*
X6339339Y-5412856D01*
X6339361Y-5387256D01*
X6339361Y-5237256D01*
X6339361Y-5087256D01*
X6329585Y-5063596D01*
X6311499Y-5045479D01*
X6287856Y-5035661D01*
X6262256Y-5035639D01*
X6238596Y-5045415D01*
X6220479Y-5063501D01*
X6210661Y-5087144D01*
X6210639Y-5112744D01*
X6220415Y-5136404D01*
X6238501Y-5154521D01*
X6262144Y-5164339D01*
X6287744Y-5164361D01*
X6311404Y-5154585D01*
X6329521Y-5136499D01*
X6339339Y-5112856D01*
X6339361Y-5087256D01*
X6339361Y-5237256D01*
X6329585Y-5213596D01*
X6311499Y-5195479D01*
X6287856Y-5185661D01*
X6262256Y-5185639D01*
X6238596Y-5195415D01*
X6220479Y-5213501D01*
X6210661Y-5237144D01*
X6210639Y-5262744D01*
X6220415Y-5286404D01*
X6238501Y-5304521D01*
X6262144Y-5314339D01*
X6287744Y-5314361D01*
X6311404Y-5304585D01*
X6329521Y-5286499D01*
X6339339Y-5262856D01*
X6339361Y-5237256D01*
X6339361Y-5387256D01*
X6329585Y-5363596D01*
X6311499Y-5345479D01*
X6287856Y-5335661D01*
X6262256Y-5335639D01*
X6254752Y-5338740D01*
X6220506Y-5304494D01*
X6211098Y-5298207D01*
X6200000Y-5296000D01*
X5926399Y-5296000D01*
X5936911Y-5293745D01*
X5948939Y-5266723D01*
X5949710Y-5237155D01*
X5939108Y-5209542D01*
X5936911Y-5206255D01*
X5923118Y-5203296D01*
X5921704Y-5204710D01*
X5921704Y-5201882D01*
X5918745Y-5188089D01*
X5891723Y-5176061D01*
X5862155Y-5175290D01*
X5834542Y-5185892D01*
X5831255Y-5188089D01*
X5828296Y-5201882D01*
X5875000Y-5248586D01*
X5921704Y-5201882D01*
X5921704Y-5204710D01*
X5876414Y-5250000D01*
X5876971Y-5250557D01*
X5875557Y-5251971D01*
X5875000Y-5251414D01*
X5873586Y-5252828D01*
X5873586Y-5250000D01*
X5826882Y-5203296D01*
X5813089Y-5206255D01*
X5801061Y-5233277D01*
X5800290Y-5262845D01*
X5810892Y-5290458D01*
X5813089Y-5293745D01*
X5826882Y-5296704D01*
X5873586Y-5250000D01*
X5873586Y-5252828D01*
X5828296Y-5298118D01*
X5829643Y-5304395D01*
X5829494Y-5304494D01*
X5812988Y-5321000D01*
X5798126Y-5321000D01*
X5802491Y-5310489D01*
X5802509Y-5289603D01*
X5794533Y-5270300D01*
X5779778Y-5255519D01*
X5766478Y-5249996D01*
X5779700Y-5244533D01*
X5794481Y-5229778D01*
X5802491Y-5210489D01*
X5802509Y-5189603D01*
X5798128Y-5179000D01*
X5825000Y-5179000D01*
X5836098Y-5176793D01*
X5845506Y-5170506D01*
X5854745Y-5161267D01*
X5862144Y-5164339D01*
X5887744Y-5164361D01*
X5911404Y-5154585D01*
X5929521Y-5136499D01*
X5939339Y-5112856D01*
X5939361Y-5087256D01*
X5929585Y-5063596D01*
X5920006Y-5054000D01*
X5968898Y-5054000D01*
X5975894Y-5061009D01*
X5991509Y-5067493D01*
X6008417Y-5067507D01*
X6024043Y-5061051D01*
X6036009Y-5049106D01*
X6042493Y-5033491D01*
X6042507Y-5016583D01*
X6036051Y-5000957D01*
X6024106Y-4988991D01*
X6008491Y-4982507D01*
X5991583Y-4982493D01*
X5975957Y-4988949D01*
X5968894Y-4996000D01*
X5939840Y-4996000D01*
X5939840Y-4838718D01*
X5930587Y-4814763D01*
X5928827Y-4812129D01*
X5916052Y-4810363D01*
X5914637Y-4811777D01*
X5914637Y-4808948D01*
X5912871Y-4796173D01*
X5889390Y-4785778D01*
X5863718Y-4785160D01*
X5839763Y-4794413D01*
X5837129Y-4796173D01*
X5835363Y-4808948D01*
X5875000Y-4848586D01*
X5914637Y-4808948D01*
X5914637Y-4811777D01*
X5876414Y-4850000D01*
X5916052Y-4889637D01*
X5928827Y-4887871D01*
X5939222Y-4864390D01*
X5939840Y-4838718D01*
X5939840Y-4996000D01*
X5906132Y-4996000D01*
X5921218Y-4980940D01*
X5929541Y-4960898D01*
X5929559Y-4939197D01*
X5921272Y-4919140D01*
X5908437Y-4906282D01*
X5910237Y-4905587D01*
X5912871Y-4903827D01*
X5914637Y-4891052D01*
X5875000Y-4851414D01*
X5873586Y-4852828D01*
X5873586Y-4850000D01*
X5833948Y-4810363D01*
X5821173Y-4812129D01*
X5810778Y-4835610D01*
X5810160Y-4861282D01*
X5819413Y-4885237D01*
X5821173Y-4887871D01*
X5833948Y-4889637D01*
X5873586Y-4850000D01*
X5873586Y-4852828D01*
X5835363Y-4891052D01*
X5837129Y-4903827D01*
X5839779Y-4905000D01*
X5825000Y-4905000D01*
X5807779Y-4908425D01*
X5801646Y-4912524D01*
X5802491Y-4910489D01*
X5802509Y-4889603D01*
X5794533Y-4870300D01*
X5779778Y-4855519D01*
X5779747Y-4855506D01*
X5784145Y-4853805D01*
X5786643Y-4852136D01*
X5788159Y-4839573D01*
X5750000Y-4801414D01*
X5711841Y-4839573D01*
X5713357Y-4852136D01*
X5720606Y-4855340D01*
X5720300Y-4855467D01*
X5705519Y-4870222D01*
X5697509Y-4889511D01*
X5697491Y-4910397D01*
X5705467Y-4929700D01*
X5720222Y-4944481D01*
X5733521Y-4950004D01*
X5721429Y-4955000D01*
X5525000Y-4955000D01*
X5512776Y-4957432D01*
X5512776Y-4889045D01*
X5503805Y-4865855D01*
X5502136Y-4863357D01*
X5489573Y-4861841D01*
X5451414Y-4900000D01*
X5489573Y-4938159D01*
X5502136Y-4936643D01*
X5512190Y-4913902D01*
X5512776Y-4889045D01*
X5512776Y-4957432D01*
X5507779Y-4958425D01*
X5493180Y-4968180D01*
X5492874Y-4968638D01*
X5479778Y-4955519D01*
X5479747Y-4955506D01*
X5484145Y-4953805D01*
X5486643Y-4952136D01*
X5488159Y-4939573D01*
X5450000Y-4901414D01*
X5448586Y-4902828D01*
X5448586Y-4900000D01*
X5410427Y-4861841D01*
X5404141Y-4862599D01*
X5403827Y-4862129D01*
X5391052Y-4860363D01*
X5351414Y-4900000D01*
X5391052Y-4939637D01*
X5403827Y-4937871D01*
X5404041Y-4937388D01*
X5410427Y-4938159D01*
X5448586Y-4900000D01*
X5448586Y-4902828D01*
X5411841Y-4939573D01*
X5413357Y-4952136D01*
X5420606Y-4955340D01*
X5420300Y-4955467D01*
X5405519Y-4970222D01*
X5405196Y-4971000D01*
X5389637Y-4971000D01*
X5389637Y-4941052D01*
X5350000Y-4901414D01*
X5348586Y-4902828D01*
X5348586Y-4900000D01*
X5308948Y-4860363D01*
X5296173Y-4862129D01*
X5285778Y-4885610D01*
X5285160Y-4911282D01*
X5294413Y-4935237D01*
X5296173Y-4937871D01*
X5308948Y-4939637D01*
X5348586Y-4900000D01*
X5348586Y-4902828D01*
X5310363Y-4941052D01*
X5312129Y-4953827D01*
X5335610Y-4964222D01*
X5361282Y-4964840D01*
X5385237Y-4955587D01*
X5387871Y-4953827D01*
X5389637Y-4941052D01*
X5389637Y-4971000D01*
X5375000Y-4971000D01*
X5366346Y-4972721D01*
X5360898Y-4970459D01*
X5339197Y-4970441D01*
X5319140Y-4978728D01*
X5303782Y-4994060D01*
X5302976Y-4996000D01*
X5239637Y-4996000D01*
X5239637Y-4866052D01*
X5200000Y-4826414D01*
X5160363Y-4866052D01*
X5162129Y-4878827D01*
X5185610Y-4889222D01*
X5211282Y-4889840D01*
X5235237Y-4880587D01*
X5237871Y-4878827D01*
X5239637Y-4866052D01*
X5239637Y-4996000D01*
X5200654Y-4996000D01*
X5200659Y-4989197D01*
X5192372Y-4969140D01*
X5177040Y-4953782D01*
X5156998Y-4945459D01*
X5135297Y-4945441D01*
X5115240Y-4953728D01*
X5099882Y-4969060D01*
X5091559Y-4989102D01*
X5091541Y-5010803D01*
X5099828Y-5030860D01*
X5114942Y-5046000D01*
X5040912Y-5046000D01*
X5007669Y-5012757D01*
X5008441Y-5010898D01*
X5008459Y-4989197D01*
X5000172Y-4969140D01*
X4984840Y-4953782D01*
X4964798Y-4945459D01*
X4943097Y-4945441D01*
X4923040Y-4953728D01*
X4907682Y-4969060D01*
X4899359Y-4989102D01*
X4899341Y-5010803D01*
X4907628Y-5030860D01*
X4922960Y-5046218D01*
X4943002Y-5054541D01*
X4964703Y-5054559D01*
X4966645Y-5053757D01*
X5008394Y-5095506D01*
X5017802Y-5101793D01*
X5017802Y-5101793D01*
X5028900Y-5104000D01*
X5237702Y-5104000D01*
X5232507Y-5116509D01*
X5232493Y-5133238D01*
X5229778Y-5130519D01*
X5210489Y-5122509D01*
X5189603Y-5122491D01*
X5170300Y-5130467D01*
X5155519Y-5145222D01*
X5149996Y-5158521D01*
X5144533Y-5145300D01*
X5129778Y-5130519D01*
X5110489Y-5122509D01*
X5089603Y-5122491D01*
X5070300Y-5130467D01*
X5055519Y-5145222D01*
X5055196Y-5146000D01*
X5044823Y-5146000D01*
X5044533Y-5145300D01*
X5029778Y-5130519D01*
X5010489Y-5122509D01*
X4989603Y-5122491D01*
X4970300Y-5130467D01*
X4955519Y-5145222D01*
X4955196Y-5146000D01*
X4944823Y-5146000D01*
X4944533Y-5145300D01*
X4929778Y-5130519D01*
X4910489Y-5122509D01*
X4889603Y-5122491D01*
X4870300Y-5130467D01*
X4855519Y-5145222D01*
X4849996Y-5158521D01*
X4844533Y-5145300D01*
X4829778Y-5130519D01*
X4810489Y-5122509D01*
X4789603Y-5122491D01*
X4771429Y-5130000D01*
X4764840Y-5130000D01*
X4764840Y-5063718D01*
X4755587Y-5039763D01*
X4753827Y-5037129D01*
X4741052Y-5035363D01*
X4739637Y-5036777D01*
X4739637Y-5033948D01*
X4737871Y-5021173D01*
X4714390Y-5010778D01*
X4688718Y-5010160D01*
X4664763Y-5019413D01*
X4662129Y-5021173D01*
X4660363Y-5033948D01*
X4700000Y-5073586D01*
X4739637Y-5033948D01*
X4739637Y-5036777D01*
X4701414Y-5075000D01*
X4741052Y-5114637D01*
X4753827Y-5112871D01*
X4764222Y-5089390D01*
X4764840Y-5063718D01*
X4764840Y-5130000D01*
X4736116Y-5130000D01*
X4737871Y-5128827D01*
X4739637Y-5116052D01*
X4700000Y-5076414D01*
X4660363Y-5116052D01*
X4662129Y-5128827D01*
X4664779Y-5130000D01*
X4628529Y-5130000D01*
X4619156Y-5126108D01*
X4630860Y-5121272D01*
X4643718Y-5108437D01*
X4644413Y-5110237D01*
X4646173Y-5112871D01*
X4658948Y-5114637D01*
X4698586Y-5075000D01*
X4658948Y-5035363D01*
X4646173Y-5037129D01*
X4644053Y-5041917D01*
X4630940Y-5028782D01*
X4610898Y-5020459D01*
X4589197Y-5020441D01*
X4569140Y-5028728D01*
X4553782Y-5044060D01*
X4545459Y-5064102D01*
X4545441Y-5085803D01*
X4553728Y-5105860D01*
X4569060Y-5121218D01*
X4580842Y-5126111D01*
X4570300Y-5130467D01*
X4555519Y-5145222D01*
X4547509Y-5164511D01*
X4547491Y-5185397D01*
X4555467Y-5204700D01*
X4570222Y-5219481D01*
X4589511Y-5227491D01*
X4610397Y-5227509D01*
X4628571Y-5220000D01*
X4671471Y-5220000D01*
X4689511Y-5227491D01*
X4710397Y-5227509D01*
X4728571Y-5220000D01*
X4771471Y-5220000D01*
X4789511Y-5227491D01*
X4810397Y-5227509D01*
X4829700Y-5219533D01*
X4844481Y-5204778D01*
X4850004Y-5191478D01*
X4855467Y-5204700D01*
X4870222Y-5219481D01*
X4889511Y-5227491D01*
X4910397Y-5227509D01*
X4929700Y-5219533D01*
X4944481Y-5204778D01*
X4944804Y-5204000D01*
X4955177Y-5204000D01*
X4955467Y-5204700D01*
X4970222Y-5219481D01*
X4989511Y-5227491D01*
X5010397Y-5227509D01*
X5029700Y-5219533D01*
X5044481Y-5204778D01*
X5044804Y-5204000D01*
X5055177Y-5204000D01*
X5055467Y-5204700D01*
X5070222Y-5219481D01*
X5089511Y-5227491D01*
X5110397Y-5227509D01*
X5129700Y-5219533D01*
X5144481Y-5204778D01*
X5150004Y-5191478D01*
X5155467Y-5204700D01*
X5170222Y-5219481D01*
X5189511Y-5227491D01*
X5210397Y-5227509D01*
X5229700Y-5219533D01*
X5244481Y-5204778D01*
X5252491Y-5185489D01*
X5252509Y-5164603D01*
X5251051Y-5161074D01*
X5266509Y-5167493D01*
X5276489Y-5167501D01*
X5304494Y-5195506D01*
X5313902Y-5201793D01*
X5325000Y-5204000D01*
X5397496Y-5204000D01*
X5397491Y-5210397D01*
X5401872Y-5221000D01*
X5400000Y-5221000D01*
X5388902Y-5223207D01*
X5379494Y-5229494D01*
X5312988Y-5296000D01*
X4850000Y-5296000D01*
X4838902Y-5298207D01*
X4829494Y-5304494D01*
X4711188Y-5422800D01*
X4710489Y-5422509D01*
X4689603Y-5422491D01*
X4670300Y-5430467D01*
X4655519Y-5445222D01*
X4652500Y-5452492D01*
X4652500Y-5442527D01*
X4648694Y-5433339D01*
X4641661Y-5426306D01*
X4632473Y-5422500D01*
X4622527Y-5422500D01*
X4567527Y-5422500D01*
X4558339Y-5426306D01*
X4551306Y-5433339D01*
X4547500Y-5442527D01*
X4547500Y-5452473D01*
X4547500Y-5461488D01*
X4495255Y-5513733D01*
X4487856Y-5510661D01*
X4462256Y-5510639D01*
X4438596Y-5520415D01*
X4420479Y-5538501D01*
X4410661Y-5562144D01*
X4410639Y-5587744D01*
X4420415Y-5611404D01*
X4438501Y-5629521D01*
X4462144Y-5639339D01*
X4487744Y-5639361D01*
X4511404Y-5629585D01*
X4529521Y-5611499D01*
X4539339Y-5587856D01*
X4539361Y-5562256D01*
X4536260Y-5554752D01*
X4564688Y-5526324D01*
X4567527Y-5527500D01*
X4577473Y-5527500D01*
X4632473Y-5527500D01*
X4641661Y-5523694D01*
X4648694Y-5516661D01*
X4652500Y-5507473D01*
X4652500Y-5497527D01*
X4652500Y-5497520D01*
X4655467Y-5504700D01*
X4670222Y-5519481D01*
X4689511Y-5527491D01*
X4710397Y-5527509D01*
X4729700Y-5519533D01*
X4744481Y-5504778D01*
X4750004Y-5491478D01*
X4755467Y-5504700D01*
X4770222Y-5519481D01*
X4789511Y-5527491D01*
X4810397Y-5527509D01*
X4829700Y-5519533D01*
X4844481Y-5504778D01*
X4850004Y-5491478D01*
X4855467Y-5504700D01*
X4861647Y-5510891D01*
X4838596Y-5520415D01*
X4828994Y-5530000D01*
X4825000Y-5530000D01*
X4807779Y-5533425D01*
X4793180Y-5543180D01*
X4694495Y-5641865D01*
X4676266Y-5645491D01*
X4657125Y-5658281D01*
X4650000Y-5668944D01*
X4642875Y-5658281D01*
X4623734Y-5645491D01*
X4601156Y-5641000D01*
X4598844Y-5641000D01*
X4576266Y-5645491D01*
X4557125Y-5658281D01*
X4550000Y-5668944D01*
X4542875Y-5658281D01*
X4523734Y-5645491D01*
X4501156Y-5641000D01*
X4498844Y-5641000D01*
X4476266Y-5645491D01*
X4466180Y-5652230D01*
X4463672Y-5646174D01*
X4453826Y-5636328D01*
X4440962Y-5631000D01*
X4409750Y-5631000D01*
X4401000Y-5639750D01*
X4401000Y-5699000D01*
X4401787Y-5699000D01*
X4401787Y-5701000D01*
X4401000Y-5701000D01*
X4401000Y-5760250D01*
X4409750Y-5769000D01*
X4440962Y-5769000D01*
X4453826Y-5763672D01*
X4463672Y-5753826D01*
X4466180Y-5747770D01*
X4476266Y-5754509D01*
X4498844Y-5759000D01*
X4501156Y-5759000D01*
X4523734Y-5754509D01*
X4542875Y-5741719D01*
X4550000Y-5731056D01*
X4557125Y-5741719D01*
X4576266Y-5754509D01*
X4598844Y-5759000D01*
X4601156Y-5759000D01*
X4623734Y-5754509D01*
X4642875Y-5741719D01*
X4650000Y-5731056D01*
X4657125Y-5741719D01*
X4676266Y-5754509D01*
X4698844Y-5759000D01*
X4701156Y-5759000D01*
X4723734Y-5754509D01*
X4742875Y-5741719D01*
X4755665Y-5722578D01*
X4759291Y-5704349D01*
X4781000Y-5682640D01*
X4781000Y-5690250D01*
X4789750Y-5699000D01*
X4849000Y-5699000D01*
X4849000Y-5698213D01*
X4851000Y-5698213D01*
X4851000Y-5699000D01*
X4851787Y-5699000D01*
X4851787Y-5701000D01*
X4851000Y-5701000D01*
X4851000Y-5760250D01*
X4859750Y-5769000D01*
X4890962Y-5769000D01*
X4903826Y-5763672D01*
X4913672Y-5753826D01*
X4916180Y-5747770D01*
X4926266Y-5754509D01*
X4948844Y-5759000D01*
X4951156Y-5759000D01*
X4973734Y-5754509D01*
X4992875Y-5741719D01*
X5000000Y-5731056D01*
X5007125Y-5741719D01*
X5026266Y-5754509D01*
X5048844Y-5759000D01*
X5051156Y-5759000D01*
X5073734Y-5754509D01*
X5092875Y-5741719D01*
X5100000Y-5731056D01*
X5107125Y-5741719D01*
X5126266Y-5754509D01*
X5148844Y-5759000D01*
X5151156Y-5759000D01*
X5173734Y-5754509D01*
X5187965Y-5745000D01*
X5394896Y-5745000D01*
X5388991Y-5750894D01*
X5382507Y-5766509D01*
X5382493Y-5783417D01*
X5388949Y-5799043D01*
X5394896Y-5805000D01*
X4849000Y-5805000D01*
X4849000Y-5760250D01*
X4849000Y-5701000D01*
X4789750Y-5701000D01*
X4781000Y-5709750D01*
X4781000Y-5727038D01*
X4781000Y-5740962D01*
X4786328Y-5753826D01*
X4796174Y-5763672D01*
X4809038Y-5769000D01*
X4840250Y-5769000D01*
X4849000Y-5760250D01*
X4849000Y-5805000D01*
X4418640Y-5805000D01*
X4382640Y-5769000D01*
X4390250Y-5769000D01*
X4399000Y-5760250D01*
X4399000Y-5701000D01*
X4398213Y-5701000D01*
X4398213Y-5699000D01*
X4399000Y-5699000D01*
X4399000Y-5639750D01*
X4390250Y-5631000D01*
X4359038Y-5631000D01*
X4346174Y-5636328D01*
X4345000Y-5637503D01*
X4345000Y-5625000D01*
X4341575Y-5607779D01*
X4331820Y-5593180D01*
X4256820Y-5518180D01*
X4242221Y-5508425D01*
X4225000Y-5505000D01*
X4070000Y-5505000D01*
X4070000Y-5451427D01*
X4088213Y-5458990D01*
X4111684Y-5459010D01*
X4133377Y-5450047D01*
X4149989Y-5433464D01*
X4150004Y-5433428D01*
X4166536Y-5449989D01*
X4188213Y-5458990D01*
X4211684Y-5459010D01*
X4233377Y-5450047D01*
X4242015Y-5441424D01*
X4244806Y-5448161D01*
X4251839Y-5455194D01*
X4261027Y-5459000D01*
X4270973Y-5459000D01*
X4338973Y-5459000D01*
X4348161Y-5455194D01*
X4355194Y-5448161D01*
X4359000Y-5438973D01*
X4359000Y-5429027D01*
X4359000Y-5379000D01*
X4362988Y-5379000D01*
X4363733Y-5379745D01*
X4360661Y-5387144D01*
X4360639Y-5412744D01*
X4370415Y-5436404D01*
X4388501Y-5454521D01*
X4412144Y-5464339D01*
X4437744Y-5464361D01*
X4461404Y-5454585D01*
X4479521Y-5436499D01*
X4489339Y-5412856D01*
X4489361Y-5387256D01*
X4479585Y-5363596D01*
X4461499Y-5345479D01*
X4437856Y-5335661D01*
X4412256Y-5335639D01*
X4404752Y-5338740D01*
X4395506Y-5329494D01*
X4386098Y-5323207D01*
X4375000Y-5321000D01*
X4250000Y-5321000D01*
X4238902Y-5323207D01*
X4229494Y-5329494D01*
X4216161Y-5342826D01*
X4211787Y-5341010D01*
X4188316Y-5340990D01*
X4166623Y-5349953D01*
X4150011Y-5366536D01*
X4149996Y-5366572D01*
X4133464Y-5350011D01*
X4111787Y-5341010D01*
X4088316Y-5340990D01*
X4070000Y-5348558D01*
X4070000Y-5218640D01*
X4108632Y-5180008D01*
X4110892Y-5180010D01*
X4131114Y-5171654D01*
X4132771Y-5170000D01*
X4167208Y-5170000D01*
X4168804Y-5171600D01*
X4189012Y-5179990D01*
X4210892Y-5180010D01*
X4231114Y-5171654D01*
X4246600Y-5156196D01*
X4254990Y-5135988D01*
X4255010Y-5114108D01*
X4246654Y-5093886D01*
X4231196Y-5078400D01*
X4223011Y-5075002D01*
X4231114Y-5071654D01*
X4246600Y-5056196D01*
X4254990Y-5035988D01*
X4255010Y-5014108D01*
X4250833Y-5004000D01*
X4262988Y-5004000D01*
X4279494Y-5020506D01*
X4288902Y-5026793D01*
X4288902Y-5026793D01*
X4300000Y-5029000D01*
X4367356Y-5029000D01*
X4370415Y-5036404D01*
X4388501Y-5054521D01*
X4412144Y-5064339D01*
X4425555Y-5064351D01*
X4413991Y-5075894D01*
X4407507Y-5091509D01*
X4407493Y-5108417D01*
X4413949Y-5124043D01*
X4425894Y-5136009D01*
X4441509Y-5142493D01*
X4458417Y-5142507D01*
X4474043Y-5136051D01*
X4486009Y-5124106D01*
X4492493Y-5108491D01*
X4492501Y-5098511D01*
X4520506Y-5070506D01*
X4526793Y-5061098D01*
X4529000Y-5050000D01*
X4529000Y-4987298D01*
X4541509Y-4992493D01*
X4558417Y-4992507D01*
X4574043Y-4986051D01*
X4586009Y-4974106D01*
X4592493Y-4958491D01*
X4592501Y-4948511D01*
X4649866Y-4891146D01*
X4655467Y-4904700D01*
X4670222Y-4919481D01*
X4689511Y-4927491D01*
X4710397Y-4927509D01*
X4728571Y-4920000D01*
X4950000Y-4920000D01*
X4967221Y-4916575D01*
X4981820Y-4906820D01*
X5047603Y-4841037D01*
X5053728Y-4855860D01*
X5069060Y-4871218D01*
X5089102Y-4879541D01*
X5110803Y-4879559D01*
X5130860Y-4871272D01*
X5143718Y-4858437D01*
X5144413Y-4860237D01*
X5146173Y-4862871D01*
X5158948Y-4864637D01*
X5198586Y-4825000D01*
X5198029Y-4824443D01*
X5199443Y-4823029D01*
X5200000Y-4823586D01*
X5200557Y-4823029D01*
X5201971Y-4824443D01*
X5201414Y-4825000D01*
X5241052Y-4864637D01*
X5253827Y-4862871D01*
X5264222Y-4839390D01*
X5264840Y-4813718D01*
X5257610Y-4795000D01*
X5281360Y-4795000D01*
X5295442Y-4809082D01*
X5295441Y-4810803D01*
X5303728Y-4830860D01*
X5316563Y-4843718D01*
X5314763Y-4844413D01*
X5312129Y-4846173D01*
X5310363Y-4858948D01*
X5350000Y-4898586D01*
X5389637Y-4858948D01*
X5387871Y-4846173D01*
X5385221Y-4845000D01*
X5418945Y-4845000D01*
X5415855Y-4846195D01*
X5413357Y-4847864D01*
X5411841Y-4860427D01*
X5450000Y-4898586D01*
X5488159Y-4860427D01*
X5486643Y-4847864D01*
X5479394Y-4844660D01*
X5479700Y-4844533D01*
X5494481Y-4829778D01*
X5502491Y-4810489D01*
X5502509Y-4789603D01*
X5494533Y-4770300D01*
X5479778Y-4755519D01*
X5466478Y-4749996D01*
X5479700Y-4744533D01*
X5494481Y-4729778D01*
X5502491Y-4710489D01*
X5502509Y-4689603D01*
X5498128Y-4679000D01*
X5625000Y-4679000D01*
X5636098Y-4676793D01*
X5642127Y-4672764D01*
X5638991Y-4675894D01*
X5632507Y-4691509D01*
X5632493Y-4708417D01*
X5637692Y-4721000D01*
X5631102Y-4721000D01*
X5624106Y-4713991D01*
X5608491Y-4707507D01*
X5591583Y-4707493D01*
X5575957Y-4713949D01*
X5563991Y-4725894D01*
X5557507Y-4741509D01*
X5557493Y-4758417D01*
X5563949Y-4774043D01*
X5575894Y-4786009D01*
X5591509Y-4792493D01*
X5608417Y-4792507D01*
X5624043Y-4786051D01*
X5631106Y-4779000D01*
X5690949Y-4779000D01*
X5687810Y-4786098D01*
X5687224Y-4810955D01*
X5696195Y-4834145D01*
X5697864Y-4836643D01*
X5710427Y-4838159D01*
X5748586Y-4800000D01*
X5748029Y-4799443D01*
X5749443Y-4798029D01*
X5750000Y-4798586D01*
X5750557Y-4798029D01*
X5751971Y-4799443D01*
X5751414Y-4800000D01*
X5789573Y-4838159D01*
X5802136Y-4836643D01*
X5812190Y-4813902D01*
X5812776Y-4789045D01*
X5808890Y-4779000D01*
X5825000Y-4779000D01*
X5836098Y-4776793D01*
X5845506Y-4770506D01*
X5862012Y-4754000D01*
X5955177Y-4754000D01*
X5955467Y-4754700D01*
X5970222Y-4769481D01*
X5983521Y-4775004D01*
X5970300Y-4780467D01*
X5955519Y-4795222D01*
X5947509Y-4814511D01*
X5947491Y-4835397D01*
X5955467Y-4854700D01*
X5970222Y-4869481D01*
X5983521Y-4875004D01*
X5970300Y-4880467D01*
X5955519Y-4895222D01*
X5947509Y-4914511D01*
X5947491Y-4935397D01*
X5955467Y-4954700D01*
X5970222Y-4969481D01*
X5989511Y-4977491D01*
X6010397Y-4977509D01*
X6029700Y-4969533D01*
X6044481Y-4954778D01*
X6052491Y-4935489D01*
X6052509Y-4914603D01*
X6044533Y-4895300D01*
X6029778Y-4880519D01*
X6016478Y-4874996D01*
X6029700Y-4869533D01*
X6044481Y-4854778D01*
X6044804Y-4854000D01*
X6093898Y-4854000D01*
X6100894Y-4861009D01*
X6116509Y-4867493D01*
X6133417Y-4867507D01*
X6149043Y-4861051D01*
X6161009Y-4849106D01*
X6167493Y-4833491D01*
X6167507Y-4816583D01*
X6161051Y-4800957D01*
X6149106Y-4788991D01*
X6133491Y-4782507D01*
X6116583Y-4782493D01*
X6100957Y-4788949D01*
X6093894Y-4796000D01*
X6044823Y-4796000D01*
X6044533Y-4795300D01*
X6029778Y-4780519D01*
X6016478Y-4774996D01*
X6029700Y-4769533D01*
X6044481Y-4754778D01*
X6052491Y-4735489D01*
X6052509Y-4714603D01*
X6044533Y-4695300D01*
X6029778Y-4680519D01*
X6016478Y-4674996D01*
X6029700Y-4669533D01*
X6044481Y-4654778D01*
X6052491Y-4635489D01*
X6052509Y-4614603D01*
X6051051Y-4611074D01*
X6066509Y-4617493D01*
X6083417Y-4617507D01*
X6099043Y-4611051D01*
X6111009Y-4599106D01*
X6117493Y-4583491D01*
X6117507Y-4566583D01*
X6111051Y-4550957D01*
X6099106Y-4538991D01*
X6083491Y-4532507D01*
X6066583Y-4532493D01*
X6051074Y-4538901D01*
X6052491Y-4535489D01*
X6052509Y-4514603D01*
X6044533Y-4495300D01*
X6029778Y-4480519D01*
X6016478Y-4474996D01*
X6029700Y-4469533D01*
X6044481Y-4454778D01*
X6052491Y-4435489D01*
X6052509Y-4414603D01*
X6044533Y-4395300D01*
X6029778Y-4380519D01*
X6016478Y-4374996D01*
X6029700Y-4369533D01*
X6044481Y-4354778D01*
X6052491Y-4335489D01*
X6052509Y-4314603D01*
X6044533Y-4295300D01*
X6029778Y-4280519D01*
X6022508Y-4277500D01*
X6032473Y-4277500D01*
X6041661Y-4273694D01*
X6048694Y-4266661D01*
X6052500Y-4257473D01*
X6052500Y-4247527D01*
X6052500Y-4192527D01*
X6048694Y-4183339D01*
X6041661Y-4176306D01*
X6032473Y-4172500D01*
X6022527Y-4172500D01*
X5967527Y-4172500D01*
X5958339Y-4176306D01*
X5951306Y-4183339D01*
X5947500Y-4192527D01*
X5947500Y-4202473D01*
X5947500Y-4257473D01*
X5951306Y-4266661D01*
X5958339Y-4273694D01*
X5967527Y-4277500D01*
X5977473Y-4277500D01*
X5977480Y-4277500D01*
X5970300Y-4280467D01*
X5955519Y-4295222D01*
X5947509Y-4314511D01*
X5947491Y-4335397D01*
X5955467Y-4354700D01*
X5970222Y-4369481D01*
X5983521Y-4375004D01*
X5970300Y-4380467D01*
X5955519Y-4395222D01*
X5947509Y-4414511D01*
X5947491Y-4435397D01*
X5955467Y-4454700D01*
X5970222Y-4469481D01*
X5983521Y-4475004D01*
X5970300Y-4480467D01*
X5955519Y-4495222D01*
X5947509Y-4514511D01*
X5947491Y-4535397D01*
X5951872Y-4546000D01*
X5875000Y-4546000D01*
X5862012Y-4546000D01*
X5845506Y-4529494D01*
X5836098Y-4523207D01*
X5825000Y-4521000D01*
X5798126Y-4521000D01*
X5802491Y-4510489D01*
X5802509Y-4489603D01*
X5794533Y-4470300D01*
X5779778Y-4455519D01*
X5766478Y-4449996D01*
X5779700Y-4444533D01*
X5794481Y-4429778D01*
X5802491Y-4410489D01*
X5802509Y-4389603D01*
X5794533Y-4370300D01*
X5779778Y-4355519D01*
X5766478Y-4349996D01*
X5779700Y-4344533D01*
X5794481Y-4329778D01*
X5802491Y-4310489D01*
X5802509Y-4289603D01*
X5794533Y-4270300D01*
X5779778Y-4255519D01*
X5766478Y-4249996D01*
X5779700Y-4244533D01*
X5794481Y-4229778D01*
X5802491Y-4210489D01*
X5802509Y-4189603D01*
X5794533Y-4170300D01*
X5779778Y-4155519D01*
X5760489Y-4147509D01*
X5739603Y-4147491D01*
X5720300Y-4155467D01*
X5705519Y-4170222D01*
X5697509Y-4189511D01*
X5697491Y-4210397D01*
X5705467Y-4229700D01*
X5720222Y-4244481D01*
X5733521Y-4250004D01*
X5720300Y-4255467D01*
X5705519Y-4270222D01*
X5697509Y-4289511D01*
X5697491Y-4310397D01*
X5705467Y-4329700D01*
X5720222Y-4344481D01*
X5733521Y-4350004D01*
X5720300Y-4355467D01*
X5705519Y-4370222D01*
X5697509Y-4389511D01*
X5697491Y-4410397D01*
X5705467Y-4429700D01*
X5720222Y-4444481D01*
X5733521Y-4450004D01*
X5720300Y-4455467D01*
X5705519Y-4470222D01*
X5697509Y-4489511D01*
X5697491Y-4510397D01*
X5705189Y-4529029D01*
X5704494Y-4529494D01*
X5612988Y-4621000D01*
X5498126Y-4621000D01*
X5502491Y-4610489D01*
X5502509Y-4589603D01*
X5494533Y-4570300D01*
X5479778Y-4555519D01*
X5466478Y-4549996D01*
X5479700Y-4544533D01*
X5494481Y-4529778D01*
X5502491Y-4510489D01*
X5502507Y-4492502D01*
X5508417Y-4492507D01*
X5524043Y-4486051D01*
X5536009Y-4474106D01*
X5542493Y-4458491D01*
X5542507Y-4441583D01*
X5536051Y-4425957D01*
X5524106Y-4413991D01*
X5508491Y-4407507D01*
X5502493Y-4407502D01*
X5502509Y-4389603D01*
X5494533Y-4370300D01*
X5479778Y-4355519D01*
X5466478Y-4349996D01*
X5479700Y-4344533D01*
X5494481Y-4329778D01*
X5502491Y-4310489D01*
X5502509Y-4289603D01*
X5494533Y-4270300D01*
X5479778Y-4255519D01*
X5472508Y-4252500D01*
X5482473Y-4252500D01*
X5491661Y-4248694D01*
X5498694Y-4241661D01*
X5502500Y-4232473D01*
X5502500Y-4222527D01*
X5502500Y-4188512D01*
X5587012Y-4104000D01*
X5679988Y-4104000D01*
X5626486Y-4157501D01*
X5616583Y-4157493D01*
X5600957Y-4163949D01*
X5588991Y-4175894D01*
X5582507Y-4191509D01*
X5582493Y-4208417D01*
X5588949Y-4224043D01*
X5600894Y-4236009D01*
X5616509Y-4242493D01*
X5633417Y-4242507D01*
X5649043Y-4236051D01*
X5661009Y-4224106D01*
X5667493Y-4208491D01*
X5667501Y-4198511D01*
X5737012Y-4129000D01*
X5862702Y-4129000D01*
X5857507Y-4141509D01*
X5857493Y-4158417D01*
X5863949Y-4174043D01*
X5875894Y-4186009D01*
X5891509Y-4192493D01*
X5908417Y-4192507D01*
X5924043Y-4186051D01*
X5936009Y-4174106D01*
X5942493Y-4158491D01*
X5942497Y-4154000D01*
X6325000Y-4154000D01*
X6336098Y-4151793D01*
X6345506Y-4145506D01*
X6372500Y-4118512D01*
X6372500Y-4136488D01*
X6328853Y-4180135D01*
X6310489Y-4172509D01*
X6289603Y-4172491D01*
X6270300Y-4180467D01*
X6255519Y-4195222D01*
X6247509Y-4214511D01*
X6247491Y-4235397D01*
X6255467Y-4254700D01*
X6270222Y-4269481D01*
X6283521Y-4275004D01*
X6270300Y-4280467D01*
X6255519Y-4295222D01*
X6247509Y-4314511D01*
X6247491Y-4335397D01*
X6255467Y-4354700D01*
X6270222Y-4369481D01*
X6283521Y-4375004D01*
X6270300Y-4380467D01*
X6255519Y-4395222D01*
X6247509Y-4414511D01*
X6247491Y-4435397D01*
X6255467Y-4454700D01*
X6270222Y-4469481D01*
X6283521Y-4475004D01*
X6270300Y-4480467D01*
X6255519Y-4495222D01*
X6247509Y-4514511D01*
X6247491Y-4535397D01*
X6255467Y-4554700D01*
X6270222Y-4569481D01*
X6283521Y-4575004D01*
X6270300Y-4580467D01*
X6255519Y-4595222D01*
X6247509Y-4614511D01*
X6247491Y-4635397D01*
X6255467Y-4654700D01*
X6270222Y-4669481D01*
X6283521Y-4675004D01*
X6270300Y-4680467D01*
X6255519Y-4695222D01*
X6247509Y-4714511D01*
X6247494Y-4731482D01*
X6204000Y-4687988D01*
X6204000Y-4275000D01*
X6201793Y-4263902D01*
X6195506Y-4254494D01*
X6167499Y-4226486D01*
X6167507Y-4216583D01*
X6161051Y-4200957D01*
X6149106Y-4188991D01*
X6133491Y-4182507D01*
X6116583Y-4182493D01*
X6100957Y-4188949D01*
X6088991Y-4200894D01*
X6082507Y-4216509D01*
X6082493Y-4233417D01*
X6088949Y-4249043D01*
X6100894Y-4261009D01*
X6116509Y-4267493D01*
X6126489Y-4267501D01*
X6146000Y-4287012D01*
X6146000Y-4700000D01*
X6148207Y-4711098D01*
X6154494Y-4720506D01*
X6247800Y-4813812D01*
X6247509Y-4814511D01*
X6247491Y-4835397D01*
X6255467Y-4854700D01*
X6270222Y-4869481D01*
X6283521Y-4875004D01*
X6270300Y-4880467D01*
X6255519Y-4895222D01*
X6247509Y-4914511D01*
X6247491Y-4935397D01*
X6255467Y-4954700D01*
X6270222Y-4969481D01*
X6289511Y-4977491D01*
X6310397Y-4977509D01*
X6329700Y-4969533D01*
X6344481Y-4954778D01*
X6352491Y-4935489D01*
X6352509Y-4914603D01*
X6344533Y-4895300D01*
X6329778Y-4880519D01*
X6316478Y-4874996D01*
X6329700Y-4869533D01*
X6344481Y-4854778D01*
X6352491Y-4835489D01*
X6352509Y-4814603D01*
X6344533Y-4795300D01*
X6329778Y-4780519D01*
X6316478Y-4774996D01*
X6329700Y-4769533D01*
X6344481Y-4754778D01*
X6352491Y-4735489D01*
X6352509Y-4714603D01*
X6344533Y-4695300D01*
X6329778Y-4680519D01*
X6316478Y-4674996D01*
X6329700Y-4669533D01*
X6344481Y-4654778D01*
X6352491Y-4635489D01*
X6352509Y-4614603D01*
X6344533Y-4595300D01*
X6329778Y-4580519D01*
X6316478Y-4574996D01*
X6329700Y-4569533D01*
X6344481Y-4554778D01*
X6352491Y-4535489D01*
X6352509Y-4514603D01*
X6344533Y-4495300D01*
X6329778Y-4480519D01*
X6316478Y-4474996D01*
X6329700Y-4469533D01*
X6344481Y-4454778D01*
X6352491Y-4435489D01*
X6352509Y-4414603D01*
X6344533Y-4395300D01*
X6329778Y-4380519D01*
X6316478Y-4374996D01*
X6329700Y-4369533D01*
X6344481Y-4354778D01*
X6344804Y-4354000D01*
X6380177Y-4354000D01*
X6380467Y-4354700D01*
X6395222Y-4369481D01*
X6395253Y-4369494D01*
X6390855Y-4371195D01*
X6388357Y-4372864D01*
X6386841Y-4385427D01*
X6425000Y-4423586D01*
X6463159Y-4385427D01*
X6461643Y-4372864D01*
X6454394Y-4369660D01*
X6454700Y-4369533D01*
X6469481Y-4354778D01*
X6477491Y-4335489D01*
X6477509Y-4314603D01*
X6469533Y-4295300D01*
X6454778Y-4280519D01*
X6454747Y-4280506D01*
X6459145Y-4278805D01*
X6461643Y-4277136D01*
X6463159Y-4264573D01*
X6425000Y-4226414D01*
X6386841Y-4264573D01*
X6388357Y-4277136D01*
X6395606Y-4280340D01*
X6395300Y-4280467D01*
X6380519Y-4295222D01*
X6380196Y-4296000D01*
X6344823Y-4296000D01*
X6344533Y-4295300D01*
X6329778Y-4280519D01*
X6316478Y-4274996D01*
X6329700Y-4269533D01*
X6344481Y-4254778D01*
X6350337Y-4240675D01*
X6362397Y-4228615D01*
X6362224Y-4235955D01*
X6371195Y-4259145D01*
X6372864Y-4261643D01*
X6385427Y-4263159D01*
X6423586Y-4225000D01*
X6423029Y-4224443D01*
X6424443Y-4223029D01*
X6425000Y-4223586D01*
X6463159Y-4185427D01*
X6461977Y-4175634D01*
X6466661Y-4173694D01*
X6473694Y-4166661D01*
X6477500Y-4157473D01*
X6477500Y-4147527D01*
X6477500Y-4092527D01*
X6473694Y-4083339D01*
X6466661Y-4076306D01*
X6457473Y-4072500D01*
X6447527Y-4072500D01*
X6418512Y-4072500D01*
X6462012Y-4029000D01*
X6582360Y-4029000D01*
G36*
X7845000Y-4270000D02*
X7831194Y-4270000D01*
X7831194Y-4108450D01*
X7809746Y-4051440D01*
X7804046Y-4042910D01*
X7782069Y-4030369D01*
X7780655Y-4031783D01*
X7780655Y-4028954D01*
X7768114Y-4006978D01*
X7712635Y-3981831D01*
X7651757Y-3979830D01*
X7594747Y-4001278D01*
X7586217Y-4006978D01*
X7573676Y-4028954D01*
X7677165Y-4132444D01*
X7780655Y-4028954D01*
X7780655Y-4031783D01*
X7678580Y-4133858D01*
X7782069Y-4237348D01*
X7804046Y-4224806D01*
X7829192Y-4169328D01*
X7831194Y-4108450D01*
X7831194Y-4270000D01*
X7750117Y-4270000D01*
X7759584Y-4266439D01*
X7768114Y-4260739D01*
X7780655Y-4238762D01*
X7677165Y-4135272D01*
X7675751Y-4136687D01*
X7675751Y-4133858D01*
X7572261Y-4030369D01*
X7550285Y-4042910D01*
X7525139Y-4098388D01*
X7523137Y-4159266D01*
X7544585Y-4216276D01*
X7550285Y-4224806D01*
X7572261Y-4237348D01*
X7675751Y-4133858D01*
X7675751Y-4136687D01*
X7573676Y-4238762D01*
X7586217Y-4260739D01*
X7606649Y-4270000D01*
X7365294Y-4270000D01*
X7365294Y-4188646D01*
X7355978Y-4164524D01*
X7354198Y-4161859D01*
X7341376Y-4160038D01*
X7301414Y-4200000D01*
X7341376Y-4239962D01*
X7354198Y-4238141D01*
X7364668Y-4214497D01*
X7365294Y-4188646D01*
X7365294Y-4270000D01*
X7339962Y-4270000D01*
X7339962Y-4241376D01*
X7300000Y-4201414D01*
X7260038Y-4241376D01*
X7261859Y-4254198D01*
X7285503Y-4264668D01*
X7311354Y-4265294D01*
X7335476Y-4255978D01*
X7338141Y-4254198D01*
X7339962Y-4241376D01*
X7339962Y-4270000D01*
X6753571Y-4270000D01*
X6754700Y-4269533D01*
X6769481Y-4254778D01*
X6777491Y-4235489D01*
X6777509Y-4214603D01*
X6769533Y-4195300D01*
X6754778Y-4180519D01*
X6741478Y-4174996D01*
X6754700Y-4169533D01*
X6769481Y-4154778D01*
X6777491Y-4135489D01*
X6777509Y-4114603D01*
X6769533Y-4095300D01*
X6769234Y-4095000D01*
X6831360Y-4095000D01*
X6944992Y-4208632D01*
X6944990Y-4210892D01*
X6953346Y-4231114D01*
X6968804Y-4246600D01*
X6989012Y-4254990D01*
X7010892Y-4255010D01*
X7031114Y-4246654D01*
X7046600Y-4231196D01*
X7049998Y-4223011D01*
X7053346Y-4231114D01*
X7068804Y-4246600D01*
X7089012Y-4254990D01*
X7110892Y-4255010D01*
X7131114Y-4246654D01*
X7146600Y-4231196D01*
X7149998Y-4223011D01*
X7153346Y-4231114D01*
X7168804Y-4246600D01*
X7189012Y-4254990D01*
X7210892Y-4255010D01*
X7231114Y-4246654D01*
X7243546Y-4234244D01*
X7244022Y-4235476D01*
X7245802Y-4238141D01*
X7258624Y-4239962D01*
X7298586Y-4200000D01*
X7258624Y-4160038D01*
X7245802Y-4161859D01*
X7243908Y-4166135D01*
X7231196Y-4153400D01*
X7223011Y-4150002D01*
X7231114Y-4146654D01*
X7245000Y-4132792D01*
X7245000Y-4134973D01*
X7248806Y-4144161D01*
X7255839Y-4151194D01*
X7260801Y-4153250D01*
X7260038Y-4158624D01*
X7300000Y-4198586D01*
X7339962Y-4158624D01*
X7339199Y-4153250D01*
X7344161Y-4151194D01*
X7351194Y-4144161D01*
X7355000Y-4134973D01*
X7355000Y-4125027D01*
X7355000Y-4065027D01*
X7351194Y-4055839D01*
X7344161Y-4048806D01*
X7334973Y-4045000D01*
X7329000Y-4045000D01*
X7329000Y-4025000D01*
X7326793Y-4013902D01*
X7320506Y-4004494D01*
X7279989Y-3963976D01*
X7845000Y-3963976D01*
X7845000Y-4270000D01*
X7845000Y-4270000D01*
G37*
X7845000Y-4270000D02*
X7831194Y-4270000D01*
X7831194Y-4108450D01*
X7809746Y-4051440D01*
X7804046Y-4042910D01*
X7782069Y-4030369D01*
X7780655Y-4031783D01*
X7780655Y-4028954D01*
X7768114Y-4006978D01*
X7712635Y-3981831D01*
X7651757Y-3979830D01*
X7594747Y-4001278D01*
X7586217Y-4006978D01*
X7573676Y-4028954D01*
X7677165Y-4132444D01*
X7780655Y-4028954D01*
X7780655Y-4031783D01*
X7678580Y-4133858D01*
X7782069Y-4237348D01*
X7804046Y-4224806D01*
X7829192Y-4169328D01*
X7831194Y-4108450D01*
X7831194Y-4270000D01*
X7750117Y-4270000D01*
X7759584Y-4266439D01*
X7768114Y-4260739D01*
X7780655Y-4238762D01*
X7677165Y-4135272D01*
X7675751Y-4136687D01*
X7675751Y-4133858D01*
X7572261Y-4030369D01*
X7550285Y-4042910D01*
X7525139Y-4098388D01*
X7523137Y-4159266D01*
X7544585Y-4216276D01*
X7550285Y-4224806D01*
X7572261Y-4237348D01*
X7675751Y-4133858D01*
X7675751Y-4136687D01*
X7573676Y-4238762D01*
X7586217Y-4260739D01*
X7606649Y-4270000D01*
X7365294Y-4270000D01*
X7365294Y-4188646D01*
X7355978Y-4164524D01*
X7354198Y-4161859D01*
X7341376Y-4160038D01*
X7301414Y-4200000D01*
X7341376Y-4239962D01*
X7354198Y-4238141D01*
X7364668Y-4214497D01*
X7365294Y-4188646D01*
X7365294Y-4270000D01*
X7339962Y-4270000D01*
X7339962Y-4241376D01*
X7300000Y-4201414D01*
X7260038Y-4241376D01*
X7261859Y-4254198D01*
X7285503Y-4264668D01*
X7311354Y-4265294D01*
X7335476Y-4255978D01*
X7338141Y-4254198D01*
X7339962Y-4241376D01*
X7339962Y-4270000D01*
X6753571Y-4270000D01*
X6754700Y-4269533D01*
X6769481Y-4254778D01*
X6777491Y-4235489D01*
X6777509Y-4214603D01*
X6769533Y-4195300D01*
X6754778Y-4180519D01*
X6741478Y-4174996D01*
X6754700Y-4169533D01*
X6769481Y-4154778D01*
X6777491Y-4135489D01*
X6777509Y-4114603D01*
X6769533Y-4095300D01*
X6769234Y-4095000D01*
X6831360Y-4095000D01*
X6944992Y-4208632D01*
X6944990Y-4210892D01*
X6953346Y-4231114D01*
X6968804Y-4246600D01*
X6989012Y-4254990D01*
X7010892Y-4255010D01*
X7031114Y-4246654D01*
X7046600Y-4231196D01*
X7049998Y-4223011D01*
X7053346Y-4231114D01*
X7068804Y-4246600D01*
X7089012Y-4254990D01*
X7110892Y-4255010D01*
X7131114Y-4246654D01*
X7146600Y-4231196D01*
X7149998Y-4223011D01*
X7153346Y-4231114D01*
X7168804Y-4246600D01*
X7189012Y-4254990D01*
X7210892Y-4255010D01*
X7231114Y-4246654D01*
X7243546Y-4234244D01*
X7244022Y-4235476D01*
X7245802Y-4238141D01*
X7258624Y-4239962D01*
X7298586Y-4200000D01*
X7258624Y-4160038D01*
X7245802Y-4161859D01*
X7243908Y-4166135D01*
X7231196Y-4153400D01*
X7223011Y-4150002D01*
X7231114Y-4146654D01*
X7245000Y-4132792D01*
X7245000Y-4134973D01*
X7248806Y-4144161D01*
X7255839Y-4151194D01*
X7260801Y-4153250D01*
X7260038Y-4158624D01*
X7300000Y-4198586D01*
X7339962Y-4158624D01*
X7339199Y-4153250D01*
X7344161Y-4151194D01*
X7351194Y-4144161D01*
X7355000Y-4134973D01*
X7355000Y-4125027D01*
X7355000Y-4065027D01*
X7351194Y-4055839D01*
X7344161Y-4048806D01*
X7334973Y-4045000D01*
X7329000Y-4045000D01*
X7329000Y-4025000D01*
X7326793Y-4013902D01*
X7320506Y-4004494D01*
X7279989Y-3963976D01*
X7845000Y-3963976D01*
X7845000Y-4270000D01*
M02*
