M48
;DRILL file {kicad (2014-jul-16 BZR unknown)-product} date Thu 16 Oct 2014 07:06:30 PM PDT
;FORMAT={2:4/ absolute / inch / suppress leading zeros}
FMAT,2
INCH,TZ
T1C0.025
T2C0.030
T3C0.032
T4C0.032
T5C0.039
T6C0.040
T7C0.047
T8C0.050
T9C0.125
T10C0.150
%
G90
G05
M72
T1
X42750Y-48750
X42800Y-49750
X43250Y-52500
X44000Y-51500
X44750Y-48750
X45240Y-47260
X45750Y-54500
X46000Y-46250
X46000Y-48000
X46500Y-53750
X46990Y-54240
X48000Y-55750
X48250Y-57250
X49500Y-49750
X49500Y-54250
X50500Y-54250
X51500Y-54500
X52125Y-56875
X52250Y-44500
X52750Y-49500
X53000Y-57000
X53750Y-49500
X55000Y-46500
X55500Y-46500
X55500Y-47500
X55750Y-42750
X55750Y-44250
X55750Y-45500
X57750Y-56500
X58250Y-51750
X58250Y-52750
X58750Y-44250
X59500Y-54750
X59530Y-42250
X59750Y-54250
X60000Y-53750
X60250Y-41750
X60750Y-52250
X60750Y-57750
X61000Y-51750
X64000Y-43750
X66000Y-48750
X66500Y-40750
X66500Y-53500
X67000Y-41250
X67000Y-43750
X67000Y-55750
X67000Y-58200
X67500Y-49000
X67750Y-48250
X68750Y-45250
X69600Y-44850
X71000Y-45750
X71500Y-48750
X72250Y-40000
X72750Y-41500
X74000Y-45500
X74750Y-57000
X75500Y-45150
X76750Y-48250
X77400Y-53250
T2
X59500Y-55500
X59500Y-56500
X61250Y-40000
X61250Y-41000
X61250Y-42000
X61250Y-43000
X61250Y-53250
X61250Y-54250
X61250Y-55500
X61250Y-56500
X62000Y-40500
X62000Y-42500
X62000Y-53750
X62000Y-56000
X67250Y-46500
X67250Y-47500
X68000Y-47000
T3
X41750Y-43250
X41750Y-44250
X43250Y-40500
X43250Y-41500
X43250Y-42750
X43250Y-43750
X44750Y-44500
X45750Y-44500
X49500Y-56250
X50500Y-51250
X50500Y-56250
X51500Y-51250
X51500Y-56250
X52039Y-58000
X52500Y-56250
X53500Y-56250
X53961Y-58000
X54500Y-56250
X54750Y-40250
X55750Y-40250
X57750Y-42250
X58750Y-42250
X76000Y-55000
X76750Y-50500
X76750Y-51500
X76750Y-52750
X76750Y-53750
X77000Y-55000
X78000Y-45000
X78000Y-46000
T4
X44000Y-45750
X44000Y-46750
X44000Y-47750
X44000Y-48750
X44500Y-52250
X44500Y-55250
X45500Y-52250
X45500Y-55250
X46500Y-52250
X46500Y-55250
X47000Y-45750
X47000Y-46750
X47000Y-47750
X47000Y-48750
X47500Y-52250
X47500Y-55250
X48500Y-52250
X48500Y-55250
X49500Y-52250
X49500Y-55250
X50500Y-52250
X50500Y-55250
X51500Y-52250
X51500Y-55250
X52500Y-52250
X52500Y-55250
X53500Y-52250
X53500Y-55250
X53750Y-42000
X53750Y-43000
X53750Y-44000
X53750Y-45000
X53750Y-46000
X53750Y-47000
X53750Y-48000
X54500Y-52250
X54500Y-55250
X55500Y-52250
X55500Y-55250
X56500Y-52250
X56500Y-55250
X56750Y-42000
X56750Y-43000
X56750Y-44000
X56750Y-45000
X56750Y-46000
X56750Y-47000
X56750Y-48000
X57500Y-52250
X57500Y-55250
X58000Y-44000
X58000Y-45000
X58000Y-46000
X58000Y-47000
X58000Y-48000
X58000Y-49000
X58000Y-50000
X58000Y-51000
X61000Y-44000
X61000Y-45000
X61000Y-46000
X61000Y-47000
X61000Y-48000
X61000Y-49000
X61000Y-50000
X61000Y-51000
X63000Y-40250
X63000Y-41250
X63000Y-42250
X63000Y-43250
X63000Y-45000
X63000Y-46000
X63000Y-47000
X63000Y-48000
X63000Y-49750
X63000Y-50750
X63000Y-51750
X63000Y-52750
X63000Y-54500
X63000Y-55500
X63000Y-56500
X63000Y-57500
X66000Y-40250
X66000Y-41250
X66000Y-42250
X66000Y-43250
X66000Y-45000
X66000Y-46000
X66000Y-47000
X66000Y-48000
X66000Y-49750
X66000Y-50750
X66000Y-51750
X66000Y-52750
X66000Y-54500
X66000Y-55500
X66000Y-56500
X66000Y-57500
X69500Y-44000
X69500Y-47000
X70500Y-44000
X70500Y-47000
X71500Y-44000
X71500Y-47000
X72500Y-44000
X72500Y-47000
X73500Y-44000
X73500Y-47000
X74500Y-44000
X74500Y-47000
X75500Y-44000
X75500Y-47000
X76500Y-44000
X76500Y-47000
T5
X44750Y-40750
X44750Y-41750
X44750Y-42750
X48250Y-50000
X75250Y-51750
X75250Y-52750
X75250Y-53750
T6
X40500Y-43250
X40500Y-44250
X40750Y-54000
X41000Y-47250
X41000Y-48250
X41000Y-49250
X41000Y-50250
X41000Y-51250
X41750Y-54000
X42000Y-47250
X42000Y-48250
X42000Y-49250
X42000Y-50250
X42000Y-51250
X42750Y-54000
X44750Y-56500
X44750Y-57750
X45500Y-51250
X45750Y-56500
X45750Y-57750
X46500Y-51250
X46750Y-56500
X46750Y-57750
X47500Y-51250
X47750Y-56500
X47750Y-57750
X48250Y-45000
X48250Y-46000
X48250Y-47500
X48250Y-48500
X48500Y-51250
X48750Y-57750
X49500Y-51250
X49750Y-45000
X49750Y-46000
X49750Y-47500
X49750Y-48500
X49750Y-57750
X51500Y-45500
X51500Y-47000
X51500Y-48500
X52500Y-45500
X52500Y-47000
X52500Y-48500
X54500Y-50000
X54500Y-51000
X55500Y-50000
X55500Y-51000
X56000Y-57750
X56500Y-50000
X56500Y-51000
X57000Y-57750
X58000Y-57750
X59000Y-57750
X62000Y-46750
X62000Y-47750
X62000Y-48750
X62000Y-49750
X62000Y-50750
X67750Y-49750
X68750Y-49750
X69250Y-41000
X69250Y-42000
X69250Y-56500
X69250Y-57500
X69500Y-48000
X69750Y-49750
X70250Y-41000
X70250Y-42000
X70250Y-56500
X70250Y-57500
X70500Y-48000
X70750Y-49750
X71250Y-41000
X71250Y-42000
X71250Y-56500
X71250Y-57500
X71750Y-49750
X72250Y-41000
X72250Y-42000
X72250Y-56500
X72250Y-57500
X72750Y-49750
X73250Y-41000
X73250Y-42000
X73250Y-56500
X73250Y-57500
X73750Y-49750
X75250Y-49550
X75250Y-50550
X78050Y-51750
X78050Y-52750
X78050Y-53750
T7
X56970Y-40250
X59530Y-40250
T8
X44250Y-50000
T9
X41339Y-41339
X41339Y-57087
X76772Y-41339
X76772Y-57087
T10
X51350Y-41750
X68650Y-52750
T0
M30
