%FSLAX36Y36*%
G04 Gerber Fmt 3.6, Leading zero omitted, Abs format (unit inch)*
G04 Created by KiCad (PCBNEW (2014-jul-16 BZR unknown)-product) date Thu 16 Oct 2014 07:06:33 PM PDT*
%MOIN*%
G01*
G04 APERTURE LIST*
%ADD10C,0.003937*%
%ADD11C,0.008000*%
%ADD12C,0.012000*%
%ADD13C,0.015000*%
%ADD14C,0.010000*%
%ADD15C,0.005906*%
G04 APERTURE END LIST*
D10*
D11*
X7266495Y-4814533D02*
X7264591Y-4812629D01*
X7260781Y-4806914D01*
X7258876Y-4803105D01*
X7256971Y-4797390D01*
X7255067Y-4787867D01*
X7255067Y-4780248D01*
X7256971Y-4770724D01*
X7258876Y-4765010D01*
X7260781Y-4761200D01*
X7264591Y-4755486D01*
X7266495Y-4753581D01*
X7298876Y-4797390D02*
X7295067Y-4799295D01*
X7287448Y-4799295D01*
X7283638Y-4797390D01*
X7281733Y-4795486D01*
X7279829Y-4791676D01*
X7279829Y-4780248D01*
X7281733Y-4776438D01*
X7283638Y-4774533D01*
X7287448Y-4772629D01*
X7295067Y-4772629D01*
X7298876Y-4774533D01*
X7312210Y-4814533D02*
X7314114Y-4812629D01*
X7317924Y-4806914D01*
X7319829Y-4803105D01*
X7321733Y-4797390D01*
X7323638Y-4787867D01*
X7323638Y-4780248D01*
X7321733Y-4770724D01*
X7319829Y-4765010D01*
X7317924Y-4761200D01*
X7314114Y-4755486D01*
X7312210Y-4753581D01*
X7371257Y-4763105D02*
X7373162Y-4761200D01*
X7376971Y-4759295D01*
X7386495Y-4759295D01*
X7390305Y-4761200D01*
X7392210Y-4763105D01*
X7394114Y-4766914D01*
X7394114Y-4770724D01*
X7392210Y-4776438D01*
X7369352Y-4799295D01*
X7394114Y-4799295D01*
X7418876Y-4759295D02*
X7422686Y-4759295D01*
X7426495Y-4761200D01*
X7428400Y-4763105D01*
X7430305Y-4766914D01*
X7432210Y-4774533D01*
X7432210Y-4784057D01*
X7430305Y-4791676D01*
X7428400Y-4795486D01*
X7426495Y-4797390D01*
X7422686Y-4799295D01*
X7418876Y-4799295D01*
X7415067Y-4797390D01*
X7413162Y-4795486D01*
X7411257Y-4791676D01*
X7409352Y-4784057D01*
X7409352Y-4774533D01*
X7411257Y-4766914D01*
X7413162Y-4763105D01*
X7415067Y-4761200D01*
X7418876Y-4759295D01*
X7470305Y-4799295D02*
X7447448Y-4799295D01*
X7458876Y-4799295D02*
X7458876Y-4759295D01*
X7455067Y-4765010D01*
X7451257Y-4768819D01*
X7447448Y-4770724D01*
X7504590Y-4772629D02*
X7504590Y-4799295D01*
X7495067Y-4757390D02*
X7485543Y-4785962D01*
X7510305Y-4785962D01*
X7576971Y-4761200D02*
X7573162Y-4759295D01*
X7567448Y-4759295D01*
X7561733Y-4761200D01*
X7557924Y-4765010D01*
X7556019Y-4768819D01*
X7554114Y-4776438D01*
X7554114Y-4782152D01*
X7556019Y-4789771D01*
X7557924Y-4793581D01*
X7561733Y-4797390D01*
X7567448Y-4799295D01*
X7571257Y-4799295D01*
X7576971Y-4797390D01*
X7578876Y-4795486D01*
X7578876Y-4782152D01*
X7571257Y-4782152D01*
X7596019Y-4799295D02*
X7596019Y-4772629D01*
X7596019Y-4780248D02*
X7597924Y-4776438D01*
X7599829Y-4774533D01*
X7603638Y-4772629D01*
X7607448Y-4772629D01*
X7637924Y-4799295D02*
X7637924Y-4778343D01*
X7636019Y-4774533D01*
X7632209Y-4772629D01*
X7624590Y-4772629D01*
X7620781Y-4774533D01*
X7637924Y-4797390D02*
X7634114Y-4799295D01*
X7624590Y-4799295D01*
X7620781Y-4797390D01*
X7618876Y-4793581D01*
X7618876Y-4789771D01*
X7620781Y-4785962D01*
X7624590Y-4784057D01*
X7634114Y-4784057D01*
X7637924Y-4782152D01*
X7656971Y-4799295D02*
X7656971Y-4772629D01*
X7656971Y-4776438D02*
X7658876Y-4774533D01*
X7662686Y-4772629D01*
X7668400Y-4772629D01*
X7672209Y-4774533D01*
X7674114Y-4778343D01*
X7674114Y-4799295D01*
X7674114Y-4778343D02*
X7676019Y-4774533D01*
X7679829Y-4772629D01*
X7685543Y-4772629D01*
X7689352Y-4774533D01*
X7691257Y-4778343D01*
X7691257Y-4799295D01*
X7716019Y-4799295D02*
X7712210Y-4797390D01*
X7710305Y-4793581D01*
X7710305Y-4759295D01*
X7731257Y-4799295D02*
X7731257Y-4772629D01*
X7731257Y-4759295D02*
X7729352Y-4761200D01*
X7731257Y-4763105D01*
X7733162Y-4761200D01*
X7731257Y-4759295D01*
X7731257Y-4763105D01*
X7767448Y-4797390D02*
X7763638Y-4799295D01*
X7756019Y-4799295D01*
X7752210Y-4797390D01*
X7750305Y-4795486D01*
X7748400Y-4791676D01*
X7748400Y-4780248D01*
X7750305Y-4776438D01*
X7752210Y-4774533D01*
X7756019Y-4772629D01*
X7763638Y-4772629D01*
X7767448Y-4774533D01*
X7784590Y-4799295D02*
X7784590Y-4759295D01*
X7801733Y-4799295D02*
X7801733Y-4778343D01*
X7799829Y-4774533D01*
X7796019Y-4772629D01*
X7790305Y-4772629D01*
X7786495Y-4774533D01*
X7784590Y-4776438D01*
X4426667Y-5883095D02*
X4413333Y-5864048D01*
X4403810Y-5883095D02*
X4403810Y-5843095D01*
X4419048Y-5843095D01*
X4422857Y-5845000D01*
X4424762Y-5846905D01*
X4426667Y-5850714D01*
X4426667Y-5856429D01*
X4424762Y-5860238D01*
X4422857Y-5862143D01*
X4419048Y-5864048D01*
X4403810Y-5864048D01*
X4443810Y-5862143D02*
X4457143Y-5862143D01*
X4462857Y-5883095D02*
X4443810Y-5883095D01*
X4443810Y-5843095D01*
X4462857Y-5843095D01*
X4474286Y-5843095D02*
X4487619Y-5883095D01*
X4500952Y-5843095D01*
X4514286Y-5879286D02*
X4516191Y-5881190D01*
X4514286Y-5883095D01*
X4512381Y-5881190D01*
X4514286Y-5879286D01*
X4514286Y-5883095D01*
X4586667Y-5879286D02*
X4584762Y-5881190D01*
X4579048Y-5883095D01*
X4575238Y-5883095D01*
X4569524Y-5881190D01*
X4565714Y-5877381D01*
X4563810Y-5873571D01*
X4561905Y-5865952D01*
X4561905Y-5860238D01*
X4563810Y-5852619D01*
X4565714Y-5848810D01*
X4569524Y-5845000D01*
X4575238Y-5843095D01*
X4579048Y-5843095D01*
X4584762Y-5845000D01*
X4586667Y-5846905D01*
X4655238Y-5883095D02*
X4632381Y-5883095D01*
X4643810Y-5883095D02*
X4643810Y-5843095D01*
X4640000Y-5848810D01*
X4636191Y-5852619D01*
X4632381Y-5854524D01*
X4689524Y-5843095D02*
X4681905Y-5843095D01*
X4678095Y-5845000D01*
X4676191Y-5846905D01*
X4672381Y-5852619D01*
X4670476Y-5860238D01*
X4670476Y-5875476D01*
X4672381Y-5879286D01*
X4674286Y-5881190D01*
X4678095Y-5883095D01*
X4685714Y-5883095D01*
X4689524Y-5881190D01*
X4691429Y-5879286D01*
X4693333Y-5875476D01*
X4693333Y-5865952D01*
X4691429Y-5862143D01*
X4689524Y-5860238D01*
X4685714Y-5858333D01*
X4678095Y-5858333D01*
X4674286Y-5860238D01*
X4672381Y-5862143D01*
X4670476Y-5865952D01*
X4718095Y-5843095D02*
X4725714Y-5843095D01*
X4729524Y-5845000D01*
X4733333Y-5848810D01*
X4735238Y-5856429D01*
X4735238Y-5869762D01*
X4733333Y-5877381D01*
X4729524Y-5881190D01*
X4725714Y-5883095D01*
X4718095Y-5883095D01*
X4714286Y-5881190D01*
X4710476Y-5877381D01*
X4708571Y-5869762D01*
X4708571Y-5856429D01*
X4710476Y-5848810D01*
X4714286Y-5845000D01*
X4718095Y-5843095D01*
X4775238Y-5879286D02*
X4773333Y-5881190D01*
X4767619Y-5883095D01*
X4763810Y-5883095D01*
X4758095Y-5881190D01*
X4754286Y-5877381D01*
X4752381Y-5873571D01*
X4750476Y-5865952D01*
X4750476Y-5860238D01*
X4752381Y-5852619D01*
X4754286Y-5848810D01*
X4758095Y-5845000D01*
X4763810Y-5843095D01*
X4767619Y-5843095D01*
X4773333Y-5845000D01*
X4775238Y-5846905D01*
X4786667Y-5843095D02*
X4809524Y-5843095D01*
X4798095Y-5883095D02*
X4798095Y-5843095D01*
X4820952Y-5846905D02*
X4822857Y-5845000D01*
X4826667Y-5843095D01*
X4836190Y-5843095D01*
X4840000Y-5845000D01*
X4841905Y-5846905D01*
X4843810Y-5850714D01*
X4843810Y-5854524D01*
X4841905Y-5860238D01*
X4819048Y-5883095D01*
X4843810Y-5883095D01*
X4868571Y-5843095D02*
X4872381Y-5843095D01*
X4876190Y-5845000D01*
X4878095Y-5846905D01*
X4880000Y-5850714D01*
X4881905Y-5858333D01*
X4881905Y-5867857D01*
X4880000Y-5875476D01*
X4878095Y-5879286D01*
X4876190Y-5881190D01*
X4872381Y-5883095D01*
X4868571Y-5883095D01*
X4864762Y-5881190D01*
X4862857Y-5879286D01*
X4860952Y-5875476D01*
X4859048Y-5867857D01*
X4859048Y-5858333D01*
X4860952Y-5850714D01*
X4862857Y-5846905D01*
X4864762Y-5845000D01*
X4868571Y-5843095D01*
X4920000Y-5883095D02*
X4897143Y-5883095D01*
X4908571Y-5883095D02*
X4908571Y-5843095D01*
X4904762Y-5848810D01*
X4900952Y-5852619D01*
X4897143Y-5854524D01*
X4954286Y-5856429D02*
X4954286Y-5883095D01*
X4944762Y-5841190D02*
X4935238Y-5869762D01*
X4960000Y-5869762D01*
X4391429Y-5538095D02*
X4368571Y-5538095D01*
X4380000Y-5538095D02*
X4380000Y-5498095D01*
X4376191Y-5503810D01*
X4372381Y-5507619D01*
X4368571Y-5509524D01*
X5386429Y-4143095D02*
X5363571Y-4143095D01*
X5375000Y-4143095D02*
X5375000Y-4103095D01*
X5371191Y-4108810D01*
X5367381Y-4112619D01*
X5363571Y-4114524D01*
X6711429Y-5793095D02*
X6688571Y-5793095D01*
X6700000Y-5793095D02*
X6700000Y-5753095D01*
X6696191Y-5758810D01*
X6692381Y-5762619D01*
X6688571Y-5764524D01*
X7436429Y-4893095D02*
X7413571Y-4893095D01*
X7425000Y-4893095D02*
X7425000Y-4853095D01*
X7421191Y-4858810D01*
X7417381Y-4862619D01*
X7413571Y-4864524D01*
X6311429Y-5393095D02*
X6288571Y-5393095D01*
X6300000Y-5393095D02*
X6300000Y-5353095D01*
X6296191Y-5358810D01*
X6292381Y-5362619D01*
X6288571Y-5364524D01*
X6311429Y-4918095D02*
X6288571Y-4918095D01*
X6300000Y-4918095D02*
X6300000Y-4878095D01*
X6296191Y-4883810D01*
X6292381Y-4887619D01*
X6288571Y-4889524D01*
X6261429Y-4443095D02*
X6238571Y-4443095D01*
X6250000Y-4443095D02*
X6250000Y-4403095D01*
X6246191Y-4408810D01*
X6242381Y-4412619D01*
X6238571Y-4414524D01*
X6261429Y-3993095D02*
X6238571Y-3993095D01*
X6250000Y-3993095D02*
X6250000Y-3953095D01*
X6246191Y-3958810D01*
X6242381Y-3962619D01*
X6238571Y-3964524D01*
X6886429Y-4718095D02*
X6863571Y-4718095D01*
X6875000Y-4718095D02*
X6875000Y-4678095D01*
X6871191Y-4683810D01*
X6867381Y-4687619D01*
X6863571Y-4689524D01*
X5576429Y-5878095D02*
X5553571Y-5878095D01*
X5565000Y-5878095D02*
X5565000Y-5838095D01*
X5561191Y-5843810D01*
X5557381Y-5847619D01*
X5553571Y-5849524D01*
X4411429Y-5693095D02*
X4388571Y-5693095D01*
X4400000Y-5693095D02*
X4400000Y-5653095D01*
X4396191Y-5658810D01*
X4392381Y-5662619D01*
X4388571Y-5664524D01*
X7775000Y-5575000D02*
X7800000Y-5600000D01*
X7775000Y-5450000D02*
X7775000Y-5575000D01*
X7775000Y-5575000D02*
X7775000Y-5450000D01*
X7715238Y-5202857D02*
X7684762Y-5202857D01*
X7700000Y-5218095D02*
X7700000Y-5187619D01*
X5771905Y-4153095D02*
X5758571Y-4134048D01*
X5749048Y-4153095D02*
X5749048Y-4113095D01*
X5764286Y-4113095D01*
X5768095Y-4115000D01*
X5770000Y-4116905D01*
X5771905Y-4120714D01*
X5771905Y-4126429D01*
X5770000Y-4130238D01*
X5768095Y-4132143D01*
X5764286Y-4134048D01*
X5749048Y-4134048D01*
X5789048Y-4132143D02*
X5802381Y-4132143D01*
X5808095Y-4153095D02*
X5789048Y-4153095D01*
X5789048Y-4113095D01*
X5808095Y-4113095D01*
X5823333Y-4151190D02*
X5829048Y-4153095D01*
X5838571Y-4153095D01*
X5842381Y-4151190D01*
X5844286Y-4149286D01*
X5846190Y-4145476D01*
X5846190Y-4141667D01*
X5844286Y-4137857D01*
X5842381Y-4135952D01*
X5838571Y-4134048D01*
X5830952Y-4132143D01*
X5827143Y-4130238D01*
X5825238Y-4128333D01*
X5823333Y-4124524D01*
X5823333Y-4120714D01*
X5825238Y-4116905D01*
X5827143Y-4115000D01*
X5830952Y-4113095D01*
X5840476Y-4113095D01*
X5846190Y-4115000D01*
X5863333Y-4132143D02*
X5876667Y-4132143D01*
X5882381Y-4153095D02*
X5863333Y-4153095D01*
X5863333Y-4113095D01*
X5882381Y-4113095D01*
X5893810Y-4113095D02*
X5916667Y-4113095D01*
X5905238Y-4153095D02*
X5905238Y-4113095D01*
X3937008Y-5905512D02*
X3937008Y-3937008D01*
X7874016Y-5905512D02*
X3937008Y-5905512D01*
X7874016Y-3937008D02*
X7874016Y-5905512D01*
X3937008Y-3937008D02*
X7874016Y-3937008D01*
X5669286Y-5862143D02*
X5675000Y-5864048D01*
X5676905Y-5865952D01*
X5678810Y-5869762D01*
X5678810Y-5875476D01*
X5676905Y-5879286D01*
X5675000Y-5881190D01*
X5671190Y-5883095D01*
X5655952Y-5883095D01*
X5655952Y-5843095D01*
X5669286Y-5843095D01*
X5673095Y-5845000D01*
X5675000Y-5846905D01*
X5676905Y-5850714D01*
X5676905Y-5854524D01*
X5675000Y-5858333D01*
X5673095Y-5860238D01*
X5669286Y-5862143D01*
X5655952Y-5862143D01*
X5695952Y-5843095D02*
X5695952Y-5875476D01*
X5697857Y-5879286D01*
X5699762Y-5881190D01*
X5703571Y-5883095D01*
X5711190Y-5883095D01*
X5715000Y-5881190D01*
X5716905Y-5879286D01*
X5718810Y-5875476D01*
X5718810Y-5843095D01*
X5735952Y-5881190D02*
X5741667Y-5883095D01*
X5751190Y-5883095D01*
X5755000Y-5881190D01*
X5756905Y-5879286D01*
X5758810Y-5875476D01*
X5758810Y-5871667D01*
X5756905Y-5867857D01*
X5755000Y-5865952D01*
X5751190Y-5864048D01*
X5743571Y-5862143D01*
X5739762Y-5860238D01*
X5737857Y-5858333D01*
X5735952Y-5854524D01*
X5735952Y-5850714D01*
X5737857Y-5846905D01*
X5739762Y-5845000D01*
X5743571Y-5843095D01*
X5753095Y-5843095D01*
X5758810Y-5845000D01*
X5766429Y-5886905D02*
X5796905Y-5886905D01*
X5819762Y-5862143D02*
X5825476Y-5864048D01*
X5827381Y-5865952D01*
X5829286Y-5869762D01*
X5829286Y-5875476D01*
X5827381Y-5879286D01*
X5825476Y-5881190D01*
X5821667Y-5883095D01*
X5806429Y-5883095D01*
X5806429Y-5843095D01*
X5819762Y-5843095D01*
X5823571Y-5845000D01*
X5825476Y-5846905D01*
X5827381Y-5850714D01*
X5827381Y-5854524D01*
X5825476Y-5858333D01*
X5823571Y-5860238D01*
X5819762Y-5862143D01*
X5806429Y-5862143D01*
X5869286Y-5883095D02*
X5855952Y-5864048D01*
X5846429Y-5883095D02*
X5846429Y-5843095D01*
X5861667Y-5843095D01*
X5865476Y-5845000D01*
X5867381Y-5846905D01*
X5869286Y-5850714D01*
X5869286Y-5856429D01*
X5867381Y-5860238D01*
X5865476Y-5862143D01*
X5861667Y-5864048D01*
X5846429Y-5864048D01*
X5886429Y-5883095D02*
X5886429Y-5843095D01*
X5905476Y-5883095D02*
X5905476Y-5843095D01*
X5915000Y-5843095D01*
X5920714Y-5845000D01*
X5924524Y-5848810D01*
X5926429Y-5852619D01*
X5928333Y-5860238D01*
X5928333Y-5865952D01*
X5926429Y-5873571D01*
X5924524Y-5877381D01*
X5920714Y-5881190D01*
X5915000Y-5883095D01*
X5905476Y-5883095D01*
X5966429Y-5845000D02*
X5962619Y-5843095D01*
X5956905Y-5843095D01*
X5951191Y-5845000D01*
X5947381Y-5848810D01*
X5945476Y-5852619D01*
X5943571Y-5860238D01*
X5943571Y-5865952D01*
X5945476Y-5873571D01*
X5947381Y-5877381D01*
X5951191Y-5881190D01*
X5956905Y-5883095D01*
X5960714Y-5883095D01*
X5966429Y-5881190D01*
X5968333Y-5879286D01*
X5968333Y-5865952D01*
X5960714Y-5865952D01*
X5985476Y-5862143D02*
X5998810Y-5862143D01*
X6004524Y-5883095D02*
X5985476Y-5883095D01*
X5985476Y-5843095D01*
X6004524Y-5843095D01*
X6012143Y-5886905D02*
X6042619Y-5886905D01*
X6052143Y-5862143D02*
X6065476Y-5862143D01*
X6071190Y-5883095D02*
X6052143Y-5883095D01*
X6052143Y-5843095D01*
X6071190Y-5843095D01*
X6088333Y-5883095D02*
X6088333Y-5843095D01*
X6111190Y-5883095D01*
X6111190Y-5843095D01*
X6153095Y-5879286D02*
X6151190Y-5881190D01*
X6145476Y-5883095D01*
X6141667Y-5883095D01*
X6135952Y-5881190D01*
X6132143Y-5877381D01*
X6130238Y-5873571D01*
X6128333Y-5865952D01*
X6128333Y-5860238D01*
X6130238Y-5852619D01*
X6132143Y-5848810D01*
X6135952Y-5845000D01*
X6141667Y-5843095D01*
X6145476Y-5843095D01*
X6151190Y-5845000D01*
X6153095Y-5846905D01*
X6177857Y-5843095D02*
X6185476Y-5843095D01*
X6189286Y-5845000D01*
X6193095Y-5848810D01*
X6195000Y-5856429D01*
X6195000Y-5869762D01*
X6193095Y-5877381D01*
X6189286Y-5881190D01*
X6185476Y-5883095D01*
X6177857Y-5883095D01*
X6174048Y-5881190D01*
X6170238Y-5877381D01*
X6168333Y-5869762D01*
X6168333Y-5856429D01*
X6170238Y-5848810D01*
X6174048Y-5845000D01*
X6177857Y-5843095D01*
X6212143Y-5883095D02*
X6212143Y-5843095D01*
X6221667Y-5843095D01*
X6227381Y-5845000D01*
X6231190Y-5848810D01*
X6233095Y-5852619D01*
X6235000Y-5860238D01*
X6235000Y-5865952D01*
X6233095Y-5873571D01*
X6231190Y-5877381D01*
X6227381Y-5881190D01*
X6221667Y-5883095D01*
X6212143Y-5883095D01*
X6252143Y-5862143D02*
X6265476Y-5862143D01*
X6271190Y-5883095D02*
X6252143Y-5883095D01*
X6252143Y-5843095D01*
X6271190Y-5843095D01*
X6311190Y-5883095D02*
X6297857Y-5864048D01*
X6288333Y-5883095D02*
X6288333Y-5843095D01*
X6303571Y-5843095D01*
X6307381Y-5845000D01*
X6309286Y-5846905D01*
X6311190Y-5850714D01*
X6311190Y-5856429D01*
X6309286Y-5860238D01*
X6307381Y-5862143D01*
X6303571Y-5864048D01*
X6288333Y-5864048D01*
X6326429Y-5881190D02*
X6332143Y-5883095D01*
X6341667Y-5883095D01*
X6345476Y-5881190D01*
X6347381Y-5879286D01*
X6349286Y-5875476D01*
X6349286Y-5871667D01*
X6347381Y-5867857D01*
X6345476Y-5865952D01*
X6341667Y-5864048D01*
X6334048Y-5862143D01*
X6330238Y-5860238D01*
X6328333Y-5858333D01*
X6326429Y-5854524D01*
X6326429Y-5850714D01*
X6328333Y-5846905D01*
X6330238Y-5845000D01*
X6334048Y-5843095D01*
X6343571Y-5843095D01*
X6349286Y-5845000D01*
X6356905Y-5886905D02*
X6387381Y-5886905D01*
X6395000Y-5881190D02*
X6400714Y-5883095D01*
X6410238Y-5883095D01*
X6414048Y-5881190D01*
X6415952Y-5879286D01*
X6417857Y-5875476D01*
X6417857Y-5871667D01*
X6415952Y-5867857D01*
X6414048Y-5865952D01*
X6410238Y-5864048D01*
X6402619Y-5862143D01*
X6398810Y-5860238D01*
X6396905Y-5858333D01*
X6395000Y-5854524D01*
X6395000Y-5850714D01*
X6396905Y-5846905D01*
X6398810Y-5845000D01*
X6402619Y-5843095D01*
X6412143Y-5843095D01*
X6417857Y-5845000D01*
X6442619Y-5843095D02*
X6450238Y-5843095D01*
X6454048Y-5845000D01*
X6457857Y-5848810D01*
X6459762Y-5856429D01*
X6459762Y-5869762D01*
X6457857Y-5877381D01*
X6454048Y-5881190D01*
X6450238Y-5883095D01*
X6442619Y-5883095D01*
X6438810Y-5881190D01*
X6435000Y-5877381D01*
X6433095Y-5869762D01*
X6433095Y-5856429D01*
X6435000Y-5848810D01*
X6438810Y-5845000D01*
X6442619Y-5843095D01*
X6476905Y-5883095D02*
X6476905Y-5843095D01*
X6499762Y-5883095D01*
X6499762Y-5843095D01*
X6516905Y-5871667D02*
X6535952Y-5871667D01*
X6513095Y-5883095D02*
X6526429Y-5843095D01*
X6539762Y-5883095D01*
X6575952Y-5883095D02*
X6562619Y-5864048D01*
X6553095Y-5883095D02*
X6553095Y-5843095D01*
X6568333Y-5843095D01*
X6572143Y-5845000D01*
X6574048Y-5846905D01*
X6575952Y-5850714D01*
X6575952Y-5856429D01*
X6574048Y-5860238D01*
X6572143Y-5862143D01*
X6568333Y-5864048D01*
X6553095Y-5864048D01*
X3991429Y-4508095D02*
X3968571Y-4508095D01*
X3980000Y-4508095D02*
X3980000Y-4468095D01*
X3976191Y-4473810D01*
X3972381Y-4477619D01*
X3968571Y-4479524D01*
X5386429Y-5143095D02*
X5363571Y-5143095D01*
X5375000Y-5143095D02*
X5375000Y-5103095D01*
X5371191Y-5108810D01*
X5367381Y-5112619D01*
X5363571Y-5114524D01*
X4090048Y-5473695D02*
X4097667Y-5473695D01*
X4101476Y-5475600D01*
X4105286Y-5479410D01*
X4107190Y-5487029D01*
X4107190Y-5500362D01*
X4105286Y-5507981D01*
X4101476Y-5511790D01*
X4097667Y-5513695D01*
X4090048Y-5513695D01*
X4086238Y-5511790D01*
X4082429Y-5507981D01*
X4080524Y-5500362D01*
X4080524Y-5487029D01*
X4082429Y-5479410D01*
X4086238Y-5475600D01*
X4090048Y-5473695D01*
X4137667Y-5492743D02*
X4124333Y-5492743D01*
X4124333Y-5513695D02*
X4124333Y-5473695D01*
X4143381Y-5473695D01*
X4171952Y-5492743D02*
X4158619Y-5492743D01*
X4158619Y-5513695D02*
X4158619Y-5473695D01*
X4177667Y-5473695D01*
X4221476Y-5471790D02*
X4187190Y-5523219D01*
X4242429Y-5473695D02*
X4250048Y-5473695D01*
X4253857Y-5475600D01*
X4257667Y-5479410D01*
X4259571Y-5487029D01*
X4259571Y-5500362D01*
X4257667Y-5507981D01*
X4253857Y-5511790D01*
X4250048Y-5513695D01*
X4242429Y-5513695D01*
X4238619Y-5511790D01*
X4234810Y-5507981D01*
X4232905Y-5500362D01*
X4232905Y-5487029D01*
X4234810Y-5479410D01*
X4238619Y-5475600D01*
X4242429Y-5473695D01*
X4276714Y-5513695D02*
X4276714Y-5473695D01*
X4299571Y-5513695D01*
X4299571Y-5473695D01*
X5606429Y-5708095D02*
X5583571Y-5708095D01*
X5595000Y-5708095D02*
X5595000Y-5668095D01*
X5591191Y-5673810D01*
X5587381Y-5677619D01*
X5583571Y-5679524D01*
X6711429Y-4318095D02*
X6688571Y-4318095D01*
X6700000Y-4318095D02*
X6700000Y-4278095D01*
X6696191Y-4283810D01*
X6692381Y-4287619D01*
X6688571Y-4289524D01*
X4411429Y-5818095D02*
X4388571Y-5818095D01*
X4400000Y-5818095D02*
X4400000Y-5778095D01*
X4396191Y-5783810D01*
X4392381Y-5787619D01*
X4388571Y-5789524D01*
X7822143Y-5529524D02*
X7824048Y-5523810D01*
X7825952Y-5521905D01*
X7829762Y-5520000D01*
X7835476Y-5520000D01*
X7839286Y-5521905D01*
X7841190Y-5523810D01*
X7843095Y-5527619D01*
X7843095Y-5542857D01*
X7803095Y-5542857D01*
X7803095Y-5529524D01*
X7805000Y-5525714D01*
X7806905Y-5523810D01*
X7810714Y-5521905D01*
X7814524Y-5521905D01*
X7818333Y-5523810D01*
X7820238Y-5525714D01*
X7822143Y-5529524D01*
X7822143Y-5542857D01*
X7831667Y-5504762D02*
X7831667Y-5485714D01*
X7843095Y-5508571D02*
X7803095Y-5495238D01*
X7843095Y-5481905D01*
X7803095Y-5474286D02*
X7803095Y-5451429D01*
X7843095Y-5462857D02*
X7803095Y-5462857D01*
X7802857Y-5109286D02*
X7802857Y-5078810D01*
X7818095Y-5094048D02*
X7787619Y-5094048D01*
X7778095Y-5040714D02*
X7778095Y-5059762D01*
X7797143Y-5061667D01*
X7795238Y-5059762D01*
X7793333Y-5055952D01*
X7793333Y-5046429D01*
X7795238Y-5042619D01*
X7797143Y-5040714D01*
X7800952Y-5038810D01*
X7810476Y-5038810D01*
X7814286Y-5040714D01*
X7816190Y-5042619D01*
X7818095Y-5046429D01*
X7818095Y-5055952D01*
X7816190Y-5059762D01*
X7814286Y-5061667D01*
X7540238Y-5452857D02*
X7509762Y-5452857D01*
X7525000Y-5468095D02*
X7525000Y-5437619D01*
X4440238Y-4002857D02*
X4409762Y-4002857D01*
X4425000Y-4018095D02*
X4425000Y-3987619D01*
X4340238Y-4452857D02*
X4309762Y-4452857D01*
X4325000Y-4468095D02*
X4325000Y-4437619D01*
D12*
X4375000Y-4002000D02*
X4375000Y-4200000D01*
X4375000Y-4200000D02*
X4275000Y-4200000D01*
X4275000Y-4200000D02*
X4275000Y-4000000D01*
X4275000Y-4000000D02*
X4375000Y-4000000D01*
X4350000Y-4000000D02*
X4375000Y-4025000D01*
D13*
X4125000Y-4295000D02*
X4125000Y-4455000D01*
X4225000Y-4455000D02*
X4225000Y-4295000D01*
D12*
X4275000Y-4423000D02*
X4275000Y-4225000D01*
X4275000Y-4225000D02*
X4375000Y-4225000D01*
X4375000Y-4225000D02*
X4375000Y-4425000D01*
X4375000Y-4425000D02*
X4275000Y-4425000D01*
X4300000Y-4425000D02*
X4275000Y-4400000D01*
D13*
X5080000Y-5575000D02*
X4920000Y-5575000D01*
X4920000Y-5675000D02*
X5080000Y-5675000D01*
X4525000Y-5000000D02*
X4485000Y-5000000D01*
X4715000Y-5000000D02*
X4765000Y-5000000D01*
D14*
X4705000Y-4950000D02*
X4705000Y-5050000D01*
X4695000Y-4950000D02*
X4695000Y-5050000D01*
X4685000Y-4950000D02*
X4685000Y-5050000D01*
X4715000Y-4950000D02*
X4715000Y-5050000D01*
X4675000Y-4950000D02*
X4725000Y-5050000D01*
X4725000Y-4950000D02*
X4675000Y-5050000D01*
X4675000Y-4950000D02*
X4675000Y-5050000D01*
X4700000Y-4950000D02*
X4700000Y-5050000D01*
X4725000Y-5050000D02*
X4725000Y-4950000D01*
X4725000Y-4950000D02*
X4525000Y-4950000D01*
X4525000Y-4950000D02*
X4525000Y-5050000D01*
X4525000Y-5050000D02*
X4725000Y-5050000D01*
X7755000Y-5225000D02*
X7755000Y-5425000D01*
X7755000Y-5425000D02*
X7855000Y-5425000D01*
X7855000Y-5425000D02*
X7855000Y-5225000D01*
X7855000Y-5125000D02*
X7855000Y-5225000D01*
X7855000Y-5225000D02*
X7755000Y-5225000D01*
X7855000Y-5125000D02*
X7755000Y-5125000D01*
X7755000Y-5125000D02*
X7755000Y-5225000D01*
X4225000Y-5350000D02*
X4025000Y-5350000D01*
X4025000Y-5350000D02*
X4025000Y-5450000D01*
X4025000Y-5450000D02*
X4225000Y-5450000D01*
X4325000Y-5450000D02*
X4225000Y-5450000D01*
X4225000Y-5450000D02*
X4225000Y-5350000D01*
X4325000Y-5450000D02*
X4325000Y-5350000D01*
X4325000Y-5350000D02*
X4225000Y-5350000D01*
X3960000Y-5015000D02*
X3980000Y-5015000D01*
X3980000Y-5015000D02*
X3980000Y-4835000D01*
X3980000Y-4835000D02*
X3960000Y-4835000D01*
X4340000Y-4525000D02*
X4340000Y-5325000D01*
X4340000Y-5325000D02*
X3960000Y-5325000D01*
X3960000Y-5325000D02*
X3960000Y-4525000D01*
X3960000Y-4525000D02*
X4340000Y-4525000D01*
X5650000Y-5825000D02*
X5950000Y-5825000D01*
X5650000Y-5725000D02*
X5950000Y-5725000D01*
X5550000Y-5725000D02*
X5650000Y-5725000D01*
X5950000Y-5825000D02*
X5950000Y-5725000D01*
X5650000Y-5725000D02*
X5650000Y-5825000D01*
X5550000Y-5725000D02*
X5550000Y-5825000D01*
X5550000Y-5825000D02*
X5650000Y-5825000D01*
D13*
X5706900Y-3956100D02*
X5706900Y-3965900D01*
X5943100Y-3956100D02*
X5943100Y-3965900D01*
X5706900Y-4093900D02*
X5706900Y-4084100D01*
X5943100Y-4093900D02*
X5943100Y-4084100D01*
X5943100Y-3956100D02*
X5706900Y-3956100D01*
X5943100Y-4093900D02*
X5706900Y-4093900D01*
D14*
X6500000Y-4450000D02*
X6500000Y-4500000D01*
X6500000Y-4500000D02*
X6400000Y-4500000D01*
X6400000Y-4500000D02*
X6400000Y-4450000D01*
X6550000Y-4450000D02*
X6550000Y-4850000D01*
X6550000Y-4850000D02*
X6350000Y-4850000D01*
X6350000Y-4850000D02*
X6350000Y-4450000D01*
X6350000Y-4450000D02*
X6550000Y-4450000D01*
X6500000Y-4925000D02*
X6500000Y-4975000D01*
X6500000Y-4975000D02*
X6400000Y-4975000D01*
X6400000Y-4975000D02*
X6400000Y-4925000D01*
X6550000Y-4925000D02*
X6550000Y-5325000D01*
X6550000Y-5325000D02*
X6350000Y-5325000D01*
X6350000Y-5325000D02*
X6350000Y-4925000D01*
X6350000Y-4925000D02*
X6550000Y-4925000D01*
X6500000Y-5400000D02*
X6500000Y-5450000D01*
X6500000Y-5450000D02*
X6400000Y-5450000D01*
X6400000Y-5450000D02*
X6400000Y-5400000D01*
X6550000Y-5400000D02*
X6550000Y-5800000D01*
X6550000Y-5800000D02*
X6350000Y-5800000D01*
X6350000Y-5800000D02*
X6350000Y-5400000D01*
X6350000Y-5400000D02*
X6550000Y-5400000D01*
D13*
X5625000Y-4100000D02*
X5625000Y-4900000D01*
X5425000Y-4900000D02*
X5425000Y-4100000D01*
X5425000Y-4100000D02*
X5625000Y-4100000D01*
X5575000Y-4100000D02*
X5575000Y-4150000D01*
X5575000Y-4150000D02*
X5475000Y-4150000D01*
X5475000Y-4150000D02*
X5475000Y-4100000D01*
X5625000Y-4900000D02*
X5425000Y-4900000D01*
X5485000Y-5760600D02*
X5492900Y-5776400D01*
X5492900Y-5776400D02*
X5496900Y-5800000D01*
X5496900Y-5800000D02*
X5492900Y-5819700D01*
X5492900Y-5819700D02*
X5477200Y-5847200D01*
X5477200Y-5847200D02*
X5453500Y-5863000D01*
X5453500Y-5863000D02*
X5429900Y-5870900D01*
X5429900Y-5870900D02*
X5170100Y-5870900D01*
X5170100Y-5870900D02*
X5142500Y-5863000D01*
X5142500Y-5863000D02*
X5126800Y-5851200D01*
X5126800Y-5851200D02*
X5111000Y-5831500D01*
X5111000Y-5831500D02*
X5103100Y-5807900D01*
X5103100Y-5807900D02*
X5103100Y-5788200D01*
X5103100Y-5788200D02*
X5111000Y-5768500D01*
X5111000Y-5768500D02*
X5130700Y-5744900D01*
X5130700Y-5744900D02*
X5150400Y-5733100D01*
X5150400Y-5733100D02*
X5170100Y-5729100D01*
X5174000Y-5729100D02*
X5433900Y-5729100D01*
X5433900Y-5729100D02*
X5449600Y-5733100D01*
X5449600Y-5733100D02*
X5469300Y-5744900D01*
X5469300Y-5744900D02*
X5489000Y-5764600D01*
X5174400Y-5708300D02*
X5156300Y-5710200D01*
X5156300Y-5710200D02*
X5140600Y-5714600D01*
X5140600Y-5714600D02*
X5123600Y-5723200D01*
X5123600Y-5723200D02*
X5112200Y-5732300D01*
X5112200Y-5732300D02*
X5099200Y-5746100D01*
X5099200Y-5746100D02*
X5087800Y-5767300D01*
X5087800Y-5767300D02*
X5082700Y-5790900D01*
X5082700Y-5790900D02*
X5082700Y-5811000D01*
X5082700Y-5811000D02*
X5089400Y-5838600D01*
X5089400Y-5838600D02*
X5105100Y-5861800D01*
X5105100Y-5861800D02*
X5123200Y-5876400D01*
X5123200Y-5876400D02*
X5139800Y-5884600D01*
X5139800Y-5884600D02*
X5157500Y-5890900D01*
X5157500Y-5890900D02*
X5174800Y-5892100D01*
X5463800Y-5883500D02*
X5478700Y-5874800D01*
X5478700Y-5874800D02*
X5491300Y-5863800D01*
X5491300Y-5863800D02*
X5501200Y-5850800D01*
X5501200Y-5850800D02*
X5513000Y-5829100D01*
X5513000Y-5829100D02*
X5517300Y-5810600D01*
X5517300Y-5810600D02*
X5518100Y-5792500D01*
X5518100Y-5792500D02*
X5514600Y-5774400D01*
X5514600Y-5774400D02*
X5507100Y-5756700D01*
X5507100Y-5756700D02*
X5492900Y-5738200D01*
X5492900Y-5738200D02*
X5479100Y-5725600D01*
X5479100Y-5725600D02*
X5463800Y-5716500D01*
X5463800Y-5716500D02*
X5446900Y-5711000D01*
X5446900Y-5711000D02*
X5429500Y-5708300D01*
X5174000Y-5891700D02*
X5428000Y-5891700D01*
X5428000Y-5891700D02*
X5444500Y-5890200D01*
X5444500Y-5890200D02*
X5463800Y-5883500D01*
X5174000Y-5708300D02*
X5428000Y-5708300D01*
D11*
X5870100Y-5680700D02*
X6028300Y-5680700D01*
X6030000Y-5679900D02*
G75*
G03X5870100Y-5680000I-80000J79900D01*
G74*
G01*
D12*
X7552000Y-5450000D02*
X7750000Y-5450000D01*
X7750000Y-5450000D02*
X7750000Y-5550000D01*
X7750000Y-5550000D02*
X7550000Y-5550000D01*
X7550000Y-5550000D02*
X7550000Y-5450000D01*
X7550000Y-5475000D02*
X7575000Y-5450000D01*
D13*
X7625000Y-5020000D02*
X7625000Y-5180000D01*
X7725000Y-5180000D02*
X7725000Y-5020000D01*
D12*
X7725000Y-5227000D02*
X7725000Y-5425000D01*
X7725000Y-5425000D02*
X7625000Y-5425000D01*
X7625000Y-5425000D02*
X7625000Y-5225000D01*
X7625000Y-5225000D02*
X7725000Y-5225000D01*
X7700000Y-5225000D02*
X7725000Y-5250000D01*
D13*
X7850000Y-4630000D02*
X7850000Y-4470000D01*
X7750000Y-4470000D02*
X7750000Y-4630000D01*
X5120000Y-5675000D02*
X5280000Y-5675000D01*
X5280000Y-5575000D02*
X5120000Y-5575000D01*
X5480000Y-5575000D02*
X5320000Y-5575000D01*
X5320000Y-5675000D02*
X5480000Y-5675000D01*
X5020000Y-5175000D02*
X5180000Y-5175000D01*
X5180000Y-5075000D02*
X5020000Y-5075000D01*
X5605000Y-3975000D02*
X5445000Y-3975000D01*
X5445000Y-4075000D02*
X5605000Y-4075000D01*
X5745000Y-4275000D02*
X5905000Y-4275000D01*
X5905000Y-4175000D02*
X5745000Y-4175000D01*
D14*
X7215000Y-5890000D02*
X7215000Y-5870000D01*
X7215000Y-5870000D02*
X7035000Y-5870000D01*
X7035000Y-5870000D02*
X7035000Y-5890000D01*
X6725000Y-5510000D02*
X7525000Y-5510000D01*
X7525000Y-5510000D02*
X7525000Y-5890000D01*
X7525000Y-5890000D02*
X6725000Y-5890000D01*
X6725000Y-5890000D02*
X6725000Y-5510000D01*
X7215000Y-4340000D02*
X7215000Y-4320000D01*
X7215000Y-4320000D02*
X7035000Y-4320000D01*
X7035000Y-4320000D02*
X7035000Y-4340000D01*
X6725000Y-3960000D02*
X7525000Y-3960000D01*
X7525000Y-3960000D02*
X7525000Y-4340000D01*
X7525000Y-4340000D02*
X6725000Y-4340000D01*
X6725000Y-4340000D02*
X6725000Y-3960000D01*
X4525000Y-5725000D02*
X5025000Y-5725000D01*
X5025000Y-5725000D02*
X5025000Y-5825000D01*
X5025000Y-5825000D02*
X4525000Y-5825000D01*
X4425000Y-5725000D02*
X4525000Y-5725000D01*
X4525000Y-5725000D02*
X4525000Y-5825000D01*
X4425000Y-5725000D02*
X4425000Y-5825000D01*
X4425000Y-5825000D02*
X4525000Y-5825000D01*
D15*
X5400000Y-5050000D02*
X5500000Y-5050000D01*
X5500000Y-5050000D02*
X5500000Y-5150000D01*
X5400000Y-5150000D02*
X5700000Y-5150000D01*
X5700000Y-5150000D02*
X5700000Y-4950000D01*
X5700000Y-4950000D02*
X5500000Y-4950000D01*
X5400000Y-5150000D02*
X5400000Y-5050000D01*
X5400000Y-4950000D02*
X5400000Y-5050000D01*
X5500000Y-4950000D02*
X5400000Y-4950000D01*
D14*
X4525000Y-5700000D02*
X4825000Y-5700000D01*
X4525000Y-5600000D02*
X4825000Y-5600000D01*
X4425000Y-5600000D02*
X4525000Y-5600000D01*
X4825000Y-5700000D02*
X4825000Y-5600000D01*
X4525000Y-5600000D02*
X4525000Y-5700000D01*
X4425000Y-5600000D02*
X4425000Y-5700000D01*
X4425000Y-5700000D02*
X4525000Y-5700000D01*
D15*
X7325000Y-5025000D02*
X6725000Y-5025000D01*
X6725000Y-5025000D02*
X6725000Y-4925000D01*
X6725000Y-4925000D02*
X7325000Y-4925000D01*
X7425000Y-5025000D02*
X7325000Y-5025000D01*
X7325000Y-5025000D02*
X7325000Y-4925000D01*
X7425000Y-5025000D02*
X7425000Y-4925000D01*
X7425000Y-4925000D02*
X7325000Y-4925000D01*
X6150000Y-5025000D02*
X6150000Y-4625000D01*
X6150000Y-4625000D02*
X6250000Y-4625000D01*
X6250000Y-4625000D02*
X6250000Y-5025000D01*
X6150000Y-5125000D02*
X6150000Y-5025000D01*
X6150000Y-5025000D02*
X6250000Y-5025000D01*
X6150000Y-5125000D02*
X6250000Y-5125000D01*
X6250000Y-5125000D02*
X6250000Y-5025000D01*
D13*
X6000000Y-4300000D02*
X6000000Y-4300000D01*
X6000000Y-4300000D02*
X6000000Y-4350000D01*
X6000000Y-4350000D02*
X5900000Y-4350000D01*
X5900000Y-4350000D02*
X5900000Y-4300000D01*
X6050000Y-4300000D02*
X6050000Y-5200000D01*
X6050000Y-5200000D02*
X5850000Y-5200000D01*
X5850000Y-5200000D02*
X5850000Y-4300000D01*
X5850000Y-4300000D02*
X6050000Y-4300000D01*
D15*
X4900000Y-5175000D02*
X4500000Y-5175000D01*
X4500000Y-5175000D02*
X4500000Y-5075000D01*
X4500000Y-5075000D02*
X4900000Y-5075000D01*
X5000000Y-5175000D02*
X4900000Y-5175000D01*
X4900000Y-5175000D02*
X4900000Y-5075000D01*
X5000000Y-5175000D02*
X5000000Y-5075000D01*
X5000000Y-5075000D02*
X4900000Y-5075000D01*
D14*
X6500000Y-3975000D02*
X6500000Y-4025000D01*
X6500000Y-4025000D02*
X6400000Y-4025000D01*
X6400000Y-4025000D02*
X6400000Y-3975000D01*
X6550000Y-3975000D02*
X6550000Y-4375000D01*
X6550000Y-4375000D02*
X6350000Y-4375000D01*
X6350000Y-4375000D02*
X6350000Y-3975000D01*
X6350000Y-3975000D02*
X6550000Y-3975000D01*
D13*
X7380000Y-5375000D02*
X7435000Y-5375000D01*
X7380000Y-5275000D02*
X7435000Y-5275000D01*
X7380000Y-5175000D02*
X7435000Y-5175000D01*
X6963995Y-5275000D02*
G75*
G03X6963995Y-5275000I-98995J0D01*
G74*
G01*
X7045000Y-5065000D02*
X6730000Y-5065000D01*
X6730000Y-5065000D02*
X6730000Y-5485000D01*
X6730000Y-5485000D02*
X7045000Y-5485000D01*
X7380000Y-5065000D02*
X7045000Y-5065000D01*
X7045000Y-5065000D02*
X7045000Y-5485000D01*
X7045000Y-5485000D02*
X7380000Y-5485000D01*
X7380000Y-5275000D02*
X7380000Y-5485000D01*
X7380000Y-5275000D02*
X7380000Y-5065000D01*
X6850000Y-4500000D02*
X6850000Y-4500000D01*
X6850000Y-4500000D02*
X6900000Y-4500000D01*
X6900000Y-4500000D02*
X6900000Y-4600000D01*
X6900000Y-4600000D02*
X6850000Y-4600000D01*
X6850000Y-4450000D02*
X7750000Y-4450000D01*
X7750000Y-4450000D02*
X7750000Y-4650000D01*
X7750000Y-4650000D02*
X6850000Y-4650000D01*
X6850000Y-4650000D02*
X6850000Y-4450000D01*
X4620000Y-4075000D02*
X4565000Y-4075000D01*
X4620000Y-4175000D02*
X4565000Y-4175000D01*
X4620000Y-4275000D02*
X4565000Y-4275000D01*
X5233995Y-4175000D02*
G75*
G03X5233995Y-4175000I-98995J0D01*
G74*
G01*
X4955000Y-4385000D02*
X5270000Y-4385000D01*
X5270000Y-4385000D02*
X5270000Y-3965000D01*
X5270000Y-3965000D02*
X4955000Y-3965000D01*
X4620000Y-4385000D02*
X4955000Y-4385000D01*
X4955000Y-4385000D02*
X4955000Y-3965000D01*
X4955000Y-3965000D02*
X4620000Y-3965000D01*
X4620000Y-4175000D02*
X4620000Y-3965000D01*
X4620000Y-4175000D02*
X4620000Y-4385000D01*
D14*
X4600000Y-4525000D02*
X4600000Y-4575000D01*
X4600000Y-4575000D02*
X4500000Y-4575000D01*
X4500000Y-4575000D02*
X4500000Y-4525000D01*
X4650000Y-4525000D02*
X4650000Y-4925000D01*
X4650000Y-4925000D02*
X4450000Y-4925000D01*
X4450000Y-4925000D02*
X4450000Y-4525000D01*
X4450000Y-4525000D02*
X4650000Y-4525000D01*
D13*
X4350000Y-5275000D02*
X5850000Y-5275000D01*
X5850000Y-5275000D02*
X5850000Y-5475000D01*
X5850000Y-5475000D02*
X4350000Y-5475000D01*
X4350000Y-5475000D02*
X4350000Y-5275000D01*
X4350000Y-5325000D02*
X4400000Y-5325000D01*
X4400000Y-5325000D02*
X4400000Y-5425000D01*
X4400000Y-5425000D02*
X4350000Y-5425000D01*
D15*
X5200000Y-4900000D02*
X5200000Y-4800000D01*
X5300000Y-4900000D02*
X5300000Y-4800000D01*
X5300000Y-4800000D02*
X5200000Y-4800000D01*
X5200000Y-4800000D02*
X5100000Y-4800000D01*
X5100000Y-4800000D02*
X5100000Y-4900000D01*
X5100000Y-4900000D02*
X5300000Y-4900000D01*
X5200000Y-4750000D02*
X5200000Y-4650000D01*
X5300000Y-4750000D02*
X5300000Y-4650000D01*
X5300000Y-4650000D02*
X5200000Y-4650000D01*
X5200000Y-4650000D02*
X5100000Y-4650000D01*
X5100000Y-4650000D02*
X5100000Y-4750000D01*
X5100000Y-4750000D02*
X5300000Y-4750000D01*
X5200000Y-4600000D02*
X5200000Y-4500000D01*
X5300000Y-4600000D02*
X5300000Y-4500000D01*
X5300000Y-4500000D02*
X5200000Y-4500000D01*
X5200000Y-4500000D02*
X5100000Y-4500000D01*
X5100000Y-4500000D02*
X5100000Y-4600000D01*
X5100000Y-4600000D02*
X5300000Y-4600000D01*
X4000000Y-4375000D02*
X4100000Y-4375000D01*
X4000000Y-4475000D02*
X4100000Y-4475000D01*
X4100000Y-4475000D02*
X4100000Y-4375000D01*
X4100000Y-4375000D02*
X4100000Y-4275000D01*
X4100000Y-4275000D02*
X4000000Y-4275000D01*
X4000000Y-4275000D02*
X4000000Y-4475000D01*
X5025000Y-4800000D02*
X4925000Y-4800000D01*
X5025000Y-4700000D02*
X4925000Y-4700000D01*
X4925000Y-4700000D02*
X4925000Y-4800000D01*
X4925000Y-4800000D02*
X4925000Y-4900000D01*
X4925000Y-4900000D02*
X5025000Y-4900000D01*
X5025000Y-4900000D02*
X5025000Y-4700000D01*
X5025000Y-4550000D02*
X4925000Y-4550000D01*
X5025000Y-4450000D02*
X4925000Y-4450000D01*
X4925000Y-4450000D02*
X4925000Y-4550000D01*
X4925000Y-4550000D02*
X4925000Y-4650000D01*
X4925000Y-4650000D02*
X5025000Y-4650000D01*
X5025000Y-4650000D02*
X5025000Y-4450000D01*
X4775000Y-4550000D02*
X4875000Y-4550000D01*
X4775000Y-4650000D02*
X4875000Y-4650000D01*
X4875000Y-4650000D02*
X4875000Y-4550000D01*
X4875000Y-4550000D02*
X4875000Y-4450000D01*
X4875000Y-4450000D02*
X4775000Y-4450000D01*
X4775000Y-4450000D02*
X4775000Y-4650000D01*
X4875000Y-4800000D02*
X4775000Y-4800000D01*
X4875000Y-4700000D02*
X4775000Y-4700000D01*
X4775000Y-4700000D02*
X4775000Y-4800000D01*
X4775000Y-4800000D02*
X4775000Y-4900000D01*
X4775000Y-4900000D02*
X4875000Y-4900000D01*
X4875000Y-4900000D02*
X4875000Y-4700000D01*
X7000000Y-4750000D02*
X7000000Y-4850000D01*
X6900000Y-4750000D02*
X6900000Y-4850000D01*
X6900000Y-4850000D02*
X7000000Y-4850000D01*
X7000000Y-4850000D02*
X7100000Y-4850000D01*
X7100000Y-4850000D02*
X7100000Y-4750000D01*
X7100000Y-4750000D02*
X6900000Y-4750000D01*
X7475000Y-5005000D02*
X7575000Y-5005000D01*
X7475000Y-5105000D02*
X7575000Y-5105000D01*
X7575000Y-5105000D02*
X7575000Y-5005000D01*
X7575000Y-5005000D02*
X7575000Y-4905000D01*
X7575000Y-4905000D02*
X7475000Y-4905000D01*
X7475000Y-4905000D02*
X7475000Y-5105000D01*
D13*
X4445000Y-4500000D02*
X4605000Y-4500000D01*
X4605000Y-4400000D02*
X4445000Y-4400000D01*
D15*
X6100522Y-4136301D02*
G75*
G03X6100000Y-3964000I49478J86301D01*
G74*
G01*
X6100000Y-3964000D02*
X6100000Y-4137000D01*
X6100522Y-4336301D02*
G75*
G03X6100000Y-4164000I49478J86301D01*
G74*
G01*
X6100000Y-4164000D02*
X6100000Y-4337000D01*
X6100522Y-5686301D02*
G75*
G03X6100000Y-5514000I49478J86301D01*
G74*
G01*
X6100000Y-5514000D02*
X6100000Y-5687000D01*
X6100522Y-5461301D02*
G75*
G03X6100000Y-5289000I49478J86301D01*
G74*
G01*
X6100000Y-5289000D02*
X6100000Y-5462000D01*
X6700522Y-4786301D02*
G75*
G03X6700000Y-4614000I49478J86301D01*
G74*
G01*
X6700000Y-4614000D02*
X6700000Y-4787000D01*
D11*
X4218333Y-4009286D02*
X4216429Y-4011190D01*
X4210714Y-4013095D01*
X4206905Y-4013095D01*
X4201191Y-4011190D01*
X4197381Y-4007381D01*
X4195476Y-4003571D01*
X4193571Y-3995952D01*
X4193571Y-3990238D01*
X4195476Y-3982619D01*
X4197381Y-3978810D01*
X4201191Y-3975000D01*
X4206905Y-3973095D01*
X4210714Y-3973095D01*
X4216429Y-3975000D01*
X4218333Y-3976905D01*
X4254524Y-3973095D02*
X4235476Y-3973095D01*
X4233571Y-3992143D01*
X4235476Y-3990238D01*
X4239286Y-3988333D01*
X4248810Y-3988333D01*
X4252619Y-3990238D01*
X4254524Y-3992143D01*
X4256429Y-3995952D01*
X4256429Y-4005476D01*
X4254524Y-4009286D01*
X4252619Y-4011190D01*
X4248810Y-4013095D01*
X4239286Y-4013095D01*
X4235476Y-4011190D01*
X4233571Y-4009286D01*
X4163333Y-4504286D02*
X4161429Y-4506190D01*
X4155714Y-4508095D01*
X4151905Y-4508095D01*
X4146191Y-4506190D01*
X4142381Y-4502381D01*
X4140476Y-4498571D01*
X4138571Y-4490952D01*
X4138571Y-4485238D01*
X4140476Y-4477619D01*
X4142381Y-4473810D01*
X4146191Y-4470000D01*
X4151905Y-4468095D01*
X4155714Y-4468095D01*
X4161429Y-4470000D01*
X4163333Y-4471905D01*
X4197619Y-4468095D02*
X4190000Y-4468095D01*
X4186191Y-4470000D01*
X4184286Y-4471905D01*
X4180476Y-4477619D01*
X4178571Y-4485238D01*
X4178571Y-4500476D01*
X4180476Y-4504286D01*
X4182381Y-4506190D01*
X4186191Y-4508095D01*
X4193810Y-4508095D01*
X4197619Y-4506190D01*
X4199524Y-4504286D01*
X4201429Y-4500476D01*
X4201429Y-4490952D01*
X4199524Y-4487143D01*
X4197619Y-4485238D01*
X4193810Y-4483333D01*
X4186191Y-4483333D01*
X4182381Y-4485238D01*
X4180476Y-4487143D01*
X4178571Y-4490952D01*
X4423333Y-4379286D02*
X4421429Y-4381190D01*
X4415714Y-4383095D01*
X4411905Y-4383095D01*
X4406191Y-4381190D01*
X4402381Y-4377381D01*
X4400476Y-4373571D01*
X4398571Y-4365952D01*
X4398571Y-4360238D01*
X4400476Y-4352619D01*
X4402381Y-4348810D01*
X4406191Y-4345000D01*
X4411905Y-4343095D01*
X4415714Y-4343095D01*
X4421429Y-4345000D01*
X4423333Y-4346905D01*
X4446191Y-4360238D02*
X4442381Y-4358333D01*
X4440476Y-4356429D01*
X4438571Y-4352619D01*
X4438571Y-4350714D01*
X4440476Y-4346905D01*
X4442381Y-4345000D01*
X4446191Y-4343095D01*
X4453810Y-4343095D01*
X4457619Y-4345000D01*
X4459524Y-4346905D01*
X4461429Y-4350714D01*
X4461429Y-4352619D01*
X4459524Y-4356429D01*
X4457619Y-4358333D01*
X4453810Y-4360238D01*
X4446191Y-4360238D01*
X4442381Y-4362143D01*
X4440476Y-4364048D01*
X4438571Y-4367857D01*
X4438571Y-4375476D01*
X4440476Y-4379286D01*
X4442381Y-4381190D01*
X4446191Y-4383095D01*
X4453810Y-4383095D01*
X4457619Y-4381190D01*
X4459524Y-4379286D01*
X4461429Y-4375476D01*
X4461429Y-4367857D01*
X4459524Y-4364048D01*
X4457619Y-4362143D01*
X4453810Y-4360238D01*
X4868333Y-5639286D02*
X4866429Y-5641190D01*
X4860714Y-5643095D01*
X4856905Y-5643095D01*
X4851191Y-5641190D01*
X4847381Y-5637381D01*
X4845476Y-5633571D01*
X4843571Y-5625952D01*
X4843571Y-5620238D01*
X4845476Y-5612619D01*
X4847381Y-5608810D01*
X4851191Y-5605000D01*
X4856905Y-5603095D01*
X4860714Y-5603095D01*
X4866429Y-5605000D01*
X4868333Y-5606905D01*
X4887381Y-5643095D02*
X4895000Y-5643095D01*
X4898810Y-5641190D01*
X4900714Y-5639286D01*
X4904524Y-5633571D01*
X4906429Y-5625952D01*
X4906429Y-5610714D01*
X4904524Y-5606905D01*
X4902619Y-5605000D01*
X4898810Y-5603095D01*
X4891191Y-5603095D01*
X4887381Y-5605000D01*
X4885476Y-5606905D01*
X4883571Y-5610714D01*
X4883571Y-5620238D01*
X4885476Y-5624048D01*
X4887381Y-5625952D01*
X4891191Y-5627857D01*
X4898810Y-5627857D01*
X4902619Y-5625952D01*
X4904524Y-5624048D01*
X4906429Y-5620238D01*
X4895476Y-5018095D02*
X4895476Y-4978095D01*
X4905000Y-4978095D01*
X4910714Y-4980000D01*
X4914524Y-4983810D01*
X4916429Y-4987619D01*
X4918333Y-4995238D01*
X4918333Y-5000952D01*
X4916429Y-5008571D01*
X4914524Y-5012381D01*
X4910714Y-5016190D01*
X4905000Y-5018095D01*
X4895476Y-5018095D01*
X4956429Y-5018095D02*
X4933571Y-5018095D01*
X4945000Y-5018095D02*
X4945000Y-4978095D01*
X4941191Y-4983810D01*
X4937381Y-4987619D01*
X4933571Y-4989524D01*
X4739762Y-4942857D02*
X4770238Y-4942857D01*
X4479762Y-5037857D02*
X4510238Y-5037857D01*
X4495000Y-5053095D02*
X4495000Y-5022619D01*
X4103382Y-4151954D02*
X4103382Y-4111954D01*
X4103382Y-4131001D02*
X4126239Y-4131001D01*
X4126239Y-4151954D02*
X4126239Y-4111954D01*
X4166239Y-4151954D02*
X4143382Y-4151954D01*
X4154811Y-4151954D02*
X4154811Y-4111954D01*
X4151001Y-4117668D01*
X4147192Y-4121477D01*
X4143382Y-4123382D01*
X7646689Y-4151954D02*
X7646689Y-4111954D01*
X7646689Y-4131001D02*
X7669546Y-4131001D01*
X7669546Y-4151954D02*
X7669546Y-4111954D01*
X7686689Y-4115763D02*
X7688594Y-4113858D01*
X7692403Y-4111954D01*
X7701927Y-4111954D01*
X7705737Y-4113858D01*
X7707642Y-4115763D01*
X7709546Y-4119573D01*
X7709546Y-4123382D01*
X7707642Y-4129096D01*
X7684784Y-4151954D01*
X7709546Y-4151954D01*
X4103382Y-5726757D02*
X4103382Y-5686757D01*
X4103382Y-5705804D02*
X4126239Y-5705804D01*
X4126239Y-5726757D02*
X4126239Y-5686757D01*
X4141477Y-5686757D02*
X4166239Y-5686757D01*
X4152906Y-5701995D01*
X4158620Y-5701995D01*
X4162430Y-5703900D01*
X4164334Y-5705804D01*
X4166239Y-5709614D01*
X4166239Y-5719138D01*
X4164334Y-5722947D01*
X4162430Y-5724852D01*
X4158620Y-5726757D01*
X4147192Y-5726757D01*
X4143382Y-5724852D01*
X4141477Y-5722947D01*
X7646689Y-5726757D02*
X7646689Y-5686757D01*
X7646689Y-5705804D02*
X7669546Y-5705804D01*
X7669546Y-5726757D02*
X7669546Y-5686757D01*
X7705737Y-5700090D02*
X7705737Y-5726757D01*
X7696213Y-5684852D02*
X7686689Y-5713423D01*
X7711451Y-5713423D01*
X7816667Y-5578095D02*
X7816667Y-5606667D01*
X7814762Y-5612381D01*
X7810952Y-5616190D01*
X7805238Y-5618095D01*
X7801429Y-5618095D01*
X7856667Y-5618095D02*
X7833810Y-5618095D01*
X7845238Y-5618095D02*
X7845238Y-5578095D01*
X7841429Y-5583810D01*
X7837619Y-5587619D01*
X7833810Y-5589524D01*
X3991667Y-5468095D02*
X3991667Y-5496667D01*
X3989762Y-5502381D01*
X3985952Y-5506190D01*
X3980238Y-5508095D01*
X3976429Y-5508095D01*
X4008810Y-5471905D02*
X4010714Y-5470000D01*
X4014524Y-5468095D01*
X4024048Y-5468095D01*
X4027857Y-5470000D01*
X4029762Y-5471905D01*
X4031667Y-5475714D01*
X4031667Y-5479524D01*
X4029762Y-5485238D01*
X4006905Y-5508095D01*
X4031667Y-5508095D01*
X4239524Y-4508095D02*
X4239524Y-4468095D01*
X4262381Y-4508095D01*
X4262381Y-4468095D01*
X4302381Y-4508095D02*
X4279524Y-4508095D01*
X4290952Y-4508095D02*
X4290952Y-4468095D01*
X4287143Y-4473810D01*
X4283333Y-4477619D01*
X4279524Y-4479524D01*
X5969524Y-5793095D02*
X5969524Y-5753095D01*
X5992381Y-5793095D01*
X5992381Y-5753095D01*
X6007619Y-5753095D02*
X6034286Y-5753095D01*
X6017143Y-5793095D01*
X5971667Y-4141190D02*
X5977381Y-4143095D01*
X5986905Y-4143095D01*
X5990714Y-4141190D01*
X5992619Y-4139286D01*
X5994524Y-4135476D01*
X5994524Y-4131667D01*
X5992619Y-4127857D01*
X5990714Y-4125952D01*
X5986905Y-4124048D01*
X5979286Y-4122143D01*
X5975476Y-4120238D01*
X5973571Y-4118333D01*
X5971667Y-4114524D01*
X5971667Y-4110714D01*
X5973571Y-4106905D01*
X5975476Y-4105000D01*
X5979286Y-4103095D01*
X5988810Y-4103095D01*
X5994524Y-4105000D01*
X6007857Y-4103095D02*
X6017381Y-4143095D01*
X6025000Y-4114524D01*
X6032619Y-4143095D01*
X6042143Y-4103095D01*
X6078333Y-4143095D02*
X6055476Y-4143095D01*
X6066905Y-4143095D02*
X6066905Y-4103095D01*
X6063095Y-4108810D01*
X6059286Y-4112619D01*
X6055476Y-4114524D01*
X6169524Y-4478095D02*
X6169524Y-4510476D01*
X6171429Y-4514286D01*
X6173333Y-4516190D01*
X6177143Y-4518095D01*
X6184762Y-4518095D01*
X6188571Y-4516190D01*
X6190476Y-4514286D01*
X6192381Y-4510476D01*
X6192381Y-4478095D01*
X6209524Y-4481905D02*
X6211429Y-4480000D01*
X6215238Y-4478095D01*
X6224762Y-4478095D01*
X6228571Y-4480000D01*
X6230476Y-4481905D01*
X6232381Y-4485714D01*
X6232381Y-4489524D01*
X6230476Y-4495238D01*
X6207619Y-4518095D01*
X6232381Y-4518095D01*
X6194524Y-5228095D02*
X6194524Y-5260476D01*
X6196429Y-5264286D01*
X6198333Y-5266190D01*
X6202143Y-5268095D01*
X6209762Y-5268095D01*
X6213571Y-5266190D01*
X6215476Y-5264286D01*
X6217381Y-5260476D01*
X6217381Y-5228095D01*
X6232619Y-5228095D02*
X6257381Y-5228095D01*
X6244048Y-5243333D01*
X6249762Y-5243333D01*
X6253571Y-5245238D01*
X6255476Y-5247143D01*
X6257381Y-5250952D01*
X6257381Y-5260476D01*
X6255476Y-5264286D01*
X6253571Y-5266190D01*
X6249762Y-5268095D01*
X6238333Y-5268095D01*
X6234524Y-5266190D01*
X6232619Y-5264286D01*
X6194524Y-5753095D02*
X6194524Y-5785476D01*
X6196429Y-5789286D01*
X6198333Y-5791190D01*
X6202143Y-5793095D01*
X6209762Y-5793095D01*
X6213571Y-5791190D01*
X6215476Y-5789286D01*
X6217381Y-5785476D01*
X6217381Y-5753095D01*
X6253571Y-5766429D02*
X6253571Y-5793095D01*
X6244048Y-5751190D02*
X6234524Y-5779762D01*
X6259286Y-5779762D01*
X5342524Y-4865095D02*
X5342524Y-4897476D01*
X5344429Y-4901286D01*
X5346333Y-4903190D01*
X5350143Y-4905095D01*
X5357762Y-4905095D01*
X5361571Y-4903190D01*
X5363476Y-4901286D01*
X5365381Y-4897476D01*
X5365381Y-4865095D01*
X5380619Y-4865095D02*
X5407286Y-4865095D01*
X5390143Y-4905095D01*
X5492619Y-5678095D02*
X5519286Y-5718095D01*
X5519286Y-5678095D02*
X5492619Y-5718095D01*
X5555476Y-5718095D02*
X5532619Y-5718095D01*
X5544048Y-5718095D02*
X5544048Y-5678095D01*
X5540238Y-5683810D01*
X5536429Y-5687619D01*
X5532619Y-5689524D01*
X5745476Y-5618095D02*
X5745476Y-5578095D01*
X5755000Y-5578095D01*
X5760714Y-5580000D01*
X5764524Y-5583810D01*
X5766429Y-5587619D01*
X5768333Y-5595238D01*
X5768333Y-5600952D01*
X5766429Y-5608571D01*
X5764524Y-5612381D01*
X5760714Y-5616190D01*
X5755000Y-5618095D01*
X5745476Y-5618095D01*
X5783571Y-5581905D02*
X5785476Y-5580000D01*
X5789286Y-5578095D01*
X5798810Y-5578095D01*
X5802619Y-5580000D01*
X5804524Y-5581905D01*
X5806429Y-5585714D01*
X5806429Y-5589524D01*
X5804524Y-5595238D01*
X5781667Y-5618095D01*
X5806429Y-5618095D01*
X5966762Y-5704857D02*
X5997238Y-5704857D01*
X5977762Y-5466857D02*
X6008238Y-5466857D01*
X5993000Y-5482095D02*
X5993000Y-5451619D01*
X7468333Y-5489286D02*
X7466429Y-5491190D01*
X7460714Y-5493095D01*
X7456905Y-5493095D01*
X7451191Y-5491190D01*
X7447381Y-5487381D01*
X7445476Y-5483571D01*
X7443571Y-5475952D01*
X7443571Y-5470238D01*
X7445476Y-5462619D01*
X7447381Y-5458810D01*
X7451191Y-5455000D01*
X7456905Y-5453095D01*
X7460714Y-5453095D01*
X7466429Y-5455000D01*
X7468333Y-5456905D01*
X7506429Y-5493095D02*
X7483571Y-5493095D01*
X7495000Y-5493095D02*
X7495000Y-5453095D01*
X7491191Y-5458810D01*
X7487381Y-5462619D01*
X7483571Y-5464524D01*
X7668333Y-4989286D02*
X7666429Y-4991190D01*
X7660714Y-4993095D01*
X7656905Y-4993095D01*
X7651191Y-4991190D01*
X7647381Y-4987381D01*
X7645476Y-4983571D01*
X7643571Y-4975952D01*
X7643571Y-4970238D01*
X7645476Y-4962619D01*
X7647381Y-4958810D01*
X7651191Y-4955000D01*
X7656905Y-4953095D01*
X7660714Y-4953095D01*
X7666429Y-4955000D01*
X7668333Y-4956905D01*
X7683571Y-4956905D02*
X7685476Y-4955000D01*
X7689286Y-4953095D01*
X7698810Y-4953095D01*
X7702619Y-4955000D01*
X7704524Y-4956905D01*
X7706429Y-4960714D01*
X7706429Y-4964524D01*
X7704524Y-4970238D01*
X7681667Y-4993095D01*
X7706429Y-4993095D01*
X7643333Y-5214286D02*
X7641429Y-5216190D01*
X7635714Y-5218095D01*
X7631905Y-5218095D01*
X7626191Y-5216190D01*
X7622381Y-5212381D01*
X7620476Y-5208571D01*
X7618571Y-5200952D01*
X7618571Y-5195238D01*
X7620476Y-5187619D01*
X7622381Y-5183810D01*
X7626191Y-5180000D01*
X7631905Y-5178095D01*
X7635714Y-5178095D01*
X7641429Y-5180000D01*
X7643333Y-5181905D01*
X7656667Y-5178095D02*
X7681429Y-5178095D01*
X7668095Y-5193333D01*
X7673810Y-5193333D01*
X7677619Y-5195238D01*
X7679524Y-5197143D01*
X7681429Y-5200952D01*
X7681429Y-5210476D01*
X7679524Y-5214286D01*
X7677619Y-5216190D01*
X7673810Y-5218095D01*
X7662381Y-5218095D01*
X7658571Y-5216190D01*
X7656667Y-5214286D01*
X7793333Y-4689286D02*
X7791429Y-4691190D01*
X7785714Y-4693095D01*
X7781905Y-4693095D01*
X7776191Y-4691190D01*
X7772381Y-4687381D01*
X7770476Y-4683571D01*
X7768571Y-4675952D01*
X7768571Y-4670238D01*
X7770476Y-4662619D01*
X7772381Y-4658810D01*
X7776191Y-4655000D01*
X7781905Y-4653095D01*
X7785714Y-4653095D01*
X7791429Y-4655000D01*
X7793333Y-4656905D01*
X7827619Y-4666429D02*
X7827619Y-4693095D01*
X7818095Y-4651190D02*
X7808571Y-4679762D01*
X7833333Y-4679762D01*
X5063333Y-5734286D02*
X5061429Y-5736190D01*
X5055714Y-5738095D01*
X5051905Y-5738095D01*
X5046191Y-5736190D01*
X5042381Y-5732381D01*
X5040476Y-5728571D01*
X5038571Y-5720952D01*
X5038571Y-5715238D01*
X5040476Y-5707619D01*
X5042381Y-5703810D01*
X5046191Y-5700000D01*
X5051905Y-5698095D01*
X5055714Y-5698095D01*
X5061429Y-5700000D01*
X5063333Y-5701905D01*
X5076667Y-5698095D02*
X5103333Y-5698095D01*
X5086191Y-5738095D01*
X5524286Y-5639286D02*
X5522381Y-5641190D01*
X5516667Y-5643095D01*
X5512857Y-5643095D01*
X5507143Y-5641190D01*
X5503333Y-5637381D01*
X5501429Y-5633571D01*
X5499524Y-5625952D01*
X5499524Y-5620238D01*
X5501429Y-5612619D01*
X5503333Y-5608810D01*
X5507143Y-5605000D01*
X5512857Y-5603095D01*
X5516667Y-5603095D01*
X5522381Y-5605000D01*
X5524286Y-5606905D01*
X5562381Y-5643095D02*
X5539524Y-5643095D01*
X5550952Y-5643095D02*
X5550952Y-5603095D01*
X5547143Y-5608810D01*
X5543333Y-5612619D01*
X5539524Y-5614524D01*
X5587143Y-5603095D02*
X5590952Y-5603095D01*
X5594762Y-5605000D01*
X5596667Y-5606905D01*
X5598571Y-5610714D01*
X5600476Y-5618333D01*
X5600476Y-5627857D01*
X5598571Y-5635476D01*
X5596667Y-5639286D01*
X5594762Y-5641190D01*
X5590952Y-5643095D01*
X5587143Y-5643095D01*
X5583333Y-5641190D01*
X5581429Y-5639286D01*
X5579524Y-5635476D01*
X5577619Y-5627857D01*
X5577619Y-5618333D01*
X5579524Y-5610714D01*
X5581429Y-5606905D01*
X5583333Y-5605000D01*
X5587143Y-5603095D01*
X5069286Y-5054286D02*
X5067381Y-5056190D01*
X5061667Y-5058095D01*
X5057857Y-5058095D01*
X5052143Y-5056190D01*
X5048333Y-5052381D01*
X5046429Y-5048571D01*
X5044524Y-5040952D01*
X5044524Y-5035238D01*
X5046429Y-5027619D01*
X5048333Y-5023810D01*
X5052143Y-5020000D01*
X5057857Y-5018095D01*
X5061667Y-5018095D01*
X5067381Y-5020000D01*
X5069286Y-5021905D01*
X5107381Y-5058095D02*
X5084524Y-5058095D01*
X5095952Y-5058095D02*
X5095952Y-5018095D01*
X5092143Y-5023810D01*
X5088333Y-5027619D01*
X5084524Y-5029524D01*
X5145476Y-5058095D02*
X5122619Y-5058095D01*
X5134048Y-5058095D02*
X5134048Y-5018095D01*
X5130238Y-5023810D01*
X5126429Y-5027619D01*
X5122619Y-5029524D01*
X5349286Y-4039286D02*
X5347381Y-4041190D01*
X5341667Y-4043095D01*
X5337857Y-4043095D01*
X5332143Y-4041190D01*
X5328333Y-4037381D01*
X5326429Y-4033571D01*
X5324524Y-4025952D01*
X5324524Y-4020238D01*
X5326429Y-4012619D01*
X5328333Y-4008810D01*
X5332143Y-4005000D01*
X5337857Y-4003095D01*
X5341667Y-4003095D01*
X5347381Y-4005000D01*
X5349286Y-4006905D01*
X5387381Y-4043095D02*
X5364524Y-4043095D01*
X5375952Y-4043095D02*
X5375952Y-4003095D01*
X5372143Y-4008810D01*
X5368333Y-4012619D01*
X5364524Y-4014524D01*
X5402619Y-4006905D02*
X5404524Y-4005000D01*
X5408333Y-4003095D01*
X5417857Y-4003095D01*
X5421667Y-4005000D01*
X5423571Y-4006905D01*
X5425476Y-4010714D01*
X5425476Y-4014524D01*
X5423571Y-4020238D01*
X5400714Y-4043095D01*
X5425476Y-4043095D01*
X5749286Y-4339286D02*
X5747381Y-4341190D01*
X5741667Y-4343095D01*
X5737857Y-4343095D01*
X5732143Y-4341190D01*
X5728333Y-4337381D01*
X5726429Y-4333571D01*
X5724524Y-4325952D01*
X5724524Y-4320238D01*
X5726429Y-4312619D01*
X5728333Y-4308810D01*
X5732143Y-4305000D01*
X5737857Y-4303095D01*
X5741667Y-4303095D01*
X5747381Y-4305000D01*
X5749286Y-4306905D01*
X5787381Y-4343095D02*
X5764524Y-4343095D01*
X5775952Y-4343095D02*
X5775952Y-4303095D01*
X5772143Y-4308810D01*
X5768333Y-4312619D01*
X5764524Y-4314524D01*
X5800714Y-4303095D02*
X5825476Y-4303095D01*
X5812143Y-4318333D01*
X5817857Y-4318333D01*
X5821667Y-4320238D01*
X5823571Y-4322143D01*
X5825476Y-4325952D01*
X5825476Y-4335476D01*
X5823571Y-4339286D01*
X5821667Y-4341190D01*
X5817857Y-4343095D01*
X5806429Y-4343095D01*
X5802619Y-4341190D01*
X5800714Y-4339286D01*
X7539524Y-5883095D02*
X7539524Y-5843095D01*
X7562381Y-5883095D01*
X7562381Y-5843095D01*
X7579524Y-5846905D02*
X7581429Y-5845000D01*
X7585238Y-5843095D01*
X7594762Y-5843095D01*
X7598571Y-5845000D01*
X7600476Y-5846905D01*
X7602381Y-5850714D01*
X7602381Y-5854524D01*
X7600476Y-5860238D01*
X7577619Y-5883095D01*
X7602381Y-5883095D01*
X7544524Y-4343095D02*
X7544524Y-4303095D01*
X7567381Y-4343095D01*
X7567381Y-4303095D01*
X7582619Y-4303095D02*
X7607381Y-4303095D01*
X7594048Y-4318333D01*
X7599762Y-4318333D01*
X7603571Y-4320238D01*
X7605476Y-4322143D01*
X7607381Y-4325952D01*
X7607381Y-4335476D01*
X7605476Y-4339286D01*
X7603571Y-4341190D01*
X7599762Y-4343095D01*
X7588333Y-4343095D01*
X7584524Y-4341190D01*
X7582619Y-4339286D01*
X4344524Y-5763095D02*
X4344524Y-5723095D01*
X4367381Y-5763095D01*
X4367381Y-5723095D01*
X4403571Y-5736429D02*
X4403571Y-5763095D01*
X4394048Y-5721190D02*
X4384524Y-5749762D01*
X4409286Y-5749762D01*
X5319524Y-5043095D02*
X5319524Y-5003095D01*
X5342381Y-5043095D01*
X5342381Y-5003095D01*
X5380476Y-5003095D02*
X5361429Y-5003095D01*
X5359524Y-5022143D01*
X5361429Y-5020238D01*
X5365238Y-5018333D01*
X5374762Y-5018333D01*
X5378571Y-5020238D01*
X5380476Y-5022143D01*
X5382381Y-5025952D01*
X5382381Y-5035476D01*
X5380476Y-5039286D01*
X5378571Y-5041190D01*
X5374762Y-5043095D01*
X5365238Y-5043095D01*
X5361429Y-5041190D01*
X5359524Y-5039286D01*
X4344524Y-5638095D02*
X4344524Y-5598095D01*
X4367381Y-5638095D01*
X4367381Y-5598095D01*
X4403571Y-5598095D02*
X4395952Y-5598095D01*
X4392143Y-5600000D01*
X4390238Y-5601905D01*
X4386429Y-5607619D01*
X4384524Y-5615238D01*
X4384524Y-5630476D01*
X4386429Y-5634286D01*
X4388333Y-5636190D01*
X4392143Y-5638095D01*
X4399762Y-5638095D01*
X4403571Y-5636190D01*
X4405476Y-5634286D01*
X4407381Y-5630476D01*
X4407381Y-5620952D01*
X4405476Y-5617143D01*
X4403571Y-5615238D01*
X4399762Y-5613333D01*
X4392143Y-5613333D01*
X4388333Y-5615238D01*
X4386429Y-5617143D01*
X4384524Y-5620952D01*
X7293333Y-4893095D02*
X7280000Y-4874048D01*
X7270476Y-4893095D02*
X7270476Y-4853095D01*
X7285714Y-4853095D01*
X7289524Y-4855000D01*
X7291429Y-4856905D01*
X7293333Y-4860714D01*
X7293333Y-4866429D01*
X7291429Y-4870238D01*
X7289524Y-4872143D01*
X7285714Y-4874048D01*
X7270476Y-4874048D01*
X7306667Y-4853095D02*
X7331429Y-4853095D01*
X7318095Y-4868333D01*
X7323810Y-4868333D01*
X7327619Y-4870238D01*
X7329524Y-4872143D01*
X7331429Y-4875952D01*
X7331429Y-4885476D01*
X7329524Y-4889286D01*
X7327619Y-4891190D01*
X7323810Y-4893095D01*
X7312381Y-4893095D01*
X7308571Y-4891190D01*
X7306667Y-4889286D01*
X6174286Y-5178095D02*
X6160952Y-5159048D01*
X6151429Y-5178095D02*
X6151429Y-5138095D01*
X6166667Y-5138095D01*
X6170476Y-5140000D01*
X6172381Y-5141905D01*
X6174286Y-5145714D01*
X6174286Y-5151429D01*
X6172381Y-5155238D01*
X6170476Y-5157143D01*
X6166667Y-5159048D01*
X6151429Y-5159048D01*
X6212381Y-5178095D02*
X6189524Y-5178095D01*
X6200952Y-5178095D02*
X6200952Y-5138095D01*
X6197143Y-5143810D01*
X6193333Y-5147619D01*
X6189524Y-5149524D01*
X6227619Y-5141905D02*
X6229524Y-5140000D01*
X6233333Y-5138095D01*
X6242857Y-5138095D01*
X6246667Y-5140000D01*
X6248571Y-5141905D01*
X6250476Y-5145714D01*
X6250476Y-5149524D01*
X6248571Y-5155238D01*
X6225714Y-5178095D01*
X6250476Y-5178095D01*
X5899286Y-5268095D02*
X5885952Y-5249048D01*
X5876429Y-5268095D02*
X5876429Y-5228095D01*
X5891667Y-5228095D01*
X5895476Y-5230000D01*
X5897381Y-5231905D01*
X5899286Y-5235714D01*
X5899286Y-5241429D01*
X5897381Y-5245238D01*
X5895476Y-5247143D01*
X5891667Y-5249048D01*
X5876429Y-5249048D01*
X5937381Y-5268095D02*
X5914524Y-5268095D01*
X5925952Y-5268095D02*
X5925952Y-5228095D01*
X5922143Y-5233810D01*
X5918333Y-5237619D01*
X5914524Y-5239524D01*
X5950714Y-5228095D02*
X5975476Y-5228095D01*
X5962143Y-5243333D01*
X5967857Y-5243333D01*
X5971667Y-5245238D01*
X5973571Y-5247143D01*
X5975476Y-5250952D01*
X5975476Y-5260476D01*
X5973571Y-5264286D01*
X5971667Y-5266190D01*
X5967857Y-5268095D01*
X5956429Y-5268095D01*
X5952619Y-5266190D01*
X5950714Y-5264286D01*
X4404286Y-5143095D02*
X4390952Y-5124048D01*
X4381429Y-5143095D02*
X4381429Y-5103095D01*
X4396667Y-5103095D01*
X4400476Y-5105000D01*
X4402381Y-5106905D01*
X4404286Y-5110714D01*
X4404286Y-5116429D01*
X4402381Y-5120238D01*
X4400476Y-5122143D01*
X4396667Y-5124048D01*
X4381429Y-5124048D01*
X4442381Y-5143095D02*
X4419524Y-5143095D01*
X4430952Y-5143095D02*
X4430952Y-5103095D01*
X4427143Y-5108810D01*
X4423333Y-5112619D01*
X4419524Y-5114524D01*
X4476667Y-5116429D02*
X4476667Y-5143095D01*
X4467143Y-5101190D02*
X4457619Y-5129762D01*
X4482381Y-5129762D01*
X6644524Y-3953095D02*
X6644524Y-3985476D01*
X6646429Y-3989286D01*
X6648333Y-3991190D01*
X6652143Y-3993095D01*
X6659762Y-3993095D01*
X6663571Y-3991190D01*
X6665476Y-3989286D01*
X6667381Y-3985476D01*
X6667381Y-3953095D01*
X6707381Y-3993095D02*
X6684524Y-3993095D01*
X6695952Y-3993095D02*
X6695952Y-3953095D01*
X6692143Y-3958810D01*
X6688333Y-3962619D01*
X6684524Y-3964524D01*
X6649524Y-5323095D02*
X6649524Y-5355476D01*
X6651429Y-5359286D01*
X6653333Y-5361190D01*
X6657143Y-5363095D01*
X6664762Y-5363095D01*
X6668571Y-5361190D01*
X6670476Y-5359286D01*
X6672381Y-5355476D01*
X6672381Y-5323095D01*
X6710476Y-5323095D02*
X6691429Y-5323095D01*
X6689524Y-5342143D01*
X6691429Y-5340238D01*
X6695238Y-5338333D01*
X6704762Y-5338333D01*
X6708571Y-5340238D01*
X6710476Y-5342143D01*
X6712381Y-5345952D01*
X6712381Y-5355476D01*
X6710476Y-5359286D01*
X6708571Y-5361190D01*
X6704762Y-5363095D01*
X6695238Y-5363095D01*
X6691429Y-5361190D01*
X6689524Y-5359286D01*
X6769524Y-4528095D02*
X6769524Y-4560476D01*
X6771429Y-4564286D01*
X6773333Y-4566190D01*
X6777143Y-4568095D01*
X6784762Y-4568095D01*
X6788571Y-4566190D01*
X6790476Y-4564286D01*
X6792381Y-4560476D01*
X6792381Y-4528095D01*
X6828571Y-4528095D02*
X6820952Y-4528095D01*
X6817143Y-4530000D01*
X6815238Y-4531905D01*
X6811429Y-4537619D01*
X6809524Y-4545238D01*
X6809524Y-4560476D01*
X6811429Y-4564286D01*
X6813333Y-4566190D01*
X6817143Y-4568095D01*
X6824762Y-4568095D01*
X6828571Y-4566190D01*
X6830476Y-4564286D01*
X6832381Y-4560476D01*
X6832381Y-4550952D01*
X6830476Y-4547143D01*
X6828571Y-4545238D01*
X6824762Y-4543333D01*
X6817143Y-4543333D01*
X6813333Y-4545238D01*
X6811429Y-4547143D01*
X6809524Y-4550952D01*
X4532324Y-3966695D02*
X4532324Y-3999076D01*
X4534229Y-4002886D01*
X4536133Y-4004790D01*
X4539943Y-4006695D01*
X4547562Y-4006695D01*
X4551371Y-4004790D01*
X4553276Y-4002886D01*
X4555181Y-3999076D01*
X4555181Y-3966695D01*
X4579943Y-3983838D02*
X4576133Y-3981933D01*
X4574229Y-3980029D01*
X4572324Y-3976219D01*
X4572324Y-3974314D01*
X4574229Y-3970505D01*
X4576133Y-3968600D01*
X4579943Y-3966695D01*
X4587562Y-3966695D01*
X4591371Y-3968600D01*
X4593276Y-3970505D01*
X4595181Y-3974314D01*
X4595181Y-3976219D01*
X4593276Y-3980029D01*
X4591371Y-3981933D01*
X4587562Y-3983838D01*
X4579943Y-3983838D01*
X4576133Y-3985743D01*
X4574229Y-3987648D01*
X4572324Y-3991457D01*
X4572324Y-3999076D01*
X4574229Y-4002886D01*
X4576133Y-4004790D01*
X4579943Y-4006695D01*
X4587562Y-4006695D01*
X4591371Y-4004790D01*
X4593276Y-4002886D01*
X4595181Y-3999076D01*
X4595181Y-3991457D01*
X4593276Y-3987648D01*
X4591371Y-3985743D01*
X4587562Y-3983838D01*
X4364524Y-4468095D02*
X4364524Y-4500476D01*
X4366429Y-4504286D01*
X4368333Y-4506190D01*
X4372143Y-4508095D01*
X4379762Y-4508095D01*
X4383571Y-4506190D01*
X4385476Y-4504286D01*
X4387381Y-4500476D01*
X4387381Y-4468095D01*
X4408333Y-4508095D02*
X4415952Y-4508095D01*
X4419762Y-4506190D01*
X4421667Y-4504286D01*
X4425476Y-4498571D01*
X4427381Y-4490952D01*
X4427381Y-4475714D01*
X4425476Y-4471905D01*
X4423571Y-4470000D01*
X4419762Y-4468095D01*
X4412143Y-4468095D01*
X4408333Y-4470000D01*
X4406429Y-4471905D01*
X4404524Y-4475714D01*
X4404524Y-4485238D01*
X4406429Y-4489048D01*
X4408333Y-4490952D01*
X4412143Y-4492857D01*
X4419762Y-4492857D01*
X4423571Y-4490952D01*
X4425476Y-4489048D01*
X4427381Y-4485238D01*
X5870476Y-5358095D02*
X5870476Y-5390476D01*
X5872381Y-5394286D01*
X5874286Y-5396190D01*
X5878095Y-5398095D01*
X5885714Y-5398095D01*
X5889524Y-5396190D01*
X5891429Y-5394286D01*
X5893333Y-5390476D01*
X5893333Y-5358095D01*
X5933333Y-5398095D02*
X5910476Y-5398095D01*
X5921905Y-5398095D02*
X5921905Y-5358095D01*
X5918095Y-5363810D01*
X5914286Y-5367619D01*
X5910476Y-5369524D01*
X5958095Y-5358095D02*
X5961905Y-5358095D01*
X5965714Y-5360000D01*
X5967619Y-5361905D01*
X5969524Y-5365714D01*
X5971429Y-5373333D01*
X5971429Y-5382857D01*
X5969524Y-5390476D01*
X5967619Y-5394286D01*
X5965714Y-5396190D01*
X5961905Y-5398095D01*
X5958095Y-5398095D01*
X5954286Y-5396190D01*
X5952381Y-5394286D01*
X5950476Y-5390476D01*
X5948571Y-5382857D01*
X5948571Y-5373333D01*
X5950476Y-5365714D01*
X5952381Y-5361905D01*
X5954286Y-5360000D01*
X5958095Y-5358095D01*
X5174286Y-4958095D02*
X5160952Y-4939048D01*
X5151429Y-4958095D02*
X5151429Y-4918095D01*
X5166667Y-4918095D01*
X5170476Y-4920000D01*
X5172381Y-4921905D01*
X5174286Y-4925714D01*
X5174286Y-4931429D01*
X5172381Y-4935238D01*
X5170476Y-4937143D01*
X5166667Y-4939048D01*
X5151429Y-4939048D01*
X5212381Y-4958095D02*
X5189524Y-4958095D01*
X5200952Y-4958095D02*
X5200952Y-4918095D01*
X5197143Y-4923810D01*
X5193333Y-4927619D01*
X5189524Y-4929524D01*
X5250476Y-4958095D02*
X5227619Y-4958095D01*
X5239048Y-4958095D02*
X5239048Y-4918095D01*
X5235238Y-4923810D01*
X5231429Y-4927619D01*
X5227619Y-4929524D01*
X5174286Y-4793095D02*
X5160952Y-4774048D01*
X5151429Y-4793095D02*
X5151429Y-4753095D01*
X5166667Y-4753095D01*
X5170476Y-4755000D01*
X5172381Y-4756905D01*
X5174286Y-4760714D01*
X5174286Y-4766429D01*
X5172381Y-4770238D01*
X5170476Y-4772143D01*
X5166667Y-4774048D01*
X5151429Y-4774048D01*
X5212381Y-4793095D02*
X5189524Y-4793095D01*
X5200952Y-4793095D02*
X5200952Y-4753095D01*
X5197143Y-4758810D01*
X5193333Y-4762619D01*
X5189524Y-4764524D01*
X5237143Y-4753095D02*
X5240952Y-4753095D01*
X5244762Y-4755000D01*
X5246667Y-4756905D01*
X5248571Y-4760714D01*
X5250476Y-4768333D01*
X5250476Y-4777857D01*
X5248571Y-4785476D01*
X5246667Y-4789286D01*
X5244762Y-4791190D01*
X5240952Y-4793095D01*
X5237143Y-4793095D01*
X5233333Y-4791190D01*
X5231429Y-4789286D01*
X5229524Y-4785476D01*
X5227619Y-4777857D01*
X5227619Y-4768333D01*
X5229524Y-4760714D01*
X5231429Y-4756905D01*
X5233333Y-4755000D01*
X5237143Y-4753095D01*
X5148333Y-4483095D02*
X5135000Y-4464048D01*
X5125476Y-4483095D02*
X5125476Y-4443095D01*
X5140714Y-4443095D01*
X5144524Y-4445000D01*
X5146429Y-4446905D01*
X5148333Y-4450714D01*
X5148333Y-4456429D01*
X5146429Y-4460238D01*
X5144524Y-4462143D01*
X5140714Y-4464048D01*
X5125476Y-4464048D01*
X5167381Y-4483095D02*
X5175000Y-4483095D01*
X5178810Y-4481190D01*
X5180714Y-4479286D01*
X5184524Y-4473571D01*
X5186429Y-4465952D01*
X5186429Y-4450714D01*
X5184524Y-4446905D01*
X5182619Y-4445000D01*
X5178810Y-4443095D01*
X5171191Y-4443095D01*
X5167381Y-4445000D01*
X5165476Y-4446905D01*
X5163571Y-4450714D01*
X5163571Y-4460238D01*
X5165476Y-4464048D01*
X5167381Y-4465952D01*
X5171191Y-4467857D01*
X5178810Y-4467857D01*
X5182619Y-4465952D01*
X5184524Y-4464048D01*
X5186429Y-4460238D01*
X3983333Y-4258095D02*
X3970000Y-4239048D01*
X3960476Y-4258095D02*
X3960476Y-4218095D01*
X3975714Y-4218095D01*
X3979524Y-4220000D01*
X3981429Y-4221905D01*
X3983333Y-4225714D01*
X3983333Y-4231429D01*
X3981429Y-4235238D01*
X3979524Y-4237143D01*
X3975714Y-4239048D01*
X3960476Y-4239048D01*
X4006191Y-4235238D02*
X4002381Y-4233333D01*
X4000476Y-4231429D01*
X3998571Y-4227619D01*
X3998571Y-4225714D01*
X4000476Y-4221905D01*
X4002381Y-4220000D01*
X4006191Y-4218095D01*
X4013810Y-4218095D01*
X4017619Y-4220000D01*
X4019524Y-4221905D01*
X4021429Y-4225714D01*
X4021429Y-4227619D01*
X4019524Y-4231429D01*
X4017619Y-4233333D01*
X4013810Y-4235238D01*
X4006191Y-4235238D01*
X4002381Y-4237143D01*
X4000476Y-4239048D01*
X3998571Y-4242857D01*
X3998571Y-4250476D01*
X4000476Y-4254286D01*
X4002381Y-4256190D01*
X4006191Y-4258095D01*
X4013810Y-4258095D01*
X4017619Y-4256190D01*
X4019524Y-4254286D01*
X4021429Y-4250476D01*
X4021429Y-4242857D01*
X4019524Y-4239048D01*
X4017619Y-4237143D01*
X4013810Y-4235238D01*
X4968333Y-4948095D02*
X4955000Y-4929048D01*
X4945476Y-4948095D02*
X4945476Y-4908095D01*
X4960714Y-4908095D01*
X4964524Y-4910000D01*
X4966429Y-4911905D01*
X4968333Y-4915714D01*
X4968333Y-4921429D01*
X4966429Y-4925238D01*
X4964524Y-4927143D01*
X4960714Y-4929048D01*
X4945476Y-4929048D01*
X4981667Y-4908095D02*
X5008333Y-4908095D01*
X4991191Y-4948095D01*
X4964733Y-4439995D02*
X4951400Y-4420948D01*
X4941876Y-4439995D02*
X4941876Y-4399995D01*
X4957114Y-4399995D01*
X4960924Y-4401900D01*
X4962829Y-4403805D01*
X4964733Y-4407614D01*
X4964733Y-4413329D01*
X4962829Y-4417138D01*
X4960924Y-4419043D01*
X4957114Y-4420948D01*
X4941876Y-4420948D01*
X4999019Y-4399995D02*
X4991400Y-4399995D01*
X4987591Y-4401900D01*
X4985686Y-4403805D01*
X4981876Y-4409519D01*
X4979971Y-4417138D01*
X4979971Y-4432376D01*
X4981876Y-4436186D01*
X4983781Y-4438090D01*
X4987591Y-4439995D01*
X4995210Y-4439995D01*
X4999019Y-4438090D01*
X5000924Y-4436186D01*
X5002829Y-4432376D01*
X5002829Y-4422852D01*
X5000924Y-4419043D01*
X4999019Y-4417138D01*
X4995210Y-4415233D01*
X4987591Y-4415233D01*
X4983781Y-4417138D01*
X4981876Y-4419043D01*
X4979971Y-4422852D01*
X4723333Y-4518095D02*
X4710000Y-4499048D01*
X4700476Y-4518095D02*
X4700476Y-4478095D01*
X4715714Y-4478095D01*
X4719524Y-4480000D01*
X4721429Y-4481905D01*
X4723333Y-4485714D01*
X4723333Y-4491429D01*
X4721429Y-4495238D01*
X4719524Y-4497143D01*
X4715714Y-4499048D01*
X4700476Y-4499048D01*
X4759524Y-4478095D02*
X4740476Y-4478095D01*
X4738571Y-4497143D01*
X4740476Y-4495238D01*
X4744286Y-4493333D01*
X4753810Y-4493333D01*
X4757619Y-4495238D01*
X4759524Y-4497143D01*
X4761429Y-4500952D01*
X4761429Y-4510476D01*
X4759524Y-4514286D01*
X4757619Y-4516190D01*
X4753810Y-4518095D01*
X4744286Y-4518095D01*
X4740476Y-4516190D01*
X4738571Y-4514286D01*
X4818333Y-4943095D02*
X4805000Y-4924048D01*
X4795476Y-4943095D02*
X4795476Y-4903095D01*
X4810714Y-4903095D01*
X4814524Y-4905000D01*
X4816429Y-4906905D01*
X4818333Y-4910714D01*
X4818333Y-4916429D01*
X4816429Y-4920238D01*
X4814524Y-4922143D01*
X4810714Y-4924048D01*
X4795476Y-4924048D01*
X4852619Y-4916429D02*
X4852619Y-4943095D01*
X4843095Y-4901190D02*
X4833571Y-4929762D01*
X4858333Y-4929762D01*
X7143333Y-4818095D02*
X7130000Y-4799048D01*
X7120476Y-4818095D02*
X7120476Y-4778095D01*
X7135714Y-4778095D01*
X7139524Y-4780000D01*
X7141429Y-4781905D01*
X7143333Y-4785714D01*
X7143333Y-4791429D01*
X7141429Y-4795238D01*
X7139524Y-4797143D01*
X7135714Y-4799048D01*
X7120476Y-4799048D01*
X7158571Y-4781905D02*
X7160476Y-4780000D01*
X7164286Y-4778095D01*
X7173810Y-4778095D01*
X7177619Y-4780000D01*
X7179524Y-4781905D01*
X7181429Y-4785714D01*
X7181429Y-4789524D01*
X7179524Y-4795238D01*
X7156667Y-4818095D01*
X7181429Y-4818095D01*
X7518333Y-4868095D02*
X7505000Y-4849048D01*
X7495476Y-4868095D02*
X7495476Y-4828095D01*
X7510714Y-4828095D01*
X7514524Y-4830000D01*
X7516429Y-4831905D01*
X7518333Y-4835714D01*
X7518333Y-4841429D01*
X7516429Y-4845238D01*
X7514524Y-4847143D01*
X7510714Y-4849048D01*
X7495476Y-4849048D01*
X7556429Y-4868095D02*
X7533571Y-4868095D01*
X7545000Y-4868095D02*
X7545000Y-4828095D01*
X7541191Y-4833810D01*
X7537381Y-4837619D01*
X7533571Y-4839524D01*
X4649286Y-4464286D02*
X4647381Y-4466190D01*
X4641667Y-4468095D01*
X4637857Y-4468095D01*
X4632143Y-4466190D01*
X4628333Y-4462381D01*
X4626429Y-4458571D01*
X4624524Y-4450952D01*
X4624524Y-4445238D01*
X4626429Y-4437619D01*
X4628333Y-4433810D01*
X4632143Y-4430000D01*
X4637857Y-4428095D01*
X4641667Y-4428095D01*
X4647381Y-4430000D01*
X4649286Y-4431905D01*
X4687381Y-4468095D02*
X4664524Y-4468095D01*
X4675952Y-4468095D02*
X4675952Y-4428095D01*
X4672143Y-4433810D01*
X4668333Y-4437619D01*
X4664524Y-4439524D01*
X4721667Y-4441429D02*
X4721667Y-4468095D01*
X4712143Y-4426190D02*
X4702619Y-4454762D01*
X4727381Y-4454762D01*
X6048690Y-4068905D02*
X6044881Y-4067000D01*
X6041071Y-4063190D01*
X6035357Y-4057476D01*
X6031548Y-4055571D01*
X6027738Y-4055571D01*
X6029643Y-4065095D02*
X6025833Y-4063190D01*
X6022024Y-4059381D01*
X6020119Y-4051762D01*
X6020119Y-4038429D01*
X6022024Y-4030810D01*
X6025833Y-4027000D01*
X6029643Y-4025095D01*
X6037262Y-4025095D01*
X6041071Y-4027000D01*
X6044881Y-4030810D01*
X6046786Y-4038429D01*
X6046786Y-4051762D01*
X6044881Y-4059381D01*
X6041071Y-4063190D01*
X6037262Y-4065095D01*
X6029643Y-4065095D01*
X6082976Y-4025095D02*
X6063929Y-4025095D01*
X6062024Y-4044143D01*
X6063929Y-4042238D01*
X6067738Y-4040333D01*
X6077262Y-4040333D01*
X6081071Y-4042238D01*
X6082976Y-4044143D01*
X6084881Y-4047952D01*
X6084881Y-4057476D01*
X6082976Y-4061286D01*
X6081071Y-4063190D01*
X6077262Y-4065095D01*
X6067738Y-4065095D01*
X6063929Y-4063190D01*
X6062024Y-4061286D01*
X6054690Y-4269905D02*
X6050881Y-4268000D01*
X6047071Y-4264190D01*
X6041357Y-4258476D01*
X6037548Y-4256571D01*
X6033738Y-4256571D01*
X6035643Y-4266095D02*
X6031833Y-4264190D01*
X6028024Y-4260381D01*
X6026119Y-4252762D01*
X6026119Y-4239429D01*
X6028024Y-4231810D01*
X6031833Y-4228000D01*
X6035643Y-4226095D01*
X6043262Y-4226095D01*
X6047071Y-4228000D01*
X6050881Y-4231810D01*
X6052786Y-4239429D01*
X6052786Y-4252762D01*
X6050881Y-4260381D01*
X6047071Y-4264190D01*
X6043262Y-4266095D01*
X6035643Y-4266095D01*
X6087071Y-4239429D02*
X6087071Y-4266095D01*
X6077548Y-4224190D02*
X6068024Y-4252762D01*
X6092786Y-4252762D01*
X6123690Y-5754905D02*
X6119881Y-5753000D01*
X6116071Y-5749190D01*
X6110357Y-5743476D01*
X6106548Y-5741571D01*
X6102738Y-5741571D01*
X6104643Y-5751095D02*
X6100833Y-5749190D01*
X6097024Y-5745381D01*
X6095119Y-5737762D01*
X6095119Y-5724429D01*
X6097024Y-5716810D01*
X6100833Y-5713000D01*
X6104643Y-5711095D01*
X6112262Y-5711095D01*
X6116071Y-5713000D01*
X6119881Y-5716810D01*
X6121786Y-5724429D01*
X6121786Y-5737762D01*
X6119881Y-5745381D01*
X6116071Y-5749190D01*
X6112262Y-5751095D01*
X6104643Y-5751095D01*
X6135119Y-5711095D02*
X6159881Y-5711095D01*
X6146548Y-5726333D01*
X6152262Y-5726333D01*
X6156071Y-5728238D01*
X6157976Y-5730143D01*
X6159881Y-5733952D01*
X6159881Y-5743476D01*
X6157976Y-5747286D01*
X6156071Y-5749190D01*
X6152262Y-5751095D01*
X6140833Y-5751095D01*
X6137024Y-5749190D01*
X6135119Y-5747286D01*
X6036690Y-5325905D02*
X6032881Y-5324000D01*
X6029071Y-5320190D01*
X6023357Y-5314476D01*
X6019548Y-5312571D01*
X6015738Y-5312571D01*
X6017643Y-5322095D02*
X6013833Y-5320190D01*
X6010024Y-5316381D01*
X6008119Y-5308762D01*
X6008119Y-5295429D01*
X6010024Y-5287810D01*
X6013833Y-5284000D01*
X6017643Y-5282095D01*
X6025262Y-5282095D01*
X6029071Y-5284000D01*
X6032881Y-5287810D01*
X6034786Y-5295429D01*
X6034786Y-5308762D01*
X6032881Y-5316381D01*
X6029071Y-5320190D01*
X6025262Y-5322095D01*
X6017643Y-5322095D01*
X6050024Y-5285905D02*
X6051929Y-5284000D01*
X6055738Y-5282095D01*
X6065262Y-5282095D01*
X6069071Y-5284000D01*
X6070976Y-5285905D01*
X6072881Y-5289714D01*
X6072881Y-5293524D01*
X6070976Y-5299238D01*
X6048119Y-5322095D01*
X6072881Y-5322095D01*
X6687690Y-4857905D02*
X6683881Y-4856000D01*
X6680071Y-4852190D01*
X6674357Y-4846476D01*
X6670548Y-4844571D01*
X6666738Y-4844571D01*
X6668643Y-4854095D02*
X6664833Y-4852190D01*
X6661024Y-4848381D01*
X6659119Y-4840762D01*
X6659119Y-4827429D01*
X6661024Y-4819810D01*
X6664833Y-4816000D01*
X6668643Y-4814095D01*
X6676262Y-4814095D01*
X6680071Y-4816000D01*
X6683881Y-4819810D01*
X6685786Y-4827429D01*
X6685786Y-4840762D01*
X6683881Y-4848381D01*
X6680071Y-4852190D01*
X6676262Y-4854095D01*
X6668643Y-4854095D01*
X6723881Y-4854095D02*
X6701024Y-4854095D01*
X6712452Y-4854095D02*
X6712452Y-4814095D01*
X6708643Y-4819810D01*
X6704833Y-4823619D01*
X6701024Y-4825524D01*
M02*
