%FSLAX36Y36*%
G04 Gerber Fmt 3.6, Leading zero omitted, Abs format (unit inch)*
G04 Created by KiCad (PCBNEW (2014-jul-16 BZR unknown)-product) date Thu 16 Oct 2014 07:06:33 PM PDT*
%MOIN*%
G01*
G04 APERTURE LIST*
%ADD10C,0.003937*%
%ADD11C,0.008000*%
%ADD12C,0.000100*%
G04 APERTURE END LIST*
D10*
D11*
X7319914Y-5426695D02*
X7319914Y-5386695D01*
X7302771Y-5426695D02*
X7302771Y-5405743D01*
X7304676Y-5401933D01*
X7308486Y-5400029D01*
X7314200Y-5400029D01*
X7318009Y-5401933D01*
X7319914Y-5403838D01*
X7266581Y-5426695D02*
X7266581Y-5405743D01*
X7268486Y-5401933D01*
X7272295Y-5400029D01*
X7279914Y-5400029D01*
X7283724Y-5401933D01*
X7266581Y-5424790D02*
X7270390Y-5426695D01*
X7279914Y-5426695D01*
X7283724Y-5424790D01*
X7285629Y-5420981D01*
X7285629Y-5417171D01*
X7283724Y-5413362D01*
X7279914Y-5411457D01*
X7270390Y-5411457D01*
X7266581Y-5409552D01*
X7247533Y-5426695D02*
X7247533Y-5400029D01*
X7247533Y-5407648D02*
X7245629Y-5403838D01*
X7243724Y-5401933D01*
X7239914Y-5400029D01*
X7236105Y-5400029D01*
X7205629Y-5426695D02*
X7205629Y-5386695D01*
X7205629Y-5424790D02*
X7209438Y-5426695D01*
X7217057Y-5426695D01*
X7220867Y-5424790D01*
X7222771Y-5422886D01*
X7224676Y-5419076D01*
X7224676Y-5407648D01*
X7222771Y-5403838D01*
X7220867Y-5401933D01*
X7217057Y-5400029D01*
X7209438Y-5400029D01*
X7205629Y-5401933D01*
X7190390Y-5400029D02*
X7182771Y-5426695D01*
X7175152Y-5407648D01*
X7167533Y-5426695D01*
X7159914Y-5400029D01*
X7127533Y-5426695D02*
X7127533Y-5405743D01*
X7129438Y-5401933D01*
X7133248Y-5400029D01*
X7140867Y-5400029D01*
X7144676Y-5401933D01*
X7127533Y-5424790D02*
X7131343Y-5426695D01*
X7140867Y-5426695D01*
X7144676Y-5424790D01*
X7146581Y-5420981D01*
X7146581Y-5417171D01*
X7144676Y-5413362D01*
X7140867Y-5411457D01*
X7131343Y-5411457D01*
X7127533Y-5409552D01*
X7108486Y-5426695D02*
X7108486Y-5400029D01*
X7108486Y-5407648D02*
X7106581Y-5403838D01*
X7104676Y-5401933D01*
X7100867Y-5400029D01*
X7097057Y-5400029D01*
X7068486Y-5424790D02*
X7072295Y-5426695D01*
X7079914Y-5426695D01*
X7083724Y-5424790D01*
X7085629Y-5420981D01*
X7085629Y-5405743D01*
X7083724Y-5401933D01*
X7079914Y-5400029D01*
X7072295Y-5400029D01*
X7068486Y-5401933D01*
X7066581Y-5405743D01*
X7066581Y-5409552D01*
X7085629Y-5413362D01*
X7350476Y-5373095D02*
X7354286Y-5371190D01*
X7356190Y-5369286D01*
X7358095Y-5365476D01*
X7358095Y-5354048D01*
X7356190Y-5350238D01*
X7354286Y-5348333D01*
X7350476Y-5346429D01*
X7344762Y-5346429D01*
X7340952Y-5348333D01*
X7339048Y-5350238D01*
X7337143Y-5354048D01*
X7337143Y-5365476D01*
X7339048Y-5369286D01*
X7340952Y-5371190D01*
X7344762Y-5373095D01*
X7350476Y-5373095D01*
X7320000Y-5346429D02*
X7320000Y-5386429D01*
X7320000Y-5348333D02*
X7316190Y-5346429D01*
X7308571Y-5346429D01*
X7304762Y-5348333D01*
X7302857Y-5350238D01*
X7300952Y-5354048D01*
X7300952Y-5365476D01*
X7302857Y-5369286D01*
X7304762Y-5371190D01*
X7308571Y-5373095D01*
X7316190Y-5373095D01*
X7320000Y-5371190D01*
X7268571Y-5371190D02*
X7272381Y-5373095D01*
X7280000Y-5373095D01*
X7283809Y-5371190D01*
X7285714Y-5367381D01*
X7285714Y-5352143D01*
X7283809Y-5348333D01*
X7280000Y-5346429D01*
X7272381Y-5346429D01*
X7268571Y-5348333D01*
X7266667Y-5352143D01*
X7266667Y-5355952D01*
X7285714Y-5359762D01*
X7249524Y-5346429D02*
X7249524Y-5373095D01*
X7249524Y-5350238D02*
X7247619Y-5348333D01*
X7243809Y-5346429D01*
X7238095Y-5346429D01*
X7234286Y-5348333D01*
X7232381Y-5352143D01*
X7232381Y-5373095D01*
X7184762Y-5371190D02*
X7180952Y-5373095D01*
X7173333Y-5373095D01*
X7169524Y-5371190D01*
X7167619Y-5367381D01*
X7167619Y-5365476D01*
X7169524Y-5361667D01*
X7173333Y-5359762D01*
X7179048Y-5359762D01*
X7182857Y-5357857D01*
X7184762Y-5354048D01*
X7184762Y-5352143D01*
X7182857Y-5348333D01*
X7179048Y-5346429D01*
X7173333Y-5346429D01*
X7169524Y-5348333D01*
X7144762Y-5373095D02*
X7148571Y-5371190D01*
X7150476Y-5369286D01*
X7152381Y-5365476D01*
X7152381Y-5354048D01*
X7150476Y-5350238D01*
X7148571Y-5348333D01*
X7144762Y-5346429D01*
X7139048Y-5346429D01*
X7135238Y-5348333D01*
X7133333Y-5350238D01*
X7131429Y-5354048D01*
X7131429Y-5365476D01*
X7133333Y-5369286D01*
X7135238Y-5371190D01*
X7139048Y-5373095D01*
X7144762Y-5373095D01*
X7097143Y-5346429D02*
X7097143Y-5373095D01*
X7114286Y-5346429D02*
X7114286Y-5367381D01*
X7112381Y-5371190D01*
X7108571Y-5373095D01*
X7102857Y-5373095D01*
X7099048Y-5371190D01*
X7097143Y-5369286D01*
X7078095Y-5373095D02*
X7078095Y-5346429D01*
X7078095Y-5354048D02*
X7076190Y-5350238D01*
X7074286Y-5348333D01*
X7070476Y-5346429D01*
X7066667Y-5346429D01*
X7036191Y-5371190D02*
X7040000Y-5373095D01*
X7047619Y-5373095D01*
X7051429Y-5371190D01*
X7053333Y-5369286D01*
X7055238Y-5365476D01*
X7055238Y-5354048D01*
X7053333Y-5350238D01*
X7051429Y-5348333D01*
X7047619Y-5346429D01*
X7040000Y-5346429D01*
X7036191Y-5348333D01*
X7003810Y-5371190D02*
X7007619Y-5373095D01*
X7015238Y-5373095D01*
X7019048Y-5371190D01*
X7020952Y-5367381D01*
X7020952Y-5352143D01*
X7019048Y-5348333D01*
X7015238Y-5346429D01*
X7007619Y-5346429D01*
X7003810Y-5348333D01*
X7001905Y-5352143D01*
X7001905Y-5355952D01*
X7020952Y-5359762D01*
D12*
G36*
X7109100Y-5334700D02*
X7110700Y-5333900D01*
X7114200Y-5331700D01*
X7119200Y-5328400D01*
X7125100Y-5324400D01*
X7131000Y-5320400D01*
X7135900Y-5317200D01*
X7139400Y-5315000D01*
X7140800Y-5314200D01*
X7141500Y-5314400D01*
X7144400Y-5315800D01*
X7148500Y-5317900D01*
X7150800Y-5319200D01*
X7154600Y-5320800D01*
X7156500Y-5321100D01*
X7156800Y-5320600D01*
X7158200Y-5317700D01*
X7160300Y-5312800D01*
X7163200Y-5306300D01*
X7166400Y-5298700D01*
X7169900Y-5290500D01*
X7173400Y-5282100D01*
X7176700Y-5274100D01*
X7179600Y-5266900D01*
X7182000Y-5261100D01*
X7183500Y-5257100D01*
X7184100Y-5255300D01*
X7183900Y-5254900D01*
X7182000Y-5253100D01*
X7178700Y-5250600D01*
X7171700Y-5244900D01*
X7164600Y-5236100D01*
X7160400Y-5226200D01*
X7159000Y-5215200D01*
X7160200Y-5204900D01*
X7164200Y-5195100D01*
X7171000Y-5186300D01*
X7179400Y-5179700D01*
X7189100Y-5175500D01*
X7200000Y-5174200D01*
X7210400Y-5175400D01*
X7220500Y-5179300D01*
X7229300Y-5186100D01*
X7233000Y-5190400D01*
X7238200Y-5199300D01*
X7241100Y-5208900D01*
X7241500Y-5211400D01*
X7241000Y-5221900D01*
X7237900Y-5232000D01*
X7232300Y-5241000D01*
X7224600Y-5248400D01*
X7223700Y-5249100D01*
X7220100Y-5251800D01*
X7217700Y-5253600D01*
X7215800Y-5255200D01*
X7229200Y-5287500D01*
X7231400Y-5292600D01*
X7235000Y-5301400D01*
X7238300Y-5309000D01*
X7240900Y-5315100D01*
X7242600Y-5319100D01*
X7243400Y-5320700D01*
X7243500Y-5320800D01*
X7244700Y-5321000D01*
X7247200Y-5320200D01*
X7251700Y-5318000D01*
X7254700Y-5316400D01*
X7258100Y-5314800D01*
X7259600Y-5314200D01*
X7260900Y-5314900D01*
X7264200Y-5317000D01*
X7269000Y-5320200D01*
X7274800Y-5324100D01*
X7280300Y-5327900D01*
X7285400Y-5331200D01*
X7289100Y-5333600D01*
X7290800Y-5334500D01*
X7291100Y-5334500D01*
X7292700Y-5333700D01*
X7295600Y-5331200D01*
X7300000Y-5327100D01*
X7306200Y-5320900D01*
X7307200Y-5320000D01*
X7312300Y-5314800D01*
X7316500Y-5310400D01*
X7319200Y-5307300D01*
X7320200Y-5305900D01*
X7320200Y-5305900D01*
X7319300Y-5304100D01*
X7317000Y-5300500D01*
X7313600Y-5295300D01*
X7309600Y-5289300D01*
X7298900Y-5273800D01*
X7304700Y-5259100D01*
X7306500Y-5254700D01*
X7308800Y-5249200D01*
X7310500Y-5245300D01*
X7311400Y-5243600D01*
X7313000Y-5243100D01*
X7317000Y-5242100D01*
X7322800Y-5240900D01*
X7329800Y-5239600D01*
X7336400Y-5238400D01*
X7342400Y-5237300D01*
X7346700Y-5236400D01*
X7348600Y-5236000D01*
X7349100Y-5235700D01*
X7349500Y-5234800D01*
X7349700Y-5232800D01*
X7349900Y-5229100D01*
X7349900Y-5223400D01*
X7349900Y-5215200D01*
X7349900Y-5214300D01*
X7349900Y-5206400D01*
X7349700Y-5200100D01*
X7349500Y-5196000D01*
X7349200Y-5194400D01*
X7349200Y-5194400D01*
X7347400Y-5193900D01*
X7343100Y-5193000D01*
X7337200Y-5191800D01*
X7330000Y-5190500D01*
X7329600Y-5190400D01*
X7322500Y-5189000D01*
X7316600Y-5187800D01*
X7312400Y-5186800D01*
X7310600Y-5186300D01*
X7310300Y-5185800D01*
X7308800Y-5183000D01*
X7306800Y-5178600D01*
X7304500Y-5173300D01*
X7302200Y-5167700D01*
X7300100Y-5162700D01*
X7298800Y-5158900D01*
X7298400Y-5157200D01*
X7298400Y-5157200D01*
X7299500Y-5155500D01*
X7301900Y-5151800D01*
X7305400Y-5146700D01*
X7309500Y-5140700D01*
X7309800Y-5140200D01*
X7313900Y-5134200D01*
X7317200Y-5129200D01*
X7319400Y-5125500D01*
X7320200Y-5123900D01*
X7320200Y-5123800D01*
X7318900Y-5122000D01*
X7315800Y-5118600D01*
X7311400Y-5114000D01*
X7306200Y-5108700D01*
X7304500Y-5107100D01*
X7298700Y-5101400D01*
X7294600Y-5097700D01*
X7292100Y-5095700D01*
X7290900Y-5095300D01*
X7290900Y-5095300D01*
X7289100Y-5096400D01*
X7285300Y-5098900D01*
X7280100Y-5102300D01*
X7274100Y-5106500D01*
X7273600Y-5106800D01*
X7267600Y-5110800D01*
X7262600Y-5114200D01*
X7259100Y-5116600D01*
X7257500Y-5117500D01*
X7257300Y-5117500D01*
X7254800Y-5116800D01*
X7250600Y-5115300D01*
X7245300Y-5113200D01*
X7239800Y-5111000D01*
X7234700Y-5108900D01*
X7230900Y-5107200D01*
X7229200Y-5106200D01*
X7229100Y-5106100D01*
X7228500Y-5103900D01*
X7227500Y-5099400D01*
X7226200Y-5093300D01*
X7224800Y-5085900D01*
X7224600Y-5084700D01*
X7223200Y-5077600D01*
X7222100Y-5071700D01*
X7221200Y-5067600D01*
X7220800Y-5065900D01*
X7219800Y-5065700D01*
X7216300Y-5065400D01*
X7211000Y-5065300D01*
X7204500Y-5065200D01*
X7197700Y-5065300D01*
X7191100Y-5065400D01*
X7185500Y-5065600D01*
X7181400Y-5065900D01*
X7179700Y-5066200D01*
X7179700Y-5066300D01*
X7179000Y-5068500D01*
X7178100Y-5073000D01*
X7176800Y-5079300D01*
X7175400Y-5086600D01*
X7175100Y-5087900D01*
X7173800Y-5095000D01*
X7172600Y-5100900D01*
X7171700Y-5104900D01*
X7171300Y-5106500D01*
X7170600Y-5106800D01*
X7167700Y-5108100D01*
X7162900Y-5110100D01*
X7157000Y-5112500D01*
X7143200Y-5118000D01*
X7126400Y-5106500D01*
X7124900Y-5105500D01*
X7118800Y-5101300D01*
X7113800Y-5098000D01*
X7110400Y-5095800D01*
X7109000Y-5095000D01*
X7108800Y-5095000D01*
X7107100Y-5096500D01*
X7103800Y-5099600D01*
X7099300Y-5104100D01*
X7093900Y-5109300D01*
X7090000Y-5113300D01*
X7085400Y-5118000D01*
X7082500Y-5121200D01*
X7080900Y-5123200D01*
X7080300Y-5124400D01*
X7080400Y-5125300D01*
X7081500Y-5127000D01*
X7084000Y-5130700D01*
X7087500Y-5135800D01*
X7091500Y-5141800D01*
X7094900Y-5146700D01*
X7098600Y-5152400D01*
X7101000Y-5156400D01*
X7101800Y-5158400D01*
X7101600Y-5159200D01*
X7100400Y-5162500D01*
X7098400Y-5167500D01*
X7095900Y-5173400D01*
X7090000Y-5186700D01*
X7081300Y-5188400D01*
X7076000Y-5189400D01*
X7068600Y-5190800D01*
X7061500Y-5192200D01*
X7050400Y-5194400D01*
X7050000Y-5235000D01*
X7051800Y-5235700D01*
X7053400Y-5236200D01*
X7057500Y-5237100D01*
X7063300Y-5238200D01*
X7070200Y-5239500D01*
X7076100Y-5240600D01*
X7082000Y-5241800D01*
X7086300Y-5242600D01*
X7088200Y-5243000D01*
X7088700Y-5243600D01*
X7090200Y-5246500D01*
X7092200Y-5251100D01*
X7094600Y-5256500D01*
X7097000Y-5262200D01*
X7099100Y-5267500D01*
X7100500Y-5271500D01*
X7101100Y-5273600D01*
X7100200Y-5275100D01*
X7098000Y-5278600D01*
X7094700Y-5283600D01*
X7090700Y-5289400D01*
X7086700Y-5295300D01*
X7083300Y-5300400D01*
X7080900Y-5304000D01*
X7079900Y-5305600D01*
X7080400Y-5306800D01*
X7082800Y-5309600D01*
X7087200Y-5314200D01*
X7093800Y-5320800D01*
X7094900Y-5321800D01*
X7100200Y-5326900D01*
X7104600Y-5331000D01*
X7107700Y-5333700D01*
X7109100Y-5334700D01*
X7109100Y-5334700D01*
G37*
X7109100Y-5334700D02*
X7110700Y-5333900D01*
X7114200Y-5331700D01*
X7119200Y-5328400D01*
X7125100Y-5324400D01*
X7131000Y-5320400D01*
X7135900Y-5317200D01*
X7139400Y-5315000D01*
X7140800Y-5314200D01*
X7141500Y-5314400D01*
X7144400Y-5315800D01*
X7148500Y-5317900D01*
X7150800Y-5319200D01*
X7154600Y-5320800D01*
X7156500Y-5321100D01*
X7156800Y-5320600D01*
X7158200Y-5317700D01*
X7160300Y-5312800D01*
X7163200Y-5306300D01*
X7166400Y-5298700D01*
X7169900Y-5290500D01*
X7173400Y-5282100D01*
X7176700Y-5274100D01*
X7179600Y-5266900D01*
X7182000Y-5261100D01*
X7183500Y-5257100D01*
X7184100Y-5255300D01*
X7183900Y-5254900D01*
X7182000Y-5253100D01*
X7178700Y-5250600D01*
X7171700Y-5244900D01*
X7164600Y-5236100D01*
X7160400Y-5226200D01*
X7159000Y-5215200D01*
X7160200Y-5204900D01*
X7164200Y-5195100D01*
X7171000Y-5186300D01*
X7179400Y-5179700D01*
X7189100Y-5175500D01*
X7200000Y-5174200D01*
X7210400Y-5175400D01*
X7220500Y-5179300D01*
X7229300Y-5186100D01*
X7233000Y-5190400D01*
X7238200Y-5199300D01*
X7241100Y-5208900D01*
X7241500Y-5211400D01*
X7241000Y-5221900D01*
X7237900Y-5232000D01*
X7232300Y-5241000D01*
X7224600Y-5248400D01*
X7223700Y-5249100D01*
X7220100Y-5251800D01*
X7217700Y-5253600D01*
X7215800Y-5255200D01*
X7229200Y-5287500D01*
X7231400Y-5292600D01*
X7235000Y-5301400D01*
X7238300Y-5309000D01*
X7240900Y-5315100D01*
X7242600Y-5319100D01*
X7243400Y-5320700D01*
X7243500Y-5320800D01*
X7244700Y-5321000D01*
X7247200Y-5320200D01*
X7251700Y-5318000D01*
X7254700Y-5316400D01*
X7258100Y-5314800D01*
X7259600Y-5314200D01*
X7260900Y-5314900D01*
X7264200Y-5317000D01*
X7269000Y-5320200D01*
X7274800Y-5324100D01*
X7280300Y-5327900D01*
X7285400Y-5331200D01*
X7289100Y-5333600D01*
X7290800Y-5334500D01*
X7291100Y-5334500D01*
X7292700Y-5333700D01*
X7295600Y-5331200D01*
X7300000Y-5327100D01*
X7306200Y-5320900D01*
X7307200Y-5320000D01*
X7312300Y-5314800D01*
X7316500Y-5310400D01*
X7319200Y-5307300D01*
X7320200Y-5305900D01*
X7320200Y-5305900D01*
X7319300Y-5304100D01*
X7317000Y-5300500D01*
X7313600Y-5295300D01*
X7309600Y-5289300D01*
X7298900Y-5273800D01*
X7304700Y-5259100D01*
X7306500Y-5254700D01*
X7308800Y-5249200D01*
X7310500Y-5245300D01*
X7311400Y-5243600D01*
X7313000Y-5243100D01*
X7317000Y-5242100D01*
X7322800Y-5240900D01*
X7329800Y-5239600D01*
X7336400Y-5238400D01*
X7342400Y-5237300D01*
X7346700Y-5236400D01*
X7348600Y-5236000D01*
X7349100Y-5235700D01*
X7349500Y-5234800D01*
X7349700Y-5232800D01*
X7349900Y-5229100D01*
X7349900Y-5223400D01*
X7349900Y-5215200D01*
X7349900Y-5214300D01*
X7349900Y-5206400D01*
X7349700Y-5200100D01*
X7349500Y-5196000D01*
X7349200Y-5194400D01*
X7349200Y-5194400D01*
X7347400Y-5193900D01*
X7343100Y-5193000D01*
X7337200Y-5191800D01*
X7330000Y-5190500D01*
X7329600Y-5190400D01*
X7322500Y-5189000D01*
X7316600Y-5187800D01*
X7312400Y-5186800D01*
X7310600Y-5186300D01*
X7310300Y-5185800D01*
X7308800Y-5183000D01*
X7306800Y-5178600D01*
X7304500Y-5173300D01*
X7302200Y-5167700D01*
X7300100Y-5162700D01*
X7298800Y-5158900D01*
X7298400Y-5157200D01*
X7298400Y-5157200D01*
X7299500Y-5155500D01*
X7301900Y-5151800D01*
X7305400Y-5146700D01*
X7309500Y-5140700D01*
X7309800Y-5140200D01*
X7313900Y-5134200D01*
X7317200Y-5129200D01*
X7319400Y-5125500D01*
X7320200Y-5123900D01*
X7320200Y-5123800D01*
X7318900Y-5122000D01*
X7315800Y-5118600D01*
X7311400Y-5114000D01*
X7306200Y-5108700D01*
X7304500Y-5107100D01*
X7298700Y-5101400D01*
X7294600Y-5097700D01*
X7292100Y-5095700D01*
X7290900Y-5095300D01*
X7290900Y-5095300D01*
X7289100Y-5096400D01*
X7285300Y-5098900D01*
X7280100Y-5102300D01*
X7274100Y-5106500D01*
X7273600Y-5106800D01*
X7267600Y-5110800D01*
X7262600Y-5114200D01*
X7259100Y-5116600D01*
X7257500Y-5117500D01*
X7257300Y-5117500D01*
X7254800Y-5116800D01*
X7250600Y-5115300D01*
X7245300Y-5113200D01*
X7239800Y-5111000D01*
X7234700Y-5108900D01*
X7230900Y-5107200D01*
X7229200Y-5106200D01*
X7229100Y-5106100D01*
X7228500Y-5103900D01*
X7227500Y-5099400D01*
X7226200Y-5093300D01*
X7224800Y-5085900D01*
X7224600Y-5084700D01*
X7223200Y-5077600D01*
X7222100Y-5071700D01*
X7221200Y-5067600D01*
X7220800Y-5065900D01*
X7219800Y-5065700D01*
X7216300Y-5065400D01*
X7211000Y-5065300D01*
X7204500Y-5065200D01*
X7197700Y-5065300D01*
X7191100Y-5065400D01*
X7185500Y-5065600D01*
X7181400Y-5065900D01*
X7179700Y-5066200D01*
X7179700Y-5066300D01*
X7179000Y-5068500D01*
X7178100Y-5073000D01*
X7176800Y-5079300D01*
X7175400Y-5086600D01*
X7175100Y-5087900D01*
X7173800Y-5095000D01*
X7172600Y-5100900D01*
X7171700Y-5104900D01*
X7171300Y-5106500D01*
X7170600Y-5106800D01*
X7167700Y-5108100D01*
X7162900Y-5110100D01*
X7157000Y-5112500D01*
X7143200Y-5118000D01*
X7126400Y-5106500D01*
X7124900Y-5105500D01*
X7118800Y-5101300D01*
X7113800Y-5098000D01*
X7110400Y-5095800D01*
X7109000Y-5095000D01*
X7108800Y-5095000D01*
X7107100Y-5096500D01*
X7103800Y-5099600D01*
X7099300Y-5104100D01*
X7093900Y-5109300D01*
X7090000Y-5113300D01*
X7085400Y-5118000D01*
X7082500Y-5121200D01*
X7080900Y-5123200D01*
X7080300Y-5124400D01*
X7080400Y-5125300D01*
X7081500Y-5127000D01*
X7084000Y-5130700D01*
X7087500Y-5135800D01*
X7091500Y-5141800D01*
X7094900Y-5146700D01*
X7098600Y-5152400D01*
X7101000Y-5156400D01*
X7101800Y-5158400D01*
X7101600Y-5159200D01*
X7100400Y-5162500D01*
X7098400Y-5167500D01*
X7095900Y-5173400D01*
X7090000Y-5186700D01*
X7081300Y-5188400D01*
X7076000Y-5189400D01*
X7068600Y-5190800D01*
X7061500Y-5192200D01*
X7050400Y-5194400D01*
X7050000Y-5235000D01*
X7051800Y-5235700D01*
X7053400Y-5236200D01*
X7057500Y-5237100D01*
X7063300Y-5238200D01*
X7070200Y-5239500D01*
X7076100Y-5240600D01*
X7082000Y-5241800D01*
X7086300Y-5242600D01*
X7088200Y-5243000D01*
X7088700Y-5243600D01*
X7090200Y-5246500D01*
X7092200Y-5251100D01*
X7094600Y-5256500D01*
X7097000Y-5262200D01*
X7099100Y-5267500D01*
X7100500Y-5271500D01*
X7101100Y-5273600D01*
X7100200Y-5275100D01*
X7098000Y-5278600D01*
X7094700Y-5283600D01*
X7090700Y-5289400D01*
X7086700Y-5295300D01*
X7083300Y-5300400D01*
X7080900Y-5304000D01*
X7079900Y-5305600D01*
X7080400Y-5306800D01*
X7082800Y-5309600D01*
X7087200Y-5314200D01*
X7093800Y-5320800D01*
X7094900Y-5321800D01*
X7100200Y-5326900D01*
X7104600Y-5331000D01*
X7107700Y-5333700D01*
X7109100Y-5334700D01*
M02*
