%FSLAX36Y36*%
G04 Gerber Fmt 3.6, Leading zero omitted, Abs format (unit inch)*
G04 Created by KiCad (PCBNEW (2014-jul-16 BZR unknown)-product) date Thu 16 Oct 2014 07:06:32 PM PDT*
%MOIN*%
G01*
G04 APERTURE LIST*
%ADD10C,0.003937*%
%ADD11C,0.059100*%
%ADD12C,0.078700*%
%ADD13R,0.078700X0.078700*%
%ADD14C,0.236220*%
%ADD15R,0.068000X0.068000*%
%ADD16C,0.068000*%
%ADD17R,0.060000X0.060000*%
%ADD18C,0.060000*%
%ADD19O,0.068000X0.068000*%
%ADD20R,0.055000X0.055000*%
%ADD21C,0.055000*%
%ADD22O,0.137800X0.066900*%
%ADD23R,0.620000X0.380000*%
%ADD24R,0.080000X0.080000*%
%ADD25O,0.080000X0.080000*%
%ADD26C,0.035000*%
%ADD27C,0.008000*%
%ADD28C,0.040000*%
%ADD29C,0.010000*%
G04 APERTURE END LIST*
D10*
D11*
X4325000Y-4050000D03*
X4325000Y-4150000D03*
X4175000Y-4425000D03*
X4175000Y-4325000D03*
X4325000Y-4375000D03*
X4325000Y-4275000D03*
X4950000Y-5625000D03*
X5050000Y-5625000D03*
D12*
X4425000Y-5000000D03*
D13*
X4825000Y-5000000D03*
D14*
X4133858Y-4133858D03*
X7677165Y-4133858D03*
X4133858Y-5708661D03*
X7677165Y-5708661D03*
D15*
X7805000Y-5175000D03*
D16*
X7805000Y-5275000D03*
X7805000Y-5375000D03*
D15*
X4275000Y-5400000D03*
D16*
X4175000Y-5400000D03*
X4075000Y-5400000D03*
D17*
X4100000Y-4725000D03*
D18*
X4200000Y-4725000D03*
X4100000Y-4825000D03*
X4200000Y-4825000D03*
X4100000Y-4925000D03*
X4200000Y-4925000D03*
X4100000Y-5025000D03*
X4200000Y-5025000D03*
X4100000Y-5125000D03*
X4200000Y-5125000D03*
D15*
X5600000Y-5775000D03*
D19*
X5700000Y-5775000D03*
X5800000Y-5775000D03*
X5900000Y-5775000D03*
D13*
X5953000Y-4025000D03*
D12*
X5697000Y-4025000D03*
D20*
X6300000Y-4500000D03*
D21*
X6300000Y-4600000D03*
X6300000Y-4700000D03*
X6300000Y-4800000D03*
X6600000Y-4800000D03*
X6600000Y-4700000D03*
X6600000Y-4600000D03*
X6600000Y-4500000D03*
D20*
X6300000Y-4975000D03*
D21*
X6300000Y-5075000D03*
X6300000Y-5175000D03*
X6300000Y-5275000D03*
X6600000Y-5275000D03*
X6600000Y-5175000D03*
X6600000Y-5075000D03*
X6600000Y-4975000D03*
D20*
X6300000Y-5450000D03*
D21*
X6300000Y-5550000D03*
X6300000Y-5650000D03*
X6300000Y-5750000D03*
X6600000Y-5750000D03*
X6600000Y-5650000D03*
X6600000Y-5550000D03*
X6600000Y-5450000D03*
D20*
X5375000Y-4200000D03*
D21*
X5375000Y-4300000D03*
X5375000Y-4400000D03*
X5375000Y-4500000D03*
X5375000Y-4600000D03*
X5375000Y-4700000D03*
X5375000Y-4800000D03*
X5675000Y-4800000D03*
X5675000Y-4700000D03*
X5675000Y-4600000D03*
X5675000Y-4500000D03*
X5675000Y-4400000D03*
X5675000Y-4300000D03*
X5675000Y-4200000D03*
D11*
X5203900Y-5800000D03*
X5396100Y-5800000D03*
D18*
X5950000Y-5550000D03*
X5950000Y-5650000D03*
D11*
X7600000Y-5500000D03*
X7700000Y-5500000D03*
X7675000Y-5150000D03*
X7675000Y-5050000D03*
X7675000Y-5275000D03*
X7675000Y-5375000D03*
X7800000Y-4500000D03*
X7800000Y-4600000D03*
X5250000Y-5625000D03*
X5150000Y-5625000D03*
X5350000Y-5625000D03*
X5450000Y-5625000D03*
X5150000Y-5125000D03*
X5050000Y-5125000D03*
X5475000Y-4025000D03*
X5575000Y-4025000D03*
X5875000Y-4225000D03*
X5775000Y-4225000D03*
D17*
X6925000Y-5750000D03*
D18*
X6925000Y-5650000D03*
X7025000Y-5750000D03*
X7025000Y-5650000D03*
X7125000Y-5750000D03*
X7125000Y-5650000D03*
X7225000Y-5750000D03*
X7225000Y-5650000D03*
X7325000Y-5750000D03*
X7325000Y-5650000D03*
D17*
X6925000Y-4200000D03*
D18*
X6925000Y-4100000D03*
X7025000Y-4200000D03*
X7025000Y-4100000D03*
X7125000Y-4200000D03*
X7125000Y-4100000D03*
X7225000Y-4200000D03*
X7225000Y-4100000D03*
X7325000Y-4200000D03*
X7325000Y-4100000D03*
D15*
X4475000Y-5775000D03*
D16*
X4575000Y-5775000D03*
X4675000Y-5775000D03*
X4775000Y-5775000D03*
X4875000Y-5775000D03*
X4975000Y-5775000D03*
D15*
X5450000Y-5100000D03*
D19*
X5450000Y-5000000D03*
X5550000Y-5100000D03*
X5550000Y-5000000D03*
X5650000Y-5100000D03*
X5650000Y-5000000D03*
D15*
X4475000Y-5650000D03*
D19*
X4575000Y-5650000D03*
X4675000Y-5650000D03*
X4775000Y-5650000D03*
D15*
X7375000Y-4975000D03*
D16*
X7275000Y-4975000D03*
X7175000Y-4975000D03*
X7075000Y-4975000D03*
X6975000Y-4975000D03*
X6875000Y-4975000D03*
X6775000Y-4975000D03*
D15*
X6200000Y-5075000D03*
D16*
X6200000Y-4975000D03*
X6200000Y-4875000D03*
X6200000Y-4775000D03*
X6200000Y-4675000D03*
D20*
X5800000Y-4400000D03*
D21*
X5800000Y-4500000D03*
X5800000Y-4600000D03*
X5800000Y-4700000D03*
X5800000Y-4800000D03*
X5800000Y-4900000D03*
X5800000Y-5000000D03*
X5800000Y-5100000D03*
X6100000Y-5100000D03*
X6100000Y-5000000D03*
X6100000Y-4900000D03*
X6100000Y-4800000D03*
X6100000Y-4700000D03*
X6100000Y-4600000D03*
X6100000Y-4500000D03*
X6100000Y-4400000D03*
D15*
X4950000Y-5125000D03*
D16*
X4850000Y-5125000D03*
X4750000Y-5125000D03*
X4650000Y-5125000D03*
X4550000Y-5125000D03*
D20*
X6300000Y-4025000D03*
D21*
X6300000Y-4125000D03*
X6300000Y-4225000D03*
X6300000Y-4325000D03*
X6600000Y-4325000D03*
X6600000Y-4225000D03*
X6600000Y-4125000D03*
X6600000Y-4025000D03*
D22*
X7525000Y-5275000D03*
X7525000Y-5375000D03*
X7525000Y-5175000D03*
D23*
X7055000Y-5275000D03*
D20*
X6950000Y-4700000D03*
D21*
X7050000Y-4700000D03*
X7150000Y-4700000D03*
X7250000Y-4700000D03*
X7350000Y-4700000D03*
X7450000Y-4700000D03*
X7550000Y-4700000D03*
X7650000Y-4700000D03*
X7650000Y-4400000D03*
X7550000Y-4400000D03*
X7450000Y-4400000D03*
X7350000Y-4400000D03*
X7250000Y-4400000D03*
X7150000Y-4400000D03*
X7050000Y-4400000D03*
X6950000Y-4400000D03*
D22*
X4475000Y-4175000D03*
X4475000Y-4075000D03*
X4475000Y-4275000D03*
D23*
X4945000Y-4175000D03*
D20*
X4400000Y-4575000D03*
D21*
X4400000Y-4675000D03*
X4400000Y-4775000D03*
X4400000Y-4875000D03*
X4700000Y-4875000D03*
X4700000Y-4775000D03*
X4700000Y-4675000D03*
X4700000Y-4575000D03*
X4550000Y-5525000D03*
X4650000Y-5525000D03*
X4750000Y-5525000D03*
X4850000Y-5525000D03*
X4950000Y-5525000D03*
X5050000Y-5525000D03*
X5150000Y-5525000D03*
X5250000Y-5525000D03*
X5350000Y-5525000D03*
X5450000Y-5525000D03*
X5550000Y-5525000D03*
X5650000Y-5525000D03*
X5750000Y-5525000D03*
D20*
X4450000Y-5525000D03*
D21*
X5750000Y-5225000D03*
X5650000Y-5225000D03*
X5550000Y-5225000D03*
X5450000Y-5225000D03*
X5350000Y-5225000D03*
X5250000Y-5225000D03*
X5150000Y-5225000D03*
X5050000Y-5225000D03*
X4950000Y-5225000D03*
X4850000Y-5225000D03*
X4750000Y-5225000D03*
X4650000Y-5225000D03*
X4550000Y-5225000D03*
X4450000Y-5225000D03*
D24*
X5250000Y-4850000D03*
D25*
X5150000Y-4850000D03*
D24*
X5250000Y-4700000D03*
D25*
X5150000Y-4700000D03*
D24*
X5250000Y-4550000D03*
D25*
X5150000Y-4550000D03*
D24*
X4050000Y-4425000D03*
D25*
X4050000Y-4325000D03*
D24*
X4975000Y-4750000D03*
D25*
X4975000Y-4850000D03*
D24*
X4975000Y-4500000D03*
D25*
X4975000Y-4600000D03*
D24*
X4825000Y-4600000D03*
D25*
X4825000Y-4500000D03*
D24*
X4825000Y-4750000D03*
D25*
X4825000Y-4850000D03*
D24*
X6950000Y-4800000D03*
D25*
X7050000Y-4800000D03*
D24*
X7525000Y-5055000D03*
D25*
X7525000Y-4955000D03*
D11*
X4575000Y-4450000D03*
X4475000Y-4450000D03*
D18*
X6125000Y-4000000D03*
X6200000Y-4050000D03*
X6125000Y-4100000D03*
X6125000Y-4200000D03*
X6200000Y-4250000D03*
X6125000Y-4300000D03*
X6125000Y-5550000D03*
X6200000Y-5600000D03*
X6125000Y-5650000D03*
X6125000Y-5325000D03*
X6200000Y-5375000D03*
X6125000Y-5425000D03*
X6725000Y-4650000D03*
X6800000Y-4700000D03*
X6725000Y-4750000D03*
D26*
X4280000Y-4975000D03*
X4950000Y-4975000D03*
X5953000Y-4225000D03*
X5575000Y-4425000D03*
X5575000Y-4275000D03*
X5575000Y-4550000D03*
X4275000Y-4875000D03*
X4325000Y-5250000D03*
X4600000Y-4625000D03*
X4600000Y-4800000D03*
X4475000Y-4875000D03*
X4524042Y-4725958D03*
X4950000Y-5425000D03*
X5050000Y-5425000D03*
X4575000Y-5450000D03*
X4650000Y-5375000D03*
X4699042Y-5424042D03*
X4800000Y-5575000D03*
X4825000Y-5725000D03*
X5212500Y-5687500D03*
X5300000Y-5700000D03*
X5775000Y-5650000D03*
X5825000Y-5275000D03*
X5825000Y-5175000D03*
X5375000Y-4950000D03*
X5275000Y-4950000D03*
X7475000Y-5700000D03*
X6700000Y-4125000D03*
X7675000Y-4825000D03*
X4400000Y-5150000D03*
X6750000Y-4900000D03*
X7150000Y-4875000D03*
X6700000Y-4375000D03*
X6700000Y-5820000D03*
X6700000Y-5575000D03*
X7740000Y-5325000D03*
X6650000Y-4075000D03*
X7225000Y-4000000D03*
X5225000Y-4450000D03*
X5550000Y-4650000D03*
X6100000Y-5175000D03*
X5550000Y-4750000D03*
X6075000Y-5225000D03*
X6000000Y-5375000D03*
X5975000Y-5425000D03*
X6600000Y-4875000D03*
X6775000Y-4825000D03*
X6650000Y-5350000D03*
X7275000Y-4150000D03*
X7100000Y-4575000D03*
X6960000Y-4485000D03*
X7550000Y-4515000D03*
X6875000Y-4525000D03*
X7400000Y-4550000D03*
X5500000Y-4650000D03*
X6400000Y-4375000D03*
X5950000Y-5475000D03*
X5875000Y-4425000D03*
X6025000Y-4175000D03*
X5150000Y-5450000D03*
X6075000Y-5775000D03*
D27*
X7580000Y-4955000D02*
X7675000Y-5050000D01*
X7525000Y-4955000D02*
X7580000Y-4955000D01*
D28*
X5275000Y-4950000D02*
X5250000Y-4975000D01*
X5250000Y-4975000D02*
X4950000Y-4975000D01*
X5575000Y-4550000D02*
X5575000Y-4425000D01*
X4400000Y-4675000D02*
X4473083Y-4675000D01*
X4473083Y-4675000D02*
X4524042Y-4725958D01*
D27*
X4897500Y-5552500D02*
X4900000Y-5550000D01*
X4900000Y-5550000D02*
X4900000Y-5424042D01*
D28*
X4950000Y-5425000D02*
X4949042Y-5424042D01*
X5050000Y-5425000D02*
X4950000Y-5425000D01*
X4650000Y-5375000D02*
X4575000Y-5450000D01*
X4949042Y-5424042D02*
X4900000Y-5424042D01*
X4900000Y-5424042D02*
X4699042Y-5424042D01*
D27*
X4897500Y-5552500D02*
X4875000Y-5575000D01*
X4875000Y-5575000D02*
X4800000Y-5575000D01*
D28*
X5953000Y-4025000D02*
X5953000Y-4225000D01*
X5953000Y-4225000D02*
X5953000Y-5047000D01*
X5953000Y-5047000D02*
X5825000Y-5175000D01*
X5375000Y-4800000D02*
X5425000Y-4850000D01*
X5650000Y-4925000D02*
X5650000Y-5000000D01*
X5575000Y-4850000D02*
X5650000Y-4925000D01*
X5425000Y-4850000D02*
X5575000Y-4850000D01*
X5275000Y-4950000D02*
X5375000Y-4950000D01*
X5150000Y-5625000D02*
X5212500Y-5687500D01*
X5212500Y-5687500D02*
X5225000Y-5700000D01*
X5375000Y-5700000D02*
X5450000Y-5625000D01*
X5225000Y-5700000D02*
X5300000Y-5700000D01*
X5300000Y-5700000D02*
X5375000Y-5700000D01*
X4325000Y-4275000D02*
X4475000Y-4425000D01*
X4475000Y-4425000D02*
X4475000Y-4450000D01*
X6125000Y-4200000D02*
X6200000Y-4125000D01*
X6200000Y-4125000D02*
X6300000Y-4125000D01*
X5450000Y-5625000D02*
X5600000Y-5775000D01*
X5150000Y-5625000D02*
X5050000Y-5625000D01*
X4200000Y-4825000D02*
X4100000Y-4825000D01*
D27*
X7677165Y-5708661D02*
X7633661Y-5708661D01*
X7483661Y-5708661D02*
X7475000Y-5700000D01*
X7677165Y-5708661D02*
X7483661Y-5708661D01*
X6700000Y-4125000D02*
X6650000Y-4175000D01*
X6650000Y-4175000D02*
X6550000Y-4175000D01*
X6550000Y-4175000D02*
X6400000Y-4325000D01*
X6400000Y-4325000D02*
X6300000Y-4325000D01*
X6975000Y-5600000D02*
X6875000Y-5600000D01*
X7025000Y-5650000D02*
X6975000Y-5600000D01*
X6450000Y-5700000D02*
X6300000Y-5550000D01*
X6775000Y-5700000D02*
X6450000Y-5700000D01*
X6875000Y-5600000D02*
X6775000Y-5700000D01*
D28*
X4375000Y-4175000D02*
X4475000Y-4175000D01*
X4350000Y-4150000D02*
X4375000Y-4175000D01*
X4325000Y-4150000D02*
X4350000Y-4150000D01*
X4475000Y-4175000D02*
X5135000Y-4175000D01*
D27*
X4175000Y-5400000D02*
X4175000Y-5325000D01*
X4175000Y-5325000D02*
X4525000Y-4975000D01*
X4825000Y-4875000D02*
X4775000Y-4875000D01*
X4775000Y-4875000D02*
X4775000Y-4900000D01*
X4775000Y-4900000D02*
X4700000Y-4975000D01*
X4700000Y-4975000D02*
X4525000Y-4975000D01*
D28*
X7525000Y-5375000D02*
X7570000Y-5375000D01*
X4200000Y-5025000D02*
X4100000Y-5025000D01*
X7660000Y-5440000D02*
X7740000Y-5440000D01*
X7740000Y-5440000D02*
X7805000Y-5375000D01*
X7600000Y-5500000D02*
X7660000Y-5440000D01*
X7525000Y-5425000D02*
X7525000Y-5375000D01*
X7600000Y-5500000D02*
X7525000Y-5425000D01*
X4100000Y-5125000D02*
X4100000Y-5250000D01*
X4100000Y-5250000D02*
X4000000Y-5350000D01*
X7425000Y-5275000D02*
X7425000Y-5095000D01*
X7465000Y-5055000D02*
X7525000Y-5055000D01*
X7425000Y-5095000D02*
X7465000Y-5055000D01*
X7525000Y-5275000D02*
X7575000Y-5275000D01*
X7575000Y-5275000D02*
X7675000Y-5375000D01*
X7425000Y-5275000D02*
X6865000Y-5275000D01*
X7525000Y-5275000D02*
X7425000Y-5275000D01*
X7425000Y-5560000D02*
X7425000Y-5775000D01*
X7425000Y-5275000D02*
X7425000Y-5560000D01*
X4300000Y-5625000D02*
X4300000Y-5750000D01*
X4050000Y-5550000D02*
X4225000Y-5550000D01*
X4000000Y-5500000D02*
X4050000Y-5550000D01*
X4225000Y-5550000D02*
X4300000Y-5625000D01*
X4000000Y-5350000D02*
X4000000Y-5500000D01*
X4300000Y-5750000D02*
X4425000Y-5875000D01*
X7325000Y-5875000D02*
X7425000Y-5775000D01*
X4200000Y-5125000D02*
X4100000Y-5125000D01*
X7640000Y-5560000D02*
X7425000Y-5560000D01*
X7700000Y-5500000D02*
X7640000Y-5560000D01*
X7455000Y-5055000D02*
X7375000Y-4975000D01*
X7465000Y-5055000D02*
X7455000Y-5055000D01*
X7350000Y-4700000D02*
X7250000Y-4700000D01*
X6725000Y-4650000D02*
X6750000Y-4625000D01*
X7350000Y-4400000D02*
X7250000Y-4400000D01*
X7175000Y-4625000D02*
X6750000Y-4625000D01*
X4425000Y-5875000D02*
X7325000Y-5875000D01*
X7250000Y-4700000D02*
X7175000Y-4625000D01*
X7675000Y-4825000D02*
X7725000Y-4775000D01*
X7525000Y-5175000D02*
X7600000Y-5175000D01*
X7625000Y-5150000D02*
X7675000Y-5150000D01*
X7600000Y-5175000D02*
X7625000Y-5150000D01*
X7150000Y-4025000D02*
X7225000Y-4100000D01*
X6625000Y-4025000D02*
X7150000Y-4025000D01*
X7805000Y-4955000D02*
X7675000Y-4825000D01*
X7805000Y-5175000D02*
X7805000Y-4955000D01*
X6875000Y-4475000D02*
X6775000Y-4475000D01*
X6600000Y-4500000D02*
X6750000Y-4500000D01*
X6750000Y-4500000D02*
X6775000Y-4475000D01*
X6950000Y-4400000D02*
X6875000Y-4475000D01*
X7725000Y-4575000D02*
X7800000Y-4500000D01*
X7725000Y-4775000D02*
X7725000Y-4575000D01*
X7760000Y-4460000D02*
X7010000Y-4460000D01*
X7010000Y-4460000D02*
X6950000Y-4400000D01*
X7800000Y-4500000D02*
X7760000Y-4460000D01*
X4200000Y-4725000D02*
X4100000Y-4725000D01*
X4400000Y-4075000D02*
X4375000Y-4050000D01*
X4375000Y-4050000D02*
X4325000Y-4050000D01*
X4475000Y-4075000D02*
X4400000Y-4075000D01*
D27*
X4050000Y-4325000D02*
X4175000Y-4325000D01*
X5775000Y-4225000D02*
X5775000Y-4103000D01*
X5775000Y-4103000D02*
X5697000Y-4025000D01*
X5250000Y-4850000D02*
X5300000Y-4900000D01*
X5600000Y-5050000D02*
X5650000Y-5100000D01*
X5600000Y-4950000D02*
X5600000Y-5050000D01*
X5550000Y-4900000D02*
X5600000Y-4950000D01*
X5300000Y-4900000D02*
X5550000Y-4900000D01*
X4800000Y-4925000D02*
X5175000Y-4925000D01*
X4800000Y-4925000D02*
X4700000Y-5025000D01*
X4700000Y-5025000D02*
X4525000Y-5025000D01*
X4400000Y-5150000D02*
X4525000Y-5025000D01*
X5175000Y-4925000D02*
X5250000Y-4850000D01*
X4525000Y-4675000D02*
X4475000Y-4625000D01*
X4300000Y-4700000D02*
X4300000Y-4800000D01*
X4375000Y-4625000D02*
X4300000Y-4700000D01*
X4475000Y-4625000D02*
X4375000Y-4625000D01*
X4100000Y-4925000D02*
X4150000Y-4875000D01*
X4150000Y-4875000D02*
X4225000Y-4875000D01*
X4225000Y-4875000D02*
X4300000Y-4800000D01*
X4525000Y-4675000D02*
X4700000Y-4675000D01*
X4700000Y-4775000D02*
X4725000Y-4750000D01*
X4725000Y-4750000D02*
X4825000Y-4750000D01*
X4200000Y-4925000D02*
X4725000Y-4925000D01*
X4750000Y-4825000D02*
X4700000Y-4775000D01*
X4750000Y-4900000D02*
X4750000Y-4825000D01*
X4725000Y-4925000D02*
X4750000Y-4900000D01*
D28*
X7025000Y-4900000D02*
X6750000Y-4900000D01*
X7050000Y-4875000D02*
X7025000Y-4900000D01*
X7150000Y-4875000D02*
X7050000Y-4875000D01*
D27*
X7175000Y-5700000D02*
X7175000Y-5600000D01*
X7175000Y-5600000D02*
X7125000Y-5550000D01*
X7125000Y-5550000D02*
X6825000Y-5550000D01*
X6825000Y-5550000D02*
X6750000Y-5625000D01*
X6750000Y-5625000D02*
X6675000Y-5625000D01*
X7125000Y-5750000D02*
X7175000Y-5700000D01*
X6650000Y-5425000D02*
X6600000Y-5375000D01*
X6600000Y-5375000D02*
X6275000Y-5375000D01*
X6650000Y-5600000D02*
X6650000Y-5425000D01*
X6675000Y-5625000D02*
X6650000Y-5600000D01*
X6200000Y-5375000D02*
X6600000Y-5375000D01*
X7125000Y-5600000D02*
X7100000Y-5575000D01*
X7100000Y-5575000D02*
X6850000Y-5575000D01*
X7125000Y-5650000D02*
X7125000Y-5600000D01*
X6775000Y-5650000D02*
X6675000Y-5650000D01*
X6675000Y-5650000D02*
X6625000Y-5600000D01*
X6625000Y-5600000D02*
X6500000Y-5600000D01*
X6500000Y-5600000D02*
X6400000Y-5500000D01*
X6400000Y-5500000D02*
X6275000Y-5500000D01*
X6850000Y-5575000D02*
X6775000Y-5650000D01*
X6200000Y-5575000D02*
X6275000Y-5500000D01*
X6200000Y-5600000D02*
X6200000Y-5575000D01*
D28*
X7225000Y-5750000D02*
X7155000Y-5820000D01*
X6700000Y-4775000D02*
X6700000Y-5575000D01*
X6725000Y-4750000D02*
X6700000Y-4775000D01*
X7125000Y-4300000D02*
X6775000Y-4300000D01*
X6775000Y-4300000D02*
X6700000Y-4375000D01*
X7225000Y-4200000D02*
X7125000Y-4300000D01*
X7155000Y-5820000D02*
X6700000Y-5820000D01*
X7740000Y-5325000D02*
X7740000Y-4990000D01*
X7740000Y-4990000D02*
X7450000Y-4700000D01*
D27*
X6200000Y-4250000D02*
X6275000Y-4175000D01*
X6500000Y-4075000D02*
X6650000Y-4075000D01*
X6400000Y-4175000D02*
X6500000Y-4075000D01*
X6275000Y-4175000D02*
X6400000Y-4175000D01*
X6525000Y-3975000D02*
X6500000Y-3975000D01*
X6500000Y-3975000D02*
X6400000Y-4075000D01*
X6400000Y-4075000D02*
X6225000Y-4075000D01*
X6225000Y-4075000D02*
X6200000Y-4050000D01*
X6525000Y-3975000D02*
X7200000Y-3975000D01*
X7200000Y-3975000D02*
X7225000Y-4000000D01*
X5675000Y-4300000D02*
X5625000Y-4300000D01*
X5625000Y-4300000D02*
X5475000Y-4450000D01*
X5225000Y-4450000D02*
X5475000Y-4450000D01*
X4975000Y-4600000D02*
X4825000Y-4600000D01*
X5250000Y-4550000D02*
X5475000Y-4550000D01*
X5525000Y-4600000D02*
X5675000Y-4600000D01*
X5475000Y-4550000D02*
X5525000Y-4600000D01*
X5800000Y-4700000D02*
X5750000Y-4650000D01*
X5750000Y-4650000D02*
X5550000Y-4650000D01*
X5775000Y-5175000D02*
X5825000Y-5225000D01*
X6025000Y-5225000D02*
X6075000Y-5175000D01*
X5825000Y-5225000D02*
X6025000Y-5225000D01*
X5625000Y-5175000D02*
X5775000Y-5175000D01*
X6075000Y-5175000D02*
X6100000Y-5175000D01*
X5625000Y-5175000D02*
X5550000Y-5100000D01*
X5350000Y-5225000D02*
X5400000Y-5175000D01*
X5475000Y-5175000D02*
X5550000Y-5100000D01*
X5400000Y-5175000D02*
X5475000Y-5175000D01*
X5800000Y-4800000D02*
X5750000Y-4750000D01*
X5750000Y-4750000D02*
X5550000Y-4750000D01*
X4850000Y-5525000D02*
X4800000Y-5475000D01*
X4650000Y-5575000D02*
X4575000Y-5650000D01*
X4675000Y-5575000D02*
X4650000Y-5575000D01*
X4700000Y-5550000D02*
X4675000Y-5575000D01*
X4700000Y-5500000D02*
X4700000Y-5550000D01*
X4725000Y-5475000D02*
X4700000Y-5500000D01*
X4800000Y-5475000D02*
X4725000Y-5475000D01*
X5450000Y-5525000D02*
X5700000Y-5775000D01*
X4950000Y-5525000D02*
X5000000Y-5475000D01*
X5050000Y-5475000D02*
X5125000Y-5400000D01*
X5000000Y-5475000D02*
X5050000Y-5475000D01*
X5125000Y-5400000D02*
X5775000Y-5400000D01*
X5800000Y-5775000D02*
X5850000Y-5825000D01*
X5850000Y-5825000D02*
X5950000Y-5825000D01*
X5950000Y-5825000D02*
X5950000Y-5750000D01*
X5950000Y-5750000D02*
X5900000Y-5700000D01*
X5900000Y-5700000D02*
X5900000Y-5525000D01*
X5900000Y-5525000D02*
X5775000Y-5400000D01*
X6900000Y-4800000D02*
X6800000Y-4700000D01*
X6950000Y-4800000D02*
X6900000Y-4800000D01*
X6075000Y-5225000D02*
X5975000Y-5325000D01*
X5825000Y-5325000D02*
X5775000Y-5275000D01*
X5975000Y-5325000D02*
X5825000Y-5325000D01*
X5775000Y-5275000D02*
X5000000Y-5275000D01*
X4950000Y-5225000D02*
X5000000Y-5275000D01*
X4850000Y-5125000D02*
X4950000Y-5225000D01*
X6050000Y-5375000D02*
X6000000Y-5325000D01*
X5825000Y-5350000D02*
X5775000Y-5300000D01*
X5975000Y-5350000D02*
X5825000Y-5350000D01*
X6000000Y-5325000D02*
X5975000Y-5350000D01*
X6125000Y-5650000D02*
X6050000Y-5575000D01*
X5775000Y-5300000D02*
X4925000Y-5300000D01*
X6050000Y-5575000D02*
X6050000Y-5375000D01*
X4850000Y-5225000D02*
X4925000Y-5300000D01*
X4750000Y-5125000D02*
X4850000Y-5225000D01*
X6000000Y-5375000D02*
X5825000Y-5375000D01*
X5825000Y-5375000D02*
X5775000Y-5325000D01*
X4850000Y-5325000D02*
X5775000Y-5325000D01*
X4750000Y-5225000D02*
X4850000Y-5325000D01*
X4650000Y-5125000D02*
X4750000Y-5225000D01*
X5975000Y-5425000D02*
X5850000Y-5425000D01*
X5850000Y-5425000D02*
X5775000Y-5350000D01*
X4775000Y-5350000D02*
X4650000Y-5225000D01*
X5775000Y-5350000D02*
X4775000Y-5350000D01*
X4550000Y-5125000D02*
X4650000Y-5225000D01*
X6650000Y-4925000D02*
X6600000Y-4875000D01*
X6650000Y-5350000D02*
X6650000Y-4925000D01*
X6775000Y-4825000D02*
X6816000Y-4866000D01*
X6984000Y-4866000D02*
X7050000Y-4800000D01*
X6816000Y-4866000D02*
X6984000Y-4866000D01*
X7275000Y-4900000D02*
X7275000Y-4975000D01*
X7075000Y-4700000D02*
X7275000Y-4900000D01*
X7050000Y-4700000D02*
X7075000Y-4700000D01*
X7275000Y-4150000D02*
X6775000Y-4150000D01*
X6775000Y-4150000D02*
X6600000Y-4325000D01*
X6995000Y-4745000D02*
X7075000Y-4745000D01*
X7075000Y-4745000D02*
X7190000Y-4860000D01*
X7190000Y-4860000D02*
X7190000Y-4905000D01*
X7190000Y-4905000D02*
X7175000Y-4920000D01*
X7175000Y-4920000D02*
X7175000Y-4975000D01*
X6950000Y-4700000D02*
X6995000Y-4745000D01*
X7100000Y-4575000D02*
X7275000Y-4575000D01*
X6625000Y-4575000D02*
X7100000Y-4575000D01*
X6600000Y-4600000D02*
X6625000Y-4575000D01*
X7500000Y-4650000D02*
X7350000Y-4650000D01*
X7350000Y-4650000D02*
X7275000Y-4575000D01*
X7550000Y-4700000D02*
X7500000Y-4650000D01*
X6960000Y-4485000D02*
X6975000Y-4500000D01*
X6975000Y-4500000D02*
X7535000Y-4500000D01*
X7535000Y-4500000D02*
X7550000Y-4515000D01*
X6550000Y-5025000D02*
X6550000Y-4575000D01*
X6550000Y-4575000D02*
X6575000Y-4550000D01*
X6600000Y-5075000D02*
X6550000Y-5025000D01*
X6875000Y-4525000D02*
X6850000Y-4550000D01*
X6850000Y-4550000D02*
X6575000Y-4550000D01*
X7100000Y-4525000D02*
X6875000Y-4525000D01*
X7400000Y-4550000D02*
X7125000Y-4550000D01*
X7125000Y-4550000D02*
X7100000Y-4525000D01*
X7000000Y-4350000D02*
X7050000Y-4400000D01*
X6525000Y-4500000D02*
X6525000Y-5200000D01*
X6525000Y-5200000D02*
X6600000Y-5275000D01*
X6600000Y-4425000D02*
X6525000Y-4500000D01*
X6925000Y-4350000D02*
X6850000Y-4425000D01*
X6850000Y-4425000D02*
X6600000Y-4425000D01*
X7000000Y-4350000D02*
X6925000Y-4350000D01*
X4825000Y-4500000D02*
X4600000Y-4500000D01*
X4600000Y-4500000D02*
X4525000Y-4575000D01*
X4525000Y-4575000D02*
X4400000Y-4575000D01*
X4600000Y-4725000D02*
X4550000Y-4775000D01*
X4525000Y-4775000D02*
X4475000Y-4725000D01*
X4550000Y-4775000D02*
X4525000Y-4775000D01*
X4350000Y-4825000D02*
X4400000Y-4875000D01*
X4375000Y-4725000D02*
X4350000Y-4750000D01*
X4350000Y-4750000D02*
X4350000Y-4825000D01*
X5250000Y-4700000D02*
X5300000Y-4650000D01*
X5300000Y-4650000D02*
X5500000Y-4650000D01*
X5250000Y-4700000D02*
X5175000Y-4625000D01*
X5025000Y-4675000D02*
X4775000Y-4675000D01*
X5075000Y-4625000D02*
X5025000Y-4675000D01*
X5175000Y-4625000D02*
X5075000Y-4625000D01*
X4725000Y-4725000D02*
X4600000Y-4725000D01*
X4475000Y-4725000D02*
X4375000Y-4725000D01*
X4775000Y-4675000D02*
X4725000Y-4725000D01*
X6100000Y-5100000D02*
X6150000Y-5150000D01*
X6150000Y-5200000D02*
X6075000Y-5275000D01*
X6150000Y-5150000D02*
X6150000Y-5200000D01*
X6075000Y-5275000D02*
X6075000Y-5450000D01*
X6200000Y-5450000D02*
X6300000Y-5450000D01*
X6175000Y-5475000D02*
X6200000Y-5450000D01*
X6100000Y-5475000D02*
X6175000Y-5475000D01*
X6075000Y-5450000D02*
X6100000Y-5475000D01*
X6100000Y-5000000D02*
X6150000Y-5000000D01*
X6150000Y-5000000D02*
X6175000Y-5025000D01*
X6175000Y-5025000D02*
X6325000Y-5025000D01*
X6350000Y-5125000D02*
X6300000Y-5175000D01*
X6350000Y-5050000D02*
X6350000Y-5125000D01*
X6325000Y-5025000D02*
X6350000Y-5050000D01*
X6100000Y-4900000D02*
X6150000Y-4900000D01*
X6150000Y-4900000D02*
X6175000Y-4925000D01*
X6300000Y-4975000D02*
X6250000Y-4925000D01*
X6250000Y-4925000D02*
X6175000Y-4925000D01*
X6100000Y-4800000D02*
X6150000Y-4800000D01*
X6150000Y-4800000D02*
X6175000Y-4825000D01*
X6175000Y-4825000D02*
X6225000Y-4825000D01*
X6250000Y-4750000D02*
X6300000Y-4700000D01*
X6250000Y-4800000D02*
X6250000Y-4750000D01*
X6225000Y-4825000D02*
X6250000Y-4800000D01*
X6100000Y-4700000D02*
X6150000Y-4700000D01*
X6250000Y-4700000D02*
X6250000Y-4550000D01*
X6225000Y-4725000D02*
X6250000Y-4700000D01*
X6175000Y-4725000D02*
X6225000Y-4725000D01*
X6150000Y-4700000D02*
X6175000Y-4725000D01*
X6100000Y-4700000D02*
X6125000Y-4700000D01*
X6250000Y-4550000D02*
X6300000Y-4500000D01*
X6100000Y-4600000D02*
X6050000Y-4550000D01*
X6300000Y-4225000D02*
X6175000Y-4350000D01*
X6050000Y-4375000D02*
X6050000Y-4550000D01*
X6075000Y-4350000D02*
X6050000Y-4375000D01*
X6175000Y-4350000D02*
X6075000Y-4350000D01*
X6400000Y-4375000D02*
X6375000Y-4400000D01*
X6375000Y-4400000D02*
X6250000Y-4400000D01*
X6100000Y-4500000D02*
X6150000Y-4500000D01*
X6150000Y-4500000D02*
X6250000Y-4400000D01*
X5950000Y-5475000D02*
X5875000Y-5475000D01*
X5875000Y-5475000D02*
X5775000Y-5375000D01*
X4550000Y-5525000D02*
X4700000Y-5375000D01*
X4700000Y-5375000D02*
X5775000Y-5375000D01*
X5725000Y-4450000D02*
X5675000Y-4500000D01*
X5875000Y-4425000D02*
X5850000Y-4450000D01*
X5850000Y-4450000D02*
X5725000Y-4450000D01*
D28*
X5250000Y-5225000D02*
X5375000Y-5100000D01*
X5375000Y-5100000D02*
X5375000Y-5050000D01*
X5150000Y-5450000D02*
X5776917Y-5450000D01*
X5776917Y-5450000D02*
X5850000Y-5523083D01*
X5900000Y-5775000D02*
X5850000Y-5725000D01*
X5850000Y-5725000D02*
X5850000Y-5523083D01*
X5850000Y-5523083D02*
X5788458Y-5461542D01*
D27*
X6025000Y-4600000D02*
X6025000Y-4175000D01*
X6225000Y-5775000D02*
X6075000Y-5775000D01*
X6075000Y-4650000D02*
X6025000Y-4600000D01*
D28*
X5150000Y-4850000D02*
X4975000Y-4850000D01*
X4575000Y-4450000D02*
X4675000Y-4450000D01*
X5150000Y-4450000D02*
X5150000Y-4550000D01*
X5125000Y-4425000D02*
X5150000Y-4450000D01*
X4700000Y-4425000D02*
X5125000Y-4425000D01*
X4675000Y-4450000D02*
X4700000Y-4425000D01*
X4825000Y-5000000D02*
X4900000Y-5000000D01*
X4900000Y-5000000D02*
X4950000Y-5050000D01*
X4575000Y-4450000D02*
X4575000Y-4325000D01*
X4575000Y-4325000D02*
X4575000Y-4300000D01*
X4575000Y-4300000D02*
X4550000Y-4275000D01*
X4550000Y-4275000D02*
X4475000Y-4275000D01*
X5150000Y-5450000D02*
X5125000Y-5450000D01*
X5125000Y-5450000D02*
X5050000Y-5525000D01*
D27*
X6225000Y-5775000D02*
X6250000Y-5800000D01*
X6975000Y-5700000D02*
X7025000Y-5750000D01*
X6650000Y-5800000D02*
X6250000Y-5800000D01*
X6700000Y-5750000D02*
X6650000Y-5800000D01*
X6775000Y-5750000D02*
X6700000Y-5750000D01*
X6825000Y-5700000D02*
X6775000Y-5750000D01*
X6975000Y-5700000D02*
X6825000Y-5700000D01*
D28*
X5150000Y-5125000D02*
X5150000Y-5075000D01*
X5125000Y-5050000D02*
X4950000Y-5050000D01*
X5150000Y-5075000D02*
X5125000Y-5050000D01*
X4950000Y-5050000D02*
X4950000Y-5125000D01*
X4700000Y-4875000D02*
X4575000Y-4875000D01*
X4475000Y-4775000D02*
X4400000Y-4775000D01*
X4575000Y-4875000D02*
X4475000Y-4775000D01*
D27*
X6625000Y-4400000D02*
X6575000Y-4400000D01*
X6975000Y-4250000D02*
X6775000Y-4250000D01*
X6775000Y-4250000D02*
X6625000Y-4400000D01*
X7025000Y-4200000D02*
X6975000Y-4250000D01*
X6150000Y-4650000D02*
X6075000Y-4650000D01*
X6200000Y-4600000D02*
X6150000Y-4650000D01*
X6200000Y-4500000D02*
X6200000Y-4600000D01*
X6275000Y-4425000D02*
X6200000Y-4500000D01*
X6550000Y-4425000D02*
X6275000Y-4425000D01*
X6575000Y-4400000D02*
X6550000Y-4425000D01*
D28*
X5375000Y-4200000D02*
X5675000Y-4200000D01*
X5450000Y-5000000D02*
X5425000Y-5000000D01*
X5425000Y-5000000D02*
X5375000Y-5050000D01*
X4775000Y-5650000D02*
X4850000Y-5650000D01*
X4875000Y-5625000D02*
X4950000Y-5625000D01*
X4850000Y-5650000D02*
X4875000Y-5625000D01*
X4950000Y-5625000D02*
X5050000Y-5525000D01*
X5150000Y-5225000D02*
X5250000Y-5225000D01*
X4475000Y-4275000D02*
X4425000Y-4275000D01*
X4225000Y-4425000D02*
X4275000Y-4375000D01*
X4275000Y-4375000D02*
X4325000Y-4375000D01*
X4175000Y-4425000D02*
X4225000Y-4425000D01*
D29*
G36*
X4351872Y-4896000D02*
X4247528Y-4896000D01*
X4246792Y-4894220D01*
X4320506Y-4820506D01*
X4321000Y-4819767D01*
X4321000Y-4825000D01*
X4323207Y-4836098D01*
X4329494Y-4845506D01*
X4347800Y-4863812D01*
X4347509Y-4864511D01*
X4347491Y-4885397D01*
X4351872Y-4896000D01*
X4351872Y-4896000D01*
G37*
X4351872Y-4896000D02*
X4247528Y-4896000D01*
X4246792Y-4894220D01*
X4320506Y-4820506D01*
X4321000Y-4819767D01*
X4321000Y-4825000D01*
X4323207Y-4836098D01*
X4329494Y-4845506D01*
X4347800Y-4863812D01*
X4347509Y-4864511D01*
X4347491Y-4885397D01*
X4351872Y-4896000D01*
G36*
X4356360Y-5870000D02*
X4237348Y-5870000D01*
X4237348Y-5813565D01*
X4133858Y-5710076D01*
X4132444Y-5711490D01*
X4132444Y-5708661D01*
X4028954Y-5605172D01*
X4006978Y-5617713D01*
X3981831Y-5673191D01*
X3979830Y-5734070D01*
X4001278Y-5791080D01*
X4006978Y-5799610D01*
X4028954Y-5812151D01*
X4132444Y-5708661D01*
X4132444Y-5711490D01*
X4030369Y-5813565D01*
X4042910Y-5835542D01*
X4098388Y-5860688D01*
X4159266Y-5862690D01*
X4216276Y-5841242D01*
X4224806Y-5835542D01*
X4237348Y-5813565D01*
X4237348Y-5870000D01*
X3963976Y-5870000D01*
X3963976Y-5525528D01*
X3968180Y-5531820D01*
X4018180Y-5581820D01*
X4032779Y-5591575D01*
X4036858Y-5592386D01*
X4030369Y-5603758D01*
X4133858Y-5707247D01*
X4134415Y-5706690D01*
X4135829Y-5708105D01*
X4135272Y-5708661D01*
X4238762Y-5812151D01*
X4260739Y-5799610D01*
X4268608Y-5782248D01*
X4356360Y-5870000D01*
X4356360Y-5870000D01*
G37*
X4356360Y-5870000D02*
X4237348Y-5870000D01*
X4237348Y-5813565D01*
X4133858Y-5710076D01*
X4132444Y-5711490D01*
X4132444Y-5708661D01*
X4028954Y-5605172D01*
X4006978Y-5617713D01*
X3981831Y-5673191D01*
X3979830Y-5734070D01*
X4001278Y-5791080D01*
X4006978Y-5799610D01*
X4028954Y-5812151D01*
X4132444Y-5708661D01*
X4132444Y-5711490D01*
X4030369Y-5813565D01*
X4042910Y-5835542D01*
X4098388Y-5860688D01*
X4159266Y-5862690D01*
X4216276Y-5841242D01*
X4224806Y-5835542D01*
X4237348Y-5813565D01*
X4237348Y-5870000D01*
X3963976Y-5870000D01*
X3963976Y-5525528D01*
X3968180Y-5531820D01*
X4018180Y-5581820D01*
X4032779Y-5591575D01*
X4036858Y-5592386D01*
X4030369Y-5603758D01*
X4133858Y-5707247D01*
X4134415Y-5706690D01*
X4135829Y-5708105D01*
X4135272Y-5708661D01*
X4238762Y-5812151D01*
X4260739Y-5799610D01*
X4268608Y-5782248D01*
X4356360Y-5870000D01*
G36*
X4399782Y-5059206D02*
X4154494Y-5304494D01*
X4148207Y-5313902D01*
X4146000Y-5325000D01*
X4146000Y-5348144D01*
X4141623Y-5349953D01*
X4125011Y-5366536D01*
X4124996Y-5366572D01*
X4108464Y-5350011D01*
X4086787Y-5341010D01*
X4072642Y-5340998D01*
X4131820Y-5281820D01*
X4141575Y-5267221D01*
X4145000Y-5250000D01*
X4145000Y-5170000D01*
X4167208Y-5170000D01*
X4168804Y-5171600D01*
X4189012Y-5179990D01*
X4210892Y-5180010D01*
X4231114Y-5171654D01*
X4246600Y-5156196D01*
X4254990Y-5135988D01*
X4255010Y-5114108D01*
X4246654Y-5093886D01*
X4231196Y-5078400D01*
X4223011Y-5075002D01*
X4231114Y-5071654D01*
X4246600Y-5056196D01*
X4254990Y-5035988D01*
X4255010Y-5014108D01*
X4246654Y-4993886D01*
X4231196Y-4978400D01*
X4223011Y-4975002D01*
X4231114Y-4971654D01*
X4246600Y-4956196D01*
X4247511Y-4954000D01*
X4379996Y-4954000D01*
X4370479Y-4963501D01*
X4360661Y-4987144D01*
X4360639Y-5012744D01*
X4370415Y-5036404D01*
X4388501Y-5054521D01*
X4399782Y-5059206D01*
X4399782Y-5059206D01*
G37*
X4399782Y-5059206D02*
X4154494Y-5304494D01*
X4148207Y-5313902D01*
X4146000Y-5325000D01*
X4146000Y-5348144D01*
X4141623Y-5349953D01*
X4125011Y-5366536D01*
X4124996Y-5366572D01*
X4108464Y-5350011D01*
X4086787Y-5341010D01*
X4072642Y-5340998D01*
X4131820Y-5281820D01*
X4141575Y-5267221D01*
X4145000Y-5250000D01*
X4145000Y-5170000D01*
X4167208Y-5170000D01*
X4168804Y-5171600D01*
X4189012Y-5179990D01*
X4210892Y-5180010D01*
X4231114Y-5171654D01*
X4246600Y-5156196D01*
X4254990Y-5135988D01*
X4255010Y-5114108D01*
X4246654Y-5093886D01*
X4231196Y-5078400D01*
X4223011Y-5075002D01*
X4231114Y-5071654D01*
X4246600Y-5056196D01*
X4254990Y-5035988D01*
X4255010Y-5014108D01*
X4246654Y-4993886D01*
X4231196Y-4978400D01*
X4223011Y-4975002D01*
X4231114Y-4971654D01*
X4246600Y-4956196D01*
X4247511Y-4954000D01*
X4379996Y-4954000D01*
X4370479Y-4963501D01*
X4360661Y-4987144D01*
X4360639Y-5012744D01*
X4370415Y-5036404D01*
X4388501Y-5054521D01*
X4399782Y-5059206D01*
G36*
X4401971Y-4675557D02*
X4400557Y-4676971D01*
X4400000Y-4676414D01*
X4399443Y-4676971D01*
X4398029Y-4675557D01*
X4398586Y-4675000D01*
X4398029Y-4674443D01*
X4399443Y-4673029D01*
X4400000Y-4673586D01*
X4400557Y-4673029D01*
X4401971Y-4674443D01*
X4401414Y-4675000D01*
X4401971Y-4675557D01*
X4401971Y-4675557D01*
G37*
X4401971Y-4675557D02*
X4400557Y-4676971D01*
X4400000Y-4676414D01*
X4399443Y-4676971D01*
X4398029Y-4675557D01*
X4398586Y-4675000D01*
X4398029Y-4674443D01*
X4399443Y-4673029D01*
X4400000Y-4673586D01*
X4400557Y-4673029D01*
X4401971Y-4674443D01*
X4401414Y-4675000D01*
X4401971Y-4675557D01*
G36*
X4532360Y-4896000D02*
X4448126Y-4896000D01*
X4452491Y-4885489D01*
X4452509Y-4864603D01*
X4444533Y-4845300D01*
X4429778Y-4830519D01*
X4416478Y-4824996D01*
X4428571Y-4820000D01*
X4456360Y-4820000D01*
X4532360Y-4896000D01*
X4532360Y-4896000D01*
G37*
X4532360Y-4896000D02*
X4448126Y-4896000D01*
X4452491Y-4885489D01*
X4452509Y-4864603D01*
X4444533Y-4845300D01*
X4429778Y-4830519D01*
X4416478Y-4824996D01*
X4428571Y-4820000D01*
X4456360Y-4820000D01*
X4532360Y-4896000D01*
G36*
X4580233Y-4704000D02*
X4579494Y-4704494D01*
X4537988Y-4746000D01*
X4537012Y-4746000D01*
X4495506Y-4704494D01*
X4486098Y-4698207D01*
X4475000Y-4696000D01*
X4459051Y-4696000D01*
X4462190Y-4688902D01*
X4462776Y-4664045D01*
X4458890Y-4654000D01*
X4462988Y-4654000D01*
X4504494Y-4695506D01*
X4513902Y-4701793D01*
X4525000Y-4704000D01*
X4580233Y-4704000D01*
X4580233Y-4704000D01*
G37*
X4580233Y-4704000D02*
X4579494Y-4704494D01*
X4537988Y-4746000D01*
X4537012Y-4746000D01*
X4495506Y-4704494D01*
X4486098Y-4698207D01*
X4475000Y-4696000D01*
X4459051Y-4696000D01*
X4462190Y-4688902D01*
X4462776Y-4664045D01*
X4458890Y-4654000D01*
X4462988Y-4654000D01*
X4504494Y-4695506D01*
X4513902Y-4701793D01*
X4525000Y-4704000D01*
X4580233Y-4704000D01*
G36*
X4683521Y-4625004D02*
X4670300Y-4630467D01*
X4655519Y-4645222D01*
X4655196Y-4646000D01*
X4537012Y-4646000D01*
X4495506Y-4604494D01*
X4494767Y-4604000D01*
X4525000Y-4604000D01*
X4536098Y-4601793D01*
X4545506Y-4595506D01*
X4612012Y-4529000D01*
X4673850Y-4529000D01*
X4670300Y-4530467D01*
X4655519Y-4545222D01*
X4647509Y-4564511D01*
X4647491Y-4585397D01*
X4655467Y-4604700D01*
X4670222Y-4619481D01*
X4683521Y-4625004D01*
X4683521Y-4625004D01*
G37*
X4683521Y-4625004D02*
X4670300Y-4630467D01*
X4655519Y-4645222D01*
X4655196Y-4646000D01*
X4537012Y-4646000D01*
X4495506Y-4604494D01*
X4494767Y-4604000D01*
X4525000Y-4604000D01*
X4536098Y-4601793D01*
X4545506Y-4595506D01*
X4612012Y-4529000D01*
X4673850Y-4529000D01*
X4670300Y-4530467D01*
X4655519Y-4545222D01*
X4647509Y-4564511D01*
X4647491Y-4585397D01*
X4655467Y-4604700D01*
X4670222Y-4619481D01*
X4683521Y-4625004D01*
G36*
X4683521Y-4825004D02*
X4671429Y-4830000D01*
X4593640Y-4830000D01*
X4563696Y-4800056D01*
X4570506Y-4795506D01*
X4612012Y-4754000D01*
X4651874Y-4754000D01*
X4647509Y-4764511D01*
X4647491Y-4785397D01*
X4655467Y-4804700D01*
X4670222Y-4819481D01*
X4683521Y-4825004D01*
X4683521Y-4825004D01*
G37*
X4683521Y-4825004D02*
X4671429Y-4830000D01*
X4593640Y-4830000D01*
X4563696Y-4800056D01*
X4570506Y-4795506D01*
X4612012Y-4754000D01*
X4651874Y-4754000D01*
X4647509Y-4764511D01*
X4647491Y-4785397D01*
X4655467Y-4804700D01*
X4670222Y-4819481D01*
X4683521Y-4825004D01*
G36*
X4729988Y-5346000D02*
X4700000Y-5346000D01*
X4688902Y-5348207D01*
X4679494Y-5354494D01*
X4561188Y-5472800D01*
X4560489Y-5472509D01*
X4539603Y-5472491D01*
X4520300Y-5480467D01*
X4505519Y-5495222D01*
X4502500Y-5502492D01*
X4502500Y-5492527D01*
X4498694Y-5483339D01*
X4491661Y-5476306D01*
X4482473Y-5472500D01*
X4472527Y-5472500D01*
X4417527Y-5472500D01*
X4408339Y-5476306D01*
X4401306Y-5483339D01*
X4397500Y-5492527D01*
X4397500Y-5502473D01*
X4397500Y-5557473D01*
X4401306Y-5566661D01*
X4408339Y-5573694D01*
X4417527Y-5577500D01*
X4427473Y-5577500D01*
X4482473Y-5577500D01*
X4491661Y-5573694D01*
X4498694Y-5566661D01*
X4502500Y-5557473D01*
X4502500Y-5547527D01*
X4502500Y-5547520D01*
X4505467Y-5554700D01*
X4520222Y-5569481D01*
X4539511Y-5577491D01*
X4560397Y-5577509D01*
X4579700Y-5569533D01*
X4594481Y-5554778D01*
X4600004Y-5541478D01*
X4605467Y-5554700D01*
X4617367Y-5566621D01*
X4590195Y-5593793D01*
X4576156Y-5591000D01*
X4573844Y-5591000D01*
X4551266Y-5595491D01*
X4541180Y-5602230D01*
X4538672Y-5596174D01*
X4528826Y-5586328D01*
X4515962Y-5581000D01*
X4484750Y-5581000D01*
X4476000Y-5589750D01*
X4476000Y-5649000D01*
X4476787Y-5649000D01*
X4476787Y-5651000D01*
X4476000Y-5651000D01*
X4476000Y-5710250D01*
X4478250Y-5712500D01*
X4476000Y-5714750D01*
X4476000Y-5774000D01*
X4476787Y-5774000D01*
X4476787Y-5776000D01*
X4476000Y-5776000D01*
X4476000Y-5776787D01*
X4474000Y-5776787D01*
X4474000Y-5776000D01*
X4474000Y-5774000D01*
X4474000Y-5714750D01*
X4471750Y-5712500D01*
X4474000Y-5710250D01*
X4474000Y-5651000D01*
X4474000Y-5649000D01*
X4474000Y-5589750D01*
X4465250Y-5581000D01*
X4434038Y-5581000D01*
X4421174Y-5586328D01*
X4411328Y-5596174D01*
X4406000Y-5609038D01*
X4406000Y-5622962D01*
X4406000Y-5640250D01*
X4414750Y-5649000D01*
X4474000Y-5649000D01*
X4474000Y-5651000D01*
X4414750Y-5651000D01*
X4406000Y-5659750D01*
X4406000Y-5677038D01*
X4406000Y-5690962D01*
X4411328Y-5703826D01*
X4420003Y-5712500D01*
X4411328Y-5721174D01*
X4406000Y-5734038D01*
X4406000Y-5747962D01*
X4406000Y-5765250D01*
X4414750Y-5774000D01*
X4474000Y-5774000D01*
X4474000Y-5776000D01*
X4414750Y-5776000D01*
X4406000Y-5784750D01*
X4406000Y-5792360D01*
X4345000Y-5731360D01*
X4345000Y-5625000D01*
X4341575Y-5607779D01*
X4331820Y-5593180D01*
X4256820Y-5518180D01*
X4242221Y-5508425D01*
X4225000Y-5505000D01*
X4068640Y-5505000D01*
X4045000Y-5481360D01*
X4045000Y-5451427D01*
X4063213Y-5458990D01*
X4086684Y-5459010D01*
X4108377Y-5450047D01*
X4124989Y-5433464D01*
X4125004Y-5433428D01*
X4141536Y-5449989D01*
X4163213Y-5458990D01*
X4186684Y-5459010D01*
X4208377Y-5450047D01*
X4217015Y-5441424D01*
X4219806Y-5448161D01*
X4226839Y-5455194D01*
X4236027Y-5459000D01*
X4245973Y-5459000D01*
X4313973Y-5459000D01*
X4323161Y-5455194D01*
X4330194Y-5448161D01*
X4334000Y-5438973D01*
X4334000Y-5429027D01*
X4334000Y-5361027D01*
X4330194Y-5351839D01*
X4323161Y-5344806D01*
X4313973Y-5341000D01*
X4304027Y-5341000D01*
X4236027Y-5341000D01*
X4226839Y-5344806D01*
X4219806Y-5351839D01*
X4217015Y-5358577D01*
X4208464Y-5350011D01*
X4204000Y-5348158D01*
X4204000Y-5337012D01*
X4365458Y-5175554D01*
X4375894Y-5186009D01*
X4391509Y-5192493D01*
X4408238Y-5192507D01*
X4405519Y-5195222D01*
X4397509Y-5214511D01*
X4397491Y-5235397D01*
X4405467Y-5254700D01*
X4420222Y-5269481D01*
X4439511Y-5277491D01*
X4460397Y-5277509D01*
X4479700Y-5269533D01*
X4494481Y-5254778D01*
X4500004Y-5241478D01*
X4505467Y-5254700D01*
X4520222Y-5269481D01*
X4539511Y-5277491D01*
X4560397Y-5277509D01*
X4579700Y-5269533D01*
X4594481Y-5254778D01*
X4600004Y-5241478D01*
X4605467Y-5254700D01*
X4620222Y-5269481D01*
X4639511Y-5277491D01*
X4660397Y-5277509D01*
X4661175Y-5277188D01*
X4729988Y-5346000D01*
X4729988Y-5346000D01*
G37*
X4729988Y-5346000D02*
X4700000Y-5346000D01*
X4688902Y-5348207D01*
X4679494Y-5354494D01*
X4561188Y-5472800D01*
X4560489Y-5472509D01*
X4539603Y-5472491D01*
X4520300Y-5480467D01*
X4505519Y-5495222D01*
X4502500Y-5502492D01*
X4502500Y-5492527D01*
X4498694Y-5483339D01*
X4491661Y-5476306D01*
X4482473Y-5472500D01*
X4472527Y-5472500D01*
X4417527Y-5472500D01*
X4408339Y-5476306D01*
X4401306Y-5483339D01*
X4397500Y-5492527D01*
X4397500Y-5502473D01*
X4397500Y-5557473D01*
X4401306Y-5566661D01*
X4408339Y-5573694D01*
X4417527Y-5577500D01*
X4427473Y-5577500D01*
X4482473Y-5577500D01*
X4491661Y-5573694D01*
X4498694Y-5566661D01*
X4502500Y-5557473D01*
X4502500Y-5547527D01*
X4502500Y-5547520D01*
X4505467Y-5554700D01*
X4520222Y-5569481D01*
X4539511Y-5577491D01*
X4560397Y-5577509D01*
X4579700Y-5569533D01*
X4594481Y-5554778D01*
X4600004Y-5541478D01*
X4605467Y-5554700D01*
X4617367Y-5566621D01*
X4590195Y-5593793D01*
X4576156Y-5591000D01*
X4573844Y-5591000D01*
X4551266Y-5595491D01*
X4541180Y-5602230D01*
X4538672Y-5596174D01*
X4528826Y-5586328D01*
X4515962Y-5581000D01*
X4484750Y-5581000D01*
X4476000Y-5589750D01*
X4476000Y-5649000D01*
X4476787Y-5649000D01*
X4476787Y-5651000D01*
X4476000Y-5651000D01*
X4476000Y-5710250D01*
X4478250Y-5712500D01*
X4476000Y-5714750D01*
X4476000Y-5774000D01*
X4476787Y-5774000D01*
X4476787Y-5776000D01*
X4476000Y-5776000D01*
X4476000Y-5776787D01*
X4474000Y-5776787D01*
X4474000Y-5776000D01*
X4474000Y-5774000D01*
X4474000Y-5714750D01*
X4471750Y-5712500D01*
X4474000Y-5710250D01*
X4474000Y-5651000D01*
X4474000Y-5649000D01*
X4474000Y-5589750D01*
X4465250Y-5581000D01*
X4434038Y-5581000D01*
X4421174Y-5586328D01*
X4411328Y-5596174D01*
X4406000Y-5609038D01*
X4406000Y-5622962D01*
X4406000Y-5640250D01*
X4414750Y-5649000D01*
X4474000Y-5649000D01*
X4474000Y-5651000D01*
X4414750Y-5651000D01*
X4406000Y-5659750D01*
X4406000Y-5677038D01*
X4406000Y-5690962D01*
X4411328Y-5703826D01*
X4420003Y-5712500D01*
X4411328Y-5721174D01*
X4406000Y-5734038D01*
X4406000Y-5747962D01*
X4406000Y-5765250D01*
X4414750Y-5774000D01*
X4474000Y-5774000D01*
X4474000Y-5776000D01*
X4414750Y-5776000D01*
X4406000Y-5784750D01*
X4406000Y-5792360D01*
X4345000Y-5731360D01*
X4345000Y-5625000D01*
X4341575Y-5607779D01*
X4331820Y-5593180D01*
X4256820Y-5518180D01*
X4242221Y-5508425D01*
X4225000Y-5505000D01*
X4068640Y-5505000D01*
X4045000Y-5481360D01*
X4045000Y-5451427D01*
X4063213Y-5458990D01*
X4086684Y-5459010D01*
X4108377Y-5450047D01*
X4124989Y-5433464D01*
X4125004Y-5433428D01*
X4141536Y-5449989D01*
X4163213Y-5458990D01*
X4186684Y-5459010D01*
X4208377Y-5450047D01*
X4217015Y-5441424D01*
X4219806Y-5448161D01*
X4226839Y-5455194D01*
X4236027Y-5459000D01*
X4245973Y-5459000D01*
X4313973Y-5459000D01*
X4323161Y-5455194D01*
X4330194Y-5448161D01*
X4334000Y-5438973D01*
X4334000Y-5429027D01*
X4334000Y-5361027D01*
X4330194Y-5351839D01*
X4323161Y-5344806D01*
X4313973Y-5341000D01*
X4304027Y-5341000D01*
X4236027Y-5341000D01*
X4226839Y-5344806D01*
X4219806Y-5351839D01*
X4217015Y-5358577D01*
X4208464Y-5350011D01*
X4204000Y-5348158D01*
X4204000Y-5337012D01*
X4365458Y-5175554D01*
X4375894Y-5186009D01*
X4391509Y-5192493D01*
X4408238Y-5192507D01*
X4405519Y-5195222D01*
X4397509Y-5214511D01*
X4397491Y-5235397D01*
X4405467Y-5254700D01*
X4420222Y-5269481D01*
X4439511Y-5277491D01*
X4460397Y-5277509D01*
X4479700Y-5269533D01*
X4494481Y-5254778D01*
X4500004Y-5241478D01*
X4505467Y-5254700D01*
X4520222Y-5269481D01*
X4539511Y-5277491D01*
X4560397Y-5277509D01*
X4579700Y-5269533D01*
X4594481Y-5254778D01*
X4600004Y-5241478D01*
X4605467Y-5254700D01*
X4620222Y-5269481D01*
X4639511Y-5277491D01*
X4660397Y-5277509D01*
X4661175Y-5277188D01*
X4729988Y-5346000D01*
G36*
X4930844Y-5573892D02*
X4919140Y-5578728D01*
X4917866Y-5580000D01*
X4875000Y-5580000D01*
X4857779Y-5583425D01*
X4843180Y-5593180D01*
X4831360Y-5605000D01*
X4812965Y-5605000D01*
X4798734Y-5595491D01*
X4776156Y-5591000D01*
X4773844Y-5591000D01*
X4751266Y-5595491D01*
X4732125Y-5608281D01*
X4725000Y-5618944D01*
X4717875Y-5608281D01*
X4698734Y-5595491D01*
X4696054Y-5594958D01*
X4720506Y-5570506D01*
X4720980Y-5569796D01*
X4739511Y-5577491D01*
X4760397Y-5577509D01*
X4779700Y-5569533D01*
X4794481Y-5554778D01*
X4800004Y-5541478D01*
X4805467Y-5554700D01*
X4820222Y-5569481D01*
X4839511Y-5577491D01*
X4860397Y-5577509D01*
X4879700Y-5569533D01*
X4894481Y-5554778D01*
X4900004Y-5541478D01*
X4905467Y-5554700D01*
X4920222Y-5569481D01*
X4930844Y-5573892D01*
X4930844Y-5573892D01*
G37*
X4930844Y-5573892D02*
X4919140Y-5578728D01*
X4917866Y-5580000D01*
X4875000Y-5580000D01*
X4857779Y-5583425D01*
X4843180Y-5593180D01*
X4831360Y-5605000D01*
X4812965Y-5605000D01*
X4798734Y-5595491D01*
X4776156Y-5591000D01*
X4773844Y-5591000D01*
X4751266Y-5595491D01*
X4732125Y-5608281D01*
X4725000Y-5618944D01*
X4717875Y-5608281D01*
X4698734Y-5595491D01*
X4696054Y-5594958D01*
X4720506Y-5570506D01*
X4720980Y-5569796D01*
X4739511Y-5577491D01*
X4760397Y-5577509D01*
X4779700Y-5569533D01*
X4794481Y-5554778D01*
X4800004Y-5541478D01*
X4805467Y-5554700D01*
X4820222Y-5569481D01*
X4839511Y-5577491D01*
X4860397Y-5577509D01*
X4879700Y-5569533D01*
X4894481Y-5554778D01*
X4900004Y-5541478D01*
X4905467Y-5554700D01*
X4920222Y-5569481D01*
X4930844Y-5573892D01*
G36*
X5079988Y-5404000D02*
X5037988Y-5446000D01*
X5000000Y-5446000D01*
X4988902Y-5448207D01*
X4979494Y-5454494D01*
X4961188Y-5472800D01*
X4960489Y-5472509D01*
X4939603Y-5472491D01*
X4920300Y-5480467D01*
X4905519Y-5495222D01*
X4899996Y-5508521D01*
X4894533Y-5495300D01*
X4879778Y-5480519D01*
X4860489Y-5472509D01*
X4839603Y-5472491D01*
X4838825Y-5472812D01*
X4820506Y-5454494D01*
X4811098Y-5448207D01*
X4800000Y-5446000D01*
X4725000Y-5446000D01*
X4713902Y-5448207D01*
X4704494Y-5454494D01*
X4679494Y-5479494D01*
X4679020Y-5480204D01*
X4660489Y-5472509D01*
X4643518Y-5472494D01*
X4712012Y-5404000D01*
X5079988Y-5404000D01*
X5079988Y-5404000D01*
G37*
X5079988Y-5404000D02*
X5037988Y-5446000D01*
X5000000Y-5446000D01*
X4988902Y-5448207D01*
X4979494Y-5454494D01*
X4961188Y-5472800D01*
X4960489Y-5472509D01*
X4939603Y-5472491D01*
X4920300Y-5480467D01*
X4905519Y-5495222D01*
X4899996Y-5508521D01*
X4894533Y-5495300D01*
X4879778Y-5480519D01*
X4860489Y-5472509D01*
X4839603Y-5472491D01*
X4838825Y-5472812D01*
X4820506Y-5454494D01*
X4811098Y-5448207D01*
X4800000Y-5446000D01*
X4725000Y-5446000D01*
X4713902Y-5448207D01*
X4704494Y-5454494D01*
X4679494Y-5479494D01*
X4679020Y-5480204D01*
X4660489Y-5472509D01*
X4643518Y-5472494D01*
X4712012Y-5404000D01*
X5079988Y-5404000D01*
G36*
X5105000Y-4502544D02*
X5102765Y-4504038D01*
X5088674Y-4525126D01*
X5083727Y-4550000D01*
X5088674Y-4574874D01*
X5102765Y-4595962D01*
X5102822Y-4596000D01*
X5075000Y-4596000D01*
X5063902Y-4598207D01*
X5054494Y-4604494D01*
X5035601Y-4623386D01*
X5040000Y-4601273D01*
X5040000Y-4598727D01*
X5035052Y-4573852D01*
X5032815Y-4570504D01*
X5034826Y-4569672D01*
X5044672Y-4559826D01*
X5050000Y-4546962D01*
X5050000Y-4509750D01*
X5041250Y-4501000D01*
X4976000Y-4501000D01*
X4976000Y-4501787D01*
X4974000Y-4501787D01*
X4974000Y-4501000D01*
X4908750Y-4501000D01*
X4900000Y-4509750D01*
X4900000Y-4546962D01*
X4905328Y-4559826D01*
X4915174Y-4569672D01*
X4917185Y-4570504D01*
X4916854Y-4571000D01*
X4890000Y-4571000D01*
X4890000Y-4555027D01*
X4886194Y-4545839D01*
X4879161Y-4538806D01*
X4877151Y-4537973D01*
X4885052Y-4526148D01*
X4890000Y-4501273D01*
X4890000Y-4498727D01*
X4885052Y-4473852D01*
X4882478Y-4470000D01*
X4900000Y-4470000D01*
X4900000Y-4490250D01*
X4908750Y-4499000D01*
X4974000Y-4499000D01*
X4974000Y-4498213D01*
X4976000Y-4498213D01*
X4976000Y-4499000D01*
X5041250Y-4499000D01*
X5050000Y-4490250D01*
X5050000Y-4470000D01*
X5105000Y-4470000D01*
X5105000Y-4502544D01*
X5105000Y-4502544D01*
G37*
X5105000Y-4502544D02*
X5102765Y-4504038D01*
X5088674Y-4525126D01*
X5083727Y-4550000D01*
X5088674Y-4574874D01*
X5102765Y-4595962D01*
X5102822Y-4596000D01*
X5075000Y-4596000D01*
X5063902Y-4598207D01*
X5054494Y-4604494D01*
X5035601Y-4623386D01*
X5040000Y-4601273D01*
X5040000Y-4598727D01*
X5035052Y-4573852D01*
X5032815Y-4570504D01*
X5034826Y-4569672D01*
X5044672Y-4559826D01*
X5050000Y-4546962D01*
X5050000Y-4509750D01*
X5041250Y-4501000D01*
X4976000Y-4501000D01*
X4976000Y-4501787D01*
X4974000Y-4501787D01*
X4974000Y-4501000D01*
X4908750Y-4501000D01*
X4900000Y-4509750D01*
X4900000Y-4546962D01*
X4905328Y-4559826D01*
X4915174Y-4569672D01*
X4917185Y-4570504D01*
X4916854Y-4571000D01*
X4890000Y-4571000D01*
X4890000Y-4555027D01*
X4886194Y-4545839D01*
X4879161Y-4538806D01*
X4877151Y-4537973D01*
X4885052Y-4526148D01*
X4890000Y-4501273D01*
X4890000Y-4498727D01*
X4885052Y-4473852D01*
X4882478Y-4470000D01*
X4900000Y-4470000D01*
X4900000Y-4490250D01*
X4908750Y-4499000D01*
X4974000Y-4499000D01*
X4974000Y-4498213D01*
X4976000Y-4498213D01*
X4976000Y-4499000D01*
X5041250Y-4499000D01*
X5050000Y-4490250D01*
X5050000Y-4470000D01*
X5105000Y-4470000D01*
X5105000Y-4502544D01*
G36*
X5130842Y-5176111D02*
X5120300Y-5180467D01*
X5105519Y-5195222D01*
X5105506Y-5195253D01*
X5103805Y-5190855D01*
X5102136Y-5188357D01*
X5089637Y-5186848D01*
X5089573Y-5186841D01*
X5051414Y-5225000D01*
X5051971Y-5225557D01*
X5050557Y-5226971D01*
X5050000Y-5226414D01*
X5049443Y-5226971D01*
X5048029Y-5225557D01*
X5048586Y-5225000D01*
X5010427Y-5186841D01*
X4997864Y-5188357D01*
X4994660Y-5195606D01*
X4994533Y-5195300D01*
X4983253Y-5184000D01*
X4988973Y-5184000D01*
X4998161Y-5180194D01*
X5005194Y-5173161D01*
X5006566Y-5169848D01*
X5010363Y-5166052D01*
X5012129Y-5178827D01*
X5012612Y-5179041D01*
X5011841Y-5185427D01*
X5050000Y-5223586D01*
X5088159Y-5185427D01*
X5087400Y-5179141D01*
X5087871Y-5178827D01*
X5089637Y-5166052D01*
X5050000Y-5126414D01*
X5049443Y-5126971D01*
X5048029Y-5125557D01*
X5048586Y-5125000D01*
X5048029Y-5124443D01*
X5049443Y-5123029D01*
X5050000Y-5123586D01*
X5050557Y-5123029D01*
X5051971Y-5124443D01*
X5051414Y-5125000D01*
X5091052Y-5164637D01*
X5103827Y-5162871D01*
X5105947Y-5158083D01*
X5119060Y-5171218D01*
X5130842Y-5176111D01*
X5130842Y-5176111D01*
G37*
X5130842Y-5176111D02*
X5120300Y-5180467D01*
X5105519Y-5195222D01*
X5105506Y-5195253D01*
X5103805Y-5190855D01*
X5102136Y-5188357D01*
X5089637Y-5186848D01*
X5089573Y-5186841D01*
X5051414Y-5225000D01*
X5051971Y-5225557D01*
X5050557Y-5226971D01*
X5050000Y-5226414D01*
X5049443Y-5226971D01*
X5048029Y-5225557D01*
X5048586Y-5225000D01*
X5010427Y-5186841D01*
X4997864Y-5188357D01*
X4994660Y-5195606D01*
X4994533Y-5195300D01*
X4983253Y-5184000D01*
X4988973Y-5184000D01*
X4998161Y-5180194D01*
X5005194Y-5173161D01*
X5006566Y-5169848D01*
X5010363Y-5166052D01*
X5012129Y-5178827D01*
X5012612Y-5179041D01*
X5011841Y-5185427D01*
X5050000Y-5223586D01*
X5088159Y-5185427D01*
X5087400Y-5179141D01*
X5087871Y-5178827D01*
X5089637Y-5166052D01*
X5050000Y-5126414D01*
X5049443Y-5126971D01*
X5048029Y-5125557D01*
X5048586Y-5125000D01*
X5048029Y-5124443D01*
X5049443Y-5123029D01*
X5050000Y-5123586D01*
X5050557Y-5123029D01*
X5051971Y-5124443D01*
X5051414Y-5125000D01*
X5091052Y-5164637D01*
X5103827Y-5162871D01*
X5105947Y-5158083D01*
X5119060Y-5171218D01*
X5130842Y-5176111D01*
G36*
X5549988Y-4941000D02*
X5548844Y-4941000D01*
X5526266Y-4945491D01*
X5507125Y-4958281D01*
X5500000Y-4968944D01*
X5492875Y-4958281D01*
X5473734Y-4945491D01*
X5451156Y-4941000D01*
X5448844Y-4941000D01*
X5426266Y-4945491D01*
X5407125Y-4958281D01*
X5406422Y-4959332D01*
X5393180Y-4968180D01*
X5343180Y-5018180D01*
X5333425Y-5032779D01*
X5330000Y-5050000D01*
X5330000Y-5081360D01*
X5238353Y-5173007D01*
X5221429Y-5180000D01*
X5178529Y-5180000D01*
X5169156Y-5176108D01*
X5180860Y-5171272D01*
X5196218Y-5155940D01*
X5204541Y-5135898D01*
X5204559Y-5114197D01*
X5196272Y-5094140D01*
X5195000Y-5092866D01*
X5195000Y-5075000D01*
X5191575Y-5057779D01*
X5181820Y-5043180D01*
X5156820Y-5018180D01*
X5142221Y-5008425D01*
X5125000Y-5005000D01*
X4968640Y-5005000D01*
X4931820Y-4968180D01*
X4917221Y-4958425D01*
X4900000Y-4955000D01*
X4889069Y-4955000D01*
X4888655Y-4954000D01*
X5175000Y-4954000D01*
X5186098Y-4951793D01*
X5195506Y-4945506D01*
X5226012Y-4915000D01*
X5273988Y-4915000D01*
X5279494Y-4920506D01*
X5288902Y-4926793D01*
X5300000Y-4929000D01*
X5537988Y-4929000D01*
X5549988Y-4941000D01*
X5549988Y-4941000D01*
G37*
X5549988Y-4941000D02*
X5548844Y-4941000D01*
X5526266Y-4945491D01*
X5507125Y-4958281D01*
X5500000Y-4968944D01*
X5492875Y-4958281D01*
X5473734Y-4945491D01*
X5451156Y-4941000D01*
X5448844Y-4941000D01*
X5426266Y-4945491D01*
X5407125Y-4958281D01*
X5406422Y-4959332D01*
X5393180Y-4968180D01*
X5343180Y-5018180D01*
X5333425Y-5032779D01*
X5330000Y-5050000D01*
X5330000Y-5081360D01*
X5238353Y-5173007D01*
X5221429Y-5180000D01*
X5178529Y-5180000D01*
X5169156Y-5176108D01*
X5180860Y-5171272D01*
X5196218Y-5155940D01*
X5204541Y-5135898D01*
X5204559Y-5114197D01*
X5196272Y-5094140D01*
X5195000Y-5092866D01*
X5195000Y-5075000D01*
X5191575Y-5057779D01*
X5181820Y-5043180D01*
X5156820Y-5018180D01*
X5142221Y-5008425D01*
X5125000Y-5005000D01*
X4968640Y-5005000D01*
X4931820Y-4968180D01*
X4917221Y-4958425D01*
X4900000Y-4955000D01*
X4889069Y-4955000D01*
X4888655Y-4954000D01*
X5175000Y-4954000D01*
X5186098Y-4951793D01*
X5195506Y-4945506D01*
X5226012Y-4915000D01*
X5273988Y-4915000D01*
X5279494Y-4920506D01*
X5288902Y-4926793D01*
X5300000Y-4929000D01*
X5537988Y-4929000D01*
X5549988Y-4941000D01*
G36*
X5601787Y-5776000D02*
X5601000Y-5776000D01*
X5601000Y-5776787D01*
X5599000Y-5776787D01*
X5599000Y-5776000D01*
X5539750Y-5776000D01*
X5531000Y-5784750D01*
X5531000Y-5802038D01*
X5531000Y-5815962D01*
X5536328Y-5828826D01*
X5537503Y-5830000D01*
X5489637Y-5830000D01*
X5489637Y-5666052D01*
X5450000Y-5626414D01*
X5410363Y-5666052D01*
X5412129Y-5678827D01*
X5435610Y-5689222D01*
X5461282Y-5689840D01*
X5485237Y-5680587D01*
X5487871Y-5678827D01*
X5489637Y-5666052D01*
X5489637Y-5830000D01*
X5442709Y-5830000D01*
X5450641Y-5810898D01*
X5450659Y-5789197D01*
X5442372Y-5769140D01*
X5427040Y-5753782D01*
X5406998Y-5745459D01*
X5385297Y-5745441D01*
X5365240Y-5753728D01*
X5349882Y-5769060D01*
X5341559Y-5789102D01*
X5341541Y-5810803D01*
X5349473Y-5830000D01*
X5250509Y-5830000D01*
X5258441Y-5810898D01*
X5258459Y-5789197D01*
X5250172Y-5769140D01*
X5234840Y-5753782D01*
X5214798Y-5745459D01*
X5193097Y-5745441D01*
X5189637Y-5746870D01*
X5189637Y-5666052D01*
X5150000Y-5626414D01*
X5148586Y-5627828D01*
X5148586Y-5625000D01*
X5108948Y-5585363D01*
X5100000Y-5586600D01*
X5091052Y-5585363D01*
X5051414Y-5625000D01*
X5091052Y-5664637D01*
X5100000Y-5663400D01*
X5108948Y-5664637D01*
X5148586Y-5625000D01*
X5148586Y-5627828D01*
X5110363Y-5666052D01*
X5112129Y-5678827D01*
X5135610Y-5689222D01*
X5161282Y-5689840D01*
X5185237Y-5680587D01*
X5187871Y-5678827D01*
X5189637Y-5666052D01*
X5189637Y-5746870D01*
X5173040Y-5753728D01*
X5157682Y-5769060D01*
X5149359Y-5789102D01*
X5149341Y-5810803D01*
X5157273Y-5830000D01*
X5089637Y-5830000D01*
X5089637Y-5666052D01*
X5050000Y-5626414D01*
X5010363Y-5666052D01*
X5012129Y-5678827D01*
X5035610Y-5689222D01*
X5061282Y-5689840D01*
X5085237Y-5680587D01*
X5087871Y-5678827D01*
X5089637Y-5666052D01*
X5089637Y-5830000D01*
X4996390Y-5830000D01*
X5008377Y-5825047D01*
X5024989Y-5808464D01*
X5033990Y-5786787D01*
X5034010Y-5763316D01*
X5025047Y-5741623D01*
X5008464Y-5725011D01*
X4986787Y-5716010D01*
X4963316Y-5715990D01*
X4941623Y-5724953D01*
X4925011Y-5741536D01*
X4924996Y-5741572D01*
X4908464Y-5725011D01*
X4886787Y-5716010D01*
X4863316Y-5715990D01*
X4841623Y-5724953D01*
X4825011Y-5741536D01*
X4824996Y-5741572D01*
X4808464Y-5725011D01*
X4786787Y-5716010D01*
X4763316Y-5715990D01*
X4741623Y-5724953D01*
X4725011Y-5741536D01*
X4724996Y-5741572D01*
X4708464Y-5725011D01*
X4686787Y-5716010D01*
X4663316Y-5715990D01*
X4641623Y-5724953D01*
X4625011Y-5741536D01*
X4624996Y-5741572D01*
X4608464Y-5725011D01*
X4586787Y-5716010D01*
X4563316Y-5715990D01*
X4541623Y-5724953D01*
X4540642Y-5725932D01*
X4538672Y-5721174D01*
X4529997Y-5712500D01*
X4538672Y-5703826D01*
X4541180Y-5697770D01*
X4551266Y-5704509D01*
X4573844Y-5709000D01*
X4576156Y-5709000D01*
X4598734Y-5704509D01*
X4617875Y-5691719D01*
X4625000Y-5681056D01*
X4632125Y-5691719D01*
X4651266Y-5704509D01*
X4673844Y-5709000D01*
X4676156Y-5709000D01*
X4698734Y-5704509D01*
X4717875Y-5691719D01*
X4725000Y-5681056D01*
X4732125Y-5691719D01*
X4751266Y-5704509D01*
X4773844Y-5709000D01*
X4776156Y-5709000D01*
X4798734Y-5704509D01*
X4812965Y-5695000D01*
X4850000Y-5695000D01*
X4867221Y-5691575D01*
X4881820Y-5681820D01*
X4893640Y-5670000D01*
X4917843Y-5670000D01*
X4919060Y-5671218D01*
X4939102Y-5679541D01*
X4960803Y-5679559D01*
X4980860Y-5671272D01*
X4993718Y-5658437D01*
X4994413Y-5660237D01*
X4996173Y-5662871D01*
X5008948Y-5664637D01*
X5048586Y-5625000D01*
X5048029Y-5624443D01*
X5049443Y-5623029D01*
X5050000Y-5623586D01*
X5089637Y-5583948D01*
X5087871Y-5571173D01*
X5081072Y-5568163D01*
X5094481Y-5554778D01*
X5094494Y-5554747D01*
X5096195Y-5559145D01*
X5097864Y-5561643D01*
X5110427Y-5563159D01*
X5148586Y-5525000D01*
X5148029Y-5524443D01*
X5149443Y-5523029D01*
X5150000Y-5523586D01*
X5150557Y-5523029D01*
X5151971Y-5524443D01*
X5151414Y-5525000D01*
X5189573Y-5563159D01*
X5202136Y-5561643D01*
X5205340Y-5554394D01*
X5205467Y-5554700D01*
X5220222Y-5569481D01*
X5230844Y-5573892D01*
X5219140Y-5578728D01*
X5206282Y-5591563D01*
X5205587Y-5589763D01*
X5203827Y-5587129D01*
X5191052Y-5585363D01*
X5189637Y-5586777D01*
X5189637Y-5583948D01*
X5187871Y-5571173D01*
X5187388Y-5570959D01*
X5188159Y-5564573D01*
X5150000Y-5526414D01*
X5111841Y-5564573D01*
X5112599Y-5570859D01*
X5112129Y-5571173D01*
X5110363Y-5583948D01*
X5150000Y-5623586D01*
X5189637Y-5583948D01*
X5189637Y-5586777D01*
X5151414Y-5625000D01*
X5191052Y-5664637D01*
X5203827Y-5662871D01*
X5205947Y-5658083D01*
X5219060Y-5671218D01*
X5239102Y-5679541D01*
X5260803Y-5679559D01*
X5280860Y-5671272D01*
X5296218Y-5655940D01*
X5299999Y-5646835D01*
X5303728Y-5655860D01*
X5319060Y-5671218D01*
X5339102Y-5679541D01*
X5360803Y-5679559D01*
X5380860Y-5671272D01*
X5393718Y-5658437D01*
X5394413Y-5660237D01*
X5396173Y-5662871D01*
X5408948Y-5664637D01*
X5448586Y-5625000D01*
X5408948Y-5585363D01*
X5396173Y-5587129D01*
X5394053Y-5591917D01*
X5380940Y-5578782D01*
X5369158Y-5573889D01*
X5379700Y-5569533D01*
X5394481Y-5554778D01*
X5400004Y-5541478D01*
X5405467Y-5554700D01*
X5418654Y-5567910D01*
X5414763Y-5569413D01*
X5412129Y-5571173D01*
X5410363Y-5583948D01*
X5450000Y-5623586D01*
X5450557Y-5623029D01*
X5451971Y-5624443D01*
X5451414Y-5625000D01*
X5491052Y-5664637D01*
X5503827Y-5662871D01*
X5514222Y-5639390D01*
X5514437Y-5630450D01*
X5589988Y-5706000D01*
X5559038Y-5706000D01*
X5546174Y-5711328D01*
X5536328Y-5721174D01*
X5531000Y-5734038D01*
X5531000Y-5747962D01*
X5531000Y-5765250D01*
X5539750Y-5774000D01*
X5599000Y-5774000D01*
X5599000Y-5773213D01*
X5601000Y-5773213D01*
X5601000Y-5774000D01*
X5601787Y-5774000D01*
X5601787Y-5776000D01*
X5601787Y-5776000D01*
G37*
X5601787Y-5776000D02*
X5601000Y-5776000D01*
X5601000Y-5776787D01*
X5599000Y-5776787D01*
X5599000Y-5776000D01*
X5539750Y-5776000D01*
X5531000Y-5784750D01*
X5531000Y-5802038D01*
X5531000Y-5815962D01*
X5536328Y-5828826D01*
X5537503Y-5830000D01*
X5489637Y-5830000D01*
X5489637Y-5666052D01*
X5450000Y-5626414D01*
X5410363Y-5666052D01*
X5412129Y-5678827D01*
X5435610Y-5689222D01*
X5461282Y-5689840D01*
X5485237Y-5680587D01*
X5487871Y-5678827D01*
X5489637Y-5666052D01*
X5489637Y-5830000D01*
X5442709Y-5830000D01*
X5450641Y-5810898D01*
X5450659Y-5789197D01*
X5442372Y-5769140D01*
X5427040Y-5753782D01*
X5406998Y-5745459D01*
X5385297Y-5745441D01*
X5365240Y-5753728D01*
X5349882Y-5769060D01*
X5341559Y-5789102D01*
X5341541Y-5810803D01*
X5349473Y-5830000D01*
X5250509Y-5830000D01*
X5258441Y-5810898D01*
X5258459Y-5789197D01*
X5250172Y-5769140D01*
X5234840Y-5753782D01*
X5214798Y-5745459D01*
X5193097Y-5745441D01*
X5189637Y-5746870D01*
X5189637Y-5666052D01*
X5150000Y-5626414D01*
X5148586Y-5627828D01*
X5148586Y-5625000D01*
X5108948Y-5585363D01*
X5100000Y-5586600D01*
X5091052Y-5585363D01*
X5051414Y-5625000D01*
X5091052Y-5664637D01*
X5100000Y-5663400D01*
X5108948Y-5664637D01*
X5148586Y-5625000D01*
X5148586Y-5627828D01*
X5110363Y-5666052D01*
X5112129Y-5678827D01*
X5135610Y-5689222D01*
X5161282Y-5689840D01*
X5185237Y-5680587D01*
X5187871Y-5678827D01*
X5189637Y-5666052D01*
X5189637Y-5746870D01*
X5173040Y-5753728D01*
X5157682Y-5769060D01*
X5149359Y-5789102D01*
X5149341Y-5810803D01*
X5157273Y-5830000D01*
X5089637Y-5830000D01*
X5089637Y-5666052D01*
X5050000Y-5626414D01*
X5010363Y-5666052D01*
X5012129Y-5678827D01*
X5035610Y-5689222D01*
X5061282Y-5689840D01*
X5085237Y-5680587D01*
X5087871Y-5678827D01*
X5089637Y-5666052D01*
X5089637Y-5830000D01*
X4996390Y-5830000D01*
X5008377Y-5825047D01*
X5024989Y-5808464D01*
X5033990Y-5786787D01*
X5034010Y-5763316D01*
X5025047Y-5741623D01*
X5008464Y-5725011D01*
X4986787Y-5716010D01*
X4963316Y-5715990D01*
X4941623Y-5724953D01*
X4925011Y-5741536D01*
X4924996Y-5741572D01*
X4908464Y-5725011D01*
X4886787Y-5716010D01*
X4863316Y-5715990D01*
X4841623Y-5724953D01*
X4825011Y-5741536D01*
X4824996Y-5741572D01*
X4808464Y-5725011D01*
X4786787Y-5716010D01*
X4763316Y-5715990D01*
X4741623Y-5724953D01*
X4725011Y-5741536D01*
X4724996Y-5741572D01*
X4708464Y-5725011D01*
X4686787Y-5716010D01*
X4663316Y-5715990D01*
X4641623Y-5724953D01*
X4625011Y-5741536D01*
X4624996Y-5741572D01*
X4608464Y-5725011D01*
X4586787Y-5716010D01*
X4563316Y-5715990D01*
X4541623Y-5724953D01*
X4540642Y-5725932D01*
X4538672Y-5721174D01*
X4529997Y-5712500D01*
X4538672Y-5703826D01*
X4541180Y-5697770D01*
X4551266Y-5704509D01*
X4573844Y-5709000D01*
X4576156Y-5709000D01*
X4598734Y-5704509D01*
X4617875Y-5691719D01*
X4625000Y-5681056D01*
X4632125Y-5691719D01*
X4651266Y-5704509D01*
X4673844Y-5709000D01*
X4676156Y-5709000D01*
X4698734Y-5704509D01*
X4717875Y-5691719D01*
X4725000Y-5681056D01*
X4732125Y-5691719D01*
X4751266Y-5704509D01*
X4773844Y-5709000D01*
X4776156Y-5709000D01*
X4798734Y-5704509D01*
X4812965Y-5695000D01*
X4850000Y-5695000D01*
X4867221Y-5691575D01*
X4881820Y-5681820D01*
X4893640Y-5670000D01*
X4917843Y-5670000D01*
X4919060Y-5671218D01*
X4939102Y-5679541D01*
X4960803Y-5679559D01*
X4980860Y-5671272D01*
X4993718Y-5658437D01*
X4994413Y-5660237D01*
X4996173Y-5662871D01*
X5008948Y-5664637D01*
X5048586Y-5625000D01*
X5048029Y-5624443D01*
X5049443Y-5623029D01*
X5050000Y-5623586D01*
X5089637Y-5583948D01*
X5087871Y-5571173D01*
X5081072Y-5568163D01*
X5094481Y-5554778D01*
X5094494Y-5554747D01*
X5096195Y-5559145D01*
X5097864Y-5561643D01*
X5110427Y-5563159D01*
X5148586Y-5525000D01*
X5148029Y-5524443D01*
X5149443Y-5523029D01*
X5150000Y-5523586D01*
X5150557Y-5523029D01*
X5151971Y-5524443D01*
X5151414Y-5525000D01*
X5189573Y-5563159D01*
X5202136Y-5561643D01*
X5205340Y-5554394D01*
X5205467Y-5554700D01*
X5220222Y-5569481D01*
X5230844Y-5573892D01*
X5219140Y-5578728D01*
X5206282Y-5591563D01*
X5205587Y-5589763D01*
X5203827Y-5587129D01*
X5191052Y-5585363D01*
X5189637Y-5586777D01*
X5189637Y-5583948D01*
X5187871Y-5571173D01*
X5187388Y-5570959D01*
X5188159Y-5564573D01*
X5150000Y-5526414D01*
X5111841Y-5564573D01*
X5112599Y-5570859D01*
X5112129Y-5571173D01*
X5110363Y-5583948D01*
X5150000Y-5623586D01*
X5189637Y-5583948D01*
X5189637Y-5586777D01*
X5151414Y-5625000D01*
X5191052Y-5664637D01*
X5203827Y-5662871D01*
X5205947Y-5658083D01*
X5219060Y-5671218D01*
X5239102Y-5679541D01*
X5260803Y-5679559D01*
X5280860Y-5671272D01*
X5296218Y-5655940D01*
X5299999Y-5646835D01*
X5303728Y-5655860D01*
X5319060Y-5671218D01*
X5339102Y-5679541D01*
X5360803Y-5679559D01*
X5380860Y-5671272D01*
X5393718Y-5658437D01*
X5394413Y-5660237D01*
X5396173Y-5662871D01*
X5408948Y-5664637D01*
X5448586Y-5625000D01*
X5408948Y-5585363D01*
X5396173Y-5587129D01*
X5394053Y-5591917D01*
X5380940Y-5578782D01*
X5369158Y-5573889D01*
X5379700Y-5569533D01*
X5394481Y-5554778D01*
X5400004Y-5541478D01*
X5405467Y-5554700D01*
X5418654Y-5567910D01*
X5414763Y-5569413D01*
X5412129Y-5571173D01*
X5410363Y-5583948D01*
X5450000Y-5623586D01*
X5450557Y-5623029D01*
X5451971Y-5624443D01*
X5451414Y-5625000D01*
X5491052Y-5664637D01*
X5503827Y-5662871D01*
X5514222Y-5639390D01*
X5514437Y-5630450D01*
X5589988Y-5706000D01*
X5559038Y-5706000D01*
X5546174Y-5711328D01*
X5536328Y-5721174D01*
X5531000Y-5734038D01*
X5531000Y-5747962D01*
X5531000Y-5765250D01*
X5539750Y-5774000D01*
X5599000Y-5774000D01*
X5599000Y-5773213D01*
X5601000Y-5773213D01*
X5601000Y-5774000D01*
X5601787Y-5774000D01*
X5601787Y-5776000D01*
G36*
X5658521Y-4250004D02*
X5645300Y-4255467D01*
X5630519Y-4270222D01*
X5630196Y-4271000D01*
X5625000Y-4271000D01*
X5613902Y-4273207D01*
X5604494Y-4279494D01*
X5462988Y-4421000D01*
X5423126Y-4421000D01*
X5427491Y-4410489D01*
X5427509Y-4389603D01*
X5419533Y-4370300D01*
X5404778Y-4355519D01*
X5391478Y-4349996D01*
X5404700Y-4344533D01*
X5419481Y-4329778D01*
X5427491Y-4310489D01*
X5427509Y-4289603D01*
X5419533Y-4270300D01*
X5404778Y-4255519D01*
X5397508Y-4252500D01*
X5407473Y-4252500D01*
X5416661Y-4248694D01*
X5420355Y-4245000D01*
X5646471Y-4245000D01*
X5658521Y-4250004D01*
X5658521Y-4250004D01*
G37*
X5658521Y-4250004D02*
X5645300Y-4255467D01*
X5630519Y-4270222D01*
X5630196Y-4271000D01*
X5625000Y-4271000D01*
X5613902Y-4273207D01*
X5604494Y-4279494D01*
X5462988Y-4421000D01*
X5423126Y-4421000D01*
X5427491Y-4410489D01*
X5427509Y-4389603D01*
X5419533Y-4370300D01*
X5404778Y-4355519D01*
X5391478Y-4349996D01*
X5404700Y-4344533D01*
X5419481Y-4329778D01*
X5427491Y-4310489D01*
X5427509Y-4289603D01*
X5419533Y-4270300D01*
X5404778Y-4255519D01*
X5397508Y-4252500D01*
X5407473Y-4252500D01*
X5416661Y-4248694D01*
X5420355Y-4245000D01*
X5646471Y-4245000D01*
X5658521Y-4250004D01*
G36*
X5658521Y-4550004D02*
X5645300Y-4555467D01*
X5630519Y-4570222D01*
X5630196Y-4571000D01*
X5537012Y-4571000D01*
X5495506Y-4529494D01*
X5486098Y-4523207D01*
X5475000Y-4521000D01*
X5423126Y-4521000D01*
X5427491Y-4510489D01*
X5427509Y-4489603D01*
X5423128Y-4479000D01*
X5475000Y-4479000D01*
X5486098Y-4476793D01*
X5495506Y-4470506D01*
X5633387Y-4332625D01*
X5645222Y-4344481D01*
X5658521Y-4350004D01*
X5645300Y-4355467D01*
X5630519Y-4370222D01*
X5622509Y-4389511D01*
X5622491Y-4410397D01*
X5630467Y-4429700D01*
X5645222Y-4444481D01*
X5658521Y-4450004D01*
X5645300Y-4455467D01*
X5630519Y-4470222D01*
X5622509Y-4489511D01*
X5622491Y-4510397D01*
X5630467Y-4529700D01*
X5645222Y-4544481D01*
X5658521Y-4550004D01*
X5658521Y-4550004D01*
G37*
X5658521Y-4550004D02*
X5645300Y-4555467D01*
X5630519Y-4570222D01*
X5630196Y-4571000D01*
X5537012Y-4571000D01*
X5495506Y-4529494D01*
X5486098Y-4523207D01*
X5475000Y-4521000D01*
X5423126Y-4521000D01*
X5427491Y-4510489D01*
X5427509Y-4489603D01*
X5423128Y-4479000D01*
X5475000Y-4479000D01*
X5486098Y-4476793D01*
X5495506Y-4470506D01*
X5633387Y-4332625D01*
X5645222Y-4344481D01*
X5658521Y-4350004D01*
X5645300Y-4355467D01*
X5630519Y-4370222D01*
X5622509Y-4389511D01*
X5622491Y-4410397D01*
X5630467Y-4429700D01*
X5645222Y-4444481D01*
X5658521Y-4450004D01*
X5645300Y-4455467D01*
X5630519Y-4470222D01*
X5622509Y-4489511D01*
X5622491Y-4510397D01*
X5630467Y-4529700D01*
X5645222Y-4544481D01*
X5658521Y-4550004D01*
G36*
X5746000Y-4177959D02*
X5744140Y-4178728D01*
X5728782Y-4194060D01*
X5727502Y-4197140D01*
X5727509Y-4189603D01*
X5719533Y-4170300D01*
X5704778Y-4155519D01*
X5685489Y-4147509D01*
X5664603Y-4147491D01*
X5646429Y-4155000D01*
X5614637Y-4155000D01*
X5614637Y-4066052D01*
X5575000Y-4026414D01*
X5573586Y-4027828D01*
X5573586Y-4025000D01*
X5533948Y-3985363D01*
X5521173Y-3987129D01*
X5519053Y-3991917D01*
X5505940Y-3978782D01*
X5485898Y-3970459D01*
X5464197Y-3970441D01*
X5444140Y-3978728D01*
X5428782Y-3994060D01*
X5420459Y-4014102D01*
X5420441Y-4035803D01*
X5428728Y-4055860D01*
X5444060Y-4071218D01*
X5464102Y-4079541D01*
X5485803Y-4079559D01*
X5505860Y-4071272D01*
X5518718Y-4058437D01*
X5519413Y-4060237D01*
X5521173Y-4062871D01*
X5533948Y-4064637D01*
X5573586Y-4025000D01*
X5573586Y-4027828D01*
X5535363Y-4066052D01*
X5537129Y-4078827D01*
X5560610Y-4089222D01*
X5586282Y-4089840D01*
X5610237Y-4080587D01*
X5612871Y-4078827D01*
X5614637Y-4066052D01*
X5614637Y-4155000D01*
X5420355Y-4155000D01*
X5416661Y-4151306D01*
X5407473Y-4147500D01*
X5397527Y-4147500D01*
X5342527Y-4147500D01*
X5333339Y-4151306D01*
X5326306Y-4158339D01*
X5322500Y-4167527D01*
X5322500Y-4177473D01*
X5322500Y-4232473D01*
X5326306Y-4241661D01*
X5333339Y-4248694D01*
X5342527Y-4252500D01*
X5352473Y-4252500D01*
X5352480Y-4252500D01*
X5345300Y-4255467D01*
X5330519Y-4270222D01*
X5322509Y-4289511D01*
X5322491Y-4310397D01*
X5330467Y-4329700D01*
X5345222Y-4344481D01*
X5358521Y-4350004D01*
X5345300Y-4355467D01*
X5330519Y-4370222D01*
X5322509Y-4389511D01*
X5322491Y-4410397D01*
X5326872Y-4421000D01*
X5256102Y-4421000D01*
X5249106Y-4413991D01*
X5233491Y-4407507D01*
X5216583Y-4407493D01*
X5200957Y-4413949D01*
X5188991Y-4425894D01*
X5188218Y-4427756D01*
X5181820Y-4418180D01*
X5163640Y-4400000D01*
X5261962Y-4400000D01*
X5274826Y-4394672D01*
X5284672Y-4384826D01*
X5290000Y-4371962D01*
X5290000Y-4358038D01*
X5290000Y-4184750D01*
X5281250Y-4176000D01*
X4946000Y-4176000D01*
X4946000Y-4176787D01*
X4944000Y-4176787D01*
X4944000Y-4176000D01*
X4608750Y-4176000D01*
X4600000Y-4184750D01*
X4600000Y-4261360D01*
X4581820Y-4243180D01*
X4567221Y-4233425D01*
X4550000Y-4230000D01*
X4548963Y-4230000D01*
X4559559Y-4222694D01*
X4574072Y-4200271D01*
X4577894Y-4186694D01*
X4570142Y-4176000D01*
X4476000Y-4176000D01*
X4476000Y-4176787D01*
X4474000Y-4176787D01*
X4474000Y-4176000D01*
X4473213Y-4176000D01*
X4473213Y-4174000D01*
X4474000Y-4174000D01*
X4474000Y-4173213D01*
X4476000Y-4173213D01*
X4476000Y-4174000D01*
X4570142Y-4174000D01*
X4577894Y-4163306D01*
X4574072Y-4149729D01*
X4559559Y-4127306D01*
X4548552Y-4119717D01*
X4553620Y-4116330D01*
X4566290Y-4097368D01*
X4570740Y-4075000D01*
X4566290Y-4052632D01*
X4553620Y-4033670D01*
X4534657Y-4020999D01*
X4512290Y-4016550D01*
X4437710Y-4016550D01*
X4415343Y-4020999D01*
X4411923Y-4023284D01*
X4406820Y-4018180D01*
X4392221Y-4008425D01*
X4375000Y-4005000D01*
X4357157Y-4005000D01*
X4355940Y-4003782D01*
X4335898Y-3995459D01*
X4314197Y-3995441D01*
X4294140Y-4003728D01*
X4278782Y-4019060D01*
X4270459Y-4039102D01*
X4270441Y-4060803D01*
X4278728Y-4080860D01*
X4291563Y-4093718D01*
X4289763Y-4094413D01*
X4287129Y-4096173D01*
X4286091Y-4103678D01*
X4266439Y-4051440D01*
X4260739Y-4042910D01*
X4238762Y-4030369D01*
X4237348Y-4031783D01*
X4237348Y-4028954D01*
X4224806Y-4006978D01*
X4169328Y-3981831D01*
X4108450Y-3979830D01*
X4051440Y-4001278D01*
X4042910Y-4006978D01*
X4030369Y-4028954D01*
X4133858Y-4132444D01*
X4237348Y-4028954D01*
X4237348Y-4031783D01*
X4135272Y-4133858D01*
X4238762Y-4237348D01*
X4260739Y-4224806D01*
X4277108Y-4188692D01*
X4283948Y-4189637D01*
X4323586Y-4150000D01*
X4323029Y-4149443D01*
X4324443Y-4148029D01*
X4325000Y-4148586D01*
X4325557Y-4148029D01*
X4326971Y-4149443D01*
X4326414Y-4150000D01*
X4366052Y-4189637D01*
X4372677Y-4188722D01*
X4375928Y-4200271D01*
X4390441Y-4222694D01*
X4401448Y-4230283D01*
X4396380Y-4233670D01*
X4384881Y-4250879D01*
X4380587Y-4239763D01*
X4378827Y-4237129D01*
X4366052Y-4235363D01*
X4364637Y-4236777D01*
X4364637Y-4233948D01*
X4362871Y-4221173D01*
X4342842Y-4212306D01*
X4360237Y-4205587D01*
X4362871Y-4203827D01*
X4364637Y-4191052D01*
X4325000Y-4151414D01*
X4285363Y-4191052D01*
X4287129Y-4203827D01*
X4307157Y-4212694D01*
X4289763Y-4219413D01*
X4287129Y-4221173D01*
X4285363Y-4233948D01*
X4325000Y-4273586D01*
X4364637Y-4233948D01*
X4364637Y-4236777D01*
X4326414Y-4275000D01*
X4366052Y-4314637D01*
X4378827Y-4312871D01*
X4384901Y-4299151D01*
X4396380Y-4316330D01*
X4415343Y-4329001D01*
X4437710Y-4333450D01*
X4512290Y-4333450D01*
X4530000Y-4329927D01*
X4530000Y-4413884D01*
X4528827Y-4412129D01*
X4516052Y-4410363D01*
X4514637Y-4411777D01*
X4514637Y-4408948D01*
X4512871Y-4396173D01*
X4489390Y-4385778D01*
X4463718Y-4385160D01*
X4439763Y-4394413D01*
X4437129Y-4396173D01*
X4435363Y-4408948D01*
X4475000Y-4448586D01*
X4514637Y-4408948D01*
X4514637Y-4411777D01*
X4476414Y-4450000D01*
X4516052Y-4489637D01*
X4528827Y-4487871D01*
X4530947Y-4483083D01*
X4544060Y-4496218D01*
X4557280Y-4501708D01*
X4514637Y-4544350D01*
X4514637Y-4491052D01*
X4475000Y-4451414D01*
X4473586Y-4452828D01*
X4473586Y-4450000D01*
X4433948Y-4410363D01*
X4421173Y-4412129D01*
X4410778Y-4435610D01*
X4410160Y-4461282D01*
X4419413Y-4485237D01*
X4421173Y-4487871D01*
X4433948Y-4489637D01*
X4473586Y-4450000D01*
X4473586Y-4452828D01*
X4435363Y-4491052D01*
X4437129Y-4503827D01*
X4460610Y-4514222D01*
X4486282Y-4514840D01*
X4510237Y-4505587D01*
X4512871Y-4503827D01*
X4514637Y-4491052D01*
X4514637Y-4544350D01*
X4512988Y-4546000D01*
X4452500Y-4546000D01*
X4452500Y-4542527D01*
X4448694Y-4533339D01*
X4441661Y-4526306D01*
X4432473Y-4522500D01*
X4422527Y-4522500D01*
X4379559Y-4522500D01*
X4379559Y-4364197D01*
X4371272Y-4344140D01*
X4358437Y-4331282D01*
X4360237Y-4330587D01*
X4362871Y-4328827D01*
X4364637Y-4316052D01*
X4325000Y-4276414D01*
X4323586Y-4277828D01*
X4323586Y-4275000D01*
X4283948Y-4235363D01*
X4271173Y-4237129D01*
X4260778Y-4260610D01*
X4260160Y-4286282D01*
X4269413Y-4310237D01*
X4271173Y-4312871D01*
X4283948Y-4314637D01*
X4323586Y-4275000D01*
X4323586Y-4277828D01*
X4285363Y-4316052D01*
X4287129Y-4328827D01*
X4289779Y-4330000D01*
X4275000Y-4330000D01*
X4257779Y-4333425D01*
X4243180Y-4343180D01*
X4206759Y-4379602D01*
X4205940Y-4378782D01*
X4196835Y-4375001D01*
X4205860Y-4371272D01*
X4221218Y-4355940D01*
X4229541Y-4335898D01*
X4229559Y-4314197D01*
X4221272Y-4294140D01*
X4205940Y-4278782D01*
X4195258Y-4274346D01*
X4216276Y-4266439D01*
X4224806Y-4260739D01*
X4237348Y-4238762D01*
X4133858Y-4135272D01*
X4132444Y-4136687D01*
X4132444Y-4133858D01*
X4028954Y-4030369D01*
X4006978Y-4042910D01*
X3981831Y-4098388D01*
X3979830Y-4159266D01*
X4001278Y-4216276D01*
X4006978Y-4224806D01*
X4028954Y-4237348D01*
X4132444Y-4133858D01*
X4132444Y-4136687D01*
X4030369Y-4238762D01*
X4042601Y-4260198D01*
X4025126Y-4263674D01*
X4004038Y-4277765D01*
X3989948Y-4298852D01*
X3985000Y-4323727D01*
X3985000Y-4326273D01*
X3989948Y-4351148D01*
X3992185Y-4354496D01*
X3990174Y-4355328D01*
X3980328Y-4365174D01*
X3975000Y-4378038D01*
X3975000Y-4415250D01*
X3983750Y-4424000D01*
X4049000Y-4424000D01*
X4049000Y-4423213D01*
X4051000Y-4423213D01*
X4051000Y-4424000D01*
X4051787Y-4424000D01*
X4051787Y-4426000D01*
X4051000Y-4426000D01*
X4051000Y-4491250D01*
X4059750Y-4500000D01*
X4083038Y-4500000D01*
X4096962Y-4500000D01*
X4109826Y-4494672D01*
X4119672Y-4484826D01*
X4125000Y-4471962D01*
X4125000Y-4446838D01*
X4128728Y-4455860D01*
X4144060Y-4471218D01*
X4164102Y-4479541D01*
X4185803Y-4479559D01*
X4205860Y-4471272D01*
X4207134Y-4470000D01*
X4225000Y-4470000D01*
X4242221Y-4466575D01*
X4256820Y-4456820D01*
X4293241Y-4420398D01*
X4294060Y-4421218D01*
X4314102Y-4429541D01*
X4335803Y-4429559D01*
X4355860Y-4421272D01*
X4371218Y-4405940D01*
X4379541Y-4385898D01*
X4379559Y-4364197D01*
X4379559Y-4522500D01*
X4367527Y-4522500D01*
X4358339Y-4526306D01*
X4351306Y-4533339D01*
X4347500Y-4542527D01*
X4347500Y-4552473D01*
X4347500Y-4607473D01*
X4348676Y-4610312D01*
X4279494Y-4679494D01*
X4273207Y-4688902D01*
X4271000Y-4700000D01*
X4271000Y-4787988D01*
X4259735Y-4799252D01*
X4255978Y-4789524D01*
X4255010Y-4788073D01*
X4255010Y-4714108D01*
X4246654Y-4693886D01*
X4231196Y-4678400D01*
X4210988Y-4670010D01*
X4189108Y-4669990D01*
X4168886Y-4678346D01*
X4167229Y-4680000D01*
X4150355Y-4680000D01*
X4144161Y-4673806D01*
X4134973Y-4670000D01*
X4125027Y-4670000D01*
X4065027Y-4670000D01*
X4055839Y-4673806D01*
X4049000Y-4680645D01*
X4049000Y-4491250D01*
X4049000Y-4426000D01*
X3983750Y-4426000D01*
X3975000Y-4434750D01*
X3975000Y-4471962D01*
X3980328Y-4484826D01*
X3990174Y-4494672D01*
X4003038Y-4500000D01*
X4016962Y-4500000D01*
X4040250Y-4500000D01*
X4049000Y-4491250D01*
X4049000Y-4680645D01*
X4048806Y-4680839D01*
X4045000Y-4690027D01*
X4045000Y-4699973D01*
X4045000Y-4759973D01*
X4048806Y-4769161D01*
X4055839Y-4776194D01*
X4060801Y-4778250D01*
X4060038Y-4783624D01*
X4100000Y-4823586D01*
X4139962Y-4783624D01*
X4139199Y-4778250D01*
X4144161Y-4776194D01*
X4150355Y-4770000D01*
X4163059Y-4770000D01*
X4161859Y-4770802D01*
X4160038Y-4783624D01*
X4200000Y-4823586D01*
X4239962Y-4783624D01*
X4238141Y-4770802D01*
X4233865Y-4768908D01*
X4246600Y-4756196D01*
X4254990Y-4735988D01*
X4255010Y-4714108D01*
X4255010Y-4788073D01*
X4254198Y-4786859D01*
X4241376Y-4785038D01*
X4201414Y-4825000D01*
X4201971Y-4825557D01*
X4200557Y-4826971D01*
X4200000Y-4826414D01*
X4199443Y-4826971D01*
X4198029Y-4825557D01*
X4198586Y-4825000D01*
X4158624Y-4785038D01*
X4150000Y-4786263D01*
X4141376Y-4785038D01*
X4101414Y-4825000D01*
X4101971Y-4825557D01*
X4100557Y-4826971D01*
X4100000Y-4826414D01*
X4098586Y-4827828D01*
X4098586Y-4825000D01*
X4058624Y-4785038D01*
X4045802Y-4786859D01*
X4035332Y-4810503D01*
X4034706Y-4836354D01*
X4044022Y-4860476D01*
X4045802Y-4863141D01*
X4058624Y-4864962D01*
X4098586Y-4825000D01*
X4098586Y-4827828D01*
X4060038Y-4866376D01*
X4061859Y-4879198D01*
X4066135Y-4881092D01*
X4053400Y-4893804D01*
X4045010Y-4914012D01*
X4044990Y-4935892D01*
X4053346Y-4956114D01*
X4068804Y-4971600D01*
X4076989Y-4974998D01*
X4068886Y-4978346D01*
X4053400Y-4993804D01*
X4045010Y-5014012D01*
X4044990Y-5035892D01*
X4053346Y-5056114D01*
X4068804Y-5071600D01*
X4076989Y-5074998D01*
X4068886Y-5078346D01*
X4053400Y-5093804D01*
X4045010Y-5114012D01*
X4044990Y-5135892D01*
X4053346Y-5156114D01*
X4055000Y-5157771D01*
X4055000Y-5231360D01*
X3968180Y-5318180D01*
X3963976Y-5324472D01*
X3963976Y-3963976D01*
X4606526Y-3963976D01*
X4605328Y-3965174D01*
X4600000Y-3978038D01*
X4600000Y-3991962D01*
X4600000Y-4165250D01*
X4608750Y-4174000D01*
X4944000Y-4174000D01*
X4944000Y-4173213D01*
X4946000Y-4173213D01*
X4946000Y-4174000D01*
X5281250Y-4174000D01*
X5290000Y-4165250D01*
X5290000Y-3991962D01*
X5290000Y-3978038D01*
X5284672Y-3965174D01*
X5283474Y-3963976D01*
X5553837Y-3963976D01*
X5539763Y-3969413D01*
X5537129Y-3971173D01*
X5535363Y-3983948D01*
X5575000Y-4023586D01*
X5614637Y-3983948D01*
X5612871Y-3971173D01*
X5596615Y-3963976D01*
X5676179Y-3963976D01*
X5660596Y-3970415D01*
X5642479Y-3988501D01*
X5636065Y-4003945D01*
X5630587Y-3989763D01*
X5628827Y-3987129D01*
X5616052Y-3985363D01*
X5576414Y-4025000D01*
X5616052Y-4064637D01*
X5628827Y-4062871D01*
X5636169Y-4046287D01*
X5642415Y-4061404D01*
X5660501Y-4079521D01*
X5684144Y-4089339D01*
X5709744Y-4089361D01*
X5717248Y-4086260D01*
X5746000Y-4115012D01*
X5746000Y-4177959D01*
X5746000Y-4177959D01*
G37*
X5746000Y-4177959D02*
X5744140Y-4178728D01*
X5728782Y-4194060D01*
X5727502Y-4197140D01*
X5727509Y-4189603D01*
X5719533Y-4170300D01*
X5704778Y-4155519D01*
X5685489Y-4147509D01*
X5664603Y-4147491D01*
X5646429Y-4155000D01*
X5614637Y-4155000D01*
X5614637Y-4066052D01*
X5575000Y-4026414D01*
X5573586Y-4027828D01*
X5573586Y-4025000D01*
X5533948Y-3985363D01*
X5521173Y-3987129D01*
X5519053Y-3991917D01*
X5505940Y-3978782D01*
X5485898Y-3970459D01*
X5464197Y-3970441D01*
X5444140Y-3978728D01*
X5428782Y-3994060D01*
X5420459Y-4014102D01*
X5420441Y-4035803D01*
X5428728Y-4055860D01*
X5444060Y-4071218D01*
X5464102Y-4079541D01*
X5485803Y-4079559D01*
X5505860Y-4071272D01*
X5518718Y-4058437D01*
X5519413Y-4060237D01*
X5521173Y-4062871D01*
X5533948Y-4064637D01*
X5573586Y-4025000D01*
X5573586Y-4027828D01*
X5535363Y-4066052D01*
X5537129Y-4078827D01*
X5560610Y-4089222D01*
X5586282Y-4089840D01*
X5610237Y-4080587D01*
X5612871Y-4078827D01*
X5614637Y-4066052D01*
X5614637Y-4155000D01*
X5420355Y-4155000D01*
X5416661Y-4151306D01*
X5407473Y-4147500D01*
X5397527Y-4147500D01*
X5342527Y-4147500D01*
X5333339Y-4151306D01*
X5326306Y-4158339D01*
X5322500Y-4167527D01*
X5322500Y-4177473D01*
X5322500Y-4232473D01*
X5326306Y-4241661D01*
X5333339Y-4248694D01*
X5342527Y-4252500D01*
X5352473Y-4252500D01*
X5352480Y-4252500D01*
X5345300Y-4255467D01*
X5330519Y-4270222D01*
X5322509Y-4289511D01*
X5322491Y-4310397D01*
X5330467Y-4329700D01*
X5345222Y-4344481D01*
X5358521Y-4350004D01*
X5345300Y-4355467D01*
X5330519Y-4370222D01*
X5322509Y-4389511D01*
X5322491Y-4410397D01*
X5326872Y-4421000D01*
X5256102Y-4421000D01*
X5249106Y-4413991D01*
X5233491Y-4407507D01*
X5216583Y-4407493D01*
X5200957Y-4413949D01*
X5188991Y-4425894D01*
X5188218Y-4427756D01*
X5181820Y-4418180D01*
X5163640Y-4400000D01*
X5261962Y-4400000D01*
X5274826Y-4394672D01*
X5284672Y-4384826D01*
X5290000Y-4371962D01*
X5290000Y-4358038D01*
X5290000Y-4184750D01*
X5281250Y-4176000D01*
X4946000Y-4176000D01*
X4946000Y-4176787D01*
X4944000Y-4176787D01*
X4944000Y-4176000D01*
X4608750Y-4176000D01*
X4600000Y-4184750D01*
X4600000Y-4261360D01*
X4581820Y-4243180D01*
X4567221Y-4233425D01*
X4550000Y-4230000D01*
X4548963Y-4230000D01*
X4559559Y-4222694D01*
X4574072Y-4200271D01*
X4577894Y-4186694D01*
X4570142Y-4176000D01*
X4476000Y-4176000D01*
X4476000Y-4176787D01*
X4474000Y-4176787D01*
X4474000Y-4176000D01*
X4473213Y-4176000D01*
X4473213Y-4174000D01*
X4474000Y-4174000D01*
X4474000Y-4173213D01*
X4476000Y-4173213D01*
X4476000Y-4174000D01*
X4570142Y-4174000D01*
X4577894Y-4163306D01*
X4574072Y-4149729D01*
X4559559Y-4127306D01*
X4548552Y-4119717D01*
X4553620Y-4116330D01*
X4566290Y-4097368D01*
X4570740Y-4075000D01*
X4566290Y-4052632D01*
X4553620Y-4033670D01*
X4534657Y-4020999D01*
X4512290Y-4016550D01*
X4437710Y-4016550D01*
X4415343Y-4020999D01*
X4411923Y-4023284D01*
X4406820Y-4018180D01*
X4392221Y-4008425D01*
X4375000Y-4005000D01*
X4357157Y-4005000D01*
X4355940Y-4003782D01*
X4335898Y-3995459D01*
X4314197Y-3995441D01*
X4294140Y-4003728D01*
X4278782Y-4019060D01*
X4270459Y-4039102D01*
X4270441Y-4060803D01*
X4278728Y-4080860D01*
X4291563Y-4093718D01*
X4289763Y-4094413D01*
X4287129Y-4096173D01*
X4286091Y-4103678D01*
X4266439Y-4051440D01*
X4260739Y-4042910D01*
X4238762Y-4030369D01*
X4237348Y-4031783D01*
X4237348Y-4028954D01*
X4224806Y-4006978D01*
X4169328Y-3981831D01*
X4108450Y-3979830D01*
X4051440Y-4001278D01*
X4042910Y-4006978D01*
X4030369Y-4028954D01*
X4133858Y-4132444D01*
X4237348Y-4028954D01*
X4237348Y-4031783D01*
X4135272Y-4133858D01*
X4238762Y-4237348D01*
X4260739Y-4224806D01*
X4277108Y-4188692D01*
X4283948Y-4189637D01*
X4323586Y-4150000D01*
X4323029Y-4149443D01*
X4324443Y-4148029D01*
X4325000Y-4148586D01*
X4325557Y-4148029D01*
X4326971Y-4149443D01*
X4326414Y-4150000D01*
X4366052Y-4189637D01*
X4372677Y-4188722D01*
X4375928Y-4200271D01*
X4390441Y-4222694D01*
X4401448Y-4230283D01*
X4396380Y-4233670D01*
X4384881Y-4250879D01*
X4380587Y-4239763D01*
X4378827Y-4237129D01*
X4366052Y-4235363D01*
X4364637Y-4236777D01*
X4364637Y-4233948D01*
X4362871Y-4221173D01*
X4342842Y-4212306D01*
X4360237Y-4205587D01*
X4362871Y-4203827D01*
X4364637Y-4191052D01*
X4325000Y-4151414D01*
X4285363Y-4191052D01*
X4287129Y-4203827D01*
X4307157Y-4212694D01*
X4289763Y-4219413D01*
X4287129Y-4221173D01*
X4285363Y-4233948D01*
X4325000Y-4273586D01*
X4364637Y-4233948D01*
X4364637Y-4236777D01*
X4326414Y-4275000D01*
X4366052Y-4314637D01*
X4378827Y-4312871D01*
X4384901Y-4299151D01*
X4396380Y-4316330D01*
X4415343Y-4329001D01*
X4437710Y-4333450D01*
X4512290Y-4333450D01*
X4530000Y-4329927D01*
X4530000Y-4413884D01*
X4528827Y-4412129D01*
X4516052Y-4410363D01*
X4514637Y-4411777D01*
X4514637Y-4408948D01*
X4512871Y-4396173D01*
X4489390Y-4385778D01*
X4463718Y-4385160D01*
X4439763Y-4394413D01*
X4437129Y-4396173D01*
X4435363Y-4408948D01*
X4475000Y-4448586D01*
X4514637Y-4408948D01*
X4514637Y-4411777D01*
X4476414Y-4450000D01*
X4516052Y-4489637D01*
X4528827Y-4487871D01*
X4530947Y-4483083D01*
X4544060Y-4496218D01*
X4557280Y-4501708D01*
X4514637Y-4544350D01*
X4514637Y-4491052D01*
X4475000Y-4451414D01*
X4473586Y-4452828D01*
X4473586Y-4450000D01*
X4433948Y-4410363D01*
X4421173Y-4412129D01*
X4410778Y-4435610D01*
X4410160Y-4461282D01*
X4419413Y-4485237D01*
X4421173Y-4487871D01*
X4433948Y-4489637D01*
X4473586Y-4450000D01*
X4473586Y-4452828D01*
X4435363Y-4491052D01*
X4437129Y-4503827D01*
X4460610Y-4514222D01*
X4486282Y-4514840D01*
X4510237Y-4505587D01*
X4512871Y-4503827D01*
X4514637Y-4491052D01*
X4514637Y-4544350D01*
X4512988Y-4546000D01*
X4452500Y-4546000D01*
X4452500Y-4542527D01*
X4448694Y-4533339D01*
X4441661Y-4526306D01*
X4432473Y-4522500D01*
X4422527Y-4522500D01*
X4379559Y-4522500D01*
X4379559Y-4364197D01*
X4371272Y-4344140D01*
X4358437Y-4331282D01*
X4360237Y-4330587D01*
X4362871Y-4328827D01*
X4364637Y-4316052D01*
X4325000Y-4276414D01*
X4323586Y-4277828D01*
X4323586Y-4275000D01*
X4283948Y-4235363D01*
X4271173Y-4237129D01*
X4260778Y-4260610D01*
X4260160Y-4286282D01*
X4269413Y-4310237D01*
X4271173Y-4312871D01*
X4283948Y-4314637D01*
X4323586Y-4275000D01*
X4323586Y-4277828D01*
X4285363Y-4316052D01*
X4287129Y-4328827D01*
X4289779Y-4330000D01*
X4275000Y-4330000D01*
X4257779Y-4333425D01*
X4243180Y-4343180D01*
X4206759Y-4379602D01*
X4205940Y-4378782D01*
X4196835Y-4375001D01*
X4205860Y-4371272D01*
X4221218Y-4355940D01*
X4229541Y-4335898D01*
X4229559Y-4314197D01*
X4221272Y-4294140D01*
X4205940Y-4278782D01*
X4195258Y-4274346D01*
X4216276Y-4266439D01*
X4224806Y-4260739D01*
X4237348Y-4238762D01*
X4133858Y-4135272D01*
X4132444Y-4136687D01*
X4132444Y-4133858D01*
X4028954Y-4030369D01*
X4006978Y-4042910D01*
X3981831Y-4098388D01*
X3979830Y-4159266D01*
X4001278Y-4216276D01*
X4006978Y-4224806D01*
X4028954Y-4237348D01*
X4132444Y-4133858D01*
X4132444Y-4136687D01*
X4030369Y-4238762D01*
X4042601Y-4260198D01*
X4025126Y-4263674D01*
X4004038Y-4277765D01*
X3989948Y-4298852D01*
X3985000Y-4323727D01*
X3985000Y-4326273D01*
X3989948Y-4351148D01*
X3992185Y-4354496D01*
X3990174Y-4355328D01*
X3980328Y-4365174D01*
X3975000Y-4378038D01*
X3975000Y-4415250D01*
X3983750Y-4424000D01*
X4049000Y-4424000D01*
X4049000Y-4423213D01*
X4051000Y-4423213D01*
X4051000Y-4424000D01*
X4051787Y-4424000D01*
X4051787Y-4426000D01*
X4051000Y-4426000D01*
X4051000Y-4491250D01*
X4059750Y-4500000D01*
X4083038Y-4500000D01*
X4096962Y-4500000D01*
X4109826Y-4494672D01*
X4119672Y-4484826D01*
X4125000Y-4471962D01*
X4125000Y-4446838D01*
X4128728Y-4455860D01*
X4144060Y-4471218D01*
X4164102Y-4479541D01*
X4185803Y-4479559D01*
X4205860Y-4471272D01*
X4207134Y-4470000D01*
X4225000Y-4470000D01*
X4242221Y-4466575D01*
X4256820Y-4456820D01*
X4293241Y-4420398D01*
X4294060Y-4421218D01*
X4314102Y-4429541D01*
X4335803Y-4429559D01*
X4355860Y-4421272D01*
X4371218Y-4405940D01*
X4379541Y-4385898D01*
X4379559Y-4364197D01*
X4379559Y-4522500D01*
X4367527Y-4522500D01*
X4358339Y-4526306D01*
X4351306Y-4533339D01*
X4347500Y-4542527D01*
X4347500Y-4552473D01*
X4347500Y-4607473D01*
X4348676Y-4610312D01*
X4279494Y-4679494D01*
X4273207Y-4688902D01*
X4271000Y-4700000D01*
X4271000Y-4787988D01*
X4259735Y-4799252D01*
X4255978Y-4789524D01*
X4255010Y-4788073D01*
X4255010Y-4714108D01*
X4246654Y-4693886D01*
X4231196Y-4678400D01*
X4210988Y-4670010D01*
X4189108Y-4669990D01*
X4168886Y-4678346D01*
X4167229Y-4680000D01*
X4150355Y-4680000D01*
X4144161Y-4673806D01*
X4134973Y-4670000D01*
X4125027Y-4670000D01*
X4065027Y-4670000D01*
X4055839Y-4673806D01*
X4049000Y-4680645D01*
X4049000Y-4491250D01*
X4049000Y-4426000D01*
X3983750Y-4426000D01*
X3975000Y-4434750D01*
X3975000Y-4471962D01*
X3980328Y-4484826D01*
X3990174Y-4494672D01*
X4003038Y-4500000D01*
X4016962Y-4500000D01*
X4040250Y-4500000D01*
X4049000Y-4491250D01*
X4049000Y-4680645D01*
X4048806Y-4680839D01*
X4045000Y-4690027D01*
X4045000Y-4699973D01*
X4045000Y-4759973D01*
X4048806Y-4769161D01*
X4055839Y-4776194D01*
X4060801Y-4778250D01*
X4060038Y-4783624D01*
X4100000Y-4823586D01*
X4139962Y-4783624D01*
X4139199Y-4778250D01*
X4144161Y-4776194D01*
X4150355Y-4770000D01*
X4163059Y-4770000D01*
X4161859Y-4770802D01*
X4160038Y-4783624D01*
X4200000Y-4823586D01*
X4239962Y-4783624D01*
X4238141Y-4770802D01*
X4233865Y-4768908D01*
X4246600Y-4756196D01*
X4254990Y-4735988D01*
X4255010Y-4714108D01*
X4255010Y-4788073D01*
X4254198Y-4786859D01*
X4241376Y-4785038D01*
X4201414Y-4825000D01*
X4201971Y-4825557D01*
X4200557Y-4826971D01*
X4200000Y-4826414D01*
X4199443Y-4826971D01*
X4198029Y-4825557D01*
X4198586Y-4825000D01*
X4158624Y-4785038D01*
X4150000Y-4786263D01*
X4141376Y-4785038D01*
X4101414Y-4825000D01*
X4101971Y-4825557D01*
X4100557Y-4826971D01*
X4100000Y-4826414D01*
X4098586Y-4827828D01*
X4098586Y-4825000D01*
X4058624Y-4785038D01*
X4045802Y-4786859D01*
X4035332Y-4810503D01*
X4034706Y-4836354D01*
X4044022Y-4860476D01*
X4045802Y-4863141D01*
X4058624Y-4864962D01*
X4098586Y-4825000D01*
X4098586Y-4827828D01*
X4060038Y-4866376D01*
X4061859Y-4879198D01*
X4066135Y-4881092D01*
X4053400Y-4893804D01*
X4045010Y-4914012D01*
X4044990Y-4935892D01*
X4053346Y-4956114D01*
X4068804Y-4971600D01*
X4076989Y-4974998D01*
X4068886Y-4978346D01*
X4053400Y-4993804D01*
X4045010Y-5014012D01*
X4044990Y-5035892D01*
X4053346Y-5056114D01*
X4068804Y-5071600D01*
X4076989Y-5074998D01*
X4068886Y-5078346D01*
X4053400Y-5093804D01*
X4045010Y-5114012D01*
X4044990Y-5135892D01*
X4053346Y-5156114D01*
X4055000Y-5157771D01*
X4055000Y-5231360D01*
X3968180Y-5318180D01*
X3963976Y-5324472D01*
X3963976Y-3963976D01*
X4606526Y-3963976D01*
X4605328Y-3965174D01*
X4600000Y-3978038D01*
X4600000Y-3991962D01*
X4600000Y-4165250D01*
X4608750Y-4174000D01*
X4944000Y-4174000D01*
X4944000Y-4173213D01*
X4946000Y-4173213D01*
X4946000Y-4174000D01*
X5281250Y-4174000D01*
X5290000Y-4165250D01*
X5290000Y-3991962D01*
X5290000Y-3978038D01*
X5284672Y-3965174D01*
X5283474Y-3963976D01*
X5553837Y-3963976D01*
X5539763Y-3969413D01*
X5537129Y-3971173D01*
X5535363Y-3983948D01*
X5575000Y-4023586D01*
X5614637Y-3983948D01*
X5612871Y-3971173D01*
X5596615Y-3963976D01*
X5676179Y-3963976D01*
X5660596Y-3970415D01*
X5642479Y-3988501D01*
X5636065Y-4003945D01*
X5630587Y-3989763D01*
X5628827Y-3987129D01*
X5616052Y-3985363D01*
X5576414Y-4025000D01*
X5616052Y-4064637D01*
X5628827Y-4062871D01*
X5636169Y-4046287D01*
X5642415Y-4061404D01*
X5660501Y-4079521D01*
X5684144Y-4089339D01*
X5709744Y-4089361D01*
X5717248Y-4086260D01*
X5746000Y-4115012D01*
X5746000Y-4177959D01*
G36*
X5783521Y-5050004D02*
X5770300Y-5055467D01*
X5755519Y-5070222D01*
X5747509Y-5089511D01*
X5747491Y-5110397D01*
X5755467Y-5129700D01*
X5770222Y-5144481D01*
X5773880Y-5146000D01*
X5686469Y-5146000D01*
X5692875Y-5141719D01*
X5705665Y-5122578D01*
X5710156Y-5100000D01*
X5705665Y-5077422D01*
X5692875Y-5058281D01*
X5689380Y-5055945D01*
X5706404Y-5039744D01*
X5717320Y-5015134D01*
X5717987Y-5011781D01*
X5717987Y-4988219D01*
X5717320Y-4984866D01*
X5706404Y-4960256D01*
X5686901Y-4941696D01*
X5661781Y-4932013D01*
X5651000Y-4939757D01*
X5651000Y-4999000D01*
X5710242Y-4999000D01*
X5717987Y-4988219D01*
X5717987Y-5011781D01*
X5710242Y-5001000D01*
X5651000Y-5001000D01*
X5651000Y-5001787D01*
X5649000Y-5001787D01*
X5649000Y-5001000D01*
X5648213Y-5001000D01*
X5648213Y-4999000D01*
X5649000Y-4999000D01*
X5649000Y-4939757D01*
X5638219Y-4932013D01*
X5625473Y-4936927D01*
X5620506Y-4929494D01*
X5570506Y-4879494D01*
X5561098Y-4873207D01*
X5550000Y-4871000D01*
X5437776Y-4871000D01*
X5437776Y-4789045D01*
X5428805Y-4765855D01*
X5427136Y-4763357D01*
X5414573Y-4761841D01*
X5376414Y-4800000D01*
X5414573Y-4838159D01*
X5427136Y-4836643D01*
X5437190Y-4813902D01*
X5437776Y-4789045D01*
X5437776Y-4871000D01*
X5413159Y-4871000D01*
X5413159Y-4839573D01*
X5375000Y-4801414D01*
X5336841Y-4839573D01*
X5338357Y-4852136D01*
X5361098Y-4862190D01*
X5385955Y-4862776D01*
X5409145Y-4853805D01*
X5411643Y-4852136D01*
X5413159Y-4839573D01*
X5413159Y-4871000D01*
X5315000Y-4871000D01*
X5315000Y-4818130D01*
X5321195Y-4834145D01*
X5322864Y-4836643D01*
X5335427Y-4838159D01*
X5373586Y-4800000D01*
X5335427Y-4761841D01*
X5322864Y-4763357D01*
X5312810Y-4786098D01*
X5312506Y-4799006D01*
X5311194Y-4795839D01*
X5304161Y-4788806D01*
X5294973Y-4785000D01*
X5285027Y-4785000D01*
X5205027Y-4785000D01*
X5195839Y-4788806D01*
X5188806Y-4795839D01*
X5187973Y-4797849D01*
X5176148Y-4789948D01*
X5151273Y-4785000D01*
X5148727Y-4785000D01*
X5123852Y-4789948D01*
X5102765Y-4804038D01*
X5102122Y-4805000D01*
X5035355Y-4805000D01*
X5036194Y-4804161D01*
X5040000Y-4794973D01*
X5040000Y-4785027D01*
X5040000Y-4705027D01*
X5038105Y-4700452D01*
X5045506Y-4695506D01*
X5087012Y-4654000D01*
X5102822Y-4654000D01*
X5102765Y-4654038D01*
X5088674Y-4675126D01*
X5083727Y-4700000D01*
X5088674Y-4724874D01*
X5102765Y-4745962D01*
X5123852Y-4760052D01*
X5148727Y-4765000D01*
X5151273Y-4765000D01*
X5176148Y-4760052D01*
X5187973Y-4752151D01*
X5188806Y-4754161D01*
X5195839Y-4761194D01*
X5205027Y-4765000D01*
X5214973Y-4765000D01*
X5294973Y-4765000D01*
X5304161Y-4761194D01*
X5311194Y-4754161D01*
X5315000Y-4744973D01*
X5315000Y-4735027D01*
X5315000Y-4679000D01*
X5326874Y-4679000D01*
X5322509Y-4689511D01*
X5322491Y-4710397D01*
X5330467Y-4729700D01*
X5345222Y-4744481D01*
X5345253Y-4744494D01*
X5340855Y-4746195D01*
X5338357Y-4747864D01*
X5336841Y-4760427D01*
X5375000Y-4798586D01*
X5413159Y-4760427D01*
X5411643Y-4747864D01*
X5404394Y-4744660D01*
X5404700Y-4744533D01*
X5419481Y-4729778D01*
X5427491Y-4710489D01*
X5427509Y-4689603D01*
X5423128Y-4679000D01*
X5468898Y-4679000D01*
X5475894Y-4686009D01*
X5491509Y-4692493D01*
X5508417Y-4692507D01*
X5524043Y-4686051D01*
X5524991Y-4685104D01*
X5525894Y-4686009D01*
X5541509Y-4692493D01*
X5558417Y-4692507D01*
X5574043Y-4686051D01*
X5581106Y-4679000D01*
X5626874Y-4679000D01*
X5622509Y-4689511D01*
X5622491Y-4710397D01*
X5626872Y-4721000D01*
X5581102Y-4721000D01*
X5574106Y-4713991D01*
X5558491Y-4707507D01*
X5541583Y-4707493D01*
X5525957Y-4713949D01*
X5513991Y-4725894D01*
X5507507Y-4741509D01*
X5507493Y-4758417D01*
X5513949Y-4774043D01*
X5525894Y-4786009D01*
X5541509Y-4792493D01*
X5558417Y-4792507D01*
X5574043Y-4786051D01*
X5581106Y-4779000D01*
X5626874Y-4779000D01*
X5622509Y-4789511D01*
X5622491Y-4810397D01*
X5630467Y-4829700D01*
X5645222Y-4844481D01*
X5664511Y-4852491D01*
X5685397Y-4852509D01*
X5704700Y-4844533D01*
X5719481Y-4829778D01*
X5727491Y-4810489D01*
X5727509Y-4789603D01*
X5723128Y-4779000D01*
X5737988Y-4779000D01*
X5747800Y-4788812D01*
X5747509Y-4789511D01*
X5747491Y-4810397D01*
X5755467Y-4829700D01*
X5770222Y-4844481D01*
X5783521Y-4850004D01*
X5770300Y-4855467D01*
X5755519Y-4870222D01*
X5747509Y-4889511D01*
X5747491Y-4910397D01*
X5755467Y-4929700D01*
X5770222Y-4944481D01*
X5783521Y-4950004D01*
X5770300Y-4955467D01*
X5755519Y-4970222D01*
X5747509Y-4989511D01*
X5747491Y-5010397D01*
X5755467Y-5029700D01*
X5770222Y-5044481D01*
X5783521Y-5050004D01*
X5783521Y-5050004D01*
G37*
X5783521Y-5050004D02*
X5770300Y-5055467D01*
X5755519Y-5070222D01*
X5747509Y-5089511D01*
X5747491Y-5110397D01*
X5755467Y-5129700D01*
X5770222Y-5144481D01*
X5773880Y-5146000D01*
X5686469Y-5146000D01*
X5692875Y-5141719D01*
X5705665Y-5122578D01*
X5710156Y-5100000D01*
X5705665Y-5077422D01*
X5692875Y-5058281D01*
X5689380Y-5055945D01*
X5706404Y-5039744D01*
X5717320Y-5015134D01*
X5717987Y-5011781D01*
X5717987Y-4988219D01*
X5717320Y-4984866D01*
X5706404Y-4960256D01*
X5686901Y-4941696D01*
X5661781Y-4932013D01*
X5651000Y-4939757D01*
X5651000Y-4999000D01*
X5710242Y-4999000D01*
X5717987Y-4988219D01*
X5717987Y-5011781D01*
X5710242Y-5001000D01*
X5651000Y-5001000D01*
X5651000Y-5001787D01*
X5649000Y-5001787D01*
X5649000Y-5001000D01*
X5648213Y-5001000D01*
X5648213Y-4999000D01*
X5649000Y-4999000D01*
X5649000Y-4939757D01*
X5638219Y-4932013D01*
X5625473Y-4936927D01*
X5620506Y-4929494D01*
X5570506Y-4879494D01*
X5561098Y-4873207D01*
X5550000Y-4871000D01*
X5437776Y-4871000D01*
X5437776Y-4789045D01*
X5428805Y-4765855D01*
X5427136Y-4763357D01*
X5414573Y-4761841D01*
X5376414Y-4800000D01*
X5414573Y-4838159D01*
X5427136Y-4836643D01*
X5437190Y-4813902D01*
X5437776Y-4789045D01*
X5437776Y-4871000D01*
X5413159Y-4871000D01*
X5413159Y-4839573D01*
X5375000Y-4801414D01*
X5336841Y-4839573D01*
X5338357Y-4852136D01*
X5361098Y-4862190D01*
X5385955Y-4862776D01*
X5409145Y-4853805D01*
X5411643Y-4852136D01*
X5413159Y-4839573D01*
X5413159Y-4871000D01*
X5315000Y-4871000D01*
X5315000Y-4818130D01*
X5321195Y-4834145D01*
X5322864Y-4836643D01*
X5335427Y-4838159D01*
X5373586Y-4800000D01*
X5335427Y-4761841D01*
X5322864Y-4763357D01*
X5312810Y-4786098D01*
X5312506Y-4799006D01*
X5311194Y-4795839D01*
X5304161Y-4788806D01*
X5294973Y-4785000D01*
X5285027Y-4785000D01*
X5205027Y-4785000D01*
X5195839Y-4788806D01*
X5188806Y-4795839D01*
X5187973Y-4797849D01*
X5176148Y-4789948D01*
X5151273Y-4785000D01*
X5148727Y-4785000D01*
X5123852Y-4789948D01*
X5102765Y-4804038D01*
X5102122Y-4805000D01*
X5035355Y-4805000D01*
X5036194Y-4804161D01*
X5040000Y-4794973D01*
X5040000Y-4785027D01*
X5040000Y-4705027D01*
X5038105Y-4700452D01*
X5045506Y-4695506D01*
X5087012Y-4654000D01*
X5102822Y-4654000D01*
X5102765Y-4654038D01*
X5088674Y-4675126D01*
X5083727Y-4700000D01*
X5088674Y-4724874D01*
X5102765Y-4745962D01*
X5123852Y-4760052D01*
X5148727Y-4765000D01*
X5151273Y-4765000D01*
X5176148Y-4760052D01*
X5187973Y-4752151D01*
X5188806Y-4754161D01*
X5195839Y-4761194D01*
X5205027Y-4765000D01*
X5214973Y-4765000D01*
X5294973Y-4765000D01*
X5304161Y-4761194D01*
X5311194Y-4754161D01*
X5315000Y-4744973D01*
X5315000Y-4735027D01*
X5315000Y-4679000D01*
X5326874Y-4679000D01*
X5322509Y-4689511D01*
X5322491Y-4710397D01*
X5330467Y-4729700D01*
X5345222Y-4744481D01*
X5345253Y-4744494D01*
X5340855Y-4746195D01*
X5338357Y-4747864D01*
X5336841Y-4760427D01*
X5375000Y-4798586D01*
X5413159Y-4760427D01*
X5411643Y-4747864D01*
X5404394Y-4744660D01*
X5404700Y-4744533D01*
X5419481Y-4729778D01*
X5427491Y-4710489D01*
X5427509Y-4689603D01*
X5423128Y-4679000D01*
X5468898Y-4679000D01*
X5475894Y-4686009D01*
X5491509Y-4692493D01*
X5508417Y-4692507D01*
X5524043Y-4686051D01*
X5524991Y-4685104D01*
X5525894Y-4686009D01*
X5541509Y-4692493D01*
X5558417Y-4692507D01*
X5574043Y-4686051D01*
X5581106Y-4679000D01*
X5626874Y-4679000D01*
X5622509Y-4689511D01*
X5622491Y-4710397D01*
X5626872Y-4721000D01*
X5581102Y-4721000D01*
X5574106Y-4713991D01*
X5558491Y-4707507D01*
X5541583Y-4707493D01*
X5525957Y-4713949D01*
X5513991Y-4725894D01*
X5507507Y-4741509D01*
X5507493Y-4758417D01*
X5513949Y-4774043D01*
X5525894Y-4786009D01*
X5541509Y-4792493D01*
X5558417Y-4792507D01*
X5574043Y-4786051D01*
X5581106Y-4779000D01*
X5626874Y-4779000D01*
X5622509Y-4789511D01*
X5622491Y-4810397D01*
X5630467Y-4829700D01*
X5645222Y-4844481D01*
X5664511Y-4852491D01*
X5685397Y-4852509D01*
X5704700Y-4844533D01*
X5719481Y-4829778D01*
X5727491Y-4810489D01*
X5727509Y-4789603D01*
X5723128Y-4779000D01*
X5737988Y-4779000D01*
X5747800Y-4788812D01*
X5747509Y-4789511D01*
X5747491Y-4810397D01*
X5755467Y-4829700D01*
X5770222Y-4844481D01*
X5783521Y-4850004D01*
X5770300Y-4855467D01*
X5755519Y-4870222D01*
X5747509Y-4889511D01*
X5747491Y-4910397D01*
X5755467Y-4929700D01*
X5770222Y-4944481D01*
X5783521Y-4950004D01*
X5770300Y-4955467D01*
X5755519Y-4970222D01*
X5747509Y-4989511D01*
X5747491Y-5010397D01*
X5755467Y-5029700D01*
X5770222Y-5044481D01*
X5783521Y-5050004D01*
G36*
X5805000Y-5716765D02*
X5801156Y-5716000D01*
X5798844Y-5716000D01*
X5776266Y-5720491D01*
X5757125Y-5733281D01*
X5750000Y-5743944D01*
X5742875Y-5733281D01*
X5723734Y-5720491D01*
X5701156Y-5716000D01*
X5698844Y-5716000D01*
X5684805Y-5718793D01*
X5543507Y-5577494D01*
X5560397Y-5577509D01*
X5579700Y-5569533D01*
X5594481Y-5554778D01*
X5600004Y-5541478D01*
X5605467Y-5554700D01*
X5620222Y-5569481D01*
X5639511Y-5577491D01*
X5660397Y-5577509D01*
X5679700Y-5569533D01*
X5694481Y-5554778D01*
X5700004Y-5541478D01*
X5705467Y-5554700D01*
X5720222Y-5569481D01*
X5739511Y-5577491D01*
X5760397Y-5577509D01*
X5779700Y-5569533D01*
X5794481Y-5554778D01*
X5801398Y-5538121D01*
X5805000Y-5541723D01*
X5805000Y-5716765D01*
X5805000Y-5716765D01*
G37*
X5805000Y-5716765D02*
X5801156Y-5716000D01*
X5798844Y-5716000D01*
X5776266Y-5720491D01*
X5757125Y-5733281D01*
X5750000Y-5743944D01*
X5742875Y-5733281D01*
X5723734Y-5720491D01*
X5701156Y-5716000D01*
X5698844Y-5716000D01*
X5684805Y-5718793D01*
X5543507Y-5577494D01*
X5560397Y-5577509D01*
X5579700Y-5569533D01*
X5594481Y-5554778D01*
X5600004Y-5541478D01*
X5605467Y-5554700D01*
X5620222Y-5569481D01*
X5639511Y-5577491D01*
X5660397Y-5577509D01*
X5679700Y-5569533D01*
X5694481Y-5554778D01*
X5700004Y-5541478D01*
X5705467Y-5554700D01*
X5720222Y-5569481D01*
X5739511Y-5577491D01*
X5760397Y-5577509D01*
X5779700Y-5569533D01*
X5794481Y-5554778D01*
X5801398Y-5538121D01*
X5805000Y-5541723D01*
X5805000Y-5716765D01*
G36*
X6004988Y-5254000D02*
X5962988Y-5296000D01*
X5837012Y-5296000D01*
X5795506Y-5254494D01*
X5794796Y-5254020D01*
X5800139Y-5241152D01*
X5804494Y-5245506D01*
X5813902Y-5251793D01*
X5825000Y-5254000D01*
X6004988Y-5254000D01*
X6004988Y-5254000D01*
G37*
X6004988Y-5254000D02*
X5962988Y-5296000D01*
X5837012Y-5296000D01*
X5795506Y-5254494D01*
X5794796Y-5254020D01*
X5800139Y-5241152D01*
X5804494Y-5245506D01*
X5813902Y-5251793D01*
X5825000Y-5254000D01*
X6004988Y-5254000D01*
G36*
X6126971Y-5550557D02*
X6125557Y-5551971D01*
X6125000Y-5551414D01*
X6124443Y-5551971D01*
X6123029Y-5550557D01*
X6123586Y-5550000D01*
X6123029Y-5549443D01*
X6124443Y-5548029D01*
X6125000Y-5548586D01*
X6125557Y-5548029D01*
X6126971Y-5549443D01*
X6126414Y-5550000D01*
X6126971Y-5550557D01*
X6126971Y-5550557D01*
G37*
X6126971Y-5550557D02*
X6125557Y-5551971D01*
X6125000Y-5551414D01*
X6124443Y-5551971D01*
X6123029Y-5550557D01*
X6123586Y-5550000D01*
X6123029Y-5549443D01*
X6124443Y-5548029D01*
X6125000Y-5548586D01*
X6125557Y-5548029D01*
X6126971Y-5549443D01*
X6126414Y-5550000D01*
X6126971Y-5550557D01*
G36*
X6247656Y-4161331D02*
X6213101Y-4195887D01*
X6210988Y-4195010D01*
X6190140Y-4194991D01*
X6190294Y-4188646D01*
X6180978Y-4164524D01*
X6179198Y-4161859D01*
X6166376Y-4160038D01*
X6126414Y-4200000D01*
X6126971Y-4200557D01*
X6125557Y-4201971D01*
X6125000Y-4201414D01*
X6085038Y-4241376D01*
X6086859Y-4254198D01*
X6091135Y-4256092D01*
X6078400Y-4268804D01*
X6070010Y-4289012D01*
X6069990Y-4310892D01*
X6074230Y-4321153D01*
X6063902Y-4323207D01*
X6054494Y-4329494D01*
X6054000Y-4329988D01*
X6054000Y-4206102D01*
X6059978Y-4200135D01*
X6059706Y-4211354D01*
X6069022Y-4235476D01*
X6070802Y-4238141D01*
X6083624Y-4239962D01*
X6123586Y-4200000D01*
X6083624Y-4160038D01*
X6070802Y-4161859D01*
X6067505Y-4169304D01*
X6067507Y-4166583D01*
X6061051Y-4150957D01*
X6049106Y-4138991D01*
X6033491Y-4132507D01*
X6027350Y-4132502D01*
X6027350Y-4071312D01*
X6027350Y-4057388D01*
X6027350Y-4034750D01*
X6018600Y-4026000D01*
X5954000Y-4026000D01*
X5954000Y-4090600D01*
X5962750Y-4099350D01*
X5999312Y-4099350D01*
X6012176Y-4094022D01*
X6022022Y-4084176D01*
X6027350Y-4071312D01*
X6027350Y-4132502D01*
X6016583Y-4132493D01*
X6000957Y-4138949D01*
X5988991Y-4150894D01*
X5982507Y-4166509D01*
X5982493Y-4183417D01*
X5988949Y-4199043D01*
X5996000Y-4206106D01*
X5996000Y-4600000D01*
X5998207Y-4611098D01*
X6004494Y-4620506D01*
X6054494Y-4670506D01*
X6055204Y-4670980D01*
X6047509Y-4689511D01*
X6047491Y-4710397D01*
X6055467Y-4729700D01*
X6070222Y-4744481D01*
X6083521Y-4750004D01*
X6070300Y-4755467D01*
X6055519Y-4770222D01*
X6047509Y-4789511D01*
X6047491Y-4810397D01*
X6055467Y-4829700D01*
X6070222Y-4844481D01*
X6083521Y-4850004D01*
X6070300Y-4855467D01*
X6055519Y-4870222D01*
X6047509Y-4889511D01*
X6047491Y-4910397D01*
X6055467Y-4929700D01*
X6070222Y-4944481D01*
X6083521Y-4950004D01*
X6070300Y-4955467D01*
X6055519Y-4970222D01*
X6047509Y-4989511D01*
X6047491Y-5010397D01*
X6055467Y-5029700D01*
X6070222Y-5044481D01*
X6083521Y-5050004D01*
X6070300Y-5055467D01*
X6055519Y-5070222D01*
X6047509Y-5089511D01*
X6047491Y-5110397D01*
X6055467Y-5129700D01*
X6070222Y-5144481D01*
X6070359Y-5144538D01*
X6067375Y-5147517D01*
X6063902Y-5148207D01*
X6054494Y-5154494D01*
X6012988Y-5196000D01*
X5952000Y-5196000D01*
X5952000Y-4090600D01*
X5952000Y-4026000D01*
X5887400Y-4026000D01*
X5878650Y-4034750D01*
X5878650Y-4057388D01*
X5878650Y-4071312D01*
X5883978Y-4084176D01*
X5893824Y-4094022D01*
X5906688Y-4099350D01*
X5943250Y-4099350D01*
X5952000Y-4090600D01*
X5952000Y-5196000D01*
X5837012Y-5196000D01*
X5795506Y-5154494D01*
X5792512Y-5152493D01*
X5810397Y-5152509D01*
X5829700Y-5144533D01*
X5844481Y-5129778D01*
X5852491Y-5110489D01*
X5852509Y-5089603D01*
X5844533Y-5070300D01*
X5829778Y-5055519D01*
X5816478Y-5049996D01*
X5829700Y-5044533D01*
X5844481Y-5029778D01*
X5852491Y-5010489D01*
X5852509Y-4989603D01*
X5844533Y-4970300D01*
X5829778Y-4955519D01*
X5816478Y-4949996D01*
X5829700Y-4944533D01*
X5844481Y-4929778D01*
X5852491Y-4910489D01*
X5852509Y-4889603D01*
X5844533Y-4870300D01*
X5829778Y-4855519D01*
X5816478Y-4849996D01*
X5829700Y-4844533D01*
X5844481Y-4829778D01*
X5852491Y-4810489D01*
X5852509Y-4789603D01*
X5844533Y-4770300D01*
X5829778Y-4755519D01*
X5816478Y-4749996D01*
X5829700Y-4744533D01*
X5844481Y-4729778D01*
X5852491Y-4710489D01*
X5852509Y-4689603D01*
X5844533Y-4670300D01*
X5829778Y-4655519D01*
X5816478Y-4649996D01*
X5829700Y-4644533D01*
X5844481Y-4629778D01*
X5852491Y-4610489D01*
X5852509Y-4589603D01*
X5844533Y-4570300D01*
X5829778Y-4555519D01*
X5816478Y-4549996D01*
X5829700Y-4544533D01*
X5844481Y-4529778D01*
X5852491Y-4510489D01*
X5852509Y-4489603D01*
X5848128Y-4479000D01*
X5850000Y-4479000D01*
X5861098Y-4476793D01*
X5870506Y-4470506D01*
X5873513Y-4467499D01*
X5883417Y-4467507D01*
X5899043Y-4461051D01*
X5911009Y-4449106D01*
X5917493Y-4433491D01*
X5917507Y-4416583D01*
X5911051Y-4400957D01*
X5899106Y-4388991D01*
X5883491Y-4382507D01*
X5866583Y-4382493D01*
X5852500Y-4388312D01*
X5852500Y-4367527D01*
X5848694Y-4358339D01*
X5841661Y-4351306D01*
X5832473Y-4347500D01*
X5822527Y-4347500D01*
X5767527Y-4347500D01*
X5758339Y-4351306D01*
X5751306Y-4358339D01*
X5747500Y-4367527D01*
X5747500Y-4377473D01*
X5747500Y-4421000D01*
X5725000Y-4421000D01*
X5722957Y-4421406D01*
X5727491Y-4410489D01*
X5727509Y-4389603D01*
X5719533Y-4370300D01*
X5704778Y-4355519D01*
X5691478Y-4349996D01*
X5704700Y-4344533D01*
X5719481Y-4329778D01*
X5727491Y-4310489D01*
X5727509Y-4289603D01*
X5719533Y-4270300D01*
X5704778Y-4255519D01*
X5691478Y-4249996D01*
X5704700Y-4244533D01*
X5719481Y-4229778D01*
X5720448Y-4227450D01*
X5720441Y-4235803D01*
X5728728Y-4255860D01*
X5744060Y-4271218D01*
X5764102Y-4279541D01*
X5785803Y-4279559D01*
X5805860Y-4271272D01*
X5821218Y-4255940D01*
X5824999Y-4246835D01*
X5828728Y-4255860D01*
X5844060Y-4271218D01*
X5864102Y-4279541D01*
X5885803Y-4279559D01*
X5905860Y-4271272D01*
X5921218Y-4255940D01*
X5929541Y-4235898D01*
X5929559Y-4214197D01*
X5921272Y-4194140D01*
X5905940Y-4178782D01*
X5885898Y-4170459D01*
X5864197Y-4170441D01*
X5844140Y-4178728D01*
X5828782Y-4194060D01*
X5825001Y-4203165D01*
X5821272Y-4194140D01*
X5805940Y-4178782D01*
X5804000Y-4177976D01*
X5804000Y-4103000D01*
X5801793Y-4091902D01*
X5795506Y-4082494D01*
X5758267Y-4045255D01*
X5761339Y-4037856D01*
X5761361Y-4012256D01*
X5751585Y-3988596D01*
X5733499Y-3970479D01*
X5717840Y-3963976D01*
X5885826Y-3963976D01*
X5883978Y-3965824D01*
X5878650Y-3978688D01*
X5878650Y-3992612D01*
X5878650Y-4015250D01*
X5887400Y-4024000D01*
X5952000Y-4024000D01*
X5952000Y-4023213D01*
X5954000Y-4023213D01*
X5954000Y-4024000D01*
X6018600Y-4024000D01*
X6027350Y-4015250D01*
X6027350Y-3992612D01*
X6027350Y-3978688D01*
X6022022Y-3965824D01*
X6020174Y-3963976D01*
X6069864Y-3963976D01*
X6060332Y-3985503D01*
X6059706Y-4011354D01*
X6069022Y-4035476D01*
X6070802Y-4038141D01*
X6083624Y-4039962D01*
X6123586Y-4000000D01*
X6123029Y-3999443D01*
X6124443Y-3998029D01*
X6125000Y-3998586D01*
X6125557Y-3998029D01*
X6126971Y-3999443D01*
X6126414Y-4000000D01*
X6126971Y-4000557D01*
X6125557Y-4001971D01*
X6125000Y-4001414D01*
X6085038Y-4041376D01*
X6086859Y-4054198D01*
X6091135Y-4056092D01*
X6078400Y-4068804D01*
X6070010Y-4089012D01*
X6069990Y-4110892D01*
X6078346Y-4131114D01*
X6090756Y-4143546D01*
X6089524Y-4144022D01*
X6086859Y-4145802D01*
X6085038Y-4158624D01*
X6125000Y-4198586D01*
X6164962Y-4158624D01*
X6163141Y-4145802D01*
X6158865Y-4143908D01*
X6171600Y-4131196D01*
X6179990Y-4110988D01*
X6179999Y-4101248D01*
X6189012Y-4104990D01*
X6210892Y-4105010D01*
X6217126Y-4102434D01*
X6225000Y-4104000D01*
X6240949Y-4104000D01*
X6237810Y-4111098D01*
X6237224Y-4135955D01*
X6246195Y-4159145D01*
X6247656Y-4161331D01*
X6247656Y-4161331D01*
G37*
X6247656Y-4161331D02*
X6213101Y-4195887D01*
X6210988Y-4195010D01*
X6190140Y-4194991D01*
X6190294Y-4188646D01*
X6180978Y-4164524D01*
X6179198Y-4161859D01*
X6166376Y-4160038D01*
X6126414Y-4200000D01*
X6126971Y-4200557D01*
X6125557Y-4201971D01*
X6125000Y-4201414D01*
X6085038Y-4241376D01*
X6086859Y-4254198D01*
X6091135Y-4256092D01*
X6078400Y-4268804D01*
X6070010Y-4289012D01*
X6069990Y-4310892D01*
X6074230Y-4321153D01*
X6063902Y-4323207D01*
X6054494Y-4329494D01*
X6054000Y-4329988D01*
X6054000Y-4206102D01*
X6059978Y-4200135D01*
X6059706Y-4211354D01*
X6069022Y-4235476D01*
X6070802Y-4238141D01*
X6083624Y-4239962D01*
X6123586Y-4200000D01*
X6083624Y-4160038D01*
X6070802Y-4161859D01*
X6067505Y-4169304D01*
X6067507Y-4166583D01*
X6061051Y-4150957D01*
X6049106Y-4138991D01*
X6033491Y-4132507D01*
X6027350Y-4132502D01*
X6027350Y-4071312D01*
X6027350Y-4057388D01*
X6027350Y-4034750D01*
X6018600Y-4026000D01*
X5954000Y-4026000D01*
X5954000Y-4090600D01*
X5962750Y-4099350D01*
X5999312Y-4099350D01*
X6012176Y-4094022D01*
X6022022Y-4084176D01*
X6027350Y-4071312D01*
X6027350Y-4132502D01*
X6016583Y-4132493D01*
X6000957Y-4138949D01*
X5988991Y-4150894D01*
X5982507Y-4166509D01*
X5982493Y-4183417D01*
X5988949Y-4199043D01*
X5996000Y-4206106D01*
X5996000Y-4600000D01*
X5998207Y-4611098D01*
X6004494Y-4620506D01*
X6054494Y-4670506D01*
X6055204Y-4670980D01*
X6047509Y-4689511D01*
X6047491Y-4710397D01*
X6055467Y-4729700D01*
X6070222Y-4744481D01*
X6083521Y-4750004D01*
X6070300Y-4755467D01*
X6055519Y-4770222D01*
X6047509Y-4789511D01*
X6047491Y-4810397D01*
X6055467Y-4829700D01*
X6070222Y-4844481D01*
X6083521Y-4850004D01*
X6070300Y-4855467D01*
X6055519Y-4870222D01*
X6047509Y-4889511D01*
X6047491Y-4910397D01*
X6055467Y-4929700D01*
X6070222Y-4944481D01*
X6083521Y-4950004D01*
X6070300Y-4955467D01*
X6055519Y-4970222D01*
X6047509Y-4989511D01*
X6047491Y-5010397D01*
X6055467Y-5029700D01*
X6070222Y-5044481D01*
X6083521Y-5050004D01*
X6070300Y-5055467D01*
X6055519Y-5070222D01*
X6047509Y-5089511D01*
X6047491Y-5110397D01*
X6055467Y-5129700D01*
X6070222Y-5144481D01*
X6070359Y-5144538D01*
X6067375Y-5147517D01*
X6063902Y-5148207D01*
X6054494Y-5154494D01*
X6012988Y-5196000D01*
X5952000Y-5196000D01*
X5952000Y-4090600D01*
X5952000Y-4026000D01*
X5887400Y-4026000D01*
X5878650Y-4034750D01*
X5878650Y-4057388D01*
X5878650Y-4071312D01*
X5883978Y-4084176D01*
X5893824Y-4094022D01*
X5906688Y-4099350D01*
X5943250Y-4099350D01*
X5952000Y-4090600D01*
X5952000Y-5196000D01*
X5837012Y-5196000D01*
X5795506Y-5154494D01*
X5792512Y-5152493D01*
X5810397Y-5152509D01*
X5829700Y-5144533D01*
X5844481Y-5129778D01*
X5852491Y-5110489D01*
X5852509Y-5089603D01*
X5844533Y-5070300D01*
X5829778Y-5055519D01*
X5816478Y-5049996D01*
X5829700Y-5044533D01*
X5844481Y-5029778D01*
X5852491Y-5010489D01*
X5852509Y-4989603D01*
X5844533Y-4970300D01*
X5829778Y-4955519D01*
X5816478Y-4949996D01*
X5829700Y-4944533D01*
X5844481Y-4929778D01*
X5852491Y-4910489D01*
X5852509Y-4889603D01*
X5844533Y-4870300D01*
X5829778Y-4855519D01*
X5816478Y-4849996D01*
X5829700Y-4844533D01*
X5844481Y-4829778D01*
X5852491Y-4810489D01*
X5852509Y-4789603D01*
X5844533Y-4770300D01*
X5829778Y-4755519D01*
X5816478Y-4749996D01*
X5829700Y-4744533D01*
X5844481Y-4729778D01*
X5852491Y-4710489D01*
X5852509Y-4689603D01*
X5844533Y-4670300D01*
X5829778Y-4655519D01*
X5816478Y-4649996D01*
X5829700Y-4644533D01*
X5844481Y-4629778D01*
X5852491Y-4610489D01*
X5852509Y-4589603D01*
X5844533Y-4570300D01*
X5829778Y-4555519D01*
X5816478Y-4549996D01*
X5829700Y-4544533D01*
X5844481Y-4529778D01*
X5852491Y-4510489D01*
X5852509Y-4489603D01*
X5848128Y-4479000D01*
X5850000Y-4479000D01*
X5861098Y-4476793D01*
X5870506Y-4470506D01*
X5873513Y-4467499D01*
X5883417Y-4467507D01*
X5899043Y-4461051D01*
X5911009Y-4449106D01*
X5917493Y-4433491D01*
X5917507Y-4416583D01*
X5911051Y-4400957D01*
X5899106Y-4388991D01*
X5883491Y-4382507D01*
X5866583Y-4382493D01*
X5852500Y-4388312D01*
X5852500Y-4367527D01*
X5848694Y-4358339D01*
X5841661Y-4351306D01*
X5832473Y-4347500D01*
X5822527Y-4347500D01*
X5767527Y-4347500D01*
X5758339Y-4351306D01*
X5751306Y-4358339D01*
X5747500Y-4367527D01*
X5747500Y-4377473D01*
X5747500Y-4421000D01*
X5725000Y-4421000D01*
X5722957Y-4421406D01*
X5727491Y-4410489D01*
X5727509Y-4389603D01*
X5719533Y-4370300D01*
X5704778Y-4355519D01*
X5691478Y-4349996D01*
X5704700Y-4344533D01*
X5719481Y-4329778D01*
X5727491Y-4310489D01*
X5727509Y-4289603D01*
X5719533Y-4270300D01*
X5704778Y-4255519D01*
X5691478Y-4249996D01*
X5704700Y-4244533D01*
X5719481Y-4229778D01*
X5720448Y-4227450D01*
X5720441Y-4235803D01*
X5728728Y-4255860D01*
X5744060Y-4271218D01*
X5764102Y-4279541D01*
X5785803Y-4279559D01*
X5805860Y-4271272D01*
X5821218Y-4255940D01*
X5824999Y-4246835D01*
X5828728Y-4255860D01*
X5844060Y-4271218D01*
X5864102Y-4279541D01*
X5885803Y-4279559D01*
X5905860Y-4271272D01*
X5921218Y-4255940D01*
X5929541Y-4235898D01*
X5929559Y-4214197D01*
X5921272Y-4194140D01*
X5905940Y-4178782D01*
X5885898Y-4170459D01*
X5864197Y-4170441D01*
X5844140Y-4178728D01*
X5828782Y-4194060D01*
X5825001Y-4203165D01*
X5821272Y-4194140D01*
X5805940Y-4178782D01*
X5804000Y-4177976D01*
X5804000Y-4103000D01*
X5801793Y-4091902D01*
X5795506Y-4082494D01*
X5758267Y-4045255D01*
X5761339Y-4037856D01*
X5761361Y-4012256D01*
X5751585Y-3988596D01*
X5733499Y-3970479D01*
X5717840Y-3963976D01*
X5885826Y-3963976D01*
X5883978Y-3965824D01*
X5878650Y-3978688D01*
X5878650Y-3992612D01*
X5878650Y-4015250D01*
X5887400Y-4024000D01*
X5952000Y-4024000D01*
X5952000Y-4023213D01*
X5954000Y-4023213D01*
X5954000Y-4024000D01*
X6018600Y-4024000D01*
X6027350Y-4015250D01*
X6027350Y-3992612D01*
X6027350Y-3978688D01*
X6022022Y-3965824D01*
X6020174Y-3963976D01*
X6069864Y-3963976D01*
X6060332Y-3985503D01*
X6059706Y-4011354D01*
X6069022Y-4035476D01*
X6070802Y-4038141D01*
X6083624Y-4039962D01*
X6123586Y-4000000D01*
X6123029Y-3999443D01*
X6124443Y-3998029D01*
X6125000Y-3998586D01*
X6125557Y-3998029D01*
X6126971Y-3999443D01*
X6126414Y-4000000D01*
X6126971Y-4000557D01*
X6125557Y-4001971D01*
X6125000Y-4001414D01*
X6085038Y-4041376D01*
X6086859Y-4054198D01*
X6091135Y-4056092D01*
X6078400Y-4068804D01*
X6070010Y-4089012D01*
X6069990Y-4110892D01*
X6078346Y-4131114D01*
X6090756Y-4143546D01*
X6089524Y-4144022D01*
X6086859Y-4145802D01*
X6085038Y-4158624D01*
X6125000Y-4198586D01*
X6164962Y-4158624D01*
X6163141Y-4145802D01*
X6158865Y-4143908D01*
X6171600Y-4131196D01*
X6179990Y-4110988D01*
X6179999Y-4101248D01*
X6189012Y-4104990D01*
X6210892Y-4105010D01*
X6217126Y-4102434D01*
X6225000Y-4104000D01*
X6240949Y-4104000D01*
X6237810Y-4111098D01*
X6237224Y-4135955D01*
X6246195Y-4159145D01*
X6247656Y-4161331D01*
G36*
X6301971Y-4125557D02*
X6300557Y-4126971D01*
X6300000Y-4126414D01*
X6299443Y-4126971D01*
X6298029Y-4125557D01*
X6298586Y-4125000D01*
X6298029Y-4124443D01*
X6299443Y-4123029D01*
X6300000Y-4123586D01*
X6300557Y-4123029D01*
X6301971Y-4124443D01*
X6301414Y-4125000D01*
X6301971Y-4125557D01*
X6301971Y-4125557D01*
G37*
X6301971Y-4125557D02*
X6300557Y-4126971D01*
X6300000Y-4126414D01*
X6299443Y-4126971D01*
X6298029Y-4125557D01*
X6298586Y-4125000D01*
X6298029Y-4124443D01*
X6299443Y-4123029D01*
X6300000Y-4123586D01*
X6300557Y-4123029D01*
X6301971Y-4124443D01*
X6301414Y-4125000D01*
X6301971Y-4125557D01*
G36*
X6301971Y-5075557D02*
X6300557Y-5076971D01*
X6300000Y-5076414D01*
X6299443Y-5076971D01*
X6298029Y-5075557D01*
X6298586Y-5075000D01*
X6298029Y-5074443D01*
X6299443Y-5073029D01*
X6300000Y-5073586D01*
X6300557Y-5073029D01*
X6301971Y-5074443D01*
X6301414Y-5075000D01*
X6301971Y-5075557D01*
X6301971Y-5075557D01*
G37*
X6301971Y-5075557D02*
X6300557Y-5076971D01*
X6300000Y-5076414D01*
X6299443Y-5076971D01*
X6298029Y-5075557D01*
X6298586Y-5075000D01*
X6298029Y-5074443D01*
X6299443Y-5073029D01*
X6300000Y-5073586D01*
X6300557Y-5073029D01*
X6301971Y-5074443D01*
X6301414Y-5075000D01*
X6301971Y-5075557D01*
G36*
X6420000Y-4337286D02*
X6408491Y-4332507D01*
X6391583Y-4332493D01*
X6375957Y-4338949D01*
X6363991Y-4350894D01*
X6362776Y-4353821D01*
X6362776Y-4314045D01*
X6353805Y-4290855D01*
X6352136Y-4288357D01*
X6339573Y-4286841D01*
X6301414Y-4325000D01*
X6339573Y-4363159D01*
X6352136Y-4361643D01*
X6362190Y-4338902D01*
X6362776Y-4314045D01*
X6362776Y-4353821D01*
X6357507Y-4366509D01*
X6357503Y-4371000D01*
X6337383Y-4371000D01*
X6338159Y-4364573D01*
X6300000Y-4326414D01*
X6261841Y-4364573D01*
X6262617Y-4371000D01*
X6250000Y-4371000D01*
X6238902Y-4373207D01*
X6229494Y-4379494D01*
X6141613Y-4467375D01*
X6129778Y-4455519D01*
X6116478Y-4449996D01*
X6129700Y-4444533D01*
X6144481Y-4429778D01*
X6152491Y-4410489D01*
X6152509Y-4389603D01*
X6148128Y-4379000D01*
X6175000Y-4379000D01*
X6186098Y-4376793D01*
X6195506Y-4370506D01*
X6237397Y-4328615D01*
X6237224Y-4335955D01*
X6246195Y-4359145D01*
X6247864Y-4361643D01*
X6260427Y-4363159D01*
X6298586Y-4325000D01*
X6298029Y-4324443D01*
X6299443Y-4323029D01*
X6300000Y-4323586D01*
X6338159Y-4285427D01*
X6336643Y-4272864D01*
X6329394Y-4269660D01*
X6329700Y-4269533D01*
X6344481Y-4254778D01*
X6352491Y-4235489D01*
X6352509Y-4214603D01*
X6348128Y-4204000D01*
X6400000Y-4204000D01*
X6411098Y-4201793D01*
X6420000Y-4195844D01*
X6420000Y-4337286D01*
X6420000Y-4337286D01*
G37*
X6420000Y-4337286D02*
X6408491Y-4332507D01*
X6391583Y-4332493D01*
X6375957Y-4338949D01*
X6363991Y-4350894D01*
X6362776Y-4353821D01*
X6362776Y-4314045D01*
X6353805Y-4290855D01*
X6352136Y-4288357D01*
X6339573Y-4286841D01*
X6301414Y-4325000D01*
X6339573Y-4363159D01*
X6352136Y-4361643D01*
X6362190Y-4338902D01*
X6362776Y-4314045D01*
X6362776Y-4353821D01*
X6357507Y-4366509D01*
X6357503Y-4371000D01*
X6337383Y-4371000D01*
X6338159Y-4364573D01*
X6300000Y-4326414D01*
X6261841Y-4364573D01*
X6262617Y-4371000D01*
X6250000Y-4371000D01*
X6238902Y-4373207D01*
X6229494Y-4379494D01*
X6141613Y-4467375D01*
X6129778Y-4455519D01*
X6116478Y-4449996D01*
X6129700Y-4444533D01*
X6144481Y-4429778D01*
X6152491Y-4410489D01*
X6152509Y-4389603D01*
X6148128Y-4379000D01*
X6175000Y-4379000D01*
X6186098Y-4376793D01*
X6195506Y-4370506D01*
X6237397Y-4328615D01*
X6237224Y-4335955D01*
X6246195Y-4359145D01*
X6247864Y-4361643D01*
X6260427Y-4363159D01*
X6298586Y-4325000D01*
X6298029Y-4324443D01*
X6299443Y-4323029D01*
X6300000Y-4323586D01*
X6338159Y-4285427D01*
X6336643Y-4272864D01*
X6329394Y-4269660D01*
X6329700Y-4269533D01*
X6344481Y-4254778D01*
X6352491Y-4235489D01*
X6352509Y-4214603D01*
X6348128Y-4204000D01*
X6400000Y-4204000D01*
X6411098Y-4201793D01*
X6420000Y-4195844D01*
X6420000Y-4337286D01*
G36*
X6420000Y-5346000D02*
X6362776Y-5346000D01*
X6362776Y-5264045D01*
X6353805Y-5240855D01*
X6352136Y-5238357D01*
X6339573Y-5236841D01*
X6301414Y-5275000D01*
X6339573Y-5313159D01*
X6352136Y-5311643D01*
X6362190Y-5288902D01*
X6362776Y-5264045D01*
X6362776Y-5346000D01*
X6338159Y-5346000D01*
X6338159Y-5314573D01*
X6300000Y-5276414D01*
X6298586Y-5277828D01*
X6298586Y-5275000D01*
X6260427Y-5236841D01*
X6247864Y-5238357D01*
X6237810Y-5261098D01*
X6237224Y-5285955D01*
X6246195Y-5309145D01*
X6247864Y-5311643D01*
X6260427Y-5313159D01*
X6298586Y-5275000D01*
X6298586Y-5277828D01*
X6261841Y-5314573D01*
X6263357Y-5327136D01*
X6286098Y-5337190D01*
X6310955Y-5337776D01*
X6334145Y-5328805D01*
X6336643Y-5327136D01*
X6338159Y-5314573D01*
X6338159Y-5346000D01*
X6275000Y-5346000D01*
X6247528Y-5346000D01*
X6246654Y-5343886D01*
X6231196Y-5328400D01*
X6210988Y-5320010D01*
X6190140Y-5319991D01*
X6190294Y-5313646D01*
X6180978Y-5289524D01*
X6179198Y-5286859D01*
X6166376Y-5285038D01*
X6126414Y-5325000D01*
X6126971Y-5325557D01*
X6125557Y-5326971D01*
X6125000Y-5326414D01*
X6124443Y-5326971D01*
X6123029Y-5325557D01*
X6123586Y-5325000D01*
X6123029Y-5324443D01*
X6124443Y-5323029D01*
X6125000Y-5323586D01*
X6164962Y-5283624D01*
X6163141Y-5270802D01*
X6139497Y-5260332D01*
X6130889Y-5260123D01*
X6170506Y-5220506D01*
X6176793Y-5211098D01*
X6176793Y-5211098D01*
X6179000Y-5200000D01*
X6179000Y-5150000D01*
X6177806Y-5144000D01*
X6190250Y-5144000D01*
X6199000Y-5135250D01*
X6199000Y-5076000D01*
X6198213Y-5076000D01*
X6198213Y-5074000D01*
X6199000Y-5074000D01*
X6199000Y-5073213D01*
X6201000Y-5073213D01*
X6201000Y-5074000D01*
X6201787Y-5074000D01*
X6201787Y-5076000D01*
X6201000Y-5076000D01*
X6201000Y-5135250D01*
X6209750Y-5144000D01*
X6227038Y-5144000D01*
X6240962Y-5144000D01*
X6253826Y-5138672D01*
X6263672Y-5128826D01*
X6264215Y-5127515D01*
X6270606Y-5130340D01*
X6270300Y-5130467D01*
X6255519Y-5145222D01*
X6247509Y-5164511D01*
X6247491Y-5185397D01*
X6255467Y-5204700D01*
X6270222Y-5219481D01*
X6270253Y-5219494D01*
X6265855Y-5221195D01*
X6263357Y-5222864D01*
X6261841Y-5235427D01*
X6300000Y-5273586D01*
X6338159Y-5235427D01*
X6336643Y-5222864D01*
X6329394Y-5219660D01*
X6329700Y-5219533D01*
X6344481Y-5204778D01*
X6352491Y-5185489D01*
X6352509Y-5164603D01*
X6352188Y-5163825D01*
X6370506Y-5145506D01*
X6376793Y-5136098D01*
X6379000Y-5125000D01*
X6379000Y-5050000D01*
X6376793Y-5038902D01*
X6376793Y-5038902D01*
X6370506Y-5029494D01*
X6362776Y-5021764D01*
X6362776Y-4789045D01*
X6362776Y-4589045D01*
X6353805Y-4565855D01*
X6352136Y-4563357D01*
X6339573Y-4561841D01*
X6301414Y-4600000D01*
X6339573Y-4638159D01*
X6352136Y-4636643D01*
X6362190Y-4613902D01*
X6362776Y-4589045D01*
X6362776Y-4789045D01*
X6353805Y-4765855D01*
X6352136Y-4763357D01*
X6339573Y-4761841D01*
X6301414Y-4800000D01*
X6339573Y-4838159D01*
X6352136Y-4836643D01*
X6362190Y-4813902D01*
X6362776Y-4789045D01*
X6362776Y-5021764D01*
X6351324Y-5010312D01*
X6352500Y-5007473D01*
X6352500Y-4997527D01*
X6352500Y-4942527D01*
X6348694Y-4933339D01*
X6341661Y-4926306D01*
X6338159Y-4924855D01*
X6338159Y-4839573D01*
X6300000Y-4801414D01*
X6261841Y-4839573D01*
X6263357Y-4852136D01*
X6286098Y-4862190D01*
X6310955Y-4862776D01*
X6334145Y-4853805D01*
X6336643Y-4852136D01*
X6338159Y-4839573D01*
X6338159Y-4924855D01*
X6332473Y-4922500D01*
X6322527Y-4922500D01*
X6288512Y-4922500D01*
X6270506Y-4904494D01*
X6261098Y-4898207D01*
X6254770Y-4896949D01*
X6258990Y-4886787D01*
X6259010Y-4863316D01*
X6250047Y-4841623D01*
X6249718Y-4841294D01*
X6253669Y-4837343D01*
X6260427Y-4838159D01*
X6298586Y-4800000D01*
X6298029Y-4799443D01*
X6299443Y-4798029D01*
X6300000Y-4798586D01*
X6338159Y-4760427D01*
X6336643Y-4747864D01*
X6329394Y-4744660D01*
X6329700Y-4744533D01*
X6344481Y-4729778D01*
X6352491Y-4710489D01*
X6352509Y-4689603D01*
X6344533Y-4670300D01*
X6329778Y-4655519D01*
X6329747Y-4655506D01*
X6334145Y-4653805D01*
X6336643Y-4652136D01*
X6338159Y-4639573D01*
X6300000Y-4601414D01*
X6299443Y-4601971D01*
X6298029Y-4600557D01*
X6298586Y-4600000D01*
X6298029Y-4599443D01*
X6299443Y-4598029D01*
X6300000Y-4598586D01*
X6338159Y-4560427D01*
X6336977Y-4550634D01*
X6341661Y-4548694D01*
X6348694Y-4541661D01*
X6352500Y-4532473D01*
X6352500Y-4522527D01*
X6352500Y-4467527D01*
X6348694Y-4458339D01*
X6344355Y-4454000D01*
X6420000Y-4454000D01*
X6420000Y-5346000D01*
X6420000Y-5346000D01*
G37*
X6420000Y-5346000D02*
X6362776Y-5346000D01*
X6362776Y-5264045D01*
X6353805Y-5240855D01*
X6352136Y-5238357D01*
X6339573Y-5236841D01*
X6301414Y-5275000D01*
X6339573Y-5313159D01*
X6352136Y-5311643D01*
X6362190Y-5288902D01*
X6362776Y-5264045D01*
X6362776Y-5346000D01*
X6338159Y-5346000D01*
X6338159Y-5314573D01*
X6300000Y-5276414D01*
X6298586Y-5277828D01*
X6298586Y-5275000D01*
X6260427Y-5236841D01*
X6247864Y-5238357D01*
X6237810Y-5261098D01*
X6237224Y-5285955D01*
X6246195Y-5309145D01*
X6247864Y-5311643D01*
X6260427Y-5313159D01*
X6298586Y-5275000D01*
X6298586Y-5277828D01*
X6261841Y-5314573D01*
X6263357Y-5327136D01*
X6286098Y-5337190D01*
X6310955Y-5337776D01*
X6334145Y-5328805D01*
X6336643Y-5327136D01*
X6338159Y-5314573D01*
X6338159Y-5346000D01*
X6275000Y-5346000D01*
X6247528Y-5346000D01*
X6246654Y-5343886D01*
X6231196Y-5328400D01*
X6210988Y-5320010D01*
X6190140Y-5319991D01*
X6190294Y-5313646D01*
X6180978Y-5289524D01*
X6179198Y-5286859D01*
X6166376Y-5285038D01*
X6126414Y-5325000D01*
X6126971Y-5325557D01*
X6125557Y-5326971D01*
X6125000Y-5326414D01*
X6124443Y-5326971D01*
X6123029Y-5325557D01*
X6123586Y-5325000D01*
X6123029Y-5324443D01*
X6124443Y-5323029D01*
X6125000Y-5323586D01*
X6164962Y-5283624D01*
X6163141Y-5270802D01*
X6139497Y-5260332D01*
X6130889Y-5260123D01*
X6170506Y-5220506D01*
X6176793Y-5211098D01*
X6176793Y-5211098D01*
X6179000Y-5200000D01*
X6179000Y-5150000D01*
X6177806Y-5144000D01*
X6190250Y-5144000D01*
X6199000Y-5135250D01*
X6199000Y-5076000D01*
X6198213Y-5076000D01*
X6198213Y-5074000D01*
X6199000Y-5074000D01*
X6199000Y-5073213D01*
X6201000Y-5073213D01*
X6201000Y-5074000D01*
X6201787Y-5074000D01*
X6201787Y-5076000D01*
X6201000Y-5076000D01*
X6201000Y-5135250D01*
X6209750Y-5144000D01*
X6227038Y-5144000D01*
X6240962Y-5144000D01*
X6253826Y-5138672D01*
X6263672Y-5128826D01*
X6264215Y-5127515D01*
X6270606Y-5130340D01*
X6270300Y-5130467D01*
X6255519Y-5145222D01*
X6247509Y-5164511D01*
X6247491Y-5185397D01*
X6255467Y-5204700D01*
X6270222Y-5219481D01*
X6270253Y-5219494D01*
X6265855Y-5221195D01*
X6263357Y-5222864D01*
X6261841Y-5235427D01*
X6300000Y-5273586D01*
X6338159Y-5235427D01*
X6336643Y-5222864D01*
X6329394Y-5219660D01*
X6329700Y-5219533D01*
X6344481Y-5204778D01*
X6352491Y-5185489D01*
X6352509Y-5164603D01*
X6352188Y-5163825D01*
X6370506Y-5145506D01*
X6376793Y-5136098D01*
X6379000Y-5125000D01*
X6379000Y-5050000D01*
X6376793Y-5038902D01*
X6376793Y-5038902D01*
X6370506Y-5029494D01*
X6362776Y-5021764D01*
X6362776Y-4789045D01*
X6362776Y-4589045D01*
X6353805Y-4565855D01*
X6352136Y-4563357D01*
X6339573Y-4561841D01*
X6301414Y-4600000D01*
X6339573Y-4638159D01*
X6352136Y-4636643D01*
X6362190Y-4613902D01*
X6362776Y-4589045D01*
X6362776Y-4789045D01*
X6353805Y-4765855D01*
X6352136Y-4763357D01*
X6339573Y-4761841D01*
X6301414Y-4800000D01*
X6339573Y-4838159D01*
X6352136Y-4836643D01*
X6362190Y-4813902D01*
X6362776Y-4789045D01*
X6362776Y-5021764D01*
X6351324Y-5010312D01*
X6352500Y-5007473D01*
X6352500Y-4997527D01*
X6352500Y-4942527D01*
X6348694Y-4933339D01*
X6341661Y-4926306D01*
X6338159Y-4924855D01*
X6338159Y-4839573D01*
X6300000Y-4801414D01*
X6261841Y-4839573D01*
X6263357Y-4852136D01*
X6286098Y-4862190D01*
X6310955Y-4862776D01*
X6334145Y-4853805D01*
X6336643Y-4852136D01*
X6338159Y-4839573D01*
X6338159Y-4924855D01*
X6332473Y-4922500D01*
X6322527Y-4922500D01*
X6288512Y-4922500D01*
X6270506Y-4904494D01*
X6261098Y-4898207D01*
X6254770Y-4896949D01*
X6258990Y-4886787D01*
X6259010Y-4863316D01*
X6250047Y-4841623D01*
X6249718Y-4841294D01*
X6253669Y-4837343D01*
X6260427Y-4838159D01*
X6298586Y-4800000D01*
X6298029Y-4799443D01*
X6299443Y-4798029D01*
X6300000Y-4798586D01*
X6338159Y-4760427D01*
X6336643Y-4747864D01*
X6329394Y-4744660D01*
X6329700Y-4744533D01*
X6344481Y-4729778D01*
X6352491Y-4710489D01*
X6352509Y-4689603D01*
X6344533Y-4670300D01*
X6329778Y-4655519D01*
X6329747Y-4655506D01*
X6334145Y-4653805D01*
X6336643Y-4652136D01*
X6338159Y-4639573D01*
X6300000Y-4601414D01*
X6299443Y-4601971D01*
X6298029Y-4600557D01*
X6298586Y-4600000D01*
X6298029Y-4599443D01*
X6299443Y-4598029D01*
X6300000Y-4598586D01*
X6338159Y-4560427D01*
X6336977Y-4550634D01*
X6341661Y-4548694D01*
X6348694Y-4541661D01*
X6352500Y-4532473D01*
X6352500Y-4522527D01*
X6352500Y-4467527D01*
X6348694Y-4458339D01*
X6344355Y-4454000D01*
X6420000Y-4454000D01*
X6420000Y-5346000D01*
G36*
X6420000Y-5830000D02*
X6015294Y-5830000D01*
X6015294Y-5638646D01*
X6005978Y-5614524D01*
X6004198Y-5611859D01*
X5991376Y-5610038D01*
X5951414Y-5650000D01*
X5991376Y-5689962D01*
X6004198Y-5688141D01*
X6014668Y-5664497D01*
X6015294Y-5638646D01*
X6015294Y-5830000D01*
X5978005Y-5830000D01*
X5979000Y-5825000D01*
X5979000Y-5750000D01*
X5976793Y-5738902D01*
X5970506Y-5729494D01*
X5956181Y-5715168D01*
X5961354Y-5715294D01*
X5985476Y-5705978D01*
X5988141Y-5704198D01*
X5989962Y-5691376D01*
X5950000Y-5651414D01*
X5949443Y-5651971D01*
X5948029Y-5650557D01*
X5948586Y-5650000D01*
X5948029Y-5649443D01*
X5949443Y-5648029D01*
X5950000Y-5648586D01*
X5989962Y-5608624D01*
X5988141Y-5595802D01*
X5983865Y-5593908D01*
X5996600Y-5581196D01*
X6004990Y-5560988D01*
X6005010Y-5539108D01*
X5996654Y-5518886D01*
X5981451Y-5503656D01*
X5986009Y-5499106D01*
X5992493Y-5483491D01*
X5992507Y-5466583D01*
X5991508Y-5464164D01*
X5999043Y-5461051D01*
X6011009Y-5449106D01*
X6017493Y-5433491D01*
X6017507Y-5416583D01*
X6016508Y-5414164D01*
X6021000Y-5412308D01*
X6021000Y-5575000D01*
X6023207Y-5586098D01*
X6029494Y-5595506D01*
X6070887Y-5636899D01*
X6070010Y-5639012D01*
X6069990Y-5660892D01*
X6078346Y-5681114D01*
X6093804Y-5696600D01*
X6114012Y-5704990D01*
X6135892Y-5705010D01*
X6156114Y-5696654D01*
X6171600Y-5681196D01*
X6179990Y-5660988D01*
X6179999Y-5651248D01*
X6189012Y-5654990D01*
X6210892Y-5655010D01*
X6231114Y-5646654D01*
X6246600Y-5631196D01*
X6254990Y-5610988D01*
X6255010Y-5589108D01*
X6254313Y-5587421D01*
X6260427Y-5588159D01*
X6298586Y-5550000D01*
X6298029Y-5549443D01*
X6299443Y-5548029D01*
X6300000Y-5548586D01*
X6300557Y-5548029D01*
X6301971Y-5549443D01*
X6301414Y-5550000D01*
X6339573Y-5588159D01*
X6352136Y-5586643D01*
X6362190Y-5563902D01*
X6362776Y-5539045D01*
X6358890Y-5529000D01*
X6387988Y-5529000D01*
X6420000Y-5561012D01*
X6420000Y-5771000D01*
X6348126Y-5771000D01*
X6352491Y-5760489D01*
X6352509Y-5739603D01*
X6344533Y-5720300D01*
X6329778Y-5705519D01*
X6316478Y-5699996D01*
X6329700Y-5694533D01*
X6344481Y-5679778D01*
X6352491Y-5660489D01*
X6352509Y-5639603D01*
X6344533Y-5620300D01*
X6329778Y-5605519D01*
X6329747Y-5605506D01*
X6334145Y-5603805D01*
X6336643Y-5602136D01*
X6338159Y-5589573D01*
X6300000Y-5551414D01*
X6261841Y-5589573D01*
X6263357Y-5602136D01*
X6270606Y-5605340D01*
X6270300Y-5605467D01*
X6255519Y-5620222D01*
X6247509Y-5639511D01*
X6247491Y-5660397D01*
X6255467Y-5679700D01*
X6270222Y-5694481D01*
X6283521Y-5700004D01*
X6270300Y-5705467D01*
X6255519Y-5720222D01*
X6247509Y-5739511D01*
X6247494Y-5756482D01*
X6245506Y-5754494D01*
X6236098Y-5748207D01*
X6225000Y-5746000D01*
X6106102Y-5746000D01*
X6099106Y-5738991D01*
X6083491Y-5732507D01*
X6066583Y-5732493D01*
X6050957Y-5738949D01*
X6038991Y-5750894D01*
X6032507Y-5766509D01*
X6032493Y-5783417D01*
X6038949Y-5799043D01*
X6050894Y-5811009D01*
X6066509Y-5817493D01*
X6083417Y-5817507D01*
X6099043Y-5811051D01*
X6106106Y-5804000D01*
X6212988Y-5804000D01*
X6229494Y-5820506D01*
X6238902Y-5826793D01*
X6238902Y-5826793D01*
X6250000Y-5829000D01*
X6420000Y-5829000D01*
X6420000Y-5830000D01*
X6420000Y-5830000D01*
G37*
X6420000Y-5830000D02*
X6015294Y-5830000D01*
X6015294Y-5638646D01*
X6005978Y-5614524D01*
X6004198Y-5611859D01*
X5991376Y-5610038D01*
X5951414Y-5650000D01*
X5991376Y-5689962D01*
X6004198Y-5688141D01*
X6014668Y-5664497D01*
X6015294Y-5638646D01*
X6015294Y-5830000D01*
X5978005Y-5830000D01*
X5979000Y-5825000D01*
X5979000Y-5750000D01*
X5976793Y-5738902D01*
X5970506Y-5729494D01*
X5956181Y-5715168D01*
X5961354Y-5715294D01*
X5985476Y-5705978D01*
X5988141Y-5704198D01*
X5989962Y-5691376D01*
X5950000Y-5651414D01*
X5949443Y-5651971D01*
X5948029Y-5650557D01*
X5948586Y-5650000D01*
X5948029Y-5649443D01*
X5949443Y-5648029D01*
X5950000Y-5648586D01*
X5989962Y-5608624D01*
X5988141Y-5595802D01*
X5983865Y-5593908D01*
X5996600Y-5581196D01*
X6004990Y-5560988D01*
X6005010Y-5539108D01*
X5996654Y-5518886D01*
X5981451Y-5503656D01*
X5986009Y-5499106D01*
X5992493Y-5483491D01*
X5992507Y-5466583D01*
X5991508Y-5464164D01*
X5999043Y-5461051D01*
X6011009Y-5449106D01*
X6017493Y-5433491D01*
X6017507Y-5416583D01*
X6016508Y-5414164D01*
X6021000Y-5412308D01*
X6021000Y-5575000D01*
X6023207Y-5586098D01*
X6029494Y-5595506D01*
X6070887Y-5636899D01*
X6070010Y-5639012D01*
X6069990Y-5660892D01*
X6078346Y-5681114D01*
X6093804Y-5696600D01*
X6114012Y-5704990D01*
X6135892Y-5705010D01*
X6156114Y-5696654D01*
X6171600Y-5681196D01*
X6179990Y-5660988D01*
X6179999Y-5651248D01*
X6189012Y-5654990D01*
X6210892Y-5655010D01*
X6231114Y-5646654D01*
X6246600Y-5631196D01*
X6254990Y-5610988D01*
X6255010Y-5589108D01*
X6254313Y-5587421D01*
X6260427Y-5588159D01*
X6298586Y-5550000D01*
X6298029Y-5549443D01*
X6299443Y-5548029D01*
X6300000Y-5548586D01*
X6300557Y-5548029D01*
X6301971Y-5549443D01*
X6301414Y-5550000D01*
X6339573Y-5588159D01*
X6352136Y-5586643D01*
X6362190Y-5563902D01*
X6362776Y-5539045D01*
X6358890Y-5529000D01*
X6387988Y-5529000D01*
X6420000Y-5561012D01*
X6420000Y-5771000D01*
X6348126Y-5771000D01*
X6352491Y-5760489D01*
X6352509Y-5739603D01*
X6344533Y-5720300D01*
X6329778Y-5705519D01*
X6316478Y-5699996D01*
X6329700Y-5694533D01*
X6344481Y-5679778D01*
X6352491Y-5660489D01*
X6352509Y-5639603D01*
X6344533Y-5620300D01*
X6329778Y-5605519D01*
X6329747Y-5605506D01*
X6334145Y-5603805D01*
X6336643Y-5602136D01*
X6338159Y-5589573D01*
X6300000Y-5551414D01*
X6261841Y-5589573D01*
X6263357Y-5602136D01*
X6270606Y-5605340D01*
X6270300Y-5605467D01*
X6255519Y-5620222D01*
X6247509Y-5639511D01*
X6247491Y-5660397D01*
X6255467Y-5679700D01*
X6270222Y-5694481D01*
X6283521Y-5700004D01*
X6270300Y-5705467D01*
X6255519Y-5720222D01*
X6247509Y-5739511D01*
X6247494Y-5756482D01*
X6245506Y-5754494D01*
X6236098Y-5748207D01*
X6225000Y-5746000D01*
X6106102Y-5746000D01*
X6099106Y-5738991D01*
X6083491Y-5732507D01*
X6066583Y-5732493D01*
X6050957Y-5738949D01*
X6038991Y-5750894D01*
X6032507Y-5766509D01*
X6032493Y-5783417D01*
X6038949Y-5799043D01*
X6050894Y-5811009D01*
X6066509Y-5817493D01*
X6083417Y-5817507D01*
X6099043Y-5811051D01*
X6106106Y-5804000D01*
X6212988Y-5804000D01*
X6229494Y-5820506D01*
X6238902Y-5826793D01*
X6238902Y-5826793D01*
X6250000Y-5829000D01*
X6420000Y-5829000D01*
X6420000Y-5830000D01*
M02*
